<svg
  width="49"
  height="90"
  viewBox="0 0 49 90"
  fill="none"
  xmlns="http://www.w3.org/2000/svg"
>
  <path
    d="M6.71746 44.2992C4.81046 33.6162 -0.437543 23.5457 0.245757 12.4512C0.470257 8.80566 1.42395 5.04566 4.32395 2.59215C7.66795 -0.236845 11.8455 -0.192351 15.9525 0.179649C19.049 0.617149 22.4795 1.72914 25.569 1.69814C32.2665 1.62964 41.4 -2.61685 46.3945 3.96615C49.5755 8.15865 49.0945 14.6352 48.3215 19.5672C46.9345 28.4147 42.731 36.5067 41.4075 45.3317C40.9545 48.3497 41.329 51.5876 41.5215 54.6186C42.0875 63.5326 42.661 72.0316 39.717 80.6486C38.759 83.4516 37.5145 86.3371 35.051 88.1446C33.913 88.9796 32.732 89.3367 31.372 89.6392C29.6695 88.5652 29.17 87.0466 28.7235 85.1161C26.4895 75.4526 28.2575 66.1297 24.6105 55.9497C21.8745 63.2117 21.3495 70.8242 20.9915 78.5062C20.8585 81.3662 20.9595 84.6356 20.2775 87.4051C19.9935 88.5586 19.555 88.8382 18.7035 89.5957C17.5025 89.9627 16.535 89.9917 15.4195 89.3797C11.824 87.4082 9.84596 82.6946 8.86796 78.9166C7.08546 72.0296 6.13895 64.3737 7.19795 57.2937C7.26245 52.9042 7.17046 48.6757 6.71746 44.2992Z"
    fill="#E3DDC7"
  />
  <path
    d="M6.71746 44.2992C4.81046 33.6162 -0.437543 23.5457 0.245757 12.4512C0.470257 8.80566 1.42395 5.04566 4.32395 2.59215C7.66795 -0.236845 11.8455 -0.192351 15.9525 0.179649C17.7155 1.98365 21.653 2.64717 24.1 2.68017C30.0375 2.76017 39.9015 -0.948337 44.6445 3.74416C45.58 4.66916 46.176 5.65316 46.692 6.85216C48.8305 13.9352 47.252 21.1772 45.412 28.1507C42.6825 28.5652 40.768 31.3602 38.544 32.8547C35.5465 34.8687 31.5125 36.2757 27.9425 36.7772C17.956 38.1817 11.027 33.6101 3.41395 27.8671C4.54795 32.5746 8.18596 39.7482 6.71746 44.2992Z"
    fill="#FEFEFE"
  />
  <path
    d="M6.54028 59C6.54028 42.2558 3.68481 37.2558 0 16.5831C0.226879 11.7278 0.254082 7.02356 3.18481 3.75586C6.56425 -0.011955 11.7226 -0.256226 15.8732 0.239224C17.6548 2.64189 21.7119 2.71191 24.1848 2.75586C30.1852 2.86241 40.8916 -1.49386 45.6848 4.75586C46.6302 5.98782 46.4169 7.52915 46.9384 9.12604C42.8985 8.28564 39.8556 9.01947 35.9947 10.5837C32.3307 8.99882 28.6072 7.12027 24.8245 6.12738C22.3784 8.87433 20.4077 11.863 18.3921 15.1533C15.9565 11.6086 13.2673 6.9531 9.34216 6.61747C6.61709 6.3844 4.56557 8.48073 2.39936 10.3447C0.0439599 19.3959 3.26461 28.2991 5.18475 37.2558C6.33077 43.5255 8.02435 52.9387 6.54028 59Z"
    fill="#C1BCB7"
  />
  <path
    d="M15.9523 0.179688C19.0488 0.617188 22.4793 1.72918 25.5688 1.69818C32.2663 1.62968 41.3998 -2.61681 46.3943 3.96619C49.5753 8.15869 49.0943 14.6352 48.3213 19.5672C46.9343 28.4147 42.7308 36.5067 41.4073 45.3317C40.9543 48.3497 41.3288 51.5877 41.5213 54.6187C42.0873 63.5327 42.6608 72.0317 39.7168 80.6487C38.7588 83.4517 37.5143 86.3372 35.0508 88.1447C33.9128 88.9797 32.7318 89.3367 31.3718 89.6392C29.6693 88.5652 29.1698 87.0467 28.7233 85.1162C26.4893 75.4527 28.2573 66.1297 24.6103 55.9497C21.8743 63.2117 21.3493 70.8242 20.9913 78.5062C20.8583 81.3662 20.9593 84.6357 20.2773 87.4052C19.9933 88.5587 19.5548 88.8382 18.7033 89.5957C17.5023 89.9627 16.5348 89.9917 15.4193 89.3797C11.8238 87.4082 9.84579 82.6947 8.86779 78.9167C7.08529 72.0297 6.13879 64.3737 7.19779 57.2937C9.84029 66.9647 6.56429 78.3012 13.8823 86.8782C15.0888 88.2927 15.9838 88.9287 17.8253 89.0717C21.6328 85.8717 20.1863 71.6547 20.8388 66.5407C21.3963 62.1747 22.4348 58.3607 24.5438 54.4902C31.0328 67.3477 26.6303 78.5557 30.4383 88.1542C31.3448 88.8222 31.3838 88.8047 32.5118 88.7207C45.4358 81.6672 39.4843 57.6217 40.4243 46.0902C40.9298 39.8887 43.3708 33.9722 45.4118 28.1507C47.2518 21.1772 48.8303 13.9352 46.6918 6.8522C46.1758 5.6532 45.5798 4.6692 44.6443 3.7442C39.9013 -0.948298 30.0373 2.76021 24.0998 2.68021C21.6528 2.64721 17.7153 1.98369 15.9523 0.179688Z"
    fill="#818081"
  />
</svg>
