<svg
  width="27"
  height="92"
  viewBox="0 0 27 92"
  fill="none"
  xmlns="http://www.w3.org/2000/svg"
>
  <path
    d="M13.4066 0C9.12665 0.103 5.12663 0.219507 1.08163 1.75751C0.921633 2.19851 0.77664 2.63902 0.65164 3.09052C-1.98836 12.641 4.07165 64.112 6.75165 76.158C7.92665 81.4345 9.38664 86.19 12.0266 90.9135C13.3616 91.5775 13.7017 91.828 15.2317 91.606C15.6217 91.3095 15.9716 90.9725 16.2366 90.556C19.8936 84.767 22.6721 59.7645 23.2651 51.9685C23.7281 45.879 23.6991 39.7565 24.1376 33.6665C24.8796 23.36 27.5067 12.185 25.0597 1.992C21.1822 0.280504 17.5716 0.177 13.4066 0Z"
    fill="#818081"
  />
  <path
    d="M24.1806 2.30013C16.8766 0.828134 9.36165 0.790642 2.04165 2.18914C-0.348355 8.50164 0.971635 15.5582 1.53164 22.1077C2.55664 34.1817 5.35663 83.7751 13.1516 90.3651C13.5116 90.6696 14.0066 90.6982 14.4616 90.8032C17.9866 88.0852 20.5906 66.0732 21.2686 60.8407C22.7301 49.5632 23.2536 37.9097 23.5346 26.5427C25.2756 19.0292 25.7676 9.87463 24.1806 2.30013Z"
    fill="#E3DDC7"
  />
  <path
    d="M24.1806 2.30013C16.8766 0.828134 9.36165 0.790642 2.04165 2.18914C-0.348355 8.50164 0.971635 15.5582 1.53164 22.1077C3.61664 26.8657 6.28664 34.6706 11.5016 36.6041C12.8616 37.1091 14.2716 37.0216 15.5716 36.3781C19.8151 34.2746 20.3221 29.2967 23.5346 26.5427C25.2756 19.0292 25.7676 9.87463 24.1806 2.30013Z"
    fill="#FEFEFE"
  />
</svg>
