<svg
  width="28"
  height="94"
  viewBox="0 0 28 94"
  fill="none"
  xmlns="http://www.w3.org/2000/svg"
>
  <path
    d="M25.2672 1.87032C19.5637 0.592317 8.44425 -1.56268 3.14775 1.78282C1.66675 2.71832 0.47123 4.33181 0.15773 6.06981C-0.21527 8.14031 0.172236 10.6383 0.313736 12.7393C1.07174 21.8533 2.40975 30.9133 3.25826 40.0198C4.72526 55.7753 4.79175 72.5928 10.1792 87.6488C10.8882 89.6293 12.0347 92.3503 14.0442 93.3038L15.3072 92.8288C22.7772 84.9418 24.1357 43.9938 25.3967 32.1923C26.2147 24.5328 28.1517 16.6288 27.9397 8.91881C27.8592 5.98131 27.4272 3.93182 25.2672 1.87032Z"
    fill="#E3DDC7"
  />
  <path
    d="M25.2672 1.87032C19.5637 0.592317 8.44425 -1.56268 3.14775 1.78282C1.66675 2.71832 0.471232 4.33181 0.157732 6.06981C-0.215268 8.14031 0.172238 10.6383 0.313738 12.7393L1.03624 12.4333L2.99224 28.1433C3.08574 28.1968 3.18074 28.2483 3.27324 28.3033C6.62774 30.3023 10.0567 39.5053 14.5197 38.4278C19.0097 37.3438 21.7453 31.8838 24.5253 28.7173C25.8758 21.9488 28.0332 12.9178 26.6132 6.12633C26.2187 4.24183 25.5447 3.53533 23.9962 2.52083L25.2672 1.87032Z"
    fill="#FEFEFE"
  />
  <path
    d="M25.2671 1.87032C19.5636 0.592317 8.44415 -1.56268 3.14765 1.78282C1.66665 2.71832 0.471127 4.33181 0.157627 6.06981C-0.215373 8.14031 0.172133 10.6383 0.313633 12.7393L1.03614 12.4333C0.984137 10.3108 0.760145 7.94583 1.06314 5.84883C1.20564 4.86633 1.47565 3.91681 2.31415 3.31981C7.07465 -0.0686891 18.6021 1.60933 23.9961 2.52083L25.2671 1.87032Z"
    fill="#2B262E"
  />
  <path
    d="M25.2672 1.87036L23.9962 2.52087C25.5447 3.53537 26.2187 4.24187 26.6132 6.12637C28.0332 12.9179 25.8758 21.9489 24.5253 28.7174C24.3588 41.0354 20.9103 82.0054 15.4588 91.4289C14.9998 92.2219 14.9292 92.3984 14.0047 92.6394C13.8022 92.5079 13.7037 92.4514 13.5062 92.2824C6.55174 86.3354 4.23923 38.2614 2.99223 28.1434L1.03624 12.4334L0.313736 12.7394C1.07174 21.8534 2.40975 30.9134 3.25826 40.0199C4.72526 55.7754 4.79175 72.5929 10.1792 87.6489C10.8882 89.6294 12.0347 92.3504 14.0442 93.3039L15.3072 92.8289C22.7772 84.9419 24.1357 43.9939 25.3967 32.1924C26.2147 24.5329 28.1517 16.6289 27.9397 8.91885C27.8592 5.98135 27.4272 3.93186 25.2672 1.87036Z"
    fill="#818081"
  />
</svg>
