<svg
  width="39"
  height="96"
  viewBox="0 0 39 96"
  fill="none"
  xmlns="http://www.w3.org/2000/svg"
>
  <path
    d="M38.3077 4.81775C37.7317 4.19225 37.1142 3.52275 36.3977 3.05725C33.0062 0.853749 20.5777 -0.614767 16.5097 0.253233C12.6912 1.31623 2.83315 0.988753 0.921646 4.53625C0.762646 4.83075 0.623667 5.10373 0.530167 5.42373C-0.337333 8.03673 0.0331532 11.2977 0.422653 13.9872C1.52215 21.5802 4.66166 28.8343 5.92116 36.4163C7.93866 48.5613 8.26015 61.0158 10.2222 73.2003C11.0582 78.3933 12.8491 91.4243 17.5636 94.5428C18.2741 95.0128 19.2372 95.2443 20.0612 95.0598C21.7622 94.6793 22.6047 93.2847 23.4662 91.8977C29.6387 81.9602 31.1672 49.5792 33.1662 36.7727C34.7377 26.7082 40.6082 14.9267 38.3077 4.81775Z"
    fill="#E3DDC7"
  />
  <path
    d="M38.3076 4.81775C37.7316 4.19225 37.1141 3.52275 36.3976 3.05725C33.0061 0.853749 20.5776 -0.614767 16.5096 0.253233C12.6911 1.31623 2.8331 0.988753 0.9216 4.53625C0.7626 4.83075 0.623621 5.10373 0.530121 5.42373L1.04211 8.03573C1.16561 15.7577 4.22762 21.9572 5.37762 29.3177C8.47012 30.3247 11.5961 35.0147 13.9636 37.3467C15.2936 38.6572 16.6031 39.6252 18.5526 39.5527C24.6536 39.3257 29.4906 33.1222 33.2576 29.0197C35.3276 23.1777 36.9046 17.5677 37.6871 11.4062C37.9626 9.21675 38.1261 7.01625 38.3076 4.81775Z"
    fill="#FEFEFE"
  />
  <path
    d="M38.3076 4.81775C37.7316 4.19225 37.1141 3.52275 36.3976 3.05725C33.0061 0.853749 20.5776 -0.614767 16.5096 0.253233L17.9661 1.30026C23.5826 0.57226 31.8406 5.11374 36.7771 7.72024C37.6946 8.76174 37.5986 10.0817 37.6871 11.4062C37.9626 9.21675 38.1261 7.01625 38.3076 4.81775Z"
    fill="#B7B2AB"
  />
  <path
    d="M16.5096 0.253174C12.6911 1.31617 2.83304 0.988694 0.921539 4.53619C0.762539 4.83069 0.62356 5.10368 0.53006 5.42368L1.04205 8.03568C6.39555 7.44468 12.9891 3.4982 17.9661 1.3002L16.5096 0.253174Z"
    fill="#CCC4BF"
  />
  <path
    d="M38.3077 4.81763C38.1262 7.01613 37.9626 9.21663 37.6871 11.4061C36.9046 17.5676 35.3276 23.1776 33.2576 29.0196C31.0581 41.7806 28.8232 86.6696 20.2117 94.0946C19.2642 94.2366 19.0317 94.3951 18.2117 93.8091C13.5202 90.4546 11.6682 76.0246 10.8467 70.3806C8.85666 56.7121 8.49167 42.7996 5.37767 29.3176C4.22767 21.9571 1.16566 15.7576 1.04216 8.03561L0.530167 5.42361C-0.337333 8.03661 0.0331532 11.2976 0.422653 13.9871C1.52215 21.5801 4.66166 28.8341 5.92116 36.4161C7.93866 48.5611 8.26015 61.0156 10.2222 73.2001C11.0582 78.3931 12.8491 91.4241 17.5636 94.5426C18.2741 95.0126 19.2372 95.2441 20.0612 95.0596C21.7622 94.6791 22.6047 93.2846 23.4662 91.8976C29.6387 81.9601 31.1672 49.5791 33.1662 36.7726C34.7377 26.7081 40.6082 14.9266 38.3077 4.81763Z"
    fill="#737071"
  />
</svg>
