<svg
  width="41"
  height="95"
  viewBox="0 0 41 95"
  fill="none"
  xmlns="http://www.w3.org/2000/svg"
>
  <path
    d="M34.0673 2.55545C24.9588 -0.266048 12.9538 -1.57753 4.14475 3.04297C2.63075 3.83697 0.978748 5.08995 0.458748 6.79495C-0.790252 10.8895 0.784754 17.727 1.94025 21.763C4.02325 28.66 5.94125 35.847 6.96125 42.987C8.80775 55.9085 9.22075 69.2175 12.6748 81.8625C13.5848 85.193 15.4638 92.2415 18.7733 93.898C19.7338 94.3785 20.6562 94.421 21.6697 94.0745C23.4132 93.4785 24.7147 91.1885 25.4627 89.6425C31.6902 76.776 32.1803 49.5125 34.9853 34.352C36.2053 27.76 39.0013 21.412 39.8853 14.7755C40.2228 12.2435 40.4758 9.08447 39.5738 6.65997C38.7223 4.37147 36.1193 3.45345 34.0673 2.55545Z"
    fill="#E3DDC7"
  />
  <path
    d="M34.0673 2.55545C24.9588 -0.266048 12.9538 -1.57753 4.14481 3.04297C2.63081 3.83697 0.978801 5.08995 0.458801 6.79495C-0.790199 10.8895 0.784808 17.727 1.94031 21.763L2.61331 20.9005C3.27481 23.1195 4.42832 25.858 4.67682 28.13C8.37832 29.2155 12.4053 35.144 16.3873 37.5315C21.7318 37.828 24.9258 37.548 29.0778 33.851C30.9553 32.179 32.8378 29.5825 35.0788 28.4735C36.5758 22.396 41.2793 12.8065 38.3178 6.72446C37.2693 4.57096 35.4993 4.04145 33.3588 3.26245L34.0673 2.55545Z"
    fill="#FEFEFE"
  />
  <path
    d="M34.0671 2.55545C24.9586 -0.266048 12.9536 -1.57753 4.14462 3.04297C2.63062 3.83697 0.978618 5.08995 0.458618 6.79495C-0.790382 10.8895 0.784624 17.727 1.94012 21.763L2.61313 20.9005C1.44963 17.0555 0.138613 10.791 1.44711 6.93198C1.94361 5.46848 2.99362 4.62296 4.33762 3.94446C12.2911 -0.0700407 25.0696 0.656953 33.3586 3.26245L34.0671 2.55545Z"
    fill="#2B262E"
  />
  <path
    d="M34.0673 2.55566L33.3587 3.26266C35.4992 4.04166 37.2693 4.57117 38.3178 6.72467C41.2793 12.8067 36.5758 22.3962 35.0788 28.4737C31.8258 45.9812 31.1013 63.9672 27.0898 81.3317C26.2008 85.1802 25.0793 90.7562 21.5173 92.9877C20.4098 93.0852 19.9833 93.2182 18.9893 92.6462C11.5173 88.3467 9.07927 51.6462 7.70527 42.1307C7.01877 37.3752 5.98377 32.7522 4.67677 28.1302C4.42827 25.8582 3.27476 23.1197 2.61326 20.9007L1.94025 21.7632C4.02325 28.6602 5.94125 35.8472 6.96125 42.9872C8.80775 55.9087 9.22075 69.2177 12.6748 81.8627C13.5848 85.1932 15.4638 92.2417 18.7733 93.8982C19.7338 94.3787 20.6562 94.4212 21.6697 94.0747C23.4132 93.4787 24.7147 91.1887 25.4627 89.6427C31.6902 76.7762 32.1803 49.5127 34.9853 34.3522C36.2053 27.7602 39.0013 21.4122 39.8853 14.7757C40.2228 12.2437 40.4758 9.08469 39.5738 6.66019C38.7223 4.37169 36.1193 3.45366 34.0673 2.55566Z"
    fill="#737071"
  />
</svg>
