<svg
  width="50"
  height="91"
  viewBox="0 0 50 91"
  fill="none"
  xmlns="http://www.w3.org/2000/svg"
>
  <path
    d="M47.3822 4.31505C46.2857 2.55705 44.6387 0.948051 42.5917 0.410051C36.9892 -1.06245 31.0537 1.96557 25.4007 2.11757C20.4327 2.25157 15.7057 -0.231436 10.6467 0.0175642C8.24172 0.136064 6.49273 0.66355 4.42973 1.89705C3.84023 2.37155 3.12173 2.83907 2.76373 3.51457C-0.586271 8.36657 -0.344767 15.3145 0.658733 20.8815C1.99473 28.296 6.20573 34.9816 7.29873 42.3771C8.96373 53.6441 2.09073 80.3006 13.8087 88.5856C14.7842 89.2751 15.9317 89.6391 17.0662 89.9771C18.2847 89.5106 18.6352 88.9925 19.1457 87.776C21.6482 81.812 19.8772 60.3501 24.1007 57.2906C30.6652 63.9896 25.7802 90.6206 33.2462 90.4476C34.9872 90.4076 37.1447 88.5836 38.2467 87.3746C48.6252 75.9856 41.9142 56.4561 43.8347 42.8741C45.2777 32.6686 50.2847 23.3556 49.6182 12.8231C49.4602 10.3221 48.8747 7.91056 48.0977 5.53356L47.3822 4.31505Z"
    fill="#E3DDC7"
  />
  <path
    d="M47.3823 4.31505C46.2858 2.55705 44.6388 0.948051 42.5918 0.410051C36.9893 -1.06245 31.0538 1.96557 25.4008 2.11757C20.4328 2.25157 15.7058 -0.231436 10.6468 0.0175642C8.2418 0.136064 6.49281 0.66355 4.42981 1.89705C3.84031 2.37155 3.12181 2.83907 2.76381 3.51457L2.9163 5.88207C-0.106198 11.1711 0.966302 18.8781 2.4788 24.4981C2.8703 25.8996 3.3208 27.2841 3.8283 28.6481C3.9208 28.6826 4.0128 28.7181 4.1058 28.7511C7.0013 29.7841 8.98331 32.258 11.4978 33.9335C13.8518 35.502 17.3583 36.6241 20.1133 37.2596C32.7428 40.1736 36.5643 34.5341 45.8878 28.8076L46.2228 28.6041C48.2058 22.4356 49.8183 15.206 47.6008 8.88405L48.0978 5.53356L47.3823 4.31505Z"
    fill="#FEFEFE"
  />
  <path
    d="M47.3822 4.31505C46.2857 2.55705 44.6387 0.948051 42.5917 0.410051C36.9892 -1.06245 31.0537 1.96557 25.4007 2.11757C20.4327 2.25157 15.7057 -0.231436 10.6467 0.0175642C8.24168 0.136064 6.49268 0.66355 4.42968 1.89705C3.84018 2.37155 3.12168 2.83907 2.76368 3.51457L2.91618 5.88207C4.58368 4.48007 6.15419 3.56255 8.41119 3.74605C11.4562 3.99355 14.3627 6.16306 16.8667 7.79656C19.7077 6.94106 22.5692 5.95356 25.4502 5.25456C27.6992 7.16056 29.6707 9.24405 31.6632 11.4126C34.0187 8.70505 37.0327 4.44755 40.9857 4.23305C42.7637 4.13705 44.2957 5.07255 45.5637 6.23305C46.3852 6.98505 47.0047 7.94955 47.6007 8.88405L48.0977 5.53356L47.3822 4.31505Z"
    fill="#C1BCB7"
  />
  <path
    d="M47.3821 4.31505C46.2856 2.55705 44.6386 0.948051 42.5916 0.410051C36.9891 -1.06245 31.0536 1.96557 25.4006 2.11757C20.4326 2.25157 15.7056 -0.231436 10.6466 0.0175642C8.2416 0.136064 6.49261 0.66355 4.42961 1.89705C13.1271 0.43655 17.8976 3.14457 25.8371 3.09657C31.5781 3.06157 37.0376 1.22206 42.8996 1.29106L43.0951 1.29506C44.5071 2.29856 45.9086 3.41055 47.3821 4.31505Z"
    fill="#737071"
  />
  <path
    d="M2.91623 5.88214L2.76373 3.51465C-0.586271 8.36665 -0.344767 15.3146 0.658733 20.8816C1.99473 28.2961 6.20573 34.9816 7.29873 42.3771C8.96373 53.6441 2.09073 80.3006 13.8087 88.5856C14.7842 89.2751 15.9317 89.6391 17.0662 89.9771C18.2847 89.5106 18.6352 88.9926 19.1457 87.7761C21.6482 81.8121 19.8772 60.3501 24.1007 57.2906C30.6652 63.9896 25.7802 90.6206 33.2462 90.4476C34.9872 90.4076 37.1447 88.5836 38.2467 87.3746C48.6252 75.9856 41.9142 56.4561 43.8347 42.8741C45.2777 32.6686 50.2847 23.3557 49.6182 12.8232C49.4602 10.3222 48.8747 7.91063 48.0977 5.53363L47.6007 8.88412C49.8182 15.2061 48.2057 22.4356 46.2227 28.6041C44.7082 34.2551 42.9007 39.9346 42.5067 45.8006C41.8367 55.7771 46.2012 82.4826 35.8212 88.7566C34.4897 89.5611 33.2697 89.6376 31.7737 89.3576C27.8532 84.5576 30.8772 61.5616 24.8942 56.1046C23.8827 56.0556 23.6792 55.9746 22.8782 56.6911C17.5962 61.4166 21.9027 86.2631 16.7857 88.8311C15.0567 88.6191 13.9322 87.3581 12.9052 86.0521C3.24224 73.7686 9.76123 57.4471 8.35273 43.5086C7.82473 38.2811 5.61773 33.5216 3.82823 28.6481C3.32073 27.2841 2.87023 25.8996 2.47873 24.4981C0.966225 18.8781 -0.106275 11.1711 2.91623 5.88214Z"
    fill="#737071"
  />
</svg>
