<svg
  width="51"
  height="93"
  viewBox="0 0 51 93"
  fill="none"
  xmlns="http://www.w3.org/2000/svg"
>
  <path
    d="M41.0197 0.219673C35.2392 -0.457327 30.3262 2.19017 24.7267 2.20017C19.7447 2.20917 15.0392 -0.285832 10.1042 0.027168C7.96224 0.162668 5.80725 0.755166 4.09375 2.09367C1.37075 4.22017 0.541236 7.62118 0.195736 10.8967C-0.643264 18.8397 1.34175 26.0507 3.74675 33.5396C4.62825 36.2852 5.72424 39.1097 6.07724 41.9777C8.01474 57.7247 2.49025 67.8222 8.83975 84.8472C9.56125 86.7807 10.3427 89.5856 11.5787 91.1686C12.2422 92.0181 13.1417 92.5387 14.1487 92.8872C14.8267 92.7422 15.2277 92.7962 15.6502 92.2002C17.6907 89.3212 17.8242 75.1342 18.4762 71.0227C19.6667 63.5172 21.5317 55.9737 25.5432 49.4427C27.7512 52.9347 29.0377 56.1787 30.1032 60.1657C31.5537 65.5917 34.2812 88.6052 36.6277 90.9197C36.7107 90.9137 36.7947 90.9176 36.8762 90.9016C38.0972 90.6646 39.0567 89.5907 39.7682 88.6432C41.8397 85.8837 42.7107 82.4482 43.4152 79.1292C45.1292 71.0567 45.0772 63.5852 44.6807 55.4162C44.4962 51.6152 44.0887 47.4592 44.5332 43.6887C45.9962 31.2742 51.5347 23.5867 49.7607 10.3062C49.0362 8.32216 48.2572 6.22967 47.2162 4.38367C45.7542 1.79067 43.7782 0.954173 41.0197 0.219673Z"
    fill="#E3DDC7"
  />
  <path
    d="M49.7607 10.3062C49.0362 8.32221 48.2572 6.22973 47.2162 4.38373C45.7542 1.79073 43.7782 0.954227 41.0197 0.219727C38.5242 1.02573 35.9342 1.36021 33.3507 1.76321C31.0927 2.45521 28.7277 3.2792 26.3447 3.2677C22.2652 3.2487 8.72574 -0.552299 6.02574 2.0997L10.6442 2.9447L10.9807 3.43573C8.06424 3.70423 5.63924 4.11821 3.66174 6.46121C0.839243 9.80421 0.843741 14.5997 1.24974 18.7347C1.54274 21.7142 2.17024 24.7167 2.83174 27.6352C6.43274 28.5552 9.98775 34.0417 14.4707 35.7047C24.9447 39.5902 32.5207 37.4212 41.6807 31.5557C43.4932 30.3952 45.0072 28.6977 46.9782 27.8372C47.0722 27.7957 47.1672 27.7572 47.2617 27.7172C48.6312 22.5152 49.2487 18.1157 48.8122 12.7217L49.7607 10.3062Z"
    fill="#FEFEFE"
  />
  <path
    d="M33.3508 1.76323C31.0928 2.45523 28.7278 3.27922 26.3448 3.26772C22.2653 3.24872 8.72583 -0.552279 6.02583 2.09972L10.6443 2.94472L10.9808 3.43575C15.4258 4.90975 19.5093 7.68824 23.6773 9.82674C28.8293 7.70874 32.8638 4.49774 38.5173 3.49624C36.5883 3.39624 35.0558 2.58623 33.3508 1.76323Z"
    fill="#B7B2AB"
  />
  <path
    d="M49.7607 10.3062C49.0362 8.32221 48.2572 6.22973 47.2162 4.38373C45.7542 1.79073 43.7782 0.954227 41.0197 0.219727C38.5242 1.02573 35.9342 1.36021 33.3507 1.76321C35.0557 2.58621 36.5882 3.39622 38.5172 3.49622C41.3307 3.57822 43.6752 4.24922 45.6452 6.36722C47.2167 8.05672 48.3812 10.4557 48.8122 12.7217L49.7607 10.3062Z"
    fill="#B7B2AB"
  />
  <path
    d="M41.0198 0.219673C35.2393 -0.457327 30.3263 2.19017 24.7268 2.20017C19.7448 2.20917 15.0393 -0.285832 10.1043 0.027168C7.96228 0.162668 5.80728 0.755166 4.09378 2.09367C1.37078 4.22017 0.54127 7.62118 0.19577 10.8967C-0.64323 18.8397 1.34178 26.0507 3.74678 33.5396C4.62828 36.2852 5.72427 39.1097 6.07727 41.9777C8.01477 57.7247 2.49028 67.8222 8.83978 84.8472C9.56128 86.7807 10.3428 89.5856 11.5788 91.1686C12.2423 92.0181 13.1418 92.5387 14.1488 92.8872C14.8268 92.7422 15.2278 92.7962 15.6503 92.2002C17.6908 89.3212 17.8243 75.1342 18.4763 71.0227C19.6668 63.5172 21.5318 55.9737 25.5433 49.4427C27.7513 52.9347 29.0378 56.1787 30.1033 60.1657C31.5538 65.5917 34.2813 88.6052 36.6278 90.9197C33.7683 79.4647 34.5078 63.2182 28.4658 53.0182C27.5163 51.4147 26.6683 50.6832 24.8828 50.2382C16.4718 52.9297 17.3378 87.4547 14.6533 91.7367L13.6423 91.6717C3.15477 82.7407 8.12727 54.0512 6.88127 41.3972C6.42277 36.7417 4.26277 32.0852 2.83177 27.6352C2.17027 24.7167 1.54277 21.7142 1.24977 18.7347C0.843771 14.5997 0.839274 9.80416 3.66177 6.46116C5.63927 4.11816 8.06427 3.70418 10.9808 3.43568L10.6443 2.94465L6.02577 2.09965C8.72577 -0.552353 22.2653 3.24865 26.3448 3.26765C28.7278 3.27915 31.0928 2.45516 33.3508 1.76316C35.9343 1.36016 38.5243 1.02567 41.0198 0.219673Z"
    fill="#818081"
  />
  <path
    d="M49.7607 10.3062L48.8122 12.7216C49.2487 18.1156 48.6312 22.5152 47.2617 27.7172C45.8767 32.7407 43.9617 37.9386 43.5657 43.1501C42.5977 55.8991 47.2982 81.6336 36.6277 90.9196C36.7107 90.9136 36.7947 90.9176 36.8762 90.9016C38.0972 90.6646 39.0567 89.5907 39.7682 88.6432C41.8397 85.8837 42.7107 82.4482 43.4152 79.1292C45.1292 71.0567 45.0772 63.5852 44.6807 55.4162C44.4962 51.6152 44.0887 47.4592 44.5332 43.6887C45.9962 31.2742 51.5347 23.5867 49.7607 10.3062Z"
    fill="#818081"
  />
</svg>
