<svg
  width="49"
  height="90"
  viewBox="0 0 49 90"
  fill="none"
  xmlns="http://www.w3.org/2000/svg"
>
  <path
    d="M42.1759 44.2992C44.0829 33.6162 49.3309 23.5457 48.6476 12.4512C48.4231 8.80566 47.4694 5.04566 44.5694 2.59215C41.2254 -0.236845 37.0479 -0.192351 32.9409 0.179649C29.8444 0.617149 26.4139 1.72914 23.3244 1.69814C16.6269 1.62964 7.49335 -2.61685 2.49885 3.96615C-0.682148 8.15865 -0.201143 14.6352 0.571857 19.5672C1.95886 28.4147 6.16235 36.5067 7.48585 45.3317C7.93885 48.3497 7.56435 51.5876 7.37185 54.6186C6.80585 63.5326 6.23236 72.0316 9.17636 80.6486C10.1344 83.4516 11.3789 86.3371 13.8424 88.1446C14.9804 88.9796 16.1614 89.3367 17.5214 89.6392C19.2239 88.5652 19.7234 87.0466 20.1699 85.1161C22.4039 75.4526 20.6359 66.1297 24.2829 55.9497C27.0189 63.2117 27.5439 70.8242 27.9019 78.5062C28.0349 81.3662 27.9339 84.6356 28.6159 87.4051C28.8999 88.5586 29.3384 88.8382 30.1899 89.5957C31.3909 89.9627 32.3584 89.9917 33.4739 89.3797C37.0694 87.4082 39.0474 82.6946 40.0254 78.9166C41.8079 72.0296 42.7544 64.3737 41.6954 57.2937C41.6309 52.9042 41.7229 48.6757 42.1759 44.2992Z"
    fill="#E3DDC7"
  />
  <path
    d="M42.1759 44.2992C44.0829 33.6162 49.3309 23.5457 48.6476 12.4512C48.4231 8.80566 47.4694 5.04566 44.5694 2.59215C41.2254 -0.236845 37.0479 -0.192351 32.9409 0.179649C31.1779 1.98365 27.2404 2.64717 24.7934 2.68017C18.8559 2.76017 8.99185 -0.948337 4.24885 3.74416C3.31335 4.66916 2.71735 5.65316 2.20135 6.85216C0.0628512 13.9352 1.64136 21.1772 3.48136 28.1507C6.21086 28.5652 8.12535 31.3602 10.3494 32.8547C13.3469 34.8687 17.3809 36.2757 20.9509 36.7772C30.9374 38.1817 37.8664 33.6101 45.4794 27.8671C44.3454 32.5746 40.7074 39.7482 42.1759 44.2992Z"
    fill="#FEFEFE"
  />
  <path
    d="M42.353 59C42.353 42.2558 45.2085 37.2558 48.8933 16.5831C48.6664 11.7278 48.6392 7.02356 45.7085 3.75586C42.3291 -0.011955 37.1707 -0.256226 33.0202 0.239224C31.2385 2.64189 27.1814 2.71191 24.7085 2.75586C18.7081 2.86241 8.00176 -1.49386 3.2085 4.75586C2.26308 5.98782 2.47637 7.52915 1.9549 9.12604C5.99476 8.28564 9.03767 9.01947 12.8987 10.5837C16.5626 8.99882 20.2861 7.12027 24.0688 6.12738C26.5149 8.87433 28.4856 11.863 30.5012 15.1533C32.9368 11.6086 35.626 6.9531 39.5511 6.61747C42.2762 6.3844 44.3277 8.48073 46.494 10.3447C48.8494 19.3959 45.6287 28.2991 43.7086 37.2558C42.5625 43.5255 40.869 52.9387 42.353 59Z"
    fill="#C1BCB7"
  />
  <path
    d="M32.941 0.179688C29.8445 0.617188 26.414 1.72918 23.3245 1.69818C16.627 1.62968 7.49352 -2.61681 2.49902 3.96619C-0.68198 8.15869 -0.200975 14.6352 0.572025 19.5672C1.95903 28.4147 6.16252 36.5067 7.48602 45.3317C7.93902 48.3497 7.56452 51.5877 7.37202 54.6187C6.80602 63.5327 6.23253 72.0317 9.17653 80.6487C10.1345 83.4517 11.379 86.3372 13.8425 88.1447C14.9805 88.9797 16.1615 89.3367 17.5215 89.6392C19.224 88.5652 19.7235 87.0467 20.17 85.1162C22.404 75.4527 20.636 66.1297 24.283 55.9497C27.019 63.2117 27.544 70.8242 27.902 78.5062C28.035 81.3662 27.934 84.6357 28.616 87.4052C28.9 88.5587 29.3385 88.8382 30.19 89.5957C31.391 89.9627 32.3585 89.9917 33.474 89.3797C37.0695 87.4082 39.0475 82.6947 40.0255 78.9167C41.808 72.0297 42.7545 64.3737 41.6955 57.2937C39.053 66.9647 42.329 78.3012 35.011 86.8782C33.8045 88.2927 32.9095 88.9287 31.068 89.0717C27.2605 85.8717 28.707 71.6547 28.0545 66.5407C27.497 62.1747 26.4585 58.3607 24.3495 54.4902C17.8605 67.3477 22.263 78.5557 18.455 88.1542C17.5485 88.8222 17.5095 88.8047 16.3815 88.7207C3.45752 81.6672 9.40902 57.6217 8.46902 46.0902C7.96352 39.8887 5.52253 33.9722 3.48153 28.1507C1.64153 21.1772 0.063019 13.9352 2.20152 6.8522C2.71752 5.6532 3.31352 4.6692 4.24902 3.7442C8.99202 -0.948298 18.856 2.76021 24.7935 2.68021C27.2405 2.64721 31.178 1.98369 32.941 0.179688Z"
    fill="#818081"
  />
</svg>
