<svg
  width="49"
  height="94"
  viewBox="0 0 49 94"
  fill="none"
  xmlns="http://www.w3.org/2000/svg"
>
  <path
    d="M0.615513 84.1325C-2.01684 73.033 4.55141 60.231 6.08891 49.4425C7.26741 41.17 3.93541 1.13 15.1139 0C17.0724 1.9235 16.8019 24.132 18.4999 27.9935C18.7374 28.533 19.3439 30.9175 19.6154 31.716C20.9494 27.123 23.1069 9.48201 25.5364 7.69901C28.6469 9.37651 29.8404 20.713 30.3819 24.2515C30.6274 24.8905 31.0079 25.62 31.3144 26.248L31.8634 26.095L32.7099 23.5175C33.6254 19.292 34.7319 8.9895 36.8834 6.2105L37.7524 6.02551C46.6684 13.386 39.9719 40.5345 41.1294 50.319C42.3199 60.386 47.9219 67.6345 48.2669 78.582C47.9989 84.555 48.1624 87.1595 43.6429 91.5415C34.8344 94.2925 33.4029 91.5425 25.4164 91.6775C18.0494 91.802 1.03326 97.795 0.615513 84.1325Z"
    fill="#E3DDC7"
  />
  <path
    d="M3.98838 63.2345C13.2779 57.398 15.6849 53.0055 29.3109 55.1925C36.3219 56.3175 40.8044 62.071 43.8214 63.038C45.4754 67.825 47.2209 72.471 47.1099 77.6175L48.2669 78.582C47.9989 84.555 48.1624 87.1595 43.6429 91.5415C34.8344 94.2925 33.4029 91.5425 25.4164 91.6775C18.0494 91.802 1.03323 97.795 0.615479 84.1325L1.11543 78.577C1.52838 71.99 2.07388 69.602 3.98838 63.2345Z"
    fill="#FEFEFE"
  />
  <path
    d="M47.1099 77.6172L48.2669 78.5817C47.9989 84.5547 48.1624 87.1592 43.6429 91.5412C34.8344 94.2922 33.4029 91.5422 25.4164 91.6772C18.0494 91.8017 1.03323 97.7947 0.615479 84.1322L1.11543 78.5767C1.61988 82.1582 2.02288 85.4817 5.27088 87.8272C6.50438 88.7327 8.05938 89.0842 9.56238 88.7972C13.4499 88.0842 15.7724 84.7712 17.9099 81.8167C23.9044 91.0357 25.8594 88.9452 34.9149 85.1262C43.9684 87.1457 47.1109 87.9837 47.1099 77.6172Z"
    fill="#C1BCB7"
  />
  <path
    d="M0.615513 84.1325C-2.01684 73.033 4.55141 60.231 6.08891 49.4425C7.26741 41.17 3.93541 1.13 15.1139 0C17.0724 1.9235 16.8019 24.132 18.4999 27.9935C18.7374 28.533 19.3439 30.9175 19.6154 31.716C20.9494 27.123 23.1069 9.48201 25.5364 7.69901C28.6469 9.37651 29.8404 20.713 30.3819 24.2515C30.6274 24.8905 31.0079 25.62 31.3144 26.248L31.8634 26.095L32.7099 23.5175C33.6254 19.292 34.7319 8.9895 36.8834 6.2105L37.7524 6.02551C46.6684 13.386 39.9719 40.5345 41.1294 50.319C42.3199 60.386 47.9219 67.6345 48.2669 78.582L47.1099 77.6175C47.2209 72.471 45.4754 67.825 43.8214 63.038C42.8804 59.099 40.4754 55.191 40.1339 50.562C39.8009 46.0445 40.1639 42.292 40.6899 37.795C42.2029 24.855 42.2969 17.4565 37.1324 5.5065C36.4474 13.2235 30.6694 42.562 23.6549 44.401C16.8549 42.2525 15.4859 7.5745 14.7894 0.0859985C4.75491 13.4155 8.41191 31.385 7.50291 46.773C7.23791 51.2665 5.14191 58.67 3.98841 63.2345C2.07391 69.602 1.52841 71.99 1.11546 78.577L0.615513 84.1325Z"
    fill="#737071"
  />
  <path
    d="M25.49 9.19434C25.948 9.53484 26.3475 9.98984 26.755 10.3903C28.148 14.6233 31.0605 27.0413 30.0465 31.1408C28.9755 35.4728 26.9825 39.6543 24.493 43.3533C24.2185 43.5943 23.864 43.6063 23.514 43.6848C23.1305 43.3198 22.777 42.9228 22.534 42.4483C21.7225 40.8618 20.9095 38.7143 20.774 36.9403C20.2775 30.4308 23.586 15.6463 25.49 9.19434Z"
    fill="#B7B2AB"
  />
  <path
    d="M30.3821 24.2513C30.9926 23.9593 32.0291 23.7108 32.7101 23.5173L31.8636 26.0948L31.3146 26.2478C31.0081 25.6198 30.6276 24.8903 30.3821 24.2513Z"
    fill="#E3DDC7"
    fill-opacity="0.0156863"
  />
</svg>
