<svg
  width="50"
  height="92"
  viewBox="0 0 50 92"
  fill="none"
  xmlns="http://www.w3.org/2000/svg"
>
  <path
    d="M10.0467 91.7985C-8.8678 89.6575 4.4047 56.92 6.1492 46.6295C7.3772 39.3835 4.2847 4.70599 13.2042 2.35249C17.9347 5.12849 17.3272 38.8845 24.4222 42.3785C31.4657 41.0185 31.0472 2.409 33.6147 0C36.5557 0.6715 37.7292 4.755 38.6632 7.3845C41.3032 15.503 42.6367 27.315 41.2367 35.804C38.6642 51.3985 48.5387 59.3045 49.4582 73.9C50.7192 93.922 40.8957 92.035 25.6392 89.733C24.6502 89.5835 16.5407 91.306 13.9577 91.443C12.2582 91.7915 11.7867 91.813 10.0467 91.7985Z"
    fill="#FEFEFE"
  />
  <path
    d="M10.0467 91.7985C-8.8678 89.6575 4.4047 56.92 6.1492 46.6295C7.3772 39.3835 4.2847 4.70599 13.2042 2.35249C17.9347 5.12849 17.3272 38.8845 24.4222 42.3785C31.4657 41.0185 31.0472 2.409 33.6147 0C36.5557 0.6715 37.7292 4.755 38.6632 7.3845C41.3032 15.503 42.6367 27.315 41.2367 35.804C38.6642 51.3985 48.5387 59.3045 49.4582 73.9C50.7192 93.922 40.8957 92.035 25.6392 89.733C24.6502 89.5835 16.5407 91.306 13.9577 91.443C20.9267 86.614 32.4572 90.117 39.2692 89.7985C52.5747 90.527 48.6002 70.4245 45.9082 62.8745C43.8347 62.689 38.6217 57.303 35.2372 55.529C29.0437 52.2165 19.3817 52.703 13.0527 55.444C10.0877 56.7285 6.9662 60.843 3.5207 61.6435C0.9242 70.2795 -1.2528 80.543 5.4342 88.051C7.1267 89.6455 8.1812 90.4395 10.0467 91.7985Z"
    fill="#E3DDC7"
  />
  <path
    d="M10.0467 91.7985C-8.8678 89.6575 4.4047 56.92 6.1492 46.6295C7.3772 39.3835 4.2847 4.70599 13.2042 2.35249C17.9347 5.12849 17.3272 38.8845 24.4222 42.3785C31.4657 41.0185 31.0472 2.409 33.6147 0C36.5557 0.6715 37.7292 4.755 38.6632 7.3845C41.3032 15.503 42.6367 27.315 41.2367 35.804C38.6642 51.3985 48.5387 59.3045 49.4582 73.9C50.7192 93.922 40.8957 92.035 25.6392 89.733C24.6502 89.5835 16.5407 91.306 13.9577 91.443C20.9267 86.614 32.4572 90.117 39.2692 89.7985C52.5747 90.527 48.6002 70.4245 45.9082 62.8745C44.6112 57.8785 40.7182 52.313 40.3227 46.9145C39.7042 38.469 42.9277 5.82599 33.7867 1.745C32.7432 4.808 32.8047 22.2795 31.3302 26.8125C29.7232 31.7535 29.6987 41.186 25.3592 44.0415C16.6377 44.2905 17.0157 6.6945 12.8052 4.223C6.3532 9.245 7.8507 38.0625 7.0467 46.6365C6.5107 52.3545 5.2677 56.243 3.5207 61.6435C0.9242 70.2795 -1.2528 80.543 5.4342 88.051C7.1267 89.6455 8.1812 90.4395 10.0467 91.7985Z"
    fill="#818081"
  />
  <path
    d="M25.7421 82.4438C29.6791 84.9723 34.8696 88.5433 39.2691 89.7983C32.4571 90.1168 20.9266 86.6138 13.9576 91.4428C12.2581 91.7913 11.7866 91.8128 10.0466 91.7983C8.18109 90.4393 7.12658 89.6453 5.43408 88.0508C11.8326 89.4368 15.3691 89.2168 21.1011 85.5323C22.6561 84.5148 24.2031 83.4853 25.7421 82.4438Z"
    fill="#B7B2AB"
  />
</svg>
