<svg
  width="50"
  height="91"
  viewBox="0 0 50 91"
  fill="none"
  xmlns="http://www.w3.org/2000/svg"
>
  <path
    d="M1.63899 84.4885C-3.40751 68.568 4.67699 60.3465 6.12149 46.887C7.57699 33.3315 3.1185 18.1925 10.401 4.042C11.06 2.762 11.6395 1.786 13.0675 1.354C17.596 3.534 15.315 14.5815 17.3175 18.333C19.4635 16.8135 20.3935 8.086 23.9215 6.031L24.8075 6.4495C26.8665 9.8435 27.4245 20.464 28.573 25.6825L29.489 29.1645L30.002 29.3145L30.8235 27.1885C33.727 16.825 34.454 10.5415 35.811 0C42.891 8.3905 43.8185 24.8545 41.7695 35.1285C38.1455 53.3015 50.369 61.8915 49.3025 78.777C48.241 95.584 33.502 89.1275 22.92 88.4805C18.1945 88.319 8.68549 93.1105 4.71499 88.8485C3.00199 87.6985 2.52949 86.335 1.63899 84.4885Z"
    fill="#E3DDC7"
  />
  <path
    d="M4.00896 59.8084C6.95196 58.5749 7.89246 57.6869 10.549 56.3234C17.108 52.9579 25.53 51.2524 32.6525 53.7384C36.3815 55.0399 41.9795 60.5574 45.058 61.3984C48.162 69.0869 50.769 79.5084 45.1005 86.6904C39.8365 92.3554 30.1335 87.3449 23.2475 87.4204C16.225 87.4974 12.059 91.5244 5.27696 88.7089L4.71497 88.8484C3.00197 87.6984 2.52946 86.3349 1.63896 84.4884L2.51196 81.9169C-0.185538 73.7784 1.66146 67.7269 4.00896 59.8084Z"
    fill="#FEFEFE"
  />
  <path
    d="M17.3607 79.6328C19.5382 81.7833 21.7742 84.1338 24.2177 85.9518C26.4622 84.9783 30.0812 83.3013 32.2997 82.6088C38.0122 86.7793 38.2527 87.4673 45.1007 86.6903C39.8367 92.3553 30.1337 87.3448 23.2477 87.4203C16.2252 87.4973 12.0592 91.5243 5.27716 88.7088L4.71516 88.8483C3.00216 87.6983 2.52966 86.3348 1.63916 84.4883L2.51216 81.9168C7.84216 90.7433 12.9637 85.4353 17.3607 79.6328Z"
    fill="#C1BCB7"
  />
  <path
    d="M1.63899 84.4885C-3.40751 68.568 4.67699 60.3465 6.12149 46.887C7.57699 33.3315 3.1185 18.1925 10.401 4.042C11.06 2.762 11.6395 1.786 13.0675 1.354C17.596 3.534 15.315 14.5815 17.3175 18.333C19.4635 16.8135 20.3935 8.086 23.9215 6.031L24.8075 6.4495C26.8665 9.8435 27.4245 20.464 28.573 25.6825L29.489 29.1645L30.002 29.3145L30.8235 27.1885C33.727 16.825 34.454 10.5415 35.811 0C42.891 8.3905 43.8185 24.8545 41.7695 35.1285C38.1455 53.3015 50.369 61.8915 49.3025 78.777C48.241 95.584 33.502 89.1275 22.92 88.4805C18.1945 88.319 8.68549 93.1105 4.71499 88.8485L5.27699 88.709C12.059 91.5245 16.225 87.4975 23.2475 87.4205C30.1335 87.345 39.8365 92.3555 45.1005 86.6905C50.769 79.5085 48.162 69.087 45.058 61.3985C41.5525 49.9885 38.847 49.5305 40.6915 36.0665C42.365 23.847 41.8755 12.8395 36.532 1.529C36.4195 3.241 36.293 4.9525 36.1525 6.6625C35.496 14.0765 30.3855 38.1885 25.4385 42.3445C17.2445 43.91 14.766 6.983 13.6515 0.684502C4.65898 17.212 7.90799 26.9745 7.37849 44.6485C7.24349 49.1515 5.35548 55.4075 4.00898 59.8085C1.66148 67.727 -0.185512 73.7785 2.51199 81.917L1.63899 84.4885Z"
    fill="#737071"
  />
  <path
    d="M23.8646 7.04932C24.1346 7.22482 24.7367 7.71731 24.8902 7.98281C25.5652 9.14981 25.5812 12.9398 25.8007 14.5313C26.6002 20.3298 27.4577 26.0048 29.2727 31.5963C28.3947 34.7423 27.0032 40.2848 24.1657 42.1598C22.0622 39.0938 20.5352 34.8988 19.5632 31.3203C17.2342 22.7433 19.5591 14.6338 23.8646 7.04932Z"
    fill="#B7B2AB"
  />
  <path
    d="M28.573 25.6824C30.413 26.1199 29.8235 25.7029 30.8235 27.1884L30.002 29.3144L29.489 29.1644L28.573 25.6824Z"
    fill="#C1BCB7"
    fill-opacity="0.0117647"
  />
</svg>
