<svg
  width="51"
  height="93"
  viewBox="0 0 51 93"
  fill="none"
  xmlns="http://www.w3.org/2000/svg"
>
  <path
    d="M9.08768 0.219673C14.8682 -0.457327 19.7812 2.19017 25.3807 2.20017C30.3627 2.20917 35.0682 -0.285832 40.0032 0.027168C42.1452 0.162668 44.3002 0.755166 46.0137 2.09367C48.7367 4.22017 49.5662 7.62118 49.9117 10.8967C50.7507 18.8397 48.7657 26.0507 46.3607 33.5396C45.4792 36.2852 44.3832 39.1097 44.0302 41.9777C42.0927 57.7247 47.6172 67.8222 41.2677 84.8472C40.5462 86.7807 39.7647 89.5856 38.5287 91.1686C37.8652 92.0181 36.9657 92.5387 35.9587 92.8872C35.2807 92.7422 34.8797 92.7962 34.4572 92.2002C32.4167 89.3212 32.2832 75.1342 31.6312 71.0227C30.4407 63.5172 28.5757 55.9737 24.5642 49.4427C22.3562 52.9347 21.0697 56.1787 20.0042 60.1657C18.5537 65.5917 15.8262 88.6052 13.4797 90.9197C13.3967 90.9137 13.3127 90.9176 13.2312 90.9016C12.0102 90.6646 11.0507 89.5907 10.3392 88.6432C8.26768 85.8837 7.39668 82.4482 6.69218 79.1292C4.97818 71.0567 5.03018 63.5852 5.42668 55.4162C5.61118 51.6152 6.01868 47.4592 5.57418 43.6887C4.11118 31.2742 -1.42732 23.5867 0.346685 10.3062C1.07118 8.32216 1.85018 6.22967 2.89118 4.38367C4.35318 1.79067 6.32918 0.954173 9.08768 0.219673Z"
    fill="#E3DDC7"
  />
  <path
    d="M0.34668 10.3062C1.07118 8.32221 1.85017 6.22973 2.89117 4.38373C4.35317 1.79073 6.32918 0.954227 9.08768 0.219727C11.5832 1.02573 14.1732 1.36021 16.7567 1.76321C19.0147 2.45521 21.3797 3.2792 23.7627 3.2677C27.8422 3.2487 41.3817 -0.552299 44.0817 2.0997L39.4632 2.9447L39.1267 3.43573C42.0432 3.70423 44.4682 4.11821 46.4457 6.46121C49.2682 9.80421 49.2637 14.5997 48.8577 18.7347C48.5647 21.7142 47.9372 24.7167 47.2757 27.6352C43.6747 28.5552 40.1197 34.0417 35.6367 35.7047C25.1627 39.5902 17.5867 37.4212 8.42667 31.5557C6.61417 30.3952 5.10017 28.6977 3.12917 27.8372C3.03517 27.7957 2.94017 27.7572 2.84567 27.7172C1.47617 22.5152 0.858674 18.1157 1.29517 12.7217L0.34668 10.3062Z"
    fill="#FEFEFE"
  />
  <path
    d="M16.7566 1.76323C19.0146 2.45523 21.3796 3.27922 23.7626 3.26772C27.8421 3.24872 41.3816 -0.552279 44.0816 2.09972L39.4631 2.94472L39.1266 3.43575C34.6816 4.90975 30.5981 7.68824 26.4301 9.82674C21.2781 7.70874 17.2436 4.49774 11.5901 3.49624C13.5191 3.39624 15.0516 2.58623 16.7566 1.76323Z"
    fill="#B7B2AB"
  />
  <path
    d="M0.34668 10.3062C1.07118 8.32221 1.85017 6.22973 2.89117 4.38373C4.35317 1.79073 6.32918 0.954227 9.08768 0.219727C11.5832 1.02573 14.1732 1.36021 16.7567 1.76321C15.0517 2.58621 13.5192 3.39622 11.5902 3.49622C8.77668 3.57822 6.43217 4.24922 4.46217 6.36722C2.89067 8.05672 1.72617 10.4557 1.29517 12.7217L0.34668 10.3062Z"
    fill="#B7B2AB"
  />
  <path
    d="M9.08765 0.219673C14.8681 -0.457327 19.7811 2.19017 25.3806 2.20017C30.3626 2.20917 35.0681 -0.285832 40.0031 0.027168C42.1451 0.162668 44.3001 0.755166 46.0136 2.09367C48.7366 4.22017 49.5662 7.62118 49.9117 10.8967C50.7507 18.8397 48.7656 26.0507 46.3606 33.5396C45.4791 36.2852 44.3832 39.1097 44.0302 41.9777C42.0927 57.7247 47.6171 67.8222 41.2676 84.8472C40.5461 86.7807 39.7646 89.5856 38.5286 91.1686C37.8651 92.0181 36.9656 92.5387 35.9586 92.8872C35.2806 92.7422 34.8797 92.7962 34.4572 92.2002C32.4167 89.3212 32.2831 75.1342 31.6311 71.0227C30.4406 63.5172 28.5756 55.9737 24.5641 49.4427C22.3561 52.9347 21.0697 56.1787 20.0042 60.1657C18.5537 65.5917 15.8261 88.6052 13.4796 90.9197C16.3391 79.4647 15.5996 63.2182 21.6416 53.0182C22.5911 51.4147 23.4391 50.6832 25.2246 50.2382C33.6356 52.9297 32.7696 87.4547 35.4541 91.7367L36.4651 91.6717C46.9526 82.7407 41.9802 54.0512 43.2262 41.3972C43.6847 36.7417 45.8447 32.0852 47.2757 27.6352C47.9372 24.7167 48.5647 21.7142 48.8577 18.7347C49.2637 14.5997 49.2681 9.80416 46.4456 6.46116C44.4681 4.11816 42.0431 3.70418 39.1266 3.43568L39.4632 2.94465L44.0816 2.09965C41.3816 -0.552353 27.8421 3.24865 23.7626 3.26765C21.3796 3.27915 19.0147 2.45516 16.7567 1.76316C14.1732 1.36016 11.5831 1.02567 9.08765 0.219673Z"
    fill="#818081"
  />
  <path
    d="M0.346685 10.3062L1.29518 12.7216C0.858679 18.1156 1.47618 22.5152 2.84568 27.7172C4.23068 32.7407 6.14568 37.9386 6.54168 43.1501C7.50968 55.8991 2.80918 81.6336 13.4797 90.9196C13.3967 90.9136 13.3127 90.9176 13.2312 90.9016C12.0102 90.6646 11.0507 89.5907 10.3392 88.6432C8.26768 85.8837 7.39668 82.4482 6.69218 79.1292C4.97818 71.0567 5.03018 63.5852 5.42668 55.4162C5.61118 51.6152 6.01868 47.4592 5.57418 43.6887C4.11118 31.2742 -1.42732 23.5867 0.346685 10.3062Z"
    fill="#818081"
  />
</svg>
