<svg
  width="38"
  height="94"
  viewBox="0 0 38 94"
  fill="none"
  xmlns="http://www.w3.org/2000/svg"
>
  <path
    d="M16.182 0C16.91 0.2245 17.6715 0.505499 18.2775 0.980499C25.192 6.398 27.123 33.165 28.411 42.059C29.3375 48.46 30.4255 54.836 31.674 61.1815C33.0795 68.0075 36.261 74.559 37.0815 81.457C37.3695 83.8775 37.3985 87.0175 35.763 89.0135C32.876 92.536 26.252 92.889 22.0655 93.228C16.1915 93.4515 8.13304 92.9925 3.01404 89.8125C1.51654 88.8825 0.630035 87.628 0.263035 85.9025C-1.30447 78.525 4.59153 68.6075 5.88703 61.2195C8.38303 46.9845 8.84104 10.8795 16.182 0Z"
    fill="#737071"
  />
  <path
    d="M6.31349 65.3065C7.70349 56.182 12.2505 5.79498 16.6475 1.70898C23.512 4.06648 26.3435 34.547 27.411 41.81C28.5375 49.757 29.9295 57.6635 31.5855 65.517C32.8815 70.5345 39.8265 85.902 33.971 89.54C27.3915 93.6275 7.29298 93.526 1.96548 87.452C-1.15352 83.8955 5.06449 69.9235 6.31349 65.3065Z"
    fill="#FEFEFE"
  />
  <path
    d="M6.31348 65.3065C7.70348 56.182 12.2505 5.79498 16.6475 1.70898C23.512 4.06648 26.3435 34.547 27.411 41.81C28.5375 49.757 29.9295 57.6635 31.5855 65.517C28.501 64.502 25.0805 56.6095 19.6845 56.429C12.694 56.195 10.836 61.7505 6.60748 65.079L6.31348 65.3065Z"
    fill="#E3DDC7"
  />
</svg>
