<svg
  width="38"
  height="93"
  viewBox="0 0 38 93"
  fill="none"
  xmlns="http://www.w3.org/2000/svg"
>
  <path
    d="M18.9242 0C19.6322 0.1 20.3037 0.418507 20.9672 0.675507C27.0412 8.27801 29.2082 48.718 31.6687 60.945C33.0387 67.7555 36.8497 74.4295 37.5177 81.2875C37.7337 83.5005 37.5512 87.1485 35.9812 88.904C32.9417 92.303 23.5052 92.1055 19.1877 92.482C14.2612 92.1845 6.64471 92.626 2.50021 89.712C1.17321 88.7795 0.494204 87.439 0.225704 85.8645C-1.1133 78.0095 3.8792 69.269 5.3872 61.679C8.6387 45.3135 9.91072 12.972 18.9242 0Z"
    fill="#818081"
  />
  <path
    d="M6.00372 65.0124C7.68572 52.9174 13.2697 9.40844 19.3587 1.61194L20.2162 1.45044C24.9527 4.82794 29.0727 56.3189 31.8972 66.2974C34.3637 73.4534 36.8267 78.0184 36.5722 85.7114C34.6992 90.5444 29.5612 91.1309 25.0007 90.0429C21.2287 91.2804 18.1782 92.1649 14.1972 90.5629C9.8527 91.3599 2.29671 91.0199 1.05371 85.7464C1.40121 77.8714 3.44372 72.3969 6.00372 65.0124Z"
    fill="#FEFEFE"
  />
  <path
    d="M6.00366 65.0124C7.68566 52.9174 13.2696 9.40844 19.3586 1.61194L20.2162 1.45044C24.9527 4.82794 29.0727 56.3189 31.8972 66.2974C26.2352 63.6034 24.2671 51.8909 13.9211 57.9519C10.2811 60.0849 8.98766 64.1284 6.00366 65.0124Z"
    fill="#E3DDC7"
  />
  <path
    d="M1.05371 85.7466C6.18121 86.0621 9.9912 87.6466 14.1972 90.5631C9.8527 91.3601 2.29671 91.0201 1.05371 85.7466Z"
    fill="#B7B2AB"
  />
  <path
    d="M36.5722 85.7114C34.6992 90.5444 29.5612 91.1309 25.0007 90.0429C28.1262 88.1019 32.9542 86.8034 36.5722 85.7114Z"
    fill="#C1BCB7"
  />
</svg>
