<svg
  width="31"
  height="96"
  viewBox="0 0 31 96"
  fill="none"
  xmlns="http://www.w3.org/2000/svg"
>
  <path
    d="M14.9593 0C15.1863 0.116 15.2867 0.160996 15.5162 0.312996C19.7152 3.102 21.7433 13.723 22.7433 18.3305C25.6963 31.9385 25.7658 45.7215 27.5073 59.4585C28.3448 66.066 30.7277 72.7865 30.9822 79.402C31.0887 82.1655 30.8997 85.1525 29.3157 87.5155C26.7047 91.413 20.8738 94.757 16.2828 95.584C15.3678 95.54 14.4748 95.4425 13.5848 95.217C7.75625 93.7375 3.19376 89.5965 0.126258 84.581C0.035758 82.959 -0.0412435 81.321 0.0247565 79.697C0.278257 73.5005 2.43225 67.2895 3.17875 61.1045C4.71625 48.3655 5.88677 8.394 14.9593 0Z"
    fill="#737071"
  />
  <path
    d="M3.88131 64.9985C4.95131 54.3125 7.8563 8.56895 14.8348 1.99146C23.3468 5.29446 26.3238 57.7035 27.9773 68.222C30.5223 79.1945 33.4918 94.403 13.6693 94.03C9.2738 93.9475 3.72629 88.4265 1.13979 84.6335C0.796295 76.803 2.14131 72.5895 3.88131 64.9985Z"
    fill="#E3DDC7"
  />
  <path
    d="M3.88131 64.9985C9.29031 61.7175 13.3363 48.106 22.4953 60.483C24.2018 62.7895 25.6383 66.9025 27.9773 68.222C30.5223 79.1945 33.4918 94.403 13.6693 94.03C9.2738 93.9475 3.72629 88.4265 1.13979 84.6335C0.796295 76.803 2.14131 72.5895 3.88131 64.9985Z"
    fill="#FEFEFE"
  />
</svg>
