<svg
  width="30"
  height="93"
  viewBox="0 0 30 93"
  fill="none"
  xmlns="http://www.w3.org/2000/svg"
>
  <path
    d="M13.453 0C14.3965 0.3285 15.2654 0.692997 15.9979 1.395C23.7964 8.8685 29.0745 68.7755 29.4455 81.234C29.516 83.596 29.9635 88.8045 28.251 90.5565C25.8285 93.035 19.373 92.837 16.1275 92.9275C11.033 92.87 6.03745 92.756 1.27745 90.754C0.977954 89.2145 0.687955 87.6665 0.490955 86.11C-1.43955 70.868 2.79396 49.093 5.04146 33.793C6.31996 25.092 7.04547 16.0595 9.61147 7.617C10.4945 4.7125 11.5685 2.401 13.453 0Z"
    fill="#545257"
  />
  <path
    d="M1.94654 65.8027C1.98654 57.1397 9.18554 6.23316 13.5015 1.90916C13.575 1.83516 13.652 1.76416 13.727 1.69116C21.3395 2.29816 27.401 59.0497 27.4475 67.3887C28.0755 71.6857 29.5665 85.9842 28.027 89.4507C24.276 92.7707 6.41355 92.6302 2.52055 89.9747C0.0285484 85.6607 1.55304 71.4182 1.94654 65.8027Z"
    fill="#E3DDC7"
  />
  <path
    d="M1.94654 65.8028C6.20304 62.9463 12.0005 45.8993 21.0345 56.7368C23.0275 59.1283 25.629 66.4233 27.4475 67.3888C28.0755 71.6858 29.5665 85.9843 28.027 89.4508C24.276 92.7708 6.41355 92.6303 2.52055 89.9748C0.0285484 85.6608 1.55304 71.4183 1.94654 65.8028Z"
    fill="#FEFEFE"
  />
</svg>
