<svg
  width="35"
  height="98"
  viewBox="0 0 35 98"
  fill="none"
  xmlns="http://www.w3.org/2000/svg"
>
  <path
    d="M0.116294 83.4665C0.646794 70.358 2.95129 57.178 5.22729 44.2715C6.62079 36.367 9.67979 0.042 19.3888 0C25.7238 3.4315 28.7138 39.2235 29.8688 47.6605C31.8388 62.0665 35.8138 81.5955 33.1738 95.757C28.2488 97.3215 25.5388 97.2305 20.3488 97.0845C14.5328 97.556 6.13931 96.8105 0.553306 95.2805C-0.00319415 90.731 -0.121706 88.007 0.116294 83.4665Z"
    fill="#FEFEFE"
  />
  <path
    d="M0.116211 83.4665C0.646711 70.358 2.9512 57.178 5.2272 44.2715C6.6207 36.367 9.6797 0.042 19.3887 0C25.7237 3.4315 28.7137 39.2235 29.8687 47.6605C31.8387 62.0665 35.8137 81.5955 33.1737 95.757C28.2487 97.3215 25.5387 97.2305 20.3487 97.0845C22.0237 96.851 23.5737 96.489 25.2237 96.1235C27.3587 96.0675 30.2387 95.6625 32.4137 95.422C33.9987 87.536 33.0487 75.4665 31.6637 67.604C28.5137 65.8425 26.0987 56.0655 20.1237 54.389C10.4707 51.68 7.6617 62.9025 3.0437 64.747C2.0917 70.357 1.13172 76.875 1.06622 82.575L0.116211 83.4665Z"
    fill="#E3DDC7"
  />
  <path
    d="M0.116211 83.4665C0.646711 70.358 2.9512 57.178 5.2272 44.2715C6.6207 36.367 9.6797 0.042 19.3887 0C25.7237 3.4315 28.7137 39.2235 29.8687 47.6605C31.8387 62.0665 35.8137 81.5955 33.1737 95.757C28.2487 97.3215 25.5387 97.2305 20.3487 97.0845C22.0237 96.851 23.5737 96.489 25.2237 96.1235C27.3587 96.0675 30.2387 95.6625 32.4137 95.422C33.9987 87.536 33.0487 75.4665 31.6637 67.604C31.7037 64.4515 29.7487 52.3875 29.1887 49.0415C27.8187 40.8025 25.0037 4.492 18.9037 0.844498C10.5567 2.884 4.3172 54.655 3.0437 64.747C2.0917 70.357 1.13172 76.875 1.06622 82.575L0.116211 83.4665Z"
    fill="#545257"
  />
  <path
    d="M1.06631 82.575C1.03331 86.5365 0.8713 90.841 1.4598 94.7315C10.0778 96.4385 16.4508 96.098 25.2238 96.1235C23.5738 96.489 22.0238 96.851 20.3488 97.0845C14.5328 97.556 6.13931 96.8105 0.553306 95.2805C-0.00319415 90.731 -0.121706 88.007 0.116294 83.4665L1.06631 82.575Z"
    fill="#818081"
  />
</svg>
