<svg
  width="35"
  height="98"
  viewBox="0 0 35 98"
  fill="none"
  xmlns="http://www.w3.org/2000/svg"
>
  <path
    d="M33.9347 83.4665C33.4042 70.358 31.0997 57.178 28.8237 44.2715C27.4302 36.367 24.3712 0.042 14.6622 0C8.32724 3.4315 5.33723 39.2235 4.18223 47.6605C2.21223 62.0665 -1.7628 81.5955 0.877205 95.757C5.80221 97.3215 8.51222 97.2305 13.7022 97.0845C19.5182 97.556 27.9117 96.8105 33.4977 95.2805C34.0542 90.731 34.1727 88.007 33.9347 83.4665Z"
    fill="#FEFEFE"
  />
  <path
    d="M33.9348 83.4665C33.4043 70.358 31.0998 57.178 28.8238 44.2715C27.4303 36.367 24.3713 0.042 14.6623 0C8.32732 3.4315 5.33731 39.2235 4.18231 47.6605C2.21231 62.0665 -1.76271 81.5955 0.877289 95.757C5.80229 97.3215 8.5123 97.2305 13.7023 97.0845C12.0273 96.851 10.4773 96.489 8.8273 96.1235C6.6923 96.0675 3.8123 95.6625 1.6373 95.422C0.0522985 87.536 1.0023 75.4665 2.3873 67.604C5.5373 65.8425 7.95231 56.0655 13.9273 54.389C23.5803 51.68 26.3893 62.9025 31.0073 64.747C31.9593 70.357 32.9193 76.875 32.9848 82.575L33.9348 83.4665Z"
    fill="#E3DDC7"
  />
  <path
    d="M33.9348 83.4665C33.4043 70.358 31.0998 57.178 28.8238 44.2715C27.4303 36.367 24.3713 0.042 14.6623 0C8.32732 3.4315 5.33731 39.2235 4.18231 47.6605C2.21231 62.0665 -1.76271 81.5955 0.877289 95.757C5.80229 97.3215 8.5123 97.2305 13.7023 97.0845C12.0273 96.851 10.4773 96.489 8.8273 96.1235C6.6923 96.0675 3.8123 95.6625 1.6373 95.422C0.0522985 87.536 1.0023 75.4665 2.3873 67.604C2.3473 64.4515 4.3023 52.3875 4.8623 49.0415C6.2323 40.8025 9.04731 4.492 15.1473 0.844498C23.4943 2.884 29.7338 54.655 31.0073 64.747C31.9593 70.357 32.9193 76.875 32.9848 82.575L33.9348 83.4665Z"
    fill="#545257"
  />
  <path
    d="M32.9847 82.575C33.0177 86.5365 33.1797 90.841 32.5912 94.7315C23.9732 96.4385 17.6002 96.098 8.82722 96.1235C10.4772 96.489 12.0272 96.851 13.7022 97.0845C19.5182 97.556 27.9117 96.8105 33.4977 95.2805C34.0542 90.731 34.1727 88.007 33.9347 83.4665L32.9847 82.575Z"
    fill="#818081"
  />
</svg>
