<svg
  width="30"
  height="93"
  viewBox="0 0 30 93"
  fill="none"
  xmlns="http://www.w3.org/2000/svg"
>
  <path
    d="M16.0971 0C15.1536 0.3285 14.2846 0.692997 13.5521 1.395C5.7536 8.8685 0.475595 68.7755 0.104595 81.234C0.0340952 83.596 -0.413416 88.8045 1.29908 90.5565C3.72158 93.035 10.1771 92.837 13.4226 92.9275C18.5171 92.87 23.5126 92.756 28.2726 90.754C28.5721 89.2145 28.8621 87.6665 29.0591 86.11C30.9896 70.868 26.7561 49.093 24.5086 33.793C23.2301 25.092 22.5046 16.0595 19.9386 7.617C19.0556 4.7125 17.9816 2.401 16.0971 0Z"
    fill="#545257"
  />
  <path
    d="M27.6035 65.8027C27.5635 57.1397 20.3645 6.23316 16.0485 1.90916C15.975 1.83516 15.898 1.76416 15.823 1.69116C8.21052 2.29816 2.149 59.0497 2.1025 67.3887C1.4745 71.6857 -0.0164993 85.9842 1.523 89.4507C5.274 92.7707 23.1365 92.6302 27.0295 89.9747C29.5215 85.6607 27.997 71.4182 27.6035 65.8027Z"
    fill="#E3DDC7"
  />
  <path
    d="M27.6035 65.8028C23.347 62.9463 17.5495 45.8993 8.51552 56.7368C6.52252 59.1283 3.921 66.4233 2.1025 67.3888C1.4745 71.6858 -0.0164993 85.9843 1.523 89.4508C5.274 92.7708 23.1365 92.6303 27.0295 89.9748C29.5215 85.6608 27.997 71.4183 27.6035 65.8028Z"
    fill="#FEFEFE"
  />
</svg>
