<svg
  width="31"
  height="96"
  viewBox="0 0 31 96"
  fill="none"
  xmlns="http://www.w3.org/2000/svg"
>
  <path
    d="M16.0473 0C15.8203 0.116 15.7198 0.160996 15.4903 0.312996C11.2913 3.102 9.26333 13.723 8.26333 18.3305C5.31033 31.9385 5.24082 45.7215 3.49932 59.4585C2.66182 66.066 0.278845 72.7865 0.0243454 79.402C-0.0821546 82.1655 0.106849 85.1525 1.69085 87.5155C4.30185 91.413 10.1328 94.757 14.7238 95.584C15.6388 95.54 16.5318 95.4425 17.4218 95.217C23.2503 93.7375 27.8128 89.5965 30.8803 84.581C30.9708 82.959 31.0478 81.321 30.9818 79.697C30.7283 73.5005 28.5743 67.2895 27.8278 61.1045C26.2903 48.3655 25.1198 8.394 16.0473 0Z"
    fill="#737071"
  />
  <path
    d="M27.1253 64.9985C26.0553 54.3125 23.1503 8.56895 16.1718 1.99146C7.65979 5.29446 4.68277 57.7035 3.02927 68.222C0.484272 79.1945 -2.48521 94.403 17.3373 94.03C21.7328 93.9475 27.2803 88.4265 29.8668 84.6335C30.2103 76.803 28.8653 72.5895 27.1253 64.9985Z"
    fill="#E3DDC7"
  />
  <path
    d="M27.1253 64.9985C21.7163 61.7175 17.6703 48.106 8.5113 60.483C6.8048 62.7895 5.36827 66.9025 3.02927 68.222C0.484272 79.1945 -2.48521 94.403 17.3373 94.03C21.7328 93.9475 27.2803 88.4265 29.8668 84.6335C30.2103 76.803 28.8653 72.5895 27.1253 64.9985Z"
    fill="#FEFEFE"
  />
</svg>
