<svg
  width="38"
  height="93"
  viewBox="0 0 38 93"
  fill="none"
  xmlns="http://www.w3.org/2000/svg"
>
  <path
    d="M18.6678 0C17.9598 0.1 17.2883 0.418507 16.6248 0.675507C10.5508 8.27801 8.38384 48.718 5.92334 60.945C4.55334 67.7555 0.742345 74.4295 0.0743446 81.2875C-0.141655 83.5005 0.0408436 87.1485 1.61084 88.904C4.65034 92.303 14.0868 92.1055 18.4043 92.482C23.3308 92.1845 30.9473 92.626 35.0918 89.712C36.4188 88.7795 37.0978 87.439 37.3663 85.8645C38.7053 78.0095 33.7128 69.269 32.2048 61.679C28.9533 45.3135 27.6813 12.972 18.6678 0Z"
    fill="#818081"
  />
  <path
    d="M31.5883 65.0124C29.9063 52.9174 24.3223 9.40844 18.2333 1.61194L17.3758 1.45044C12.6393 4.82794 8.51932 56.3189 5.69482 66.2974C3.22832 73.4534 0.765336 78.0184 1.01984 85.7114C2.89284 90.5444 8.03084 91.1309 12.5913 90.0429C16.3633 91.2804 19.4138 92.1649 23.3948 90.5629C27.7393 91.3599 35.2953 91.0199 36.5383 85.7464C36.1908 77.8714 34.1483 72.3969 31.5883 65.0124Z"
    fill="#FEFEFE"
  />
  <path
    d="M31.5884 65.0124C29.9064 52.9174 24.3224 9.40844 18.2334 1.61194L17.3759 1.45044C12.6394 4.82794 8.51939 56.3189 5.69489 66.2974C11.3569 63.6034 13.3249 51.8909 23.6709 57.9519C27.3109 60.0849 28.6044 64.1284 31.5884 65.0124Z"
    fill="#E3DDC7"
  />
  <path
    d="M36.5383 85.7466C31.4108 86.0621 27.6008 87.6466 23.3948 90.5631C27.7393 91.3601 35.2953 91.0201 36.5383 85.7466Z"
    fill="#B7B2AB"
  />
  <path
    d="M1.01981 85.7114C2.89281 90.5444 8.03081 91.1309 12.5913 90.0429C9.46581 88.1019 4.63781 86.8034 1.01981 85.7114Z"
    fill="#C1BCB7"
  />
</svg>
