<svg
  width="38"
  height="94"
  viewBox="0 0 38 94"
  fill="none"
  xmlns="http://www.w3.org/2000/svg"
>
  <path
    d="M21.0509 0C20.3229 0.2245 19.5614 0.505499 18.9554 0.980499C12.0409 6.398 10.1099 33.165 8.82187 42.059C7.89537 48.46 6.80736 54.836 5.55886 61.1815C4.15336 68.0075 0.971863 74.559 0.151363 81.457C-0.136637 83.8775 -0.165625 87.0175 1.46988 89.0135C4.35688 92.536 10.9809 92.889 15.1674 93.228C21.0414 93.4515 29.0999 92.9925 34.2189 89.8125C35.7164 88.8825 36.6029 87.628 36.9699 85.9025C38.5374 78.525 32.6414 68.6075 31.3459 61.2195C28.8499 46.9845 28.3919 10.8795 21.0509 0Z"
    fill="#737071"
  />
  <path
    d="M30.9194 65.3065C29.5294 56.182 24.9824 5.79498 20.5854 1.70898C13.7209 4.06648 10.8894 34.547 9.82192 41.81C8.69542 49.757 7.30342 57.6635 5.64742 65.517C4.35142 70.5345 -2.59358 85.902 3.26192 89.54C9.84142 93.6275 29.9399 93.526 35.2674 87.452C38.3864 83.8955 32.1684 69.9235 30.9194 65.3065Z"
    fill="#FEFEFE"
  />
  <path
    d="M30.9194 65.3065C29.5294 56.182 24.9824 5.79498 20.5854 1.70898C13.7209 4.06648 10.8894 34.547 9.82193 41.81C8.69543 49.757 7.30343 57.6635 5.64743 65.517C8.73193 64.502 12.1524 56.6095 17.5484 56.429C24.5389 56.195 26.3969 61.7505 30.6254 65.079L30.9194 65.3065Z"
    fill="#E3DDC7"
  />
</svg>
