<svg
  width="50"
  height="91"
  viewBox="0 0 50 91"
  fill="none"
  xmlns="http://www.w3.org/2000/svg"
>
  <path
    d="M2.29675 4.31505C3.39325 2.55705 5.04025 0.948051 7.08725 0.410051C12.6897 -1.06245 18.6252 1.96557 24.2782 2.11757C29.2462 2.25157 33.9733 -0.231436 39.0323 0.0175642C41.4373 0.136064 43.1863 0.66355 45.2493 1.89705C45.8388 2.37155 46.5573 2.83907 46.9153 3.51457C50.2653 8.36657 50.0237 15.3145 49.0202 20.8815C47.6842 28.296 43.4732 34.9816 42.3802 42.3771C40.7152 53.6441 47.5883 80.3006 35.8703 88.5856C34.8948 89.2751 33.7472 89.6391 32.6127 89.9771C31.3942 89.5106 31.0437 88.9925 30.5332 87.776C28.0307 81.812 29.8017 60.3501 25.5782 57.2906C19.0137 63.9896 23.8988 90.6206 16.4328 90.4476C14.6918 90.4076 12.5343 88.5836 11.4323 87.3746C1.05375 75.9856 7.76475 56.4561 5.84425 42.8741C4.40125 32.6686 -0.605756 23.3556 0.060744 12.8231C0.218744 10.3221 0.804252 7.91056 1.58125 5.53356L2.29675 4.31505Z"
    fill="#E3DDC7"
  />
  <path
    d="M2.29668 4.31505C3.39318 2.55705 5.04017 0.948051 7.08717 0.410051C12.6897 -1.06245 18.6252 1.96557 24.2782 2.11757C29.2462 2.25157 33.9732 -0.231436 39.0322 0.0175642C41.4372 0.136064 43.1862 0.66355 45.2492 1.89705C45.8387 2.37155 46.5572 2.83907 46.9152 3.51457L46.7627 5.88207C49.7852 11.1711 48.7127 18.8781 47.2002 24.4981C46.8087 25.8996 46.3582 27.2841 45.8507 28.6481C45.7582 28.6826 45.6662 28.7181 45.5732 28.7511C42.6777 29.7841 40.6957 32.258 38.1812 33.9335C35.8272 35.502 32.3207 36.6241 29.5657 37.2596C16.9362 40.1736 13.1147 34.5341 3.79117 28.8076L3.45618 28.6041C1.47318 22.4356 -0.139331 15.206 2.07817 8.88405L1.58118 5.53356L2.29668 4.31505Z"
    fill="#FEFEFE"
  />
  <path
    d="M2.2968 4.31505C3.3933 2.55705 5.0403 0.948051 7.0873 0.410051C12.6898 -1.06245 18.6253 1.96557 24.2783 2.11757C29.2463 2.25157 33.9733 -0.231436 39.0323 0.0175642C41.4373 0.136064 43.1863 0.66355 45.2493 1.89705C45.8388 2.37155 46.5573 2.83907 46.9153 3.51457L46.7628 5.88207C45.0953 4.48007 43.5248 3.56255 41.2678 3.74605C38.2228 3.99355 35.3163 6.16306 32.8123 7.79656C29.9713 6.94106 27.1098 5.95356 24.2288 5.25456C21.9798 7.16056 20.0083 9.24405 18.0158 11.4126C15.6603 8.70505 12.6463 4.44755 8.6933 4.23305C6.9153 4.13705 5.3833 5.07255 4.1153 6.23305C3.2938 6.98505 2.67429 7.94955 2.07829 8.88405L1.5813 5.53356L2.2968 4.31505Z"
    fill="#C1BCB7"
  />
  <path
    d="M2.29688 4.31505C3.39338 2.55705 5.04037 0.948051 7.08737 0.410051C12.6899 -1.06245 18.6254 1.96557 24.2784 2.11757C29.2464 2.25157 33.9734 -0.231436 39.0324 0.0175642C41.4374 0.136064 43.1864 0.66355 45.2494 1.89705C36.5519 0.43655 31.7814 3.14457 23.8419 3.09657C18.1009 3.06157 12.6414 1.22206 6.77937 1.29106L6.58388 1.29506C5.17188 2.29856 3.77038 3.41055 2.29688 4.31505Z"
    fill="#737071"
  />
  <path
    d="M46.7628 5.88214L46.9153 3.51465C50.2653 8.36665 50.0237 15.3146 49.0202 20.8816C47.6842 28.2961 43.4732 34.9816 42.3802 42.3771C40.7152 53.6441 47.5883 80.3006 35.8703 88.5856C34.8948 89.2751 33.7472 89.6391 32.6127 89.9771C31.3942 89.5106 31.0437 88.9926 30.5332 87.7761C28.0307 81.8121 29.8017 60.3501 25.5782 57.2906C19.0137 63.9896 23.8988 90.6206 16.4328 90.4476C14.6918 90.4076 12.5343 88.5836 11.4323 87.3746C1.05375 75.9856 7.76475 56.4561 5.84425 42.8741C4.40125 32.6686 -0.605756 23.3557 0.060744 12.8232C0.218744 10.3222 0.804252 7.91063 1.58125 5.53363L2.07825 8.88412C-0.139254 15.2061 1.47325 22.4356 3.45625 28.6041C4.97075 34.2551 6.77826 39.9346 7.17226 45.8006C7.84226 55.7771 3.47776 82.4826 13.8578 88.7566C15.1893 89.5611 16.4092 89.6376 17.9052 89.3576C21.8257 84.5576 18.8017 61.5616 24.7847 56.1046C25.7962 56.0556 25.9997 55.9746 26.8007 56.6911C32.0827 61.4166 27.7762 86.2631 32.8932 88.8311C34.6222 88.6191 35.7467 87.3581 36.7737 86.0521C46.4367 73.7686 39.9177 57.4471 41.3262 43.5086C41.8542 38.2811 44.0613 33.5216 45.8508 28.6481C46.3583 27.2841 46.8088 25.8996 47.2003 24.4981C48.7128 18.8781 49.7853 11.1711 46.7628 5.88214Z"
    fill="#737071"
  />
</svg>
