<svg
  width="50"
  height="91"
  viewBox="0 0 50 91"
  fill="none"
  xmlns="http://www.w3.org/2000/svg"
>
  <path
    d="M47.7297 84.4885C52.7762 68.568 44.6917 60.3465 43.2472 46.887C41.7917 33.3315 46.2502 18.1925 38.9677 4.042C38.3087 2.762 37.7292 1.786 36.3012 1.354C31.7727 3.534 34.0537 14.5815 32.0512 18.333C29.9052 16.8135 28.9752 8.086 25.4472 6.031L24.5612 6.4495C22.5022 9.8435 21.9442 20.464 20.7957 25.6825L19.8797 29.1645L19.3667 29.3145L18.5452 27.1885C15.6417 16.825 14.9147 10.5415 13.5577 0C6.47771 8.3905 5.5502 24.8545 7.5992 35.1285C11.2232 53.3015 -1.00029 61.8915 0.0662079 78.777C1.12771 95.584 15.8667 89.1275 26.4487 88.4805C31.1742 88.319 40.6832 93.1105 44.6537 88.8485C46.3667 87.6985 46.8392 86.335 47.7297 84.4885Z"
    fill="#E3DDC7"
  />
  <path
    d="M45.3597 59.8084C42.4167 58.5749 41.4762 57.6869 38.8197 56.3234C32.2607 52.9579 23.8387 51.2524 16.7162 53.7384C12.9872 55.0399 7.38923 60.5574 4.31073 61.3984C1.20673 69.0869 -1.40027 79.5084 4.26823 86.6904C9.53223 92.3554 19.2352 87.3449 26.1212 87.4204C33.1437 87.4974 37.3097 91.5244 44.0917 88.7089L44.6537 88.8484C46.3667 87.6984 46.8392 86.3349 47.7297 84.4884L46.8567 81.9169C49.5542 73.7784 47.7072 67.7269 45.3597 59.8084Z"
    fill="#FEFEFE"
  />
  <path
    d="M32.008 79.6328C29.8305 81.7833 27.5945 84.1338 25.151 85.9518C22.9065 84.9783 19.2875 83.3013 17.069 82.6088C11.3565 86.7793 11.116 87.4673 4.26803 86.6903C9.53203 92.3553 19.235 87.3448 26.121 87.4203C33.1435 87.4973 37.3095 91.5243 44.0915 88.7088L44.6535 88.8483C46.3665 87.6983 46.839 86.3348 47.7295 84.4883L46.8565 81.9168C41.5265 90.7433 36.405 85.4353 32.008 79.6328Z"
    fill="#C1BCB7"
  />
  <path
    d="M47.7297 84.4885C52.7762 68.568 44.6917 60.3465 43.2472 46.887C41.7917 33.3315 46.2502 18.1925 38.9677 4.042C38.3087 2.762 37.7292 1.786 36.3012 1.354C31.7727 3.534 34.0537 14.5815 32.0512 18.333C29.9052 16.8135 28.9752 8.086 25.4472 6.031L24.5612 6.4495C22.5022 9.8435 21.9442 20.464 20.7957 25.6825L19.8797 29.1645L19.3667 29.3145L18.5452 27.1885C15.6417 16.825 14.9147 10.5415 13.5577 0C6.47771 8.3905 5.5502 24.8545 7.5992 35.1285C11.2232 53.3015 -1.00029 61.8915 0.0662079 78.777C1.12771 95.584 15.8667 89.1275 26.4487 88.4805C31.1742 88.319 40.6832 93.1105 44.6537 88.8485L44.0917 88.709C37.3097 91.5245 33.1437 87.4975 26.1212 87.4205C19.2352 87.345 9.5322 92.3555 4.2682 86.6905C-1.4003 79.5085 1.2067 69.087 4.3107 61.3985C7.8162 49.9885 10.5217 49.5305 8.6772 36.0665C7.0037 23.847 7.4932 12.8395 12.8367 1.529C12.9492 3.241 13.0757 4.9525 13.2162 6.6625C13.8727 14.0765 18.9832 38.1885 23.9302 42.3445C32.1242 43.91 34.6027 6.983 35.7172 0.684502C44.7097 17.212 41.4607 26.9745 41.9902 44.6485C42.1252 49.1515 44.0132 55.4075 45.3597 59.8085C47.7072 67.727 49.5542 73.7785 46.8567 81.917L47.7297 84.4885Z"
    fill="#737071"
  />
  <path
    d="M25.504 7.04932C25.234 7.22482 24.632 7.71731 24.4785 7.98281C23.8035 9.14981 23.7875 12.9398 23.568 14.5313C22.7685 20.3298 21.911 26.0048 20.096 31.5963C20.974 34.7423 22.3655 40.2848 25.203 42.1598C27.3065 39.0938 28.8335 34.8988 29.8055 31.3203C32.1345 22.7433 29.8095 14.6338 25.504 7.04932Z"
    fill="#B7B2AB"
  />
  <path
    d="M20.7957 25.6824C18.9557 26.1199 19.5452 25.7029 18.5452 27.1884L19.3667 29.3144L19.8797 29.1644L20.7957 25.6824Z"
    fill="#C1BCB7"
    fill-opacity="0.0117647"
  />
</svg>
