<svg
  width="50"
  height="92"
  viewBox="0 0 50 92"
  fill="none"
  xmlns="http://www.w3.org/2000/svg"
>
  <path
    d="M39.5202 91.7985C58.4347 89.6575 45.1622 56.92 43.4177 46.6295C42.1897 39.3835 45.2822 4.70599 36.3627 2.35249C31.6322 5.12849 32.2397 38.8845 25.1447 42.3785C18.1012 41.0185 18.5197 2.409 15.9522 0C13.0112 0.6715 11.8377 4.755 10.9037 7.3845C8.2637 15.503 6.9302 27.315 8.3302 35.804C10.9027 51.3985 1.0282 59.3045 0.108704 73.9C-1.1523 93.922 8.6712 92.035 23.9277 89.733C24.9167 89.5835 33.0262 91.306 35.6092 91.443C37.3087 91.7915 37.7802 91.813 39.5202 91.7985Z"
    fill="#FEFEFE"
  />
  <path
    d="M39.5202 91.7985C58.4347 89.6575 45.1622 56.92 43.4177 46.6295C42.1897 39.3835 45.2822 4.70599 36.3627 2.35249C31.6322 5.12849 32.2397 38.8845 25.1447 42.3785C18.1012 41.0185 18.5197 2.409 15.9522 0C13.0112 0.6715 11.8377 4.755 10.9037 7.3845C8.2637 15.503 6.9302 27.315 8.3302 35.804C10.9027 51.3985 1.0282 59.3045 0.108704 73.9C-1.1523 93.922 8.6712 92.035 23.9277 89.733C24.9167 89.5835 33.0262 91.306 35.6092 91.443C28.6402 86.614 17.1097 90.117 10.2977 89.7985C-3.0078 90.527 0.966691 70.4245 3.65869 62.8745C5.73219 62.689 10.9452 57.303 14.3297 55.529C20.5232 52.2165 30.1852 52.703 36.5142 55.444C39.4792 56.7285 42.6007 60.843 46.0462 61.6435C48.6427 70.2795 50.8197 80.543 44.1327 88.051C42.4402 89.6455 41.3857 90.4395 39.5202 91.7985Z"
    fill="#E3DDC7"
  />
  <path
    d="M39.5202 91.7985C58.4347 89.6575 45.1622 56.92 43.4177 46.6295C42.1897 39.3835 45.2822 4.70599 36.3627 2.35249C31.6322 5.12849 32.2397 38.8845 25.1447 42.3785C18.1012 41.0185 18.5197 2.409 15.9522 0C13.0112 0.6715 11.8377 4.755 10.9037 7.3845C8.2637 15.503 6.9302 27.315 8.3302 35.804C10.9027 51.3985 1.0282 59.3045 0.108704 73.9C-1.1523 93.922 8.6712 92.035 23.9277 89.733C24.9167 89.5835 33.0262 91.306 35.6092 91.443C28.6402 86.614 17.1097 90.117 10.2977 89.7985C-3.0078 90.527 0.966691 70.4245 3.65869 62.8745C4.95569 57.8785 8.8487 52.313 9.2442 46.9145C9.8627 38.469 6.6392 5.82599 15.7802 1.745C16.8237 4.808 16.7622 22.2795 18.2367 26.8125C19.8437 31.7535 19.8682 41.186 24.2077 44.0415C32.9292 44.2905 32.5512 6.6945 36.7617 4.223C43.2137 9.245 41.7162 38.0625 42.5202 46.6365C43.0562 52.3545 44.2992 56.243 46.0462 61.6435C48.6427 70.2795 50.8197 80.543 44.1327 88.051C42.4402 89.6455 41.3857 90.4395 39.5202 91.7985Z"
    fill="#818081"
  />
  <path
    d="M23.8248 82.4438C19.8878 84.9723 14.6973 88.5433 10.2978 89.7983C17.1098 90.1168 28.6403 86.6138 35.6093 91.4428C37.3088 91.7913 37.7803 91.8128 39.5203 91.7983C41.3858 90.4393 42.4403 89.6453 44.1328 88.0508C37.7343 89.4368 34.1978 89.2168 28.4658 85.5323C26.9108 84.5148 25.3638 83.4853 23.8248 82.4438Z"
    fill="#B7B2AB"
  />
</svg>
