<svg
  width="49"
  height="94"
  viewBox="0 0 49 94"
  fill="none"
  xmlns="http://www.w3.org/2000/svg"
>
  <path
    d="M47.6514 84.1325C50.2837 73.033 43.7155 60.231 42.178 49.4425C40.9995 41.17 44.3315 1.13 33.153 0C31.1945 1.9235 31.465 24.132 29.767 27.9935C29.5295 28.533 28.923 30.9175 28.6515 31.716C27.3175 27.123 25.16 9.48201 22.7305 7.69901C19.62 9.37651 18.4265 20.713 17.885 24.2515C17.6395 24.8905 17.259 25.62 16.9525 26.248L16.4035 26.095L15.557 23.5175C14.6415 19.292 13.535 8.9895 11.3835 6.2105L10.5145 6.02551C1.5985 13.386 8.295 40.5345 7.1375 50.319C5.947 60.386 0.345 67.6345 0 78.582C0.268 84.555 0.104501 87.1595 4.624 91.5415C13.4325 94.2925 14.864 91.5425 22.8505 91.6775C30.2175 91.802 47.2336 97.795 47.6514 84.1325Z"
    fill="#E3DDC7"
  />
  <path
    d="M44.2785 63.2345C34.989 57.398 32.582 53.0055 18.956 55.1925C11.945 56.3175 7.46253 62.071 4.44553 63.038C2.79153 67.825 1.04603 72.471 1.15703 77.6175L3.43323e-05 78.582C0.268034 84.555 0.104535 87.1595 4.62403 91.5415C13.4325 94.2925 14.864 91.5425 22.8505 91.6775C30.2175 91.802 47.2337 97.795 47.6514 84.1325L47.1515 78.577C46.7385 71.99 46.193 69.602 44.2785 63.2345Z"
    fill="#FEFEFE"
  />
  <path
    d="M1.15703 77.6172L3.43323e-05 78.5817C0.268034 84.5547 0.104535 87.1592 4.62403 91.5412C13.4325 94.2922 14.864 91.5422 22.8505 91.6772C30.2175 91.8017 47.2337 97.7947 47.6514 84.1322L47.1515 78.5767C46.647 82.1582 46.244 85.4817 42.996 87.8272C41.7625 88.7327 40.2075 89.0842 38.7045 88.7972C34.817 88.0842 32.4945 84.7712 30.357 81.8167C24.3625 91.0357 22.4075 88.9452 13.352 85.1262C4.29853 87.1457 1.15603 87.9837 1.15703 77.6172Z"
    fill="#C1BCB7"
  />
  <path
    d="M47.6514 84.1325C50.2837 73.033 43.7155 60.231 42.178 49.4425C40.9995 41.17 44.3315 1.13 33.153 0C31.1945 1.9235 31.465 24.132 29.767 27.9935C29.5295 28.533 28.923 30.9175 28.6515 31.716C27.3175 27.123 25.16 9.48201 22.7305 7.69901C19.62 9.37651 18.4265 20.713 17.885 24.2515C17.6395 24.8905 17.259 25.62 16.9525 26.248L16.4035 26.095L15.557 23.5175C14.6415 19.292 13.535 8.9895 11.3835 6.2105L10.5145 6.02551C1.5985 13.386 8.295 40.5345 7.1375 50.319C5.947 60.386 0.345 67.6345 0 78.582L1.157 77.6175C1.046 72.471 2.7915 67.825 4.4455 63.038C5.3865 59.099 7.7915 55.191 8.133 50.562C8.466 46.0445 8.103 42.292 7.577 37.795C6.064 24.855 5.97 17.4565 11.1345 5.5065C11.8195 13.2235 17.5975 42.562 24.612 44.401C31.412 42.2525 32.781 7.5745 33.4775 0.0859985C43.512 13.4155 39.855 31.385 40.764 46.773C41.029 51.2665 43.125 58.67 44.2785 63.2345C46.193 69.602 46.7385 71.99 47.1514 78.577L47.6514 84.1325Z"
    fill="#737071"
  />
  <path
    d="M22.7769 9.19434C22.3189 9.53484 21.9194 9.98984 21.5119 10.3903C20.1189 14.6233 17.2064 27.0413 18.2204 31.1408C19.2914 35.4728 21.2844 39.6543 23.7739 43.3533C24.0484 43.5943 24.4029 43.6063 24.7529 43.6848C25.1364 43.3198 25.4899 42.9228 25.7329 42.4483C26.5444 40.8618 27.3574 38.7143 27.4929 36.9403C27.9894 30.4308 24.6809 15.6463 22.7769 9.19434Z"
    fill="#B7B2AB"
  />
  <path
    d="M17.8848 24.2513C17.2743 23.9593 16.2378 23.7108 15.5568 23.5173L16.4033 26.0948L16.9523 26.2478C17.2588 25.6198 17.6393 24.8903 17.8848 24.2513Z"
    fill="#E3DDC7"
    fill-opacity="0.0156863"
  />
</svg>
