<svg
  width="41"
  height="95"
  viewBox="0 0 41 95"
  fill="none"
  xmlns="http://www.w3.org/2000/svg"
>
  <path
    d="M6.12731 2.55545C15.2358 -0.266048 27.2408 -1.57753 36.0498 3.04297C37.5638 3.83697 39.2158 5.08995 39.7358 6.79495C40.9848 10.8895 39.4098 17.727 38.2543 21.763C36.1713 28.66 34.2533 35.847 33.2333 42.987C31.3868 55.9085 30.9738 69.2175 27.5198 81.8625C26.6098 85.193 24.7308 92.2415 21.4213 93.898C20.4608 94.3785 19.5383 94.421 18.5248 94.0745C16.7813 93.4785 15.4798 91.1885 14.7318 89.6425C8.50434 76.776 8.01433 49.5125 5.20933 34.352C3.98933 27.76 1.19332 21.412 0.309319 14.7755C-0.0281808 12.2435 -0.281173 9.08447 0.620827 6.65997C1.47233 4.37147 4.07531 3.45345 6.12731 2.55545Z"
    fill="#E3DDC7"
  />
  <path
    d="M6.12726 2.55545C15.2358 -0.266048 27.2408 -1.57753 36.0498 3.04297C37.5638 3.83697 39.2158 5.08995 39.7358 6.79495C40.9848 10.8895 39.4098 17.727 38.2543 21.763L37.5813 20.9005C36.9198 23.1195 35.7663 25.858 35.5178 28.13C31.8163 29.2155 27.7893 35.144 23.8073 37.5315C18.4628 37.828 15.2688 37.548 11.1168 33.851C9.23926 32.179 7.35677 29.5825 5.11577 28.4735C3.61877 22.396 -1.08473 12.8065 1.87677 6.72446C2.92527 4.57096 4.69529 4.04145 6.83579 3.26245L6.12726 2.55545Z"
    fill="#FEFEFE"
  />
  <path
    d="M6.12744 2.55545C15.2359 -0.266048 27.241 -1.57753 36.05 3.04297C37.564 3.83697 39.216 5.08995 39.736 6.79495C40.985 10.8895 39.41 17.727 38.2545 21.763L37.5815 20.9005C38.745 17.0555 40.056 10.791 38.7475 6.93198C38.251 5.46848 37.201 4.62296 35.857 3.94446C27.9035 -0.0700407 15.125 0.656953 6.83597 3.26245L6.12744 2.55545Z"
    fill="#2B262E"
  />
  <path
    d="M6.12731 2.55566L6.83584 3.26266C4.69534 4.04166 2.92532 4.57117 1.87682 6.72467C-1.08468 12.8067 3.61882 22.3962 5.11582 28.4737C8.36882 45.9812 9.09332 63.9672 13.1048 81.3317C13.9938 85.1802 15.1153 90.7562 18.6773 92.9877C19.7848 93.0852 20.2113 93.2182 21.2053 92.6462C28.6773 88.3467 31.1153 51.6462 32.4893 42.1307C33.1758 37.3752 34.2108 32.7522 35.5178 28.1302C35.7663 25.8582 36.9198 23.1197 37.5813 20.9007L38.2543 21.7632C36.1713 28.6602 34.2533 35.8472 33.2333 42.9872C31.3868 55.9087 30.9738 69.2177 27.5198 81.8627C26.6098 85.1932 24.7308 92.2417 21.4213 93.8982C20.4608 94.3787 19.5383 94.4212 18.5248 94.0747C16.7813 93.4787 15.4798 91.1887 14.7318 89.6427C8.50434 76.7762 8.01433 49.5127 5.20933 34.3522C3.98933 27.7602 1.19332 21.4122 0.309319 14.7757C-0.0281808 12.2437 -0.281173 9.08469 0.620827 6.66019C1.47233 4.37169 4.07531 3.45366 6.12731 2.55566Z"
    fill="#737071"
  />
</svg>
