<svg
  width="39"
  height="96"
  viewBox="0 0 39 96"
  fill="none"
  xmlns="http://www.w3.org/2000/svg"
>
  <path
    d="M0.527787 4.81775C1.10379 4.19225 1.72129 3.52275 2.43779 3.05725C5.82929 0.853749 18.2578 -0.614767 22.3258 0.253233C26.1443 1.31623 36.0023 0.988753 37.9138 4.53625C38.0728 4.83075 38.2118 5.10373 38.3053 5.42373C39.1728 8.03673 38.8023 11.2977 38.4128 13.9872C37.3133 21.5802 34.1738 28.8343 32.9143 36.4163C30.8968 48.5613 30.5753 61.0158 28.6133 73.2003C27.7773 78.3933 25.9863 91.4243 21.2718 94.5428C20.5613 95.0128 19.5983 95.2443 18.7743 95.0598C17.0733 94.6793 16.2308 93.2847 15.3693 91.8977C9.19678 81.9602 7.6683 49.5792 5.6693 36.7727C4.0978 26.7082 -1.77271 14.9267 0.527787 4.81775Z"
    fill="#E3DDC7"
  />
  <path
    d="M0.527832 4.81775C1.10383 4.19225 1.72134 3.52275 2.43784 3.05725C5.82934 0.853749 18.2578 -0.614767 22.3258 0.253233C26.1443 1.31623 36.0023 0.988753 37.9138 4.53625C38.0728 4.83075 38.2118 5.10373 38.3053 5.42373L37.7933 8.03573C37.6698 15.7577 34.6078 21.9572 33.4578 29.3177C30.3653 30.3247 27.2393 35.0147 24.8718 37.3467C23.5418 38.6572 22.2323 39.6252 20.2828 39.5527C14.1818 39.3257 9.34485 33.1222 5.57785 29.0197C3.50785 23.1777 1.93085 17.5677 1.14835 11.4062C0.872846 9.21675 0.709332 7.01625 0.527832 4.81775Z"
    fill="#FEFEFE"
  />
  <path
    d="M0.527832 4.81775C1.10383 4.19225 1.72134 3.52275 2.43784 3.05725C5.82934 0.853749 18.2578 -0.614767 22.3258 0.253233L20.8693 1.30026C15.2528 0.57226 6.99485 5.11374 2.05835 7.72024C1.14085 8.76174 1.23685 10.0817 1.14835 11.4062C0.872846 9.21675 0.709332 7.01625 0.527832 4.81775Z"
    fill="#B7B2AB"
  />
  <path
    d="M22.3259 0.253174C26.1444 1.31617 36.0024 0.988694 37.9139 4.53619C38.0729 4.83069 38.2119 5.10368 38.3054 5.42368L37.7934 8.03568C32.4399 7.44468 25.8464 3.4982 20.8694 1.3002L22.3259 0.253174Z"
    fill="#CCC4BF"
  />
  <path
    d="M0.527787 4.81763C0.709287 7.01613 0.872801 9.21663 1.1483 11.4061C1.9308 17.5676 3.50781 23.1776 5.57781 29.0196C7.77731 41.7806 10.0123 86.6696 18.6238 94.0946C19.5713 94.2366 19.8038 94.3951 20.6238 93.8091C25.3153 90.4546 27.1673 76.0246 27.9888 70.3806C29.9788 56.7121 30.3438 42.7996 33.4578 29.3176C34.6078 21.9571 37.6698 15.7576 37.7933 8.03561L38.3053 5.42361C39.1728 8.03661 38.8023 11.2976 38.4128 13.9871C37.3133 21.5801 34.1738 28.8341 32.9143 36.4161C30.8968 48.5611 30.5753 61.0156 28.6133 73.2001C27.7773 78.3931 25.9863 91.4241 21.2718 94.5426C20.5613 95.0126 19.5983 95.2441 18.7743 95.0596C17.0733 94.6791 16.2308 93.2846 15.3693 91.8976C9.19678 81.9601 7.6683 49.5791 5.6693 36.7726C4.0978 26.7081 -1.77271 14.9266 0.527787 4.81763Z"
    fill="#737071"
  />
</svg>
