<svg
  width="32"
  height="100"
  viewBox="0 0 32 100"
  fill="none"
  xmlns="http://www.w3.org/2000/svg"
>
  <path
    d="M15.3068 0C19.6493 0.0635 24.2318 3.57049 27.2303 6.54449C30.2418 9.53149 31.8458 12.5235 31.8578 16.827C31.8773 23.8975 29.5808 30.7535 28.7818 37.739C27.0818 52.598 27.3433 88.764 17.0453 99.091C16.6153 99.0345 16.1833 98.9505 15.7893 98.7585C13.7283 97.7555 12.4123 94.929 11.6268 92.9105C5.43481 76.993 5.61281 54.636 3.34431 37.6455C2.49631 31.2945 0.375801 25.046 0.0463011 18.634C-0.0846989 16.0835 0.00328422 13.1865 1.09778 10.8425C3.21778 6.301 10.7383 1.6165 15.3068 0Z"
    fill="#818081"
  />
  <path
    d="M3.9082 33.9767C3.3077 31.2852 2.7317 28.5882 2.1802 25.8862C1.0872 20.4097 0.0526958 14.2397 3.4357 9.33124C6.5052 4.87674 12.4017 1.90721 17.6402 0.970215C21.5042 3.46771 26.2907 6.05073 28.9212 9.94373C33.0492 16.0532 29.8102 26.5962 28.4542 33.2177C26.3472 48.5842 26.7352 87.6037 16.2187 98.5512C6.12169 85.3912 6.4812 50.8207 3.9082 33.9767Z"
    fill="#FEFEFE"
  />
  <path
    d="M3.9082 33.9767C7.8792 36.8292 9.35421 41.9228 14.8532 42.8873C21.4742 44.0493 23.8252 36.2498 28.1862 33.3873C28.2742 33.3293 28.3647 33.2743 28.4542 33.2178C26.3472 48.5843 26.7352 87.6038 16.2187 98.5513C6.12169 85.3913 6.4812 50.8207 3.9082 33.9767Z"
    fill="#E3DDC7"
  />
</svg>
