<svg
  width="28"
  height="94"
  viewBox="0 0 28 94"
  fill="none"
  xmlns="http://www.w3.org/2000/svg"
>
  <path
    d="M2.68862 1.87032C8.39212 0.592317 19.5116 -1.56268 24.8081 1.78282C26.2891 2.71832 27.4846 4.33181 27.7981 6.06981C28.1711 8.14031 27.7836 10.6383 27.6421 12.7393C26.8841 21.8533 25.5461 30.9133 24.6976 40.0198C23.2306 55.7753 23.1641 72.5928 17.7766 87.6488C17.0676 89.6293 15.9211 92.3503 13.9116 93.3038L12.6486 92.8288C5.17861 84.9418 3.8201 43.9938 2.5591 32.1923C1.7411 24.5328 -0.195898 16.6288 0.0161015 8.91881C0.0966015 5.98131 0.528617 3.93182 2.68862 1.87032Z"
    fill="#E3DDC7"
  />
  <path
    d="M2.68862 1.87032C8.39212 0.592317 19.5116 -1.56268 24.8081 1.78282C26.2891 2.71832 27.4846 4.33181 27.7981 6.06981C28.1711 8.14031 27.7836 10.6383 27.6421 12.7393L26.9196 12.4333L24.9636 28.1433C24.8701 28.1968 24.7751 28.2483 24.6826 28.3033C21.3281 30.3023 17.8991 39.5053 13.4361 38.4278C8.94611 37.3438 6.21059 31.8838 3.43059 28.7173C2.08009 21.9488 -0.0773918 12.9178 1.34261 6.12633C1.73711 4.24183 2.41111 3.53533 3.95961 2.52083L2.68862 1.87032Z"
    fill="#FEFEFE"
  />
  <path
    d="M2.68872 1.87032C8.39222 0.592317 19.5117 -1.56268 24.8082 1.78282C26.2892 2.71832 27.4847 4.33181 27.7982 6.06981C28.1712 8.14031 27.7837 10.6383 27.6422 12.7393L26.9197 12.4333C26.9717 10.3108 27.1957 7.94583 26.8927 5.84883C26.7502 4.86633 26.4802 3.91681 25.6417 3.31981C20.8812 -0.0686891 9.35372 1.60933 3.95972 2.52083L2.68872 1.87032Z"
    fill="#2B262E"
  />
  <path
    d="M2.68862 1.87036L3.95961 2.52087C2.41111 3.53537 1.73711 4.24187 1.34261 6.12637C-0.0773909 12.9179 2.08009 21.9489 3.43059 28.7174C3.59709 41.0354 7.04559 82.0054 12.4971 91.4289C12.9561 92.2219 13.0266 92.3984 13.9511 92.6394C14.1536 92.5079 14.2521 92.4514 14.4496 92.2824C21.4041 86.3354 23.7166 38.2614 24.9636 28.1434L26.9196 12.4334L27.6421 12.7394C26.8841 21.8534 25.5461 30.9134 24.6976 40.0199C23.2306 55.7754 23.1641 72.5929 17.7766 87.6489C17.0676 89.6294 15.9211 92.3504 13.9116 93.3039L12.6486 92.8289C5.17861 84.9419 3.8201 43.9939 2.5591 32.1924C1.7411 24.5329 -0.195898 16.6289 0.0161015 8.91885C0.0966015 5.98135 0.528617 3.93186 2.68862 1.87036Z"
    fill="#818081"
  />
</svg>
