<svg
  width="27"
  height="92"
  viewBox="0 0 27 92"
  fill="none"
  xmlns="http://www.w3.org/2000/svg"
>
  <path
    d="M12.6734 0C16.9534 0.103 20.9534 0.219507 24.9984 1.75751C25.1584 2.19851 25.3034 2.63902 25.4284 3.09052C28.0684 12.641 22.0084 64.112 19.3284 76.158C18.1534 81.4345 16.6934 86.19 14.0534 90.9135C12.7184 91.5775 12.3784 91.828 10.8484 91.606C10.4584 91.3095 10.1084 90.9725 9.84345 90.556C6.18645 84.767 3.40794 59.7645 2.81494 51.9685C2.35194 45.879 2.38095 39.7565 1.94245 33.6665C1.20045 23.36 -1.42658 12.185 1.02042 1.992C4.89792 0.280504 8.50843 0.177 12.6734 0Z"
    fill="#818081"
  />
  <path
    d="M1.89946 2.30013C9.20346 0.828134 16.7184 0.790642 24.0384 2.18914C26.4284 8.50164 25.1084 15.5582 24.5484 22.1077C23.5234 34.1817 20.7234 83.7751 12.9284 90.3651C12.5684 90.6696 12.0735 90.6982 11.6185 90.8032C8.09345 88.0852 5.48944 66.0732 4.81144 60.8407C3.34994 49.5632 2.82645 37.9097 2.54545 26.5427C0.804453 19.0292 0.312457 9.87463 1.89946 2.30013Z"
    fill="#E3DDC7"
  />
  <path
    d="M1.89946 2.30013C9.20346 0.828134 16.7184 0.790642 24.0384 2.18914C26.4284 8.50164 25.1084 15.5582 24.5484 22.1077C22.4634 26.8657 19.7934 34.6706 14.5784 36.6041C13.2184 37.1091 11.8084 37.0216 10.5084 36.3781C6.26494 34.2746 5.75795 29.2967 2.54545 26.5427C0.804453 19.0292 0.312457 9.87463 1.89946 2.30013Z"
    fill="#FEFEFE"
  />
</svg>
