<svg
  width="454"
  height="50"
  viewBox="0 0 454 50"
  fill="none"
  xmlns="http://www.w3.org/2000/svg"
>
  <path
    d="M425.067 46.0432C424.56 46.2182 424.155 46.2767 423.619 46.2757C419.994 46.2682 416.597 45.2167 414.009 42.6042C409.402 37.9527 407.879 31.5042 407.896 25.1477C407.913 19.0702 409.214 11.4427 413.749 7.02969C418.924 1.99369 428.864 3.6457 435.541 3.8307C439.884 3.7827 443.327 4.02869 446.843 6.85169C450.739 9.97969 452.548 15.1427 453.052 19.9767C453.726 26.4262 452.648 34.4612 448.403 39.5997C443.086 46.0357 432.714 45.3532 425.067 46.0432Z"
    fill="#545257"
  />
  <path
    d="M417.996 4.76081C424.517 4.13081 442.945 3.25532 447.21 8.34082C454.076 16.2448 453.529 33.6483 445.898 40.7998C441.982 44.4703 424.633 45.1063 419.044 44.7023C414.25 41.8598 412.144 39.5048 410.223 34.3493C408.19 29.0998 408.692 21.4643 410.183 16.1108C411.373 10.6118 413.715 7.95181 417.996 4.76081Z"
    fill="#ADA49D"
  />
  <path
    d="M417.996 4.76081C424.517 4.13081 442.945 3.25532 447.21 8.34082C454.076 16.2448 453.529 33.6483 445.898 40.7998C441.982 44.4703 424.633 45.1063 419.044 44.7023C414.25 41.8598 412.144 39.5048 410.223 34.3493C413.398 36.8498 411.294 38.3388 416.341 39.3893C419.67 41.9658 425.582 43.8793 428.559 39.7443C429.892 39.6083 431.835 39.4723 433.103 39.2598C436.541 39.1728 443.344 38.1433 445.573 35.3658L445.315 34.5538L445.693 33.5668C447.917 31.5923 448.246 29.7813 448.814 26.8843C449.484 23.2938 449.267 22.1133 448.816 18.4633L448.421 18.2538C448.234 20.0023 447.971 21.6058 447.684 23.3403C447.577 21.7728 447.682 20.3898 446.652 19.2463L445.498 18.7238L445.911 17.3298L445.523 16.8648C443.867 18.0073 442.099 19.4403 440.166 19.8508C438.283 19.3453 437.819 18.9988 437.439 16.8813C436.763 15.7948 436.105 14.6978 435.465 13.5898L435.101 14.0978C434.21 13.2173 434.66 13.4478 433.379 13.2618C431.815 13.0833 431.414 13.4098 430.07 14.1358C429.668 13.0593 429.362 11.1378 428.932 10.6448L426.658 11.0043C425.649 10.0793 424.556 10.1688 423.194 10.0898C424.54 9.62831 425.882 9.15382 427.219 8.66632C422.032 3.80232 413.061 11.9498 410.183 16.1108C411.373 10.6118 413.715 7.95181 417.996 4.76081Z"
    fill="#D5CFCC"
  />
  <path
    d="M437.439 16.8812C436.763 15.7947 436.105 14.6977 435.464 13.5897L435.1 14.0977C434.209 13.2172 434.66 13.4477 433.378 13.2617C431.815 13.0832 431.414 13.4097 430.07 14.1357C429.668 13.0592 429.361 11.1377 428.931 10.6447C434.519 7.53017 436.343 12.8182 437.439 16.8812Z"
    fill="#CCC4BF"
  />
  <path
    d="M428.559 39.7442C425.582 43.8792 419.67 41.9657 416.341 39.3892C411.294 38.3387 413.398 36.8497 410.223 34.3492C408.19 29.0997 408.692 21.4642 410.183 16.1107C413.061 11.9497 422.032 3.80217 427.219 8.66617C425.882 9.15367 424.54 9.62816 423.194 10.0897C424.556 10.1687 425.649 10.0792 426.658 11.0042C417.09 12.6172 413.01 15.7697 411.84 25.8237L411.854 26.4962L413.221 27.1612L415.857 27.2172C416.692 28.6532 414.507 29.5607 414.441 33.2442L414.437 33.7017C419.668 34.0982 422.611 32.7592 426.065 38.2672L426.997 38.2087L428.421 38.2657C429.971 39.3772 431.044 39.1262 433.103 39.2597C431.835 39.4722 429.892 39.6082 428.559 39.7442Z"
    fill="#CECAC7"
  />
  <path
    d="M426.065 38.2672C419.66 38.2472 411.879 36.9182 412.029 28.9847C412.036 28.6587 412.048 28.3322 412.066 28.0067C412.563 27.5437 412.605 27.4022 413.221 27.1612L415.857 27.2172C416.691 28.6532 414.507 29.5607 414.441 33.2442L414.436 33.7016C419.668 34.0981 422.611 32.7592 426.065 38.2672Z"
    fill="#EDE5DF"
  />
  <path
    d="M428.559 39.7442C425.582 43.8792 419.67 41.9657 416.341 39.3892C416.226 38.6087 416.122 38.7012 415.568 37.9782L415.664 37.6487C422.248 39.1762 420.45 39.7172 428.559 39.7442Z"
    fill="#EDE9E2"
  />
  <path
    d="M445.314 34.5535C441.159 37.3785 435.785 38.2875 430.845 37.789L430.732 37.1845C432.773 32.109 431.217 30.8155 431.982 26.2805C432.81 25.922 433.475 25.6666 434.24 25.1776L433.976 25.249C433.877 25.1075 433.653 24.804 433.569 24.665L433.968 24.6055L433.577 24.51C434.399 23.849 435.96 23.3545 436.997 22.956L439.843 23.6001C441.644 24.8366 442.479 25.1555 444.517 25.9955C445.599 25.811 446.449 25.6935 447.541 25.593L448.814 26.884C448.245 29.781 447.916 31.592 445.693 33.5665L445.314 34.5535Z"
    fill="#E1DAD2"
  />
  <path
    d="M445.315 34.5535C441.159 37.3785 435.786 38.2875 430.846 37.789C433.435 35.628 441.03 33.6545 444.423 33.0155C444.772 33.153 445.412 33.3715 445.693 33.5665L445.315 34.5535Z"
    fill="#EDE9E2"
  />
  <path
    d="M443.328 30.1541C438.784 26.1811 438.153 25.9011 431.982 26.2806C432.811 25.9221 433.476 25.6666 434.24 25.1776L433.977 25.2491C433.877 25.1076 433.653 24.8041 433.57 24.6651L433.969 24.6056L433.577 24.5101C434.399 23.8491 435.96 23.3546 436.997 22.9561L439.844 23.6001C441.247 26.2146 442.239 27.0486 443.328 30.1541Z"
    fill="#CCC4BF"
  />
  <path
    d="M444.518 25.9956L445.549 27.4806C445.774 29.0781 445.775 29.2766 445.117 30.7856L444.261 31.0906L443.328 30.1541C442.239 27.0486 441.247 26.2146 439.844 23.6001C441.645 24.8366 442.479 25.1556 444.518 25.9956Z"
    fill="#B7B2AB"
  />
  <path
    d="M412.697 25.6375L411.839 25.8236C413.009 15.7696 417.09 12.617 426.658 11.004L428.931 10.6446C429.361 11.1376 429.668 13.059 430.07 14.1355C430.339 15.695 430.656 18.231 429.871 19.6395C429.267 20.7345 428.203 21.4995 426.972 21.722C423.743 22.316 421.306 20.5846 418.933 18.8671L417.767 18.3685C417.008 20.858 415.062 24.5165 412.697 25.6375Z"
    fill="#EDE9E2"
  />
  <path
    d="M426.997 38.2087L426.065 38.2672C422.611 32.7592 419.668 34.0981 414.437 33.7016C415.18 31.7586 415.724 31.8716 416.766 30.5831C420.652 25.7771 428.339 27.7392 427.4 34.4857C427.188 36.0037 427.965 36.3927 426.997 38.2087Z"
    fill="#E1DAD2"
  />
  <path
    d="M427.951 24.8183C421.572 25.1533 420.5 25.3253 418.934 18.8673C421.307 20.5848 423.743 22.3163 426.973 21.7223C428.203 21.4998 429.268 20.7348 429.871 19.6398C430.656 18.2313 430.339 15.6953 430.07 14.1358C431.414 13.4098 431.815 13.0833 433.379 13.2618C432.752 20.5463 435.786 20.4448 427.951 24.8183Z"
    fill="#C1BCB7"
  />
  <path
    d="M441.657 21.9842L441.382 21.9562C439.157 21.7422 437.853 21.7022 435.486 21.3747C434.166 19.4272 435.043 16.6562 435.101 14.0977L435.465 13.5897C436.105 14.6977 436.763 15.7947 437.439 16.8812C437.819 18.9987 438.283 19.3452 440.166 19.8507C442.099 19.4402 443.867 18.0072 445.523 16.8647L445.911 17.3297L445.498 18.7237C444.094 20.0887 443.223 20.7992 441.657 21.9842Z"
    fill="#C1BCB7"
  />
  <path
    d="M430.732 37.1846L429.439 36.7541C428.233 30.1206 428.232 23.0611 436.618 22.9546L436.997 22.9561C435.96 23.3546 434.399 23.8491 433.577 24.5101L433.969 24.6056L433.57 24.6651C433.653 24.8041 433.877 25.1076 433.977 25.2491L434.24 25.1776C433.476 25.6666 432.811 25.9221 431.982 26.2806C431.217 30.8156 432.774 32.1091 430.732 37.1846Z"
    fill="#C1BCB7"
  />
  <path
    d="M447.684 23.3403L447.471 24.0308C445.12 25.0088 442.43 24.7698 441.657 21.9843C443.223 20.7993 444.094 20.0888 445.498 18.7238L446.652 19.2463C447.682 20.3898 447.577 21.7728 447.684 23.3403Z"
    fill="#CCC4BF"
  />
  <path
    d="M419.694 24.9495L412.697 25.6375C415.063 24.5165 417.009 20.858 417.768 18.3685C417.999 20.9755 418.688 22.6225 419.694 24.9495Z"
    fill="#CCC4BF"
  />
  <path
    d="M358.109 48.9875C357.392 49.0185 356.675 49.0294 355.957 49.0199C351.666 48.9449 347.831 47.2535 344.88 44.1395C339.178 38.1215 338.193 27.683 338.482 19.8005C338.692 14.08 340.653 8.59696 344.972 4.66796C351.407 -1.18554 359.373 1.00945 367.179 1.41895C372.411 1.56495 376.806 2.16045 381.046 5.61495C385.58 9.30895 388.053 14.6925 388.638 20.4225C389.356 27.455 388.795 36.546 384.11 42.202C377.759 49.8705 366.977 48.0515 358.109 48.9875Z"
    fill="#737071"
  />
  <path
    d="M357.358 47.8028C352.521 47.6753 348.66 46.9873 345.293 43.3003C340.24 37.7678 339.235 26.3243 339.486 19.3138C339.983 5.3833 349.651 0.297296 362.325 2.0653C369.945 3.1278 377.194 1.7743 383.116 8.6903C386.618 12.6633 387.938 18.2883 387.617 23.4608L388.083 23.8203C388.311 27.8673 386.549 37.2043 384.024 40.6868C377.702 49.4018 367.692 45.8223 357.358 47.8028Z"
    fill="#D5CFCC"
  />
  <path
    d="M364.688 38.764C364.201 38.379 364.004 38.199 363.443 37.926L363.081 37.754L362.889 37.042C362.717 37.811 362.529 38.1145 362.185 38.8015L359.513 39.492C356.292 38.286 350.837 36.318 348.067 34.2695L347.306 33.839L348.055 32.754L348.354 31.5165L347.267 31.104C345.665 30.329 345.535 28.966 345.259 27.28L344.527 26.4365L343.757 25.8745C338.864 23.3635 341.564 13.159 346.487 11.746C347.749 11.3835 349.025 11.0365 350.3 10.731L358.17 8.88701L359.86 8.27951C360.76 9.20101 361.38 10.4795 362.025 11.6195L362.82 11.9345L363.746 11.7255C364.551 10.5535 365.139 9.85301 365.425 8.43451C375.188 11.1335 383.078 12.469 384.775 23.774L385.009 25.4115C385.177 25.7075 385.071 25.8145 385.021 26.296L383.142 26.8905C381.695 26.976 380.555 26.8625 379.434 27.6945C379.081 29.4005 379.924 30.6065 380.642 32.4505L381.309 34.5765L380.843 35.529L379.991 35.257L378.531 34.5165C375.54 34.677 369.18 34.6015 368.009 37.642L367.412 35.729L365.421 37.868L364.688 38.764Z"
    fill="#ADA49D"
  />
  <path
    d="M343.757 25.8743C338.864 23.3633 341.564 13.1588 346.487 11.7458C347.749 11.3833 349.025 11.0363 350.3 10.7308L358.17 8.88683L359.86 8.27933C360.76 9.20083 361.38 10.4793 362.025 11.6193C357.63 13.5778 360.621 14.2363 357.686 17.7858C356.653 19.4593 357.142 19.1728 355.535 19.9708C352.44 19.4173 352.74 17.2858 348.999 16.8103L347.365 15.4633L346.871 14.9098C345.965 18.3858 346.287 21.1748 344.756 24.8988L343.757 25.8743Z"
    fill="#EDE9E2"
  />
  <path
    d="M357.686 17.786C356.653 19.4595 357.142 19.173 355.535 19.971C352.44 19.4175 352.74 17.286 348.999 16.8105L347.365 15.4635L346.871 14.91L348.1 14.549C349.103 14.933 357.037 17.384 357.481 17.315L357.686 17.786Z"
    fill="#EDE5DF"
  />
  <path
    d="M357.686 17.786L357.481 17.315C357.521 14.5885 358.642 10.116 358.17 8.88695L359.86 8.27945C360.76 9.20095 361.38 10.4794 362.025 11.6194C357.63 13.5779 360.621 14.2365 357.686 17.786Z"
    fill="#D5CFCC"
  />
  <path
    d="M368.009 37.642L367.412 35.729L365.421 37.868C364.7 34.7635 363.528 28.9005 362.599 26.0715C368.728 24.8975 370.077 24.6 376.12 25.7415C377.154 27.7905 378.663 31.465 380.642 32.4505L381.309 34.5765L380.843 35.529L379.991 35.257L378.531 34.5165C375.54 34.677 369.18 34.6015 368.009 37.642Z"
    fill="#CCC4BF"
  />
  <path
    d="M368.009 37.6419L367.412 35.7289L366.344 27.1924C373.029 27.1479 375.431 28.0659 378.531 34.5164C375.54 34.6769 369.181 34.6014 368.009 37.6419Z"
    fill="#E1DAD2"
  />
  <path
    d="M384.775 23.7737C378.672 21.9912 384.015 18.6257 378.775 16.5717C375.157 14.7427 376.072 20.6047 369.102 20.9172C367.09 20.7497 367.401 21.0917 366.18 19.9512C365.218 17.1017 366.852 13.7417 365.135 12.2092L363.746 11.7252C364.551 10.5532 365.139 9.85274 365.425 8.43424C375.188 11.1332 383.078 12.4687 384.775 23.7737Z"
    fill="#EDE9E2"
  />
  <path
    d="M369.102 20.9173C367.09 20.7498 367.401 21.0918 366.18 19.9513C365.218 17.1018 366.852 13.7418 365.135 12.2093C366.775 12.0463 366.474 11.8283 367.712 12.5173C368.9 14.9073 368.276 17.6188 369.016 20.5848L369.102 20.9173Z"
    fill="#E1DAD2"
  />
  <path
    d="M362.185 38.8015L359.513 39.492C356.292 38.286 350.837 36.318 348.067 34.2695L347.306 33.839L348.055 32.754C351.493 32.0165 357.942 18.5485 362.185 38.8015Z"
    fill="#E1DAD2"
  />
  <path
    d="M359.513 39.492C356.292 38.286 350.837 36.318 348.067 34.2695C351.795 31.328 357.508 35.9685 359.513 39.492Z"
    fill="#EDE9E2"
  />
  <path
    d="M375.557 24.283C369.288 23.0015 368.158 23.692 362.195 23.987C362.133 20.599 362.235 15.27 362.82 11.9345L363.746 11.7255L365.135 12.2095C366.852 13.742 365.218 17.102 366.18 19.9515C367.401 21.092 367.09 20.75 369.102 20.9175C376.072 20.605 375.157 14.743 378.775 16.572L378.561 16.9755C377.129 18.2105 376.28 22.199 375.557 24.283Z"
    fill="#CCC4BF"
  />
  <path
    d="M364.688 38.7638C364.201 38.3788 364.004 38.1988 363.443 37.9258L363.081 37.7538L362.889 37.0418C362.717 37.8108 362.529 38.1143 362.185 38.8013C357.942 18.5483 351.493 32.0163 348.055 32.7538L348.354 31.5163C350.815 22.4488 353.38 22.7878 361.119 25.6028C361.827 29.1043 362.834 35.9868 364.688 38.7638Z"
    fill="#CCC4BF"
  />
  <path
    d="M362.025 11.6194C360.364 14.4559 360.803 19.9124 360.835 23.3724C359.347 24.1639 358.901 23.1394 357.519 22.9974C351.02 22.3289 352.165 22.2884 348.999 16.8104C352.74 17.2859 352.44 19.4174 355.535 19.9709C357.142 19.1729 356.653 19.4594 357.686 17.7859C360.621 14.2364 357.63 13.5779 362.025 11.6194Z"
    fill="#E3DDC7"
  />
  <path
    d="M385.01 25.4113C381.957 25.4248 379.603 25.7288 376.679 25.8563C377.495 23.0163 378.602 19.8883 378.561 16.9753L378.775 16.5718C384.016 18.6258 378.673 21.9913 384.776 23.7738L385.01 25.4113Z"
    fill="#E1DAD2"
  />
  <path
    d="M350.968 23.3147C348.751 23.9552 347.014 24.4042 344.757 24.8987C346.288 21.1747 345.966 18.3857 346.872 14.9097L347.365 15.4632C346.986 17.3772 349.768 21.1122 350.968 23.3147Z"
    fill="#CCC4BF"
  />
  <path
    d="M347.267 31.1038C345.665 30.3288 345.535 28.9658 345.259 27.2798L344.527 26.4363C345.927 26.1223 347.339 25.6058 348.592 26.2278C348.867 27.9418 347.981 29.2928 347.267 31.1038Z"
    fill="#E3DDC7"
  />
  <path
    d="M387.617 23.4608L388.083 23.8203C388.311 27.8673 386.549 37.2043 384.024 40.6868C377.702 49.4018 367.692 45.8223 357.358 47.8028C357.968 47.1638 358.842 46.5183 358.885 45.8183C368.577 37.2568 370.033 47.8778 375.122 42.7558C371.82 43.3678 369.854 44.0843 367.367 41.2193C364.386 41.3268 361.991 41.3648 359.011 41.2488C355.355 39.8848 347.94 37.0633 345.163 34.3178C344.627 32.2303 342.838 30.9628 343.168 29.0028L343.732 28.4658L344.653 30.8593L345.085 30.7323C344.668 29.0298 344.237 28.6623 344.849 27.3753L345.259 27.2798C345.535 28.9658 345.665 30.3288 347.267 31.1038L348.354 31.5163L348.055 32.7538L347.306 33.8388L348.067 34.2693C350.837 36.3178 356.292 38.2858 359.513 39.4918L362.185 38.8013C362.529 38.1143 362.717 37.8108 362.889 37.0418L363.081 37.7538L363.443 37.9258C364.004 38.1988 364.201 38.3788 364.688 38.7638L365.421 37.8678L367.412 35.7288L368.009 37.6418C369.18 34.6013 375.54 34.6768 378.531 34.5163L379.991 35.2568L380.843 35.5288L381.309 34.5763L380.642 32.4503C379.924 30.6063 379.081 29.4003 379.434 27.6943C380.555 26.8623 381.695 26.9758 383.142 26.8903L385.021 26.2958C385.071 25.8143 385.177 25.7073 385.009 25.4113L384.775 23.7738C383.078 12.4688 375.188 11.1333 365.425 8.4343C365.139 9.8528 364.551 10.5533 363.746 11.7253L362.82 11.9343L362.025 11.6193C361.38 10.4793 360.76 9.2008 359.86 8.2793L358.17 8.8868L350.3 10.7308L349.804 9.2513C352.475 8.8313 354.62 8.2268 357.218 7.5288C360.523 6.8433 362.015 6.70181 365.396 6.54081C368.39 8.07231 373.603 9.4283 377.286 11.0898C381.455 13.4978 378.624 11.3598 381.558 12.1983C383.35 16.5093 382.963 14.3643 385.12 15.3403C386.929 18.1818 386.856 20.1373 387.617 23.4608Z"
    fill="#C7C2BF"
  />
  <path
    d="M375.122 42.7558C371.82 43.3678 369.854 44.0843 367.367 41.2193C370.739 40.4853 379.177 37.2448 381.471 37.7178L381.202 38.5828C379.063 40.8118 377.812 41.3468 375.122 42.7558Z"
    fill="#FEFEFE"
  />
  <path
    d="M379.991 35.2569C377.839 36.9239 371.592 38.8714 368.744 38.6069L368.009 37.6419C369.18 34.6014 375.54 34.6769 378.531 34.5164L379.991 35.2569Z"
    fill="#EDE9E2"
  />
  <path
    d="M383.142 26.8905C383.711 27.1515 383.846 27.3315 384.325 27.7315C384.405 30.0755 383.782 33.607 381.309 34.5765L380.642 32.4505C379.924 30.6065 379.081 29.4005 379.434 27.6945C380.555 26.8625 381.695 26.976 383.142 26.8905Z"
    fill="#E1DAD2"
  />
  <path
    d="M362.82 11.9344L362.026 11.6194C361.381 10.4794 360.76 9.20089 359.861 8.27939C362.29 7.97589 362.973 8.09289 365.425 8.43439C365.139 9.85289 364.551 10.5534 363.747 11.7254L362.82 11.9344Z"
    fill="#CCC4BF"
  />
  <path
    d="M359.011 41.249L361.387 41.8855L361.737 42.5515C360.572 43.8665 357.006 44.146 355.247 44.285C351.393 42.4505 344.842 39.4575 345.163 34.318C347.94 37.0635 355.355 39.885 359.011 41.249Z"
    fill="#FEFEFE"
  />
  <path
    d="M349.804 9.25149C348.454 9.80949 346.743 10.713 345.374 10.4205C345.207 8.65599 347.325 7.11649 348.595 5.95699C350.961 5.89349 354.176 5.62649 356.369 6.27149L357.219 7.52898C354.621 8.22698 352.476 8.83149 349.804 9.25149Z"
    fill="#EDE9E2"
  />
  <path
    d="M365.396 6.54067C367.594 4.92067 375.015 6.69116 377.01 8.70366C376.882 9.72266 376.911 10.1317 377.286 11.0897C373.603 9.42816 368.39 8.07217 365.396 6.54067Z"
    fill="#EDE9E2"
  />
  <path
    d="M301.984 49.331C293.765 49.3575 283.546 51.3835 276.897 45.666C270.371 40.055 269.121 30.7065 268.473 22.6225C267.974 16.398 268.866 10.233 273.141 5.36101C276.072 2.02101 279.94 0.3085 284.319 0C292.463 0.4285 304.139 -0.619493 311.092 4.21001C315.508 7.27751 318.048 12.3185 318.934 17.518C320.226 25.0915 319.129 35.866 314.509 42.2235C311.32 46.611 307.17 48.4755 301.984 49.331Z"
    fill="#C1BCB7"
  />
  <path
    d="M311.54 14.0761C313.255 14.8351 313.834 15.0441 314.685 16.7421C316.224 17.0861 315.569 17.1256 317.255 16.2886L317.671 16.9081C318.526 38.7226 315.744 49.2671 292.893 48.0741C282.809 47.5476 276.201 48.7006 272.136 36.9796C270.812 32.2876 268.007 17.2516 271.036 13.3471L272.494 13.0656C275.005 6.6921 284.585 -3.3604 289.272 5.9946C290.489 6.4161 294.202 6.20909 296.4 6.81009C301.456 3.17509 310.262 7.5306 312.042 12.2896L311.269 13.5191L311.54 14.0761Z"
    fill="#ADA49D"
  />
  <path
    d="M311.54 14.0761C313.255 14.8351 313.834 15.0441 314.685 16.7421C316.224 17.0861 315.569 17.1256 317.255 16.2886L317.671 16.9081C318.526 38.7226 315.744 49.2671 292.893 48.0741C282.809 47.5476 276.201 48.7006 272.136 36.9796C273.038 37.5416 276.462 42.5176 277.749 44.0136C277.661 42.0281 277.46 40.9226 277.088 38.9601C276.39 37.5931 275.785 36.7186 275.89 35.1931C275.684 34.3851 275.572 33.9711 275.264 33.1976C276.801 30.5241 273.234 25.0806 275.831 23.8176L276.483 23.9001C283.865 28.0286 276.776 28.2506 277.934 34.2416L277.708 34.3066L277.826 34.7916L279.582 35.2741L279.467 35.8556C282.152 37.7221 286.458 39.0656 289.626 39.8411C294.741 40.1136 296.297 40.9126 297.393 35.2736C297.341 36.9656 297.233 37.7706 297.766 39.3886C299.073 39.8116 298.495 39.8071 300.11 39.0206C300.774 38.9101 301.881 38.9286 302.586 38.9141C305.245 37.9641 307.526 37.2481 309.98 35.8206L311.189 34.9686L311.059 34.2831L310.531 34.1226L310.587 33.6961C311.117 29.5011 308.842 29.1731 309.456 27.0876C311.692 26.9046 313.252 26.9741 314.99 25.5596L313.517 24.9031C316.062 23.1551 314.825 20.3486 313.585 18.0026L313.235 17.7641L313.725 21.4306C311.656 18.8661 311.603 17.7836 309.046 15.1616L310.533 14.3211L311.54 14.0761Z"
    fill="#D5CFCC"
  />
  <path
    d="M293.621 42.9183C291.254 44.3728 289.796 44.5158 287.118 45.0318C281.522 43.5903 281.319 41.9623 277.088 38.9603C276.39 37.5933 275.785 36.7188 275.89 35.1933C280.734 38.9293 287.633 41.8233 293.621 42.9183Z"
    fill="#EDE9E2"
  />
  <path
    d="M293.621 42.918L294.792 43.0185L294.873 43.3535C290.555 47.765 282.365 48.241 277.749 44.0135C277.661 42.028 277.46 40.9225 277.088 38.96C281.319 41.962 281.522 43.59 287.118 45.0315C289.796 44.5155 291.254 44.3725 293.621 42.918Z"
    fill="#EDE9E2"
  />
  <path
    d="M302.594 44.5211L301.335 44.4111C301.146 43.1041 301.989 41.8486 302.529 40.6471C305.674 39.4656 308.755 38.2415 311.797 36.8145L312.484 36.5011C312.434 37.3436 312.122 37.9311 311.672 38.6266C309.462 42.0471 306.518 43.7121 302.594 44.5211Z"
    fill="#EDE9E2"
  />
  <path
    d="M277.749 44.0137C276.462 42.5177 273.038 37.5417 272.136 36.9797C270.812 32.2877 268.007 17.2517 271.036 13.3472L272.494 13.0657C275.005 6.69224 284.585 -3.36026 289.272 5.99474C290.489 6.41624 294.202 6.20923 296.4 6.81023C301.456 3.17523 310.262 7.53074 312.042 12.2897L311.269 13.5192L311.54 14.0762L310.533 14.3212C304.987 11.2817 300.214 9.09323 293.902 7.98273L293.141 10.2122L292.535 10.4977L292.04 9.79174L292.819 8.43123L292.308 8.17023L291.425 8.57674L290.452 8.03324C289.932 7.94724 288.505 7.67524 288.063 7.68024C284.04 8.71274 279.481 10.6997 275.667 12.4332C274.058 13.5532 273.807 13.7247 272.692 15.3232C272.067 17.1072 272.709 18.1117 273.444 19.9052L273.18 20.3552C273.878 20.7692 275.728 22.3337 276.442 22.9122L276.76 23.5422L276.483 23.9002L275.831 23.8177C273.234 25.0807 276.801 30.5242 275.264 33.1977C275.572 33.9712 275.684 34.3852 275.89 35.1932C275.785 36.7187 276.39 37.5932 277.088 38.9602C277.46 40.9227 277.661 42.0282 277.749 44.0137Z"
    fill="#C7C3BF"
  />
  <path
    d="M289.272 5.9945C283.774 6.7395 277.136 10.106 272.494 13.0655C275.005 6.69199 284.585 -3.3605 289.272 5.9945Z"
    fill="#EDE9E2"
  />
  <path
    d="M296.4 6.81011C301.456 3.17511 310.262 7.53062 312.042 12.2896L311.269 13.5191C306.265 10.3666 302.126 8.47911 296.4 6.81011Z"
    fill="#EDE9E2"
  />
  <path
    d="M276.483 23.9001L275.831 23.8176C273.234 25.0806 276.801 30.5241 275.264 33.1976C274.832 30.8821 272.919 21.9461 273.18 20.3551C273.878 20.7691 275.728 22.3336 276.442 22.9121L276.76 23.5421L276.483 23.9001Z"
    fill="#CCC4BF"
  />
  <path
    d="M290.452 8.0331C291.446 12.9851 290.304 18.3546 290.944 23.3591C291.176 25.1706 292.159 25.6376 293.675 26.7231L293.23 26.9986C291.575 26.3771 284.861 26.0486 284.471 25.6866C282.68 24.0226 277.958 16.1341 274.991 15.2096C273.996 16.4326 274.741 17.2626 274.393 19.4901L273.444 19.9051C272.709 18.1116 272.067 17.1071 272.692 15.3231C273.807 13.7246 274.058 13.5531 275.667 12.4331C279.481 10.6996 284.04 8.7126 288.063 7.6801C288.505 7.6751 289.932 7.9471 290.452 8.0331Z"
    fill="#CCC4BF"
  />
  <path
    d="M288.33 13.9854C286.875 14.2199 286.063 13.7109 284.702 13.2539C284.309 14.4404 283.98 15.3614 283.5 16.5264C280.927 15.1224 278.33 13.6474 275.667 12.4329C279.481 10.6994 284.04 8.71244 288.063 7.67994C289.225 10.0094 288.893 11.5759 288.33 13.9854Z"
    fill="#EDE9E2"
  />
  <path
    d="M288.33 13.9857C288.254 15.4297 288.007 16.0052 287.558 17.3367C285.988 18.6892 286.696 18.4687 284.758 18.4652C283.964 17.6827 283.863 17.5767 283.5 16.5267C283.98 15.3617 284.309 14.4407 284.702 13.2542C286.063 13.7112 286.875 14.2202 288.33 13.9857Z"
    fill="#E1DAD2"
  />
  <path
    d="M313.517 24.9031L312.1 24.7271C310.528 21.7156 308.159 24.5176 308.584 19.0386C308.983 17.8326 308.959 18.3326 308.727 17.1236L307.882 17.5741C306.935 18.9301 306.714 19.1711 306.422 20.8301C303.777 21.8471 301.548 23.5626 298.6 22.5591C296.251 20.4151 297.584 17.0016 296.765 14.5196C296.032 14.1261 295.295 13.7402 294.555 13.3617C294.431 12.4412 293.84 8.57214 293.902 7.98264C300.214 9.09314 304.987 11.2816 310.533 14.3211L309.046 15.1616C311.603 17.7836 311.656 18.8662 313.725 21.4307L313.235 17.7641L313.585 18.0026C314.825 20.3486 316.062 23.1551 313.517 24.9031Z"
    fill="#E1DAD2"
  />
  <path
    d="M309.046 15.1615C304 15.4565 303.556 21.182 300.126 20.4595C299.851 17.87 299.778 13.474 297.995 11.6935L297.043 11.561C295.71 13.2155 296.228 13.11 294.555 13.3615C294.431 12.441 293.84 8.57203 293.902 7.98253C300.214 9.09303 304.987 11.2815 310.533 14.321L309.046 15.1615Z"
    fill="#EDE9E2"
  />
  <path
    d="M297.393 35.2735C296.297 40.9125 294.741 40.1135 289.626 39.841C286.458 39.0655 282.152 37.722 279.467 35.8555L279.582 35.274L277.826 34.7915L277.708 34.3065L277.934 34.2415C280.947 33.1785 281.518 32.3195 282.825 29.433C288.856 35.474 290.613 25.3245 297.633 32.0825L297.393 35.2735Z"
    fill="#E1DAD2"
  />
  <path
    d="M289.626 39.8411C286.458 39.0656 282.152 37.7221 279.467 35.8556L279.582 35.2741C283.374 35.5296 289.12 35.0196 289.626 39.8411Z"
    fill="#EDE9E2"
  />
  <path
    d="M306.422 20.8302C303.366 28.4672 296.767 28.5502 292.53 21.8532C292.454 19.8437 292.093 17.3457 293.102 15.7012C294.352 14.8627 295.173 14.4832 296.765 14.5197C297.584 17.0017 296.251 20.4152 298.6 22.5592C301.548 23.5627 303.777 21.8472 306.422 20.8302Z"
    fill="#C1BCB7"
  />
  <path
    d="M302.586 38.9141C301.881 38.9286 300.774 38.9101 300.11 39.0206L299.992 33.2051C304.504 30.9711 303.461 30.4476 308.741 30.5361C309.115 32.0596 309.692 32.8076 310.531 34.1226L311.059 34.2831L311.189 34.9686L309.98 35.8206C307.526 37.2481 305.245 37.9641 302.586 38.9141Z"
    fill="#E1DAD2"
  />
  <path
    d="M302.586 38.9141C302.532 37.1401 302.218 34.8951 303.184 33.5096C305.21 33.0796 307.188 34.9151 309.98 35.8206C307.526 37.2481 305.245 37.9641 302.586 38.9141Z"
    fill="#EDE9E2"
  />
  <path
    d="M297.633 32.0826C290.613 25.3246 288.856 35.4741 282.825 29.4331C284.927 24.5186 292.34 26.8276 296.04 28.5826C297.296 29.1786 297.413 30.8821 297.633 32.0826Z"
    fill="#CCC4BF"
  />
  <path
    d="M308.741 30.5362C303.461 30.4477 304.504 30.9711 299.992 33.2051C299.581 31.5701 299.149 29.6422 298.656 28.0557L305.236 26.8116L308.741 30.5362Z"
    fill="#CCC4BF"
  />
  <path
    d="M314.99 25.5596L306.348 25.5081C307.049 23.4616 307.811 21.0211 308.584 19.0386C308.159 24.5176 310.528 21.7156 312.1 24.7271L313.517 24.9031L314.99 25.5596Z"
    fill="#CCC4BF"
  />
  <path
    d="M276.442 22.9122C275.728 22.3337 273.878 20.7692 273.18 20.3552L273.444 19.9052L274.393 19.4902C274.741 17.2627 273.996 16.4327 274.991 15.2097C275.8 17.8032 276.354 18.4017 277.985 20.4922L276.442 22.9122Z"
    fill="#E3DDC7"
  />
  <path
    d="M277.985 20.4923C279.07 21.5063 280.278 22.3393 280.558 23.7033C279.085 24.4313 278.793 23.9788 276.76 23.5423L276.442 22.9123L277.985 20.4923Z"
    fill="#C1BCB7"
  />
  <path
    d="M230.947 47.2613C227.282 47.3118 224.278 47.1493 221.003 45.2553C214.806 41.6723 211.505 34.6338 209.806 27.9448C208.477 22.7093 207.842 16.6368 210.787 11.8223C214.195 6.25077 221.047 3.87226 227.067 2.44126C232.113 2.30976 237.611 3.62376 241.895 6.35526C245.489 8.64626 248.016 11.9273 248.904 16.1338C250.438 23.3998 247.822 32.5393 243.772 38.6133C240.627 43.3298 236.511 46.1658 230.947 47.2613Z"
    fill="#737071"
  />
  <path
    d="M230.616 46.2477C227.697 46.3842 224.588 45.9842 222.016 44.5462C216.022 41.1947 212.7 34.5047 210.933 28.1202C209.525 23.0352 208.741 16.8547 211.547 12.1082C214.552 7.02568 221.536 4.81718 226.947 3.46218C231.854 3.28918 237.573 4.58917 241.685 7.32967C244.976 9.52217 247.154 12.6662 247.912 16.5537C249.279 23.5582 246.45 32.7377 242.47 38.5162C239.377 43.0077 235.858 45.2662 230.616 46.2477Z"
    fill="#D5CFCC"
  />
  <path
    d="M237.249 35.2312C237.348 35.3567 237.387 35.8937 237.417 36.0987C231.778 41.1687 225.339 39.0227 219.234 36.5547L221.009 35.1872C225.506 32.2782 224.957 23.9532 229.808 24.0302L230.202 22.4972C225.81 22.3817 221.657 25.4927 219.131 28.8787L218.513 28.6517C218.472 19.5552 214.467 21.8347 214.114 14.6937L213.085 14.9302C213.156 13.9187 213.731 13.1277 214.656 12.6532C217.788 10.8187 224.153 8.72816 227.85 7.09866C231.154 8.29216 239.39 10.6617 241.853 11.7112C244.293 12.2702 245.7 14.5687 245.686 16.9502L245.314 17.0352L244.664 15.5837L243.912 15.4537L243.737 17.2647C243.295 16.5592 243.316 15.8102 243.241 14.9707L242.748 15.3752C242.881 16.6337 242.487 18.0827 242.234 19.3577C243.07 19.3817 242.688 19.2722 243.413 19.7172C245.093 25.2537 242.177 32.2412 237.249 35.2312Z"
    fill="#E3DDC7"
  />
  <path
    d="M227.913 16.7696C227.805 17.5756 227.654 17.9916 227.409 18.7696C225.165 19.9576 220.858 21.9811 218.326 21.5301C217.296 19.1426 216.045 16.4921 214.114 14.6936L213.085 14.9301C213.156 13.9186 213.731 13.1276 214.656 12.6531C217.788 10.8186 224.153 8.72813 227.85 7.09863C231.154 8.29213 239.39 10.6616 241.853 11.7111C237.319 11.5826 234.901 11.9366 229.857 11.5671L229.073 12.0581L227.913 16.7696Z"
    fill="#EDE9E2"
  />
  <path
    d="M229.073 12.058C223.805 11.456 221.604 11.7815 216.335 13.209L214.656 12.653C217.788 10.8185 224.153 8.72805 227.85 7.09855C231.154 8.29205 239.39 10.6615 241.853 11.711C237.319 11.5825 234.901 11.9366 229.857 11.5671L229.073 12.058Z"
    fill="#FEFEFE"
  />
  <path
    d="M237.249 35.2312C237.348 35.3567 237.387 35.8937 237.417 36.0987C231.778 41.1687 225.339 39.0227 219.234 36.5547L221.009 35.1872C225.507 32.2782 224.957 23.9532 229.808 24.0302C232.058 27.2962 234.335 33.1232 237.249 35.2312Z"
    fill="#FEFEFE"
  />
  <path
    d="M240.004 19.9036C236.673 21.2181 232.561 22.5151 231.696 17.5021L230.834 18.6991C229.515 18.2816 228.94 17.6591 227.913 16.7696L229.073 12.0581L229.857 11.5671C234.901 11.9366 237.319 11.5826 241.853 11.7111C244.293 12.2701 245.7 14.5686 245.686 16.9501L245.314 17.0351L244.664 15.5836L243.912 15.4536L243.737 17.2646C243.295 16.5591 243.316 15.8101 243.241 14.9706L242.748 15.3751C241.673 16.9126 240.923 18.2656 240.004 19.9036Z"
    fill="#EDE9E2"
  />
  <path
    d="M231.696 17.5023L230.834 18.6993C229.515 18.2818 228.94 17.6593 227.913 16.7698L229.073 12.0583L229.857 11.5673C230.571 13.1023 231.223 15.7948 231.696 17.5023Z"
    fill="#CCC4BF"
  />
  <path
    d="M237.249 35.231C234.335 33.123 232.058 27.296 229.808 24.03L230.202 22.497C233.921 24.613 236.397 26.1835 239.712 28.9445C239.505 25.985 240.491 21.7035 242.234 19.3575C243.07 19.3815 242.688 19.272 243.413 19.717C245.093 25.2535 242.177 32.241 237.249 35.231Z"
    fill="#E3DDC7"
  />
  <path
    d="M230.202 22.4971C225.81 22.3816 221.657 25.4926 219.131 28.8786L218.513 28.6516C218.472 19.5551 214.467 21.8346 214.114 14.6936C216.045 16.4921 217.296 19.1426 218.326 21.5301C219.226 23.6016 218.917 23.8816 220.498 24.7401C222.861 24.6536 225.495 22.2581 228.28 21.0896C232.215 22.4711 235.04 23.6986 238.408 26.2626L240.004 19.9036C240.923 18.2656 241.673 16.9126 242.748 15.3751C242.881 16.6336 242.487 18.0826 242.234 19.3576C240.491 21.7036 239.505 25.9851 239.712 28.9446C236.397 26.1836 233.921 24.6131 230.202 22.4971Z"
    fill="#ADA49D"
  />
  <path
    d="M219.235 36.5548C216.347 35.1028 213.379 27.2398 213.571 24.2468L214.07 23.7007C215.135 28.4802 216.255 32.7627 221.009 35.1872L219.235 36.5548Z"
    fill="#EDE9E2"
  />
  <path
    d="M176.245 45.7402C172.098 47.5447 169.775 47.7352 165.375 46.2562C160.619 44.6582 153.477 36.5857 153.09 31.5792C145.336 15.6712 155.467 7.35266 169.271 2.45716C176.28 3.29166 185.331 7.97266 188.268 14.5472C192.783 24.6537 185.956 41.1662 176.245 45.7402Z"
    fill="#EDE9E2"
  />
  <path
    d="M175.904 35.3417C174.23 38.6357 166.471 38.3622 163.654 35.7792C156.176 34.3422 153.536 22.4312 156.771 17.2962L156.968 16.8186C158.546 18.4251 159.654 23.6601 160.157 25.9996L161.428 26.5061C163.201 25.7241 163.836 25.5381 165.102 24.0966L164.402 23.5867L170.092 21.4277C173.597 22.0822 174.759 22.1957 177.73 24.1497C180.123 22.6072 180.214 19.4512 182.718 18.3647C183.05 17.3562 183.068 17.3272 183.817 16.5572L184.249 16.8127L183.989 18.1367C185.484 22.4627 185.041 28.3727 183.328 32.6412C180.458 34.6997 179.432 35.7852 175.904 35.3417Z"
    fill="#E3DDC7"
  />
  <path
    d="M160.257 30.1907C159.156 25.9972 158.048 21.4077 156.771 17.2962L156.968 16.8187C158.546 18.4252 159.654 23.6602 160.157 25.9997L161.428 26.5062C163.201 25.7242 163.836 25.5382 165.102 24.0967L164.402 23.5867L170.092 21.4277C173.597 22.0822 174.759 22.1957 177.73 24.1497C180.123 22.6072 180.214 19.4512 182.718 18.3647C183.05 17.3562 183.068 17.3272 183.817 16.5572L184.249 16.8127L183.989 18.1367C182.38 22.2862 181.941 25.9652 180.61 29.7977C169.749 22.6082 170.46 23.8447 160.257 30.1907Z"
    fill="#ADA49D"
  />
  <path
    d="M170.087 22.9632C166.949 24.1022 162.823 27.3212 161.121 27.4047L160.157 25.9997L161.428 26.5062C163.201 25.7242 163.836 25.5382 165.102 24.0967L164.402 23.5867L170.092 21.4277C173.597 22.0822 174.759 22.1957 177.73 24.1497C180.123 22.6072 180.214 19.4512 182.718 18.3647C181.861 21.4832 180.838 24.6907 179.894 27.7957C176.281 25.4562 174.178 24.1977 170.087 22.9632Z"
    fill="#CCC4BF"
  />
  <path
    d="M175.904 35.3417C174.23 38.6357 166.471 38.3622 163.654 35.7792C166.685 33.2167 167.77 29.8072 170.114 26.4767C171.72 29.0452 174.091 33.0847 175.904 35.3417Z"
    fill="#FEFEFE"
  />
  <path
    d="M176.245 45.7403L176.494 45.4653C178.301 43.4913 180.11 42.7198 181.132 40.5943L181.265 40.3238C181.34 40.1458 181.415 39.9678 181.49 39.7898C185.807 38.4038 188.223 24.7588 188.214 20.4518L188.212 20.2778C186.515 17.4508 185.384 14.8418 182.394 13.5033L170.397 7.34429C167.49 8.35279 159.603 12.4938 156.473 14.0848L155.164 15.3058C149.335 19.4838 153.358 26.1253 153.09 31.5793C145.336 15.6713 155.467 7.35279 169.271 2.45729C176.28 3.29179 185.331 7.97279 188.268 14.5473C192.783 24.6538 185.956 41.1663 176.245 45.7403Z"
    fill="#C1BCB7"
  />
  <path
    d="M176.245 45.7402C172.098 47.5447 169.775 47.7352 165.375 46.2562C160.619 44.6582 153.477 36.5857 153.09 31.5792C153.358 26.1252 149.335 19.4837 155.164 15.3057C153.871 20.0127 153.056 22.1977 154.472 27.4982C156.198 33.7057 159.891 40.9477 166.467 42.9887C169.142 43.8187 171.213 43.3677 173.765 45.0547C174.275 44.6082 180.237 40.6992 181.49 39.7897C181.415 39.9677 181.34 40.1457 181.265 40.3237L181.132 40.5942C180.11 42.7197 178.301 43.4912 176.494 45.4652L176.245 45.7402Z"
    fill="#D5CFCC"
  />
  <path
    d="M181.49 39.7896C182.088 36.8886 183.353 35.6366 183.328 32.6411C185.041 28.3726 185.484 22.4626 183.989 18.1366L184.249 16.8126L183.817 16.5571C183.068 17.3271 183.05 17.3561 182.718 18.3646C180.214 19.4511 180.123 22.6071 177.73 24.1496C174.759 22.1956 173.597 22.0821 170.092 21.4276L164.402 23.5866L163.145 23.4966L163.045 22.4191C163.07 22.4246 177.291 20.5631 179.035 20.4246C180.572 18.1876 181.524 16.0656 182.394 13.5031C185.384 14.8416 186.515 17.4506 188.212 20.2776L188.214 20.4516C188.223 24.7586 185.807 38.4036 181.49 39.7896Z"
    fill="#D5CFCC"
  />
  <path
    d="M164.402 23.5869L165.102 24.0969C163.836 25.5384 163.201 25.7244 161.428 26.5064L160.157 25.9999C159.654 23.6604 158.546 18.4254 156.968 16.8189L157.792 15.5394C160.483 17.2159 161.492 19.6659 163.045 22.4194L163.145 23.4969L164.402 23.5869Z"
    fill="#E3DDC7"
  />
  <path
    d="M128.979 11.8913C138.726 23.4108 116.842 60.2708 102.698 40.1453C97.4416 32.6653 94.1281 24.2252 94.8256 15.0617C100.006 6.34125 112.609 -0.286751 121.546 6.35925C123.394 7.73275 126.213 9.02526 127.651 10.8243L128.979 11.8913Z"
    fill="#E3DFDA"
  />
  <path
    d="M128.979 11.8913C138.726 23.4108 116.842 60.2708 102.698 40.1453C97.4416 32.6653 94.1281 24.2252 94.8256 15.0617C100.006 6.34125 112.609 -0.286751 121.546 6.35925C123.394 7.73275 126.213 9.02526 127.651 10.8243C123.131 8.64026 116.076 3.54776 111.401 4.12126C108.102 5.24226 104.553 7.44076 101.64 9.29976C101.012 9.50226 100.962 9.65775 100.444 9.96325C90.3236 15.9388 98.5466 32.6438 104.003 39.8953C105.384 38.8838 106.104 37.6543 107.666 36.6863C110.173 37.7313 111.539 38.1683 114.227 37.4873C118.953 36.2903 118.291 37.3503 121.75 39.4588L122.028 39.6248C128.493 30.9308 132.448 22.6598 128.979 11.8913Z"
    fill="#818081"
  />
  <path
    d="M122.028 39.6248C116.711 45.5343 108.786 47.8363 104.003 39.8953C105.384 38.8838 106.104 37.6543 107.666 36.6863C110.173 37.7313 111.539 38.1683 114.227 37.4873C118.953 36.2903 118.291 37.3503 121.75 39.4588L122.028 39.6248Z"
    fill="#FEFEFE"
  />
  <path
    d="M59.3382 4.4798C55.6592 4.5948 49.8752 4.60282 46.8987 6.93882C46.0497 7.60532 45.7557 8.61131 45.6392 9.64881C44.7227 17.8258 49.0847 35.8308 54.3162 42.1093C56.2942 44.4833 58.2967 44.9553 61.2742 45.2208C62.7692 44.8688 64.0177 44.4673 65.2047 43.4538C71.6017 37.9883 75.1882 22.4173 75.6902 14.4128C75.8172 12.3828 75.7482 9.56982 74.2707 7.97782C71.2322 4.70332 63.5212 4.6598 59.3382 4.4798Z"
    fill="#545257"
  />
  <path
    d="M70.7887 30.6003C72.4942 25.3763 76.3542 15.1008 73.7827 10.0193C72.8417 8.16031 71.0352 7.13131 69.0982 6.55581C62.5472 4.60981 52.8637 5.8513 46.3992 7.7128C46.6222 16.3423 47.9712 26.0493 51.1352 34.1273C51.6972 35.9843 52.3662 37.8003 53.3032 39.5048C54.3622 41.4323 56.0757 43.2573 58.2562 43.8568C60.0517 44.3508 61.8687 43.9403 63.4602 43.0348C67.9327 40.4903 69.5117 35.2223 70.7887 30.6003Z"
    fill="#E9E6DF"
  />
  <path
    d="M70.7888 30.6002L70.4078 30.8412C66.7118 33.2257 64.8163 42.6032 59.6848 41.6572C55.5288 40.8912 54.4583 36.0757 51.1353 34.1272C51.6973 35.9842 52.3663 37.8002 53.3033 39.5047C54.3623 41.4322 56.0758 43.2572 58.2563 43.8567C60.0518 44.3507 61.8688 43.9402 63.4603 43.0347C67.9328 40.4902 69.5118 35.2222 70.7888 30.6002Z"
    fill="#EDE5DF"
  />
  <path
    d="M14.6247 4.54082C12.2597 4.38832 9.80464 4.42933 7.44464 4.61333C4.74464 4.82383 2.37464 5.39784 0.569645 7.50634C-1.38036 12.8688 2.16966 28.0308 3.80466 33.8318C5.17466 38.6843 6.78466 42.6703 11.3647 45.2533C12.9297 45.2393 14.7747 44.9323 16.0822 44.0203C22.3847 39.6223 24.7937 25.1848 25.8427 18.2183C26.2342 15.6183 27.3217 9.68883 25.4662 7.56933C23.3327 5.13233 17.6712 4.90032 14.6247 4.54082Z"
    fill="#737071"
  />
  <path
    d="M16.0886 6.0529C11.0346 5.2584 5.77955 6.13091 0.924545 7.49391C0.944545 8.27141 0.969562 9.0484 1.00456 9.8249C1.42956 19.7364 2.77958 36.8354 10.2746 43.7219C11.5746 44.0169 12.9446 44.1724 14.2246 43.6894C16.9336 42.6689 18.7006 39.4629 19.8281 36.9489C22.3931 31.2284 26.8976 14.2354 24.7206 8.54442C22.5846 6.28142 18.9981 6.3794 16.0886 6.0529Z"
    fill="#EDE9E2"
  />
</svg>
