<svg
  width="461"
  height="100"
  viewBox="0 0 461 100"
  fill="none"
  xmlns="http://www.w3.org/2000/svg"
>
  <path
    d="M6.71746 48.9156C4.81046 38.2326 -0.437543 28.1621 0.245757 17.0676C0.470257 13.4221 1.42395 9.66211 4.32395 7.20861C7.66795 4.37961 11.8455 4.4241 15.9525 4.7961C19.049 5.2336 22.4795 6.3456 25.569 6.3146C32.2665 6.2461 41.4 1.9996 46.3945 8.5826C49.5755 12.7751 49.0945 19.2516 48.3215 24.1836C46.9345 33.0311 42.731 41.1231 41.4075 49.9481C40.9545 52.9661 41.329 56.2041 41.5215 59.2351C42.0875 68.1491 42.661 76.6481 39.717 85.2651C38.759 88.0681 37.5145 90.9536 35.051 92.7611C33.913 93.5961 32.732 93.9531 31.372 94.2556C29.6695 93.1816 29.17 91.6631 28.7235 89.7326C26.4895 80.0691 28.2575 70.7461 24.6105 60.5661C21.8745 67.8281 21.3495 75.4406 20.9915 83.1226C20.8585 85.9826 20.9595 89.2521 20.2775 92.0216C19.9935 93.1751 19.555 93.4546 18.7035 94.2121C17.5025 94.5791 16.535 94.6081 15.4195 93.9961C11.824 92.0246 9.84596 87.3111 8.86796 83.5331C7.08546 76.6461 6.13895 68.9901 7.19795 61.9101C7.26245 57.5206 7.17046 53.2921 6.71746 48.9156Z"
    fill="#E3DDC7"
  />
  <path
    d="M6.71746 48.9156C4.81046 38.2326 -0.437543 28.1621 0.245757 17.0676C0.470257 13.4221 1.42395 9.66211 4.32395 7.20861C7.66795 4.37961 11.8455 4.4241 15.9525 4.7961C17.7155 6.6001 21.653 7.26362 24.1 7.29662C30.0375 7.37662 39.9015 3.66812 44.6445 8.36062C45.58 9.28562 46.176 10.2696 46.692 11.4686C48.8305 18.5516 47.252 25.7936 45.412 32.7671C42.6825 33.1816 40.768 35.9766 38.544 37.4711C35.5465 39.4851 31.5125 40.8921 27.9425 41.3936C17.956 42.7981 11.027 38.2266 3.41395 32.4836C4.54795 37.1911 8.18596 44.3646 6.71746 48.9156Z"
    fill="#FEFEFE"
  />
  <path
    d="M6.54028 63.6164C6.54028 46.8723 3.68481 41.8723 0 21.1995C0.226879 16.3443 0.254082 11.64 3.18481 8.37231C6.56425 4.6045 11.7226 4.36023 15.8732 4.85568C17.6548 7.25834 21.7119 7.32836 24.1848 7.37231C30.1852 7.47886 40.8916 3.12259 45.6848 9.37231C46.6302 10.6043 46.4169 12.1456 46.9384 13.7425C42.8985 12.9021 39.8556 13.6359 35.9947 15.2002C32.3307 13.6153 28.6072 11.7367 24.8245 10.7438C22.3784 13.4908 20.4077 16.4794 18.3921 19.7698C15.9565 16.225 13.2673 11.5696 9.34216 11.2339C6.61709 11.0009 4.56557 13.0972 2.39936 14.9611C0.0439599 24.0124 3.26461 32.9156 5.18475 41.8723C6.33077 48.142 8.02435 57.5551 6.54028 63.6164Z"
    fill="#C1BCB7"
  />
  <path
    d="M15.9523 4.79614C19.0488 5.23364 22.4793 6.34564 25.5688 6.31464C32.2663 6.24614 41.3998 1.99964 46.3943 8.58264C49.5753 12.7751 49.0943 19.2517 48.3213 24.1837C46.9343 33.0312 42.7308 41.1232 41.4073 49.9482C40.9543 52.9662 41.3288 56.2041 41.5213 59.2351C42.0873 68.1491 42.6608 76.6481 39.7168 85.2651C38.7588 88.0681 37.5143 90.9536 35.0508 92.7611C33.9128 93.5961 32.7318 93.9531 31.3718 94.2556C29.6693 93.1816 29.1698 91.6631 28.7233 89.7326C26.4893 80.0691 28.2573 70.7462 24.6103 60.5662C21.8743 67.8282 21.3493 75.4406 20.9913 83.1227C20.8583 85.9827 20.9593 89.2521 20.2773 92.0216C19.9933 93.1751 19.5548 93.4547 18.7033 94.2122C17.5023 94.5792 16.5348 94.6082 15.4193 93.9962C11.8238 92.0247 9.84579 87.3111 8.86779 83.5331C7.08529 76.6461 6.13879 68.9902 7.19779 61.9102C9.84029 71.5812 6.56429 82.9177 13.8823 91.4947C15.0888 92.9092 15.9838 93.5451 17.8253 93.6881C21.6328 90.4881 20.1863 76.2712 20.8388 71.1572C21.3963 66.7912 22.4348 62.9772 24.5438 59.1067C31.0328 71.9642 26.6303 83.1722 30.4383 92.7707C31.3448 93.4387 31.3838 93.4212 32.5118 93.3372C45.4358 86.2837 39.4843 62.2382 40.4243 50.7067C40.9298 44.5052 43.3708 38.5887 45.4118 32.7672C47.2518 25.7937 48.8303 18.5517 46.6918 11.4687C46.1758 10.2697 45.5798 9.28566 44.6443 8.36066C39.9013 3.66816 30.0373 7.37666 24.0998 7.29666C21.6528 7.26366 17.7153 6.60014 15.9523 4.79614Z"
    fill="#818081"
  />
  <path
    d="M78.981 3.32148C84.7615 2.64448 89.6745 5.29198 95.274 5.30198C100.256 5.31098 104.961 2.81597 109.896 3.12897C112.038 3.26447 114.193 3.85697 115.907 5.19547C118.63 7.32197 119.459 10.723 119.805 13.9985C120.644 21.9415 118.659 29.1525 116.254 36.6415C115.372 39.387 114.276 42.2115 113.923 45.0795C111.986 60.8265 117.51 70.924 111.161 87.949C110.439 89.8825 109.658 92.6875 108.422 94.2705C107.758 95.12 106.859 95.6405 105.852 95.989C105.174 95.844 104.773 95.898 104.35 95.302C102.31 92.423 102.176 78.236 101.524 74.1245C100.334 66.619 98.469 59.0755 94.4575 52.5445C92.2495 56.0365 90.963 59.2805 89.8975 63.2675C88.447 68.6935 85.7195 91.707 83.373 94.0215C83.29 94.0155 83.206 94.0195 83.1245 94.0035C81.9035 93.7665 80.944 92.6925 80.2325 91.745C78.161 88.9855 77.29 85.55 76.5855 82.231C74.8715 74.1585 74.9235 66.687 75.32 58.518C75.5045 54.717 75.912 50.561 75.4675 46.7905C74.0045 34.376 68.466 26.6885 70.24 13.408C70.9645 11.424 71.7435 9.33148 72.7845 7.48548C74.2465 4.89248 76.2225 4.05598 78.981 3.32148Z"
    fill="#E3DDC7"
  />
  <path
    d="M70.24 13.408C70.9645 11.424 71.7435 9.33153 72.7845 7.48553C74.2465 4.89253 76.2225 4.05603 78.981 3.32153C81.4765 4.12753 84.0665 4.46202 86.65 4.86502C88.908 5.55702 91.273 6.38101 93.656 6.36951C97.7355 6.35051 111.275 2.54951 113.975 5.20151L109.356 6.04651L109.02 6.53754C111.936 6.80604 114.361 7.22002 116.339 9.56302C119.161 12.906 119.157 17.7015 118.751 21.8365C118.458 24.816 117.83 27.8185 117.169 30.737C113.568 31.657 110.013 37.1435 105.53 38.8065C95.056 42.692 87.48 40.523 78.32 34.6575C76.5075 33.497 74.9935 31.7995 73.0225 30.939C72.9285 30.8975 72.8335 30.859 72.739 30.819C71.3695 25.617 70.752 21.2175 71.1885 15.8235L70.24 13.408Z"
    fill="#FEFEFE"
  />
  <path
    d="M86.6499 4.86504C88.9079 5.55704 91.2729 6.38103 93.6559 6.36953C97.7354 6.35053 111.275 2.54953 113.975 5.20153L109.356 6.04653L109.02 6.53756C104.575 8.01156 100.491 10.79 96.3234 12.9285C91.1714 10.8105 87.1369 7.59954 81.4834 6.59804C83.4124 6.49804 84.9449 5.68804 86.6499 4.86504Z"
    fill="#B7B2AB"
  />
  <path
    d="M70.24 13.408C70.9645 11.424 71.7435 9.33153 72.7845 7.48553C74.2465 4.89253 76.2225 4.05603 78.981 3.32153C81.4765 4.12753 84.0665 4.46202 86.65 4.86502C84.945 5.68802 83.4125 6.49802 81.4835 6.59802C78.67 6.68002 76.3255 7.35102 74.3555 9.46902C72.784 11.1585 71.6195 13.5575 71.1885 15.8235L70.24 13.408Z"
    fill="#B7B2AB"
  />
  <path
    d="M78.981 3.32148C84.7615 2.64448 89.6745 5.29198 95.274 5.30198C100.256 5.31098 104.961 2.81597 109.896 3.12897C112.038 3.26447 114.193 3.85697 115.907 5.19547C118.63 7.32197 119.459 10.723 119.805 13.9985C120.644 21.9415 118.659 29.1525 116.254 36.6415C115.372 39.387 114.276 42.2115 113.923 45.0795C111.986 60.8265 117.51 70.924 111.161 87.949C110.439 89.8825 109.658 92.6875 108.422 94.2705C107.758 95.12 106.859 95.6405 105.852 95.989C105.174 95.844 104.773 95.898 104.35 95.302C102.31 92.423 102.176 78.236 101.524 74.1245C100.334 66.619 98.469 59.0755 94.4575 52.5445C92.2495 56.0365 90.963 59.2805 89.8975 63.2675C88.447 68.6935 85.7195 91.707 83.373 94.0215C86.2325 82.5665 85.493 66.32 91.535 56.12C92.4845 54.5165 93.3325 53.785 95.118 53.34C103.529 56.0315 102.663 90.5565 105.347 94.8385L106.358 94.7735C116.846 85.8425 111.873 57.153 113.119 44.499C113.578 39.8435 115.738 35.187 117.169 30.737C117.83 27.8185 118.458 24.816 118.751 21.8365C119.157 17.7015 119.161 12.906 116.339 9.56296C114.361 7.21996 111.936 6.80598 109.02 6.53748L109.356 6.04646L113.975 5.20145C111.275 2.54945 97.7355 6.35045 93.656 6.36945C91.273 6.38095 88.908 5.55697 86.65 4.86497C84.0665 4.46197 81.4765 4.12748 78.981 3.32148Z"
    fill="#818081"
  />
  <path
    d="M70.24 13.408L71.1885 15.8235C70.752 21.2175 71.3695 25.617 72.739 30.819C74.124 35.8425 76.039 41.0405 76.435 46.252C77.403 59.001 72.7025 84.7355 83.373 94.0215C83.29 94.0155 83.206 94.0194 83.1245 94.0034C81.9035 93.7664 80.944 92.6925 80.2325 91.745C78.161 88.9855 77.29 85.55 76.5855 82.231C74.8715 74.1585 74.9235 66.687 75.32 58.518C75.5045 54.717 75.912 50.561 75.4675 46.7905C74.0045 34.376 68.466 26.6885 70.24 13.408Z"
    fill="#818081"
  />
  <path
    d="M143.297 8.63634C144.394 6.87834 146.041 5.26934 148.088 4.73134C153.69 3.25884 159.626 6.28686 165.279 6.43886C170.247 6.57286 174.974 4.08985 180.033 4.33885C182.438 4.45735 184.187 4.98484 186.25 6.21834C186.839 6.69284 187.558 7.16036 187.916 7.83586C191.266 12.6879 191.024 19.6358 190.021 25.2028C188.685 32.6173 184.474 39.3028 183.381 46.6983C181.716 57.9653 188.589 84.6218 176.871 92.9068C175.895 93.5963 174.748 93.9604 173.613 94.2984C172.395 93.8319 172.044 93.3138 171.534 92.0973C169.031 86.1333 170.802 64.6714 166.579 61.6119C160.014 68.3109 164.899 94.9418 157.433 94.7688C155.692 94.7288 153.535 92.9048 152.433 91.6958C142.054 80.3068 148.765 60.7774 146.845 47.1954C145.402 36.9899 140.395 27.6769 141.061 17.1444C141.219 14.6434 141.805 12.2318 142.582 9.85484L143.297 8.63634Z"
    fill="#E3DDC7"
  />
  <path
    d="M143.297 8.63634C144.394 6.87834 146.041 5.26934 148.088 4.73134C153.69 3.25884 159.626 6.28686 165.279 6.43886C170.247 6.57286 174.974 4.08985 180.033 4.33885C182.438 4.45735 184.187 4.98484 186.25 6.21834C186.839 6.69284 187.558 7.16036 187.916 7.83586L187.763 10.2034C190.786 15.4924 189.713 23.1994 188.201 28.8194C187.809 30.2209 187.359 31.6053 186.851 32.9693C186.759 33.0038 186.667 33.0393 186.574 33.0723C183.678 34.1053 181.696 36.5793 179.182 38.2548C176.828 39.8233 173.321 40.9454 170.566 41.5809C157.937 44.4949 154.115 38.8554 144.792 33.1289L144.457 32.9253C142.474 26.7568 140.861 19.5273 143.079 13.2053L142.582 9.85484L143.297 8.63634Z"
    fill="#FEFEFE"
  />
  <path
    d="M143.297 8.63634C144.394 6.87834 146.041 5.26934 148.088 4.73134C153.69 3.25884 159.626 6.28686 165.279 6.43886C170.247 6.57286 174.974 4.08985 180.033 4.33885C182.438 4.45735 184.187 4.98484 186.25 6.21834C186.839 6.69284 187.558 7.16036 187.916 7.83586L187.763 10.2034C186.096 8.80136 184.525 7.88384 182.268 8.06734C179.223 8.31484 176.317 10.4843 173.813 12.1178C170.972 11.2623 168.11 10.2749 165.229 9.57585C162.98 11.4819 161.009 13.5653 159.016 15.7338C156.661 13.0263 153.647 8.76884 149.694 8.55434C147.916 8.45834 146.384 9.39384 145.116 10.5543C144.294 11.3063 143.675 12.2708 143.079 13.2053L142.582 9.85484L143.297 8.63634Z"
    fill="#C1BCB7"
  />
  <path
    d="M143.297 8.63634C144.394 6.87834 146.041 5.26934 148.088 4.73134C153.69 3.25884 159.626 6.28686 165.279 6.43886C170.247 6.57286 174.974 4.08985 180.033 4.33885C182.438 4.45735 184.187 4.98484 186.25 6.21834C177.552 4.75784 172.782 7.46586 164.842 7.41786C159.101 7.38286 153.642 5.54335 147.78 5.61235L147.584 5.61635C146.172 6.61985 144.771 7.73184 143.297 8.63634Z"
    fill="#737071"
  />
  <path
    d="M187.763 10.2034L187.916 7.83594C191.266 12.6879 191.024 19.6359 190.021 25.2029C188.685 32.6174 184.474 39.3029 183.381 46.6984C181.716 57.9654 188.589 84.6219 176.871 92.9069C175.895 93.5964 174.748 93.9604 173.613 94.2984C172.395 93.8319 172.044 93.3139 171.534 92.0974C169.031 86.1334 170.802 64.6714 166.579 61.6119C160.014 68.3109 164.899 94.9419 157.433 94.7689C155.692 94.7289 153.535 92.9049 152.433 91.6959C142.054 80.3069 148.765 60.7774 146.845 47.1954C145.402 36.9899 140.395 27.6769 141.061 17.1444C141.219 14.6434 141.805 12.2319 142.582 9.85492L143.079 13.2054C140.861 19.5274 142.474 26.7569 144.457 32.9254C145.971 38.5764 147.779 44.2559 148.173 50.1219C148.843 60.0984 144.478 86.8039 154.858 93.0779C156.19 93.8824 157.41 93.9589 158.906 93.6789C162.826 88.8789 159.802 65.8829 165.785 60.4259C166.797 60.3769 167 60.2959 167.801 61.0124C173.083 65.7379 168.777 90.5844 173.894 93.1524C175.623 92.9404 176.747 91.6794 177.774 90.3734C187.437 78.0899 180.918 61.7684 182.327 47.8299C182.855 42.6024 185.062 37.8429 186.851 32.9694C187.359 31.6054 187.809 30.2209 188.201 28.8194C189.713 23.1994 190.786 15.4924 187.763 10.2034Z"
    fill="#737071"
  />
  <path
    d="M217.807 4.94998C226.915 2.12848 238.921 0.817001 247.73 5.4375C249.244 6.2315 250.896 7.48449 251.416 9.18949C252.665 13.284 251.09 20.1215 249.934 24.1575C247.851 31.0545 245.933 38.2415 244.913 45.3815C243.067 58.303 242.654 71.612 239.2 84.257C238.29 87.5875 236.411 94.636 233.101 96.2925C232.141 96.773 231.218 96.8155 230.205 96.469C228.461 95.873 227.16 93.583 226.412 92.037C220.184 79.1705 219.694 51.907 216.889 36.7465C215.669 30.1545 212.873 23.8065 211.989 17.17C211.652 14.638 211.399 11.479 212.301 9.05451C213.152 6.76601 215.755 5.84798 217.807 4.94998Z"
    fill="#E3DDC7"
  />
  <path
    d="M217.807 4.94998C226.915 2.12848 238.92 0.817001 247.729 5.4375C249.243 6.2315 250.895 7.48449 251.415 9.18949C252.664 13.284 251.089 20.1215 249.934 24.1575L249.261 23.295C248.599 25.514 247.446 28.2525 247.197 30.5245C243.496 31.61 239.469 37.5385 235.487 39.926C230.142 40.2225 226.948 39.9425 222.796 36.2455C220.919 34.5735 219.036 31.977 216.795 30.868C215.298 24.7905 210.595 15.201 213.556 9.11899C214.605 6.96549 216.375 6.43598 218.515 5.65698L217.807 4.94998Z"
    fill="#FEFEFE"
  />
  <path
    d="M217.807 4.94998C226.916 2.12848 238.921 0.817001 247.73 5.4375C249.244 6.2315 250.896 7.48449 251.416 9.18949C252.665 13.284 251.09 20.1215 249.934 24.1575L249.261 23.295C250.425 19.45 251.736 13.1855 250.427 9.32651C249.931 7.86301 248.881 7.01749 247.537 6.33899C239.583 2.32449 226.805 3.05148 218.516 5.65698L217.807 4.94998Z"
    fill="#2B262E"
  />
  <path
    d="M217.807 4.9502L218.516 5.6572C216.375 6.4362 214.605 6.9657 213.557 9.1192C210.595 15.2012 215.299 24.7907 216.796 30.8682C220.049 48.3757 220.773 66.3617 224.785 83.7262C225.674 87.5747 226.795 93.1507 230.357 95.3822C231.465 95.4797 231.891 95.6127 232.885 95.0407C240.357 90.7412 242.795 54.0407 244.169 44.5252C244.855 39.7697 245.891 35.1467 247.198 30.5247C247.446 28.2527 248.6 25.5142 249.261 23.2952L249.934 24.1577C247.851 31.0547 245.933 38.2417 244.913 45.3817C243.067 58.3032 242.654 71.6122 239.2 84.2572C238.29 87.5877 236.411 94.6362 233.101 96.2927C232.141 96.7732 231.218 96.8157 230.205 96.4692C228.461 95.8732 227.16 93.5832 226.412 92.0372C220.184 79.1707 219.694 51.9072 216.889 36.7467C215.669 30.1547 212.873 23.8067 211.989 17.1702C211.652 14.6382 211.399 11.4792 212.301 9.05472C213.152 6.76622 215.755 5.8482 217.807 4.9502Z"
    fill="#737071"
  />
  <path
    d="M273.402 6.80163C273.978 6.17613 274.595 5.50664 275.312 5.04114C278.703 2.83764 291.132 1.36912 295.2 2.23712C299.018 3.30012 308.876 2.97264 310.788 6.52014C310.947 6.81464 311.086 7.08762 311.179 7.40762C312.047 10.0206 311.676 13.2816 311.287 15.9711C310.187 23.5641 307.048 30.8181 305.788 38.4001C303.771 50.5451 303.449 62.9996 301.487 75.1841C300.651 80.3771 298.86 93.4081 294.146 96.5266C293.435 96.9966 292.472 97.2281 291.648 97.0436C289.947 96.6631 289.105 95.2686 288.243 93.8816C282.071 83.9441 280.542 51.5631 278.543 38.7566C276.972 28.6921 271.101 16.9106 273.402 6.80163Z"
    fill="#E3DDC7"
  />
  <path
    d="M273.402 6.80163C273.978 6.17613 274.595 5.50664 275.312 5.04114C278.703 2.83764 291.132 1.36912 295.2 2.23712C299.018 3.30012 308.876 2.97264 310.788 6.52014C310.947 6.81464 311.086 7.08762 311.179 7.40762L310.667 10.0196C310.544 17.7416 307.482 23.9411 306.332 31.3016C303.239 32.3086 300.113 36.9986 297.746 39.3306C296.416 40.6411 295.106 41.6091 293.157 41.5366C287.056 41.3096 282.219 35.1061 278.452 31.0036C276.382 25.1616 274.805 19.5516 274.022 13.3901C273.747 11.2006 273.583 9.00013 273.402 6.80163Z"
    fill="#FEFEFE"
  />
  <path
    d="M273.402 6.80163C273.978 6.17613 274.595 5.50664 275.312 5.04114C278.703 2.83764 291.132 1.36912 295.2 2.23712L293.743 3.28415C288.127 2.55615 279.869 7.09763 274.932 9.70413C274.015 10.7456 274.111 12.0656 274.022 13.3901C273.747 11.2006 273.583 9.00013 273.402 6.80163Z"
    fill="#B7B2AB"
  />
  <path
    d="M295.2 2.23706C299.018 3.30006 308.876 2.97258 310.788 6.52008C310.947 6.81458 311.086 7.08756 311.179 7.40756L310.667 10.0196C305.314 9.42856 298.72 5.48209 293.743 3.28409L295.2 2.23706Z"
    fill="#CCC4BF"
  />
  <path
    d="M273.402 6.80151C273.583 9.00001 273.747 11.2005 274.022 13.39C274.805 19.5515 276.382 25.1615 278.452 31.0035C280.651 43.7645 282.886 88.6535 291.498 96.0785C292.445 96.2205 292.678 96.379 293.498 95.793C298.189 92.4385 300.041 78.0085 300.863 72.3645C302.853 58.696 303.218 44.7835 306.332 31.3015C307.482 23.941 310.544 17.7415 310.667 10.0195L311.179 7.4075C312.047 10.0205 311.676 13.2815 311.287 15.971C310.187 23.564 307.048 30.818 305.788 38.4C303.771 50.545 303.449 62.9995 301.487 75.184C300.651 80.377 298.86 93.408 294.146 96.5265C293.435 96.9965 292.472 97.228 291.648 97.0435C289.947 96.663 289.105 95.2685 288.243 93.8815C282.071 83.944 280.542 51.563 278.543 38.7565C276.972 28.692 271.101 16.9105 273.402 6.80151Z"
    fill="#737071"
  />
  <path
    d="M348.016 0C352.359 0.0635 356.941 3.57049 359.94 6.54449C362.951 9.53149 364.555 12.5235 364.567 16.827C364.587 23.8975 362.29 30.7535 361.491 37.739C359.791 52.598 360.053 88.764 349.755 99.091C349.325 99.0345 348.893 98.9505 348.499 98.7585C346.438 97.7555 345.122 94.929 344.336 92.9105C338.144 76.993 338.322 54.636 336.054 37.6455C335.206 31.2945 333.085 25.046 332.756 18.634C332.625 16.0835 332.713 13.1865 333.807 10.8425C335.927 6.301 343.448 1.6165 348.016 0Z"
    fill="#818081"
  />
  <path
    d="M336.618 33.9767C336.017 31.2852 335.441 28.5882 334.89 25.8862C333.797 20.4097 332.762 14.2397 336.145 9.33124C339.215 4.87674 345.111 1.90721 350.35 0.970215C354.214 3.46771 359 6.05073 361.631 9.94373C365.759 16.0532 362.52 26.5962 361.164 33.2177C359.057 48.5842 359.445 87.6037 348.928 98.5512C338.831 85.3912 339.191 50.8207 336.618 33.9767Z"
    fill="#FEFEFE"
  />
  <path
    d="M336.618 33.9767C340.589 36.8292 342.064 41.9228 347.563 42.8873C354.184 44.0493 356.535 36.2498 360.896 33.3873C360.984 33.3293 361.074 33.2743 361.164 33.2178C359.057 48.5843 359.445 87.6038 348.928 98.5513C338.831 85.3913 339.191 50.8207 336.618 33.9767Z"
    fill="#E3DDC7"
  />
  <path
    d="M388.256 4.76387C393.96 3.48587 405.079 1.33088 410.375 4.67638C411.856 5.61188 413.052 7.22537 413.365 8.96337C413.738 11.0339 413.351 13.5319 413.209 15.6329C412.451 24.7469 411.113 33.8069 410.265 42.9134C408.798 58.6689 408.731 75.4864 403.344 90.5424C402.635 92.5229 401.488 95.2439 399.479 96.1974L398.216 95.7224C390.746 87.8354 389.387 46.8874 388.126 35.0859C387.308 27.4264 385.371 19.5224 385.583 11.8124C385.664 8.87486 386.096 6.82537 388.256 4.76387Z"
    fill="#E3DDC7"
  />
  <path
    d="M388.256 4.76387C393.959 3.48587 405.079 1.33088 410.375 4.67638C411.856 5.61188 413.052 7.22537 413.365 8.96337C413.738 11.0339 413.351 13.5319 413.209 15.6329L412.487 15.3269L410.531 31.0369C410.437 31.0904 410.342 31.1419 410.25 31.1969C406.895 33.1959 403.466 42.3989 399.003 41.3214C394.513 40.2374 391.778 34.7774 388.998 31.6109C387.647 24.8424 385.49 15.8114 386.91 9.01988C387.304 7.13538 387.978 6.42888 389.527 5.41438L388.256 4.76387Z"
    fill="#FEFEFE"
  />
  <path
    d="M388.256 4.76387C393.96 3.48587 405.079 1.33088 410.376 4.67638C411.857 5.61188 413.052 7.22537 413.366 8.96337C413.739 11.0339 413.351 13.5319 413.21 15.6329L412.487 15.3269C412.539 13.2044 412.763 10.8394 412.46 8.74239C412.318 7.75989 412.048 6.81037 411.209 6.21337C406.449 2.82487 394.921 4.50288 389.527 5.41438L388.256 4.76387Z"
    fill="#2B262E"
  />
  <path
    d="M388.256 4.76392L389.527 5.41443C387.978 6.42893 387.304 7.13543 386.91 9.01993C385.49 15.8114 387.647 24.8424 388.998 31.6109C389.164 43.9289 392.613 84.8989 398.064 94.3224C398.523 95.1154 398.594 95.2919 399.518 95.5329C399.721 95.4014 399.819 95.3449 400.017 95.1759C406.971 89.2289 409.284 41.1549 410.531 31.0369L412.487 15.3269L413.209 15.6329C412.451 24.7469 411.113 33.8069 410.265 42.9134C408.798 58.6689 408.731 75.4864 403.344 90.5424C402.635 92.5229 401.488 95.2439 399.479 96.1974L398.216 95.7224C390.746 87.8354 389.387 46.8874 388.126 35.0859C387.308 27.4264 385.371 19.5224 385.583 11.8124C385.664 8.87491 386.096 6.82542 388.256 4.76392Z"
    fill="#818081"
  />
  <path
    d="M447.197 3.70288C451.477 3.80588 455.477 3.92239 459.522 5.46039C459.682 5.90139 459.827 6.3419 459.952 6.7934C462.592 16.3439 456.532 67.8149 453.852 79.8609C452.677 85.1374 451.217 89.8929 448.577 94.6164C447.242 95.2804 446.902 95.5309 445.372 95.3089C444.982 95.0124 444.632 94.6754 444.367 94.2589C440.71 88.4699 437.931 63.4674 437.338 55.6714C436.875 49.5819 436.904 43.4594 436.466 37.3694C435.724 27.0629 433.097 15.8879 435.544 5.69489C439.421 3.98339 443.032 3.87988 447.197 3.70288Z"
    fill="#818081"
  />
  <path
    d="M436.423 6.00302C443.727 4.53102 451.242 4.49352 458.562 5.89202C460.952 12.2045 459.632 19.261 459.072 25.8105C458.047 37.8845 455.247 87.478 447.452 94.068C447.092 94.3725 446.597 94.401 446.142 94.506C442.617 91.788 440.013 69.776 439.335 64.5435C437.873 53.266 437.35 41.6125 437.069 30.2455C435.328 22.732 434.836 13.5775 436.423 6.00302Z"
    fill="#E3DDC7"
  />
  <path
    d="M436.423 6.00302C443.727 4.53102 451.242 4.49352 458.562 5.89202C460.952 12.2045 459.632 19.261 459.072 25.8105C456.987 30.5685 454.317 38.3735 449.102 40.307C447.742 40.812 446.332 40.7245 445.032 40.081C440.788 37.9775 440.281 32.9995 437.069 30.2455C435.328 22.732 434.836 13.5775 436.423 6.00302Z"
    fill="#FEFEFE"
  />
</svg>
