<svg
  width="461"
  height="100"
  viewBox="0 0 461 100"
  fill="none"
  xmlns="http://www.w3.org/2000/svg"
>
  <path
    d="M453.886 48.9156C455.793 38.2326 461.041 28.1621 460.358 17.0676C460.133 13.4221 459.179 9.66211 456.279 7.20861C452.935 4.37961 448.758 4.4241 444.651 4.7961C441.554 5.2336 438.124 6.3456 435.034 6.3146C428.337 6.2461 419.203 1.9996 414.209 8.5826C411.028 12.7751 411.509 19.2516 412.282 24.1836C413.669 33.0311 417.872 41.1231 419.196 49.9481C419.649 52.9661 419.274 56.2041 419.082 59.2351C418.516 68.1491 417.942 76.6481 420.886 85.2651C421.844 88.0681 423.089 90.9536 425.552 92.7611C426.69 93.5961 427.871 93.9531 429.231 94.2556C430.934 93.1816 431.433 91.6631 431.88 89.7326C434.114 80.0691 432.346 70.7461 435.993 60.5661C438.729 67.8281 439.254 75.4406 439.612 83.1226C439.745 85.9826 439.644 89.2521 440.326 92.0216C440.61 93.1751 441.048 93.4546 441.9 94.2121C443.101 94.5791 444.068 94.6081 445.184 93.9961C448.779 92.0246 450.757 87.3111 451.735 83.5331C453.518 76.6461 454.464 68.9901 453.405 61.9101C453.341 57.5206 453.433 53.2921 453.886 48.9156Z"
    fill="#E3DDC7"
  />
  <path
    d="M453.886 48.9156C455.793 38.2326 461.041 28.1621 460.358 17.0676C460.133 13.4221 459.179 9.66211 456.279 7.20861C452.935 4.37961 448.758 4.4241 444.651 4.7961C442.888 6.6001 438.95 7.26362 436.503 7.29662C430.566 7.37662 420.702 3.66812 415.959 8.36062C415.023 9.28562 414.427 10.2696 413.911 11.4686C411.773 18.5516 413.351 25.7936 415.191 32.7671C417.921 33.1816 419.835 35.9766 422.059 37.4711C425.057 39.4851 429.091 40.8921 432.661 41.3936C442.647 42.7981 449.576 38.2266 457.189 32.4836C456.055 37.1911 452.417 44.3646 453.886 48.9156Z"
    fill="#FEFEFE"
  />
  <path
    d="M454.063 63.6164C454.063 46.8723 456.918 41.8723 460.603 21.1995C460.376 16.3443 460.349 11.64 457.418 8.37231C454.039 4.6045 448.881 4.36023 444.73 4.85568C442.948 7.25834 438.891 7.32836 436.418 7.37231C430.418 7.47886 419.712 3.12259 414.918 9.37231C413.973 10.6043 414.186 12.1456 413.665 13.7425C417.705 12.9021 420.748 13.6359 424.609 15.2002C428.273 13.6153 431.996 11.7367 435.779 10.7438C438.225 13.4908 440.196 16.4794 442.211 19.7698C444.647 16.225 447.336 11.5696 451.261 11.2339C453.986 11.0009 456.038 13.0972 458.204 14.9611C460.559 24.0124 457.339 32.9156 455.419 41.8723C454.273 48.142 452.579 57.5551 454.063 63.6164Z"
    fill="#C1BCB7"
  />
  <path
    d="M444.651 4.79614C441.554 5.23364 438.124 6.34564 435.034 6.31464C428.337 6.24614 419.203 1.99964 414.209 8.58264C411.028 12.7751 411.509 19.2517 412.282 24.1837C413.669 33.0312 417.872 41.1232 419.196 49.9482C419.649 52.9662 419.274 56.2041 419.082 59.2351C418.516 68.1491 417.942 76.6481 420.886 85.2651C421.844 88.0681 423.089 90.9536 425.552 92.7611C426.69 93.5961 427.871 93.9531 429.231 94.2556C430.934 93.1816 431.433 91.6631 431.88 89.7326C434.114 80.0691 432.346 70.7462 435.993 60.5662C438.729 67.8282 439.254 75.4406 439.612 83.1227C439.745 85.9827 439.644 89.2521 440.326 92.0216C440.61 93.1751 441.048 93.4547 441.9 94.2122C443.101 94.5792 444.068 94.6082 445.184 93.9962C448.779 92.0247 450.757 87.3111 451.735 83.5331C453.518 76.6461 454.464 68.9902 453.405 61.9102C450.763 71.5812 454.039 82.9177 446.721 91.4947C445.514 92.9092 444.619 93.5451 442.778 93.6881C438.97 90.4881 440.417 76.2712 439.764 71.1572C439.207 66.7912 438.168 62.9772 436.059 59.1067C429.57 71.9642 433.973 83.1722 430.165 92.7707C429.258 93.4387 429.219 93.4212 428.091 93.3372C415.167 86.2837 421.119 62.2382 420.179 50.7067C419.673 44.5052 417.232 38.5887 415.191 32.7672C413.351 25.7937 411.773 18.5517 413.911 11.4687C414.427 10.2697 415.023 9.28566 415.959 8.36066C420.702 3.66816 430.566 7.37666 436.503 7.29666C438.95 7.26366 442.888 6.60014 444.651 4.79614Z"
    fill="#818081"
  />
  <path
    d="M381.622 3.32148C375.842 2.64448 370.929 5.29198 365.329 5.30198C360.347 5.31098 355.642 2.81597 350.707 3.12897C348.565 3.26447 346.41 3.85697 344.696 5.19547C341.973 7.32197 341.144 10.723 340.798 13.9985C339.959 21.9415 341.944 29.1525 344.349 36.6415C345.231 39.387 346.327 42.2115 346.68 45.0795C348.617 60.8265 343.093 70.924 349.442 87.949C350.164 89.8825 350.945 92.6875 352.181 94.2705C352.845 95.12 353.744 95.6405 354.751 95.989C355.429 95.844 355.83 95.898 356.253 95.302C358.293 92.423 358.427 78.236 359.079 74.1245C360.269 66.619 362.134 59.0755 366.146 52.5445C368.354 56.0365 369.64 59.2805 370.706 63.2675C372.156 68.6935 374.884 91.707 377.23 94.0215C377.313 94.0155 377.397 94.0195 377.479 94.0035C378.7 93.7665 379.659 92.6925 380.371 91.745C382.442 88.9855 383.313 85.55 384.018 82.231C385.732 74.1585 385.68 66.687 385.283 58.518C385.099 54.717 384.691 50.561 385.136 46.7905C386.599 34.376 392.137 26.6885 390.363 13.408C389.639 11.424 388.86 9.33148 387.819 7.48548C386.357 4.89248 384.381 4.05598 381.622 3.32148Z"
    fill="#E3DDC7"
  />
  <path
    d="M390.363 13.408C389.639 11.424 388.86 9.33153 387.819 7.48553C386.357 4.89253 384.381 4.05603 381.622 3.32153C379.127 4.12753 376.537 4.46202 373.953 4.86502C371.695 5.55702 369.33 6.38101 366.947 6.36951C362.868 6.35051 349.328 2.54951 346.628 5.20151L351.247 6.04651L351.583 6.53754C348.667 6.80604 346.242 7.22002 344.264 9.56302C341.442 12.906 341.446 17.7015 341.852 21.8365C342.145 24.816 342.773 27.8185 343.434 30.737C347.035 31.657 350.59 37.1435 355.073 38.8065C365.547 42.692 373.123 40.523 382.283 34.6575C384.096 33.497 385.61 31.7995 387.581 30.939C387.675 30.8975 387.77 30.859 387.864 30.819C389.234 25.617 389.851 21.2175 389.415 15.8235L390.363 13.408Z"
    fill="#FEFEFE"
  />
  <path
    d="M373.953 4.86504C371.695 5.55704 369.33 6.38103 366.947 6.36953C362.868 6.35053 349.328 2.54953 346.628 5.20153L351.247 6.04653L351.583 6.53756C356.028 8.01156 360.112 10.79 364.28 12.9285C369.432 10.8105 373.466 7.59954 379.12 6.59804C377.191 6.49804 375.658 5.68804 373.953 4.86504Z"
    fill="#B7B2AB"
  />
  <path
    d="M390.363 13.408C389.639 11.424 388.86 9.33153 387.819 7.48553C386.357 4.89253 384.381 4.05603 381.622 3.32153C379.127 4.12753 376.537 4.46202 373.953 4.86502C375.658 5.68802 377.191 6.49802 379.12 6.59802C381.933 6.68002 384.278 7.35102 386.248 9.46902C387.819 11.1585 388.984 13.5575 389.415 15.8235L390.363 13.408Z"
    fill="#B7B2AB"
  />
  <path
    d="M381.622 3.32148C375.842 2.64448 370.929 5.29198 365.329 5.30198C360.347 5.31098 355.642 2.81597 350.707 3.12897C348.565 3.26447 346.41 3.85697 344.696 5.19547C341.973 7.32197 341.144 10.723 340.798 13.9985C339.959 21.9415 341.944 29.1525 344.349 36.6415C345.231 39.387 346.327 42.2115 346.68 45.0795C348.617 60.8265 343.093 70.924 349.442 87.949C350.164 89.8825 350.945 92.6875 352.181 94.2705C352.845 95.12 353.744 95.6405 354.751 95.989C355.429 95.844 355.83 95.898 356.253 95.302C358.293 92.423 358.427 78.236 359.079 74.1245C360.269 66.619 362.134 59.0755 366.146 52.5445C368.354 56.0365 369.64 59.2805 370.706 63.2675C372.156 68.6935 374.884 91.707 377.23 94.0215C374.371 82.5665 375.11 66.32 369.068 56.12C368.119 54.5165 367.271 53.785 365.485 53.34C357.074 56.0315 357.94 90.5565 355.256 94.8385L354.245 94.7735C343.757 85.8425 348.73 57.153 347.484 44.499C347.025 39.8435 344.865 35.187 343.434 30.737C342.773 27.8185 342.145 24.816 341.852 21.8365C341.446 17.7015 341.442 12.906 344.264 9.56296C346.242 7.21996 348.667 6.80598 351.583 6.53748L351.247 6.04646L346.628 5.20145C349.328 2.54945 362.868 6.35045 366.947 6.36945C369.33 6.38095 371.695 5.55697 373.953 4.86497C376.537 4.46197 379.127 4.12748 381.622 3.32148Z"
    fill="#818081"
  />
  <path
    d="M390.363 13.408L389.415 15.8235C389.851 21.2175 389.234 25.617 387.864 30.819C386.479 35.8425 384.564 41.0405 384.168 46.252C383.2 59.001 387.901 84.7355 377.23 94.0215C377.313 94.0155 377.397 94.0194 377.479 94.0034C378.7 93.7664 379.659 92.6925 380.371 91.745C382.442 88.9855 383.313 85.55 384.018 82.231C385.732 74.1585 385.68 66.687 385.283 58.518C385.099 54.717 384.691 50.561 385.136 46.7905C386.599 34.376 392.137 26.6885 390.363 13.408Z"
    fill="#818081"
  />
  <path
    d="M317.306 8.63634C316.21 6.87834 314.563 5.26934 312.516 4.73134C306.913 3.25884 300.978 6.28686 295.325 6.43886C290.357 6.57286 285.63 4.08985 280.571 4.33885C278.166 4.45735 276.417 4.98484 274.354 6.21834C273.764 6.69284 273.046 7.16036 272.688 7.83586C269.338 12.6879 269.579 19.6358 270.583 25.2028C271.919 32.6173 276.13 39.3028 277.223 46.6983C278.888 57.9653 272.015 84.6218 283.733 92.9068C284.708 93.5963 285.856 93.9604 286.99 94.2984C288.209 93.8319 288.559 93.3138 289.07 92.0973C291.572 86.1333 289.801 64.6714 294.025 61.6119C300.589 68.3109 295.704 94.9418 303.17 94.7688C304.911 94.7288 307.069 92.9048 308.171 91.6958C318.549 80.3068 311.838 60.7774 313.759 47.1954C315.202 36.9899 320.209 27.6769 319.542 17.1444C319.384 14.6434 318.799 12.2318 318.022 9.85484L317.306 8.63634Z"
    fill="#E3DDC7"
  />
  <path
    d="M317.306 8.63634C316.21 6.87834 314.563 5.26934 312.516 4.73134C306.913 3.25884 300.978 6.28686 295.325 6.43886C290.357 6.57286 285.63 4.08985 280.571 4.33885C278.166 4.45735 276.417 4.98484 274.354 6.21834C273.764 6.69284 273.046 7.16036 272.688 7.83586L272.84 10.2034C269.818 15.4924 270.89 23.1994 272.403 28.8194C272.794 30.2209 273.245 31.6053 273.752 32.9693C273.845 33.0038 273.937 33.0393 274.03 33.0723C276.925 34.1053 278.907 36.5793 281.422 38.2548C283.776 39.8233 287.282 40.9454 290.037 41.5809C302.667 44.4949 306.488 38.8554 315.812 33.1289L316.147 32.9253C318.13 26.7568 319.742 19.5273 317.525 13.2053L318.022 9.85484L317.306 8.63634Z"
    fill="#FEFEFE"
  />
  <path
    d="M317.306 8.63634C316.209 6.87834 314.562 5.26934 312.515 4.73134C306.913 3.25884 300.977 6.28686 295.324 6.43886C290.356 6.57286 285.629 4.08985 280.57 4.33885C278.165 4.45735 276.416 4.98484 274.353 6.21834C273.764 6.69284 273.045 7.16036 272.687 7.83586L272.84 10.2034C274.507 8.80136 276.078 7.88384 278.335 8.06734C281.38 8.31484 284.286 10.4843 286.79 12.1178C289.631 11.2623 292.493 10.2749 295.374 9.57585C297.623 11.4819 299.594 13.5653 301.587 15.7338C303.942 13.0263 306.956 8.76884 310.909 8.55434C312.687 8.45834 314.219 9.39384 315.487 10.5543C316.309 11.3063 316.928 12.2708 317.524 13.2053L318.021 9.85484L317.306 8.63634Z"
    fill="#C1BCB7"
  />
  <path
    d="M317.306 8.63634C316.209 6.87834 314.562 5.26934 312.515 4.73134C306.913 3.25884 300.977 6.28686 295.324 6.43886C290.356 6.57286 285.629 4.08985 280.57 4.33885C278.165 4.45735 276.416 4.98484 274.353 6.21834C283.051 4.75784 287.821 7.46586 295.761 7.41786C301.502 7.38286 306.961 5.54335 312.823 5.61235L313.019 5.61635C314.431 6.61985 315.832 7.73184 317.306 8.63634Z"
    fill="#737071"
  />
  <path
    d="M272.84 10.2034L272.688 7.83594C269.338 12.6879 269.579 19.6359 270.583 25.2029C271.919 32.6174 276.13 39.3029 277.223 46.6984C278.888 57.9654 272.015 84.6219 283.733 92.9069C284.708 93.5964 285.856 93.9604 286.99 94.2984C288.209 93.8319 288.559 93.3139 289.07 92.0974C291.572 86.1334 289.801 64.6714 294.025 61.6119C300.589 68.3109 295.704 94.9419 303.17 94.7689C304.911 94.7289 307.069 92.9049 308.171 91.6959C318.549 80.3069 311.838 60.7774 313.759 47.1954C315.202 36.9899 320.209 27.6769 319.542 17.1444C319.384 14.6434 318.799 12.2319 318.022 9.85492L317.525 13.2054C319.742 19.5274 318.13 26.7569 316.147 32.9254C314.632 38.5764 312.825 44.2559 312.431 50.1219C311.761 60.0984 316.125 86.8039 305.745 93.0779C304.414 93.8824 303.194 93.9589 301.698 93.6789C297.777 88.8789 300.801 65.8829 294.818 60.4259C293.807 60.3769 293.603 60.2959 292.802 61.0124C287.52 65.7379 291.827 90.5844 286.71 93.1524C284.981 92.9404 283.856 91.6794 282.829 90.3734C273.166 78.0899 279.685 61.7684 278.277 47.8299C277.749 42.6024 275.542 37.8429 273.752 32.9694C273.245 31.6054 272.794 30.2209 272.403 28.8194C270.89 23.1994 269.818 15.4924 272.84 10.2034Z"
    fill="#737071"
  />
  <path
    d="M242.796 4.94998C233.688 2.12848 221.683 0.817001 212.874 5.4375C211.36 6.2315 209.708 7.48449 209.188 9.18949C207.939 13.284 209.514 20.1215 210.669 24.1575C212.752 31.0545 214.67 38.2415 215.69 45.3815C217.537 58.303 217.95 71.612 221.404 84.257C222.314 87.5875 224.193 94.636 227.502 96.2925C228.463 96.773 229.385 96.8155 230.399 96.469C232.142 95.873 233.444 93.583 234.192 92.037C240.419 79.1705 240.909 51.907 243.714 36.7465C244.934 30.1545 247.73 23.8065 248.614 17.17C248.952 14.638 249.205 11.479 248.303 9.05451C247.451 6.76601 244.848 5.84798 242.796 4.94998Z"
    fill="#E3DDC7"
  />
  <path
    d="M242.796 4.94998C233.688 2.12848 221.683 0.817001 212.874 5.4375C211.36 6.2315 209.708 7.48449 209.188 9.18949C207.939 13.284 209.514 20.1215 210.669 24.1575L211.342 23.295C212.004 25.514 213.157 28.2525 213.406 30.5245C217.107 31.61 221.134 37.5385 225.116 39.926C230.461 40.2225 233.655 39.9425 237.807 36.2455C239.684 34.5735 241.567 31.977 243.808 30.868C245.305 24.7905 250.008 15.201 247.047 9.11899C245.998 6.96549 244.228 6.43598 242.088 5.65698L242.796 4.94998Z"
    fill="#FEFEFE"
  />
  <path
    d="M242.796 4.94998C233.688 2.12848 221.683 0.817001 212.874 5.4375C211.36 6.2315 209.708 7.48449 209.188 9.18949C207.939 13.284 209.514 20.1215 210.669 24.1575L211.342 23.295C210.179 19.45 208.868 13.1855 210.176 9.32651C210.673 7.86301 211.723 7.01749 213.067 6.33899C221.02 2.32449 233.799 3.05148 242.088 5.65698L242.796 4.94998Z"
    fill="#2B262E"
  />
  <path
    d="M242.796 4.9502L242.088 5.6572C244.228 6.4362 245.998 6.9657 247.047 9.1192C250.008 15.2012 245.305 24.7907 243.808 30.8682C240.555 48.3757 239.83 66.3617 235.819 83.7262C234.93 87.5747 233.808 93.1507 230.246 95.3822C229.139 95.4797 228.712 95.6127 227.718 95.0407C220.246 90.7412 217.808 54.0407 216.434 44.5252C215.748 39.7697 214.713 35.1467 213.406 30.5247C213.157 28.2527 212.004 25.5142 211.342 23.2952L210.669 24.1577C212.752 31.0547 214.67 38.2417 215.69 45.3817C217.537 58.3032 217.95 71.6122 221.404 84.2572C222.314 87.5877 224.193 94.6362 227.502 96.2927C228.463 96.7732 229.385 96.8157 230.399 96.4692C232.142 95.8732 233.444 93.5832 234.192 92.0372C240.419 79.1707 240.909 51.9072 243.714 36.7467C244.934 30.1547 247.73 23.8067 248.614 17.1702C248.952 14.6382 249.205 11.4792 248.303 9.05472C247.451 6.76622 244.848 5.8482 242.796 4.9502Z"
    fill="#737071"
  />
  <path
    d="M187.201 6.80163C186.625 6.17613 186.008 5.50664 185.291 5.04114C181.9 2.83764 169.471 1.36912 165.403 2.23712C161.585 3.30012 151.727 2.97264 149.815 6.52014C149.656 6.81464 149.517 7.08762 149.424 7.40762C148.556 10.0206 148.927 13.2816 149.316 15.9711C150.416 23.5641 153.555 30.8181 154.815 38.4001C156.832 50.5451 157.154 62.9996 159.116 75.1841C159.952 80.3771 161.743 93.4081 166.457 96.5266C167.168 96.9966 168.131 97.2281 168.955 97.0436C170.656 96.6631 171.498 95.2686 172.36 93.8816C178.532 83.9441 180.061 51.5631 182.06 38.7566C183.631 28.6921 189.502 16.9106 187.201 6.80163Z"
    fill="#E3DDC7"
  />
  <path
    d="M187.201 6.80163C186.625 6.17613 186.008 5.50664 185.291 5.04114C181.9 2.83764 169.471 1.36912 165.403 2.23712C161.585 3.30012 151.727 2.97264 149.815 6.52014C149.656 6.81464 149.517 7.08762 149.424 7.40762L149.936 10.0196C150.059 17.7416 153.121 23.9411 154.271 31.3016C157.364 32.3086 160.49 36.9986 162.857 39.3306C164.187 40.6411 165.497 41.6091 167.446 41.5366C173.547 41.3096 178.384 35.1061 182.151 31.0036C184.221 25.1616 185.798 19.5516 186.581 13.3901C186.856 11.2006 187.02 9.00013 187.201 6.80163Z"
    fill="#FEFEFE"
  />
  <path
    d="M187.201 6.80163C186.625 6.17613 186.008 5.50664 185.291 5.04114C181.9 2.83764 169.471 1.36912 165.403 2.23712L166.86 3.28415C172.476 2.55615 180.734 7.09763 185.671 9.70413C186.588 10.7456 186.492 12.0656 186.581 13.3901C186.856 11.2006 187.02 9.00013 187.201 6.80163Z"
    fill="#B7B2AB"
  />
  <path
    d="M165.403 2.23706C161.585 3.30006 151.727 2.97258 149.815 6.52008C149.656 6.81458 149.517 7.08756 149.424 7.40756L149.936 10.0196C155.289 9.42856 161.883 5.48209 166.86 3.28409L165.403 2.23706Z"
    fill="#CCC4BF"
  />
  <path
    d="M187.201 6.80151C187.02 9.00001 186.856 11.2005 186.581 13.39C185.798 19.5515 184.221 25.1615 182.151 31.0035C179.952 43.7645 177.717 88.6535 169.105 96.0785C168.158 96.2205 167.925 96.379 167.105 95.793C162.414 92.4385 160.562 78.0085 159.74 72.3645C157.75 58.696 157.385 44.7835 154.271 31.3015C153.121 23.941 150.059 17.7415 149.936 10.0195L149.424 7.4075C148.556 10.0205 148.927 13.2815 149.316 15.971C150.416 23.564 153.555 30.818 154.815 38.4C156.832 50.545 157.154 62.9995 159.116 75.184C159.952 80.377 161.743 93.408 166.457 96.5265C167.168 96.9965 168.131 97.228 168.955 97.0435C170.656 96.663 171.498 95.2685 172.36 93.8815C178.532 83.944 180.061 51.563 182.06 38.7565C183.631 28.692 189.502 16.9105 187.201 6.80151Z"
    fill="#737071"
  />
  <path
    d="M125.205 4.76387C119.502 3.48587 108.382 1.33088 103.086 4.67638C101.605 5.61188 100.409 7.22537 100.096 8.96337C99.7227 11.0339 100.11 13.5319 100.252 15.6329C101.01 24.7469 102.348 33.8069 103.196 42.9134C104.663 58.6689 104.73 75.4864 110.117 90.5424C110.826 92.5229 111.973 95.2439 113.982 96.1974L115.245 95.7224C122.715 87.8354 124.074 46.8874 125.335 35.0859C126.153 27.4264 128.09 19.5224 127.878 11.8124C127.797 8.87486 127.365 6.82537 125.205 4.76387Z"
    fill="#E3DDC7"
  />
  <path
    d="M125.205 4.76387C119.502 3.48587 108.382 1.33088 103.086 4.67638C101.605 5.61188 100.409 7.22537 100.096 8.96337C99.7227 11.0339 100.11 13.5319 100.252 15.6329L100.974 15.3269L102.93 31.0369C103.024 31.0904 103.119 31.1419 103.211 31.1969C106.566 33.1959 109.995 42.3989 114.458 41.3214C118.948 40.2374 121.683 34.7774 124.463 31.6109C125.814 24.8424 127.971 15.8114 126.551 9.01988C126.157 7.13538 125.483 6.42888 123.934 5.41438L125.205 4.76387Z"
    fill="#FEFEFE"
  />
  <path
    d="M125.205 4.76387C119.502 3.48587 108.382 1.33088 103.086 4.67638C101.605 5.61188 100.409 7.22537 100.096 8.96337C99.7226 11.0339 100.11 13.5319 100.252 15.6329L100.974 15.3269C100.922 13.2044 100.698 10.8394 101.001 8.74239C101.144 7.75989 101.414 6.81037 102.252 6.21337C107.013 2.82487 118.54 4.50288 123.934 5.41438L125.205 4.76387Z"
    fill="#2B262E"
  />
  <path
    d="M125.205 4.76392L123.934 5.41443C125.483 6.42893 126.157 7.13543 126.551 9.01993C127.971 15.8114 125.814 24.8424 124.463 31.6109C124.297 43.9289 120.848 84.8989 115.397 94.3224C114.938 95.1154 114.867 95.2919 113.943 95.5329C113.74 95.4014 113.642 95.3449 113.444 95.1759C106.49 89.2289 104.177 41.1549 102.93 31.0369L100.974 15.3269L100.252 15.6329C101.01 24.7469 102.348 33.8069 103.196 42.9134C104.663 58.6689 104.73 75.4864 110.117 90.5424C110.826 92.5229 111.973 95.2439 113.982 96.1974L115.245 95.7224C122.715 87.8354 124.074 46.8874 125.335 35.0859C126.153 27.4264 128.09 19.5224 127.878 11.8124C127.797 8.87491 127.365 6.82542 125.205 4.76392Z"
    fill="#818081"
  />
  <path
    d="M63.6312 0C59.2887 0.0635 54.7062 3.57049 51.7077 6.54449C48.6962 9.53149 47.0922 12.5235 47.0802 16.827C47.0607 23.8975 49.3572 30.7535 50.1562 37.739C51.8562 52.598 51.5947 88.764 61.8927 99.091C62.3227 99.0345 62.7547 98.9505 63.1487 98.7585C65.2097 97.7555 66.5257 94.929 67.3112 92.9105C73.5032 76.993 73.3252 54.636 75.5937 37.6455C76.4417 31.2945 78.5622 25.046 78.8917 18.634C79.0227 16.0835 78.9347 13.1865 77.8402 10.8425C75.7202 6.301 68.1997 1.6165 63.6312 0Z"
    fill="#818081"
  />
  <path
    d="M75.0298 33.9767C75.6303 31.2852 76.2063 28.5882 76.7578 25.8862C77.8508 20.4097 78.8853 14.2397 75.5023 9.33124C72.4328 4.87674 66.5363 1.90721 61.2978 0.970215C57.4338 3.46771 52.6473 6.05073 50.0168 9.94373C45.8888 16.0532 49.1278 26.5962 50.4838 33.2177C52.5908 48.5842 52.2028 87.6037 62.7193 98.5512C72.8163 85.3912 72.4568 50.8207 75.0298 33.9767Z"
    fill="#FEFEFE"
  />
  <path
    d="M75.0298 33.9767C71.0588 36.8292 69.5838 41.9228 64.0848 42.8873C57.4638 44.0493 55.1128 36.2498 50.7518 33.3873C50.6638 33.3293 50.5733 33.2743 50.4838 33.2178C52.5908 48.5843 52.2028 87.6038 62.7193 98.5513C72.8163 85.3913 72.4568 50.8207 75.0298 33.9767Z"
    fill="#E3DDC7"
  />
  <path
    d="M13.4066 3.70288C9.12665 3.80588 5.12663 3.92239 1.08163 5.46039C0.921633 5.90139 0.77664 6.3419 0.65164 6.7934C-1.98836 16.3439 4.07165 67.8149 6.75165 79.8609C7.92665 85.1374 9.38664 89.8929 12.0266 94.6164C13.3616 95.2804 13.7017 95.5309 15.2317 95.3089C15.6217 95.0124 15.9716 94.6754 16.2366 94.2589C19.8936 88.4699 22.6721 63.4674 23.2651 55.6714C23.7281 49.5819 23.6991 43.4594 24.1376 37.3694C24.8796 27.0629 27.5067 15.8879 25.0597 5.69489C21.1822 3.98339 17.5716 3.87988 13.4066 3.70288Z"
    fill="#818081"
  />
  <path
    d="M24.1806 6.00302C16.8766 4.53102 9.36165 4.49352 2.04165 5.89202C-0.348355 12.2045 0.971635 19.261 1.53164 25.8105C2.55664 37.8845 5.35663 87.478 13.1516 94.068C13.5116 94.3725 14.0066 94.401 14.4616 94.506C17.9866 91.788 20.5906 69.776 21.2686 64.5435C22.7301 53.266 23.2536 41.6125 23.5346 30.2455C25.2756 22.732 25.7676 13.5775 24.1806 6.00302Z"
    fill="#E3DDC7"
  />
  <path
    d="M24.1806 6.00302C16.8766 4.53102 9.36165 4.49352 2.04165 5.89202C-0.348355 12.2045 0.971635 19.261 1.53164 25.8105C3.61664 30.5685 6.28664 38.3735 11.5016 40.307C12.8616 40.812 14.2716 40.7245 15.5716 40.081C19.8151 37.9775 20.3221 32.9995 23.5346 30.2455C25.2756 22.732 25.7676 13.5775 24.1806 6.00302Z"
    fill="#FEFEFE"
  />
</svg>
