<svg
  width="454"
  height="50"
  viewBox="0 0 454 50"
  fill="none"
  xmlns="http://www.w3.org/2000/svg"
>
  <path
    d="M28.1702 46.0432C28.6777 46.2182 29.0822 46.2767 29.6187 46.2757C33.2437 46.2682 36.6402 45.2167 39.2282 42.6042C43.8357 37.9527 45.3587 31.5042 45.3412 25.1477C45.3247 19.0702 44.0232 11.4427 39.4882 7.02969C34.3132 1.99369 24.3732 3.6457 17.6967 3.8307C13.3537 3.7827 9.9102 4.02869 6.3942 6.85169C2.4982 9.97969 0.689698 15.1427 0.185198 19.9767C-0.488202 26.4262 0.5892 34.4612 4.8342 39.5997C10.1512 46.0357 20.5232 45.3532 28.1702 46.0432Z"
    fill="#545257"
  />
  <path
    d="M35.2412 4.76081C28.7207 4.13081 10.2927 3.25532 6.02721 8.34082C-0.839038 16.2448 -0.291888 33.6483 7.33921 40.7998C11.2557 44.4703 28.6042 45.1063 34.1932 44.7023C38.9872 41.8598 41.0932 39.5048 43.0142 34.3493C45.0472 29.0998 44.5457 21.4643 43.0542 16.1108C41.8647 10.6118 39.5227 7.95181 35.2412 4.76081Z"
    fill="#ADA49D"
  />
  <path
    d="M35.2412 4.76081C28.7207 4.13081 10.2927 3.25532 6.02721 8.34082C-0.839038 16.2448 -0.291888 33.6483 7.33921 40.7998C11.2557 44.4703 28.6042 45.1063 34.1932 44.7023C38.9872 41.8598 41.0932 39.5048 43.0142 34.3493C39.8397 36.8498 41.9432 38.3388 36.8962 39.3893C33.5677 41.9658 27.6552 43.8793 24.6787 39.7443C23.3452 39.6083 21.4022 39.4723 20.1342 39.2598C16.6967 39.1728 9.89321 38.1433 7.66471 35.3658L7.92271 34.5538L7.54421 33.5668C5.32071 31.5923 4.99171 29.7813 4.42321 26.8843C3.75321 23.2938 3.97021 22.1133 4.42171 18.4633L4.81621 18.2538C5.00321 20.0023 5.26621 21.6058 5.55371 23.3403C5.66021 21.7728 5.55521 20.3898 6.58571 19.2463L7.73921 18.7238L7.32621 17.3298L7.71421 16.8648C9.37071 18.0073 11.1387 19.4403 13.0712 19.8508C14.9542 19.3453 15.4187 18.9988 15.7982 16.8813C16.4742 15.7948 17.1322 14.6978 17.7727 13.5898L18.1367 14.0978C19.0277 13.2173 18.5772 13.4478 19.8587 13.2618C21.4222 13.0833 21.8232 13.4098 23.1672 14.1358C23.5692 13.0593 23.8757 11.1378 24.3057 10.6448L26.5792 11.0043C27.5887 10.0793 28.6812 10.1688 30.0432 10.0898C28.6972 9.62831 27.3552 9.15382 26.0187 8.66632C31.2052 3.80232 40.1767 11.9498 43.0542 16.1108C41.8647 10.6118 39.5227 7.95181 35.2412 4.76081Z"
    fill="#D5CFCC"
  />
  <path
    d="M15.7983 16.8812C16.4743 15.7947 17.1323 14.6977 17.7728 13.5897L18.1368 14.0977C19.0278 13.2172 18.5773 13.4477 19.8588 13.2617C21.4223 13.0832 21.8233 13.4097 23.1673 14.1357C23.5693 13.0592 23.8758 11.1377 24.3058 10.6447C18.7178 7.53017 16.8938 12.8182 15.7983 16.8812Z"
    fill="#CCC4BF"
  />
  <path
    d="M24.6788 39.7442C27.6553 43.8792 33.5678 41.9657 36.8963 39.3892C41.9433 38.3387 39.8398 36.8497 43.0143 34.3492C45.0473 29.0997 44.5458 21.4642 43.0543 16.1107C40.1768 11.9497 31.2053 3.80217 26.0188 8.66617C27.3553 9.15367 28.6973 9.62816 30.0433 10.0897C28.6813 10.1687 27.5888 10.0792 26.5793 11.0042C36.1473 12.6172 40.2278 15.7697 41.3978 25.8237L41.3833 26.4962L40.0163 27.1612L37.3803 27.2172C36.5458 28.6532 38.7303 29.5607 38.7963 33.2442L38.8008 33.7017C33.5693 34.0982 30.6263 32.7592 27.1723 38.2672L26.2403 38.2087L24.8163 38.2657C23.2663 39.3772 22.1938 39.1262 20.1343 39.2597C21.4023 39.4722 23.3453 39.6082 24.6788 39.7442Z"
    fill="#CECAC7"
  />
  <path
    d="M27.1724 38.2672C33.5769 38.2472 41.3579 36.9182 41.2079 28.9847C41.2009 28.6587 41.1889 28.3322 41.1709 28.0067C40.6739 27.5437 40.6319 27.4022 40.0164 27.1612L37.3804 27.2172C36.5459 28.6532 38.7304 29.5607 38.7964 33.2442L38.8009 33.7016C33.5694 34.0981 30.6264 32.7592 27.1724 38.2672Z"
    fill="#EDE5DF"
  />
  <path
    d="M24.6787 39.7442C27.6552 43.8792 33.5677 41.9657 36.8962 39.3892C37.0117 38.6087 37.1157 38.7012 37.6692 37.9782L37.5737 37.6487C30.9892 39.1762 32.7877 39.7172 24.6787 39.7442Z"
    fill="#EDE9E2"
  />
  <path
    d="M7.92284 34.5535C12.0783 37.3785 17.4518 38.2875 22.3918 37.789L22.5053 37.1845C20.4638 32.109 22.0203 30.8155 21.2553 26.2805C20.4268 25.922 19.7618 25.6666 18.9973 25.1776L19.2608 25.249C19.3603 25.1075 19.5843 24.804 19.6678 24.665L19.2688 24.6055L19.6603 24.51C18.8383 23.849 17.2773 23.3545 16.2403 22.956L13.3938 23.6001C11.5928 24.8366 10.7583 25.1555 8.71984 25.9955C7.63834 25.811 6.78834 25.6935 5.69584 25.593L4.42334 26.884C4.99184 29.781 5.32084 31.592 7.54434 33.5665L7.92284 34.5535Z"
    fill="#E1DAD2"
  />
  <path
    d="M7.92269 34.5535C12.0782 37.3785 17.4517 38.2875 22.3917 37.789C19.8027 35.628 12.2077 33.6545 8.81419 33.0155C8.46519 33.153 7.82569 33.3715 7.54419 33.5665L7.92269 34.5535Z"
    fill="#EDE9E2"
  />
  <path
    d="M9.90918 30.1541C14.4532 26.1811 15.0847 25.9011 21.2552 26.2806C20.4267 25.9221 19.7617 25.6666 18.9972 25.1776L19.2607 25.2491C19.3602 25.1076 19.5842 24.8041 19.6677 24.6651L19.2687 24.6056L19.6602 24.5101C18.8382 23.8491 17.2772 23.3546 16.2402 22.9561L13.3937 23.6001C11.9902 26.2146 10.9987 27.0486 9.90918 30.1541Z"
    fill="#CCC4BF"
  />
  <path
    d="M8.7197 25.9956L7.6887 27.4806C7.4637 29.0781 7.4627 29.2766 8.1207 30.7856L8.9767 31.0906L9.9092 30.1541C10.9987 27.0486 11.9902 26.2146 13.3937 23.6001C11.5927 24.8366 10.7582 25.1556 8.7197 25.9956Z"
    fill="#B7B2AB"
  />
  <path
    d="M40.5403 25.6375L41.3978 25.8236C40.2278 15.7696 36.1473 12.617 26.5793 11.004L24.3058 10.6446C23.8758 11.1376 23.5693 13.059 23.1673 14.1355C22.8983 15.695 22.5813 18.231 23.3663 19.6395C23.9698 20.7345 25.0343 21.4995 26.2648 21.722C29.4943 22.316 31.9308 20.5846 34.3038 18.8671L35.4698 18.3685C36.2288 20.858 38.1748 24.5165 40.5403 25.6375Z"
    fill="#EDE9E2"
  />
  <path
    d="M26.2403 38.2087L27.1723 38.2672C30.6263 32.7592 33.5693 34.0981 38.8008 33.7016C38.0578 31.7586 37.5138 31.8716 36.4718 30.5831C32.5853 25.7771 24.8988 27.7392 25.8378 34.4857C26.0493 36.0037 25.2728 36.3927 26.2403 38.2087Z"
    fill="#E1DAD2"
  />
  <path
    d="M25.2863 24.8183C31.6658 25.1533 32.7378 25.3253 34.3038 18.8673C31.9308 20.5848 29.4943 22.3163 26.2648 21.7223C25.0343 21.4998 23.9698 20.7348 23.3663 19.6398C22.5813 18.2313 22.8983 15.6953 23.1673 14.1358C21.8233 13.4098 21.4223 13.0833 19.8588 13.2618C20.4858 20.5463 17.4513 20.4448 25.2863 24.8183Z"
    fill="#C1BCB7"
  />
  <path
    d="M11.5807 21.9842L11.8557 21.9562C14.0802 21.7422 15.3842 21.7022 17.7517 21.3747C19.0712 19.4272 18.1947 16.6562 18.1367 14.0977L17.7727 13.5897C17.1322 14.6977 16.4742 15.7947 15.7982 16.8812C15.4187 18.9987 14.9542 19.3452 13.0712 19.8507C11.1387 19.4402 9.37067 18.0072 7.71417 16.8647L7.32617 17.3297L7.73917 18.7237C9.14367 20.0887 10.0142 20.7992 11.5807 21.9842Z"
    fill="#C1BCB7"
  />
  <path
    d="M22.5052 37.1846L23.7987 36.7541C25.0042 30.1206 25.0052 23.0611 16.6192 22.9546L16.2402 22.9561C17.2772 23.3546 18.8382 23.8491 19.6602 24.5101L19.2687 24.6056L19.6677 24.6651C19.5842 24.8041 19.3602 25.1076 19.2607 25.2491L18.9972 25.1776C19.7617 25.6666 20.4267 25.9221 21.2552 26.2806C22.0202 30.8156 20.4637 32.1091 22.5052 37.1846Z"
    fill="#C1BCB7"
  />
  <path
    d="M5.55371 23.3403L5.76671 24.0308C8.11771 25.0088 10.8072 24.7698 11.5807 21.9843C10.0142 20.7993 9.14371 20.0888 7.73921 18.7238L6.58571 19.2463C5.55521 20.3898 5.66021 21.7728 5.55371 23.3403Z"
    fill="#CCC4BF"
  />
  <path
    d="M33.5432 24.9495L40.5402 25.6375C38.1747 24.5165 36.2287 20.858 35.4697 18.3685C35.2387 20.9755 34.5497 22.6225 33.5432 24.9495Z"
    fill="#CCC4BF"
  />
  <path
    d="M95.1278 48.9875C95.8448 49.0185 96.5623 49.0294 97.2798 49.0199C101.571 48.9449 105.406 47.2535 108.357 44.1395C114.059 38.1215 115.044 27.683 114.755 19.8005C114.545 14.08 112.584 8.59696 108.265 4.66796C101.831 -1.18554 93.8638 1.00945 86.0578 1.41895C80.8258 1.56495 76.4313 2.16045 72.1913 5.61495C67.6568 9.30895 65.1838 14.6925 64.5993 20.4225C63.8813 27.455 64.4423 36.546 69.1268 42.202C75.4783 49.8705 86.2603 48.0515 95.1278 48.9875Z"
    fill="#737071"
  />
  <path
    d="M95.8789 47.8028C100.716 47.6753 104.577 46.9873 107.944 43.3003C112.997 37.7678 114.002 26.3243 113.751 19.3138C113.254 5.3833 103.586 0.297296 90.9124 2.0653C83.2924 3.1278 76.0429 1.7743 70.1209 8.6903C66.6189 12.6633 65.2994 18.2883 65.6204 23.4608L65.1539 23.8203C64.9259 27.8673 66.6879 37.2043 69.2134 40.6868C75.5349 49.4018 85.5449 45.8223 95.8789 47.8028Z"
    fill="#D5CFCC"
  />
  <path
    d="M88.5494 38.764C89.0359 38.379 89.2329 38.199 89.7939 37.926L90.1559 37.754L90.3484 37.042C90.5199 37.811 90.7084 38.1145 91.0519 38.8015L93.7244 39.492C96.9449 38.286 102.4 36.318 105.17 34.2695L105.931 33.839L105.182 32.754L104.883 31.5165L105.97 31.104C107.572 30.329 107.702 28.966 107.978 27.28L108.71 26.4365L109.48 25.8745C114.373 23.3635 111.673 13.159 106.75 11.746C105.488 11.3835 104.212 11.0365 102.937 10.731L95.0669 8.88701L93.3769 8.27951C92.4774 9.20101 91.8569 10.4795 91.2119 11.6195L90.4174 11.9345L89.4909 11.7255C88.6864 10.5535 88.0984 9.85301 87.8124 8.43451C78.0489 11.1335 70.1589 12.469 68.4619 23.774L68.2279 25.4115C68.0599 25.7075 68.1659 25.8145 68.2164 26.296L70.0949 26.8905C71.5424 26.976 72.6819 26.8625 73.8029 27.6945C74.1564 29.4005 73.3129 30.6065 72.5949 32.4505L71.9284 34.5765L72.3944 35.529L73.2464 35.257L74.7059 34.5165C77.6969 34.677 84.0569 34.6015 85.2284 37.642L85.8254 35.729L87.8164 37.868L88.5494 38.764Z"
    fill="#ADA49D"
  />
  <path
    d="M109.48 25.8743C114.373 23.3633 111.673 13.1588 106.75 11.7458C105.488 11.3833 104.212 11.0363 102.937 10.7308L95.0669 8.88683L93.3769 8.27933C92.4774 9.20083 91.8569 10.4793 91.2119 11.6193C95.6074 13.5778 92.6164 14.2363 95.5514 17.7858C96.5839 19.4593 96.0949 19.1728 97.7019 19.9708C100.797 19.4173 100.497 17.2858 104.238 16.8103L105.872 15.4633L106.366 14.9098C107.272 18.3858 106.95 21.1748 108.481 24.8988L109.48 25.8743Z"
    fill="#EDE9E2"
  />
  <path
    d="M95.5515 17.786C96.584 19.4595 96.095 19.173 97.702 19.971C100.798 19.4175 100.497 17.286 104.239 16.8105L105.873 15.4635L106.366 14.91L105.138 14.549C104.134 14.933 96.2 17.384 95.7565 17.315L95.5515 17.786Z"
    fill="#EDE5DF"
  />
  <path
    d="M95.5514 17.786L95.7564 17.315C95.7164 14.5885 94.5954 10.116 95.0669 8.88695L93.3769 8.27945C92.4774 9.20095 91.8569 10.4794 91.2119 11.6194C95.6074 13.5779 92.6164 14.2365 95.5514 17.786Z"
    fill="#D5CFCC"
  />
  <path
    d="M85.2285 37.642L85.8255 35.729L87.8165 37.868C88.537 34.7635 89.7095 28.9005 90.6385 26.0715C84.5095 24.8975 83.16 24.6 77.1175 25.7415C76.0835 27.7905 74.574 31.465 72.595 32.4505L71.9285 34.5765L72.3945 35.529L73.2465 35.257L74.706 34.5165C77.697 34.677 84.057 34.6015 85.2285 37.642Z"
    fill="#CCC4BF"
  />
  <path
    d="M85.2283 37.6419L85.8253 35.7289L86.8928 27.1924C80.2083 27.1479 77.8063 28.0659 74.7058 34.5164C77.6968 34.6769 84.0568 34.6014 85.2283 37.6419Z"
    fill="#E1DAD2"
  />
  <path
    d="M68.4619 23.7737C74.5649 21.9912 69.2219 18.6257 74.4624 16.5717C78.0799 14.7427 77.1654 20.6047 84.1349 20.9172C86.1474 20.7497 85.8359 21.0917 87.0574 19.9512C88.0189 17.1017 86.3854 13.7417 88.1024 12.2092L89.4909 11.7252C88.6864 10.5532 88.0984 9.85274 87.8124 8.43424C78.0489 11.1332 70.1589 12.4687 68.4619 23.7737Z"
    fill="#EDE9E2"
  />
  <path
    d="M84.135 20.9173C86.1475 20.7498 85.836 21.0918 87.0575 19.9513C88.019 17.1018 86.3855 13.7418 88.1025 12.2093C86.4625 12.0463 86.7635 11.8283 85.5255 12.5173C84.337 14.9073 84.9615 17.6188 84.221 20.5848L84.135 20.9173Z"
    fill="#E1DAD2"
  />
  <path
    d="M91.052 38.8015L93.7245 39.492C96.945 38.286 102.401 36.318 105.171 34.2695L105.932 33.839L105.182 32.754C101.744 32.0165 95.2955 18.5485 91.052 38.8015Z"
    fill="#E1DAD2"
  />
  <path
    d="M93.7244 39.492C96.9449 38.286 102.4 36.318 105.17 34.2695C101.442 31.328 95.7289 35.9685 93.7244 39.492Z"
    fill="#EDE9E2"
  />
  <path
    d="M77.6804 24.283C83.9489 23.0015 85.0789 23.692 91.0419 23.987C91.1039 20.599 91.0024 15.27 90.4174 11.9345L89.4909 11.7255L88.1024 12.2095C86.3854 13.742 88.0189 17.102 87.0574 19.9515C85.8359 21.092 86.1474 20.75 84.1349 20.9175C77.1654 20.605 78.0799 14.743 74.4624 16.572L74.6764 16.9755C76.1084 18.2105 76.9569 22.199 77.6804 24.283Z"
    fill="#CCC4BF"
  />
  <path
    d="M88.5493 38.7638C89.0358 38.3788 89.2328 38.1988 89.7938 37.9258L90.1558 37.7538L90.3483 37.0418C90.5198 37.8108 90.7083 38.1143 91.0518 38.8013C95.2953 18.5483 101.744 32.0163 105.182 32.7538L104.883 31.5163C102.422 22.4488 99.8568 22.7878 92.1178 25.6028C91.4103 29.1043 90.4033 35.9868 88.5493 38.7638Z"
    fill="#CCC4BF"
  />
  <path
    d="M91.2119 11.6194C92.8729 14.4559 92.4344 19.9124 92.4024 23.3724C93.8904 24.1639 94.3364 23.1394 95.7184 22.9974C102.217 22.3289 101.072 22.2884 104.238 16.8104C100.497 17.2859 100.797 19.4174 97.7019 19.9709C96.0949 19.1729 96.5839 19.4594 95.5514 17.7859C92.6164 14.2364 95.6074 13.5779 91.2119 11.6194Z"
    fill="#E3DDC7"
  />
  <path
    d="M68.2278 25.4113C71.2803 25.4248 73.6348 25.7288 76.5583 25.8563C75.7423 23.0163 74.6353 19.8883 74.6763 16.9753L74.4623 16.5718C69.2218 18.6258 74.5648 21.9913 68.4618 23.7738L68.2278 25.4113Z"
    fill="#E1DAD2"
  />
  <path
    d="M102.27 23.3147C104.486 23.9552 106.223 24.4042 108.481 24.8987C106.95 21.1747 107.272 18.3857 106.366 14.9097L105.872 15.4632C106.252 17.3772 103.469 21.1122 102.27 23.3147Z"
    fill="#CCC4BF"
  />
  <path
    d="M105.97 31.1038C107.572 30.3288 107.702 28.9658 107.978 27.2798L108.71 26.4363C107.31 26.1223 105.898 25.6058 104.645 26.2278C104.37 27.9418 105.256 29.2928 105.97 31.1038Z"
    fill="#E3DDC7"
  />
  <path
    d="M65.6204 23.4608L65.1539 23.8203C64.9259 27.8673 66.6879 37.2043 69.2134 40.6868C75.5349 49.4018 85.5449 45.8223 95.8789 47.8028C95.2689 47.1638 94.3954 46.5183 94.3524 45.8183C84.6599 37.2568 83.2044 47.8778 78.1154 42.7558C81.4169 43.3678 83.3834 44.0843 85.8699 41.2193C88.8509 41.3268 91.2459 41.3648 94.2259 41.2488C97.8824 39.8848 105.297 37.0633 108.074 34.3178C108.61 32.2303 110.399 30.9628 110.069 29.0028L109.505 28.4658L108.584 30.8593L108.152 30.7323C108.569 29.0298 109 28.6623 108.388 27.3753L107.978 27.2798C107.702 28.9658 107.572 30.3288 105.97 31.1038L104.883 31.5163L105.182 32.7538L105.931 33.8388L105.17 34.2693C102.4 36.3178 96.9449 38.2858 93.7244 39.4918L91.0519 38.8013C90.7084 38.1143 90.5199 37.8108 90.3484 37.0418L90.1559 37.7538L89.7939 37.9258C89.2329 38.1988 89.0359 38.3788 88.5494 38.7638L87.8164 37.8678L85.8254 35.7288L85.2284 37.6418C84.0569 34.6013 77.6969 34.6768 74.7059 34.5163L73.2464 35.2568L72.3944 35.5288L71.9284 34.5763L72.5949 32.4503C73.3129 30.6063 74.1564 29.4003 73.8029 27.6943C72.6819 26.8623 71.5424 26.9758 70.0949 26.8903L68.2164 26.2958C68.1659 25.8143 68.0599 25.7073 68.2279 25.4113L68.4619 23.7738C70.1589 12.4688 78.0489 11.1333 87.8124 8.4343C88.0984 9.8528 88.6864 10.5533 89.4909 11.7253L90.4174 11.9343L91.2119 11.6193C91.8569 10.4793 92.4774 9.2008 93.3769 8.2793L95.0669 8.8868L102.937 10.7308L103.433 9.2513C100.762 8.8313 98.6169 8.2268 96.0189 7.5288C92.7139 6.8433 91.2219 6.70181 87.8409 6.54081C84.8474 8.07231 79.6339 9.4283 75.9514 11.0898C71.7824 13.4978 74.6134 11.3598 71.6794 12.1983C69.8869 16.5093 70.2744 14.3643 68.1169 15.3403C66.3084 18.1818 66.3809 20.1373 65.6204 23.4608Z"
    fill="#C7C2BF"
  />
  <path
    d="M78.1154 42.7558C81.4169 43.3678 83.3834 44.0843 85.8699 41.2193C82.4984 40.4853 74.0604 37.2448 71.7659 37.7178L72.0354 38.5828C74.1739 40.8118 75.4254 41.3468 78.1154 42.7558Z"
    fill="#FEFEFE"
  />
  <path
    d="M73.2463 35.2569C75.3978 36.9239 81.6448 38.8714 84.4933 38.6069L85.2283 37.6419C84.0568 34.6014 77.6968 34.6769 74.7058 34.5164L73.2463 35.2569Z"
    fill="#EDE9E2"
  />
  <path
    d="M70.095 26.8905C69.5265 27.1515 69.3915 27.3315 68.9125 27.7315C68.832 30.0755 69.4555 33.607 71.9285 34.5765L72.595 32.4505C73.313 30.6065 74.1565 29.4005 73.803 27.6945C72.682 26.8625 71.5425 26.976 70.095 26.8905Z"
    fill="#E1DAD2"
  />
  <path
    d="M90.4173 11.9344L91.2118 11.6194C91.8568 10.4794 92.4773 9.20089 93.3768 8.27939C90.9478 7.97589 90.2643 8.09289 87.8123 8.43439C88.0983 9.85289 88.6863 10.5534 89.4908 11.7254L90.4173 11.9344Z"
    fill="#CCC4BF"
  />
  <path
    d="M94.226 41.249L91.85 41.8855L91.5005 42.5515C92.665 43.8665 96.2315 44.146 97.99 44.285C101.844 42.4505 108.395 39.4575 108.074 34.318C105.297 37.0635 97.8825 39.885 94.226 41.249Z"
    fill="#FEFEFE"
  />
  <path
    d="M103.433 9.25149C104.783 9.80949 106.495 10.713 107.863 10.4205C108.031 8.65599 105.912 7.11649 104.643 5.95699C102.277 5.89349 99.0618 5.62649 96.8688 6.27149L96.0188 7.52898C98.6168 8.22698 100.762 8.83149 103.433 9.25149Z"
    fill="#EDE9E2"
  />
  <path
    d="M87.8409 6.54067C85.6434 4.92067 78.2219 6.69116 76.2269 8.70366C76.3549 9.72266 76.3259 10.1317 75.9514 11.0897C79.6339 9.42816 84.8474 8.07217 87.8409 6.54067Z"
    fill="#EDE9E2"
  />
  <path
    d="M151.254 49.331C159.472 49.3575 169.691 51.3835 176.341 45.666C182.867 40.055 184.117 30.7065 184.765 22.6225C185.264 16.398 184.372 10.233 180.096 5.36101C177.165 2.02101 173.297 0.3085 168.918 0C160.774 0.4285 149.099 -0.619493 142.145 4.21001C137.729 7.27751 135.19 12.3185 134.303 17.518C133.012 25.0915 134.109 35.866 138.729 42.2235C141.917 46.611 146.068 48.4755 151.254 49.331Z"
    fill="#C1BCB7"
  />
  <path
    d="M141.698 14.0761C139.982 14.8351 139.403 15.0441 138.552 16.7421C137.014 17.0861 137.668 17.1256 135.983 16.2886L135.567 16.9081C134.711 38.7226 137.494 49.2671 160.344 48.0741C170.429 47.5476 177.036 48.7006 181.101 36.9796C182.425 32.2876 185.231 17.2516 182.201 13.3471L180.743 13.0656C178.233 6.6921 168.653 -3.3604 163.965 5.9946C162.749 6.4161 159.035 6.20909 156.838 6.81009C151.782 3.17509 142.976 7.5306 141.196 12.2896L141.968 13.5191L141.698 14.0761Z"
    fill="#ADA49D"
  />
  <path
    d="M141.698 14.0761C139.982 14.8351 139.403 15.0441 138.552 16.7421C137.014 17.0861 137.668 17.1256 135.983 16.2886L135.567 16.9081C134.711 38.7226 137.494 49.2671 160.344 48.0741C170.429 47.5476 177.036 48.7006 181.101 36.9796C180.199 37.5416 176.776 42.5176 175.488 44.0136C175.576 42.0281 175.778 40.9226 176.15 38.9601C176.847 37.5931 177.453 36.7186 177.347 35.1931C177.553 34.3851 177.665 33.9711 177.973 33.1976C176.437 30.5241 180.003 25.0806 177.406 23.8176L176.755 23.9001C169.372 28.0286 176.462 28.2506 175.303 34.2416L175.53 34.3066L175.411 34.7916L173.656 35.2741L173.77 35.8556C171.086 37.7221 166.78 39.0656 163.612 39.8411C158.497 40.1136 156.941 40.9126 155.845 35.2736C155.897 36.9656 156.005 37.7706 155.472 39.3886C154.164 39.8116 154.742 39.8071 153.128 39.0206C152.464 38.9101 151.357 38.9286 150.651 38.9141C147.992 37.9641 145.712 37.2481 143.257 35.8206L142.049 34.9686L142.178 34.2831L142.707 34.1226L142.65 33.6961C142.121 29.5011 144.395 29.1731 143.781 27.0876C141.545 26.9046 139.986 26.9741 138.248 25.5596L139.721 24.9031C137.175 23.1551 138.412 20.3486 139.653 18.0026L140.003 17.7641L139.512 21.4306C141.582 18.8661 141.634 17.7836 144.191 15.1616L142.704 14.3211L141.698 14.0761Z"
    fill="#D5CFCC"
  />
  <path
    d="M159.617 42.9183C161.984 44.3728 163.442 44.5158 166.119 45.0318C171.715 43.5903 171.918 41.9623 176.15 38.9603C176.847 37.5933 177.453 36.7188 177.347 35.1933C172.503 38.9293 165.605 41.8233 159.617 42.9183Z"
    fill="#EDE9E2"
  />
  <path
    d="M159.617 42.918L158.445 43.0185L158.364 43.3535C162.682 47.765 170.872 48.241 175.488 44.0135C175.576 42.028 175.778 40.9225 176.15 38.96C171.918 41.962 171.715 43.59 166.119 45.0315C163.442 44.5155 161.984 44.3725 159.617 42.918Z"
    fill="#EDE9E2"
  />
  <path
    d="M150.643 44.5211L151.902 44.4111C152.092 43.1041 151.248 41.8486 150.709 40.6471C147.564 39.4656 144.483 38.2415 141.441 36.8145L140.753 36.5011C140.803 37.3436 141.116 37.9311 141.565 38.6266C143.776 42.0471 146.719 43.7121 150.643 44.5211Z"
    fill="#EDE9E2"
  />
  <path
    d="M175.488 44.0137C176.776 42.5177 180.199 37.5417 181.101 36.9797C182.425 32.2877 185.231 17.2517 182.201 13.3472L180.743 13.0657C178.233 6.69224 168.653 -3.36026 163.965 5.99474C162.749 6.41624 159.035 6.20923 156.838 6.81023C151.782 3.17523 142.976 7.53074 141.196 12.2897L141.968 13.5192L141.698 14.0762L142.704 14.3212C148.25 11.2817 153.023 9.09323 159.335 7.98273L160.096 10.2122L160.702 10.4977L161.197 9.79174L160.418 8.43123L160.93 8.17023L161.813 8.57674L162.785 8.03324C163.305 7.94724 164.732 7.67524 165.175 7.68024C169.197 8.71274 173.756 10.6997 177.571 12.4332C179.179 13.5532 179.431 13.7247 180.545 15.3232C181.171 17.1072 180.528 18.1117 179.793 19.9052L180.058 20.3552C179.359 20.7692 177.51 22.3337 176.795 22.9122L176.478 23.5422L176.755 23.9002L177.406 23.8177C180.003 25.0807 176.437 30.5242 177.973 33.1977C177.665 33.9712 177.553 34.3852 177.347 35.1932C177.453 36.7187 176.847 37.5932 176.15 38.9602C175.778 40.9227 175.576 42.0282 175.488 44.0137Z"
    fill="#C7C3BF"
  />
  <path
    d="M163.965 5.9945C169.464 6.7395 176.101 10.106 180.743 13.0655C178.233 6.69199 168.653 -3.3605 163.965 5.9945Z"
    fill="#EDE9E2"
  />
  <path
    d="M156.838 6.81011C151.782 3.17511 142.976 7.53062 141.196 12.2896L141.968 13.5191C146.973 10.3666 151.112 8.47911 156.838 6.81011Z"
    fill="#EDE9E2"
  />
  <path
    d="M176.755 23.9001L177.406 23.8176C180.003 25.0806 176.437 30.5241 177.973 33.1976C178.406 30.8821 180.319 21.9461 180.058 20.3551C179.359 20.7691 177.51 22.3336 176.795 22.9121L176.478 23.5421L176.755 23.9001Z"
    fill="#CCC4BF"
  />
  <path
    d="M162.785 8.0331C161.792 12.9851 162.933 18.3546 162.293 23.3591C162.061 25.1706 161.079 25.6376 159.562 26.7231L160.008 26.9986C161.663 26.3771 168.377 26.0486 168.767 25.6866C170.558 24.0226 175.279 16.1341 178.246 15.2096C179.242 16.4326 178.496 17.2626 178.845 19.4901L179.793 19.9051C180.528 18.1116 181.171 17.1071 180.545 15.3231C179.431 13.7246 179.179 13.5531 177.571 12.4331C173.756 10.6996 169.197 8.7126 165.175 7.6801C164.732 7.6751 163.305 7.9471 162.785 8.0331Z"
    fill="#CCC4BF"
  />
  <path
    d="M164.908 13.9854C166.362 14.2199 167.175 13.7109 168.535 13.2539C168.929 14.4404 169.257 15.3614 169.737 16.5264C172.311 15.1224 174.907 13.6474 177.571 12.4329C173.756 10.6994 169.197 8.71244 165.175 7.67994C164.013 10.0094 164.344 11.5759 164.908 13.9854Z"
    fill="#EDE9E2"
  />
  <path
    d="M164.907 13.9857C164.983 15.4297 165.23 16.0052 165.679 17.3367C167.249 18.6892 166.541 18.4687 168.479 18.4652C169.273 17.6827 169.374 17.5767 169.737 16.5267C169.257 15.3617 168.928 14.4407 168.535 13.2542C167.174 13.7112 166.362 14.2202 164.907 13.9857Z"
    fill="#E1DAD2"
  />
  <path
    d="M139.721 24.9031L141.137 24.7271C142.709 21.7156 145.079 24.5176 144.653 19.0386C144.254 17.8326 144.278 18.3326 144.511 17.1236L145.356 17.5741C146.303 18.9301 146.523 19.1711 146.816 20.8301C149.46 21.8471 151.689 23.5626 154.638 22.5591C156.987 20.4151 155.653 17.0016 156.473 14.5196C157.205 14.1261 157.942 13.7402 158.682 13.3617C158.806 12.4412 159.397 8.57214 159.335 7.98264C153.023 9.09314 148.25 11.2816 142.704 14.3211L144.191 15.1616C141.634 17.7836 141.582 18.8662 139.512 21.4307L140.003 17.7641L139.653 18.0026C138.412 20.3486 137.175 23.1551 139.721 24.9031Z"
    fill="#E1DAD2"
  />
  <path
    d="M144.191 15.1615C149.238 15.4565 149.682 21.182 153.111 20.4595C153.386 17.87 153.459 13.474 155.243 11.6935L156.195 11.561C157.527 13.2155 157.009 13.11 158.682 13.3615C158.806 12.441 159.397 8.57203 159.335 7.98253C153.023 9.09303 148.25 11.2815 142.704 14.321L144.191 15.1615Z"
    fill="#EDE9E2"
  />
  <path
    d="M155.844 35.2735C156.94 40.9125 158.496 40.1135 163.611 39.841C166.779 39.0655 171.086 37.722 173.77 35.8555L173.656 35.274L175.411 34.7915L175.529 34.3065L175.303 34.2415C172.29 33.1785 171.719 32.3195 170.412 29.433C164.381 35.474 162.624 25.3245 155.604 32.0825L155.844 35.2735Z"
    fill="#E1DAD2"
  />
  <path
    d="M163.612 39.8411C166.78 39.0656 171.086 37.7221 173.77 35.8556L173.656 35.2741C169.864 35.5296 164.117 35.0196 163.612 39.8411Z"
    fill="#EDE9E2"
  />
  <path
    d="M146.816 20.8302C149.872 28.4672 156.471 28.5502 160.708 21.8532C160.784 19.8437 161.144 17.3457 160.136 15.7012C158.885 14.8627 158.065 14.4832 156.473 14.5197C155.653 17.0017 156.987 20.4152 154.638 22.5592C151.689 23.5627 149.46 21.8472 146.816 20.8302Z"
    fill="#C1BCB7"
  />
  <path
    d="M150.651 38.9141C151.357 38.9286 152.464 38.9101 153.128 39.0206L153.245 33.2051C148.734 30.9711 149.776 30.4476 144.496 30.5361C144.123 32.0596 143.545 32.8076 142.707 34.1226L142.178 34.2831L142.049 34.9686L143.257 35.8206C145.712 37.2481 147.992 37.9641 150.651 38.9141Z"
    fill="#E1DAD2"
  />
  <path
    d="M150.651 38.9141C150.705 37.1401 151.019 34.8951 150.053 33.5096C148.028 33.0796 146.05 34.9151 143.257 35.8206C145.712 37.2481 147.992 37.9641 150.651 38.9141Z"
    fill="#EDE9E2"
  />
  <path
    d="M155.604 32.0826C162.624 25.3246 164.381 35.4741 170.412 29.4331C168.31 24.5186 160.897 26.8276 157.197 28.5826C155.941 29.1786 155.824 30.8821 155.604 32.0826Z"
    fill="#CCC4BF"
  />
  <path
    d="M144.496 30.5362C149.776 30.4477 148.734 30.9711 153.245 33.2051C153.657 31.5701 154.088 29.6422 154.582 28.0557L148.001 26.8116L144.496 30.5362Z"
    fill="#CCC4BF"
  />
  <path
    d="M138.248 25.5596L146.889 25.5081C146.189 23.4616 145.426 21.0211 144.653 19.0386C145.079 24.5176 142.709 21.7156 141.137 24.7271L139.721 24.9031L138.248 25.5596Z"
    fill="#CCC4BF"
  />
  <path
    d="M176.795 22.9122C177.509 22.3337 179.359 20.7692 180.057 20.3552L179.793 19.9052L178.844 19.4902C178.496 17.2627 179.241 16.4327 178.246 15.2097C177.437 17.8032 176.883 18.4017 175.252 20.4922L176.795 22.9122Z"
    fill="#E3DDC7"
  />
  <path
    d="M175.252 20.4923C174.167 21.5063 172.96 22.3393 172.679 23.7033C174.152 24.4313 174.444 23.9788 176.478 23.5423L176.795 22.9123L175.252 20.4923Z"
    fill="#C1BCB7"
  />
  <path
    d="M222.29 47.2613C225.955 47.3118 228.959 47.1493 232.234 45.2553C238.431 41.6723 241.732 34.6338 243.431 27.9448C244.76 22.7093 245.395 16.6368 242.45 11.8223C239.042 6.25077 232.19 3.87226 226.17 2.44126C221.124 2.30976 215.626 3.62376 211.342 6.35526C207.748 8.64626 205.221 11.9273 204.333 16.1338C202.799 23.3998 205.415 32.5393 209.465 38.6133C212.61 43.3298 216.726 46.1658 222.29 47.2613Z"
    fill="#737071"
  />
  <path
    d="M222.621 46.2477C225.54 46.3842 228.649 45.9842 231.221 44.5462C237.215 41.1947 240.537 34.5047 242.304 28.1202C243.712 23.0352 244.496 16.8547 241.69 12.1082C238.685 7.02568 231.701 4.81718 226.29 3.46218C221.383 3.28918 215.665 4.58917 211.552 7.32967C208.261 9.52217 206.083 12.6662 205.325 16.5537C203.958 23.5582 206.788 32.7377 210.767 38.5162C213.86 43.0077 217.379 45.2662 222.621 46.2477Z"
    fill="#D5CFCC"
  />
  <path
    d="M215.988 35.2312C215.889 35.3567 215.85 35.8937 215.82 36.0987C221.459 41.1687 227.898 39.0227 234.003 36.5547L232.228 35.1872C227.731 32.2782 228.28 23.9532 223.429 24.0302L223.035 22.4972C227.427 22.3817 231.58 25.4927 234.106 28.8787L234.724 28.6517C234.765 19.5552 238.77 21.8347 239.123 14.6937L240.152 14.9302C240.081 13.9187 239.506 13.1277 238.581 12.6532C235.449 10.8187 229.084 8.72816 225.387 7.09866C222.083 8.29216 213.847 10.6617 211.384 11.7112C208.944 12.2702 207.537 14.5687 207.551 16.9502L207.923 17.0352L208.573 15.5837L209.325 15.4537L209.5 17.2647C209.942 16.5592 209.921 15.8102 209.996 14.9707L210.489 15.3752C210.356 16.6337 210.75 18.0827 211.003 19.3577C210.167 19.3817 210.549 19.2722 209.824 19.7172C208.144 25.2537 211.06 32.2412 215.988 35.2312Z"
    fill="#E3DDC7"
  />
  <path
    d="M225.325 16.7696C225.433 17.5756 225.584 17.9916 225.828 18.7696C228.073 19.9576 232.38 21.9811 234.912 21.5301C235.942 19.1426 237.192 16.4921 239.123 14.6936L240.152 14.9301C240.082 13.9186 239.507 13.1276 238.581 12.6531C235.449 10.8186 229.085 8.72813 225.388 7.09863C222.084 8.29213 213.847 10.6616 211.384 11.7111C215.918 11.5826 218.337 11.9366 223.381 11.5671L224.165 12.0581L225.325 16.7696Z"
    fill="#EDE9E2"
  />
  <path
    d="M224.165 12.058C229.433 11.456 231.634 11.7815 236.903 13.209L238.581 12.653C235.449 10.8185 229.085 8.72805 225.388 7.09855C222.084 8.29205 213.847 10.6615 211.384 11.711C215.918 11.5825 218.337 11.9366 223.381 11.5671L224.165 12.058Z"
    fill="#FEFEFE"
  />
  <path
    d="M215.988 35.2312C215.889 35.3567 215.85 35.8937 215.82 36.0987C221.459 41.1687 227.898 39.0227 234.003 36.5547L232.228 35.1872C227.731 32.2782 228.28 23.9532 223.429 24.0302C221.179 27.2962 218.902 33.1232 215.988 35.2312Z"
    fill="#FEFEFE"
  />
  <path
    d="M213.233 19.9036C216.564 21.2181 220.676 22.5151 221.541 17.5021L222.403 18.6991C223.722 18.2816 224.297 17.6591 225.324 16.7696L224.164 12.0581L223.38 11.5671C218.336 11.9366 215.918 11.5826 211.384 11.7111C208.944 12.2701 207.537 14.5686 207.551 16.9501L207.923 17.0351L208.573 15.5836L209.325 15.4536L209.5 17.2646C209.942 16.5591 209.921 15.8101 209.996 14.9706L210.489 15.3751C211.564 16.9126 212.314 18.2656 213.233 19.9036Z"
    fill="#EDE9E2"
  />
  <path
    d="M221.542 17.5023L222.404 18.6993C223.723 18.2818 224.297 17.6593 225.324 16.7698L224.164 12.0583L223.38 11.5673C222.666 13.1023 222.014 15.7948 221.542 17.5023Z"
    fill="#CCC4BF"
  />
  <path
    d="M215.988 35.231C218.902 33.123 221.179 27.296 223.429 24.03L223.035 22.497C219.316 24.613 216.84 26.1835 213.525 28.9445C213.732 25.985 212.746 21.7035 211.003 19.3575C210.167 19.3815 210.549 19.272 209.824 19.717C208.144 25.2535 211.06 32.241 215.988 35.231Z"
    fill="#E3DDC7"
  />
  <path
    d="M223.035 22.4971C227.427 22.3816 231.581 25.4926 234.107 28.8786L234.724 28.6516C234.765 19.5551 238.77 21.8346 239.123 14.6936C237.192 16.4921 235.942 19.1426 234.912 21.5301C234.011 23.6016 234.32 23.8816 232.739 24.7401C230.376 24.6536 227.742 22.2581 224.957 21.0896C221.022 22.4711 218.198 23.6986 214.829 26.2626L213.233 19.9036C212.314 18.2656 211.565 16.9126 210.49 15.3751C210.356 16.6336 210.751 18.0826 211.004 19.3576C212.747 21.7036 213.732 25.9851 213.525 28.9446C216.84 26.1836 219.316 24.6131 223.035 22.4971Z"
    fill="#ADA49D"
  />
  <path
    d="M234.003 36.5548C236.891 35.1028 239.858 27.2398 239.666 24.2468L239.168 23.7007C238.102 28.4802 236.983 32.7627 232.228 35.1872L234.003 36.5548Z"
    fill="#EDE9E2"
  />
  <path
    d="M276.993 45.7402C281.139 47.5447 283.462 47.7352 287.863 46.2562C292.618 44.6582 299.761 36.5857 300.147 31.5792C307.902 15.6712 297.771 7.35266 283.966 2.45716C276.958 3.29166 267.907 7.97266 264.97 14.5472C260.454 24.6537 267.281 41.1662 276.993 45.7402Z"
    fill="#EDE9E2"
  />
  <path
    d="M277.333 35.3417C279.008 38.6357 286.767 38.3622 289.583 35.7792C297.061 34.3422 299.702 22.4312 296.467 17.2962L296.269 16.8186C294.691 18.4251 293.583 23.6601 293.081 25.9996L291.809 26.5061C290.037 25.7241 289.401 25.5381 288.135 24.0966L288.835 23.5867L283.146 21.4277C279.64 22.0822 278.478 22.1957 275.508 24.1497C273.114 22.6072 273.023 19.4512 270.519 18.3647C270.188 17.3562 270.169 17.3272 269.42 16.5572L268.988 16.8127L269.248 18.1367C267.753 22.4627 268.197 28.3727 269.909 32.6412C272.78 34.6997 273.806 35.7852 277.333 35.3417Z"
    fill="#E3DDC7"
  />
  <path
    d="M292.98 30.1907C294.081 25.9972 295.19 21.4077 296.467 17.2962L296.269 16.8187C294.691 18.4252 293.583 23.6602 293.081 25.9997L291.809 26.5062C290.037 25.7242 289.401 25.5382 288.135 24.0967L288.835 23.5867L283.146 21.4277C279.64 22.0822 278.478 22.1957 275.508 24.1497C273.114 22.6072 273.023 19.4512 270.519 18.3647C270.188 17.3562 270.169 17.3272 269.42 16.5572L268.988 16.8127L269.248 18.1367C270.858 22.2862 271.297 25.9652 272.628 29.7977C283.489 22.6082 282.778 23.8447 292.98 30.1907Z"
    fill="#ADA49D"
  />
  <path
    d="M283.151 22.9632C286.289 24.1022 290.414 27.3212 292.117 27.4047L293.081 25.9997L291.809 26.5062C290.037 25.7242 289.401 25.5382 288.135 24.0967L288.835 23.5867L283.146 21.4277C279.64 22.0822 278.478 22.1957 275.508 24.1497C273.114 22.6072 273.023 19.4512 270.519 18.3647C271.377 21.4832 272.399 24.6907 273.343 27.7957C276.956 25.4562 279.06 24.1977 283.151 22.9632Z"
    fill="#CCC4BF"
  />
  <path
    d="M277.333 35.3417C279.008 38.6357 286.767 38.3622 289.583 35.7792C286.553 33.2167 285.468 29.8072 283.124 26.4767C281.518 29.0452 279.146 33.0847 277.333 35.3417Z"
    fill="#FEFEFE"
  />
  <path
    d="M276.993 45.7403L276.743 45.4653C274.937 43.4913 273.127 42.7198 272.106 40.5943L271.973 40.3238C271.898 40.1458 271.822 39.9678 271.747 39.7898C267.431 38.4038 265.015 24.7588 265.023 20.4518L265.025 20.2778C266.722 17.4508 267.853 14.8418 270.843 13.5033L282.841 7.34429C285.747 8.35279 293.635 12.4938 296.764 14.0848L298.073 15.3058C303.902 19.4838 299.88 26.1253 300.147 31.5793C307.902 15.6713 297.771 7.35279 283.966 2.45729C276.958 3.29179 267.907 7.97279 264.97 14.5473C260.454 24.6538 267.281 41.1663 276.993 45.7403Z"
    fill="#C1BCB7"
  />
  <path
    d="M276.993 45.7402C281.139 47.5447 283.462 47.7352 287.863 46.2562C292.618 44.6582 299.761 36.5857 300.147 31.5792C299.88 26.1252 303.902 19.4837 298.073 15.3057C299.366 20.0127 300.182 22.1977 298.765 27.4982C297.04 33.7057 293.346 40.9477 286.771 42.9887C284.095 43.8187 282.024 43.3677 279.472 45.0547C278.963 44.6082 273.001 40.6992 271.747 39.7897C271.822 39.9677 271.898 40.1457 271.973 40.3237L272.106 40.5942C273.127 42.7197 274.937 43.4912 276.743 45.4652L276.993 45.7402Z"
    fill="#D5CFCC"
  />
  <path
    d="M271.747 39.7896C271.149 36.8886 269.885 35.6366 269.909 32.6411C268.197 28.3726 267.753 22.4626 269.248 18.1366L268.988 16.8126L269.42 16.5571C270.169 17.3271 270.188 17.3561 270.519 18.3646C273.023 19.4511 273.114 22.6071 275.508 24.1496C278.478 22.1956 279.64 22.0821 283.146 21.4276L288.835 23.5866L290.092 23.4966L290.192 22.4191C290.167 22.4246 275.947 20.5631 274.203 20.4246C272.666 18.1876 271.713 16.0656 270.843 13.5031C267.853 14.8416 266.722 17.4506 265.025 20.2776L265.023 20.4516C265.015 24.7586 267.431 38.4036 271.747 39.7896Z"
    fill="#D5CFCC"
  />
  <path
    d="M288.835 23.5869L288.135 24.0969C289.401 25.5384 290.037 25.7244 291.809 26.5064L293.081 25.9999C293.583 23.6604 294.691 18.4254 296.269 16.8189L295.445 15.5394C292.755 17.2159 291.746 19.6659 290.192 22.4194L290.092 23.4969L288.835 23.5869Z"
    fill="#E3DDC7"
  />
  <path
    d="M324.258 11.8913C314.512 23.4108 336.396 60.2708 350.539 40.1453C355.796 32.6653 359.109 24.2252 358.412 15.0617C353.231 6.34125 340.629 -0.286751 331.691 6.35925C329.844 7.73275 327.025 9.02526 325.586 10.8243L324.258 11.8913Z"
    fill="#E3DFDA"
  />
  <path
    d="M324.258 11.8913C314.512 23.4108 336.396 60.2708 350.539 40.1453C355.796 32.6653 359.109 24.2252 358.412 15.0617C353.231 6.34125 340.629 -0.286751 331.691 6.35925C329.844 7.73275 327.025 9.02526 325.586 10.8243C330.106 8.64026 337.161 3.54776 341.837 4.12126C345.136 5.24226 348.684 7.44076 351.598 9.29976C352.225 9.50226 352.276 9.65775 352.794 9.96325C362.914 15.9388 354.691 32.6438 349.235 39.8953C347.853 38.8838 347.134 37.6543 345.572 36.6863C343.065 37.7313 341.698 38.1683 339.01 37.4873C334.285 36.2903 334.947 37.3503 331.487 39.4588L331.209 39.6248C324.745 30.9308 320.789 22.6598 324.258 11.8913Z"
    fill="#818081"
  />
  <path
    d="M331.209 39.6248C336.526 45.5343 344.451 47.8363 349.234 39.8953C347.853 38.8838 347.134 37.6543 345.572 36.6863C343.065 37.7313 341.698 38.1683 339.01 37.4873C334.284 36.2903 334.946 37.3503 331.487 39.4588L331.209 39.6248Z"
    fill="#FEFEFE"
  />
  <path
    d="M393.899 4.4798C397.578 4.5948 403.362 4.60282 406.339 6.93882C407.188 7.60532 407.482 8.61131 407.598 9.64881C408.515 17.8258 404.153 35.8308 398.921 42.1093C396.943 44.4833 394.941 44.9553 391.963 45.2208C390.468 44.8688 389.22 44.4673 388.033 43.4538C381.636 37.9883 378.049 22.4173 377.547 14.4128C377.42 12.3828 377.489 9.56982 378.967 7.97782C382.005 4.70332 389.716 4.6598 393.899 4.4798Z"
    fill="#545257"
  />
  <path
    d="M382.449 30.6003C380.743 25.3763 376.883 15.1008 379.455 10.0193C380.396 8.16031 382.202 7.13131 384.139 6.55581C390.69 4.60981 400.374 5.8513 406.838 7.7128C406.615 16.3423 405.266 26.0493 402.102 34.1273C401.54 35.9843 400.871 37.8003 399.934 39.5048C398.875 41.4323 397.162 43.2573 394.981 43.8568C393.186 44.3508 391.369 43.9403 389.777 43.0348C385.305 40.4903 383.726 35.2223 382.449 30.6003Z"
    fill="#E9E6DF"
  />
  <path
    d="M382.448 30.6002L382.829 30.8412C386.525 33.2257 388.421 42.6032 393.552 41.6572C397.708 40.8912 398.779 36.0757 402.102 34.1272C401.54 35.9842 400.871 37.8002 399.934 39.5047C398.875 41.4322 397.161 43.2572 394.981 43.8567C393.185 44.3507 391.368 43.9402 389.777 43.0347C385.304 40.4902 383.725 35.2222 382.448 30.6002Z"
    fill="#EDE5DF"
  />
  <path
    d="M438.613 4.54082C440.978 4.38832 443.433 4.42933 445.793 4.61333C448.493 4.82383 450.863 5.39784 452.668 7.50634C454.618 12.8688 451.068 28.0308 449.433 33.8318C448.063 38.6843 446.453 42.6703 441.873 45.2533C440.308 45.2393 438.463 44.9323 437.155 44.0203C430.853 39.6223 428.444 25.1848 427.395 18.2183C427.003 15.6183 425.916 9.68883 427.771 7.56933C429.905 5.13233 435.566 4.90032 438.613 4.54082Z"
    fill="#737071"
  />
  <path
    d="M437.149 6.0529C442.203 5.2584 447.458 6.13091 452.313 7.49391C452.293 8.27141 452.268 9.0484 452.233 9.8249C451.808 19.7364 450.458 36.8354 442.963 43.7219C441.663 44.0169 440.293 44.1724 439.013 43.6894C436.304 42.6689 434.537 39.4629 433.409 36.9489C430.844 31.2284 426.34 14.2354 428.517 8.54442C430.653 6.28142 434.239 6.3794 437.149 6.0529Z"
    fill="#EDE9E2"
  />
</svg>
