<svg
  width="109"
  height="196"
  viewBox="0 0 109 196"
  fill="none"
  xmlns="http://www.w3.org/2000/svg"
>
  <g clip-path="url(#clip0_126_4974)">
    <path
      d="M85.0078 1.49647C84.8982 0.910642 85.1582 2.10725 85.0078 1.49647C85.4105 3.65181 85.5591 5.90663 85.7207 8.09086C85.9411 10.7824 86.1263 13.4766 86.2764 16.1729C86.4175 19.1217 86.38 22.0225 86.8588 24.9376C86.9639 25.5776 87.0355 26.314 87.0913 26.9622L88.484 44.3746C88.8675 49.2778 88.8751 54.1902 89.4873 59.1014C89.7452 62.1305 89.7227 65.1691 89.903 68.2031C90.0175 70.1309 90.4554 72.1796 90.5719 74.1099C90.6772 75.8572 90.787 77.6553 90.8623 79.3964C91.1096 85.1166 92.143 90.8349 92.1876 96.5498C92.1175 97.0282 92.1292 102.519 92.2355 102.896L92.4461 103.07L92.4288 103.016C92.6654 103.407 92.6347 104.174 92.6369 104.65C92.8008 104.453 92.6287 103.093 92.8103 102.561C92.8402 104.325 92.8555 105.972 93.147 107.718C93.6256 110.586 94.622 113.375 95.3805 116.179L98.9192 129.235C100.943 136.902 103.109 144.383 105.704 151.88C106.218 153.365 107.904 159.603 109 160.409V163.833C107.474 165.754 106.333 171.887 105.64 174.501L101.292 190.421C100.923 191.745 100.217 194.99 99.8583 196H92.9381C92.9768 195.837 93.1681 195.727 93.3234 195.597L93.3064 195.454C92.8317 195.261 88.2166 195.237 87.3536 195.25C87.0322 195.117 82.1761 195.128 81.562 195.167C79.2949 195.138 76.8219 195.169 74.5809 194.854C71.7252 194.337 68.6476 194.545 65.8194 194.247C58.9236 193.521 52.3097 193.834 45.4221 194.276C42.459 194.466 39.7238 194.54 36.7267 194.931C34.6117 195.207 31.8103 195.137 29.6344 195.156C28.0142 195.082 17.1375 195.113 16.1277 195.494L16.0729 195.615C16.2792 195.769 16.4797 195.781 16.7361 195.831C16.6994 195.924 16.7095 195.932 16.6469 196H9.01276C8.87868 194.776 7.96871 191.879 7.62687 190.578L4.07047 177.326C3.01143 173.379 2.36715 169.296 0.920726 165.456C0.760645 165.031 0.43073 164.698 0 164.532V159.996C0.0891887 159.97 0.175905 159.937 0.252221 159.881C1.56828 158.945 3.48599 151.183 4.13471 149.133C4.56566 147.772 5.12638 146.454 5.51273 145.078C6.09612 143 6.42738 140.881 6.94361 138.79L10.8266 123.329C11.2973 121.409 12.0241 119.476 12.4329 117.589C13.0725 114.639 13.8869 111.566 14.4959 108.627C15.1268 105.583 14.2857 102.045 14.9264 98.8886C15.237 98.5856 16.2612 97.3097 16.355 96.9258C16.7318 95.5071 16.5717 93.9309 16.8045 92.5076C17.3313 89.2861 17.8648 86.1255 18.1243 82.8685C18.2281 81.5656 18.8663 80.1361 19.0136 78.817C19.1398 77.6867 19.1936 76.5482 19.3344 75.4195L21.5323 58.1184C21.6849 56.9306 22.2755 55.5534 22.4072 54.4873C22.5722 53.1511 22.6347 51.7566 22.806 50.384L24.9692 33.5196C25.0437 32.9637 25.0948 32.5041 25.2527 31.9621C25.4129 31.4118 25.7935 30.673 25.8512 30.1311L26.7497 22.1052C26.874 20.8853 26.9245 19.6403 27.0787 18.425C27.3074 16.6229 27.7871 14.723 27.9503 12.9222C28.1397 10.8314 28.2756 8.70596 28.4765 6.61296C28.5826 5.50717 29.3745 3.33574 29.6694 2.32953C29.9266 3.46407 29.4627 1.19085 29.7577 2.38596L29.6694 2.43796C29.4183 3.69216 29.9084 1.0678 29.6694 2.43796C29.9458 2.27617 29.8355 2.32329 30.22 2.32953C30.6086 2.54277 30.9528 3.8325 31.3005 4.34079C31.9235 5.25191 32.559 6.10206 33.1634 7.02499C33.7024 7.84822 34.0127 8.7132 34.4901 9.5075L47.6215 31.3513L53.5311 41.2449C54.2094 42.3575 55.772 45.5547 56.9924 45.7282C57.7033 45.3534 59.1116 42.471 59.5947 41.7099L69.2227 26.2106C70.8146 23.5973 72.4242 20.7453 74.0159 18.1123L80.6004 7.30456C81.5977 5.68005 82.7109 4.02966 83.6618 2.36418C83.9552 1.85013 84.9688 2.10661 85.0078 1.49647Z"
      fill="black"
    />
    <path
      d="M83.568 7.5401C83.4559 10.5031 83.7273 13.0423 83.8862 15.9848C84.0648 16.5171 84.1371 17.5854 84.1769 18.1811L84.2181 18.1514C84.6904 17.8051 84.7421 17.7031 84.8914 17.136C84.9535 17.7111 85.0744 19.3576 85.0477 19.9154C85.0645 22.197 85.309 25.6562 85.1409 27.7697L85.1749 31.2192L87.299 61.374C87.5514 62.5945 87.4761 62.0911 88.2188 62.4038C88.6031 62.5656 88.4765 64.044 88.4597 64.5679L88.4615 65.8932C88.4879 68.0671 88.5703 70.2814 88.534 72.447C88.564 73.4251 88.5757 74.2898 88.5512 75.2671L88.5676 76.0901C88.7242 83.1489 89.7458 90.2352 89.7478 97.3519L44.7308 97.3638L28.411 97.3632C27.3791 97.3631 18.8911 97.4763 18.4648 97.1553C18.7382 96.3789 18.7962 94.5512 18.9798 93.6217C19.7926 89.5059 20.0474 85.354 20.7038 81.206C20.8961 79.9911 20.9438 78.5762 21.1229 77.3195L24.5303 52.7399C24.9003 50.2138 25.3933 47.7344 25.6793 45.1841C25.8457 43.7004 26.2663 42.1656 26.4653 40.6538L29.8365 16.2149C30.2486 13.4002 30.4099 11.0208 30.9351 8.09186C31.5399 9.24113 32.4991 10.3973 33.1217 11.4887C34.2494 13.4654 35.4559 15.3517 36.6111 17.2898L51.0717 41.5096C52.0164 43.084 56.0166 49.1909 56.2415 50.524C57.9797 49.0457 58.2726 48.1426 59.4588 46.2679C61.2402 43.4513 62.9779 40.6075 64.6714 37.7374C68.8678 30.7199 73.3202 23.8202 77.491 16.7825C79.3929 13.5733 81.2046 10.4395 83.568 7.5401Z"
      fill="#FEFEFE"
    />
    <path
      d="M83.9759 20.3116C84.5817 20.0451 84.3665 19.6513 84.7609 19.2172C84.9742 19.4052 84.9837 19.6261 85.0477 19.9154C85.0645 22.197 85.309 25.6561 85.1409 27.7697C85.0839 27.3126 85.0725 26.4483 85.0536 25.9608C84.6445 26.1531 84.4229 26.2446 83.9854 26.1536C83.9731 25.3815 83.9657 24.6094 83.9629 23.8373C84.0071 22.7283 83.9452 21.4684 83.9759 20.3116Z"
      fill="#696969"
    />
    <path
      d="M83.9629 23.8373L85.03 23.7347L85.0536 25.9608C84.6445 26.1531 84.4229 26.2446 83.9854 26.1536C83.9731 25.3815 83.9657 24.6094 83.9629 23.8373Z"
      fill="#A4A4A4"
    />
    <path
      d="M87.3145 65.5128C87.6053 65.4473 87.8972 65.3873 88.1902 65.3328C88.4439 65.5228 88.3776 65.5256 88.4616 65.8932C88.488 68.0671 88.5704 70.2814 88.5341 72.447C88.2469 71.4623 88.7048 70.8573 88.228 70.2295C87.9346 70.1123 87.6673 70.2445 87.3653 70.346C87.3959 68.7971 87.3364 67.074 87.3145 65.5128Z"
      fill="#6A6A6B"
    />
    <path
      d="M83.9854 26.1536C84.4229 26.2446 84.6445 26.153 85.0536 25.9608C85.0725 26.4483 85.0839 27.3126 85.1409 27.7697L85.1749 31.2192C84.9754 30.6936 84.6496 30.6779 84.4829 30.4869C83.9172 29.8389 84.0033 27.0244 83.9854 26.1536Z"
      fill="#D3D4D4"
    />
    <path
      d="M87.2991 61.374C87.5515 62.5945 87.4762 62.0911 88.2189 62.4038C88.6032 62.5656 88.4766 64.044 88.4598 64.5679L88.4616 65.8932C88.3776 65.5256 88.4439 65.5228 88.1901 65.3328C87.8972 65.3873 87.6052 65.4473 87.3144 65.5128C87.291 64.4732 87.3079 63.3766 87.3069 62.3322L87.2991 61.374Z"
      fill="#2D2C2D"
    />
    <path
      d="M87.307 62.3322C87.4655 62.9909 87.4243 63.9827 87.4305 64.6904L88.4598 64.5679L88.4616 65.8932C88.3777 65.5255 88.444 65.5228 88.1902 65.3327C87.8973 65.3873 87.6053 65.4473 87.3145 65.5128C87.2911 64.4732 87.308 63.3766 87.307 62.3322Z"
      fill="#696969"
    />
    <path
      d="M87.3652 70.3459C87.6672 70.2444 87.9345 70.1123 88.2279 70.2294C88.7047 70.8573 88.2468 71.4623 88.534 72.447C88.564 73.4251 88.5757 74.2898 88.5512 75.2671C88.4722 74.7941 88.5009 73.5704 88.3847 73.4009C88.1695 73.3631 87.7716 73.5893 87.4763 73.6962C87.4092 72.5807 87.3722 71.4635 87.3652 70.3459Z"
      fill="#A4A4A4"
    />
    <path
      d="M87.4763 73.6962C87.7717 73.5893 88.1696 73.3631 88.3848 73.4009C88.501 73.5704 88.4722 74.7941 88.5513 75.2671L88.5677 76.0901C88.4951 76.027 88.4651 76.0039 88.3658 75.9985C87.0353 75.9257 87.4099 74.7421 87.4763 73.6962Z"
      fill="#DFDFDF"
    />
    <path
      d="M83.8862 15.9847C84.0648 16.517 84.1371 17.5854 84.1769 18.181L84.2181 18.1514C84.6904 17.8051 84.7421 17.703 84.8914 17.136C84.9535 17.7111 85.0744 19.3576 85.0477 19.9154C84.9837 19.626 84.9742 19.4052 84.7609 19.2171C84.3665 19.6512 84.5816 20.045 83.9759 20.3116C83.962 18.869 83.9321 17.4267 83.8862 15.9847Z"
      fill="#2D2C2D"
    />
    <path
      d="M17.0837 106.512C21.207 106.448 25.4546 106.503 29.5902 106.503L53.2176 106.51L53.2243 120.683C53.2252 123.57 53.2746 126.612 53.1728 129.485C49.2588 130.708 46.5629 134.141 46.5197 138.269C46.4643 141.101 47.8606 143.763 50.2223 145.331C51.0706 145.884 52.039 146.368 52.7984 147.03C53.1717 147.355 53.1888 148.102 53.2038 148.594C53.2575 150.352 53.2326 152.124 53.2296 153.886L53.2199 163.218L53.2097 191.685C52.8702 191.737 52.2795 191.759 51.9191 191.785L33.1121 192.586C29.2161 192.753 25.4069 193.048 21.5049 193.016L21.5022 156.999C21.5022 150.776 21.5772 144.386 21.4763 138.175C18.1717 136.937 14.7342 135.936 11.4731 134.538C11.2448 134.441 10.8047 134.398 10.5557 134.382C11.0204 131.066 11.861 128.672 12.7149 125.471C13.52 122.452 14.0354 119.141 14.918 116.126C15.9025 112.764 16.7399 110.032 17.0837 106.512Z"
      fill="#FEFEFE"
    />
    <path
      d="M57.9032 106.51C68.638 106.349 79.7793 106.504 90.5539 106.497C90.9408 109.326 92.0154 112.193 92.7038 114.967C94.3453 121.581 96.3837 127.959 97.8135 134.633C96.3795 135.234 94.8571 136.052 93.408 136.676C91.3559 137.56 89.3918 138.428 87.3831 139.416C87.2178 140.519 87.2817 143.487 87.2823 144.715L87.2891 154.593L87.2864 189.336L87.2722 192.985C84.1595 193.044 79.8311 192.666 76.6136 192.518C70.5184 192.239 63.9757 192.087 57.9207 191.556C57.8606 187.181 57.7799 147.869 58.0015 147.352C58.2883 146.683 62.0628 145.249 63.4678 142.586C64.631 140.352 64.862 137.748 64.1105 135.345C63.0268 131.9 60.8968 130.852 57.9626 129.32C57.8173 126.897 57.9046 123.642 57.9039 121.154L57.9032 106.51Z"
      fill="#FEFEFE"
    />
    <path
      d="M10.4003 136.628C11.0744 137.01 14.7159 138.08 15.6939 138.453C16.7361 138.85 18.361 139.619 19.3268 139.966C19.5613 145.367 19.3791 152.161 19.3785 157.64L19.3881 192.787C16.9087 193.012 14.4254 193.191 11.9392 193.321L10.6598 193.363C10.1503 190.212 8.76051 186.213 7.93994 183.084C7.20382 180.276 6.5384 177.489 5.79591 174.644C4.81126 170.872 2.32097 164.312 2.96894 160.499C3.34711 158.274 4.78316 154.507 5.52893 152.318C6.24475 150.369 6.64749 148.229 7.35948 146.294C8.56117 143.029 9.57523 140.015 10.4003 136.628Z"
      fill="#FEFEFE"
    />
    <path
      d="M98.2918 137.015C98.4281 136.985 98.3835 137.005 98.5566 137.071C98.9145 137.815 100.114 142.215 100.485 143.368L104.417 155.6C104.922 157.153 106.141 159.948 106.254 161.475C106.442 164.002 105.018 167.737 104.349 170.225L102.126 178.827C101.811 180.002 98.1178 193.603 98.2931 193.4L98.0143 193.361C95.3405 193.293 92.3127 193.066 89.6364 192.877C89.5278 186.167 89.6276 179.162 89.6267 172.43L89.6403 140.59C91.4696 140.173 93.6309 139.001 95.332 138.202C96.3386 137.729 97.2524 137.393 98.2918 137.015Z"
      fill="#FEFEFE"
    />
    <path
      d="M17.0298 99.707C25.3912 99.5758 34.1236 99.6989 42.5113 99.6989L89.6328 99.7084L89.6301 104.15L17.0394 104.162C17.0208 102.685 17.0317 101.186 17.0298 99.707Z"
      fill="#FEFEFE"
    />
    <path
      d="M55.3504 131.448C59.0952 131.322 62.2347 134.248 62.3682 137.987C62.5018 141.726 59.5792 144.868 55.8349 145.009C52.0789 145.152 48.9209 142.222 48.7869 138.471C48.6528 134.72 51.5937 131.573 55.3504 131.448Z"
      fill="#FEFEFE"
    />
    <path
      d="M16.647 196C16.7095 195.932 16.6994 195.923 16.7362 195.831C16.4797 195.781 16.2793 195.769 16.073 195.615L16.1278 195.494C17.1376 195.112 28.0142 195.082 29.6345 195.156C28.8479 195.273 27.9605 195.258 27.1582 195.267C24.5301 195.278 22.1869 195.257 19.5679 195.532C19.8984 195.855 20.1922 195.735 20.681 196H16.647Z"
      fill="black"
    />
    <path
      d="M20.681 196C20.1922 195.735 19.8984 195.855 19.5679 195.532C22.1869 195.257 24.53 195.278 27.1582 195.267L27.062 195.285C26.2707 195.427 23.4504 195.315 23.168 195.662L23.1354 195.588L23.1727 195.676C23.826 195.76 24.7616 195.849 25.3661 196H20.681Z"
      fill="black"
    />
    <path
      d="M87.3535 195.25C88.2165 195.237 92.8316 195.261 93.3064 195.454L93.3233 195.597C93.168 195.727 92.9767 195.837 92.9381 196H89.265C89.4197 195.904 89.5753 195.81 89.7315 195.716L89.7271 195.571C89.2786 195.264 88.0498 195.506 87.3535 195.25Z"
      fill="black"
    />
    <path
      d="M81.562 195.167C82.1761 195.128 87.0322 195.117 87.3536 195.25C88.0499 195.506 89.2787 195.264 89.7272 195.571L89.7316 195.716C89.5754 195.81 89.4198 195.904 89.265 196H87.276L87.3587 195.724C87.0562 194.984 82.2139 195.493 81.562 195.167Z"
      fill="black"
    />
    <path
      d="M92.1877 96.5497C92.412 97.9211 92.243 99.4245 92.6003 100.8C92.7379 101.33 92.9099 102.017 92.8104 102.56C92.6288 103.093 92.8009 104.453 92.637 104.65C92.6347 104.174 92.6655 103.407 92.4289 103.016L92.4461 103.07L92.2356 102.896C92.1292 102.519 92.1175 97.0282 92.1877 96.5497Z"
      fill="black"
    />
  </g>
  <defs>
    <clipPath id="clip0_126_4974">
      <rect width="109" height="196" fill="white" />
    </clipPath>
  </defs>
</svg>
