<svg
  width="208"
  height="319"
  viewBox="0 0 208 319"
  fill="none"
  xmlns="http://www.w3.org/2000/svg"
>
  <path
    d="M155.88 4.74887C157.418 4.7305 158.749 4.87852 160.042 5.79876C165.899 9.97024 167.8 31.6948 168.576 38.8817C169.031 43.0933 169.595 47.2533 169.844 51.4854C171.481 77.5281 172.333 103.614 172.4 129.708C172.464 138.766 172.465 147.825 172.403 156.883C172.377 159.855 171.95 171.87 172.63 174.009C178.84 193.556 184.186 213.507 191.239 232.765L196.845 248.204C197.243 249.273 200.402 257.3 200.298 258.054C199.727 262.194 196.375 271.133 195.139 275.578C194.421 277.934 193.837 280.306 193.082 282.654C190.21 291.596 187.692 300.647 184.861 309.605C184.612 310.393 184.218 311.21 183.732 311.872C181.782 312.776 153.13 310.883 149.261 310.665C135.319 309.889 121.087 309.548 107.161 308.782C106.523 309.552 106.367 309.857 105.442 310.068C104.769 309.94 104.214 309.349 103.682 308.884C99.5099 309.392 92.6597 309.455 88.3309 309.577C80.5609 309.802 72.7926 310.072 65.0257 310.389C61.0305 310.566 57.0372 310.923 53.0424 311.135C46.4359 311.49 39.8238 311.732 33.2088 311.86C29.7711 311.957 25.2157 312.384 21.8812 312.051C20.8964 307.635 19.1141 303.237 17.9434 298.864C16.8727 294.866 15.5269 290.981 14.4152 287.001C12.8483 283.422 11.5917 277.729 10.3545 273.693C9.20578 269.945 6.09703 261.623 6.01099 257.942C6.67147 254.707 8.34969 250.628 9.51881 247.622C13.0103 238.649 15.6644 230.118 18.2682 220.896L24.382 199.293L29.0253 182.929C29.7789 180.316 31.6974 174.767 31.9121 172.274C32.9549 161.918 32.3768 151.061 33.3738 140.715C34.482 129.212 34.7345 117.765 35.6488 106.291C37.3948 83.5455 40.1043 60.8846 43.7703 38.3691C45.2107 29.7517 48.445 13.5371 55.0182 7.26806C56.478 5.87564 60.8755 6.29975 62.5277 7.58088C66.1189 10.3653 68.9873 14.2475 71.6769 17.9199C81.305 31.0665 89.5864 45.1479 97.9608 59.1075C100.526 63.3815 102.944 68.1283 105.694 72.2542C105.861 72.3385 106.096 72.5322 106.261 72.272C118.867 52.4346 131.335 32.2471 145.879 13.7446C148.242 10.7385 152.184 5.82931 155.88 4.74887Z"
    fill="black"
  />
  <path
    d="M156.032 7.95506C156.5 7.93539 157.957 7.83383 158.214 8.12974C162.386 12.9126 163.258 22.6732 164.354 28.522C165.744 35.9407 165.818 42.1356 166.444 49.4272C166.829 53.9041 167.342 57.9442 167.579 62.2052C168.912 89.6557 169.586 117.134 169.599 144.617C169.602 146.33 169.753 155.155 169.373 155.957C166.661 155.018 147.117 155.491 142.229 155.491L90.1979 155.494L54.6628 155.489C48.8372 155.488 41.2699 155.28 35.5349 155.575C35.5471 149.992 36.4244 143.704 36.7021 138.082C36.9099 133.877 37.0653 129.664 37.3269 125.466C37.7555 118.793 38.2889 112.127 38.9267 105.471C40.1148 88.7104 41.8281 71.9905 44.0639 55.3369C45.8021 42.716 48.1163 29.2577 52.2647 17.184C53.4296 13.7936 54.8781 11.2421 57.7669 9.04923C59.7962 9.45093 61.1768 10.1801 62.6434 11.6423C65.7197 14.7097 68.6993 18.8556 71.1986 22.4063C80.8468 36.113 89.4043 50.5564 97.8766 65.0039C99.1486 67.1728 103.967 76.155 105.373 77.1524C106.402 77.1651 106.865 76.7152 107.512 75.9025C108.717 74.3876 109.755 72.3243 110.759 70.7243C112.054 68.6593 113.849 65.8667 115.1 63.9246C121.594 53.8425 148.031 11.8017 156.032 7.95506Z"
    fill="#FEFEFE"
  />
  <path
    d="M34.9544 170.846C37.0497 171.33 51.7533 171.107 54.895 171.104L104.091 171.122C104.153 173.138 104.135 175.223 104.144 177.245C95.0967 180.369 91.0687 187.834 89.1981 196.925C86.9459 207.872 87.9526 221.219 94.3228 230.697C96.4296 233.831 100.338 237.055 104.146 237.735L104.154 303.617L104.127 305.675C97.443 306.44 87.6903 306.656 80.9238 306.95C73.6215 307.255 66.3167 307.501 59.0103 307.686C54.4565 307.838 49.8723 308.114 45.3217 308.155L45.3128 220.527C41.5771 218.959 37.2832 217.791 33.3751 216.549C30.6695 215.69 26.2592 214.008 23.6245 213.535C24.2676 209.966 26.0898 204.386 27.1422 200.773L31.8596 184.039C33.0373 179.983 34.8738 174.919 34.9544 170.846Z"
    fill="#FEFEFE"
  />
  <path
    d="M169.082 170.969L169.182 170.949C169.515 171.298 169.373 172.129 169.473 172.795C169.764 174.733 170.154 176.57 170.727 178.437L178.169 202.545C179.303 206.261 180.581 209.924 181.55 213.685C179.776 214.354 176.369 215.879 174.478 216.7C170.929 218.24 163.793 220.604 160.926 222.479C160.934 250.865 161.228 279.778 160.892 308.118C157.258 308.051 153.261 307.787 149.578 307.665C138.589 307.371 127.606 306.873 116.635 306.17C115.251 306.079 107.536 305.817 106.969 305.411L106.917 304.411C106.604 282.443 106.947 259.799 106.896 237.762C108.474 237.417 109.985 236.817 111.37 235.987C128.089 226.176 127.592 182.529 106.953 177.233C106.878 175.278 106.916 173.088 106.907 171.116L146.096 171.12C153.119 171.123 162.307 171.405 169.082 170.969Z"
    fill="#FEFEFE"
  />
  <path
    d="M182.196 216.846C182.371 217.007 196.261 255.379 197.2 258.414C195.655 264.239 193.494 270.977 191.704 276.766L186.793 292.959C185.84 296.028 184.877 299.091 183.952 302.169C183.252 304.497 182.718 306.973 181.831 309.219L179.407 309.004C174.286 308.48 168.899 307.895 163.758 307.665C163.559 298.496 163.737 288.677 163.736 279.453L163.731 224.349C166.127 223.446 169.057 222.089 171.498 221.071C175.044 219.611 178.61 218.203 182.196 216.846Z"
    fill="#FEFEFE"
  />
  <path
    d="M23.9391 216.6C25.4571 217.38 31.6054 219.056 33.7777 219.769C36.0129 220.5 39.9066 221.888 42.0725 222.458L42.067 307.696C37.1376 307.864 31.4466 308.502 26.5076 309.032L24.2895 309.29C23.5194 305.971 22.1382 302.039 21.0683 298.728C16.7718 285.433 13.1261 271.769 8.7666 258.509C11.6498 248.306 16.8637 237.616 19.9879 227.36C21.0627 223.832 22.956 220.208 23.9391 216.6Z"
    fill="#FEFEFE"
  />
  <path
    d="M104.237 180.611C115.745 180.013 119.697 195.733 120.073 204.73C120.52 215.436 118.469 230.244 107.074 234.656L106.985 234.678C104.783 235.192 103.115 234.435 101.193 233.35C87.0222 225.361 87.7045 184.308 104.237 180.611Z"
    fill="#FEFEFE"
  />
  <path
    d="M39.4721 158.734C69.533 159.063 99.8851 158.483 129.965 158.741C142.118 158.845 155.026 158.451 167.104 158.821C167.015 160.375 167.355 167.519 166.768 168.197L165.801 168.239C160.388 168.303 154.894 168.291 149.481 168.25C112.146 167.972 74.7198 168.607 37.3933 168.214C37.3521 165.098 37.3832 161.929 37.3856 158.808L39.4721 158.734Z"
    fill="#FEFEFE"
  />
</svg>
