<svg
  width="180"
  height="320"
  viewBox="0 0 180 320"
  fill="none"
  xmlns="http://www.w3.org/2000/svg"
>
  <path
    d="M52.2345 4.88123C53.478 5.19777 54.0027 5.70158 54.1402 7.02904C54.5758 11.2332 54.6914 15.4253 55.3671 19.61C55.6044 21.079 55.6825 22.7326 55.8539 24.2296L60.7687 65.4225C61.581 72.044 66.9159 107.566 70.7262 110.287C71.0512 110.52 71.114 110.486 71.4866 110.429C76.2461 106.101 81.564 66.4949 83.844 58.1685C85.3095 52.8171 88.6277 34.3507 93.8045 31.7706C102.771 27.3021 105.076 51.9782 105.772 57.2353C106.804 65.027 107.749 72.8297 108.608 80.6422C108.887 83.0623 109.031 85.5484 109.348 87.9517C109.939 92.4202 110.857 96.8397 112.094 101.174C115.681 95.3971 117.372 86.9761 118.929 80.363C124.143 58.2111 127.675 35.6538 131.778 13.2816C131.862 12.8247 132.195 12.6383 132.572 12.4455C135.303 12.12 139.759 23.8828 140.686 26.3338C156.497 68.1874 148.722 113.232 144.31 156.381C142.352 175.527 149.09 195.511 155.337 213.446C155.951 214.896 156.395 216.496 156.93 217.992L160.429 227.612C162.51 233.169 164.588 238.709 166.546 244.311C167.552 247.189 168.681 250.074 169.369 253.046C170.004 255.792 170.11 258.594 170.41 261.383C171.112 267.899 172.182 274.21 171.108 280.761C170.636 283.642 169.925 286.615 168.808 289.318C166.628 294.599 160.681 303.297 156.016 306.607C134.499 321.875 118.039 306.012 96.3938 302.945C93.9957 302.606 91.5883 302.326 89.1614 302.397C68.8023 302.996 48.6264 312.585 28.2416 309.145C21.6769 308.036 15.6662 305.543 11.7286 299.976C4.55707 289.835 3.87061 273.695 4.14397 261.661C4.23538 257.637 4.32105 253.568 5.0594 249.599C5.48587 247.307 6.04536 244.895 6.96132 242.743C7.7117 240.98 8.6938 239.265 9.23762 237.424C11.6568 229.24 13.8463 221.029 16.5023 212.908C19.4552 203.88 22.9423 195.01 26.321 186.135C27.2701 183.642 28.1706 181.125 29.1701 178.652C30.6639 174.955 34.269 167.163 34.6105 163.569C34.8046 161.526 34.613 159.425 34.5172 157.378C34.3616 153.546 34.105 149.719 33.7473 145.901C33.2452 140.216 32.7525 133.467 32.4382 127.739C31.9516 117.362 31.7247 106.975 31.7576 96.5873C31.7398 74.4645 32.8683 51.6745 39.1415 30.2655C40.8703 24.3651 47.3668 8.29854 52.2345 4.88123Z"
    fill="black"
  />
  <path
    d="M51.0804 10.8713C51.5438 11.313 51.6842 13.6676 51.7723 14.3577C52.2741 18.2892 52.6043 22.2527 53.0504 26.1925C53.4011 29.2898 53.8773 32.376 54.1974 35.4753C54.4392 37.8183 54.5586 40.1726 54.8286 42.5127C55.6258 49.4223 56.7079 56.3061 57.6024 63.2025C58.9065 73.2562 62.7475 104.224 67.9519 111.705C68.6055 112.645 69.5084 113.561 70.6848 113.76C73.361 114.213 75.0911 110.603 75.9457 108.588C78.4441 102.698 79.4772 95.8407 80.7581 89.5964C83.5057 76.2019 85.5829 62.6137 89.0432 49.3802C90.0745 45.4355 91.3331 39.9926 93.4572 36.5444C94.1208 35.4672 94.9407 34.6885 95.9558 33.964C100.666 37.7199 102.053 52.1775 102.838 58.0673C103.771 64.7542 104.57 71.4592 105.235 78.178C105.92 84.9871 106.774 95.9131 109.74 102.308C110.071 102.95 111.027 104.049 111.787 104.138C114.779 104.49 116.925 98.7183 117.637 96.6052C121.181 86.0775 123.145 75.2058 125.38 64.3701C127.881 52.3781 130.122 40.3332 132.1 28.2439C132.628 25.0925 133.428 21.6598 133.859 18.6174C141.036 32.8333 143.285 43.9165 145.64 59.3696C149.085 86.3587 145.892 113.884 142.958 140.762C141.475 154.347 139.515 166.879 142.652 180.466C131.727 173.646 118.668 167.185 106.347 163.422C100.964 161.778 95.1261 160.221 89.4767 160.118C71.9928 159.8 47.3626 171.128 32.1113 179.241C33.4037 176.701 37.6034 166.049 37.6302 163.748C37.7462 153.734 36.27 142.438 35.7252 132.453C34.5385 113.872 34.374 95.2397 35.2322 76.6407C35.5218 70.7687 35.6389 65.3001 36.5016 59.4554C37.2877 54.1294 37.81 48.8486 38.8902 43.5451C40.6995 34.5133 43.545 25.7205 47.3705 17.3412C48.3997 15.1325 50.2059 12.8975 51.0126 11.0323L51.0804 10.8713Z"
    fill="#FEFEFE"
  />
  <path
    d="M85.1859 180.253C85.7383 180.193 86.9537 180.216 87.5575 180.209C87.5594 183.76 87.5992 187.311 87.6767 190.86C82.9007 190.9 73.145 191.452 69.374 194.288C67.9018 195.395 66.6295 197.051 66.4887 198.963C66.0974 204.281 69.3271 209.549 70.4413 214.893C71.2742 217.976 71.0785 221.05 71.3336 224.2C72.1039 233.708 77.1305 247.519 88.0414 248.963L88.3835 283.308C88.4448 288.71 88.415 294.13 88.6103 299.526C78.5694 300.053 70.5183 301.69 60.7083 303.694C55.592 304.74 46.5864 306.573 41.3777 306.756C42.3341 303.557 42.6582 299.693 42.7542 296.365C43.0131 290.164 42.979 283.79 42.523 277.597C41.6404 265.611 38.5989 231.634 29.315 223.752C28.0956 222.717 26.5596 221.941 24.9186 222.089C20.9192 222.451 16.7425 227.64 14.2693 230.555C15.891 225.531 17.3968 216.58 20.993 212.848C38.2278 194.97 60.0135 181.691 85.1859 180.253Z"
    fill="#FEFEFE"
  />
  <path
    d="M90.416 180.325C112.419 181.586 131.785 192.197 147.001 207.805C153.927 214.91 152.46 215.481 155.878 223.896C154.36 223.269 152.676 222.87 151.026 222.95C147.562 223.121 144.662 225.076 142.426 227.605C131.856 239.569 127.901 268.48 126.655 284.217C126.255 289.28 125.837 294.411 126.152 299.487C126.224 302.237 126.643 306.577 127.831 309.001C125.684 308.051 121.622 307.174 119.206 306.311C109.339 302.79 101.939 300.085 91.4206 299.512C91.0066 282.904 91.2434 265.632 91.0755 248.945C101.529 245.974 105.877 234.608 106.765 224.705C107.157 220.345 107.263 215.559 108.457 211.391C111.368 201.231 112.747 193.329 99.6783 191.637C96.6747 191.231 93.6154 190.981 90.5115 190.835C90.5473 187.411 90.423 183.79 90.416 180.325Z"
    fill="#FEFEFE"
  />
  <path
    d="M150.086 226.079C151.573 225.958 152.337 226.018 153.801 226.185C155.018 227.797 156.282 230.894 157.145 232.799C160.145 239.43 163.307 247.15 165.273 254.115C167.394 261.627 168.179 276.23 166.649 283.751C165.946 287.221 164.682 290.552 162.907 293.614C160.892 297.165 156.537 303.034 152.855 304.984C150.866 306.037 147.478 306.926 145.254 307.538C140.762 308.519 134.352 310.127 130.37 307.039C129.116 304.351 129.152 299.802 129.095 296.865C128.81 282.254 133.964 230.472 150.086 226.079Z"
    fill="#FEFEFE"
  />
  <path
    d="M25.0734 224.975C25.4102 224.986 25.646 225.039 25.9597 225.144C27.8629 225.78 29.7234 228.865 30.5541 230.541C32.2973 234.056 34.1778 240.523 35.0381 244.244C38.0011 257.061 42.4422 293.627 38.5082 305.434C33.0787 305.9 28.9248 306.533 23.6656 304.878C22.4641 304.365 19.9501 303.39 18.9315 302.69C7.25834 294.68 7.15051 274.915 7.15063 262.178C7.15071 255.417 7.6157 248.904 10.0934 242.952C12.3531 237.524 19.5363 227.218 25.0734 224.975Z"
    fill="#FEFEFE"
  />
  <path
    d="M85.3812 163.379C101.62 161.673 127.54 174.522 141.196 183.15C143.386 187.604 144.82 193.736 146.766 198.48C147.859 201.141 148.244 203.326 149.668 206.017C146.575 203.558 143.297 199.881 139.699 197.054C123.414 184.259 106.514 177.319 85.6973 177.348C62.81 177.184 38.634 191.565 22.6038 207.014C23.1308 205.07 23.9079 202.976 24.6302 201.087C26.883 195.193 28.5735 188.793 31.1198 183.043C34.7627 181.538 39.6544 178.61 43.515 176.827C55.5235 171.28 72.2018 164.08 85.3812 163.379Z"
    fill="#FEFEFE"
  />
  <path
    d="M88.1267 193.973C92.5631 193.901 107.118 193.716 107.543 200.079C107.793 203.817 105.504 209.64 104.868 213.562C104.335 216.844 104.164 219.988 103.995 223.33C103.034 232.4 99.5358 244.9 88.8455 246.138C78.695 244.086 75.3527 233.056 74.3228 223.949C73.8907 220.127 74.0187 217.123 73.1212 212.892C72.2836 208.942 67.4948 201.305 70.3718 197.344C73.876 194.026 83.4539 194.126 88.1267 193.973Z"
    fill="#FEFEFE"
  />
</svg>
