<svg
  width="89"
  height="227"
  viewBox="0 0 89 227"
  fill="none"
  xmlns="http://www.w3.org/2000/svg"
>
  <path
    d="M16.4558 109.91C16.6294 107.472 17.6074 104.198 18.1891 101.776L21.8288 86.8164L34.8823 32.2625C35.9372 27.848 37.1215 23.2492 38.1505 18.8447C38.7906 16.1045 40.794 5.62603 41.8204 3.89277C42.4399 3.43222 44.409 3.47952 45.0142 3.56051C45.7149 3.65427 48.7791 3.34759 49.1127 3.74595C49.6921 4.438 51.3379 13.2235 51.5924 14.4482L56.2373 36.4815L71.6389 109.854C72.3321 110.146 72.5517 110.258 73.0541 111.037C73.3355 113.644 72.9864 116.238 73.3309 118.632C73.5082 119.864 73.9915 121.925 74.246 123.213C74.7441 125.789 75.2284 128.37 75.6986 130.957C78.3438 145.252 81.2401 159.476 83.6182 173.867C84.0221 176.312 85.2096 181.038 85.2123 183.272C85.215 185.406 84.1848 190.205 83.8036 192.629C83.492 194.608 83.3147 196.62 83.023 198.605C82.595 201.515 82.0588 204.398 81.5954 207.297C81.2148 209.679 79.8417 219.854 79.1363 221.291C78.8424 221.889 78.1617 222.016 77.6858 222.117C76.6875 222.329 75.6616 222.367 74.6565 222.506C73.0826 222.723 71.5096 223.02 69.9361 223.257L52.763 225.87C51.7284 226.031 46.967 226.542 46.2126 227H43.4791L43.4442 226.983C42.2751 226.46 37.1761 225.942 35.6873 225.735L21.0259 223.576L14.1409 222.57C13.5902 222.49 9.30142 222.061 9.17714 221.519C7.80753 215.538 7.17988 209.075 5.99408 202.99C5.90258 202.52 5.82552 202.079 5.75336 201.606C5.19683 196.176 4.17534 190.855 3.3163 185.514C2.99433 183.512 3.0064 182.955 3.33916 180.965C4.153 176.099 5.16413 171.286 5.58578 166.302C6.09988 160.69 7.65127 155.132 8.62767 149.655C10.5551 139.349 12.0235 128.83 14.2539 118.669C14.7364 116.487 14.121 113.452 14.5841 111.215C14.8107 109.978 15.7228 109.94 16.4558 109.91Z"
    fill="black"
  />
  <path
    d="M51.991 121.926C58.5719 121.739 65.4149 121.876 72.0152 121.877C72.1307 123.468 73.3747 130.633 73.8228 131.953C72.5904 132.759 71.4649 133.948 70.2544 134.798C68.7786 135.834 67.2829 137.198 65.7597 138.047C65.5048 139.536 65.614 147.488 65.6173 149.366L65.6167 200.086C64.7671 200.274 63.4214 200.392 62.5301 200.517L56.2758 201.4C52.3732 201.955 46.7806 203.025 43.0473 202.816C36.1825 202.431 28.8531 200.722 21.998 200.173L22.0006 153.762L22.001 143.299C22.0009 141.323 22.0667 139.151 21.8802 137.192C21.8574 136.952 21.1697 136.403 20.994 136.299C18.5779 134.858 16.1877 133.34 13.7861 131.848C14.08 131.082 15.3566 123.323 15.5995 121.918C17.9593 121.728 21.3808 121.874 23.8038 121.874C28.1422 121.848 32.4808 121.865 36.8191 121.928L36.7643 122.013C34.2717 125.928 35.7103 132.691 35.7633 137.353C35.8521 145.17 36.6111 152.965 40.5475 158.772C43.1124 162.555 46.6569 162.229 49.0065 158.246C51.5053 153.9 52.8946 148.027 53.0536 142.351C53.1048 137.404 53.7008 132.54 53.6818 127.62C53.6733 125.465 53.1061 123.371 51.991 121.926Z"
    fill="#FEFEFE"
  />
  <path
    d="M43.1097 6.59631L47.915 6.60906C48.4248 8.90658 49.0139 11.3829 49.4257 13.7108C50.8099 21.5348 52.5496 29.275 54.1773 37.006L69.4781 109.941L44.8911 109.943L18.4363 109.914C18.9609 107.308 19.7488 104.511 20.3765 101.916L24.6439 84.321L29.9189 61.7067C32.7154 50.3953 35.4658 39.0598 38.1699 27.7005C38.5459 26.087 38.8585 24.4448 39.2277 22.8244C40.0796 19.1884 40.945 15.559 41.8239 11.9367C42.2136 10.3337 42.8093 8.16715 43.1097 6.59631Z"
    fill="#FEFEFE"
  />
  <path
    d="M69.4236 202.685C72.8142 202.614 76.704 203.053 80.1041 203.277L78.5396 213.05C78.2553 214.831 77.8224 217.234 77.6447 218.98L55.3723 222.351L49.7078 223.214C48.328 223.434 46.1541 223.85 44.8205 223.799C42.1082 223.697 39.1521 223.099 36.433 222.713L19.2184 220.231C16.4401 219.744 13.4458 219.357 10.6535 218.975C10.5839 217.836 10.0771 214.967 9.87802 213.728C9.30031 210.252 8.75231 206.764 8.23413 203.267C12.7278 202.905 17.2883 202.429 21.784 202.939C29.2013 203.779 36.6088 205.101 44.031 205.808C44.9089 205.841 45.7855 205.696 46.6554 205.594C54.2095 204.709 61.8546 202.982 69.4236 202.685Z"
    fill="#FEFEFE"
  />
  <path
    d="M73.9503 135.347C73.9663 135.37 73.9823 135.391 73.9982 135.414C76.7344 149.001 79.5513 162.888 81.9875 176.572C82.4188 178.995 83.2075 182.824 83.1348 183.841L83.1278 183.933C83.0455 185.063 82.6575 186.914 82.4569 188.079L81.202 195.508C80.9554 196.98 80.5811 199.001 80.4439 200.468C79.3716 200.451 78.1849 200.354 77.114 200.261C74.0195 199.924 70.8224 199.709 67.71 199.42C67.6439 192.407 67.7039 185.185 67.7036 178.158L67.7091 139.92C69.1407 138.74 70.5946 137.892 72.0386 136.773C72.6911 136.266 73.2651 135.775 73.9503 135.347Z"
    fill="#FEFEFE"
  />
  <path
    d="M13.5918 135.167C15.8495 136.35 17.5199 137.479 19.8743 138.573C19.9607 140.779 19.9087 143.685 19.9089 145.931L19.909 159.108L19.9022 199.43C17.4984 199.563 14.2365 199.884 11.8559 200.187C10.4467 200.248 9.01366 200.402 7.59058 200.467C7.01913 195.115 6.0287 189.539 5.67494 184.151C5.54727 181.024 6.19354 177.846 6.48835 174.814C7.35441 165.909 9.21147 157.655 10.8848 149.056L12.7138 139.788C12.9443 138.638 13.5109 136.181 13.5918 135.167Z"
    fill="#FEFEFE"
  />
  <path
    d="M42.1205 122.444C44.0803 122.504 46.1238 122.407 48.0589 122.622C49.1581 122.745 50.3332 123.485 51.0068 124.785C51.484 125.705 51.5621 126.792 51.5869 127.94C51.655 131.101 51.2921 134.368 51.1227 137.533C51.0046 139.741 51.068 142.478 50.8078 144.597C50.1456 149.988 49.5483 154.105 46.4013 157.545C44.6457 159.107 43.482 158.404 42.0437 156.602C38.2277 151.821 38.071 144.233 37.8482 137.461C37.7455 135.037 37.4991 132.627 37.4111 130.204C37.1983 124.339 38.1664 122.714 42.1205 122.444Z"
    fill="#FEFEFE"
  />
  <path
    d="M16.5173 112.998L71.2659 113L71.2701 119.081L16.5183 119.075L16.5173 112.998Z"
    fill="#FEFEFE"
  />
</svg>
