<svg
  width="256"
  height="584"
  viewBox="0 0 256 584"
  fill="none"
  xmlns="http://www.w3.org/2000/svg"
>
  <path
    d="M121.509 7.53078C126.011 7.25027 138.962 7.02745 142.759 8.25088C143.591 9.41141 144.446 10.7298 144.786 12.1251C146.794 20.3645 148.665 28.7235 150.633 36.973L165.895 102.844L186 187.094C192.822 217.891 199.965 248.616 207.429 279.264C208.617 280.49 211.182 282.058 211.729 283.659C213.462 288.724 212.135 294.766 212.641 300.024C212.963 303.378 213.913 307.196 214.63 310.495L228.265 375.117C229.842 382.865 230.868 390.673 233.032 398.36C233.491 400.699 233.993 403.048 234.431 405.387C236.121 414.418 238.626 423.066 240.886 431.929L246.96 456.566C248.103 461.081 250.427 467.548 250.783 471.991C251.165 476.747 248.139 485.019 247.121 489.901C245.56 497.387 243.588 504.781 241.85 512.226C241.348 514.376 239.33 516.806 238.806 519.024C237.927 523.342 237.501 527.08 236.694 531.537C235.839 536.256 235.313 539.781 234.222 544.902C233.06 550.121 231.371 564.954 228.805 568.753C221.511 571.567 201.878 573.255 194.936 574.282C183.184 576.021 176.155 577.105 165.651 578.191C154.763 579.321 145.311 581.568 135.238 582.104C133.493 582.417 130.189 582.948 128.463 582.785C114.471 581.476 100.472 579.369 86.5056 577.652C71.0295 575.887 55.5823 573.877 40.1696 571.621C35.1339 570.857 29.4469 570.863 24.7999 568.536C24.1686 568.219 23.6854 566.95 23.5641 566.272C21.6861 557.594 20.541 548.661 18.9318 539.955C16.9585 529.276 15.1164 518.54 13.2279 507.863L8.65287 481.766C7.93188 477.776 6.41284 472.915 6.3619 468.937C6.33775 467.049 7.65162 462.697 8.09161 460.408L13.0175 434.678L23.3961 379.917L28.2087 354.823C29.466 348.487 31.014 343.385 31.8068 336.71C32.7618 328.671 35.2959 320.481 36.6266 312.337C37.2903 308.277 38.511 304.575 38.9369 300.138C39.4207 295.1 38.0121 287.842 40.1924 283.365C41.1305 281.438 42.8558 281.038 44.696 280.575C46.0325 277.738 46.4532 275.093 47.286 272.059C48.8841 266.21 50.4369 260.348 51.9438 254.474L65.0184 205.475L107.616 47.2963C109.776 39.536 111.548 31.5859 113.843 23.7884C115.159 19.3144 115.941 13.4695 118.118 9.32914C118.793 8.04611 120.192 7.82694 121.509 7.53078Z"
    fill="black"
  />
  <path
    d="M46.3371 313.675C53.3249 313.401 61.3969 313.578 68.4506 313.578H108.005C140.317 313.575 173.182 313.247 205.45 313.612C206.214 320.573 208.014 326.761 209.273 333.556C211.071 343.257 213.403 352.955 215.191 362.622C209.688 365.374 178.586 378.109 176.393 380.624C175.373 381.793 175.232 384.815 175.183 386.338C175.076 389.726 175.361 393.188 175.477 396.578L175.878 412.479L177.886 484.289C178.004 491.447 178.176 498.607 178.401 505.762C174.343 506.053 169.1 506.917 164.936 507.481L145.541 509.973C141.468 510.492 135.984 511.425 131.953 511.319C114.529 510.857 96.4658 507.193 79.1459 505.496C79.793 496.309 79.7662 484.723 80.0325 475.259L81.5833 420.851L82.1594 397.87C82.2718 393.444 82.798 385.377 81.9106 381.391C78.454 376.965 54.2777 369.294 48.4957 365.901C46.6094 364.795 39.5055 362.177 37.3013 361.701C37.9139 356.231 39.3801 350.831 40.3864 345.45C42.3124 335.153 44.9645 323.98 46.3371 313.675Z"
    fill="#FEFEFE"
  />
  <path
    d="M126.575 17.8163C129.768 17.7218 132.965 17.7665 136.154 17.9503C137.35 25.0343 139.222 31.5782 140.773 38.54C144.806 56.6905 149.068 74.7894 153.556 92.8326C156.223 103.781 158.633 115.365 161.193 126.39L179.88 206.266C184.179 224.577 188.794 242.807 192.769 261.211C194.205 267.862 195.931 273.772 197.164 280.632L125.862 280.638L55.5947 280.565C57.3129 274.881 58.5088 269.321 60.0248 263.612L70.7218 223.355L107.275 87.541C111.686 70.5742 116.244 53.6459 120.949 36.7584C122.554 30.9569 123.799 25.0093 125.546 19.2453C125.853 18.2318 125.828 18.283 126.575 17.8163Z"
    fill="#FEFEFE"
  />
  <path
    d="M78.3976 513.047C83.46 512.816 87.418 513.398 92.4269 513.946C99.4164 514.713 106.396 515.571 113.363 516.521C118.338 517.162 124.257 518.192 129.265 518.126C145.086 517.921 160.935 513.88 176.776 513.07C179.613 512.925 183.301 514.171 186.284 514.322L228.716 516.486C228.317 523.47 226.15 531.876 224.93 538.934C223.85 545.187 222.828 554.615 220.919 560.506C216.75 561.393 209.296 562.271 205.015 562.802C195.09 564.031 185.493 565.086 175.588 566.571C166.469 567.991 156.876 569.012 147.698 570.127C143.298 570.66 133.164 572.605 129.198 572.508C121.841 572.329 112.411 570.187 104.78 569.568C93.765 568.673 82.7607 566.722 71.8665 565.348L32.9237 560.557C31.8928 555.963 31.4239 551.372 30.5213 546.816C28.54 536.807 26.7478 526.926 25.4272 516.8C30.813 516.161 36.5581 516.475 41.787 515.876C52.9151 514.602 67.7984 515.659 78.3976 513.047Z"
    fill="#FEFEFE"
  />
  <path
    d="M42.1266 373.652C46.3335 376.152 53.1315 378.753 57.8281 380.809C61.7397 382.52 68.6445 385.814 72.4817 387.034C71.7681 397.622 71.655 410.311 71.3015 421.01C70.4069 448.805 69.6834 476.602 69.1306 504.404C62.3329 504.752 55.5327 505.057 48.7307 505.32C40.716 505.673 32.6985 505.964 24.6791 506.184C23.668 502.149 22.748 496.072 21.9951 491.869C20.9452 486.003 18.9088 477.391 19.1451 471.683C19.4004 465.806 20.9114 459.86 21.799 454.074C24.7331 434.949 29.9458 416.491 35.114 397.89C37.2942 390.04 38.8602 381.134 42.1266 373.652Z"
    fill="#FEFEFE"
  />
  <path
    d="M214.389 374.148L214.689 374.233C215.709 375.876 219.586 391.676 220.33 394.431L231.419 435.975C234.253 446.686 237.001 457.356 239.51 468.152C241.029 473.679 239.271 478.806 238.2 484.17C236.729 491.53 234.409 498.935 233.062 506.286L212.452 505.485C205.075 504.886 195.887 504.761 188.366 504.399C187.753 488.313 187.641 471.743 187.283 455.628C186.61 432.71 186.053 409.79 185.613 386.869C192.758 384 199.699 380.515 206.778 377.49C209.334 376.398 211.904 375.4 214.389 374.148Z"
    fill="#FEFEFE"
  />
  <path
    d="M49.5078 290.637L202.721 290.654C202.733 294.877 202.807 299.274 202.624 303.478C169.107 303.965 135.428 303.335 101.893 303.572C84.4593 303.694 66.8734 303.68 49.4505 303.475C49.4046 299.166 49.3385 294.946 49.5078 290.637Z"
    fill="#FEFEFE"
  />
</svg>
