<svg
  width="122"
  height="307"
  viewBox="0 0 122 307"
  fill="none"
  xmlns="http://www.w3.org/2000/svg"
>
  <g clip-path="url(#clip0_205_11)">
    <path
      d="M46.3124 306.43C42.9934 305.674 38.8355 305.804 35.3085 305.126C25.7663 303.292 15.7215 299.56 9.03992 292.227C8.01157 291.098 6.93746 290.023 6.16229 288.686C4.34183 285.747 2.81496 282.096 1.69986 278.829C1.44327 277.644 1.47731 276.297 1.37482 275.107C0.88391 269.407 1.45203 263.552 2.50907 257.944C2.79038 256.867 3.06098 255.73 3.38858 254.67C4.66464 250.698 5.55264 246.175 7.03779 242.301C9.00462 237.172 10.3751 231.957 12.1726 226.801C13.4536 223.127 15.1078 219.44 16.1287 215.633C17.2891 211.306 18.3699 207 19.2405 202.604C23.0396 183.005 26.2345 163.294 28.8204 143.497C30.5011 130.824 31.639 118.051 33.5512 105.413C33.6747 104.597 33.7977 103.792 33.9007 102.972C35.0576 92.977 36.2882 82.9904 37.5925 73.0132C37.9197 70.6575 38.4329 68.3273 38.768 65.9719C39.8995 58.0243 41.0639 50.0896 42.5867 42.2041C43.0112 40.0062 43.7196 37.713 44.2034 35.4827C45.2144 30.865 46.3117 26.2738 47.7637 21.7724C48.124 20.6556 48.9311 19.062 49.2651 18.1024C55.1666 1.13814 67.1674 0.905845 73.2037 17.7388C73.6787 19.0635 74.5547 20.8778 75.0144 22.3218C76.3687 26.5755 77.3902 30.9276 78.3553 35.2831C78.8319 37.4349 79.4021 39.5461 79.8777 41.6959C81.328 49.4289 82.5295 57.2148 83.6007 65.0089C83.9698 67.6947 84.5247 70.3439 84.8851 73.016C86.1516 82.9725 87.3249 92.9405 88.4048 102.919C88.8066 106.424 89.4303 109.787 89.8192 113.265C91.2695 126.234 92.6438 139.23 94.2461 152.181C94.6521 155.462 95.2905 158.887 95.7311 162.27C96.7976 170.464 97.8561 178.941 99.2451 187.081C100.631 195.201 102.966 203.284 104.42 211.428C104.702 213.008 104.502 212.882 104.456 214.206C104.454 214.269 105.212 216.896 105.276 217.131C106.582 221.891 108.609 226.546 110.486 231.106C111.747 234.172 112.749 237.585 113.938 240.664C115.362 244.355 116.536 247.572 117.609 251.412C118.638 255.091 119.287 258.418 119.937 262.195C121.12 269.064 122.718 276.141 121.022 283.072C120.608 284.766 119.991 285.527 119.284 286.968C116.642 292.355 110.666 296.378 105.515 299.385C100.425 302.358 91.8787 304.853 85.9364 305.52C84.283 305.706 79.3481 306.051 78.099 306.43H46.3124Z"
      fill="black"
    />
    <path
      d="M60.4411 8.39063C62.1021 8.27921 63.466 8.6407 64.8041 9.64786C75.8032 17.9266 81.7269 72.7184 83.5943 87.8265L88.668 130.839C89.0369 133.783 89.5238 136.7 89.8855 139.659C91.1311 150.614 92.4866 161.556 93.9516 172.485C94.2962 174.931 94.8104 177.372 95.2195 179.812C95.8409 183.668 96.42 187.53 96.9571 191.397C95.9689 190.073 94.8269 189.193 93.7256 188.019C84.5691 178.256 72.2898 169.931 58.3442 171.071C58.0845 171.102 57.8254 171.137 57.5669 171.177C43.6695 173.269 32.1715 183.119 24.0618 194.083C27.8849 171.725 31.1846 149.282 33.958 126.77L39.1567 85.0637C40.577 73.8724 41.9037 62.8251 44.022 51.7408C45.7165 42.874 46.9337 34.0303 49.8714 25.4335C51.8406 19.6709 54.098 10.6959 60.4411 8.39063Z"
      fill="#FEFEFE"
    />
    <path
      d="M58.488 189.632C58.7338 189.611 58.9797 189.591 59.2258 189.576C73.0763 188.695 85.5438 196.802 95.5368 205.574C97.2385 207.067 98.7995 208.876 100.669 210.515C101.12 212.11 101.542 214.377 101.901 216.04C96.218 217.757 91.1283 221.963 88.148 227.065C86.6616 229.653 85.6682 232.495 85.2182 235.445C83.6448 245.216 86.364 259.765 88.4717 269.573C88.8901 271.519 89.7926 274.421 90.3277 276.476C87.81 276.93 85.0156 277.175 82.4673 277.584C75.5196 278.7 69.0018 279.322 61.9531 279.494C51.767 279.638 40.4829 277.825 30.3067 276.442C31.0152 274.084 31.5769 271.536 32.215 269.057C34.984 258.299 38.3137 243.712 35.9045 232.797C34.9228 228.348 29.5821 222.244 25.7628 219.895C23.8765 218.734 21.1009 217.305 19.0571 216.154C19.5824 215.056 20.8368 213.422 21.6765 212.49C30.9001 202.235 44.3607 190.938 58.488 189.632Z"
      fill="#FEFEFE"
    />
    <path
      d="M29.1399 279.43C29.596 279.415 31.8894 279.773 32.4745 279.854C34.6152 280.147 36.7582 280.422 38.9035 280.681C45.965 281.546 53.3679 282.3 60.4681 282.345C70.5566 282.39 80.5222 280.887 90.5 279.631C93.6185 279.237 98.439 279.705 101.723 279.809C107.239 279.984 112.909 280.147 118.412 280.486C118.03 282.331 117.549 284.227 116.589 285.865C112.525 292.797 102.15 298.503 94.6177 300.572C84.1273 303.331 73.4516 303.735 62.6933 302.908C62.146 302.866 61.0744 302.756 60.5698 302.797C40.7395 304.332 13.5255 302.239 5.47925 280.446C13.1812 279.948 21.3904 279.746 29.1399 279.43Z"
      fill="#FEFEFE"
    />
    <path
      d="M102.275 219.117L102.416 219.185C102.966 220.131 103.398 221.644 103.863 222.681C105.44 226.016 106.543 229.529 107.875 232.946C109.96 238.298 112.027 243.552 113.673 249.067C114.407 251.527 115.417 253.934 115.975 256.464C117.496 263.35 117.929 270.275 118.405 277.274C113.919 277.246 109.159 277.015 104.673 276.809C100.958 276.69 96.9258 276.635 93.2406 276.388C90.5231 265.093 84.6851 242.214 89.2838 231.646C92.129 225.108 95.6832 221.729 102.275 219.117Z"
      fill="#FEFEFE"
    />
    <path
      d="M18.1905 219.241C26.9104 222.877 34.0058 229.788 33.8931 239.84C33.7883 249.173 31.5965 258.459 29.6143 267.553C28.9564 270.571 27.9229 273.394 27.1719 276.367C25.3919 276.614 21.7157 276.629 19.8022 276.686C14.7464 276.957 9.68706 277.156 4.6256 277.283C4.10691 271.081 4.54315 263.024 5.81606 256.904C6.4525 253.846 7.50489 251.002 8.45372 248.045L13.6827 232.228C14.6086 229.441 16.9398 221.5 18.1905 219.241Z"
      fill="#FEFEFE"
    />
    <path
      d="M59.8298 173.031C74.9145 172.141 88.1711 183.988 97.1896 194.822C100.569 198.882 101 204.05 101.905 209.132C101.401 208.507 100.752 207.832 100.168 207.272C89.01 196.589 76.5125 187.551 60.5624 187.618C59.219 187.64 57.8784 187.744 56.5475 187.928C44.537 189.593 32.9597 198.121 24.6531 206.548C23.0439 208.181 21.5502 209.475 20.1587 211.309C20.9536 208.179 22.9394 198.91 24.5405 196.719C32.9185 185.249 44.9621 174.029 59.8298 173.031Z"
      fill="#FEFEFE"
    />
  </g>
  <defs>
    <clipPath id="clip0_205_11">
      <rect width="122" height="306.43" fill="white" />
    </clipPath>
  </defs>
</svg>
