<svg
  width="464"
  height="98"
  viewBox="0 0 464 98"
  fill="none"
  xmlns="http://www.w3.org/2000/svg"
>
  <path
    d="M463.019 86.1989C465.652 75.0994 459.084 62.2974 457.546 51.5089C456.368 43.2364 459.7 3.19641 448.521 2.06641C446.563 3.98991 446.833 26.1984 445.135 30.0599C444.898 30.5994 444.291 32.9839 444.02 33.7824C442.686 29.1894 440.528 11.5484 438.099 9.76541C434.988 11.4429 433.795 22.7794 433.253 26.3179C433.008 26.9569 432.627 27.6864 432.321 28.3144L431.772 28.1614L430.925 25.5839C430.01 21.3584 428.903 11.0559 426.752 8.27691L425.883 8.09191C416.967 15.4524 423.663 42.6009 422.506 52.3854C421.315 62.4524 415.713 69.7009 415.368 80.6484C415.636 86.6214 415.473 89.2259 419.992 93.6079C428.801 96.3589 430.232 93.6089 438.219 93.7439C445.586 93.8684 462.602 99.8614 463.019 86.1989Z"
    fill="#E3DDC7"
  />
  <path
    d="M459.647 65.3009C450.357 59.4644 447.95 55.0719 434.324 57.2589C427.313 58.3839 422.831 64.1374 419.814 65.1044C418.16 69.8914 416.414 74.5374 416.525 79.6839L415.368 80.6484C415.636 86.6214 415.473 89.2259 419.992 93.6079C428.801 96.3589 430.232 93.6089 438.219 93.7439C445.586 93.8684 462.602 99.8614 463.02 86.1989L462.52 80.6434C462.107 74.0564 461.561 71.6684 459.647 65.3009Z"
    fill="#FEFEFE"
  />
  <path
    d="M416.525 79.6836L415.368 80.6481C415.636 86.6211 415.473 89.2256 419.992 93.6076C428.801 96.3586 430.232 93.6086 438.219 93.7436C445.586 93.8681 462.602 99.8611 463.02 86.1986L462.52 80.6431C462.015 84.2246 461.612 87.5481 458.364 89.8936C457.131 90.7991 455.576 91.1506 454.073 90.8636C450.185 90.1506 447.863 86.8376 445.725 83.8831C439.731 93.1021 437.776 91.0116 428.72 87.1926C419.667 89.2121 416.524 90.0501 416.525 79.6836Z"
    fill="#C1BCB7"
  />
  <path
    d="M463.019 86.1989C465.652 75.0994 459.084 62.2974 457.546 51.5089C456.368 43.2364 459.7 3.19641 448.521 2.06641C446.563 3.98991 446.833 26.1984 445.135 30.0599C444.898 30.5994 444.291 32.9839 444.02 33.7824C442.686 29.1894 440.528 11.5484 438.099 9.76541C434.988 11.4429 433.795 22.7794 433.253 26.3179C433.008 26.9569 432.627 27.6864 432.321 28.3144L431.772 28.1614L430.925 25.5839C430.01 21.3584 428.903 11.0559 426.752 8.27691L425.883 8.09191C416.967 15.4524 423.663 42.6009 422.506 52.3854C421.315 62.4524 415.713 69.7009 415.368 80.6484L416.525 79.6839C416.414 74.5374 418.16 69.8914 419.814 65.1044C420.755 61.1654 423.16 57.2574 423.501 52.6284C423.834 48.1109 423.471 44.3584 422.945 39.8614C421.432 26.9214 421.338 19.5229 426.503 7.57291C427.188 15.2899 432.966 44.6284 439.98 46.4674C446.78 44.3189 448.149 9.6409 448.846 2.1524C458.88 15.4819 455.223 33.4514 456.132 48.8394C456.397 53.3329 458.493 60.7364 459.647 65.3009C461.561 71.6684 462.107 74.0564 462.52 80.6434L463.019 86.1989Z"
    fill="#737071"
  />
  <path
    d="M438.145 11.2607C437.687 11.6012 437.287 12.0562 436.88 12.4567C435.487 16.6897 432.574 29.1077 433.588 33.2072C434.659 37.5392 436.652 41.7207 439.142 45.4197C439.416 45.6607 439.771 45.6727 440.121 45.7512C440.504 45.3862 440.858 44.9892 441.101 44.5147C441.912 42.9282 442.725 40.7807 442.861 39.0067C443.357 32.4972 440.049 17.7127 438.145 11.2607Z"
    fill="#B7B2AB"
  />
  <path
    d="M433.253 26.3177C432.642 26.0257 431.606 25.7772 430.925 25.5837L431.771 28.1612L432.32 28.3142C432.627 27.6862 433.007 26.9567 433.253 26.3177Z"
    fill="#E3DDC7"
    fill-opacity="0.0156863"
  />
  <path
    d="M384.321 94.5102C403.236 92.3692 389.963 59.6317 388.219 49.3412C386.991 42.0952 390.083 7.41766 381.164 5.06416C376.433 7.84016 377.041 41.5962 369.946 45.0902C362.902 43.7302 363.321 5.12067 360.753 2.71167C357.812 3.38317 356.639 7.46667 355.705 10.0962C353.065 18.2147 351.731 30.0267 353.131 38.5157C355.704 54.1102 345.829 62.0162 344.91 76.6117C343.649 96.6337 353.472 94.7467 368.729 92.4447C369.718 92.2952 377.827 94.0177 380.41 94.1547C382.11 94.5032 382.581 94.5247 384.321 94.5102Z"
    fill="#FEFEFE"
  />
  <path
    d="M384.321 94.5102C403.236 92.3692 389.963 59.6317 388.219 49.3412C386.991 42.0952 390.083 7.41766 381.164 5.06416C376.433 7.84016 377.041 41.5962 369.946 45.0902C362.902 43.7302 363.321 5.12067 360.753 2.71167C357.812 3.38317 356.639 7.46667 355.705 10.0962C353.065 18.2147 351.731 30.0267 353.131 38.5157C355.704 54.1102 345.829 62.0162 344.91 76.6117C343.649 96.6337 353.472 94.7467 368.729 92.4447C369.718 92.2952 377.827 94.0177 380.41 94.1547C373.441 89.3257 361.911 92.8287 355.099 92.5102C341.793 93.2387 345.768 73.1362 348.46 65.5862C350.533 65.4007 355.746 60.0147 359.131 58.2407C365.324 54.9282 374.986 55.4147 381.315 58.1557C384.28 59.4402 387.402 63.5547 390.847 64.3552C393.444 72.9912 395.621 83.2547 388.934 90.7627C387.241 92.3572 386.187 93.1512 384.321 94.5102Z"
    fill="#E3DDC7"
  />
  <path
    d="M384.321 94.5102C403.236 92.3692 389.963 59.6317 388.219 49.3412C386.991 42.0952 390.083 7.41766 381.164 5.06416C376.433 7.84016 377.041 41.5962 369.946 45.0902C362.902 43.7302 363.321 5.12067 360.753 2.71167C357.812 3.38317 356.639 7.46667 355.705 10.0962C353.065 18.2147 351.731 30.0267 353.131 38.5157C355.704 54.1102 345.829 62.0162 344.91 76.6117C343.649 96.6337 353.472 94.7467 368.729 92.4447C369.718 92.2952 377.827 94.0177 380.41 94.1547C373.441 89.3257 361.911 92.8287 355.099 92.5102C341.793 93.2387 345.768 73.1362 348.46 65.5862C349.757 60.5902 353.65 55.0247 354.045 49.6262C354.664 41.1807 351.44 8.53766 360.581 4.45667C361.625 7.51967 361.563 24.9912 363.038 29.5242C364.645 34.4652 364.669 43.8977 369.009 46.7532C377.73 47.0022 377.352 9.40617 381.563 6.93467C388.015 11.9567 386.517 40.7742 387.321 49.3482C387.857 55.0662 389.1 58.9547 390.847 64.3552C393.444 72.9912 395.621 83.2547 388.934 90.7627C387.241 92.3572 386.187 93.1512 384.321 94.5102Z"
    fill="#818081"
  />
  <path
    d="M368.626 85.1555C364.689 87.684 359.499 91.255 355.099 92.51C361.911 92.8285 373.442 89.3255 380.411 94.1545C382.11 94.503 382.582 94.5245 384.322 94.51C386.187 93.151 387.242 92.357 388.934 90.7625C382.536 92.1485 378.999 91.9285 373.267 88.244C371.712 87.2265 370.165 86.197 368.626 85.1555Z"
    fill="#B7B2AB"
  />
  <path
    d="M322.162 87.7912C327.209 71.8707 319.124 63.6492 317.68 50.1897C316.224 36.6342 320.683 21.4952 313.4 7.34473C312.741 6.06473 312.162 5.08873 310.734 4.65673C306.205 6.83673 308.486 17.8842 306.484 21.6357C304.338 20.1162 303.408 11.3887 299.88 9.33373L298.994 9.75224C296.935 13.1462 296.377 23.7667 295.228 28.9852L294.312 32.4672L293.799 32.6172L292.978 30.4912C290.074 20.1277 289.347 13.8442 287.99 3.30273C280.91 11.6932 279.983 28.1572 282.032 38.4312C285.656 56.6042 273.432 65.1942 274.499 82.0797C275.56 98.8867 290.299 92.4302 300.881 91.7832C305.607 91.6217 315.116 96.4132 319.086 92.1512C320.799 91.0012 321.272 89.6377 322.162 87.7912Z"
    fill="#E3DDC7"
  />
  <path
    d="M319.792 63.1111C316.849 61.8776 315.909 60.9896 313.252 59.6261C306.693 56.2606 298.271 54.5552 291.149 57.0412C287.42 58.3427 281.822 63.8601 278.743 64.7011C275.639 72.3896 273.032 82.8112 278.701 89.9932C283.965 95.6582 293.668 90.6476 300.554 90.7231C307.576 90.8001 311.742 94.8271 318.524 92.0116L319.086 92.1512C320.799 91.0012 321.272 89.6377 322.162 87.7912L321.289 85.2197C323.987 77.0812 322.14 71.0296 319.792 63.1111Z"
    fill="#FEFEFE"
  />
  <path
    d="M306.441 82.9355C304.263 85.086 302.027 87.4365 299.584 89.2545C297.339 88.281 293.72 86.604 291.502 85.9115C285.789 90.082 285.549 90.77 278.701 89.993C283.965 95.658 293.668 90.6475 300.554 90.723C307.576 90.8 311.742 94.827 318.524 92.0115L319.086 92.151C320.799 91.001 321.272 89.6375 322.162 87.791L321.289 85.2195C315.959 94.046 310.838 88.738 306.441 82.9355Z"
    fill="#C1BCB7"
  />
  <path
    d="M322.162 87.7912C327.209 71.8707 319.124 63.6492 317.68 50.1897C316.224 36.6342 320.683 21.4952 313.4 7.34473C312.741 6.06473 312.162 5.08873 310.734 4.65673C306.205 6.83673 308.486 17.8842 306.484 21.6357C304.338 20.1162 303.408 11.3887 299.88 9.33373L298.994 9.75224C296.935 13.1462 296.377 23.7667 295.228 28.9852L294.312 32.4672L293.799 32.6172L292.978 30.4912C290.074 20.1277 289.347 13.8442 287.99 3.30273C280.91 11.6932 279.983 28.1572 282.032 38.4312C285.656 56.6042 273.432 65.1942 274.499 82.0797C275.56 98.8867 290.299 92.4302 300.881 91.7832C305.607 91.6217 315.116 96.4132 319.086 92.1512L318.524 92.0117C311.742 94.8272 307.576 90.8002 300.554 90.7232C293.668 90.6477 283.965 95.6582 278.701 89.9932C273.032 82.8112 275.639 72.3897 278.743 64.7012C282.249 53.2912 284.954 52.8332 283.11 39.3692C281.436 27.1497 281.926 16.1422 287.269 4.83173C287.382 6.54373 287.508 8.25523 287.649 9.96523C288.305 17.3792 293.416 41.4912 298.363 45.6472C306.557 47.2127 309.035 10.2857 310.15 3.98724C319.142 20.5147 315.893 30.2772 316.423 47.9512C316.558 52.4542 318.446 58.7102 319.792 63.1112C322.14 71.0297 323.987 77.0812 321.289 85.2197L322.162 87.7912Z"
    fill="#737071"
  />
  <path
    d="M299.937 10.3521C299.667 10.5276 299.065 11.02 298.911 11.2855C298.236 12.4525 298.22 16.2425 298.001 17.834C297.201 23.6325 296.344 29.3075 294.529 34.899C295.407 38.045 296.798 43.5875 299.636 45.4625C301.739 42.3965 303.266 38.2015 304.238 34.623C306.567 26.046 304.242 17.9366 299.937 10.3521Z"
    fill="#B7B2AB"
  />
  <path
    d="M295.228 28.9851C293.388 29.4226 293.978 29.0056 292.978 30.4911L293.799 32.6171L294.312 32.4671L295.228 28.9851Z"
    fill="#C1BCB7"
    fill-opacity="0.0117647"
  />
  <path
    d="M237.251 1.97437C236.523 2.19887 235.761 2.47986 235.155 2.95486C228.241 8.37236 226.31 35.1394 225.022 44.0334C224.095 50.4344 223.007 56.8104 221.759 63.1559C220.353 69.9819 217.172 76.5334 216.351 83.4314C216.063 85.8519 216.034 88.9919 217.67 90.9879C220.557 94.5104 227.181 94.8634 231.367 95.2024C237.241 95.4259 245.3 94.9669 250.419 91.7869C251.916 90.8569 252.803 89.6024 253.17 87.8769C254.737 80.4994 248.841 70.5819 247.546 63.1939C245.05 48.9589 244.592 12.8539 237.251 1.97437Z"
    fill="#737071"
  />
  <path
    d="M247.119 67.2808C245.729 58.1563 241.182 7.76935 236.785 3.68335C229.921 6.04085 227.089 36.5214 226.022 43.7844C224.895 51.7314 223.503 59.6379 221.847 67.4914C220.551 72.5089 213.606 87.8764 219.462 91.5144C226.041 95.6019 246.14 95.5004 251.467 89.4264C254.586 85.8699 248.368 71.8978 247.119 67.2808Z"
    fill="#FEFEFE"
  />
  <path
    d="M247.119 67.2808C245.729 58.1563 241.182 7.76935 236.785 3.68335C229.921 6.04085 227.089 36.5214 226.022 43.7844C224.895 51.7314 223.503 59.6379 221.847 67.4914C224.932 66.4764 228.352 58.5839 233.748 58.4034C240.739 58.1694 242.597 63.7249 246.825 67.0534L247.119 67.2808Z"
    fill="#E3DDC7"
  />
  <path
    d="M176.275 2.37134C175.567 2.47134 174.896 2.78984 174.232 3.04684C168.158 10.6493 165.992 51.0893 163.531 63.3163C162.161 70.1268 158.35 76.8008 157.682 83.6588C157.466 85.8718 157.649 89.5198 159.219 91.2753C162.258 94.6743 171.694 94.4768 176.012 94.8533C180.938 94.5558 188.555 94.9973 192.699 92.0833C194.026 91.1508 194.706 89.8103 194.974 88.2358C196.313 80.3808 191.321 71.6403 189.813 64.0503C186.561 47.6848 185.289 15.3433 176.275 2.37134Z"
    fill="#818081"
  />
  <path
    d="M189.196 67.3838C187.514 55.2888 181.93 11.7798 175.841 3.98328L174.983 3.82178C170.247 7.19928 166.127 58.6903 163.302 68.6688C160.836 75.8248 158.373 80.3898 158.628 88.0828C160.501 92.9158 165.639 93.5023 170.199 92.4143C173.971 93.6518 177.022 94.5363 181.003 92.9343C185.347 93.7313 192.903 93.3913 194.146 88.1178C193.798 80.2428 191.756 74.7683 189.196 67.3838Z"
    fill="#FEFEFE"
  />
  <path
    d="M189.196 67.3838C187.514 55.2888 181.93 11.7798 175.841 3.98328L174.984 3.82178C170.247 7.19928 166.127 58.6903 163.303 68.6688C168.965 65.9748 170.933 54.2623 181.279 60.3233C184.919 62.4563 186.212 66.4998 189.196 67.3838Z"
    fill="#E3DDC7"
  />
  <path
    d="M194.146 88.1179C189.018 88.4334 185.209 90.0179 181.003 92.9344C185.347 93.7314 192.903 93.3914 194.146 88.1179Z"
    fill="#B7B2AB"
  />
  <path
    d="M158.627 88.0828C160.5 92.9158 165.638 93.5023 170.199 92.4143C167.073 90.4733 162.245 89.1748 158.627 88.0828Z"
    fill="#C1BCB7"
  />
  <path
    d="M121.648 0.820312C121.421 0.936312 121.321 0.981308 121.091 1.13331C116.892 3.92231 114.864 14.5433 113.864 19.1508C110.911 32.7588 110.842 46.5418 109.1 60.2788C108.263 66.8863 105.88 73.6068 105.625 80.2223C105.519 82.9858 105.708 85.9728 107.292 88.3358C109.903 92.2333 115.734 95.5773 120.325 96.4043C121.24 96.3603 122.133 96.2628 123.023 96.0373C128.851 94.5578 133.414 90.4168 136.481 85.4013C136.572 83.7793 136.649 82.1413 136.583 80.5173C136.329 74.3208 134.175 68.1098 133.429 61.9248C131.891 49.1858 130.721 9.21431 121.648 0.820312Z"
    fill="#737071"
  />
  <path
    d="M132.726 65.8188C131.656 55.1328 128.751 9.38927 121.773 2.81177C113.261 6.11477 110.284 58.5238 108.63 69.0423C106.085 80.0148 103.116 95.2233 122.938 94.8503C127.334 94.7678 132.881 89.2468 135.468 85.4538C135.811 77.6233 134.466 73.4098 132.726 65.8188Z"
    fill="#E3DDC7"
  />
  <path
    d="M132.726 65.8189C127.317 62.5379 123.271 48.9264 114.112 61.3034C112.406 63.6099 110.969 67.7228 108.63 69.0423C106.085 80.0148 103.116 95.2233 122.938 94.8503C127.334 94.7678 132.881 89.2468 135.468 85.4538C135.811 77.6233 134.466 73.4099 132.726 65.8189Z"
    fill="#FEFEFE"
  />
  <path
    d="M71.1481 2.14868C70.2046 2.47718 69.3356 2.84168 68.6031 3.54368C60.8046 11.0172 55.5266 70.9242 55.1556 83.3827C55.0851 85.7447 54.6376 90.9532 56.3501 92.7052C58.7726 95.1837 65.2281 94.9857 68.4736 95.0762C73.5681 95.0187 78.5636 94.9047 83.3236 92.9027C83.6231 91.3632 83.9131 89.8152 84.1101 88.2587C86.0406 73.0167 81.8071 51.2417 79.5596 35.9417C78.2811 27.2407 77.5556 18.2082 74.9896 9.76568C74.1066 6.86118 73.0326 4.54968 71.1481 2.14868Z"
    fill="#545257"
  />
  <path
    d="M82.6545 67.9513C82.6145 59.2883 75.4155 8.38184 71.0995 4.05784C71.026 3.98384 70.949 3.91284 70.874 3.83984C63.2615 4.44684 57.2 61.1983 57.1535 69.5373C56.5255 73.8343 55.0345 88.1328 56.574 91.5993C60.325 94.9193 78.1875 94.7788 82.0805 92.1233C84.5725 87.8093 83.048 73.5668 82.6545 67.9513Z"
    fill="#E3DDC7"
  />
  <path
    d="M82.6545 67.9514C78.398 65.0949 72.6005 48.0479 63.5665 58.8854C61.5735 61.2769 58.972 68.5719 57.1535 69.5374C56.5255 73.8344 55.0345 88.1329 56.574 91.5994C60.325 94.9194 78.1875 94.7789 82.0805 92.1234C84.5725 87.8094 83.048 73.5669 82.6545 67.9514Z"
    fill="#FEFEFE"
  />
  <path
    d="M33.9347 83.4665C33.4042 70.358 31.0997 57.178 28.8237 44.2715C27.4302 36.367 24.3712 0.042 14.6622 0C8.32724 3.4315 5.33723 39.2235 4.18223 47.6605C2.21223 62.0665 -1.7628 81.5955 0.877205 95.757C5.80221 97.3215 8.51222 97.2305 13.7022 97.0845C19.5182 97.556 27.9117 96.8105 33.4977 95.2805C34.0542 90.731 34.1727 88.007 33.9347 83.4665Z"
    fill="#FEFEFE"
  />
  <path
    d="M33.9348 83.4665C33.4043 70.358 31.0998 57.178 28.8238 44.2715C27.4303 36.367 24.3713 0.042 14.6623 0C8.32732 3.4315 5.33731 39.2235 4.18231 47.6605C2.21231 62.0665 -1.76271 81.5955 0.877289 95.757C5.80229 97.3215 8.5123 97.2305 13.7023 97.0845C12.0273 96.851 10.4773 96.489 8.8273 96.1235C6.6923 96.0675 3.8123 95.6625 1.6373 95.422C0.0522985 87.536 1.0023 75.4665 2.3873 67.604C5.5373 65.8425 7.95231 56.0655 13.9273 54.389C23.5803 51.68 26.3893 62.9025 31.0073 64.747C31.9593 70.357 32.9193 76.875 32.9848 82.575L33.9348 83.4665Z"
    fill="#E3DDC7"
  />
  <path
    d="M33.9348 83.4665C33.4043 70.358 31.0998 57.178 28.8238 44.2715C27.4303 36.367 24.3713 0.042 14.6623 0C8.32732 3.4315 5.33731 39.2235 4.18231 47.6605C2.21231 62.0665 -1.76271 81.5955 0.877289 95.757C5.80229 97.3215 8.5123 97.2305 13.7023 97.0845C12.0273 96.851 10.4773 96.489 8.8273 96.1235C6.6923 96.0675 3.8123 95.6625 1.6373 95.422C0.0522985 87.536 1.0023 75.4665 2.3873 67.604C2.3473 64.4515 4.3023 52.3875 4.8623 49.0415C6.2323 40.8025 9.04731 4.492 15.1473 0.844498C23.4943 2.884 29.7338 54.655 31.0073 64.747C31.9593 70.357 32.9193 76.875 32.9848 82.575L33.9348 83.4665Z"
    fill="#545257"
  />
  <path
    d="M32.9847 82.575C33.0177 86.5365 33.1797 90.841 32.5912 94.7315C23.9732 96.4385 17.6002 96.098 8.82722 96.1235C10.4772 96.489 12.0272 96.851 13.7022 97.0845C19.5182 97.556 27.9117 96.8105 33.4977 95.2805C34.0542 90.731 34.1727 88.007 33.9347 83.4665L32.9847 82.575Z"
    fill="#818081"
  />
</svg>
