<svg
  width="463"
  height="50"
  viewBox="0 0 463 50"
  fill="none"
  xmlns="http://www.w3.org/2000/svg"
>
  <path
    d="M433.925 3.65756C433.417 3.48256 433.013 3.42406 432.476 3.42506C428.851 3.43256 425.455 4.48406 422.867 7.09655C418.259 11.7481 416.736 18.1966 416.754 24.5531C416.77 30.6306 418.072 38.2581 422.607 42.6711C427.782 47.7071 437.722 46.0551 444.398 45.8701C448.741 45.9181 452.185 45.6721 455.701 42.8491C459.597 39.7211 461.405 34.5581 461.91 29.7241C462.583 23.2746 461.506 15.2396 457.261 10.1011C451.944 3.66506 441.572 4.34756 433.925 3.65756Z"
    fill="#545257"
  />
  <path
    d="M426.854 44.9399C433.374 45.5699 451.802 46.4454 456.068 41.3599C462.934 33.4559 462.387 16.0524 454.756 8.90093C450.839 5.23043 433.491 4.59444 427.902 4.99844C423.108 7.84094 421.002 10.1959 419.081 15.3514C417.048 20.6009 417.549 28.2364 419.041 33.5899C420.23 39.0889 422.572 41.7489 426.854 44.9399Z"
    fill="#ADA49D"
  />
  <path
    d="M426.854 44.9399C433.374 45.5699 451.802 46.4454 456.068 41.3599C462.934 33.4559 462.387 16.0524 454.756 8.90093C450.839 5.23043 433.491 4.59444 427.902 4.99844C423.108 7.84094 421.002 10.1959 419.081 15.3514C422.255 12.8509 420.152 11.3619 425.199 10.3114C428.527 7.73494 434.44 5.82143 437.416 9.95643C438.75 10.0924 440.693 10.2284 441.961 10.4409C445.398 10.5279 452.202 11.5574 454.43 14.3349L454.172 15.1469L454.551 16.1339C456.774 18.1084 457.103 19.9194 457.672 22.8164C458.342 26.4069 458.125 27.5874 457.673 31.2374L457.279 31.4469C457.092 29.6984 456.829 28.0949 456.541 26.3604C456.435 27.9279 456.54 29.3109 455.509 30.4544L454.356 30.9769L454.769 32.3709L454.381 32.8359C452.724 31.6934 450.956 30.2604 449.024 29.8499C447.141 30.3554 446.676 30.7019 446.297 32.8194C445.621 33.9059 444.963 35.0029 444.322 36.1109L443.958 35.6029C443.067 36.4834 443.518 36.2529 442.236 36.4389C440.673 36.6174 440.272 36.2909 438.928 35.5649C438.526 36.6414 438.219 38.5629 437.789 39.0559L435.516 38.6964C434.506 39.6214 433.414 39.5319 432.052 39.6109C433.398 40.0724 434.74 40.5469 436.076 41.0344C430.89 45.8984 421.918 37.7509 419.041 33.5899C420.23 39.0889 422.572 41.7489 426.854 44.9399Z"
    fill="#D5CFCC"
  />
  <path
    d="M446.296 32.8196C445.62 33.9061 444.962 35.0031 444.322 36.1111L443.958 35.6031C443.067 36.4836 443.517 36.2531 442.236 36.4391C440.672 36.6176 440.271 36.2911 438.927 35.5651C438.525 36.6416 438.219 38.5631 437.789 39.0561C443.377 42.1706 445.201 36.8826 446.296 32.8196Z"
    fill="#CCC4BF"
  />
  <path
    d="M437.416 9.95657C434.439 5.82157 428.527 7.73509 425.198 10.3116C420.151 11.3621 422.255 12.8511 419.08 15.3516C417.047 20.6011 417.549 28.2366 419.04 33.5901C421.918 37.7511 430.889 45.8986 436.076 41.0346C434.739 40.5471 433.397 40.0726 432.051 39.6111C433.413 39.5321 434.506 39.6216 435.515 38.6966C425.947 37.0836 421.867 33.9311 420.697 23.8771L420.711 23.2046L422.078 22.5396L424.714 22.4836C425.549 21.0476 423.364 20.1401 423.298 16.4566L423.294 15.9991C428.525 15.6026 431.468 16.9416 434.922 11.4336L435.854 11.4921L437.278 11.4351C438.828 10.3236 439.901 10.5746 441.96 10.4411C440.692 10.2286 438.749 10.0926 437.416 9.95657Z"
    fill="#CECAC7"
  />
  <path
    d="M434.922 11.4336C428.518 11.4536 420.737 12.7826 420.887 20.7161C420.894 21.0421 420.906 21.3686 420.924 21.6941C421.421 22.1571 421.463 22.2986 422.078 22.5396L424.714 22.4836C425.549 21.0476 423.364 20.1401 423.298 16.4566L423.294 15.9991C428.525 15.6026 431.468 16.9416 434.922 11.4336Z"
    fill="#EDE5DF"
  />
  <path
    d="M437.416 9.95657C434.44 5.82157 428.527 7.73509 425.199 10.3116C425.083 11.0921 424.979 10.9996 424.426 11.7226L424.521 12.0521C431.106 10.5246 429.307 9.98357 437.416 9.95657Z"
    fill="#EDE9E2"
  />
  <path
    d="M454.172 15.1472C450.016 12.3222 444.643 11.4132 439.703 11.9117L439.589 12.5162C441.631 17.5917 440.074 18.8852 440.839 23.4202C441.668 23.7787 442.333 24.0342 443.097 24.5232L442.834 24.4517C442.734 24.5932 442.51 24.8967 442.427 25.0357L442.826 25.0952L442.434 25.1907C443.256 25.8517 444.817 26.3462 445.854 26.7447L448.701 26.1007C450.502 24.8642 451.336 24.5452 453.375 23.7052C454.456 23.8897 455.306 24.0072 456.399 24.1077L457.671 22.8167C457.103 19.9197 456.774 18.1087 454.55 16.1342L454.172 15.1472Z"
    fill="#E1DAD2"
  />
  <path
    d="M454.172 15.1472C450.017 12.3222 444.643 11.4132 439.703 11.9117C442.292 14.0727 449.887 16.0462 453.281 16.6852C453.63 16.5477 454.269 16.3292 454.551 16.1342L454.172 15.1472Z"
    fill="#EDE9E2"
  />
  <path
    d="M452.186 19.5466C447.642 23.5196 447.01 23.7996 440.84 23.4201C441.668 23.7786 442.333 24.0341 443.098 24.5231L442.834 24.4516C442.735 24.5931 442.511 24.8966 442.427 25.0356L442.826 25.0951L442.435 25.1906C443.257 25.8516 444.818 26.3461 445.855 26.7446L448.701 26.1006C450.105 23.4861 451.096 22.6521 452.186 19.5466Z"
    fill="#CCC4BF"
  />
  <path
    d="M453.375 23.7051L454.406 22.2201C454.631 20.6226 454.632 20.4241 453.974 18.9151L453.118 18.6101L452.186 19.5466C451.096 22.6521 450.105 23.4861 448.701 26.1006C450.502 24.8641 451.337 24.5451 453.375 23.7051Z"
    fill="#B7B2AB"
  />
  <path
    d="M421.554 24.0632L420.697 23.8772C421.867 33.9312 425.947 37.0837 435.515 38.6967L437.789 39.0562C438.219 38.5632 438.525 36.6417 438.927 35.5652C439.196 34.0057 439.513 31.4697 438.728 30.0612C438.125 28.9662 437.06 28.2012 435.83 27.9787C432.6 27.3847 430.164 29.1162 427.791 30.8337L426.625 31.3322C425.866 28.8427 423.92 25.1842 421.554 24.0632Z"
    fill="#EDE9E2"
  />
  <path
    d="M435.854 11.4921L434.922 11.4336C431.468 16.9416 428.525 15.6026 423.294 15.9991C424.037 17.9421 424.581 17.8291 425.623 19.1176C429.509 23.9236 437.196 21.9616 436.257 15.2151C436.045 13.6971 436.822 13.3081 435.854 11.4921Z"
    fill="#E1DAD2"
  />
  <path
    d="M436.808 24.8825C430.429 24.5475 429.357 24.3754 427.791 30.8334C430.164 29.1159 432.6 27.3844 435.83 27.9784C437.06 28.2009 438.125 28.966 438.728 30.061C439.513 31.4695 439.196 34.0054 438.927 35.5649C440.271 36.2909 440.672 36.6174 442.236 36.4389C441.609 29.1544 444.643 29.256 436.808 24.8825Z"
    fill="#C1BCB7"
  />
  <path
    d="M450.514 27.7166L450.239 27.7446C448.015 27.9586 446.711 27.9985 444.343 28.326C443.024 30.2735 443.9 33.0445 443.958 35.603L444.322 36.1111C444.963 35.0031 445.621 33.906 446.297 32.8195C446.676 30.702 447.141 30.3556 449.024 29.8501C450.956 30.2606 452.724 31.6935 454.381 32.836L454.769 32.371L454.356 30.9771C452.951 29.6121 452.081 28.9016 450.514 27.7166Z"
    fill="#C1BCB7"
  />
  <path
    d="M439.589 12.5161L438.296 12.9466C437.09 19.5801 437.089 26.6396 445.475 26.7461L445.854 26.7446C444.817 26.3461 443.256 25.8516 442.434 25.1906L442.826 25.0951L442.427 25.0356C442.51 24.8966 442.734 24.5931 442.834 24.4516L443.097 24.5231C442.333 24.0341 441.668 23.7786 440.839 23.4201C440.074 18.8851 441.631 17.5916 439.589 12.5161Z"
    fill="#C1BCB7"
  />
  <path
    d="M456.541 26.3605L456.328 25.67C453.977 24.692 451.288 24.931 450.514 27.7165C452.081 28.9015 452.951 29.612 454.356 30.977L455.509 30.4545C456.54 29.311 456.435 27.928 456.541 26.3605Z"
    fill="#CCC4BF"
  />
  <path
    d="M428.552 24.7512L421.555 24.0632C423.92 25.1842 425.866 28.8427 426.625 31.3322C426.856 28.7252 427.545 27.0782 428.552 24.7512Z"
    fill="#CCC4BF"
  />
  <path
    d="M366.967 0.713286C366.25 0.682286 365.532 0.6713 364.815 0.6808C360.523 0.7558 356.688 2.44729 353.738 5.56129C348.036 11.5793 347.051 22.0178 347.34 29.9003C347.55 35.6208 349.51 41.1038 353.829 45.0328C360.264 50.8863 368.231 48.6913 376.037 48.2818C381.269 48.1358 385.663 47.5403 389.903 44.0858C394.438 40.3918 396.911 35.0083 397.495 29.2783C398.213 22.2458 397.652 13.1548 392.968 7.49879C386.616 -0.169706 375.834 1.64929 366.967 0.713286Z"
    fill="#737071"
  />
  <path
    d="M366.216 1.89795C361.378 2.02545 357.517 2.71345 354.15 6.40045C349.097 11.933 348.093 23.3764 348.343 30.3869C348.84 44.3174 358.508 49.4035 371.182 47.6355C378.802 46.573 386.052 47.9265 391.974 41.0105C395.476 37.0375 396.795 31.4124 396.474 26.2399L396.941 25.8804C397.169 21.8334 395.407 12.4964 392.881 9.01395C386.56 0.298946 376.55 3.87845 366.216 1.89795Z"
    fill="#D5CFCC"
  />
  <path
    d="M373.545 10.9367C373.059 11.3217 372.862 11.5017 372.301 11.7747L371.939 11.9467L371.746 12.6587C371.575 11.8897 371.386 11.5862 371.043 10.8992L368.37 10.2087C365.15 11.4147 359.694 13.3827 356.924 15.4312L356.163 15.8617L356.913 16.9467L357.211 18.1842L356.124 18.5967C354.522 19.3717 354.392 20.7347 354.117 22.4207L353.385 23.2642L352.615 23.8262C347.721 26.3372 350.422 36.5417 355.344 37.9547C356.606 38.3172 357.883 38.6642 359.158 38.9697L367.028 40.8137L368.718 41.4212C369.617 40.4997 370.238 39.2212 370.883 38.0812L371.677 37.7662L372.604 37.9752C373.408 39.1472 373.996 39.8477 374.282 41.2662C384.046 38.5672 391.936 37.2317 393.633 25.9267L393.867 24.2892C394.035 23.9932 393.929 23.8862 393.878 23.4047L392 22.8102C390.552 22.7247 389.413 22.8382 388.292 22.0062C387.938 20.3002 388.782 19.0942 389.5 17.2502L390.166 15.1242L389.7 14.1717L388.848 14.4437L387.389 15.1842C384.398 15.0237 378.038 15.0992 376.866 12.0587L376.269 13.9717L374.278 11.8327L373.545 10.9367Z"
    fill="#ADA49D"
  />
  <path
    d="M352.615 23.8264C347.721 26.3374 350.422 36.5419 355.344 37.9549C356.606 38.3174 357.883 38.6644 359.158 38.9699L367.028 40.8139L368.718 41.4214C369.617 40.4999 370.238 39.2214 370.883 38.0814C366.487 36.1229 369.478 35.4644 366.543 31.9149C365.511 30.2414 366 30.5279 364.393 29.7299C361.297 30.2834 361.598 32.4149 357.856 32.8904L356.222 34.2374L355.729 34.7909C354.823 31.3149 355.145 28.5259 353.614 24.8019L352.615 23.8264Z"
    fill="#EDE9E2"
  />
  <path
    d="M366.543 31.9147C365.511 30.2412 366 30.5277 364.393 29.7297C361.297 30.2832 361.598 32.4147 357.856 32.8902L356.222 34.2372L355.729 34.7907L356.957 35.1517C357.961 34.7677 365.895 32.3167 366.338 32.3857L366.543 31.9147Z"
    fill="#EDE5DF"
  />
  <path
    d="M366.543 31.9148L366.338 32.3858C366.378 35.1123 367.499 39.5848 367.028 40.8138L368.718 41.4213C369.617 40.4998 370.238 39.2213 370.883 38.0813C366.487 36.1228 369.478 35.4643 366.543 31.9148Z"
    fill="#D5CFCC"
  />
  <path
    d="M376.866 12.0588L376.269 13.9718L374.278 11.8328C373.558 14.9373 372.385 20.8003 371.456 23.6293C377.585 24.8033 378.935 25.1008 384.977 23.9593C386.011 21.9103 387.521 18.2358 389.5 17.2503L390.166 15.1243L389.7 14.1718L388.848 14.4438L387.389 15.1843C384.398 15.0238 378.038 15.0993 376.866 12.0588Z"
    fill="#CCC4BF"
  />
  <path
    d="M376.866 12.0588L376.269 13.9718L375.202 22.5083C381.886 22.5528 384.288 21.6348 387.389 15.1843C384.398 15.0238 378.038 15.0993 376.866 12.0588Z"
    fill="#E1DAD2"
  />
  <path
    d="M393.633 25.927C387.53 27.7095 392.873 31.075 387.632 33.129C384.015 34.958 384.929 29.096 377.96 28.7835C375.947 28.951 376.259 28.609 375.037 29.7495C374.076 32.599 375.709 35.959 373.992 37.4915L372.604 37.9755C373.408 39.1475 373.996 39.848 374.282 41.2665C384.046 38.5675 391.936 37.232 393.633 25.927Z"
    fill="#EDE9E2"
  />
  <path
    d="M377.96 28.7834C375.947 28.9509 376.259 28.609 375.037 29.7495C374.076 32.599 375.709 35.9589 373.992 37.4914C375.632 37.6544 375.331 37.8724 376.569 37.1834C377.758 34.7934 377.133 32.082 377.874 29.116L377.96 28.7834Z"
    fill="#E1DAD2"
  />
  <path
    d="M371.043 10.8992L368.37 10.2087C365.15 11.4147 359.694 13.3827 356.924 15.4312L356.163 15.8617L356.913 16.9467C360.351 17.6842 366.799 31.1522 371.043 10.8992Z"
    fill="#E1DAD2"
  />
  <path
    d="M368.37 10.2087C365.15 11.4147 359.694 13.3827 356.924 15.4312C360.652 18.3727 366.366 13.7322 368.37 10.2087Z"
    fill="#EDE9E2"
  />
  <path
    d="M384.414 25.4177C378.146 26.6992 377.016 26.0087 371.053 25.7137C370.991 29.1017 371.092 34.4307 371.677 37.7662L372.604 37.9752L373.992 37.4912C375.709 35.9587 374.076 32.5987 375.037 29.7492C376.259 28.6087 375.947 28.9507 377.96 28.7832C384.929 29.0957 384.015 34.9577 387.632 33.1287L387.418 32.7252C385.986 31.4902 385.138 27.5017 384.414 25.4177Z"
    fill="#CCC4BF"
  />
  <path
    d="M373.545 10.9369C373.059 11.3219 372.862 11.5019 372.301 11.7749L371.939 11.9469L371.746 12.6589C371.575 11.8899 371.386 11.5864 371.043 10.8994C366.799 31.1524 360.351 17.6844 356.913 16.9469L357.211 18.1844C359.673 27.2519 362.238 26.9129 369.977 24.0979C370.684 20.5964 371.691 13.7139 373.545 10.9369Z"
    fill="#CCC4BF"
  />
  <path
    d="M370.883 38.0814C369.222 35.2449 369.66 29.7884 369.692 26.3284C368.204 25.5369 367.758 26.5614 366.376 26.7034C359.878 27.3719 361.022 27.4124 357.856 32.8904C361.598 32.4149 361.297 30.2834 364.393 29.7299C366 30.5279 365.511 30.2414 366.543 31.9149C369.478 35.4644 366.487 36.1229 370.883 38.0814Z"
    fill="#E3DDC7"
  />
  <path
    d="M393.867 24.2895C390.814 24.276 388.46 23.972 385.536 23.8445C386.352 26.6845 387.459 29.8125 387.418 32.7255L387.632 33.129C392.873 31.075 387.53 27.7095 393.633 25.927L393.867 24.2895Z"
    fill="#E1DAD2"
  />
  <path
    d="M359.825 26.386C357.608 25.7455 355.871 25.2965 353.614 24.802C355.145 28.526 354.823 31.315 355.729 34.791L356.222 34.2375C355.843 32.3235 358.625 28.5885 359.825 26.386Z"
    fill="#CCC4BF"
  />
  <path
    d="M356.124 18.5969C354.522 19.3719 354.392 20.7349 354.117 22.4209L353.385 23.2644C354.785 23.5784 356.197 24.0949 357.449 23.4729C357.725 21.7589 356.839 20.4079 356.124 18.5969Z"
    fill="#E3DDC7"
  />
  <path
    d="M396.474 26.2399L396.941 25.8804C397.169 21.8334 395.407 12.4964 392.881 9.01395C386.56 0.298946 376.55 3.87845 366.216 1.89795C366.826 2.53695 367.699 3.18245 367.742 3.88245C377.435 12.4439 378.89 1.82295 383.979 6.94495C380.678 6.33295 378.711 5.61645 376.225 8.48145C373.244 8.37395 370.849 8.33595 367.869 8.45195C364.212 9.81595 356.798 12.6374 354.02 15.3829C353.485 17.4704 351.696 18.738 352.026 20.698L352.589 21.2349L353.511 18.8414L353.942 18.9684C353.525 20.6709 353.094 21.0385 353.707 22.3255L354.117 22.4209C354.392 20.7349 354.522 19.372 356.124 18.597L357.211 18.1844L356.913 16.9469L356.163 15.862L356.924 15.4314C359.694 13.3829 365.15 11.415 368.37 10.209L371.043 10.8994C371.386 11.5864 371.575 11.89 371.746 12.659L371.939 11.9469L372.301 11.7749C372.862 11.5019 373.059 11.322 373.545 10.937L374.278 11.8329L376.269 13.972L376.866 12.0589C378.038 15.0994 384.398 15.0239 387.389 15.1844L388.848 14.444L389.7 14.172L390.166 15.1245L389.5 17.2504C388.782 19.0944 387.938 20.3005 388.292 22.0065C389.413 22.8385 390.552 22.7249 392 22.8104L393.878 23.405C393.929 23.8865 394.035 23.9934 393.867 24.2894L393.633 25.9269C391.936 37.2319 384.046 38.5674 374.282 41.2664C373.996 39.8479 373.408 39.1474 372.604 37.9754L371.677 37.7664L370.883 38.0815C370.238 39.2215 369.617 40.4999 368.718 41.4214L367.028 40.8139L359.158 38.9699L358.661 40.4494C361.333 40.8694 363.478 41.474 366.076 42.172C369.381 42.8575 370.873 42.9989 374.254 43.1599C377.247 41.6284 382.461 40.2724 386.143 38.6109C390.312 36.2029 387.481 38.3409 390.415 37.5024C392.208 33.1914 391.82 35.3364 393.978 34.3604C395.786 31.5189 395.714 29.5634 396.474 26.2399Z"
    fill="#C7C2BF"
  />
  <path
    d="M383.979 6.94497C380.678 6.33297 378.711 5.61647 376.225 8.48147C379.596 9.21547 388.034 12.456 390.329 11.983L390.059 11.118C387.921 8.88898 386.669 8.35397 383.979 6.94497Z"
    fill="#FEFEFE"
  />
  <path
    d="M388.848 14.4439C386.697 12.7769 380.45 10.8294 377.601 11.0939L376.866 12.0589C378.038 15.0994 384.398 15.0239 387.389 15.1844L388.848 14.4439Z"
    fill="#EDE9E2"
  />
  <path
    d="M392 22.8103C392.568 22.5493 392.703 22.3693 393.182 21.9693C393.263 19.6253 392.639 16.0938 390.166 15.1243L389.5 17.2503C388.782 19.0943 387.938 20.3003 388.292 22.0063C389.413 22.8383 390.552 22.7248 392 22.8103Z"
    fill="#E1DAD2"
  />
  <path
    d="M371.677 37.7664L370.883 38.0814C370.238 39.2214 369.617 40.4999 368.718 41.4214C371.147 41.7249 371.83 41.6079 374.282 41.2664C373.996 39.8479 373.408 39.1474 372.604 37.9754L371.677 37.7664Z"
    fill="#CCC4BF"
  />
  <path
    d="M367.869 8.45177L370.245 7.81526L370.594 7.14926C369.43 5.83426 365.863 5.55477 364.105 5.41577C360.251 7.25027 353.7 10.2433 354.02 15.3828C356.798 12.6373 364.212 9.81577 367.869 8.45177Z"
    fill="#FEFEFE"
  />
  <path
    d="M358.661 40.4493C357.311 39.8913 355.6 38.9878 354.231 39.2803C354.064 41.0448 356.182 42.5843 357.452 43.7438C359.818 43.8073 363.033 44.0743 365.226 43.4293L366.076 42.1718C363.478 41.4738 361.333 40.8693 358.661 40.4493Z"
    fill="#EDE9E2"
  />
  <path
    d="M374.254 43.1601C376.451 44.7801 383.873 43.0096 385.868 40.9971C385.74 39.9781 385.769 39.5691 386.143 38.6111C382.461 40.2726 377.247 41.6286 374.254 43.1601Z"
    fill="#EDE9E2"
  />
  <path
    d="M310.841 0.36974C302.623 0.34324 292.404 -1.68275 285.754 4.03475C279.228 9.64575 277.978 18.9943 277.33 27.0783C276.831 33.3028 277.723 39.4677 281.999 44.3397C284.93 47.6797 288.798 49.3922 293.177 49.7007C301.321 49.2722 312.996 50.3202 319.95 45.4907C324.366 42.4232 326.905 37.3822 327.792 32.1827C329.083 24.6092 327.986 13.8347 323.366 7.47724C320.178 3.08974 316.027 1.22524 310.841 0.36974Z"
    fill="#C1BCB7"
  />
  <path
    d="M320.397 35.6246C322.113 34.8656 322.692 34.6566 323.543 32.9586C325.081 32.6146 324.427 32.5752 326.112 33.4122L326.528 32.7926C327.384 10.9781 324.601 0.433648 301.751 1.62665C291.666 2.15315 285.059 1.00015 280.994 12.7211C279.67 17.4131 276.864 32.4492 279.894 36.3537L281.352 36.6351C283.862 43.0086 293.442 53.0611 298.13 43.7061C299.346 43.2846 303.06 43.4917 305.257 42.8907C310.313 46.5257 319.119 42.1701 320.899 37.4111L320.127 36.1817L320.397 35.6246Z"
    fill="#ADA49D"
  />
  <path
    d="M320.397 35.6246C322.113 34.8656 322.692 34.6566 323.543 32.9586C325.081 32.6146 324.427 32.5752 326.112 33.4122L326.528 32.7926C327.384 10.9781 324.601 0.433648 301.751 1.62665C291.666 2.15315 285.059 1.00015 280.994 12.7211C281.896 12.1591 285.319 7.18315 286.607 5.68715C286.519 7.67265 286.317 8.77815 285.945 10.7406C285.248 12.1076 284.642 12.9821 284.748 14.5076C284.542 15.3156 284.43 15.7296 284.122 16.5031C285.658 19.1766 282.092 24.6201 284.689 25.8831L285.34 25.8006C292.723 21.6721 285.633 21.4502 286.792 15.4592L286.565 15.3941L286.684 14.9091L288.439 14.4267L288.325 13.8452C291.009 11.9787 295.315 10.6351 298.483 9.85965C303.598 9.58715 305.154 8.78815 306.25 14.4272C306.198 12.7352 306.09 11.9301 306.623 10.3121C307.931 9.88915 307.353 9.89365 308.967 10.6801C309.631 10.7906 310.738 10.7722 311.444 10.7867C314.103 11.7367 316.383 12.4526 318.838 13.8801L320.046 14.7321L319.917 15.4176L319.388 15.5782L319.445 16.0047C319.974 20.1997 317.7 20.5276 318.314 22.6131C320.55 22.7961 322.109 22.7266 323.847 24.1411L322.374 24.7977C324.92 26.5457 323.683 29.3522 322.442 31.6982L322.092 31.9366L322.583 28.2701C320.513 30.8346 320.461 31.9172 317.904 34.5392L319.391 35.3797L320.397 35.6246Z"
    fill="#D5CFCC"
  />
  <path
    d="M302.478 6.78246C300.111 5.32796 298.653 5.18495 295.976 4.66895C290.38 6.11045 290.177 7.73845 285.945 10.7404C285.248 12.1074 284.642 12.9819 284.748 14.5074C289.592 10.7714 296.49 7.87746 302.478 6.78246Z"
    fill="#EDE9E2"
  />
  <path
    d="M302.478 6.78278L303.65 6.68227L303.731 6.34728C299.413 1.93578 291.223 1.45977 286.607 5.68727C286.519 7.67277 286.317 8.77827 285.945 10.7408C290.177 7.73877 290.38 6.11077 295.976 4.66927C298.653 5.18527 300.111 5.32828 302.478 6.78278Z"
    fill="#EDE9E2"
  />
  <path
    d="M311.452 5.17969L310.193 5.28969C310.003 6.59669 310.847 7.8522 311.386 9.0537C314.531 10.2352 317.612 11.4592 320.654 12.8862L321.342 13.1997C321.292 12.3572 320.979 11.7697 320.53 11.0742C318.319 7.65369 315.376 5.98869 311.452 5.17969Z"
    fill="#EDE9E2"
  />
  <path
    d="M286.607 5.68701C285.319 7.18301 281.896 12.159 280.994 12.721C279.67 17.413 276.864 32.449 279.894 36.3535L281.352 36.635C283.862 43.0085 293.442 53.061 298.13 43.706C299.346 43.2845 303.06 43.4915 305.257 42.8905C310.313 46.5255 319.119 42.17 320.899 37.411L320.127 36.1815L320.397 35.6245L319.391 35.3795C313.845 38.419 309.072 40.6075 302.76 41.718L301.999 39.4885L301.393 39.203L300.898 39.909L301.677 41.2695L301.165 41.5305L300.282 41.124L299.31 41.6675C298.79 41.7535 297.363 42.0255 296.92 42.0205C292.898 40.988 288.339 39.001 284.524 37.2675C282.916 36.1475 282.664 35.976 281.55 34.3775C280.924 32.5935 281.567 31.589 282.302 29.7955L282.037 29.3455C282.736 28.9315 284.585 27.367 285.3 26.7885L285.617 26.1585L285.34 25.8005L284.689 25.883C282.092 24.62 285.658 19.1765 284.122 16.503C284.43 15.7295 284.542 15.3155 284.748 14.5075C284.642 12.982 285.248 12.1075 285.945 10.7405C286.317 8.77801 286.519 7.67251 286.607 5.68701Z"
    fill="#C7C3BF"
  />
  <path
    d="M298.13 43.7063C292.631 42.9613 285.994 39.5948 281.352 36.6353C283.862 43.0088 293.442 53.0613 298.13 43.7063Z"
    fill="#EDE9E2"
  />
  <path
    d="M305.257 42.8906C310.313 46.5256 319.119 42.1701 320.899 37.4111L320.127 36.1816C315.122 39.3341 310.983 41.2216 305.257 42.8906Z"
    fill="#EDE9E2"
  />
  <path
    d="M285.34 25.8007L284.689 25.8832C282.092 24.6202 285.658 19.1767 284.122 16.5032C283.689 18.8187 281.776 27.7547 282.037 29.3457C282.736 28.9317 284.585 27.3672 285.3 26.7887L285.617 26.1587L285.34 25.8007Z"
    fill="#CCC4BF"
  />
  <path
    d="M299.31 41.6676C300.303 36.7156 299.162 31.3461 299.802 26.3416C300.034 24.5301 301.016 24.0631 302.533 22.9776L302.087 22.7021C300.432 23.3236 293.718 23.6521 293.328 24.0141C291.537 25.6781 286.816 33.5666 283.849 34.4911C282.853 33.2681 283.599 32.4381 283.25 30.2106L282.302 29.7957C281.567 31.5892 280.924 32.5937 281.55 34.3777C282.664 35.9762 282.916 36.1477 284.524 37.2677C288.339 39.0012 292.898 40.9881 296.92 42.0206C297.363 42.0256 298.79 41.7536 299.31 41.6676Z"
    fill="#CCC4BF"
  />
  <path
    d="M297.187 35.7153C295.733 35.4808 294.92 35.9898 293.56 36.4468C293.166 35.2603 292.838 34.3393 292.358 33.1743C289.784 34.5783 287.188 36.0533 284.524 37.2678C288.339 39.0013 292.898 40.9883 296.92 42.0208C298.082 39.6913 297.751 38.1248 297.187 35.7153Z"
    fill="#EDE9E2"
  />
  <path
    d="M297.187 35.7151C297.112 34.2711 296.864 33.6956 296.415 32.3641C294.846 31.0116 295.554 31.2321 293.615 31.2356C292.821 32.0181 292.72 32.1241 292.358 33.1741C292.838 34.3391 293.166 35.2601 293.56 36.4466C294.92 35.9896 295.733 35.4806 297.187 35.7151Z"
    fill="#E1DAD2"
  />
  <path
    d="M322.374 24.7976L320.958 24.9736C319.386 27.9851 317.016 25.1831 317.442 30.6621C317.841 31.8681 317.817 31.3681 317.584 32.5771L316.739 32.1266C315.792 30.7706 315.572 30.5296 315.279 28.8706C312.635 27.8536 310.406 26.1381 307.457 27.1416C305.108 29.2856 306.442 32.6991 305.622 35.1811C304.89 35.5746 304.153 35.9606 303.413 36.3391C303.289 37.2596 302.698 41.1286 302.76 41.7181C309.072 40.6076 313.845 38.4191 319.391 35.3796L317.904 34.5391C320.461 31.9171 320.513 30.8346 322.583 28.2701L322.092 31.9366L322.442 31.6981C323.683 29.3521 324.92 26.5456 322.374 24.7976Z"
    fill="#E1DAD2"
  />
  <path
    d="M317.904 34.5392C312.857 34.2442 312.413 28.5187 308.984 29.2412C308.709 31.8307 308.636 36.2267 306.852 38.0072L305.9 38.1397C304.568 36.4852 305.086 36.5907 303.413 36.3392C303.289 37.2597 302.698 41.1287 302.76 41.7182C309.072 40.6077 313.845 38.4192 319.391 35.3797L317.904 34.5392Z"
    fill="#EDE9E2"
  />
  <path
    d="M306.25 14.4273C305.154 8.78826 303.598 9.58725 298.483 9.85975C295.315 10.6353 291.009 11.9788 288.325 13.8453L288.439 14.4268L286.684 14.9093L286.565 15.3943L286.792 15.4593C289.804 16.5223 290.375 17.3813 291.682 20.2678C297.713 14.2268 299.47 24.3763 306.49 17.6183L306.25 14.4273Z"
    fill="#E1DAD2"
  />
  <path
    d="M298.483 9.85962C295.315 10.6351 291.009 11.9786 288.325 13.8451L288.439 14.4266C292.231 14.1711 297.978 14.6811 298.483 9.85962Z"
    fill="#EDE9E2"
  />
  <path
    d="M315.279 28.8706C312.223 21.2336 305.624 21.1506 301.387 27.8476C301.311 29.8571 300.951 32.3551 301.959 33.9996C303.21 34.8381 304.03 35.2176 305.622 35.1811C306.442 32.6991 305.108 29.2856 307.457 27.1416C310.406 26.1381 312.635 27.8536 315.279 28.8706Z"
    fill="#C1BCB7"
  />
  <path
    d="M311.444 10.7867C310.738 10.7722 309.631 10.7907 308.967 10.6802L308.85 16.4957C313.361 18.7297 312.319 19.2532 317.599 19.1647C317.972 17.6412 318.55 16.8932 319.388 15.5782L319.917 15.4177L320.046 14.7322L318.838 13.8802C316.383 12.4527 314.103 11.7367 311.444 10.7867Z"
    fill="#E1DAD2"
  />
  <path
    d="M311.444 10.7866C311.39 12.5606 311.076 14.8056 312.042 16.1911C314.067 16.6211 316.045 14.7856 318.838 13.8801C316.383 12.4526 314.103 11.7366 311.444 10.7866Z"
    fill="#EDE9E2"
  />
  <path
    d="M306.49 17.6182C299.47 24.3762 297.713 14.2267 291.682 20.2677C293.785 25.1822 301.197 22.8732 304.898 21.1182C306.154 20.5222 306.27 18.8187 306.49 17.6182Z"
    fill="#CCC4BF"
  />
  <path
    d="M317.599 19.1646C312.319 19.2531 313.361 18.7296 308.85 16.4956C308.438 18.1306 308.007 20.0586 307.513 21.6451L314.094 22.8891L317.599 19.1646Z"
    fill="#CCC4BF"
  />
  <path
    d="M323.847 24.1411L315.206 24.1926C315.906 26.2391 316.669 28.6796 317.442 30.6621C317.016 25.1831 319.386 27.9851 320.958 24.9736L322.374 24.7976L323.847 24.1411Z"
    fill="#CCC4BF"
  />
  <path
    d="M285.3 26.7886C284.585 27.3671 282.736 28.9316 282.037 29.3456L282.302 29.7956L283.25 30.2106C283.599 32.4381 282.853 33.2681 283.849 34.4911C284.658 31.8976 285.211 31.2991 286.843 29.2086L285.3 26.7886Z"
    fill="#E3DDC7"
  />
  <path
    d="M286.843 29.2085C287.928 28.1945 289.135 27.3615 289.416 25.9975C287.943 25.2695 287.651 25.722 285.617 26.1585L285.3 26.7885L286.843 29.2085Z"
    fill="#C1BCB7"
  />
  <path
    d="M239.805 2.43948C236.14 2.38898 233.136 2.55148 229.86 4.44548C223.663 8.02848 220.362 15.067 218.664 21.756C217.335 26.9915 216.7 33.064 219.645 37.8785C223.053 43.45 229.905 45.8285 235.925 47.2595C240.971 47.391 246.468 46.077 250.753 43.3455C254.346 41.0545 256.873 37.7735 257.761 33.567C259.295 26.301 256.679 17.1615 252.629 11.0875C249.484 6.37098 245.368 3.53498 239.805 2.43948Z"
    fill="#737071"
  />
  <path
    d="M239.473 3.45308C236.554 3.31658 233.446 3.71657 230.873 5.15457C224.879 8.50607 221.557 15.1961 219.79 21.5806C218.383 26.6656 217.599 32.8461 220.405 37.5926C223.409 42.6751 230.393 44.8836 235.805 46.2386C240.711 46.4116 246.43 45.1116 250.542 42.3711C253.833 40.1786 256.011 37.0346 256.77 33.1471C258.136 26.1426 255.307 16.9631 251.327 11.1846C248.234 6.69307 244.715 4.43458 239.473 3.45308Z"
    fill="#D5CFCC"
  />
  <path
    d="M246.106 14.4696C246.205 14.3441 246.244 13.8071 246.275 13.6021C240.635 8.53209 234.197 10.6781 228.092 13.1461L229.866 14.5136C234.364 17.4226 233.815 25.7476 238.665 25.6706L239.059 27.2036C234.668 27.3191 230.514 24.2081 227.988 20.8221L227.37 21.0491C227.33 30.1456 223.324 27.8661 222.972 35.0071L221.943 34.7706C222.013 35.7821 222.588 36.5731 223.514 37.0476C226.646 38.8821 233.01 40.9726 236.707 42.6021C240.011 41.4086 248.248 39.0391 250.711 37.9896C253.151 37.4306 254.558 35.1321 254.544 32.7506L254.171 32.6656L253.521 34.1171L252.769 34.2471L252.594 32.4361C252.153 33.1416 252.174 33.8906 252.099 34.7301L251.605 34.3256C251.739 33.0671 251.344 31.6181 251.091 30.3431C251.928 30.3191 251.546 30.4286 252.271 29.9836C253.951 24.4471 251.034 17.4596 246.106 14.4696Z"
    fill="#E3DDC7"
  />
  <path
    d="M236.77 32.9311C236.662 32.1251 236.511 31.7091 236.267 30.9311C234.022 29.7431 229.715 27.7196 227.183 28.1706C226.153 30.5581 224.903 33.2086 222.972 35.0071L221.943 34.7706C222.013 35.7821 222.588 36.5731 223.514 37.0476C226.646 38.8821 233.01 40.9726 236.707 42.6021C240.011 41.4086 248.248 39.0391 250.711 37.9896C246.177 38.1181 243.758 37.7641 238.714 38.1336L237.93 37.6426L236.77 32.9311Z"
    fill="#EDE9E2"
  />
  <path
    d="M237.93 37.6427C232.662 38.2447 230.461 37.9192 225.192 36.4917L223.514 37.0477C226.646 38.8822 233.01 40.9727 236.707 42.6022C240.011 41.4087 248.248 39.0392 250.711 37.9897C246.177 38.1182 243.758 37.7642 238.714 38.1337L237.93 37.6427Z"
    fill="#FEFEFE"
  />
  <path
    d="M246.106 14.4696C246.205 14.3441 246.244 13.8071 246.275 13.6021C240.635 8.53209 234.197 10.6781 228.092 13.1461L229.866 14.5136C234.364 17.4226 233.815 25.7476 238.665 25.6706C240.916 22.4046 243.193 16.5776 246.106 14.4696Z"
    fill="#FEFEFE"
  />
  <path
    d="M248.861 29.7971C245.53 28.4826 241.419 27.1856 240.553 32.1986L239.691 31.0016C238.372 31.4191 237.797 32.0416 236.77 32.9311L237.93 37.6426L238.714 38.1336C243.758 37.7641 246.177 38.1181 250.711 37.9896C253.151 37.4306 254.558 35.1321 254.544 32.7506L254.171 32.6656L253.521 34.1171L252.769 34.2471L252.594 32.4361C252.153 33.1416 252.174 33.8906 252.099 34.7301L251.605 34.3256C250.53 32.7881 249.78 31.4351 248.861 29.7971Z"
    fill="#EDE9E2"
  />
  <path
    d="M240.553 32.1985L239.691 31.0015C238.372 31.419 237.797 32.0415 236.77 32.931L237.93 37.6425L238.714 38.1335C239.428 36.5985 240.081 33.906 240.553 32.1985Z"
    fill="#CCC4BF"
  />
  <path
    d="M246.106 14.4697C243.193 16.5777 240.916 22.4047 238.665 25.6707L239.059 27.2037C242.778 25.0877 245.255 23.5172 248.569 20.7562C248.363 23.7157 249.348 27.9972 251.091 30.3432C251.928 30.3192 251.546 30.4287 252.271 29.9837C253.951 24.4472 251.034 17.4597 246.106 14.4697Z"
    fill="#E3DDC7"
  />
  <path
    d="M239.059 27.2036C234.668 27.3191 230.514 24.2081 227.988 20.8221L227.37 21.0491C227.33 30.1456 223.324 27.8661 222.972 35.0071C224.903 33.2086 226.153 30.5581 227.183 28.1706C228.084 26.0991 227.774 25.8191 229.356 24.9606C231.718 25.0471 234.353 27.4426 237.138 28.6111C241.073 27.2296 243.897 26.0021 247.266 23.4381L248.861 29.7971C249.78 31.4351 250.53 32.7881 251.605 34.3256C251.739 33.0671 251.344 31.6181 251.091 30.3431C249.348 27.9971 248.363 23.7156 248.569 20.7561C245.255 23.5171 242.778 25.0876 239.059 27.2036Z"
    fill="#ADA49D"
  />
  <path
    d="M228.092 13.146C225.204 14.598 222.236 22.461 222.428 25.454L222.927 26C223.992 21.2205 225.112 16.938 229.866 14.5135L228.092 13.146Z"
    fill="#EDE9E2"
  />
  <path
    d="M185.102 3.96058C180.956 2.15608 178.633 1.96559 174.232 3.44459C169.477 5.04259 162.334 13.1151 161.948 18.1216C154.193 34.0296 164.324 42.3481 178.129 47.2436C185.137 46.4091 194.188 41.7281 197.125 35.1536C201.641 25.0471 194.814 8.53458 185.102 3.96058Z"
    fill="#EDE9E2"
  />
  <path
    d="M184.762 14.3591C183.087 11.0651 175.328 11.3386 172.512 13.9216C165.034 15.3586 162.393 27.2696 165.628 32.4046L165.826 32.8821C167.404 31.2756 168.512 26.0406 169.014 23.7011L170.286 23.1946C172.058 23.9766 172.694 24.1626 173.96 25.6041L173.26 26.1141L178.949 28.2731C182.455 27.6186 183.617 27.5051 186.587 25.5511C188.981 27.0936 189.072 30.2496 191.576 31.3361C191.907 32.3446 191.926 32.3736 192.675 33.1436L193.107 32.8881L192.847 31.5641C194.342 27.2381 193.898 21.3281 192.186 17.0596C189.315 15.0011 188.289 13.9156 184.762 14.3591Z"
    fill="#E3DDC7"
  />
  <path
    d="M169.114 19.51C168.013 23.7035 166.905 28.293 165.628 32.4045L165.825 32.882C167.403 31.2755 168.511 26.0405 169.014 23.701L170.285 23.1945C172.058 23.9765 172.693 24.1625 173.959 25.604L173.259 26.114L178.949 28.273C182.454 27.6185 183.616 27.505 186.587 25.551C188.98 27.0935 189.071 30.2495 191.575 31.336C191.907 32.3445 191.925 32.3735 192.674 33.1435L193.106 32.888L192.846 31.564C191.237 27.4145 190.798 23.7355 189.467 19.903C178.606 27.0925 179.317 25.856 169.114 19.51Z"
    fill="#ADA49D"
  />
  <path
    d="M178.944 26.7375C175.806 25.5985 171.681 22.3795 169.978 22.296L169.014 23.701L170.286 23.1945C172.058 23.9765 172.694 24.1625 173.96 25.604L173.26 26.114L178.949 28.273C182.455 27.6185 183.617 27.505 186.587 25.551C188.981 27.0935 189.072 30.2495 191.576 31.336C190.718 28.2175 189.696 25.01 188.752 21.905C185.139 24.2445 183.035 25.503 178.944 26.7375Z"
    fill="#CCC4BF"
  />
  <path
    d="M184.761 14.3591C183.087 11.0651 175.328 11.3386 172.511 13.9216C175.542 16.4841 176.627 19.8936 178.971 23.2241C180.577 20.6556 182.948 16.6161 184.761 14.3591Z"
    fill="#FEFEFE"
  />
  <path
    d="M185.102 3.96045L185.352 4.23546C187.158 6.20946 188.968 6.98096 189.989 9.10646L190.122 9.37695C190.197 9.55495 190.273 9.73295 190.348 9.91095C194.664 11.2969 197.08 24.942 197.072 29.249L197.07 29.423C195.373 32.25 194.242 34.8589 191.252 36.1974L179.254 42.3565C176.348 41.348 168.46 37.207 165.331 35.616L164.022 34.395C158.193 30.217 162.215 23.5755 161.948 18.1215C154.193 34.0295 164.324 42.348 178.129 47.2435C185.137 46.409 194.188 41.728 197.125 35.1535C201.641 25.047 194.814 8.53445 185.102 3.96045Z"
    fill="#C1BCB7"
  />
  <path
    d="M185.102 3.96058C180.956 2.15608 178.633 1.96559 174.232 3.44459C169.477 5.04259 162.334 13.1151 161.948 18.1216C162.215 23.5756 158.193 30.2171 164.022 34.3951C162.729 29.6881 161.913 27.5031 163.33 22.2026C165.055 15.9951 168.749 8.75309 175.324 6.71209C178 5.88209 180.071 6.33308 182.623 4.64608C183.132 5.09258 189.094 9.00158 190.348 9.91108C190.273 9.73308 190.197 9.55509 190.122 9.37709L189.989 9.10659C188.968 6.98109 187.158 6.20959 185.352 4.23559L185.102 3.96058Z"
    fill="#D5CFCC"
  />
  <path
    d="M190.348 9.91113C190.946 12.8121 192.21 14.0641 192.186 17.0596C193.898 21.3281 194.342 27.2381 192.847 31.5641L193.107 32.8881L192.675 33.1436C191.926 32.3736 191.907 32.3446 191.576 31.3361C189.072 30.2496 188.981 27.0936 186.587 25.5511C183.617 27.5051 182.455 27.6186 178.949 28.2731L173.26 26.1141L172.003 26.2041L171.903 27.2816C171.928 27.2761 186.148 29.1376 187.892 29.2761C189.429 31.5131 190.382 33.6351 191.252 36.1976C194.242 34.8591 195.373 32.2501 197.07 29.4231L197.072 29.2491C197.08 24.9421 194.664 11.2971 190.348 9.91113Z"
    fill="#D5CFCC"
  />
  <path
    d="M173.259 26.1138L173.959 25.6038C172.693 24.1623 172.058 23.9763 170.285 23.1943L169.014 23.7008C168.511 26.0403 167.403 31.2753 165.825 32.8818L166.649 34.1613C169.34 32.4848 170.349 30.0348 171.902 27.2813L172.002 26.2038L173.259 26.1138Z"
    fill="#E3DDC7"
  />
  <path
    d="M137.837 37.8095C147.583 26.29 125.699 -10.57 111.555 9.55549C106.299 17.0355 102.985 25.4755 103.683 34.639C108.863 43.3595 121.466 49.9875 130.404 43.3415C132.251 41.968 135.07 40.6755 136.508 38.8765L137.837 37.8095Z"
    fill="#E3DFDA"
  />
  <path
    d="M137.837 37.8095C147.583 26.29 125.699 -10.57 111.555 9.55549C106.299 17.0355 102.985 25.4755 103.683 34.639C108.863 43.3595 121.466 49.9875 130.404 43.3415C132.251 41.968 135.07 40.6755 136.508 38.8765C131.988 41.0605 124.934 46.153 120.258 45.5795C116.959 44.4585 113.41 42.26 110.497 40.401C109.869 40.1985 109.819 40.043 109.301 39.7375C99.181 33.762 107.404 17.057 112.86 9.80549C114.241 10.817 114.961 12.0465 116.523 13.0145C119.03 11.9695 120.397 11.5325 123.085 12.2135C127.81 13.4105 127.148 12.3505 130.607 10.242L130.886 10.076C137.35 18.77 141.306 27.041 137.837 37.8095Z"
    fill="#818081"
  />
  <path
    d="M130.886 10.076C125.568 4.16648 117.644 1.86447 112.86 9.80547C114.242 10.817 114.961 12.0465 116.523 13.0145C119.03 11.9695 120.397 11.5325 123.085 12.2135C127.81 13.4105 127.148 12.3505 130.608 10.242L130.886 10.076Z"
    fill="#FEFEFE"
  />
  <path
    d="M71.4569 7.19605L70.9564 7.15404C68.2274 6.93804 66.3424 7.09254 64.2034 8.97954C57.9424 14.504 54.3529 27.3835 53.8519 35.4515C53.7419 37.2225 53.6284 39.5135 54.9304 40.8955C56.4844 42.5445 63.5099 42.5045 65.7579 42.609C70.0884 42.6175 74.8269 42.757 79.0744 41.838C80.7429 41.4775 82.5664 40.892 83.5119 39.3605C85.5924 35.9905 84.1859 30.5725 83.2559 26.971C81.4039 19.7985 78.1364 11.142 71.4569 7.19605Z"
    fill="#737071"
  />
  <path
    d="M71.2523 8.1359C71.0683 8.1144 70.8843 8.0929 70.6998 8.0794C68.2693 7.9014 66.5078 8.34139 64.6528 9.96239C57.4343 16.2704 55.0213 31.2414 54.5228 40.2684C58.9053 41.5644 62.9568 41.6934 67.5078 41.6274C71.5838 41.6934 78.7368 42.2209 82.0633 39.6494C83.4883 37.6519 83.6568 35.6819 83.3688 33.2784C82.3368 24.6744 78.2713 13.5389 71.2523 8.1359Z"
    fill="#EDE9E2"
  />
  <path
    d="M17.1169 6.36426C15.4558 6.1697 13.7713 6.57211 12.1101 7.74316C8.85825 10.0358 5.68796 15.2829 3.15308 24.7275L2.90991 25.6543C2.4235 27.5483 1.47587 30.912 0.923584 34.2266C0.647588 35.883 0.474188 37.5074 0.503662 38.9131C0.531108 40.2215 0.734291 41.2766 1.13843 41.9941C6.76742 42.9652 14.1621 43.7973 19.7605 43.1592L19.7957 43.1553L19.8318 43.1562C21.4114 43.2022 25.1207 43.144 28.4187 42.5322C30.0721 42.2255 31.581 41.7862 32.6628 41.1777C33.7485 40.567 34.2931 39.8551 34.2898 39.0205C34.2652 33.1597 32.8903 26.8991 30.6785 21.4316C28.4633 15.9559 25.4297 11.3273 22.1277 8.68457C20.4802 7.36615 18.7891 6.56017 17.1169 6.36426Z"
    fill="#EDE9E2"
    stroke="black"
  />
  <path
    d="M19.8173 43.656C23.0153 43.749 34.8083 43.422 34.7898 39.018C34.6903 15.2895 12.7458 -14.687 2.42576 25.53C1.46076 29.2875 -1.39921 39.105 0.830788 42.45C0.900788 33.069 4.61579 16.272 11.1408 9.28949C23.0383 -3.43801 36.8438 34.33 33.1398 40.264C29.7823 43.1325 22.2673 41.78 19.8173 43.656Z"
    fill="#737071"
  />
</svg>
