<svg
  width="464"
  height="98"
  viewBox="0 0 464 98"
  fill="none"
  xmlns="http://www.w3.org/2000/svg"
>
  <path
    d="M0.615513 86.1989C-2.01684 75.0994 4.55141 62.2974 6.08891 51.5089C7.26741 43.2364 3.93541 3.19641 15.1139 2.06641C17.0724 3.98991 16.8019 26.1984 18.4999 30.0599C18.7374 30.5994 19.3439 32.9839 19.6154 33.7824C20.9494 29.1894 23.1069 11.5484 25.5364 9.76541C28.6469 11.4429 29.8404 22.7794 30.3819 26.3179C30.6274 26.9569 31.0079 27.6864 31.3144 28.3144L31.8634 28.1614L32.7099 25.5839C33.6254 21.3584 34.7319 11.0559 36.8834 8.27691L37.7524 8.09191C46.6684 15.4524 39.9719 42.6009 41.1294 52.3854C42.3199 62.4524 47.9219 69.7009 48.2669 80.6484C47.9989 86.6214 48.1624 89.2259 43.6429 93.6079C34.8344 96.3589 33.4029 93.6089 25.4164 93.7439C18.0494 93.8684 1.03326 99.8614 0.615513 86.1989Z"
    fill="#E3DDC7"
  />
  <path
    d="M3.98838 65.3009C13.2779 59.4644 15.6849 55.0719 29.3109 57.2589C36.3219 58.3839 40.8044 64.1374 43.8214 65.1044C45.4754 69.8914 47.2209 74.5374 47.1099 79.6839L48.2669 80.6484C47.9989 86.6214 48.1624 89.2259 43.6429 93.6079C34.8344 96.3589 33.4029 93.6089 25.4164 93.7439C18.0494 93.8684 1.03323 99.8614 0.615479 86.1989L1.11543 80.6434C1.52838 74.0564 2.07388 71.6684 3.98838 65.3009Z"
    fill="#FEFEFE"
  />
  <path
    d="M47.1099 79.6836L48.2669 80.6481C47.9989 86.6211 48.1624 89.2256 43.6429 93.6076C34.8344 96.3586 33.4029 93.6086 25.4164 93.7436C18.0494 93.8681 1.03323 99.8611 0.615479 86.1986L1.11543 80.6431C1.61988 84.2246 2.02288 87.5481 5.27088 89.8936C6.50438 90.7991 8.05938 91.1506 9.56238 90.8636C13.4499 90.1506 15.7724 86.8376 17.9099 83.8831C23.9044 93.1021 25.8594 91.0116 34.9149 87.1926C43.9684 89.2121 47.1109 90.0501 47.1099 79.6836Z"
    fill="#C1BCB7"
  />
  <path
    d="M0.615513 86.1989C-2.01684 75.0994 4.55141 62.2974 6.08891 51.5089C7.26741 43.2364 3.93541 3.19641 15.1139 2.06641C17.0724 3.98991 16.8019 26.1984 18.4999 30.0599C18.7374 30.5994 19.3439 32.9839 19.6154 33.7824C20.9494 29.1894 23.1069 11.5484 25.5364 9.76541C28.6469 11.4429 29.8404 22.7794 30.3819 26.3179C30.6274 26.9569 31.0079 27.6864 31.3144 28.3144L31.8634 28.1614L32.7099 25.5839C33.6254 21.3584 34.7319 11.0559 36.8834 8.27691L37.7524 8.09191C46.6684 15.4524 39.9719 42.6009 41.1294 52.3854C42.3199 62.4524 47.9219 69.7009 48.2669 80.6484L47.1099 79.6839C47.2209 74.5374 45.4754 69.8914 43.8214 65.1044C42.8804 61.1654 40.4754 57.2574 40.1339 52.6284C39.8009 48.1109 40.1639 44.3584 40.6899 39.8614C42.2029 26.9214 42.2969 19.5229 37.1324 7.57291C36.4474 15.2899 30.6694 44.6284 23.6549 46.4674C16.8549 44.3189 15.4859 9.6409 14.7894 2.1524C4.75491 15.4819 8.41191 33.4514 7.50291 48.8394C7.23791 53.3329 5.14191 60.7364 3.98841 65.3009C2.07391 71.6684 1.52841 74.0564 1.11546 80.6434L0.615513 86.1989Z"
    fill="#737071"
  />
  <path
    d="M25.49 11.2607C25.948 11.6012 26.3475 12.0562 26.755 12.4567C28.148 16.6897 31.0605 29.1077 30.0465 33.2072C28.9755 37.5392 26.9825 41.7207 24.493 45.4197C24.2185 45.6607 23.864 45.6727 23.514 45.7512C23.1305 45.3862 22.777 44.9892 22.534 44.5147C21.7225 42.9282 20.9095 40.7807 20.774 39.0067C20.2775 32.4972 23.586 17.7127 25.49 11.2607Z"
    fill="#B7B2AB"
  />
  <path
    d="M30.3821 26.3177C30.9926 26.0257 32.0291 25.7772 32.7101 25.5837L31.8636 28.1612L31.3146 28.3142C31.0081 27.6862 30.6276 26.9567 30.3821 26.3177Z"
    fill="#E3DDC7"
    fill-opacity="0.0156863"
  />
  <path
    d="M79.3135 94.5102C60.399 92.3692 73.6715 59.6317 75.416 49.3412C76.644 42.0952 73.5515 7.41766 82.471 5.06416C87.2015 7.84016 86.594 41.5962 93.689 45.0902C100.733 43.7302 100.314 5.12067 102.882 2.71167C105.823 3.38317 106.996 7.46667 107.93 10.0962C110.57 18.2147 111.904 30.0267 110.504 38.5157C107.931 54.1102 117.806 62.0162 118.725 76.6117C119.986 96.6337 110.163 94.7467 94.906 92.4447C93.917 92.2952 85.8076 94.0177 83.2246 94.1547C81.5251 94.5032 81.0535 94.5247 79.3135 94.5102Z"
    fill="#FEFEFE"
  />
  <path
    d="M79.3135 94.5102C60.399 92.3692 73.6715 59.6317 75.416 49.3412C76.644 42.0952 73.5515 7.41766 82.471 5.06416C87.2015 7.84016 86.594 41.5962 93.689 45.0902C100.733 43.7302 100.314 5.12067 102.882 2.71167C105.823 3.38317 106.996 7.46667 107.93 10.0962C110.57 18.2147 111.904 30.0267 110.504 38.5157C107.931 54.1102 117.806 62.0162 118.725 76.6117C119.986 96.6337 110.163 94.7467 94.906 92.4447C93.917 92.2952 85.8076 94.0177 83.2246 94.1547C90.1936 89.3257 101.724 92.8287 108.536 92.5102C121.842 93.2387 117.867 73.1362 115.175 65.5862C113.102 65.4007 107.889 60.0147 104.504 58.2407C98.3105 54.9282 88.6485 55.4147 82.3195 58.1557C79.3545 59.4402 76.233 63.5547 72.7875 64.3552C70.191 72.9912 68.014 83.2547 74.701 90.7627C76.3935 92.3572 77.448 93.1512 79.3135 94.5102Z"
    fill="#E3DDC7"
  />
  <path
    d="M79.3135 94.5102C60.399 92.3692 73.6715 59.6317 75.416 49.3412C76.644 42.0952 73.5515 7.41766 82.471 5.06416C87.2015 7.84016 86.594 41.5962 93.689 45.0902C100.733 43.7302 100.314 5.12067 102.882 2.71167C105.823 3.38317 106.996 7.46667 107.93 10.0962C110.57 18.2147 111.904 30.0267 110.504 38.5157C107.931 54.1102 117.806 62.0162 118.725 76.6117C119.986 96.6337 110.163 94.7467 94.906 92.4447C93.917 92.2952 85.8076 94.0177 83.2246 94.1547C90.1936 89.3257 101.724 92.8287 108.536 92.5102C121.842 93.2387 117.867 73.1362 115.175 65.5862C113.878 60.5902 109.985 55.0247 109.59 49.6262C108.971 41.1807 112.195 8.53766 103.054 4.45667C102.01 7.51967 102.072 24.9912 100.597 29.5242C98.99 34.4652 98.9655 43.8977 94.626 46.7532C85.9045 47.0022 86.2825 9.40617 82.072 6.93467C75.62 11.9567 77.1175 40.7742 76.3135 49.3482C75.7775 55.0662 74.5345 58.9547 72.7875 64.3552C70.191 72.9912 68.014 83.2547 74.701 90.7627C76.3935 92.3572 77.448 93.1512 79.3135 94.5102Z"
    fill="#818081"
  />
  <path
    d="M95.0089 85.1555C98.9459 87.684 104.136 91.255 108.536 92.51C101.724 92.8285 90.1934 89.3255 83.2244 94.1545C81.5249 94.503 81.0534 94.5245 79.3134 94.51C77.4479 93.151 76.3934 92.357 74.7009 90.7625C81.0994 92.1485 84.6359 91.9285 90.3679 88.244C91.9229 87.2265 93.4699 86.197 95.0089 85.1555Z"
    fill="#B7B2AB"
  />
  <path
    d="M141.473 87.7912C136.426 71.8707 144.511 63.6492 145.955 50.1897C147.411 36.6342 142.952 21.4952 150.235 7.34473C150.894 6.06473 151.473 5.08873 152.901 4.65673C157.43 6.83673 155.149 17.8842 157.151 21.6357C159.297 20.1162 160.227 11.3887 163.755 9.33373L164.641 9.75224C166.7 13.1462 167.258 23.7667 168.407 28.9852L169.323 32.4672L169.836 32.6172L170.657 30.4912C173.561 20.1277 174.288 13.8442 175.645 3.30273C182.725 11.6932 183.652 28.1572 181.603 38.4312C177.979 56.6042 190.203 65.1942 189.136 82.0797C188.075 98.8867 173.336 92.4302 162.754 91.7832C158.028 91.6217 148.519 96.4132 144.549 92.1512C142.836 91.0012 142.363 89.6377 141.473 87.7912Z"
    fill="#E3DDC7"
  />
  <path
    d="M143.843 63.1111C146.786 61.8776 147.726 60.9896 150.383 59.6261C156.942 56.2606 165.364 54.5552 172.486 57.0412C176.215 58.3427 181.813 63.8601 184.892 64.7011C187.996 72.3896 190.603 82.8112 184.934 89.9932C179.67 95.6582 169.967 90.6476 163.081 90.7231C156.059 90.8001 151.893 94.8271 145.111 92.0116L144.549 92.1512C142.836 91.0012 142.363 89.6377 141.473 87.7912L142.346 85.2197C139.648 77.0812 141.495 71.0296 143.843 63.1111Z"
    fill="#FEFEFE"
  />
  <path
    d="M157.194 82.9355C159.372 85.086 161.608 87.4365 164.051 89.2545C166.296 88.281 169.915 86.604 172.133 85.9115C177.846 90.082 178.086 90.77 184.934 89.993C179.67 95.658 169.967 90.6475 163.081 90.723C156.059 90.8 151.893 94.827 145.111 92.0115L144.549 92.151C142.836 91.001 142.363 89.6375 141.473 87.791L142.346 85.2195C147.676 94.046 152.797 88.738 157.194 82.9355Z"
    fill="#C1BCB7"
  />
  <path
    d="M141.473 87.7912C136.426 71.8707 144.511 63.6492 145.955 50.1897C147.411 36.6342 142.952 21.4952 150.235 7.34473C150.894 6.06473 151.473 5.08873 152.901 4.65673C157.43 6.83673 155.149 17.8842 157.151 21.6357C159.297 20.1162 160.227 11.3887 163.755 9.33373L164.641 9.75224C166.7 13.1462 167.258 23.7667 168.407 28.9852L169.323 32.4672L169.836 32.6172L170.657 30.4912C173.561 20.1277 174.288 13.8442 175.645 3.30273C182.725 11.6932 183.652 28.1572 181.603 38.4312C177.979 56.6042 190.203 65.1942 189.136 82.0797C188.075 98.8867 173.336 92.4302 162.754 91.7832C158.028 91.6217 148.519 96.4132 144.549 92.1512L145.111 92.0117C151.893 94.8272 156.059 90.8002 163.081 90.7232C169.967 90.6477 179.67 95.6582 184.934 89.9932C190.603 82.8112 187.996 72.3897 184.892 64.7012C181.386 53.2912 178.681 52.8332 180.525 39.3692C182.199 27.1497 181.709 16.1422 176.366 4.83173C176.253 6.54373 176.127 8.25523 175.986 9.96523C175.33 17.3792 170.219 41.4912 165.272 45.6472C157.078 47.2127 154.6 10.2857 153.485 3.98724C144.493 20.5147 147.742 30.2772 147.212 47.9512C147.077 52.4542 145.189 58.7102 143.843 63.1112C141.495 71.0297 139.648 77.0812 142.346 85.2197L141.473 87.7912Z"
    fill="#737071"
  />
  <path
    d="M163.698 10.3521C163.968 10.5276 164.57 11.02 164.724 11.2855C165.399 12.4525 165.415 16.2425 165.634 17.834C166.434 23.6325 167.291 29.3075 169.106 34.899C168.228 38.045 166.837 43.5875 163.999 45.4625C161.896 42.3965 160.369 38.2015 159.397 34.623C157.068 26.046 159.393 17.9366 163.698 10.3521Z"
    fill="#B7B2AB"
  />
  <path
    d="M168.407 28.9851C170.247 29.4226 169.657 29.0056 170.657 30.4911L169.836 32.6171L169.323 32.4671L168.407 28.9851Z"
    fill="#C1BCB7"
    fill-opacity="0.0117647"
  />
  <path
    d="M226.384 1.97437C227.112 2.19887 227.874 2.47986 228.48 2.95486C235.394 8.37236 237.325 35.1394 238.613 44.0334C239.54 50.4344 240.628 56.8104 241.876 63.1559C243.282 69.9819 246.463 76.5334 247.284 83.4314C247.572 85.8519 247.601 88.9919 245.965 90.9879C243.078 94.5104 236.454 94.8634 232.268 95.2024C226.394 95.4259 218.335 94.9669 213.216 91.7869C211.719 90.8569 210.832 89.6024 210.465 87.8769C208.898 80.4994 214.794 70.5819 216.089 63.1939C218.585 48.9589 219.043 12.8539 226.384 1.97437Z"
    fill="#737071"
  />
  <path
    d="M216.516 67.2808C217.906 58.1563 222.453 7.76935 226.85 3.68335C233.714 6.04085 236.546 36.5214 237.613 43.7844C238.74 51.7314 240.132 59.6379 241.788 67.4914C243.084 72.5089 250.029 87.8764 244.173 91.5144C237.594 95.6019 217.495 95.5004 212.168 89.4264C209.049 85.8699 215.267 71.8978 216.516 67.2808Z"
    fill="#FEFEFE"
  />
  <path
    d="M216.516 67.2808C217.906 58.1563 222.453 7.76935 226.85 3.68335C233.714 6.04085 236.546 36.5214 237.613 43.7844C238.74 51.7314 240.132 59.6379 241.788 67.4914C238.703 66.4764 235.283 58.5839 229.887 58.4034C222.896 58.1694 221.038 63.7249 216.81 67.0534L216.516 67.2808Z"
    fill="#E3DDC7"
  />
  <path
    d="M287.36 2.37134C288.068 2.47134 288.739 2.78984 289.403 3.04684C295.477 10.6493 297.644 51.0893 300.104 63.3163C301.474 70.1268 305.285 76.8008 305.953 83.6588C306.169 85.8718 305.987 89.5198 304.417 91.2753C301.377 94.6743 291.941 94.4768 287.623 94.8533C282.697 94.5558 275.08 94.9973 270.936 92.0833C269.609 91.1508 268.93 89.8103 268.661 88.2358C267.322 80.3808 272.315 71.6403 273.823 64.0503C277.074 47.6848 278.346 15.3433 287.36 2.37134Z"
    fill="#818081"
  />
  <path
    d="M274.439 67.3838C276.121 55.2888 281.705 11.7798 287.794 3.98328L288.652 3.82178C293.388 7.19928 297.508 58.6903 300.333 68.6688C302.799 75.8248 305.262 80.3898 305.008 88.0828C303.135 92.9158 297.997 93.5023 293.436 92.4143C289.664 93.6518 286.614 94.5363 282.633 92.9343C278.288 93.7313 270.732 93.3913 269.489 88.1178C269.837 80.2428 271.879 74.7683 274.439 67.3838Z"
    fill="#FEFEFE"
  />
  <path
    d="M274.439 67.3838C276.121 55.2888 281.705 11.7798 287.794 3.98328L288.651 3.82178C293.388 7.19928 297.508 58.6903 300.332 68.6688C294.67 65.9748 292.702 54.2623 282.356 60.3233C278.716 62.4563 277.423 66.4998 274.439 67.3838Z"
    fill="#E3DDC7"
  />
  <path
    d="M269.489 88.1179C274.617 88.4334 278.427 90.0179 282.633 92.9344C278.288 93.7314 270.732 93.3914 269.489 88.1179Z"
    fill="#B7B2AB"
  />
  <path
    d="M305.008 88.0828C303.135 92.9158 297.997 93.5023 293.436 92.4143C296.562 90.4733 301.39 89.1748 305.008 88.0828Z"
    fill="#C1BCB7"
  />
  <path
    d="M341.987 0.820312C342.214 0.936312 342.314 0.981308 342.544 1.13331C346.743 3.92231 348.771 14.5433 349.771 19.1508C352.724 32.7588 352.793 46.5418 354.535 60.2788C355.372 66.8863 357.755 73.6068 358.01 80.2223C358.116 82.9858 357.927 85.9728 356.343 88.3358C353.732 92.2333 347.901 95.5773 343.31 96.4043C342.395 96.3603 341.502 96.2628 340.612 96.0373C334.784 94.5578 330.221 90.4168 327.154 85.4013C327.063 83.7793 326.986 82.1413 327.052 80.5173C327.306 74.3208 329.46 68.1098 330.206 61.9248C331.744 49.1858 332.914 9.21431 341.987 0.820312Z"
    fill="#737071"
  />
  <path
    d="M330.909 65.8188C331.979 55.1328 334.884 9.38927 341.862 2.81177C350.374 6.11477 353.351 58.5238 355.005 69.0423C357.55 80.0148 360.519 95.2233 340.697 94.8503C336.301 94.7678 330.754 89.2468 328.167 85.4538C327.824 77.6233 329.169 73.4098 330.909 65.8188Z"
    fill="#E3DDC7"
  />
  <path
    d="M330.909 65.8189C336.318 62.5379 340.364 48.9264 349.523 61.3034C351.229 63.6099 352.666 67.7228 355.005 69.0423C357.55 80.0148 360.519 95.2233 340.697 94.8503C336.301 94.7678 330.754 89.2468 328.167 85.4538C327.824 77.6233 329.169 73.4099 330.909 65.8189Z"
    fill="#FEFEFE"
  />
  <path
    d="M392.487 2.14868C393.43 2.47718 394.299 2.84168 395.032 3.54368C402.83 11.0172 408.108 70.9242 408.479 83.3827C408.55 85.7447 408.997 90.9532 407.285 92.7052C404.862 95.1837 398.407 94.9857 395.161 95.0762C390.067 95.0187 385.071 94.9047 380.311 92.9027C380.012 91.3632 379.722 89.8152 379.525 88.2587C377.594 73.0167 381.828 51.2417 384.075 35.9417C385.354 27.2407 386.079 18.2082 388.645 9.76568C389.528 6.86118 390.602 4.54968 392.487 2.14868Z"
    fill="#545257"
  />
  <path
    d="M380.98 67.9513C381.02 59.2883 388.219 8.38184 392.535 4.05784C392.609 3.98384 392.686 3.91284 392.761 3.83984C400.373 4.44684 406.435 61.1983 406.481 69.5373C407.109 73.8343 408.6 88.1328 407.061 91.5993C403.31 94.9193 385.447 94.7788 381.554 92.1233C379.062 87.8093 380.587 73.5668 380.98 67.9513Z"
    fill="#E3DDC7"
  />
  <path
    d="M380.98 67.9514C385.237 65.0949 391.034 48.0479 400.068 58.8854C402.061 61.2769 404.663 68.5719 406.481 69.5374C407.109 73.8344 408.6 88.1329 407.061 91.5994C403.31 94.9194 385.447 94.7789 381.554 92.1234C379.062 87.8094 380.587 73.5669 380.98 67.9514Z"
    fill="#FEFEFE"
  />
  <path
    d="M429.7 83.4665C430.231 70.358 432.535 57.178 434.811 44.2715C436.205 36.367 439.264 0.042 448.973 0C455.308 3.4315 458.298 39.2235 459.453 47.6605C461.423 62.0665 465.398 81.5955 462.758 95.757C457.833 97.3215 455.123 97.2305 449.933 97.0845C444.117 97.556 435.723 96.8105 430.137 95.2805C429.581 90.731 429.462 88.007 429.7 83.4665Z"
    fill="#FEFEFE"
  />
  <path
    d="M429.7 83.4665C430.231 70.358 432.535 57.178 434.811 44.2715C436.205 36.367 439.264 0.042 448.973 0C455.308 3.4315 458.298 39.2235 459.453 47.6605C461.423 62.0665 465.398 81.5955 462.758 95.757C457.833 97.3215 455.123 97.2305 449.933 97.0845C451.608 96.851 453.158 96.489 454.808 96.1235C456.943 96.0675 459.823 95.6625 461.998 95.422C463.583 87.536 462.633 75.4665 461.248 67.604C458.098 65.8425 455.683 56.0655 449.708 54.389C440.055 51.68 437.246 62.9025 432.628 64.747C431.676 70.357 430.716 76.875 430.65 82.575L429.7 83.4665Z"
    fill="#E3DDC7"
  />
  <path
    d="M429.7 83.4665C430.231 70.358 432.535 57.178 434.811 44.2715C436.205 36.367 439.264 0.042 448.973 0C455.308 3.4315 458.298 39.2235 459.453 47.6605C461.423 62.0665 465.398 81.5955 462.758 95.757C457.833 97.3215 455.123 97.2305 449.933 97.0845C451.608 96.851 453.158 96.489 454.808 96.1235C456.943 96.0675 459.823 95.6625 461.998 95.422C463.583 87.536 462.633 75.4665 461.248 67.604C461.288 64.4515 459.333 52.3875 458.773 49.0415C457.403 40.8025 454.588 4.492 448.488 0.844498C440.141 2.884 433.901 54.655 432.628 64.747C431.676 70.357 430.716 76.875 430.65 82.575L429.7 83.4665Z"
    fill="#545257"
  />
  <path
    d="M430.65 82.575C430.617 86.5365 430.455 90.841 431.044 94.7315C439.662 96.4385 446.035 96.098 454.808 96.1235C453.158 96.489 451.608 96.851 449.933 97.0845C444.117 97.556 435.723 96.8105 430.137 95.2805C429.581 90.731 429.462 88.007 429.7 83.4665L430.65 82.575Z"
    fill="#818081"
  />
</svg>
