<svg
  width="463"
  height="50"
  viewBox="0 0 463 50"
  fill="none"
  xmlns="http://www.w3.org/2000/svg"
>
  <path
    d="M28.1702 3.65756C28.6777 3.48256 29.0822 3.42406 29.6187 3.42506C33.2437 3.43256 36.6402 4.48406 39.2282 7.09655C43.8357 11.7481 45.3587 18.1966 45.3412 24.5531C45.3247 30.6306 44.0232 38.2581 39.4882 42.6711C34.3132 47.7071 24.3732 46.0551 17.6967 45.8701C13.3537 45.9181 9.9102 45.6721 6.3942 42.8491C2.4982 39.7211 0.689698 34.5581 0.185198 29.7241C-0.488202 23.2746 0.5892 15.2396 4.8342 10.1011C10.1512 3.66506 20.5232 4.34756 28.1702 3.65756Z"
    fill="#545257"
  />
  <path
    d="M35.2412 44.9399C28.7207 45.5699 10.2927 46.4454 6.02721 41.3599C-0.839038 33.4559 -0.291888 16.0524 7.33921 8.90093C11.2557 5.23043 28.6042 4.59444 34.1932 4.99844C38.9872 7.84094 41.0932 10.1959 43.0142 15.3514C45.0472 20.6009 44.5457 28.2364 43.0542 33.5899C41.8647 39.0889 39.5227 41.7489 35.2412 44.9399Z"
    fill="#ADA49D"
  />
  <path
    d="M35.2412 44.9399C28.7207 45.5699 10.2927 46.4454 6.02721 41.3599C-0.839038 33.4559 -0.291888 16.0524 7.33921 8.90093C11.2557 5.23043 28.6042 4.59444 34.1932 4.99844C38.9872 7.84094 41.0932 10.1959 43.0142 15.3514C39.8397 12.8509 41.9432 11.3619 36.8962 10.3114C33.5677 7.73494 27.6552 5.82143 24.6787 9.95643C23.3452 10.0924 21.4022 10.2284 20.1342 10.4409C16.6967 10.5279 9.89321 11.5574 7.66471 14.3349L7.92271 15.1469L7.54421 16.1339C5.32071 18.1084 4.99171 19.9194 4.42321 22.8164C3.75321 26.4069 3.97021 27.5874 4.42171 31.2374L4.81621 31.4469C5.00321 29.6984 5.26621 28.0949 5.55371 26.3604C5.66021 27.9279 5.55521 29.3109 6.58571 30.4544L7.73921 30.9769L7.32621 32.3709L7.71421 32.8359C9.37071 31.6934 11.1387 30.2604 13.0712 29.8499C14.9542 30.3554 15.4187 30.7019 15.7982 32.8194C16.4742 33.9059 17.1322 35.0029 17.7727 36.1109L18.1367 35.6029C19.0277 36.4834 18.5772 36.2529 19.8587 36.4389C21.4222 36.6174 21.8232 36.2909 23.1672 35.5649C23.5692 36.6414 23.8757 38.5629 24.3057 39.0559L26.5792 38.6964C27.5887 39.6214 28.6812 39.5319 30.0432 39.6109C28.6972 40.0724 27.3552 40.5469 26.0187 41.0344C31.2052 45.8984 40.1767 37.7509 43.0542 33.5899C41.8647 39.0889 39.5227 41.7489 35.2412 44.9399Z"
    fill="#D5CFCC"
  />
  <path
    d="M15.7983 32.8196C16.4743 33.9061 17.1323 35.0031 17.7728 36.1111L18.1368 35.6031C19.0278 36.4836 18.5773 36.2531 19.8588 36.4391C21.4223 36.6176 21.8233 36.2911 23.1673 35.5651C23.5693 36.6416 23.8758 38.5631 24.3058 39.0561C18.7178 42.1706 16.8938 36.8826 15.7983 32.8196Z"
    fill="#CCC4BF"
  />
  <path
    d="M24.6788 9.95657C27.6553 5.82157 33.5678 7.73509 36.8963 10.3116C41.9433 11.3621 39.8398 12.8511 43.0143 15.3516C45.0473 20.6011 44.5458 28.2366 43.0543 33.5901C40.1768 37.7511 31.2053 45.8986 26.0188 41.0346C27.3553 40.5471 28.6973 40.0726 30.0433 39.6111C28.6813 39.5321 27.5888 39.6216 26.5793 38.6966C36.1473 37.0836 40.2278 33.9311 41.3978 23.8771L41.3833 23.2046L40.0163 22.5396L37.3803 22.4836C36.5458 21.0476 38.7303 20.1401 38.7963 16.4566L38.8008 15.9991C33.5693 15.6026 30.6263 16.9416 27.1723 11.4336L26.2403 11.4921L24.8163 11.4351C23.2663 10.3236 22.1938 10.5746 20.1343 10.4411C21.4023 10.2286 23.3453 10.0926 24.6788 9.95657Z"
    fill="#CECAC7"
  />
  <path
    d="M27.1724 11.4336C33.5769 11.4536 41.3579 12.7826 41.2079 20.7161C41.2009 21.0421 41.1889 21.3686 41.1709 21.6941C40.6739 22.1571 40.6319 22.2986 40.0164 22.5396L37.3804 22.4836C36.5459 21.0476 38.7304 20.1401 38.7964 16.4566L38.8009 15.9991C33.5694 15.6026 30.6264 16.9416 27.1724 11.4336Z"
    fill="#EDE5DF"
  />
  <path
    d="M24.6787 9.95657C27.6552 5.82157 33.5677 7.73509 36.8962 10.3116C37.0117 11.0921 37.1157 10.9996 37.6692 11.7226L37.5737 12.0521C30.9892 10.5246 32.7877 9.98357 24.6787 9.95657Z"
    fill="#EDE9E2"
  />
  <path
    d="M7.92284 15.1472C12.0783 12.3222 17.4518 11.4132 22.3918 11.9117L22.5053 12.5162C20.4638 17.5917 22.0203 18.8852 21.2553 23.4202C20.4268 23.7787 19.7618 24.0342 18.9973 24.5232L19.2608 24.4517C19.3603 24.5932 19.5843 24.8967 19.6678 25.0357L19.2688 25.0952L19.6603 25.1907C18.8383 25.8517 17.2773 26.3462 16.2403 26.7447L13.3938 26.1007C11.5928 24.8642 10.7583 24.5452 8.71984 23.7052C7.63834 23.8897 6.78834 24.0072 5.69584 24.1077L4.42334 22.8167C4.99184 19.9197 5.32084 18.1087 7.54434 16.1342L7.92284 15.1472Z"
    fill="#E1DAD2"
  />
  <path
    d="M7.92269 15.1472C12.0782 12.3222 17.4517 11.4132 22.3917 11.9117C19.8027 14.0727 12.2077 16.0462 8.81419 16.6852C8.46519 16.5477 7.82569 16.3292 7.54419 16.1342L7.92269 15.1472Z"
    fill="#EDE9E2"
  />
  <path
    d="M9.90918 19.5466C14.4532 23.5196 15.0847 23.7996 21.2552 23.4201C20.4267 23.7786 19.7617 24.0341 18.9972 24.5231L19.2607 24.4516C19.3602 24.5931 19.5842 24.8966 19.6677 25.0356L19.2687 25.0951L19.6602 25.1906C18.8382 25.8516 17.2772 26.3461 16.2402 26.7446L13.3937 26.1006C11.9902 23.4861 10.9987 22.6521 9.90918 19.5466Z"
    fill="#CCC4BF"
  />
  <path
    d="M8.7197 23.7051L7.6887 22.2201C7.4637 20.6226 7.4627 20.4241 8.1207 18.9151L8.9767 18.6101L9.9092 19.5466C10.9987 22.6521 11.9902 23.4861 13.3937 26.1006C11.5927 24.8641 10.7582 24.5451 8.7197 23.7051Z"
    fill="#B7B2AB"
  />
  <path
    d="M40.5403 24.0632L41.3978 23.8772C40.2278 33.9312 36.1473 37.0837 26.5793 38.6967L24.3058 39.0562C23.8758 38.5632 23.5693 36.6417 23.1673 35.5652C22.8983 34.0057 22.5813 31.4697 23.3663 30.0612C23.9698 28.9662 25.0343 28.2012 26.2648 27.9787C29.4943 27.3847 31.9308 29.1162 34.3038 30.8337L35.4698 31.3322C36.2288 28.8427 38.1748 25.1842 40.5403 24.0632Z"
    fill="#EDE9E2"
  />
  <path
    d="M26.2403 11.4921L27.1723 11.4336C30.6263 16.9416 33.5693 15.6026 38.8008 15.9991C38.0578 17.9421 37.5138 17.8291 36.4718 19.1176C32.5853 23.9236 24.8988 21.9616 25.8378 15.2151C26.0493 13.6971 25.2728 13.3081 26.2403 11.4921Z"
    fill="#E1DAD2"
  />
  <path
    d="M25.2863 24.8825C31.6658 24.5475 32.7378 24.3754 34.3038 30.8334C31.9308 29.1159 29.4943 27.3844 26.2648 27.9784C25.0343 28.2009 23.9698 28.966 23.3663 30.061C22.5813 31.4695 22.8983 34.0054 23.1673 35.5649C21.8233 36.2909 21.4223 36.6174 19.8588 36.4389C20.4858 29.1544 17.4513 29.256 25.2863 24.8825Z"
    fill="#C1BCB7"
  />
  <path
    d="M11.5807 27.7166L11.8557 27.7446C14.0802 27.9586 15.3842 27.9985 17.7517 28.326C19.0712 30.2735 18.1947 33.0445 18.1367 35.603L17.7727 36.1111C17.1322 35.0031 16.4742 33.906 15.7982 32.8195C15.4187 30.702 14.9542 30.3556 13.0712 29.8501C11.1387 30.2606 9.37067 31.6935 7.71417 32.836L7.32617 32.371L7.73917 30.9771C9.14367 29.6121 10.0142 28.9016 11.5807 27.7166Z"
    fill="#C1BCB7"
  />
  <path
    d="M22.5052 12.5161L23.7987 12.9466C25.0042 19.5801 25.0052 26.6396 16.6192 26.7461L16.2402 26.7446C17.2772 26.3461 18.8382 25.8516 19.6602 25.1906L19.2687 25.0951L19.6677 25.0356C19.5842 24.8966 19.3602 24.5931 19.2607 24.4516L18.9972 24.5231C19.7617 24.0341 20.4267 23.7786 21.2552 23.4201C22.0202 18.8851 20.4637 17.5916 22.5052 12.5161Z"
    fill="#C1BCB7"
  />
  <path
    d="M5.55371 26.3605L5.76671 25.67C8.11771 24.692 10.8072 24.931 11.5807 27.7165C10.0142 28.9015 9.14371 29.612 7.73921 30.977L6.58571 30.4545C5.55521 29.311 5.66021 27.928 5.55371 26.3605Z"
    fill="#CCC4BF"
  />
  <path
    d="M33.5432 24.7512L40.5402 24.0632C38.1747 25.1842 36.2287 28.8427 35.4697 31.3322C35.2387 28.7252 34.5497 27.0782 33.5432 24.7512Z"
    fill="#CCC4BF"
  />
  <path
    d="M95.1278 0.713286C95.8448 0.682286 96.5623 0.6713 97.2798 0.6808C101.571 0.7558 105.406 2.44729 108.357 5.56129C114.059 11.5793 115.044 22.0178 114.755 29.9003C114.545 35.6208 112.584 41.1038 108.265 45.0328C101.831 50.8863 93.8638 48.6913 86.0578 48.2818C80.8258 48.1358 76.4313 47.5403 72.1913 44.0858C67.6568 40.3918 65.1838 35.0083 64.5993 29.2783C63.8813 22.2458 64.4423 13.1548 69.1268 7.49879C75.4783 -0.169706 86.2603 1.64929 95.1278 0.713286Z"
    fill="#737071"
  />
  <path
    d="M95.8789 1.89795C100.716 2.02545 104.577 2.71345 107.944 6.40045C112.997 11.933 114.002 23.3764 113.751 30.3869C113.254 44.3174 103.586 49.4035 90.9124 47.6355C83.2924 46.573 76.0429 47.9265 70.1209 41.0105C66.6189 37.0375 65.2994 31.4124 65.6204 26.2399L65.1539 25.8804C64.9259 21.8334 66.6879 12.4964 69.2134 9.01395C75.5349 0.298946 85.5449 3.87845 95.8789 1.89795Z"
    fill="#D5CFCC"
  />
  <path
    d="M88.5494 10.9367C89.0359 11.3217 89.2329 11.5017 89.7939 11.7747L90.1559 11.9467L90.3484 12.6587C90.5199 11.8897 90.7084 11.5862 91.0519 10.8992L93.7244 10.2087C96.9449 11.4147 102.4 13.3827 105.17 15.4312L105.931 15.8617L105.182 16.9467L104.883 18.1842L105.97 18.5967C107.572 19.3717 107.702 20.7347 107.978 22.4207L108.71 23.2642L109.48 23.8262C114.373 26.3372 111.673 36.5417 106.75 37.9547C105.488 38.3172 104.212 38.6642 102.937 38.9697L95.0669 40.8137L93.3769 41.4212C92.4774 40.4997 91.8569 39.2212 91.2119 38.0812L90.4174 37.7662L89.4909 37.9752C88.6864 39.1472 88.0984 39.8477 87.8124 41.2662C78.0489 38.5672 70.1589 37.2317 68.4619 25.9267L68.2279 24.2892C68.0599 23.9932 68.1659 23.8862 68.2164 23.4047L70.0949 22.8102C71.5424 22.7247 72.6819 22.8382 73.8029 22.0062C74.1564 20.3002 73.3129 19.0942 72.5949 17.2502L71.9284 15.1242L72.3944 14.1717L73.2464 14.4437L74.7059 15.1842C77.6969 15.0237 84.0569 15.0992 85.2284 12.0587L85.8254 13.9717L87.8164 11.8327L88.5494 10.9367Z"
    fill="#ADA49D"
  />
  <path
    d="M109.48 23.8264C114.373 26.3374 111.673 36.5419 106.75 37.9549C105.488 38.3174 104.212 38.6644 102.937 38.9699L95.0669 40.8139L93.3769 41.4214C92.4774 40.4999 91.8569 39.2214 91.2119 38.0814C95.6074 36.1229 92.6164 35.4644 95.5514 31.9149C96.5839 30.2414 96.0949 30.5279 97.7019 29.7299C100.797 30.2834 100.497 32.4149 104.238 32.8904L105.872 34.2374L106.366 34.7909C107.272 31.3149 106.95 28.5259 108.481 24.8019L109.48 23.8264Z"
    fill="#EDE9E2"
  />
  <path
    d="M95.5515 31.9147C96.584 30.2412 96.095 30.5277 97.702 29.7297C100.798 30.2832 100.497 32.4147 104.239 32.8902L105.873 34.2372L106.366 34.7907L105.138 35.1517C104.134 34.7677 96.2 32.3167 95.7565 32.3857L95.5515 31.9147Z"
    fill="#EDE5DF"
  />
  <path
    d="M95.5514 31.9148L95.7564 32.3858C95.7164 35.1123 94.5954 39.5848 95.0669 40.8138L93.3769 41.4213C92.4774 40.4998 91.8569 39.2213 91.2119 38.0813C95.6074 36.1228 92.6164 35.4643 95.5514 31.9148Z"
    fill="#D5CFCC"
  />
  <path
    d="M85.2285 12.0588L85.8255 13.9718L87.8165 11.8328C88.537 14.9373 89.7095 20.8003 90.6385 23.6293C84.5095 24.8033 83.16 25.1008 77.1175 23.9593C76.0835 21.9103 74.574 18.2358 72.595 17.2503L71.9285 15.1243L72.3945 14.1718L73.2465 14.4438L74.706 15.1843C77.697 15.0238 84.057 15.0993 85.2285 12.0588Z"
    fill="#CCC4BF"
  />
  <path
    d="M85.2283 12.0588L85.8253 13.9718L86.8928 22.5083C80.2083 22.5528 77.8063 21.6348 74.7058 15.1843C77.6968 15.0238 84.0568 15.0993 85.2283 12.0588Z"
    fill="#E1DAD2"
  />
  <path
    d="M68.4619 25.927C74.5649 27.7095 69.2219 31.075 74.4624 33.129C78.0799 34.958 77.1654 29.096 84.1349 28.7835C86.1474 28.951 85.8359 28.609 87.0574 29.7495C88.0189 32.599 86.3854 35.959 88.1024 37.4915L89.4909 37.9755C88.6864 39.1475 88.0984 39.848 87.8124 41.2665C78.0489 38.5675 70.1589 37.232 68.4619 25.927Z"
    fill="#EDE9E2"
  />
  <path
    d="M84.135 28.7834C86.1475 28.9509 85.836 28.609 87.0575 29.7495C88.019 32.599 86.3855 35.9589 88.1025 37.4914C86.4625 37.6544 86.7635 37.8724 85.5255 37.1834C84.337 34.7934 84.9615 32.082 84.221 29.116L84.135 28.7834Z"
    fill="#E1DAD2"
  />
  <path
    d="M91.052 10.8992L93.7245 10.2087C96.945 11.4147 102.401 13.3827 105.171 15.4312L105.932 15.8617L105.182 16.9467C101.744 17.6842 95.2955 31.1522 91.052 10.8992Z"
    fill="#E1DAD2"
  />
  <path
    d="M93.7244 10.2087C96.9449 11.4147 102.4 13.3827 105.17 15.4312C101.442 18.3727 95.7289 13.7322 93.7244 10.2087Z"
    fill="#EDE9E2"
  />
  <path
    d="M77.6804 25.4177C83.9489 26.6992 85.0789 26.0087 91.0419 25.7137C91.1039 29.1017 91.0024 34.4307 90.4174 37.7662L89.4909 37.9752L88.1024 37.4912C86.3854 35.9587 88.0189 32.5987 87.0574 29.7492C85.8359 28.6087 86.1474 28.9507 84.1349 28.7832C77.1654 29.0957 78.0799 34.9577 74.4624 33.1287L74.6764 32.7252C76.1084 31.4902 76.9569 27.5017 77.6804 25.4177Z"
    fill="#CCC4BF"
  />
  <path
    d="M88.5493 10.9369C89.0358 11.3219 89.2328 11.5019 89.7938 11.7749L90.1558 11.9469L90.3483 12.6589C90.5198 11.8899 90.7083 11.5864 91.0518 10.8994C95.2953 31.1524 101.744 17.6844 105.182 16.9469L104.883 18.1844C102.422 27.2519 99.8568 26.9129 92.1178 24.0979C91.4103 20.5964 90.4033 13.7139 88.5493 10.9369Z"
    fill="#CCC4BF"
  />
  <path
    d="M91.2119 38.0814C92.8729 35.2449 92.4344 29.7884 92.4024 26.3284C93.8904 25.5369 94.3364 26.5614 95.7184 26.7034C102.217 27.3719 101.072 27.4124 104.238 32.8904C100.497 32.4149 100.797 30.2834 97.7019 29.7299C96.0949 30.5279 96.5839 30.2414 95.5514 31.9149C92.6164 35.4644 95.6074 36.1229 91.2119 38.0814Z"
    fill="#E3DDC7"
  />
  <path
    d="M68.2278 24.2895C71.2803 24.276 73.6348 23.972 76.5583 23.8445C75.7423 26.6845 74.6353 29.8125 74.6763 32.7255L74.4623 33.129C69.2218 31.075 74.5648 27.7095 68.4618 25.927L68.2278 24.2895Z"
    fill="#E1DAD2"
  />
  <path
    d="M102.27 26.386C104.486 25.7455 106.223 25.2965 108.481 24.802C106.95 28.526 107.272 31.315 106.366 34.791L105.872 34.2375C106.252 32.3235 103.469 28.5885 102.27 26.386Z"
    fill="#CCC4BF"
  />
  <path
    d="M105.97 18.5969C107.572 19.3719 107.702 20.7349 107.978 22.4209L108.71 23.2644C107.31 23.5784 105.898 24.0949 104.645 23.4729C104.37 21.7589 105.256 20.4079 105.97 18.5969Z"
    fill="#E3DDC7"
  />
  <path
    d="M65.6204 26.2399L65.1539 25.8804C64.9259 21.8334 66.6879 12.4964 69.2134 9.01395C75.5349 0.298946 85.5449 3.87845 95.8789 1.89795C95.2689 2.53695 94.3954 3.18245 94.3524 3.88245C84.6599 12.4439 83.2044 1.82295 78.1154 6.94495C81.4169 6.33295 83.3834 5.61645 85.8699 8.48145C88.8509 8.37395 91.2459 8.33595 94.2259 8.45195C97.8824 9.81595 105.297 12.6374 108.074 15.3829C108.61 17.4704 110.399 18.738 110.069 20.698L109.505 21.2349L108.584 18.8414L108.152 18.9684C108.569 20.6709 109 21.0385 108.388 22.3255L107.978 22.4209C107.702 20.7349 107.572 19.372 105.97 18.597L104.883 18.1844L105.182 16.9469L105.931 15.862L105.17 15.4314C102.4 13.3829 96.9449 11.415 93.7244 10.209L91.0519 10.8994C90.7084 11.5864 90.5199 11.89 90.3484 12.659L90.1559 11.9469L89.7939 11.7749C89.2329 11.5019 89.0359 11.322 88.5494 10.937L87.8164 11.8329L85.8254 13.972L85.2284 12.0589C84.0569 15.0994 77.6969 15.0239 74.7059 15.1844L73.2464 14.444L72.3944 14.172L71.9284 15.1245L72.5949 17.2504C73.3129 19.0944 74.1564 20.3005 73.8029 22.0065C72.6819 22.8385 71.5424 22.7249 70.0949 22.8104L68.2164 23.405C68.1659 23.8865 68.0599 23.9934 68.2279 24.2894L68.4619 25.9269C70.1589 37.2319 78.0489 38.5674 87.8124 41.2664C88.0984 39.8479 88.6864 39.1474 89.4909 37.9754L90.4174 37.7664L91.2119 38.0815C91.8569 39.2215 92.4774 40.4999 93.3769 41.4214L95.0669 40.8139L102.937 38.9699L103.433 40.4494C100.762 40.8694 98.6169 41.474 96.0189 42.172C92.7139 42.8575 91.2219 42.9989 87.8409 43.1599C84.8474 41.6284 79.6339 40.2724 75.9514 38.6109C71.7824 36.2029 74.6134 38.3409 71.6794 37.5024C69.8869 33.1914 70.2744 35.3364 68.1169 34.3604C66.3084 31.5189 66.3809 29.5634 65.6204 26.2399Z"
    fill="#C7C2BF"
  />
  <path
    d="M78.1154 6.94497C81.4169 6.33297 83.3834 5.61647 85.8699 8.48147C82.4984 9.21547 74.0604 12.456 71.7659 11.983L72.0354 11.118C74.1739 8.88898 75.4254 8.35397 78.1154 6.94497Z"
    fill="#FEFEFE"
  />
  <path
    d="M73.2463 14.4439C75.3978 12.7769 81.6448 10.8294 84.4933 11.0939L85.2283 12.0589C84.0568 15.0994 77.6968 15.0239 74.7058 15.1844L73.2463 14.4439Z"
    fill="#EDE9E2"
  />
  <path
    d="M70.095 22.8103C69.5265 22.5493 69.3915 22.3693 68.9125 21.9693C68.832 19.6253 69.4555 16.0938 71.9285 15.1243L72.595 17.2503C73.313 19.0943 74.1565 20.3003 73.803 22.0063C72.682 22.8383 71.5425 22.7248 70.095 22.8103Z"
    fill="#E1DAD2"
  />
  <path
    d="M90.4173 37.7664L91.2118 38.0814C91.8568 39.2214 92.4773 40.4999 93.3768 41.4214C90.9478 41.7249 90.2643 41.6079 87.8123 41.2664C88.0983 39.8479 88.6863 39.1474 89.4908 37.9754L90.4173 37.7664Z"
    fill="#CCC4BF"
  />
  <path
    d="M94.226 8.45177L91.85 7.81526L91.5005 7.14926C92.665 5.83426 96.2315 5.55477 97.99 5.41577C101.844 7.25027 108.395 10.2433 108.074 15.3828C105.297 12.6373 97.8825 9.81577 94.226 8.45177Z"
    fill="#FEFEFE"
  />
  <path
    d="M103.433 40.4493C104.783 39.8913 106.495 38.9878 107.863 39.2803C108.031 41.0448 105.912 42.5843 104.643 43.7438C102.277 43.8073 99.0618 44.0743 96.8688 43.4293L96.0188 42.1718C98.6168 41.4738 100.762 40.8693 103.433 40.4493Z"
    fill="#EDE9E2"
  />
  <path
    d="M87.8409 43.1601C85.6434 44.7801 78.2219 43.0096 76.2269 40.9971C76.3549 39.9781 76.3259 39.5691 75.9514 38.6111C79.6339 40.2726 84.8474 41.6286 87.8409 43.1601Z"
    fill="#EDE9E2"
  />
  <path
    d="M151.254 0.36974C159.472 0.34324 169.691 -1.68275 176.341 4.03475C182.867 9.64575 184.117 18.9943 184.765 27.0783C185.264 33.3028 184.372 39.4677 180.096 44.3397C177.165 47.6797 173.297 49.3922 168.918 49.7007C160.774 49.2722 149.099 50.3202 142.145 45.4907C137.729 42.4232 135.19 37.3822 134.303 32.1827C133.012 24.6092 134.109 13.8347 138.729 7.47724C141.917 3.08974 146.068 1.22524 151.254 0.36974Z"
    fill="#C1BCB7"
  />
  <path
    d="M141.698 35.6246C139.982 34.8656 139.403 34.6566 138.552 32.9586C137.014 32.6146 137.668 32.5752 135.983 33.4122L135.567 32.7926C134.711 10.9781 137.494 0.433648 160.344 1.62665C170.429 2.15315 177.036 1.00015 181.101 12.7211C182.425 17.4131 185.231 32.4492 182.201 36.3537L180.743 36.6351C178.233 43.0086 168.653 53.0611 163.965 43.7061C162.749 43.2846 159.035 43.4917 156.838 42.8907C151.782 46.5257 142.976 42.1701 141.196 37.4111L141.968 36.1817L141.698 35.6246Z"
    fill="#ADA49D"
  />
  <path
    d="M141.698 35.6246C139.982 34.8656 139.403 34.6566 138.552 32.9586C137.014 32.6146 137.668 32.5752 135.983 33.4122L135.567 32.7926C134.711 10.9781 137.494 0.433648 160.344 1.62665C170.429 2.15315 177.036 1.00015 181.101 12.7211C180.199 12.1591 176.776 7.18315 175.488 5.68715C175.576 7.67265 175.778 8.77815 176.15 10.7406C176.847 12.1076 177.453 12.9821 177.347 14.5076C177.553 15.3156 177.665 15.7296 177.973 16.5031C176.437 19.1766 180.003 24.6201 177.406 25.8831L176.755 25.8006C169.372 21.6721 176.462 21.4502 175.303 15.4592L175.53 15.3941L175.411 14.9091L173.656 14.4267L173.77 13.8452C171.086 11.9787 166.78 10.6351 163.612 9.85965C158.497 9.58715 156.941 8.78815 155.845 14.4272C155.897 12.7352 156.005 11.9301 155.472 10.3121C154.164 9.88915 154.742 9.89365 153.128 10.6801C152.464 10.7906 151.357 10.7722 150.651 10.7867C147.992 11.7367 145.712 12.4526 143.257 13.8801L142.049 14.7321L142.178 15.4176L142.707 15.5782L142.65 16.0047C142.121 20.1997 144.395 20.5276 143.781 22.6131C141.545 22.7961 139.986 22.7266 138.248 24.1411L139.721 24.7977C137.175 26.5457 138.412 29.3522 139.653 31.6982L140.003 31.9366L139.512 28.2701C141.582 30.8346 141.634 31.9172 144.191 34.5392L142.704 35.3797L141.698 35.6246Z"
    fill="#D5CFCC"
  />
  <path
    d="M159.617 6.78246C161.984 5.32796 163.442 5.18495 166.119 4.66895C171.715 6.11045 171.918 7.73845 176.15 10.7404C176.847 12.1074 177.453 12.9819 177.347 14.5074C172.503 10.7714 165.605 7.87746 159.617 6.78246Z"
    fill="#EDE9E2"
  />
  <path
    d="M159.617 6.78278L158.445 6.68227L158.364 6.34728C162.682 1.93578 170.872 1.45977 175.488 5.68727C175.576 7.67277 175.778 8.77827 176.15 10.7408C171.918 7.73877 171.715 6.11077 166.119 4.66927C163.442 5.18527 161.984 5.32828 159.617 6.78278Z"
    fill="#EDE9E2"
  />
  <path
    d="M150.643 5.17969L151.902 5.28969C152.092 6.59669 151.248 7.8522 150.709 9.0537C147.564 10.2352 144.483 11.4592 141.441 12.8862L140.753 13.1997C140.803 12.3572 141.116 11.7697 141.565 11.0742C143.776 7.65369 146.719 5.98869 150.643 5.17969Z"
    fill="#EDE9E2"
  />
  <path
    d="M175.488 5.68701C176.776 7.18301 180.199 12.159 181.101 12.721C182.425 17.413 185.231 32.449 182.201 36.3535L180.743 36.635C178.233 43.0085 168.653 53.061 163.965 43.706C162.749 43.2845 159.035 43.4915 156.838 42.8905C151.782 46.5255 142.976 42.17 141.196 37.411L141.968 36.1815L141.698 35.6245L142.704 35.3795C148.25 38.419 153.023 40.6075 159.335 41.718L160.096 39.4885L160.702 39.203L161.197 39.909L160.418 41.2695L160.93 41.5305L161.813 41.124L162.785 41.6675C163.305 41.7535 164.732 42.0255 165.175 42.0205C169.197 40.988 173.756 39.001 177.571 37.2675C179.179 36.1475 179.431 35.976 180.545 34.3775C181.171 32.5935 180.528 31.589 179.793 29.7955L180.058 29.3455C179.359 28.9315 177.51 27.367 176.795 26.7885L176.478 26.1585L176.755 25.8005L177.406 25.883C180.003 24.62 176.437 19.1765 177.973 16.503C177.665 15.7295 177.553 15.3155 177.347 14.5075C177.453 12.982 176.847 12.1075 176.15 10.7405C175.778 8.77801 175.576 7.67251 175.488 5.68701Z"
    fill="#C7C3BF"
  />
  <path
    d="M163.965 43.7063C169.464 42.9613 176.101 39.5948 180.743 36.6353C178.233 43.0088 168.653 53.0613 163.965 43.7063Z"
    fill="#EDE9E2"
  />
  <path
    d="M156.838 42.8906C151.782 46.5256 142.976 42.1701 141.196 37.4111L141.968 36.1816C146.973 39.3341 151.112 41.2216 156.838 42.8906Z"
    fill="#EDE9E2"
  />
  <path
    d="M176.755 25.8007L177.406 25.8832C180.003 24.6202 176.437 19.1767 177.973 16.5032C178.406 18.8187 180.319 27.7547 180.058 29.3457C179.359 28.9317 177.51 27.3672 176.795 26.7887L176.478 26.1587L176.755 25.8007Z"
    fill="#CCC4BF"
  />
  <path
    d="M162.785 41.6676C161.792 36.7156 162.933 31.3461 162.293 26.3416C162.061 24.5301 161.079 24.0631 159.562 22.9776L160.008 22.7021C161.663 23.3236 168.377 23.6521 168.767 24.0141C170.558 25.6781 175.279 33.5666 178.246 34.4911C179.242 33.2681 178.496 32.4381 178.845 30.2106L179.793 29.7957C180.528 31.5892 181.171 32.5937 180.545 34.3777C179.431 35.9762 179.179 36.1477 177.571 37.2677C173.756 39.0012 169.197 40.9881 165.175 42.0206C164.732 42.0256 163.305 41.7536 162.785 41.6676Z"
    fill="#CCC4BF"
  />
  <path
    d="M164.908 35.7153C166.362 35.4808 167.175 35.9898 168.535 36.4468C168.929 35.2603 169.257 34.3393 169.737 33.1743C172.311 34.5783 174.907 36.0533 177.571 37.2678C173.756 39.0013 169.197 40.9883 165.175 42.0208C164.013 39.6913 164.344 38.1248 164.908 35.7153Z"
    fill="#EDE9E2"
  />
  <path
    d="M164.907 35.7151C164.983 34.2711 165.23 33.6956 165.679 32.3641C167.249 31.0116 166.541 31.2321 168.479 31.2356C169.273 32.0181 169.374 32.1241 169.737 33.1741C169.257 34.3391 168.928 35.2601 168.535 36.4466C167.174 35.9896 166.362 35.4806 164.907 35.7151Z"
    fill="#E1DAD2"
  />
  <path
    d="M139.721 24.7976L141.137 24.9736C142.709 27.9851 145.079 25.1831 144.653 30.6621C144.254 31.8681 144.278 31.3681 144.511 32.5771L145.356 32.1266C146.303 30.7706 146.523 30.5296 146.816 28.8706C149.46 27.8536 151.689 26.1381 154.638 27.1416C156.987 29.2856 155.653 32.6991 156.473 35.1811C157.205 35.5746 157.942 35.9606 158.682 36.3391C158.806 37.2596 159.397 41.1286 159.335 41.7181C153.023 40.6076 148.25 38.4191 142.704 35.3796L144.191 34.5391C141.634 31.9171 141.582 30.8346 139.512 28.2701L140.003 31.9366L139.653 31.6981C138.412 29.3521 137.175 26.5456 139.721 24.7976Z"
    fill="#E1DAD2"
  />
  <path
    d="M144.191 34.5392C149.238 34.2442 149.682 28.5187 153.111 29.2412C153.386 31.8307 153.459 36.2267 155.243 38.0072L156.195 38.1397C157.527 36.4852 157.009 36.5907 158.682 36.3392C158.806 37.2597 159.397 41.1287 159.335 41.7182C153.023 40.6077 148.25 38.4192 142.704 35.3797L144.191 34.5392Z"
    fill="#EDE9E2"
  />
  <path
    d="M155.844 14.4273C156.94 8.78826 158.496 9.58725 163.611 9.85975C166.779 10.6353 171.086 11.9788 173.77 13.8453L173.656 14.4268L175.411 14.9093L175.529 15.3943L175.303 15.4593C172.29 16.5223 171.719 17.3813 170.412 20.2678C164.381 14.2268 162.624 24.3763 155.604 17.6183L155.844 14.4273Z"
    fill="#E1DAD2"
  />
  <path
    d="M163.612 9.85962C166.78 10.6351 171.086 11.9786 173.77 13.8451L173.656 14.4266C169.864 14.1711 164.117 14.6811 163.612 9.85962Z"
    fill="#EDE9E2"
  />
  <path
    d="M146.816 28.8706C149.872 21.2336 156.471 21.1506 160.708 27.8476C160.784 29.8571 161.144 32.3551 160.136 33.9996C158.885 34.8381 158.065 35.2176 156.473 35.1811C155.653 32.6991 156.987 29.2856 154.638 27.1416C151.689 26.1381 149.46 27.8536 146.816 28.8706Z"
    fill="#C1BCB7"
  />
  <path
    d="M150.651 10.7867C151.357 10.7722 152.464 10.7907 153.128 10.6802L153.245 16.4957C148.734 18.7297 149.776 19.2532 144.496 19.1647C144.123 17.6412 143.545 16.8932 142.707 15.5782L142.178 15.4177L142.049 14.7322L143.257 13.8802C145.712 12.4527 147.992 11.7367 150.651 10.7867Z"
    fill="#E1DAD2"
  />
  <path
    d="M150.651 10.7866C150.705 12.5606 151.019 14.8056 150.053 16.1911C148.028 16.6211 146.05 14.7856 143.257 13.8801C145.712 12.4526 147.992 11.7366 150.651 10.7866Z"
    fill="#EDE9E2"
  />
  <path
    d="M155.604 17.6182C162.624 24.3762 164.381 14.2267 170.412 20.2677C168.31 25.1822 160.897 22.8732 157.197 21.1182C155.941 20.5222 155.824 18.8187 155.604 17.6182Z"
    fill="#CCC4BF"
  />
  <path
    d="M144.496 19.1646C149.776 19.2531 148.734 18.7296 153.245 16.4956C153.657 18.1306 154.088 20.0586 154.582 21.6451L148.001 22.8891L144.496 19.1646Z"
    fill="#CCC4BF"
  />
  <path
    d="M138.248 24.1411L146.889 24.1926C146.189 26.2391 145.426 28.6796 144.653 30.6621C145.079 25.1831 142.709 27.9851 141.137 24.9736L139.721 24.7976L138.248 24.1411Z"
    fill="#CCC4BF"
  />
  <path
    d="M176.795 26.7886C177.509 27.3671 179.359 28.9316 180.057 29.3456L179.793 29.7956L178.844 30.2106C178.496 32.4381 179.241 33.2681 178.246 34.4911C177.437 31.8976 176.883 31.2991 175.252 29.2086L176.795 26.7886Z"
    fill="#E3DDC7"
  />
  <path
    d="M175.252 29.2085C174.167 28.1945 172.96 27.3615 172.679 25.9975C174.152 25.2695 174.444 25.722 176.478 26.1585L176.795 26.7885L175.252 29.2085Z"
    fill="#C1BCB7"
  />
  <path
    d="M222.29 2.43948C225.955 2.38898 228.959 2.55148 232.234 4.44548C238.431 8.02848 241.732 15.067 243.431 21.756C244.76 26.9915 245.395 33.064 242.45 37.8785C239.042 43.45 232.19 45.8285 226.17 47.2595C221.124 47.391 215.626 46.077 211.342 43.3455C207.748 41.0545 205.221 37.7735 204.333 33.567C202.799 26.301 205.415 17.1615 209.465 11.0875C212.61 6.37098 216.726 3.53498 222.29 2.43948Z"
    fill="#737071"
  />
  <path
    d="M222.621 3.45308C225.54 3.31658 228.649 3.71657 231.221 5.15457C237.215 8.50607 240.537 15.1961 242.304 21.5806C243.712 26.6656 244.496 32.8461 241.69 37.5926C238.685 42.6751 231.701 44.8836 226.29 46.2386C221.383 46.4116 215.665 45.1116 211.552 42.3711C208.261 40.1786 206.083 37.0346 205.325 33.1471C203.958 26.1426 206.788 16.9631 210.767 11.1846C213.86 6.69307 217.379 4.43458 222.621 3.45308Z"
    fill="#D5CFCC"
  />
  <path
    d="M215.988 14.4696C215.889 14.3441 215.85 13.8071 215.82 13.6021C221.459 8.53209 227.898 10.6781 234.003 13.1461L232.228 14.5136C227.731 17.4226 228.28 25.7476 223.429 25.6706L223.035 27.2036C227.427 27.3191 231.58 24.2081 234.106 20.8221L234.724 21.0491C234.765 30.1456 238.77 27.8661 239.123 35.0071L240.152 34.7706C240.081 35.7821 239.506 36.5731 238.581 37.0476C235.449 38.8821 229.084 40.9726 225.387 42.6021C222.083 41.4086 213.847 39.0391 211.384 37.9896C208.944 37.4306 207.537 35.1321 207.551 32.7506L207.923 32.6656L208.573 34.1171L209.325 34.2471L209.5 32.4361C209.942 33.1416 209.921 33.8906 209.996 34.7301L210.489 34.3256C210.356 33.0671 210.75 31.6181 211.003 30.3431C210.167 30.3191 210.549 30.4286 209.824 29.9836C208.144 24.4471 211.06 17.4596 215.988 14.4696Z"
    fill="#E3DDC7"
  />
  <path
    d="M225.325 32.9311C225.433 32.1251 225.584 31.7091 225.828 30.9311C228.073 29.7431 232.38 27.7196 234.912 28.1706C235.942 30.5581 237.192 33.2086 239.123 35.0071L240.152 34.7706C240.082 35.7821 239.507 36.5731 238.581 37.0476C235.449 38.8821 229.085 40.9726 225.388 42.6021C222.084 41.4086 213.847 39.0391 211.384 37.9896C215.918 38.1181 218.337 37.7641 223.381 38.1336L224.165 37.6426L225.325 32.9311Z"
    fill="#EDE9E2"
  />
  <path
    d="M224.165 37.6427C229.433 38.2447 231.634 37.9192 236.903 36.4917L238.581 37.0477C235.449 38.8822 229.085 40.9727 225.388 42.6022C222.084 41.4087 213.847 39.0392 211.384 37.9897C215.918 38.1182 218.337 37.7642 223.381 38.1337L224.165 37.6427Z"
    fill="#FEFEFE"
  />
  <path
    d="M215.988 14.4696C215.889 14.3441 215.85 13.8071 215.82 13.6021C221.459 8.53209 227.898 10.6781 234.003 13.1461L232.228 14.5136C227.731 17.4226 228.28 25.7476 223.429 25.6706C221.179 22.4046 218.902 16.5776 215.988 14.4696Z"
    fill="#FEFEFE"
  />
  <path
    d="M213.233 29.7971C216.564 28.4826 220.676 27.1856 221.541 32.1986L222.403 31.0016C223.722 31.4191 224.297 32.0416 225.324 32.9311L224.164 37.6426L223.38 38.1336C218.336 37.7641 215.918 38.1181 211.384 37.9896C208.944 37.4306 207.537 35.1321 207.551 32.7506L207.923 32.6656L208.573 34.1171L209.325 34.2471L209.5 32.4361C209.942 33.1416 209.921 33.8906 209.996 34.7301L210.489 34.3256C211.564 32.7881 212.314 31.4351 213.233 29.7971Z"
    fill="#EDE9E2"
  />
  <path
    d="M221.542 32.1985L222.404 31.0015C223.723 31.419 224.297 32.0415 225.324 32.931L224.164 37.6425L223.38 38.1335C222.666 36.5985 222.014 33.906 221.542 32.1985Z"
    fill="#CCC4BF"
  />
  <path
    d="M215.988 14.4697C218.902 16.5777 221.179 22.4047 223.429 25.6707L223.035 27.2037C219.316 25.0877 216.84 23.5172 213.525 20.7562C213.732 23.7157 212.746 27.9972 211.003 30.3432C210.167 30.3192 210.549 30.4287 209.824 29.9837C208.144 24.4472 211.06 17.4597 215.988 14.4697Z"
    fill="#E3DDC7"
  />
  <path
    d="M223.035 27.2036C227.427 27.3191 231.581 24.2081 234.107 20.8221L234.724 21.0491C234.765 30.1456 238.77 27.8661 239.123 35.0071C237.192 33.2086 235.942 30.5581 234.912 28.1706C234.011 26.0991 234.32 25.8191 232.739 24.9606C230.376 25.0471 227.742 27.4426 224.957 28.6111C221.022 27.2296 218.198 26.0021 214.829 23.4381L213.233 29.7971C212.314 31.4351 211.565 32.7881 210.49 34.3256C210.356 33.0671 210.751 31.6181 211.004 30.3431C212.747 27.9971 213.732 23.7156 213.525 20.7561C216.84 23.5171 219.316 25.0876 223.035 27.2036Z"
    fill="#ADA49D"
  />
  <path
    d="M234.003 13.146C236.891 14.598 239.858 22.461 239.666 25.454L239.168 26C238.102 21.2205 236.983 16.938 232.228 14.5135L234.003 13.146Z"
    fill="#EDE9E2"
  />
  <path
    d="M276.992 3.96058C281.139 2.15608 283.462 1.96559 287.862 3.44459C292.618 5.04259 299.76 13.1151 300.147 18.1216C307.901 34.0296 297.77 42.3481 283.966 47.2436C276.957 46.4091 267.906 41.7281 264.969 35.1536C260.454 25.0471 267.281 8.53458 276.992 3.96058Z"
    fill="#EDE9E2"
  />
  <path
    d="M277.333 14.3591C279.007 11.0651 286.766 11.3386 289.583 13.9216C297.061 15.3586 299.701 27.2696 296.466 32.4046L296.269 32.8821C294.691 31.2756 293.583 26.0406 293.08 23.7011L291.809 23.1946C290.036 23.9766 289.401 24.1626 288.135 25.6041L288.835 26.1141L283.145 28.2731C279.64 27.6186 278.478 27.5051 275.507 25.5511C273.114 27.0936 273.023 30.2496 270.519 31.3361C270.187 32.3446 270.169 32.3736 269.42 33.1436L268.988 32.8881L269.248 31.5641C267.753 27.2381 268.196 21.3281 269.909 17.0596C272.779 15.0011 273.805 13.9156 277.333 14.3591Z"
    fill="#E3DDC7"
  />
  <path
    d="M292.98 19.51C294.081 23.7035 295.19 28.293 296.467 32.4045L296.269 32.882C294.691 31.2755 293.583 26.0405 293.081 23.701L291.809 23.1945C290.037 23.9765 289.401 24.1625 288.135 25.604L288.835 26.114L283.146 28.273C279.64 27.6185 278.478 27.505 275.508 25.551C273.114 27.0935 273.023 30.2495 270.519 31.336C270.188 32.3445 270.169 32.3735 269.42 33.1435L268.988 32.888L269.248 31.564C270.858 27.4145 271.297 23.7355 272.628 19.903C283.489 27.0925 282.778 25.856 292.98 19.51Z"
    fill="#ADA49D"
  />
  <path
    d="M283.15 26.7375C286.288 25.5985 290.414 22.3795 292.116 22.296L293.08 23.701L291.809 23.1945C290.036 23.9765 289.401 24.1625 288.135 25.604L288.835 26.114L283.145 28.273C279.64 27.6185 278.478 27.505 275.507 25.551C273.114 27.0935 273.023 30.2495 270.519 31.336C271.376 28.2175 272.399 25.01 273.343 21.905C276.956 24.2445 279.059 25.503 283.15 26.7375Z"
    fill="#CCC4BF"
  />
  <path
    d="M277.333 14.3591C279.008 11.0651 286.767 11.3386 289.583 13.9216C286.553 16.4841 285.468 19.8936 283.124 23.2241C281.518 20.6556 279.146 16.6161 277.333 14.3591Z"
    fill="#FEFEFE"
  />
  <path
    d="M276.992 3.96045L276.743 4.23546C274.936 6.20946 273.127 6.98096 272.105 9.10646L271.972 9.37695C271.897 9.55495 271.822 9.73295 271.747 9.91095C267.43 11.2969 265.014 24.942 265.023 29.249L265.025 29.423C266.722 32.25 267.853 34.8589 270.843 36.1974L282.84 42.3565C285.747 41.348 293.634 37.207 296.764 35.616L298.073 34.395C303.902 30.217 299.879 23.5755 300.147 18.1215C307.901 34.0295 297.77 42.348 283.966 47.2435C276.957 46.409 267.906 41.728 264.969 35.1535C260.454 25.047 267.281 8.53445 276.992 3.96045Z"
    fill="#C1BCB7"
  />
  <path
    d="M276.992 3.96058C281.139 2.15608 283.462 1.96559 287.862 3.44459C292.618 5.04259 299.76 13.1151 300.147 18.1216C299.879 23.5756 303.902 30.2171 298.073 34.3951C299.366 29.6881 300.181 27.5031 298.765 22.2026C297.039 15.9951 293.346 8.75309 286.77 6.71209C284.095 5.88209 282.024 6.33308 279.472 4.64608C278.962 5.09258 273 9.00158 271.747 9.91108C271.822 9.73308 271.897 9.55509 271.972 9.37709L272.105 9.10659C273.127 6.98109 274.936 6.20959 276.743 4.23559L276.992 3.96058Z"
    fill="#D5CFCC"
  />
  <path
    d="M271.747 9.91113C271.149 12.8121 269.884 14.0641 269.909 17.0596C268.196 21.3281 267.753 27.2381 269.248 31.5641L268.988 32.8881L269.42 33.1436C270.169 32.3736 270.187 32.3446 270.519 31.3361C273.023 30.2496 273.114 27.0936 275.507 25.5511C278.478 27.5051 279.64 27.6186 283.145 28.2731L288.835 26.1141L290.092 26.2041L290.192 27.2816C290.167 27.2761 275.946 29.1376 274.202 29.2761C272.665 31.5131 271.713 33.6351 270.843 36.1976C267.853 34.8591 266.722 32.2501 265.025 29.4231L265.023 29.2491C265.014 24.9421 267.43 11.2971 271.747 9.91113Z"
    fill="#D5CFCC"
  />
  <path
    d="M288.835 26.1138L288.135 25.6038C289.401 24.1623 290.036 23.9763 291.809 23.1943L293.081 23.7008C293.583 26.0403 294.691 31.2753 296.269 32.8818L295.445 34.1613C292.755 32.4848 291.746 30.0348 290.192 27.2813L290.092 26.2038L288.835 26.1138Z"
    fill="#E3DDC7"
  />
  <path
    d="M324.258 37.8095C314.512 26.29 336.396 -10.57 350.539 9.55549C355.796 17.0355 359.109 25.4755 358.412 34.639C353.231 43.3595 340.629 49.9875 331.691 43.3415C329.844 41.968 327.025 40.6755 325.586 38.8765L324.258 37.8095Z"
    fill="#E3DFDA"
  />
  <path
    d="M324.258 37.8095C314.512 26.29 336.396 -10.57 350.539 9.55549C355.796 17.0355 359.109 25.4755 358.412 34.639C353.231 43.3595 340.629 49.9875 331.691 43.3415C329.844 41.968 327.025 40.6755 325.586 38.8765C330.106 41.0605 337.161 46.153 341.837 45.5795C345.136 44.4585 348.684 42.26 351.598 40.401C352.225 40.1985 352.276 40.043 352.794 39.7375C362.914 33.762 354.691 17.057 349.235 9.80549C347.853 10.817 347.134 12.0465 345.572 13.0145C343.065 11.9695 341.698 11.5325 339.01 12.2135C334.285 13.4105 334.947 12.3505 331.487 10.242L331.209 10.076C324.745 18.77 320.789 27.041 324.258 37.8095Z"
    fill="#818081"
  />
  <path
    d="M331.209 10.076C336.527 4.16648 344.451 1.86447 349.235 9.80547C347.853 10.817 347.134 12.0465 345.572 13.0145C343.065 11.9695 341.698 11.5325 339.01 12.2135C334.285 13.4105 334.947 12.3505 331.487 10.242L331.209 10.076Z"
    fill="#FEFEFE"
  />
  <path
    d="M390.638 7.19605L391.138 7.15404C393.867 6.93804 395.752 7.09254 397.891 8.97954C404.152 14.504 407.742 27.3835 408.243 35.4515C408.353 37.2225 408.466 39.5135 407.164 40.8955C405.61 42.5445 398.585 42.5045 396.337 42.609C392.006 42.6175 387.268 42.757 383.02 41.838C381.352 41.4775 379.528 40.892 378.583 39.3605C376.502 35.9905 377.909 30.5725 378.839 26.971C380.691 19.7985 383.958 11.142 390.638 7.19605Z"
    fill="#737071"
  />
  <path
    d="M390.842 8.1359C391.026 8.1144 391.21 8.0929 391.395 8.0794C393.825 7.9014 395.587 8.34139 397.442 9.96239C404.66 16.2704 407.073 31.2414 407.572 40.2684C403.189 41.5644 399.138 41.6934 394.587 41.6274C390.511 41.6934 383.358 42.2209 380.031 39.6494C378.606 37.6519 378.438 35.6819 378.726 33.2784C379.758 24.6744 383.823 13.5389 390.842 8.1359Z"
    fill="#EDE9E2"
  />
  <path
    d="M444.978 6.36426C446.639 6.1697 448.323 6.57211 449.985 7.74316C453.236 10.0358 456.407 15.2829 458.942 24.7275L459.185 25.6543C459.671 27.5483 460.619 30.912 461.171 34.2266C461.447 35.883 461.621 37.5074 461.591 38.9131C461.564 40.2215 461.36 41.2766 460.956 41.9941C455.327 42.9652 447.933 43.7973 442.334 43.1592L442.299 43.1553L442.263 43.1562C440.683 43.2022 436.974 43.144 433.676 42.5322C432.023 42.2255 430.514 41.7862 429.432 41.1777C428.346 40.567 427.802 39.8551 427.805 39.0205C427.83 33.1597 429.204 26.8991 431.416 21.4316C433.631 15.9559 436.665 11.3273 439.967 8.68457C441.614 7.36615 443.306 6.56017 444.978 6.36426Z"
    fill="#EDE9E2"
    stroke="black"
  />
  <path
    d="M442.277 43.656C439.079 43.749 427.286 43.422 427.305 39.018C427.404 15.2895 449.349 -14.687 459.669 25.53C460.634 29.2875 463.494 39.105 461.264 42.45C461.194 33.069 457.479 16.272 450.954 9.28949C439.056 -3.43801 425.251 34.33 428.955 40.264C432.312 43.1325 439.827 41.78 442.277 43.656Z"
    fill="#737071"
  />
</svg>
