<svg
  width="49"
  height="90"
  viewBox="0 0 49 90"
  fill="none"
  xmlns="http://www.w3.org/2000/svg"
>
  <path
    d="M6.71746 45.5591C4.81046 56.2421 -0.437543 66.3125 0.245757 77.407C0.470257 81.0525 1.42395 84.8126 4.32395 87.2661C7.66795 90.0951 11.8455 90.0506 15.9525 89.6786C19.049 89.2411 22.4795 88.1291 25.569 88.1601C32.2665 88.2286 41.4 92.4751 46.3945 85.8921C49.5755 81.6996 49.0945 75.223 48.3215 70.291C46.9345 61.4435 42.731 53.3516 41.4075 44.5266C40.9545 41.5086 41.329 38.2706 41.5215 35.2396C42.0875 26.3256 42.661 17.8266 39.717 9.20956C38.759 6.40656 37.5145 3.52106 35.051 1.71356C33.913 0.878562 32.732 0.521555 31.372 0.219055C29.6695 1.29306 29.17 2.81157 28.7235 4.74207C26.4895 14.4056 28.2575 23.7285 24.6105 33.9085C21.8745 26.6465 21.3495 19.0341 20.9915 11.3521C20.8585 8.49205 20.9595 5.22256 20.2775 2.45306C19.9935 1.29956 19.555 1.02004 18.7035 0.262543C17.5025 -0.104457 16.535 -0.133454 15.4195 0.478546C11.824 2.45005 9.84596 7.16356 8.86796 10.9416C7.08546 17.8286 6.13895 25.4845 7.19795 32.5645C7.26245 36.954 7.17046 41.1826 6.71746 45.5591Z"
    fill="#E3DDC7"
  />
  <path
    d="M6.71746 45.5591C4.81046 56.2421 -0.437543 66.3125 0.245757 77.407C0.470257 81.0525 1.42395 84.8126 4.32395 87.2661C7.66795 90.0951 11.8455 90.0506 15.9525 89.6786C17.7155 87.8746 21.653 87.211 24.1 87.178C30.0375 87.098 39.9015 90.8065 44.6445 86.114C45.58 85.189 46.176 84.205 46.692 83.006C48.8305 75.923 47.252 68.681 45.412 61.7076C42.6825 61.2931 40.768 58.498 38.544 57.0035C35.5465 54.9895 31.5125 53.5826 27.9425 53.0811C17.956 51.6766 11.027 56.2481 3.41395 61.9911C4.54795 57.2836 8.18596 50.1101 6.71746 45.5591Z"
    fill="#FEFEFE"
  />
  <path
    d="M6.54028 30.8582C6.54028 47.6024 3.68481 52.6024 0 73.2751C0.226879 78.1304 0.254082 82.8346 3.18481 86.1023C6.56425 89.8702 11.7226 90.1144 15.8732 89.619C17.6548 87.2163 21.7119 87.1463 24.1848 87.1023C30.1852 86.9958 40.8916 91.3521 45.6848 85.1023C46.6302 83.8704 46.4169 82.3291 46.9384 80.7322C42.8985 81.5726 39.8556 80.8387 35.9947 79.2745C32.3307 80.8594 28.6072 82.7379 24.8245 83.7308C22.3784 80.9839 20.4077 77.9952 18.3921 74.7049C15.9565 78.2496 13.2673 82.9051 9.34216 83.2407C6.61709 83.4738 4.56557 81.3775 2.39936 79.5136C0.0439599 70.4623 3.26461 61.5591 5.18475 52.6024C6.33077 46.3327 8.02435 36.9195 6.54028 30.8582Z"
    fill="#C1BCB7"
  />
  <path
    d="M15.9523 89.6785C19.0488 89.241 22.4793 88.129 25.5688 88.16C32.2663 88.2285 41.3998 92.475 46.3943 85.892C49.5753 81.6995 49.0943 75.223 48.3213 70.291C46.9343 61.4435 42.7308 53.3515 41.4073 44.5265C40.9543 41.5085 41.3288 38.2705 41.5213 35.2395C42.0873 26.3255 42.6608 17.8265 39.7168 9.20953C38.7588 6.40653 37.5143 3.52102 35.0508 1.71352C33.9128 0.878524 32.7318 0.521517 31.3718 0.219017C29.6693 1.29302 29.1698 2.81153 28.7233 4.74203C26.4893 14.4055 28.2573 23.7285 24.6103 33.9085C21.8743 26.6465 21.3493 19.034 20.9913 11.352C20.8583 8.49201 20.9593 5.22253 20.2773 2.45303C19.9933 1.29953 19.5548 1.02 18.7033 0.262505C17.5023 -0.104495 16.5348 -0.133492 15.4193 0.478508C11.8238 2.45001 9.84579 7.16352 8.86779 10.9415C7.08529 17.8285 6.13879 25.4845 7.19779 32.5645C9.84029 22.8935 6.56429 11.557 13.8823 2.98C15.0888 1.5655 15.9838 0.929522 17.8253 0.786522C21.6328 3.98652 20.1863 18.2035 20.8388 23.3175C21.3963 27.6835 22.4348 31.4975 24.5438 35.368C31.0328 22.5105 26.6303 11.3025 30.4383 1.704C31.3448 1.036 31.3838 1.0535 32.5118 1.1375C45.4358 8.191 39.4843 32.2365 40.4243 43.768C40.9298 49.9695 43.3708 55.886 45.4118 61.7075C47.2518 68.681 48.8303 75.923 46.6918 83.006C46.1758 84.205 45.5798 85.189 44.6443 86.114C39.9013 90.8065 30.0373 87.098 24.0998 87.178C21.6528 87.211 17.7153 87.8745 15.9523 89.6785Z"
    fill="#818081"
  />
</svg>
