<svg
  width="32"
  height="100"
  viewBox="0 0 32 100"
  fill="none"
  xmlns="http://www.w3.org/2000/svg"
>
  <path
    d="M16.5511 99.0911C12.2086 99.0276 7.62613 95.5206 4.62763 92.5466C1.61613 89.5596 0.012124 86.5676 0.000123978 82.2641C-0.019376 75.1936 2.27711 68.3376 3.07611 61.3521C4.77611 46.4931 4.51462 10.3271 14.8126 6.10352e-05C15.2426 0.056561 15.6746 0.14055 16.0686 0.33255C18.1296 1.33555 19.4456 4.16207 20.2311 6.18057C26.4231 22.0981 26.2451 44.4551 28.5136 61.4456C29.3616 67.7966 31.4821 74.0451 31.8116 80.4571C31.9426 83.0076 31.8546 85.9046 30.7601 88.2486C28.6401 92.7901 21.1196 97.4746 16.5511 99.0911Z"
    fill="#818081"
  />
  <path
    d="M27.9497 65.1143C28.5502 67.8058 29.1262 70.5028 29.6777 73.2048C30.7707 78.6813 31.8052 84.8513 28.4222 89.7598C25.3527 94.2143 19.4562 97.1838 14.2177 98.1208C10.3537 95.6233 5.56722 93.0403 2.93672 89.1473C-1.19128 83.0378 2.04773 72.4948 3.40373 65.8733C5.51073 50.5068 5.12273 11.4873 15.6392 0.539825C25.7362 13.6998 25.3767 48.2703 27.9497 65.1143Z"
    fill="#FEFEFE"
  />
  <path
    d="M27.9497 65.1143C23.9787 62.2618 22.5037 57.1683 17.0047 56.2038C10.3837 55.0418 8.03273 62.8413 3.67173 65.7038C3.58373 65.7618 3.49322 65.8168 3.40372 65.8733C5.51072 50.5068 5.12273 11.4873 15.6392 0.539795C25.7362 13.6998 25.3767 48.2703 27.9497 65.1143Z"
    fill="#E3DDC7"
  />
</svg>
