<svg
  width="28"
  height="94"
  viewBox="0 0 28 94"
  fill="none"
  xmlns="http://www.w3.org/2000/svg"
>
  <path
    d="M25.2674 91.4335C19.5639 92.7115 8.44446 94.8665 3.14796 91.521C1.66696 90.5855 0.47144 88.9721 0.15794 87.2341C-0.21506 85.1636 0.172446 82.6655 0.313946 80.5645C1.07195 71.4505 2.40996 62.3905 3.25846 53.284C4.72546 37.5285 4.79195 20.711 10.1795 5.65504C10.8885 3.67454 12.0349 0.953546 14.0444 4.57764e-05L15.3074 0.475052C22.7774 8.36205 24.136 49.31 25.397 61.1115C26.215 68.771 28.152 76.6751 27.94 84.3851C27.8595 87.3226 27.4274 89.372 25.2674 91.4335Z"
    fill="#E3DDC7"
  />
  <path
    d="M25.2677 91.4335C19.5642 92.7115 8.44471 94.8665 3.14821 91.521C1.66721 90.5855 0.471686 88.9721 0.158186 87.2341C-0.214814 85.1636 0.172692 82.6655 0.314192 80.5645L1.0367 80.8705L2.99269 65.1605C3.08619 65.107 3.18119 65.0555 3.27369 65.0005C6.6282 63.0015 10.0572 53.7986 14.5202 54.8761C19.0102 55.9601 21.7457 61.42 24.5257 64.5865C25.8762 71.355 28.0337 80.386 26.6137 87.1775C26.2192 89.062 25.5452 89.7685 23.9967 90.783L25.2677 91.4335Z"
    fill="#FEFEFE"
  />
  <path
    d="M25.2676 91.4335C19.5641 92.7115 8.4446 94.8665 3.1481 91.521C1.6671 90.5855 0.471581 88.9721 0.158081 87.2341C-0.214919 85.1636 0.172587 82.6655 0.314087 80.5645L1.03659 80.8705C0.984591 82.993 0.760599 85.358 1.0636 87.455C1.2061 88.4375 1.47611 89.3871 2.31461 89.9841C7.07511 93.3726 18.6026 91.6945 23.9966 90.783L25.2676 91.4335Z"
    fill="#2B262E"
  />
  <path
    d="M25.2674 91.4335L23.9964 90.783C25.5449 89.7685 26.2189 89.062 26.6134 87.1775C28.0334 80.386 25.876 71.355 24.5255 64.5865C24.359 52.2685 20.9105 11.2985 15.459 1.875C15 1.082 14.9295 0.90549 14.005 0.66449C13.8025 0.79599 13.704 0.852484 13.5065 1.02148C6.55195 6.96848 4.23944 55.0425 2.99244 65.1605L1.03645 80.8705L0.313946 80.5645C1.07195 71.4505 2.40996 62.3905 3.25846 53.284C4.72546 37.5285 4.79195 20.711 10.1795 5.655C10.8885 3.6745 12.0349 0.9535 14.0444 0L15.3074 0.475006C22.7774 8.36201 24.136 49.31 25.397 61.1115C26.215 68.771 28.152 76.675 27.94 84.385C27.8595 87.3225 27.4274 89.372 25.2674 91.4335Z"
    fill="#818081"
  />
  <path
    d="M14.0234 64.9047C7.08411 64.9045 5.79601 84.0053 5.79601 84.0053H14.0232H22.2505C22.2505 84.0053 20.9628 64.9048 14.0234 64.9047Z"
    fill="url(#paint0_linear_187_6566)"
    fill-opacity="0.7"
  />
  <path
    d="M6.06895 83.7021C6.06895 83.7021 7.35706 64.6013 14.2964 64.6015C21.2357 64.6016 22.5234 83.7021 22.5234 83.7021"
    stroke="black"
    stroke-width="0.3"
  />
  <path
    d="M9.08883 62.5165C9.08883 62.5165 7.53702 63.4172 7.39221 64.0727C7.24739 64.7281 6.5233 68.0054 6.5233 68.0054"
    stroke="black"
    stroke-width="0.4"
  />
  <defs>
    <linearGradient
      id="paint0_linear_187_6566"
      x1="14.0232"
      y1="84.0053"
      x2="14.0232"
      y2="64.9047"
      gradientUnits="userSpaceOnUse"
    >
      <stop stop-color="white" />
      <stop offset="1" stop-color="#E3DDC7" />
    </linearGradient>
  </defs>
</svg>
