<svg
  width="28"
  height="94"
  viewBox="0 0 28 94"
  fill="none"
  xmlns="http://www.w3.org/2000/svg"
>
  <path
    d="M25.2672 91.4336C19.5637 92.7116 8.44425 94.8666 3.14775 91.5211C1.66675 90.5856 0.47123 88.9721 0.15773 87.2341C-0.21527 85.1636 0.172236 82.6656 0.313736 80.5646C1.07174 71.4506 2.40975 62.3906 3.25826 53.2841C4.72526 37.5286 4.79175 20.7111 10.1792 5.65514C10.8882 3.67464 12.0347 0.953637 14.0442 0.000137329L15.3072 0.475143C22.7772 8.36214 24.1357 49.3101 25.3967 61.1116C26.2147 68.7711 28.1517 76.6751 27.9397 84.3851C27.8592 87.3226 27.4272 89.3721 25.2672 91.4336Z"
    fill="#E3DDC7"
  />
  <path
    d="M25.2672 91.4336C19.5637 92.7116 8.44425 94.8666 3.14775 91.5211C1.66675 90.5856 0.471232 88.9721 0.157732 87.2341C-0.215268 85.1636 0.172238 82.6656 0.313738 80.5646L1.03624 80.8706L2.99224 65.1606C3.08574 65.1071 3.18074 65.0556 3.27324 65.0006C6.62774 63.0016 10.0567 53.7986 14.5197 54.8761C19.0097 55.9601 21.7453 61.4201 24.5253 64.5866C25.8758 71.3551 28.0332 80.3861 26.6132 87.1776C26.2187 89.0621 25.5447 89.7686 23.9962 90.7831L25.2672 91.4336Z"
    fill="#FEFEFE"
  />
  <path
    d="M25.2671 91.4336C19.5636 92.7116 8.44415 94.8666 3.14765 91.5211C1.66665 90.5856 0.471127 88.9721 0.157627 87.2341C-0.215373 85.1636 0.172133 82.6656 0.313633 80.5646L1.03614 80.8706C0.984137 82.9931 0.760145 85.3581 1.06314 87.4551C1.20564 88.4376 1.47565 89.3871 2.31415 89.9841C7.07465 93.3726 18.6021 91.6946 23.9961 90.7831L25.2671 91.4336Z"
    fill="#2B262E"
  />
  <path
    d="M25.2672 91.4336L23.9962 90.7831C25.5447 89.7686 26.2187 89.0621 26.6132 87.1776C28.0332 80.3861 25.8758 71.3551 24.5253 64.5866C24.3588 52.2686 20.9103 11.2986 15.4588 1.87509C14.9998 1.08209 14.9292 0.905581 14.0047 0.664581C13.8022 0.796081 13.7037 0.852576 13.5062 1.02158C6.55174 6.96858 4.23923 55.0426 2.99223 65.1606L1.03624 80.8706L0.313736 80.5646C1.07174 71.4506 2.40975 62.3906 3.25826 53.2841C4.72526 37.5286 4.79175 20.7111 10.1792 5.65509C10.8882 3.67459 12.0347 0.953592 14.0442 9.15527e-05L15.3072 0.475098C22.7772 8.3621 24.1357 49.3101 25.3967 61.1116C26.2147 68.7711 28.1517 76.6751 27.9397 84.3851C27.8592 87.3226 27.4272 89.3721 25.2672 91.4336Z"
    fill="#818081"
  />
</svg>
