<svg
  width="39"
  height="96"
  viewBox="0 0 39 96"
  fill="none"
  xmlns="http://www.w3.org/2000/svg"
>
  <path
    d="M38.3077 90.3055C37.7317 90.931 37.1142 91.6005 36.3977 92.066C33.0062 94.2695 20.5777 95.7381 16.5097 94.8701C12.6912 93.8071 2.83315 94.1345 0.921646 90.587C0.762646 90.2925 0.623667 90.0196 0.530167 89.6996C-0.337333 87.0866 0.0331532 83.8255 0.422653 81.136C1.52215 73.543 4.66166 66.289 5.92116 58.707C7.93866 46.562 8.26015 34.1075 10.2222 21.923C11.0582 16.73 12.8491 3.69904 17.5636 0.580536C18.2741 0.110536 19.2372 -0.120962 20.0612 0.0635376C21.7622 0.444038 22.6047 1.83856 23.4662 3.22556C29.6387 13.1631 31.1672 45.5441 33.1662 58.3506C34.7377 68.4151 40.6082 80.1965 38.3077 90.3055Z"
    fill="#E3DDC7"
  />
  <path
    d="M38.3076 90.3055C37.7316 90.931 37.1141 91.6005 36.3976 92.066C33.0061 94.2695 20.5776 95.7381 16.5096 94.8701C12.6911 93.8071 2.8331 94.1345 0.9216 90.587C0.7626 90.2925 0.623621 90.0196 0.530121 89.6996L1.04211 87.0876C1.16561 79.3656 4.22762 73.166 5.37762 65.8055C8.47012 64.7985 11.5961 60.1086 13.9636 57.7766C15.2936 56.4661 16.6031 55.4981 18.5526 55.5706C24.6536 55.7976 29.4906 62.001 33.2576 66.1035C35.3276 71.9455 36.9046 77.5555 37.6871 83.717C37.9626 85.9065 38.1261 88.107 38.3076 90.3055Z"
    fill="#FEFEFE"
  />
  <path
    d="M38.3076 90.3055C37.7316 90.931 37.1141 91.6005 36.3976 92.066C33.0061 94.2695 20.5776 95.7381 16.5096 94.8701L17.9661 93.823C23.5826 94.551 31.8406 90.0095 36.7771 87.403C37.6946 86.3615 37.5986 85.0415 37.6871 83.717C37.9626 85.9065 38.1261 88.107 38.3076 90.3055Z"
    fill="#B7B2AB"
  />
  <path
    d="M16.5096 94.8701C12.6911 93.8071 2.83304 94.1346 0.921539 90.5871C0.762539 90.2926 0.62356 90.0196 0.53006 89.6996L1.04205 87.0876C6.39555 87.6786 12.9891 91.6251 17.9661 93.8231L16.5096 94.8701Z"
    fill="#CCC4BF"
  />
  <path
    d="M38.3077 90.3057C38.1262 88.1072 37.9626 85.9067 37.6871 83.7172C36.9046 77.5557 35.3276 71.9457 33.2576 66.1037C31.0581 53.3427 28.8232 8.45366 20.2117 1.02866C19.2642 0.886656 19.0317 0.728178 18.2117 1.31418C13.5202 4.66868 11.6682 19.0987 10.8467 24.7427C8.85666 38.4112 8.49167 52.3237 5.37767 65.8057C4.22767 73.1662 1.16566 79.3657 1.04216 87.0877L0.530167 89.6997C-0.337333 87.0867 0.0331532 83.8257 0.422653 81.1362C1.52215 73.5432 4.66166 66.2892 5.92116 58.7072C7.93866 46.5622 8.26015 34.1077 10.2222 21.9232C11.0582 16.7302 12.8491 3.69916 17.5636 0.580658C18.2741 0.110658 19.2372 -0.12084 20.0612 0.0636597C21.7622 0.44416 22.6047 1.83868 23.4662 3.22568C29.6387 13.1632 31.1672 45.5442 33.1662 58.3507C34.7377 68.4152 40.6082 80.1967 38.3077 90.3057Z"
    fill="#737071"
  />
</svg>
