<svg
  width="41"
  height="95"
  viewBox="0 0 41 95"
  fill="none"
  xmlns="http://www.w3.org/2000/svg"
>
  <path
    d="M34.0673 91.7466C24.9588 94.5681 12.9538 95.8795 4.14475 91.259C2.63075 90.465 0.978748 89.2121 0.458748 87.5071C-0.790252 83.4126 0.784754 76.575 1.94025 72.539C4.02325 65.642 5.94125 58.455 6.96125 51.315C8.80775 38.3935 9.22075 25.0846 12.6748 12.4396C13.5848 9.10905 15.4638 2.06053 18.7733 0.40403C19.7338 -0.0764702 20.6562 -0.118953 21.6697 0.227547C23.4132 0.823547 24.7147 3.11355 25.4627 4.65955C31.6902 17.5261 32.1803 44.7896 34.9853 59.9501C36.2053 66.5421 39.0013 72.8901 39.8853 79.5266C40.2228 82.0586 40.4758 85.2175 39.5738 87.642C38.7223 89.9305 36.1193 90.8486 34.0673 91.7466Z"
    fill="#E3DDC7"
  />
  <path
    d="M34.0673 91.7466C24.9588 94.5681 12.9538 95.8795 4.14481 91.259C2.63081 90.465 0.978801 89.2121 0.458801 87.5071C-0.790199 83.4126 0.784808 76.575 1.94031 72.539L2.61331 73.4016C3.27481 71.1826 4.42832 68.444 4.67682 66.172C8.37832 65.0865 12.4053 59.158 16.3873 56.7705C21.7318 56.474 24.9258 56.7541 29.0778 60.4511C30.9553 62.1231 32.8378 64.7196 35.0788 65.8286C36.5758 71.9061 41.2793 81.4956 38.3178 87.5776C37.2693 89.7311 35.4993 90.2606 33.3588 91.0396L34.0673 91.7466Z"
    fill="#FEFEFE"
  />
  <path
    d="M34.0671 91.7466C24.9586 94.5681 12.9536 95.8795 4.14462 91.259C2.63062 90.465 0.978618 89.2121 0.458618 87.5071C-0.790382 83.4126 0.784624 76.575 1.94012 72.539L2.61313 73.4016C1.44963 77.2466 0.138613 83.511 1.44711 87.37C1.94361 88.8335 2.99362 89.6791 4.33762 90.3576C12.2911 94.3721 25.0696 93.6451 33.3586 91.0396L34.0671 91.7466Z"
    fill="#2B262E"
  />
  <path
    d="M34.0673 91.7463L33.3587 91.0393C35.4992 90.2603 37.2693 89.7308 38.3178 87.5773C41.2793 81.4953 36.5758 71.9058 35.0788 65.8283C31.8258 48.3208 31.1013 30.3348 27.0898 12.9703C26.2008 9.12184 25.0793 3.54584 21.5173 1.31434C20.4098 1.21684 19.9833 1.08383 18.9893 1.65583C11.5173 5.95533 9.07927 42.6558 7.70527 52.1713C7.01877 56.9268 5.98377 61.5498 4.67677 66.1718C4.42827 68.4438 3.27476 71.1823 2.61326 73.4013L1.94025 72.5388C4.02325 65.6418 5.94125 58.4548 6.96125 51.3148C8.80775 38.3933 9.22075 25.0843 12.6748 12.4393C13.5848 9.10884 15.4638 2.06032 18.7733 0.403816C19.7338 -0.0766838 20.6562 -0.119167 21.6697 0.227333C23.4132 0.823333 24.7147 3.11334 25.4627 4.65934C31.6902 17.5258 32.1803 44.7893 34.9853 59.9498C36.2053 66.5418 39.0013 72.8898 39.8853 79.5263C40.2228 82.0583 40.4758 85.2173 39.5738 87.6418C38.7223 89.9303 36.1193 90.8483 34.0673 91.7463Z"
    fill="#737071"
  />
</svg>
