<svg
  width="50"
  height="91"
  viewBox="0 0 50 91"
  fill="none"
  xmlns="http://www.w3.org/2000/svg"
>
  <path
    d="M47.3822 86.1334C46.2857 87.8914 44.6387 89.5004 42.5917 90.0384C36.9892 91.5109 31.0537 88.4829 25.4007 88.3309C20.4327 88.1969 15.7057 90.6799 10.6467 90.4309C8.24172 90.3124 6.49273 89.7849 4.42973 88.5514C3.84023 88.0769 3.12173 87.6094 2.76373 86.9339C-0.586271 82.0819 -0.344767 75.1339 0.658733 69.5669C1.99473 62.1524 6.20573 55.4669 7.29873 48.0714C8.96373 36.8044 2.09073 10.1479 13.8087 1.86293C14.7842 1.17343 15.9317 0.80942 17.0662 0.47142C18.2847 0.93792 18.6352 1.45594 19.1457 2.67244C21.6482 8.63644 19.8772 30.0984 24.1007 33.1579C30.6652 26.4589 25.7802 -0.172069 33.2462 0.000930786C34.9872 0.0409308 37.1447 1.86493 38.2467 3.07393C48.6252 14.4629 41.9142 33.9924 43.8347 47.5744C45.2777 57.7799 50.2847 67.0929 49.6182 77.6254C49.4602 80.1264 48.8747 82.5379 48.0977 84.9149L47.3822 86.1334Z"
    fill="#E3DDC7"
  />
  <path
    d="M47.3823 86.1334C46.2858 87.8914 44.6388 89.5004 42.5918 90.0384C36.9893 91.5109 31.0538 88.4829 25.4008 88.3309C20.4328 88.1969 15.7058 90.6799 10.6468 90.4309C8.2418 90.3124 6.49281 89.7849 4.42981 88.5514C3.84031 88.0769 3.12181 87.6094 2.76381 86.9339L2.9163 84.5664C-0.106198 79.2774 0.966302 71.5704 2.4788 65.9504C2.8703 64.5489 3.3208 63.1644 3.8283 61.8004C3.9208 61.7659 4.0128 61.7304 4.1058 61.6974C7.0013 60.6644 8.98331 58.1904 11.4978 56.5149C13.8518 54.9464 17.3583 53.8244 20.1133 53.1889C32.7428 50.2749 36.5643 55.9144 45.8878 61.6409L46.2228 61.8444C48.2058 68.0129 49.8183 75.2424 47.6008 81.5644L48.0978 84.9149L47.3823 86.1334Z"
    fill="#FEFEFE"
  />
  <path
    d="M47.3822 86.1334C46.2857 87.8914 44.6387 89.5004 42.5917 90.0384C36.9892 91.5109 31.0537 88.4829 25.4007 88.3309C20.4327 88.1969 15.7057 90.6799 10.6467 90.4309C8.24168 90.3124 6.49268 89.7849 4.42968 88.5514C3.84018 88.0769 3.12168 87.6094 2.76368 86.9339L2.91618 84.5664C4.58368 85.9684 6.15419 86.8859 8.41119 86.7024C11.4562 86.4549 14.3627 84.2854 16.8667 82.6519C19.7077 83.5074 22.5692 84.4949 25.4502 85.1939C27.6992 83.2879 29.6707 81.2044 31.6632 79.0359C34.0187 81.7434 37.0327 86.0009 40.9857 86.2154C42.7637 86.3114 44.2957 85.3759 45.5637 84.2154C46.3852 83.4634 47.0047 82.4989 47.6007 81.5644L48.0977 84.9149L47.3822 86.1334Z"
    fill="#C1BCB7"
  />
  <path
    d="M47.3821 86.1334C46.2856 87.8914 44.6386 89.5004 42.5916 90.0384C36.9891 91.5109 31.0536 88.4829 25.4006 88.3309C20.4326 88.1969 15.7056 90.6799 10.6466 90.4309C8.2416 90.3124 6.49261 89.7849 4.42961 88.5514C13.1271 90.0119 17.8976 87.3039 25.8371 87.3519C31.5781 87.3869 37.0376 89.2264 42.8996 89.1574L43.0951 89.1534C44.5071 88.1499 45.9086 87.0379 47.3821 86.1334Z"
    fill="#737071"
  />
  <path
    d="M2.91623 84.5663L2.76373 86.9338C-0.586271 82.0818 -0.344767 75.1339 0.658733 69.5669C1.99473 62.1524 6.20573 55.4669 7.29873 48.0714C8.96373 36.8043 2.09073 10.1479 13.8087 1.86285C14.7842 1.17335 15.9317 0.809344 17.0662 0.471344C18.2847 0.937844 18.6352 1.45586 19.1457 2.67236C21.6482 8.63636 19.8772 30.0983 24.1007 33.1578C30.6652 26.4588 25.7802 -0.172146 33.2462 0.000854492C34.9872 0.0408545 37.1447 1.86485 38.2467 3.07385C48.6252 14.4629 41.9142 33.9923 43.8347 47.5743C45.2777 57.7798 50.2847 67.0928 49.6182 77.6253C49.4602 80.1263 48.8747 82.5379 48.0977 84.9149L47.6007 81.5644C49.8182 75.2424 48.2057 68.0129 46.2227 61.8444C44.7082 56.1934 42.9007 50.5139 42.5067 44.6479C41.8367 34.6714 46.2012 7.96586 35.8212 1.69186C34.4897 0.887364 33.2697 0.810851 31.7737 1.09085C27.8532 5.89085 30.8772 28.8868 24.8942 34.3438C23.8827 34.3928 23.6792 34.4739 22.8782 33.7574C17.5962 29.0319 21.9027 4.18534 16.7857 1.61734C15.0567 1.82934 13.9322 3.09036 12.9052 4.39636C3.24224 16.6799 9.76123 33.0013 8.35273 46.9398C7.82473 52.1673 5.61773 56.9269 3.82823 61.8004C3.32073 63.1644 2.87023 64.5488 2.47873 65.9503C0.966225 71.5703 -0.106275 79.2773 2.91623 84.5663Z"
    fill="#737071"
  />
</svg>
