<svg
  width="51"
  height="93"
  viewBox="0 0 51 93"
  fill="none"
  xmlns="http://www.w3.org/2000/svg"
>
  <path
    d="M41.0197 92.6675C35.2392 93.3445 30.3262 90.697 24.7267 90.687C19.7447 90.678 15.0392 93.173 10.1042 92.86C7.96224 92.7245 5.80725 92.132 4.09375 90.7935C1.37075 88.667 0.541236 85.266 0.195736 81.9905C-0.643264 74.0475 1.34175 66.8366 3.74675 59.3476C4.62825 56.6021 5.72424 53.7775 6.07724 50.9095C8.01474 35.1625 2.49025 25.065 8.83975 8.04003C9.56125 6.10653 10.3427 3.30156 11.5787 1.71856C12.2422 0.869059 13.1417 0.348553 14.1487 5.34058e-05C14.8267 0.145053 15.2277 0.0910346 15.6502 0.687035C17.6907 3.56603 17.8242 17.7531 18.4762 21.8646C19.6667 29.3701 21.5317 36.9135 25.5432 43.4445C27.7512 39.9525 29.0377 36.7085 30.1032 32.7215C31.5537 27.2955 34.2812 4.28205 36.6277 1.96755C36.7107 1.97355 36.7947 1.96956 36.8762 1.98556C38.0972 2.22256 39.0567 3.29654 39.7682 4.24404C41.8397 7.00354 42.7107 10.439 43.4152 13.758C45.1292 21.8305 45.0772 29.302 44.6807 37.471C44.4962 41.272 44.0887 45.428 44.5332 49.1985C45.9962 61.613 51.5347 69.3005 49.7607 82.581C49.0362 84.565 48.2572 86.6575 47.2162 88.5035C45.7542 91.0965 43.7782 91.933 41.0197 92.6675Z"
    fill="#E3DDC7"
  />
  <path
    d="M49.7607 82.581C49.0362 84.565 48.2572 86.6575 47.2162 88.5035C45.7542 91.0965 43.7782 91.933 41.0197 92.6675C38.5242 91.8615 35.9342 91.527 33.3507 91.124C31.0927 90.432 28.7277 89.608 26.3447 89.6195C22.2652 89.6385 8.72574 93.4395 6.02574 90.7875L10.6442 89.9425L10.9807 89.4515C8.06424 89.183 5.63924 88.769 3.66174 86.426C0.839243 83.083 0.843741 78.2875 1.24974 74.1525C1.54274 71.173 2.17024 68.1705 2.83174 65.252C6.43274 64.332 9.98775 58.8455 14.4707 57.1825C24.9447 53.297 32.5207 55.466 41.6807 61.3315C43.4932 62.492 45.0072 64.1895 46.9782 65.05C47.0722 65.0915 47.1672 65.13 47.2617 65.17C48.6312 70.372 49.2487 74.7715 48.8122 80.1655L49.7607 82.581Z"
    fill="#FEFEFE"
  />
  <path
    d="M33.3508 91.124C31.0928 90.432 28.7278 89.608 26.3448 89.6195C22.2653 89.6385 8.72583 93.4395 6.02583 90.7875L10.6443 89.9425L10.9808 89.4515C15.4258 87.9775 19.5093 85.199 23.6773 83.0605C28.8293 85.1785 32.8638 88.3895 38.5173 89.391C36.5883 89.491 35.0558 90.301 33.3508 91.124Z"
    fill="#B7B2AB"
  />
  <path
    d="M49.7607 82.581C49.0362 84.565 48.2572 86.6575 47.2162 88.5035C45.7542 91.0965 43.7782 91.933 41.0197 92.6675C38.5242 91.8615 35.9342 91.527 33.3507 91.124C35.0557 90.301 36.5882 89.491 38.5172 89.391C41.3307 89.309 43.6752 88.638 45.6452 86.52C47.2167 84.8305 48.3812 82.4315 48.8122 80.1655L49.7607 82.581Z"
    fill="#B7B2AB"
  />
  <path
    d="M41.0198 92.6675C35.2393 93.3445 30.3263 90.697 24.7268 90.687C19.7448 90.678 15.0393 93.173 10.1043 92.86C7.96228 92.7245 5.80728 92.132 4.09378 90.7935C1.37078 88.667 0.54127 85.266 0.19577 81.9905C-0.64323 74.0475 1.34178 66.8366 3.74678 59.3476C4.62828 56.6021 5.72427 53.7775 6.07727 50.9095C8.01477 35.1625 2.49028 25.065 8.83978 8.04003C9.56128 6.10653 10.3428 3.30156 11.5788 1.71856C12.2423 0.869059 13.1418 0.348553 14.1488 5.34058e-05C14.8268 0.145053 15.2278 0.0910346 15.6503 0.687035C17.6908 3.56603 17.8243 17.7531 18.4763 21.8646C19.6668 29.3701 21.5318 36.9135 25.5433 43.4445C27.7513 39.9525 29.0378 36.7085 30.1033 32.7215C31.5538 27.2955 34.2813 4.28205 36.6278 1.96755C33.7683 13.4226 34.5078 29.669 28.4658 39.869C27.5163 41.4725 26.6683 42.204 24.8828 42.649C16.4718 39.9575 17.3378 5.43254 14.6533 1.15054L13.6423 1.21554C3.15477 10.1465 8.12727 38.836 6.88127 51.49C6.42277 56.1455 4.26277 60.802 2.83177 65.252C2.17027 68.1705 1.54277 71.173 1.24977 74.1525C0.843771 78.2875 0.839274 83.083 3.66177 86.426C5.63927 88.769 8.06427 89.183 10.9808 89.4515L10.6443 89.9426L6.02577 90.7876C8.72577 93.4396 22.2653 89.6386 26.3448 89.6196C28.7278 89.6081 31.0928 90.432 33.3508 91.124C35.9343 91.527 38.5243 91.8615 41.0198 92.6675Z"
    fill="#818081"
  />
  <path
    d="M49.7607 82.5811L48.8122 80.1656C49.2487 74.7716 48.6312 70.372 47.2617 65.17C45.8767 60.1465 43.9617 54.9486 43.5657 49.7371C42.5977 36.9881 47.2982 11.2536 36.6277 1.96756C36.7107 1.97356 36.7947 1.96957 36.8762 1.98557C38.0972 2.22257 39.0567 3.29655 39.7682 4.24405C41.8397 7.00355 42.7107 10.4391 43.4152 13.7581C45.1292 21.8306 45.0772 29.302 44.6807 37.471C44.4962 41.272 44.0887 45.428 44.5332 49.1985C45.9962 61.613 51.5347 69.3006 49.7607 82.5811Z"
    fill="#818081"
  />
</svg>
