<svg
  width="49"
  height="90"
  viewBox="0 0 49 90"
  fill="none"
  xmlns="http://www.w3.org/2000/svg"
>
  <path
    d="M42.1759 45.5591C44.0829 56.2421 49.3309 66.3125 48.6476 77.407C48.4231 81.0525 47.4694 84.8126 44.5694 87.2661C41.2254 90.0951 37.0479 90.0506 32.9409 89.6786C29.8444 89.2411 26.4139 88.1291 23.3244 88.1601C16.6269 88.2286 7.49335 92.4751 2.49885 85.8921C-0.682148 81.6996 -0.201143 75.223 0.571857 70.291C1.95886 61.4435 6.16235 53.3516 7.48585 44.5266C7.93885 41.5086 7.56435 38.2706 7.37185 35.2396C6.80585 26.3256 6.23236 17.8266 9.17636 9.20956C10.1344 6.40656 11.3789 3.52106 13.8424 1.71356C14.9804 0.878562 16.1614 0.521555 17.5214 0.219055C19.2239 1.29306 19.7234 2.81157 20.1699 4.74207C22.4039 14.4056 20.6359 23.7285 24.2829 33.9085C27.0189 26.6465 27.5439 19.0341 27.9019 11.3521C28.0349 8.49205 27.9339 5.22256 28.6159 2.45306C28.8999 1.29956 29.3384 1.02004 30.1899 0.262543C31.3909 -0.104457 32.3584 -0.133454 33.4739 0.478546C37.0694 2.45005 39.0474 7.16356 40.0254 10.9416C41.8079 17.8286 42.7544 25.4845 41.6954 32.5645C41.6309 36.954 41.7229 41.1826 42.1759 45.5591Z"
    fill="#E3DDC7"
  />
  <path
    d="M42.1759 45.5591C44.0829 56.2421 49.3309 66.3125 48.6476 77.407C48.4231 81.0525 47.4694 84.8126 44.5694 87.2661C41.2254 90.0951 37.0479 90.0506 32.9409 89.6786C31.1779 87.8746 27.2404 87.211 24.7934 87.178C18.8559 87.098 8.99185 90.8065 4.24885 86.114C3.31335 85.189 2.71735 84.205 2.20135 83.006C0.0628512 75.923 1.64136 68.681 3.48136 61.7076C6.21086 61.2931 8.12535 58.498 10.3494 57.0035C13.3469 54.9895 17.3809 53.5826 20.9509 53.0811C30.9374 51.6766 37.8664 56.2481 45.4794 61.9911C44.3454 57.2836 40.7074 50.1101 42.1759 45.5591Z"
    fill="#FEFEFE"
  />
  <path
    d="M42.353 30.8582C42.353 47.6024 45.2085 52.6024 48.8933 73.2751C48.6664 78.1304 48.6392 82.8346 45.7085 86.1023C42.3291 89.8702 37.1707 90.1144 33.0202 89.619C31.2385 87.2163 27.1814 87.1463 24.7085 87.1023C18.7081 86.9958 8.00176 91.3521 3.2085 85.1023C2.26308 83.8704 2.47637 82.3291 1.9549 80.7322C5.99476 81.5726 9.03767 80.8387 12.8987 79.2745C16.5626 80.8594 20.2861 82.7379 24.0688 83.7308C26.5149 80.9839 28.4856 77.9952 30.5012 74.7049C32.9368 78.2496 35.626 82.9051 39.5511 83.2407C42.2762 83.4738 44.3277 81.3775 46.494 79.5136C48.8494 70.4623 45.6287 61.5591 43.7086 52.6024C42.5625 46.3327 40.869 36.9195 42.353 30.8582Z"
    fill="#C1BCB7"
  />
  <path
    d="M32.941 89.6785C29.8445 89.241 26.414 88.129 23.3245 88.16C16.627 88.2285 7.49352 92.475 2.49902 85.892C-0.68198 81.6995 -0.200975 75.223 0.572025 70.291C1.95903 61.4435 6.16252 53.3515 7.48602 44.5265C7.93902 41.5085 7.56452 38.2705 7.37202 35.2395C6.80602 26.3255 6.23253 17.8265 9.17653 9.20953C10.1345 6.40653 11.379 3.52102 13.8425 1.71352C14.9805 0.878524 16.1615 0.521517 17.5215 0.219017C19.224 1.29302 19.7235 2.81153 20.17 4.74203C22.404 14.4055 20.636 23.7285 24.283 33.9085C27.019 26.6465 27.544 19.034 27.902 11.352C28.035 8.49201 27.934 5.22253 28.616 2.45303C28.9 1.29953 29.3385 1.02 30.19 0.262505C31.391 -0.104495 32.3585 -0.133492 33.474 0.478508C37.0695 2.45001 39.0475 7.16352 40.0255 10.9415C41.808 17.8285 42.7545 25.4845 41.6955 32.5645C39.053 22.8935 42.329 11.557 35.011 2.98C33.8045 1.5655 32.9095 0.929522 31.068 0.786522C27.2605 3.98652 28.707 18.2035 28.0545 23.3175C27.497 27.6835 26.4585 31.4975 24.3495 35.368C17.8605 22.5105 22.263 11.3025 18.455 1.704C17.5485 1.036 17.5095 1.0535 16.3815 1.1375C3.45752 8.191 9.40902 32.2365 8.46902 43.768C7.96352 49.9695 5.52253 55.886 3.48153 61.7075C1.64153 68.681 0.063019 75.923 2.20152 83.006C2.71752 84.205 3.31352 85.189 4.24902 86.114C8.99202 90.8065 18.856 87.098 24.7935 87.178C27.2405 87.211 31.178 87.8745 32.941 89.6785Z"
    fill="#818081"
  />
</svg>
