<svg
  width="49"
  height="94"
  viewBox="0 0 49 94"
  fill="none"
  xmlns="http://www.w3.org/2000/svg"
>
  <path
    d="M25.4901 83.8978C25.9481 83.5573 26.3476 83.1023 26.7551 82.7018C28.1481 78.4688 31.0606 66.0508 30.0466 61.9513C28.9756 57.6193 26.9826 53.4378 24.4931 49.7388C24.2186 49.4978 23.8641 49.4858 23.5141 49.4073C23.1306 49.7723 22.7771 50.1693 22.5341 50.6438C21.7226 52.2303 20.9096 54.3778 20.7741 56.1518C20.2776 62.6613 23.5861 77.4458 25.4901 83.8978Z"
    fill="#B7B2AB"
  />
  <path
    d="M0.615578 8.95966C-2.01677 20.0592 4.55148 32.8612 6.08898 43.6497C7.26748 51.9222 3.93548 91.9622 15.114 93.0922C17.0725 91.1687 16.802 68.9602 18.5 65.0987C18.7375 64.5592 19.344 62.1747 19.6155 61.3762C20.9495 65.9692 23.107 83.6102 25.5365 85.3932C28.647 83.7157 29.8405 72.3792 30.382 68.8407C30.6275 68.2017 31.008 67.4722 31.3145 66.8442L31.8635 66.9972L32.71 69.5747C33.6255 73.8002 34.732 84.1027 36.8835 86.8817L37.7525 87.0667C46.6685 79.7062 39.972 52.5577 41.1295 42.7732C42.32 32.7062 47.922 25.4577 48.267 14.5102C47.999 8.53715 48.1625 5.93267 43.643 1.55067C34.8345 -1.20033 33.403 1.54967 25.4165 1.41467C18.0495 1.29017 1.03333 -4.70284 0.615578 8.95966Z"
    fill="#E3DDC7"
  />
  <path
    d="M0.615578 8.95966C-2.01677 20.0592 4.55148 32.8612 6.08898 43.6497C7.26748 51.9222 3.93548 91.9622 15.114 93.0922C17.0725 91.1687 16.802 68.9602 18.5 65.0987C18.7375 64.5592 19.344 62.1747 19.6155 61.3762C20.9495 65.9692 23.107 83.6102 25.5365 85.3932C28.647 83.7157 29.8405 72.3792 30.382 68.8407C30.6275 68.2017 31.008 67.4722 31.3145 66.8442L31.8635 66.9972L32.71 69.5747C33.6255 73.8002 34.732 84.1027 36.8835 86.8817L37.7525 87.0667C46.6685 79.7062 39.972 52.5577 41.1295 42.7732C42.32 32.7062 47.922 25.4577 48.267 14.5102L47.11 15.4747C47.221 20.6212 45.4755 25.2672 43.8215 30.0542C42.8805 33.9932 40.4755 37.9012 40.134 42.5302C39.801 47.0477 40.164 50.8002 40.69 55.2972C42.203 68.2372 42.297 75.6357 37.1325 87.5857C36.4475 79.8687 30.6695 50.5302 23.655 48.6912C16.855 50.8397 15.486 85.5177 14.7895 93.0062C4.75498 79.6767 8.41198 61.7072 7.50298 46.3192C7.23798 41.8257 5.14198 34.4222 3.98848 29.8577C2.07398 23.4902 1.52848 21.1022 1.11553 14.5152L0.615578 8.95966Z"
    fill="#737071"
  />
  <path
    d="M3.98845 29.8576C13.2779 35.6941 15.6849 40.0866 29.3109 37.8996C36.3219 36.7746 40.8044 31.0211 43.8214 30.0541C45.4754 25.2671 47.2209 20.6211 47.1099 15.4746L48.2669 14.5101C47.9989 8.53713 48.1624 5.93264 43.6429 1.55064C34.8344 -1.20036 33.4029 1.54964 25.4164 1.41464C18.0494 1.29014 1.03329 -4.70286 0.615543 8.95964L1.11549 14.5151C1.52844 21.1021 2.07395 23.4901 3.98845 29.8576Z"
    fill="#FEFEFE"
  />
  <path
    d="M47.1099 15.475L48.2669 14.5105C47.9989 8.53747 48.1624 5.93298 43.6429 1.55098C34.8344 -1.20002 33.4029 1.54998 25.4164 1.41498C18.0494 1.29048 1.03329 -4.70252 0.615543 8.95998L1.11549 14.5155C1.61994 10.934 2.02294 7.61047 5.27094 5.26497C6.50444 4.35947 8.05944 4.00797 9.56244 4.29497C13.4499 5.00797 15.7724 8.32097 17.9099 11.2755C23.9044 2.05647 25.8594 4.14697 34.9149 7.96597C43.9684 5.94647 47.1109 5.10848 47.1099 15.475Z"
    fill="#C1BCB7"
  />
  <path
    d="M30.3821 68.8408C30.9926 69.1328 32.0291 69.3813 32.7101 69.5748L31.8636 66.9973L31.3146 66.8443C31.0081 67.4723 30.6276 68.2018 30.3821 68.8408Z"
    fill="#E3DDC7"
    fill-opacity="0.0156863"
  />
</svg>
