<svg
  width="50"
  height="92"
  viewBox="0 0 50 92"
  fill="none"
  xmlns="http://www.w3.org/2000/svg"
>
  <path
    d="M10.0467 0.00326538C-8.8678 2.14427 4.4047 34.8818 6.1492 45.1723C7.3772 52.4183 4.2847 87.0958 13.2042 89.4493C17.9347 86.6733 17.3272 52.9173 24.4222 49.4233C31.4657 50.7833 31.0472 89.3928 33.6147 91.8018C36.5557 91.1303 37.7292 87.0468 38.6632 84.4173C41.3032 76.2988 42.6367 64.4868 41.2367 55.9978C38.6642 40.4033 48.5387 32.4973 49.4582 17.9018C50.7192 -2.12024 40.8957 -0.233244 25.6392 2.06876C24.6502 2.21826 16.5407 0.495765 13.9577 0.358765C12.2582 0.0102646 11.7867 -0.0112346 10.0467 0.00326538Z"
    fill="#FEFEFE"
  />
  <path
    d="M10.0467 0.00326538C-8.8678 2.14427 4.4047 34.8818 6.1492 45.1723C7.3772 52.4183 4.2847 87.0958 13.2042 89.4493C17.9347 86.6733 17.3272 52.9173 24.4222 49.4233C31.4657 50.7833 31.0472 89.3928 33.6147 91.8018C36.5557 91.1303 37.7292 87.0468 38.6632 84.4173C41.3032 76.2988 42.6367 64.4868 41.2367 55.9978C38.6642 40.4033 48.5387 32.4973 49.4582 17.9018C50.7192 -2.12024 40.8957 -0.233244 25.6392 2.06876C24.6502 2.21826 16.5407 0.495765 13.9577 0.358765C20.9267 5.18776 32.4572 1.68477 39.2692 2.00327C52.5747 1.27477 48.6002 21.3773 45.9082 28.9273C43.8347 29.1128 38.6217 34.4988 35.2372 36.2728C29.0437 39.5853 19.3817 39.0988 13.0527 36.3578C10.0877 35.0733 6.9662 30.9588 3.5207 30.1583C0.9242 21.5223 -1.2528 11.2588 5.4342 3.75076C7.1267 2.15626 8.1812 1.36227 10.0467 0.00326538Z"
    fill="#E3DDC7"
  />
  <path
    d="M10.0467 0.00326538C-8.8678 2.14427 4.4047 34.8818 6.1492 45.1723C7.3772 52.4183 4.2847 87.0958 13.2042 89.4493C17.9347 86.6733 17.3272 52.9173 24.4222 49.4233C31.4657 50.7833 31.0472 89.3928 33.6147 91.8018C36.5557 91.1303 37.7292 87.0468 38.6632 84.4173C41.3032 76.2988 42.6367 64.4868 41.2367 55.9978C38.6642 40.4033 48.5387 32.4973 49.4582 17.9018C50.7192 -2.12024 40.8957 -0.233244 25.6392 2.06876C24.6502 2.21826 16.5407 0.495765 13.9577 0.358765C20.9267 5.18776 32.4572 1.68477 39.2692 2.00327C52.5747 1.27477 48.6002 21.3773 45.9082 28.9273C44.6112 33.9233 40.7182 39.4888 40.3227 44.8873C39.7042 53.3328 42.9277 85.9758 33.7867 90.0568C32.7432 86.9938 32.8047 69.5223 31.3302 64.9893C29.7232 60.0483 29.6987 50.6158 25.3592 47.7603C16.6377 47.5113 17.0157 85.1073 12.8052 87.5788C6.3532 82.5568 7.8507 53.7393 7.0467 45.1653C6.5107 39.4473 5.2677 35.5588 3.5207 30.1583C0.9242 21.5223 -1.2528 11.2588 5.4342 3.75076C7.1267 2.15626 8.1812 1.36227 10.0467 0.00326538Z"
    fill="#818081"
  />
  <path
    d="M25.7421 9.35791C29.6791 6.82941 34.8696 3.25842 39.2691 2.00342C32.4571 1.68492 20.9266 5.18792 13.9576 0.358917C12.2581 0.0104172 11.7866 -0.011082 10.0466 0.00341797C8.18109 1.36242 7.12658 2.15642 5.43408 3.75092C11.8326 2.36492 15.3691 2.58491 21.1011 6.26941C22.6561 7.28691 24.2031 8.31641 25.7421 9.35791Z"
    fill="#B7B2AB"
  />
</svg>
