<svg
  width="50"
  height="91"
  viewBox="0 0 50 91"
  fill="none"
  xmlns="http://www.w3.org/2000/svg"
>
  <path
    d="M23.8646 83.5701C24.1346 83.3946 24.7367 82.9021 24.8902 82.6366C25.5652 81.4696 25.5812 77.6796 25.8007 76.0881C26.6002 70.2896 27.4577 64.6146 29.2727 59.0231C28.3947 55.8771 27.0032 50.3346 24.1657 48.4596C22.0622 51.5256 20.5352 55.7206 19.5632 59.2991C17.2342 67.8761 19.5591 75.9856 23.8646 83.5701Z"
    fill="#B7B2AB"
  />
  <path
    d="M1.63899 6.13088C-3.40751 22.0514 4.67699 30.2729 6.12149 43.7324C7.57699 57.2879 3.1185 72.4269 10.401 86.5774C11.06 87.8574 11.6395 88.8334 13.0675 89.2654C17.596 87.0854 15.315 76.0379 17.3175 72.2864C19.4635 73.8059 20.3935 82.5334 23.9215 84.5884L24.8075 84.1699C26.8665 80.7759 27.4245 70.1554 28.573 64.9369L29.489 61.4549L30.002 61.3049L30.8235 63.4309C33.727 73.7944 34.454 80.0779 35.811 90.6194C42.891 82.2289 43.8185 65.7649 41.7695 55.4909C38.1455 37.3179 50.369 28.7279 49.3025 11.8424C48.241 -4.96461 33.502 1.49189 22.92 2.13889C18.1945 2.30039 8.68549 -2.49112 4.71499 1.77088C3.00199 2.92088 2.52949 4.28438 1.63899 6.13088Z"
    fill="#E3DDC7"
  />
  <path
    d="M4.00896 30.811C6.95196 32.0445 7.89246 32.9325 10.549 34.296C17.108 37.6615 25.53 39.367 32.6525 36.881C36.3815 35.5795 41.9795 30.062 45.058 29.221C48.162 21.5325 50.769 11.111 45.1005 3.92897C39.8365 -1.73603 30.1335 3.27447 23.2475 3.19897C16.225 3.12197 12.059 -0.905027 5.27696 1.91047L4.71497 1.77096C3.00197 2.92096 2.52946 4.28446 1.63896 6.13096L2.51196 8.70247C-0.185538 16.841 1.66146 22.8925 4.00896 30.811Z"
    fill="#FEFEFE"
  />
  <path
    d="M17.3607 10.9866C19.5382 8.83607 21.7742 6.48557 24.2177 4.66757C26.4622 5.64107 30.0812 7.31807 32.2997 8.01057C38.0122 3.84007 38.2527 3.15208 45.1007 3.92908C39.8367 -1.73592 30.1337 3.27458 23.2477 3.19908C16.2252 3.12208 12.0592 -0.904917 5.27716 1.91058L4.71516 1.77107C3.00216 2.92107 2.52966 4.28457 1.63916 6.13107L2.51216 8.70258C7.84216 -0.123924 12.9637 5.18407 17.3607 10.9866Z"
    fill="#C1BCB7"
  />
  <path
    d="M1.63899 6.13088C-3.40751 22.0514 4.67699 30.2729 6.12149 43.7324C7.57699 57.2879 3.1185 72.4269 10.401 86.5774C11.06 87.8574 11.6395 88.8334 13.0675 89.2654C17.596 87.0854 15.315 76.0379 17.3175 72.2864C19.4635 73.8059 20.3935 82.5334 23.9215 84.5884L24.8075 84.1699C26.8665 80.7759 27.4245 70.1554 28.573 64.9369L29.489 61.4549L30.002 61.3049L30.8235 63.4309C33.727 73.7944 34.454 80.0779 35.811 90.6194C42.891 82.2289 43.8185 65.7649 41.7695 55.4909C38.1455 37.3179 50.369 28.7279 49.3025 11.8424C48.241 -4.96461 33.502 1.49189 22.92 2.13889C18.1945 2.30039 8.68549 -2.49112 4.71499 1.77088L5.27699 1.91039C12.059 -0.905107 16.225 3.12189 23.2475 3.19889C30.1335 3.27439 39.8365 -1.73611 45.1005 3.92889C50.769 11.1109 48.162 21.5324 45.058 29.2209C41.5525 40.6309 38.847 41.0889 40.6915 54.5529C42.365 66.7724 41.8755 77.7799 36.532 89.0904C36.4195 87.3784 36.293 85.6669 36.1525 83.9569C35.496 76.5429 30.3855 52.4309 25.4385 48.2749C17.2445 46.7094 14.766 83.6364 13.6515 89.9349C4.65898 73.4074 7.90799 63.6449 7.37849 45.9709C7.24349 41.4679 5.35548 35.2119 4.00898 30.8109C1.66148 22.8924 -0.185512 16.8409 2.51199 8.70238L1.63899 6.13088Z"
    fill="#737071"
  />
  <path
    d="M28.573 64.937C30.413 64.4995 29.8235 64.9165 30.8235 63.431L30.002 61.305L29.489 61.455L28.573 64.937Z"
    fill="#C1BCB7"
    fill-opacity="0.0117647"
  />
</svg>
