<svg
  width="51"
  height="93"
  viewBox="0 0 51 93"
  fill="none"
  xmlns="http://www.w3.org/2000/svg"
>
  <path
    d="M9.08768 92.6675C14.8682 93.3445 19.7812 90.697 25.3807 90.687C30.3627 90.678 35.0682 93.173 40.0032 92.86C42.1452 92.7245 44.3002 92.132 46.0137 90.7935C48.7367 88.667 49.5662 85.266 49.9117 81.9905C50.7507 74.0475 48.7657 66.8366 46.3607 59.3476C45.4792 56.6021 44.3832 53.7775 44.0302 50.9095C42.0927 35.1625 47.6172 25.065 41.2677 8.04003C40.5462 6.10653 39.7647 3.30156 38.5287 1.71856C37.8652 0.869059 36.9657 0.348553 35.9587 5.34058e-05C35.2807 0.145053 34.8797 0.0910346 34.4572 0.687035C32.4167 3.56603 32.2832 17.7531 31.6312 21.8646C30.4407 29.3701 28.5757 36.9135 24.5642 43.4445C22.3562 39.9525 21.0697 36.7085 20.0042 32.7215C18.5537 27.2955 15.8262 4.28205 13.4797 1.96755C13.3967 1.97355 13.3127 1.96956 13.2312 1.98556C12.0102 2.22256 11.0507 3.29654 10.3392 4.24404C8.26768 7.00354 7.39668 10.439 6.69218 13.758C4.97818 21.8305 5.03018 29.302 5.42668 37.471C5.61118 41.272 6.01868 45.428 5.57418 49.1985C4.11118 61.613 -1.42732 69.3005 0.346685 82.581C1.07118 84.565 1.85018 86.6575 2.89118 88.5035C4.35318 91.0965 6.32918 91.933 9.08768 92.6675Z"
    fill="#E3DDC7"
  />
  <path
    d="M0.34668 82.581C1.07118 84.565 1.85017 86.6575 2.89117 88.5035C4.35317 91.0965 6.32918 91.933 9.08768 92.6675C11.5832 91.8615 14.1732 91.527 16.7567 91.124C19.0147 90.432 21.3797 89.608 23.7627 89.6195C27.8422 89.6385 41.3817 93.4395 44.0817 90.7875L39.4632 89.9425L39.1267 89.4515C42.0432 89.183 44.4682 88.769 46.4457 86.426C49.2682 83.083 49.2637 78.2875 48.8577 74.1525C48.5647 71.173 47.9372 68.1705 47.2757 65.252C43.6747 64.332 40.1197 58.8455 35.6367 57.1825C25.1627 53.297 17.5867 55.466 8.42667 61.3315C6.61417 62.492 5.10017 64.1895 3.12917 65.05C3.03517 65.0915 2.94017 65.13 2.84567 65.17C1.47617 70.372 0.858674 74.7715 1.29517 80.1655L0.34668 82.581Z"
    fill="#FEFEFE"
  />
  <path
    d="M16.7566 91.124C19.0146 90.432 21.3796 89.608 23.7626 89.6195C27.8421 89.6385 41.3816 93.4395 44.0816 90.7875L39.4631 89.9425L39.1266 89.4515C34.6816 87.9775 30.5981 85.199 26.4301 83.0605C21.2781 85.1785 17.2436 88.3895 11.5901 89.391C13.5191 89.491 15.0516 90.301 16.7566 91.124Z"
    fill="#B7B2AB"
  />
  <path
    d="M0.34668 82.581C1.07118 84.565 1.85017 86.6575 2.89117 88.5035C4.35317 91.0965 6.32918 91.933 9.08768 92.6675C11.5832 91.8615 14.1732 91.527 16.7567 91.124C15.0517 90.301 13.5192 89.491 11.5902 89.391C8.77668 89.309 6.43217 88.638 4.46217 86.52C2.89067 84.8305 1.72617 82.4315 1.29517 80.1655L0.34668 82.581Z"
    fill="#B7B2AB"
  />
  <path
    d="M9.08765 92.6675C14.8681 93.3445 19.7811 90.697 25.3806 90.687C30.3626 90.678 35.0681 93.173 40.0031 92.86C42.1451 92.7245 44.3001 92.132 46.0136 90.7935C48.7366 88.667 49.5662 85.266 49.9117 81.9905C50.7507 74.0475 48.7656 66.8366 46.3606 59.3476C45.4791 56.6021 44.3832 53.7775 44.0302 50.9095C42.0927 35.1625 47.6171 25.065 41.2676 8.04003C40.5461 6.10653 39.7646 3.30156 38.5286 1.71856C37.8651 0.869059 36.9656 0.348553 35.9586 5.34058e-05C35.2806 0.145053 34.8797 0.0910346 34.4572 0.687035C32.4167 3.56603 32.2831 17.7531 31.6311 21.8646C30.4406 29.3701 28.5756 36.9135 24.5641 43.4445C22.3561 39.9525 21.0697 36.7085 20.0042 32.7215C18.5537 27.2955 15.8261 4.28205 13.4796 1.96755C16.3391 13.4226 15.5996 29.669 21.6416 39.869C22.5911 41.4725 23.4391 42.204 25.2246 42.649C33.6356 39.9575 32.7696 5.43254 35.4541 1.15054L36.4651 1.21554C46.9526 10.1465 41.9802 38.836 43.2262 51.49C43.6847 56.1455 45.8447 60.802 47.2757 65.252C47.9372 68.1705 48.5647 71.173 48.8577 74.1525C49.2637 78.2875 49.2681 83.083 46.4456 86.426C44.4681 88.769 42.0431 89.183 39.1266 89.4515L39.4632 89.9426L44.0816 90.7876C41.3816 93.4396 27.8421 89.6386 23.7626 89.6196C21.3796 89.6081 19.0147 90.432 16.7567 91.124C14.1732 91.527 11.5831 91.8615 9.08765 92.6675Z"
    fill="#818081"
  />
  <path
    d="M0.346685 82.5811L1.29518 80.1656C0.858679 74.7716 1.47618 70.372 2.84568 65.17C4.23068 60.1465 6.14568 54.9486 6.54168 49.7371C7.50968 36.9881 2.80918 11.2536 13.4797 1.96756C13.3967 1.97356 13.3127 1.96957 13.2312 1.98557C12.0102 2.22257 11.0507 3.29655 10.3392 4.24405C8.26768 7.00355 7.39668 10.4391 6.69218 13.7581C4.97818 21.8306 5.03018 29.302 5.42668 37.471C5.61118 41.272 6.01868 45.428 5.57418 49.1985C4.11118 61.613 -1.42732 69.3006 0.346685 82.5811Z"
    fill="#818081"
  />
</svg>
