<svg
  width="38"
  height="94"
  viewBox="0 0 38 94"
  fill="none"
  xmlns="http://www.w3.org/2000/svg"
>
  <path
    d="M16.182 93.2762C16.91 93.0517 17.6715 92.7707 18.2775 92.2957C25.192 86.8782 27.123 60.1112 28.411 51.2172C29.3375 44.8162 30.4255 38.4402 31.674 32.0947C33.0795 25.2687 36.261 18.7172 37.0815 11.8192C37.3695 9.39874 37.3985 6.25875 35.763 4.26275C32.876 0.740249 26.252 0.387241 22.0655 0.0482407C16.1915 -0.175259 8.13304 0.283737 3.01404 3.46374C1.51654 4.39374 0.630035 5.64824 0.263035 7.37374C-1.30447 14.7512 4.59153 24.6687 5.88703 32.0567C8.38303 46.2917 8.84104 82.3967 16.182 93.2762Z"
    fill="#737071"
  />
  <path
    d="M6.31349 27.9698C7.70349 37.0943 12.2505 87.4813 16.6475 91.5673C23.512 89.2098 26.3435 58.7293 27.411 51.4663C28.5375 43.5193 29.9295 35.6128 31.5855 27.7593C32.8815 22.7418 39.8265 7.37426 33.971 3.73626C27.3915 -0.351241 7.29298 -0.249743 1.96548 5.82426C-1.15352 9.38076 5.06449 23.3528 6.31349 27.9698Z"
    fill="#FEFEFE"
  />
  <path
    d="M6.31348 27.9698C7.70348 37.0943 12.2505 87.4813 16.6475 91.5673C23.512 89.2098 26.3435 58.7293 27.411 51.4663C28.5375 43.5193 29.9295 35.6128 31.5855 27.7593C28.501 28.7743 25.0805 36.6668 19.6845 36.8473C12.694 37.0813 10.836 31.5258 6.60748 28.1973L6.31348 27.9698Z"
    fill="#E3DDC7"
  />
</svg>
