<svg
  width="38"
  height="93"
  viewBox="0 0 38 93"
  fill="none"
  xmlns="http://www.w3.org/2000/svg"
>
  <path
    d="M18.9242 92.4821C19.6322 92.3821 20.3037 92.0635 20.9672 91.8065C27.0412 84.204 29.2082 43.7641 31.6687 31.5371C33.0387 24.7266 36.8497 18.0526 37.5177 11.1946C37.7337 8.98156 37.5512 5.33356 35.9812 3.57806C32.9417 0.179056 23.5052 0.376553 19.1877 5.34058e-05C14.2612 0.297553 6.64471 -0.143942 2.50021 2.77006C1.17321 3.70256 0.494204 5.04305 0.225704 6.61755C-1.1133 14.4725 3.8792 23.213 5.3872 30.803C8.6387 47.1685 9.91072 79.5101 18.9242 92.4821Z"
    fill="#818081"
  />
  <path
    d="M6.00372 27.4696C7.68572 39.5646 13.2697 83.0736 19.3587 90.8701L20.2162 91.0316C24.9527 87.6541 29.0727 36.1631 31.8972 26.1846C34.3637 19.0286 36.8267 14.4636 36.5722 6.77061C34.6992 1.93761 29.5612 1.35111 25.0007 2.43911C21.2287 1.20161 18.1782 0.317121 14.1972 1.91912C9.8527 1.12212 2.29671 1.46212 1.05371 6.73562C1.40121 14.6106 3.44372 20.0851 6.00372 27.4696Z"
    fill="#FEFEFE"
  />
  <path
    d="M6.00366 27.4696C7.68566 39.5646 13.2696 83.0736 19.3586 90.8701L20.2162 91.0316C24.9527 87.6541 29.0727 36.1631 31.8972 26.1846C26.2352 28.8786 24.2671 40.5911 13.9211 34.5301C10.2811 32.3971 8.98766 28.3536 6.00366 27.4696Z"
    fill="#E3DDC7"
  />
  <path
    d="M1.05371 6.73547C6.18121 6.41997 9.9912 4.83548 14.1972 1.91898C9.8527 1.12198 2.29671 1.46197 1.05371 6.73547Z"
    fill="#B7B2AB"
  />
  <path
    d="M36.5722 6.77063C34.6992 1.93763 29.5612 1.35113 25.0007 2.43913C28.1262 4.38013 32.9542 5.67863 36.5722 6.77063Z"
    fill="#C1BCB7"
  />
</svg>
