<svg
  width="31"
  height="96"
  viewBox="0 0 31 96"
  fill="none"
  xmlns="http://www.w3.org/2000/svg"
>
  <path
    d="M14.9593 95.584C15.1863 95.468 15.2867 95.423 15.5162 95.271C19.7152 92.482 21.7433 81.861 22.7433 77.2535C25.6963 63.6455 25.7658 49.8625 27.5073 36.1255C28.3448 29.518 30.7277 22.7975 30.9822 16.182C31.0887 13.4185 30.8997 10.4315 29.3157 8.0685C26.7047 4.171 20.8738 0.827 16.2828 0C15.3678 0.044 14.4748 0.141489 13.5848 0.366989C7.75625 1.84649 3.19376 5.98749 0.126258 11.003C0.035758 12.625 -0.0412435 14.263 0.0247565 15.887C0.278257 22.0835 2.43225 28.2945 3.17875 34.4795C4.71625 47.2185 5.88677 87.19 14.9593 95.584Z"
    fill="#737071"
  />
  <path
    d="M3.88131 30.5855C4.95131 41.2715 7.8563 87.015 14.8348 93.5925C23.3468 90.2895 26.3238 37.8805 27.9773 27.362C30.5223 16.3895 33.4918 1.18104 13.6693 1.55404C9.2738 1.63654 3.72629 7.15754 1.13979 10.9505C0.796295 18.781 2.14131 22.9945 3.88131 30.5855Z"
    fill="#E3DDC7"
  />
  <path
    d="M3.88131 30.5855C9.29031 33.8665 13.3363 47.478 22.4953 35.101C24.2018 32.7945 25.6383 28.6815 27.9773 27.362C30.5223 16.3895 33.4918 1.18096 13.6693 1.55396C9.2738 1.63646 3.72629 7.15746 1.13979 10.9505C0.796295 18.781 2.14131 22.9945 3.88131 30.5855Z"
    fill="#FEFEFE"
  />
</svg>
