<svg
  width="30"
  height="93"
  viewBox="0 0 30 93"
  fill="none"
  xmlns="http://www.w3.org/2000/svg"
>
  <path
    d="M13.453 92.9275C14.3965 92.599 15.2654 92.2345 15.9979 91.5325C23.7964 84.059 29.0745 24.152 29.4455 11.6935C29.516 9.3315 29.9635 4.123 28.251 2.371C25.8285 -0.107498 19.373 0.0905 16.1275 0C11.033 0.0575 6.03745 0.171492 1.27745 2.17349C0.977954 3.71299 0.687955 5.261 0.490955 6.8175C-1.43955 22.0595 2.79396 43.8345 5.04146 59.1345C6.31996 67.8355 7.04547 76.868 9.61147 85.3105C10.4945 88.215 11.5685 90.5265 13.453 92.9275Z"
    fill="#545257"
  />
  <path
    d="M1.94654 27.1248C1.98654 35.7878 9.18554 86.6943 13.5015 91.0183C13.575 91.0923 13.652 91.1633 13.727 91.2363C21.3395 90.6293 27.401 33.8778 27.4475 25.5388C28.0755 21.2418 29.5665 6.94334 28.027 3.47684C24.276 0.156845 6.41355 0.297343 2.52055 2.95284C0.0285484 7.26684 1.55304 21.5093 1.94654 27.1248Z"
    fill="#E3DDC7"
  />
  <path
    d="M1.94654 27.1247C6.20304 29.9812 12.0005 47.0282 21.0345 36.1907C23.0275 33.7992 25.629 26.5042 27.4475 25.5387C28.0755 21.2417 29.5665 6.94324 28.027 3.47674C24.276 0.156742 6.41355 0.29724 2.52055 2.95274C0.0285484 7.26674 1.55304 21.5092 1.94654 27.1247Z"
    fill="#FEFEFE"
  />
  <path
    d="M15.4663 29.9519C22.4056 29.9521 23.6937 10.8513 23.6937 10.8513H15.4665H7.23926C7.23926 10.8513 8.52698 29.9518 15.4663 29.9519Z"
    fill="url(#paint0_linear_187_6475)"
    fill-opacity="0.7"
  />
  <path
    d="M23.4208 11.1545C23.4208 11.1545 22.1327 30.2553 15.1934 30.2551C8.25403 30.255 6.96631 11.1545 6.96631 11.1545"
    stroke="black"
    stroke-width="0.3"
  />
  <path
    d="M20.4009 32.3402C20.4009 32.3402 21.9527 31.4395 22.0975 30.784C22.2424 30.1286 22.9664 26.8514 22.9664 26.8514"
    stroke="black"
    stroke-width="0.4"
  />
  <defs>
    <linearGradient
      id="paint0_linear_187_6475"
      x1="15.4665"
      y1="10.8513"
      x2="15.4665"
      y2="29.9519"
      gradientUnits="userSpaceOnUse"
    >
      <stop stop-color="white" />
      <stop offset="1" stop-color="#E3DDC7" />
    </linearGradient>
  </defs>
</svg>
