<svg
  width="35"
  height="98"
  viewBox="0 0 35 98"
  fill="none"
  xmlns="http://www.w3.org/2000/svg"
>
  <path
    d="M0.116294 13.7583C0.646794 26.8668 2.95129 40.0469 5.22729 52.9534C6.62079 60.8579 9.67979 97.1829 19.3888 97.2249C25.7238 93.7934 28.7138 58.0014 29.8688 49.5644C31.8388 35.1584 35.8138 15.6293 33.1738 1.46785C28.2488 -0.0966502 25.5388 -0.00564966 20.3488 0.14035C14.5328 -0.33115 6.13931 0.414351 0.553306 1.94435C-0.00319415 6.49385 -0.121706 9.21785 0.116294 13.7583Z"
    fill="#FEFEFE"
  />
  <path
    d="M0.116211 13.7583C0.646711 26.8668 2.9512 40.0469 5.2272 52.9534C6.6207 60.8579 9.6797 97.1829 19.3887 97.2249C25.7237 93.7934 28.7137 58.0014 29.8687 49.5644C31.8387 35.1584 35.8137 15.6293 33.1737 1.46785C28.2487 -0.0966502 25.5387 -0.00564966 20.3487 0.14035C22.0237 0.37385 23.5737 0.735849 25.2237 1.10135C27.3587 1.15735 30.2387 1.56236 32.4137 1.80286C33.9987 9.68886 33.0487 21.7583 31.6637 29.6208C28.5137 31.3823 26.0987 41.1594 20.1237 42.8359C10.4707 45.5449 7.6617 34.3224 3.0437 32.4779C2.0917 26.8679 1.13172 20.3499 1.06622 14.6499L0.116211 13.7583Z"
    fill="#E3DDC7"
  />
  <path
    d="M0.116211 13.7583C0.646711 26.8668 2.9512 40.0469 5.2272 52.9534C6.6207 60.8579 9.6797 97.1829 19.3887 97.2249C25.7237 93.7934 28.7137 58.0014 29.8687 49.5644C31.8387 35.1584 35.8137 15.6293 33.1737 1.46785C28.2487 -0.0966502 25.5387 -0.00564966 20.3487 0.14035C22.0237 0.37385 23.5737 0.735849 25.2237 1.10135C27.3587 1.15735 30.2387 1.56236 32.4137 1.80286C33.9987 9.68886 33.0487 21.7583 31.6637 29.6208C31.7037 32.7733 29.7487 44.8373 29.1887 48.1833C27.8187 56.4223 25.0037 92.7329 18.9037 96.3804C10.5567 94.3409 4.3172 42.5699 3.0437 32.4779C2.0917 26.8679 1.13172 20.3499 1.06622 14.6499L0.116211 13.7583Z"
    fill="#545257"
  />
  <path
    d="M1.06631 14.6499C1.03331 10.6884 0.8713 6.38389 1.4598 2.49339C10.0778 0.786393 16.4508 1.12689 25.2238 1.10139C23.5738 0.735895 22.0238 0.373896 20.3488 0.140396C14.5328 -0.331104 6.13931 0.414397 0.553306 1.9444C-0.00319415 6.4939 -0.121706 9.21789 0.116294 13.7584L1.06631 14.6499Z"
    fill="#818081"
  />
  <path
    d="M17.5952 32.8053C26.7218 32.8055 28.4159 11 28.4159 11H17.5954H6.7749C6.7749 11 8.46852 32.8052 17.5952 32.8053Z"
    fill="url(#paint0_linear_187_6484)"
    fill-opacity="0.7"
  />
  <path
    d="M28.057 11.3461C28.057 11.3461 26.3629 33.1516 17.2363 33.1514C8.10963 33.1512 6.41602 11.3461 6.41602 11.3461"
    stroke="black"
    stroke-width="0.3"
  />
  <path
    d="M24.0856 35.5318C24.0856 35.5318 26.1265 34.5035 26.317 33.7552C26.5075 33.007 27.4598 29.2657 27.4598 29.2657"
    stroke="black"
    stroke-width="0.4"
  />
  <defs>
    <linearGradient
      id="paint0_linear_187_6484"
      x1="17.5954"
      y1="11"
      x2="17.5954"
      y2="32.8053"
      gradientUnits="userSpaceOnUse"
    >
      <stop stop-color="white" />
      <stop offset="1" stop-color="#E3DDC7" />
    </linearGradient>
  </defs>
</svg>
