<svg
  width="35"
  height="98"
  viewBox="0 0 35 98"
  fill="none"
  xmlns="http://www.w3.org/2000/svg"
>
  <path
    d="M33.9347 13.7583C33.4042 26.8668 31.0997 40.0469 28.8237 52.9534C27.4302 60.8579 24.3712 97.1829 14.6622 97.2249C8.32724 93.7934 5.33723 58.0014 4.18223 49.5644C2.21223 35.1584 -1.7628 15.6293 0.877205 1.46785C5.80221 -0.0966502 8.51222 -0.00564966 13.7022 0.14035C19.5182 -0.33115 27.9117 0.414351 33.4977 1.94435C34.0542 6.49385 34.1727 9.21785 33.9347 13.7583Z"
    fill="#FEFEFE"
  />
  <path
    d="M33.9348 13.7583C33.4043 26.8668 31.0998 40.0469 28.8238 52.9534C27.4303 60.8579 24.3713 97.1829 14.6623 97.2249C8.32732 93.7934 5.33731 58.0014 4.18231 49.5644C2.21231 35.1584 -1.76271 15.6293 0.877289 1.46785C5.80229 -0.0966502 8.5123 -0.00564966 13.7023 0.14035C12.0273 0.37385 10.4773 0.735849 8.8273 1.10135C6.6923 1.15735 3.8123 1.56236 1.6373 1.80286C0.0522985 9.68886 1.0023 21.7583 2.3873 29.6208C5.5373 31.3823 7.95231 41.1594 13.9273 42.8359C23.5803 45.5449 26.3893 34.3224 31.0073 32.4779C31.9593 26.8679 32.9193 20.3499 32.9848 14.6499L33.9348 13.7583Z"
    fill="#E3DDC7"
  />
  <path
    d="M33.9348 13.7583C33.4043 26.8668 31.0998 40.0469 28.8238 52.9534C27.4303 60.8579 24.3713 97.1829 14.6623 97.2249C8.32732 93.7934 5.33731 58.0014 4.18231 49.5644C2.21231 35.1584 -1.76271 15.6293 0.877289 1.46785C5.80229 -0.0966502 8.5123 -0.00564966 13.7023 0.14035C12.0273 0.37385 10.4773 0.735849 8.8273 1.10135C6.6923 1.15735 3.8123 1.56236 1.6373 1.80286C0.0522985 9.68886 1.0023 21.7583 2.3873 29.6208C2.3473 32.7733 4.3023 44.8373 4.8623 48.1833C6.2323 56.4223 9.04731 92.7329 15.1473 96.3804C23.4943 94.3409 29.7338 42.5699 31.0073 32.4779C31.9593 26.8679 32.9193 20.3499 32.9848 14.6499L33.9348 13.7583Z"
    fill="#545257"
  />
  <path
    d="M32.9847 14.6499C33.0177 10.6884 33.1797 6.38389 32.5912 2.49339C23.9732 0.786393 17.6002 1.12689 8.82722 1.10139C10.4772 0.735895 12.0272 0.373896 13.7022 0.140396C19.5182 -0.331104 27.9117 0.414397 33.4977 1.9444C34.0542 6.4939 34.1727 9.21789 33.9347 13.7584L32.9847 14.6499Z"
    fill="#818081"
  />
</svg>
