<svg
  width="35"
  height="98"
  viewBox="0 0 35 98"
  fill="none"
  xmlns="http://www.w3.org/2000/svg"
>
  <path
    d="M33.9347 13.7583C33.4042 26.8668 31.0997 40.0469 28.8237 52.9534C27.4302 60.8579 24.3712 97.1829 14.6622 97.2249C8.32717 93.7934 5.33716 58.0014 4.18216 49.5644C2.21216 35.1584 -1.76287 15.6293 0.877132 1.46785C5.80213 -0.0966502 8.51214 -0.00564966 13.7021 0.14035C19.5181 -0.33115 27.9116 0.414351 33.4976 1.94435C34.0541 6.49385 34.1727 9.21785 33.9347 13.7583Z"
    fill="#FEFEFE"
  />
  <path
    d="M33.9347 13.7583C33.4042 26.8668 31.0997 40.0469 28.8237 52.9534C27.4302 60.8579 24.3713 97.1829 14.6623 97.2249C8.32725 93.7934 5.33724 58.0014 4.18224 49.5644C2.21224 35.1584 -1.76278 15.6293 0.877216 1.46785C5.80222 -0.0966502 8.51223 -0.00564966 13.7022 0.14035C12.0272 0.37385 10.4772 0.735849 8.82723 1.10135C6.69223 1.15735 3.81223 1.56236 1.63723 1.80286C0.0522261 9.68886 1.00223 21.7583 2.38723 29.6208C5.53723 31.3823 7.95223 41.1594 13.9272 42.8359C23.5802 45.5449 26.3893 34.3224 31.0073 32.4779C31.9593 26.8679 32.9192 20.3499 32.9847 14.6499L33.9347 13.7583Z"
    fill="#E3DDC7"
  />
  <path
    d="M33.9347 13.7583C33.4042 26.8668 31.0997 40.0469 28.8237 52.9534C27.4302 60.8579 24.3713 97.1829 14.6623 97.2249C8.32725 93.7934 5.33724 58.0014 4.18224 49.5644C2.21224 35.1584 -1.76278 15.6293 0.877216 1.46785C5.80222 -0.0966502 8.51223 -0.00564966 13.7022 0.14035C12.0272 0.37385 10.4772 0.735849 8.82723 1.10135C6.69223 1.15735 3.81223 1.56236 1.63723 1.80286C0.0522261 9.68886 1.00223 21.7583 2.38723 29.6208C2.34723 32.7733 4.30223 44.8373 4.86223 48.1833C6.23223 56.4223 9.04724 92.7329 15.1472 96.3804C23.4942 94.3409 29.7338 42.5699 31.0073 32.4779C31.9593 26.8679 32.9192 20.3499 32.9847 14.6499L33.9347 13.7583Z"
    fill="#545257"
  />
  <path
    d="M32.9846 14.6499C33.0176 10.6884 33.1797 6.38389 32.5912 2.49339C23.9732 0.786393 17.6001 1.12689 8.82714 1.10139C10.4771 0.735895 12.0271 0.373896 13.7021 0.140396C19.5181 -0.331104 27.9116 0.414397 33.4976 1.9444C34.0541 6.4939 34.1727 9.21789 33.9347 13.7584L32.9846 14.6499Z"
    fill="#818081"
  />
  <path
    d="M16.4558 32.8053C7.32914 32.8055 5.63502 11 5.63502 11H16.4555H27.2761C27.2761 11 25.5824 32.8052 16.4558 32.8053Z"
    fill="url(#paint0_linear_187_6505)"
    fill-opacity="0.7"
  />
  <path
    d="M5.9939 11.3461C5.9939 11.3461 7.68802 33.1516 16.8147 33.1514C25.9413 33.1512 27.6349 11.3461 27.6349 11.3461"
    stroke="black"
    stroke-width="0.3"
  />
  <path
    d="M9.96537 35.5318C9.96537 35.5318 7.92442 34.5035 7.73395 33.7552C7.54349 33.007 6.59116 29.2657 6.59116 29.2657"
    stroke="black"
    stroke-width="0.4"
  />
  <defs>
    <linearGradient
      id="paint0_linear_187_6505"
      x1="16.4555"
      y1="11"
      x2="16.4555"
      y2="32.8053"
      gradientUnits="userSpaceOnUse"
    >
      <stop stop-color="white" />
      <stop offset="1" stop-color="#E3DDC7" />
    </linearGradient>
  </defs>
</svg>
