<svg
  width="30"
  height="93"
  viewBox="0 0 30 93"
  fill="none"
  xmlns="http://www.w3.org/2000/svg"
>
  <path
    d="M16.0971 92.9275C15.1536 92.599 14.2846 92.2345 13.5521 91.5325C5.7536 84.059 0.475595 24.152 0.104595 11.6935C0.0340952 9.3315 -0.413416 4.123 1.29908 2.371C3.72158 -0.107498 10.1771 0.0905 13.4226 0C18.5171 0.0575 23.5126 0.171492 28.2726 2.17349C28.5721 3.71299 28.8621 5.261 29.0591 6.8175C30.9896 22.0595 26.7561 43.8345 24.5086 59.1345C23.2301 67.8355 22.5046 76.868 19.9386 85.3105C19.0556 88.215 17.9816 90.5265 16.0971 92.9275Z"
    fill="#545257"
  />
  <path
    d="M27.6035 27.1248C27.5635 35.7878 20.3645 86.6943 16.0485 91.0183C15.975 91.0923 15.898 91.1633 15.823 91.2363C8.21052 90.6293 2.149 33.8778 2.1025 25.5388C1.4745 21.2418 -0.0164993 6.94334 1.523 3.47684C5.274 0.156845 23.1365 0.297343 27.0295 2.95284C29.5215 7.26684 27.997 21.5093 27.6035 27.1248Z"
    fill="#E3DDC7"
  />
  <path
    d="M27.6035 27.1247C23.347 29.9812 17.5495 47.0282 8.51552 36.1907C6.52252 33.7992 3.921 26.5042 2.1025 25.5387C1.4745 21.2417 -0.0164993 6.94324 1.523 3.47674C5.274 0.156742 23.1365 0.29724 27.0295 2.95274C29.5215 7.26674 27.997 21.5092 27.6035 27.1247Z"
    fill="#FEFEFE"
  />
</svg>
