<svg
  width="32"
  height="100"
  viewBox="0 0 32 100"
  fill="none"
  xmlns="http://www.w3.org/2000/svg"
>
  <path
    d="M16.5511 0C12.2086 0.0635 7.62613 3.57049 4.62763 6.54449C1.61613 9.53149 0.012124 12.5235 0.000123978 16.827C-0.019376 23.8975 2.27711 30.7535 3.07611 37.739C4.77611 52.598 4.51462 88.764 14.8126 99.091C15.2426 99.0345 15.6746 98.9505 16.0686 98.7585C18.1296 97.7555 19.4456 94.929 20.2311 92.9105C26.4231 76.993 26.2451 54.636 28.5136 37.6455C29.3616 31.2945 31.4821 25.046 31.8116 18.634C31.9426 16.0835 31.8546 13.1865 30.7601 10.8425C28.6401 6.301 21.1196 1.6165 16.5511 0Z"
    fill="#818081"
  />
  <path
    d="M27.9497 33.9767C28.5502 31.2852 29.1262 28.5882 29.6777 25.8862C30.7707 20.4097 31.8052 14.2397 28.4222 9.33124C25.3527 4.87674 19.4562 1.90721 14.2177 0.970215C10.3537 3.46771 5.56722 6.05073 2.93672 9.94373C-1.19128 16.0532 2.04773 26.5962 3.40373 33.2177C5.51073 48.5842 5.12273 87.6037 15.6392 98.5512C25.7362 85.3912 25.3767 50.8207 27.9497 33.9767Z"
    fill="#FEFEFE"
  />
  <path
    d="M27.9497 33.9767C23.9787 36.8292 22.5037 41.9228 17.0047 42.8873C10.3837 44.0493 8.03273 36.2498 3.67173 33.3873C3.58373 33.3293 3.49322 33.2743 3.40372 33.2178C5.51072 48.5843 5.12273 87.6038 15.6392 98.5513C25.7362 85.3913 25.3767 50.8207 27.9497 33.9767Z"
    fill="#E3DDC7"
  />
  <path
    d="M20.7197 21.9412L20.2197 13.4412M20.2197 13.4412C20.2197 13.4412 22.2197 10.9412 23.2197 10.9412C24.2197 10.9412 25.2197 19.4412 25.2197 19.4412M20.2197 13.4412H15.2197H10.7197M5.21969 19.4412C5.21969 19.4412 5.71969 10.4412 6.71969 10.4412C7.71969 10.4412 10.7197 13.4412 10.7197 13.4412M10.7197 13.4412V21.4412"
    stroke="black"
    stroke-width="0.5"
  />
  <path
    d="M10.5674 13.5911V21.0911C10.5674 21.0911 12.2083 28.1398 15.5674 28.0911C18.7696 28.0446 20.5674 21.5911 20.5674 21.5911L20.0674 13.5911"
    fill="url(#paint0_linear_187_6614)"
    fill-opacity="0.59"
  />
  <defs>
    <linearGradient
      id="paint0_linear_187_6614"
      x1="15.5674"
      y1="13.5911"
      x2="15.5674"
      y2="28.5911"
      gradientUnits="userSpaceOnUse"
    >
      <stop offset="0.480597" stop-color="#E3DDC7" />
      <stop offset="1" stop-color="white" stop-opacity="0.780392" />
    </linearGradient>
  </defs>
</svg>
