<svg
  width="31"
  height="96"
  viewBox="0 0 31 96"
  fill="none"
  xmlns="http://www.w3.org/2000/svg"
>
  <path
    d="M16.0473 95.584C15.8203 95.468 15.7198 95.423 15.4903 95.271C11.2913 92.482 9.26333 81.861 8.26333 77.2535C5.31033 63.6455 5.24082 49.8625 3.49932 36.1255C2.66182 29.518 0.278845 22.7975 0.0243454 16.182C-0.0821546 13.4185 0.106849 10.4315 1.69085 8.0685C4.30185 4.171 10.1328 0.827 14.7238 0C15.6388 0.044 16.5318 0.141489 17.4218 0.366989C23.2503 1.84649 27.8128 5.98749 30.8803 11.003C30.9708 12.625 31.0478 14.263 30.9818 15.887C30.7283 22.0835 28.5743 28.2945 27.8278 34.4795C26.2903 47.2185 25.1198 87.19 16.0473 95.584Z"
    fill="#737071"
  />
  <path
    d="M27.1253 30.5855C26.0553 41.2715 23.1503 87.015 16.1718 93.5925C7.65979 90.2895 4.68277 37.8805 3.02927 27.362C0.484272 16.3895 -2.48521 1.18104 17.3373 1.55404C21.7328 1.63654 27.2803 7.15754 29.8668 10.9505C30.2103 18.781 28.8653 22.9945 27.1253 30.5855Z"
    fill="#E3DDC7"
  />
  <path
    d="M27.1253 30.5855C21.7163 33.8665 17.6703 47.478 8.5113 35.101C6.8048 32.7945 5.36827 28.6815 3.02927 27.362C0.484272 16.3895 -2.48521 1.18096 17.3373 1.55396C21.7328 1.63646 27.2803 7.15746 29.8668 10.9505C30.2103 18.781 28.8653 22.9945 27.1253 30.5855Z"
    fill="#FEFEFE"
  />
</svg>
