<svg
  width="38"
  height="93"
  viewBox="0 0 38 93"
  fill="none"
  xmlns="http://www.w3.org/2000/svg"
>
  <path
    d="M18.6678 92.4821C17.9598 92.3821 17.2883 92.0635 16.6248 91.8065C10.5508 84.204 8.38384 43.7641 5.92334 31.5371C4.55334 24.7266 0.742345 18.0526 0.0743446 11.1946C-0.141655 8.98156 0.0408436 5.33356 1.61084 3.57806C4.65034 0.179056 14.0868 0.376553 18.4043 5.34058e-05C23.3308 0.297553 30.9473 -0.143942 35.0918 2.77006C36.4188 3.70256 37.0978 5.04305 37.3663 6.61755C38.7053 14.4725 33.7128 23.213 32.2048 30.803C28.9533 47.1685 27.6813 79.5101 18.6678 92.4821Z"
    fill="#818081"
  />
  <path
    d="M31.5883 27.4696C29.9063 39.5646 24.3223 83.0736 18.2333 90.8701L17.3758 91.0316C12.6393 87.6541 8.51932 36.1631 5.69482 26.1846C3.22832 19.0286 0.765336 14.4636 1.01984 6.77061C2.89284 1.93761 8.03084 1.35111 12.5913 2.43911C16.3633 1.20161 19.4138 0.317121 23.3948 1.91912C27.7393 1.12212 35.2953 1.46212 36.5383 6.73562C36.1908 14.6106 34.1483 20.0851 31.5883 27.4696Z"
    fill="#FEFEFE"
  />
  <path
    d="M31.5884 27.4696C29.9064 39.5646 24.3224 83.0736 18.2334 90.8701L17.3759 91.0316C12.6394 87.6541 8.51939 36.1631 5.69489 26.1846C11.3569 28.8786 13.3249 40.5911 23.6709 34.5301C27.3109 32.3971 28.6044 28.3536 31.5884 27.4696Z"
    fill="#E3DDC7"
  />
  <path
    d="M36.5383 6.73547C31.4108 6.41997 27.6008 4.83548 23.3948 1.91898C27.7393 1.12198 35.2953 1.46197 36.5383 6.73547Z"
    fill="#B7B2AB"
  />
  <path
    d="M1.01981 6.77063C2.89281 1.93763 8.03081 1.35113 12.5913 2.43913C9.46581 4.38013 4.63781 5.67863 1.01981 6.77063Z"
    fill="#C1BCB7"
  />
</svg>
