<svg
  width="38"
  height="94"
  viewBox="0 0 38 94"
  fill="none"
  xmlns="http://www.w3.org/2000/svg"
>
  <path
    d="M21.0509 93.2762C20.3229 93.0517 19.5614 92.7707 18.9554 92.2957C12.0409 86.8782 10.1099 60.1112 8.82187 51.2172C7.89537 44.8162 6.80736 38.4402 5.55886 32.0947C4.15336 25.2687 0.971863 18.7172 0.151363 11.8192C-0.136637 9.39874 -0.165625 6.25875 1.46988 4.26275C4.35688 0.740249 10.9809 0.387241 15.1674 0.0482407C21.0414 -0.175259 29.0999 0.283737 34.2189 3.46374C35.7164 4.39374 36.6029 5.64824 36.9699 7.37374C38.5374 14.7512 32.6414 24.6687 31.3459 32.0567C28.8499 46.2917 28.3919 82.3967 21.0509 93.2762Z"
    fill="#737071"
  />
  <path
    d="M30.9194 27.9698C29.5294 37.0943 24.9824 87.4813 20.5854 91.5673C13.7209 89.2098 10.8894 58.7293 9.82192 51.4663C8.69542 43.5193 7.30342 35.6128 5.64742 27.7593C4.35142 22.7418 -2.59358 7.37426 3.26192 3.73626C9.84142 -0.351241 29.9399 -0.249743 35.2674 5.82426C38.3864 9.38076 32.1684 23.3528 30.9194 27.9698Z"
    fill="#FEFEFE"
  />
  <path
    d="M30.9194 27.9698C29.5294 37.0943 24.9824 87.4813 20.5854 91.5673C13.7209 89.2098 10.8894 58.7293 9.82193 51.4663C8.69543 43.5193 7.30343 35.6128 5.64743 27.7593C8.73193 28.7743 12.1524 36.6668 17.5484 36.8473C24.5389 37.0813 26.3969 31.5258 30.6254 28.1973L30.9194 27.9698Z"
    fill="#E3DDC7"
  />
</svg>
