<svg
  width="50"
  height="91"
  viewBox="0 0 50 91"
  fill="none"
  xmlns="http://www.w3.org/2000/svg"
>
  <path
    d="M2.29675 86.1334C3.39325 87.8914 5.04025 89.5004 7.08725 90.0384C12.6897 91.5109 18.6252 88.4829 24.2782 88.3309C29.2462 88.1969 33.9733 90.6799 39.0323 90.4309C41.4373 90.3124 43.1863 89.7849 45.2493 88.5514C45.8388 88.0769 46.5573 87.6094 46.9153 86.9339C50.2653 82.0819 50.0237 75.1339 49.0202 69.5669C47.6842 62.1524 43.4732 55.4669 42.3802 48.0714C40.7152 36.8044 47.5883 10.1479 35.8703 1.86293C34.8948 1.17343 33.7472 0.80942 32.6127 0.47142C31.3942 0.93792 31.0437 1.45594 30.5332 2.67244C28.0307 8.63644 29.8017 30.0984 25.5782 33.1579C19.0137 26.4589 23.8988 -0.172069 16.4328 0.000930786C14.6918 0.0409308 12.5343 1.86493 11.4323 3.07393C1.05375 14.4629 7.76475 33.9924 5.84425 47.5744C4.40125 57.7799 -0.605756 67.0929 0.060744 77.6254C0.218744 80.1264 0.804252 82.5379 1.58125 84.9149L2.29675 86.1334Z"
    fill="#E3DDC7"
  />
  <path
    d="M2.29668 86.1334C3.39318 87.8914 5.04017 89.5004 7.08717 90.0384C12.6897 91.5109 18.6252 88.4829 24.2782 88.3309C29.2462 88.1969 33.9732 90.6799 39.0322 90.4309C41.4372 90.3124 43.1862 89.7849 45.2492 88.5514C45.8387 88.0769 46.5572 87.6094 46.9152 86.9339L46.7627 84.5664C49.7852 79.2774 48.7127 71.5704 47.2002 65.9504C46.8087 64.5489 46.3582 63.1644 45.8507 61.8004C45.7582 61.7659 45.6662 61.7304 45.5732 61.6974C42.6777 60.6644 40.6957 58.1904 38.1812 56.5149C35.8272 54.9464 32.3207 53.8244 29.5657 53.1889C16.9362 50.2749 13.1147 55.9144 3.79117 61.6409L3.45618 61.8444C1.47318 68.0129 -0.139331 75.2424 2.07817 81.5644L1.58118 84.9149L2.29668 86.1334Z"
    fill="#FEFEFE"
  />
  <path
    d="M2.2968 86.1334C3.3933 87.8914 5.0403 89.5004 7.0873 90.0384C12.6898 91.5109 18.6253 88.4829 24.2783 88.3309C29.2463 88.1969 33.9733 90.6799 39.0323 90.4309C41.4373 90.3124 43.1863 89.7849 45.2493 88.5514C45.8388 88.0769 46.5573 87.6094 46.9153 86.9339L46.7628 84.5664C45.0953 85.9684 43.5248 86.8859 41.2678 86.7024C38.2228 86.4549 35.3163 84.2854 32.8123 82.6519C29.9713 83.5074 27.1098 84.4949 24.2288 85.1939C21.9798 83.2879 20.0083 81.2044 18.0158 79.0359C15.6603 81.7434 12.6463 86.0009 8.6933 86.2154C6.9153 86.3114 5.3833 85.3759 4.1153 84.2154C3.2938 83.4634 2.67429 82.4989 2.07829 81.5644L1.5813 84.9149L2.2968 86.1334Z"
    fill="#C1BCB7"
  />
  <path
    d="M2.29688 86.1334C3.39338 87.8914 5.04037 89.5004 7.08737 90.0384C12.6899 91.5109 18.6254 88.4829 24.2784 88.3309C29.2464 88.1969 33.9734 90.6799 39.0324 90.4309C41.4374 90.3124 43.1864 89.7849 45.2494 88.5514C36.5519 90.0119 31.7814 87.3039 23.8419 87.3519C18.1009 87.3869 12.6414 89.2264 6.77937 89.1574L6.58388 89.1534C5.17188 88.1499 3.77038 87.0379 2.29688 86.1334Z"
    fill="#737071"
  />
  <path
    d="M46.7628 84.5663L46.9153 86.9338C50.2653 82.0818 50.0237 75.1339 49.0202 69.5669C47.6842 62.1524 43.4732 55.4669 42.3802 48.0714C40.7152 36.8043 47.5883 10.1479 35.8703 1.86285C34.8948 1.17335 33.7472 0.809344 32.6127 0.471344C31.3942 0.937844 31.0437 1.45586 30.5332 2.67236C28.0307 8.63636 29.8017 30.0983 25.5782 33.1578C19.0137 26.4588 23.8988 -0.172146 16.4328 0.000854492C14.6918 0.0408545 12.5343 1.86485 11.4323 3.07385C1.05375 14.4629 7.76475 33.9923 5.84425 47.5743C4.40125 57.7798 -0.605756 67.0928 0.060744 77.6253C0.218744 80.1263 0.804252 82.5379 1.58125 84.9149L2.07825 81.5644C-0.139254 75.2424 1.47325 68.0129 3.45625 61.8444C4.97075 56.1934 6.77826 50.5139 7.17226 44.6479C7.84226 34.6714 3.47776 7.96586 13.8578 1.69186C15.1893 0.887364 16.4092 0.810851 17.9052 1.09085C21.8257 5.89085 18.8017 28.8868 24.7847 34.3438C25.7962 34.3928 25.9997 34.4739 26.8007 33.7574C32.0827 29.0319 27.7762 4.18534 32.8932 1.61734C34.6222 1.82934 35.7467 3.09036 36.7737 4.39636C46.4367 16.6799 39.9177 33.0013 41.3262 46.9398C41.8542 52.1673 44.0613 56.9269 45.8508 61.8004C46.3583 63.1644 46.8088 64.5488 47.2003 65.9503C48.7128 71.5703 49.7853 79.2773 46.7628 84.5663Z"
    fill="#737071"
  />
</svg>
