<svg
  width="50"
  height="91"
  viewBox="0 0 50 91"
  fill="none"
  xmlns="http://www.w3.org/2000/svg"
>
  <path
    d="M25.504 83.5701C25.234 83.3946 24.632 82.9021 24.4785 82.6366C23.8035 81.4696 23.7875 77.6796 23.568 76.0881C22.7685 70.2896 21.911 64.6146 20.096 59.0231C20.974 55.8771 22.3655 50.3346 25.203 48.4596C27.3065 51.5256 28.8335 55.7206 29.8055 59.2991C32.1345 67.8761 29.8095 75.9856 25.504 83.5701Z"
    fill="#B7B2AB"
  />
  <path
    d="M47.7297 6.13088C52.7762 22.0514 44.6917 30.2729 43.2472 43.7324C41.7917 57.2879 46.2502 72.4269 38.9677 86.5774C38.3087 87.8574 37.7292 88.8334 36.3012 89.2654C31.7727 87.0854 34.0537 76.0379 32.0512 72.2864C29.9052 73.8059 28.9752 82.5334 25.4472 84.5884L24.5612 84.1699C22.5022 80.7759 21.9442 70.1554 20.7957 64.9369L19.8797 61.4549L19.3667 61.3049L18.5452 63.4309C15.6417 73.7944 14.9147 80.0779 13.5577 90.6194C6.47771 82.2289 5.5502 65.7649 7.5992 55.4909C11.2232 37.3179 -1.00029 28.7279 0.0662079 11.8424C1.12771 -4.96461 15.8667 1.49189 26.4487 2.13889C31.1742 2.30039 40.6832 -2.49112 44.6537 1.77088C46.3667 2.92088 46.8392 4.28438 47.7297 6.13088Z"
    fill="#E3DDC7"
  />
  <path
    d="M45.3597 30.811C42.4167 32.0445 41.4762 32.9325 38.8197 34.296C32.2607 37.6615 23.8387 39.367 16.7162 36.881C12.9872 35.5795 7.38923 30.062 4.31073 29.221C1.20673 21.5325 -1.40027 11.111 4.26823 3.92897C9.53223 -1.73603 19.2352 3.27447 26.1212 3.19897C33.1437 3.12197 37.3097 -0.905027 44.0917 1.91047L44.6537 1.77096C46.3667 2.92096 46.8392 4.28446 47.7297 6.13096L46.8567 8.70247C49.5542 16.841 47.7072 22.8925 45.3597 30.811Z"
    fill="#FEFEFE"
  />
  <path
    d="M32.008 10.9866C29.8305 8.83607 27.5945 6.48557 25.151 4.66757C22.9065 5.64107 19.2875 7.31807 17.069 8.01057C11.3565 3.84007 11.116 3.15208 4.26803 3.92908C9.53203 -1.73592 19.235 3.27458 26.121 3.19908C33.1435 3.12208 37.3095 -0.904917 44.0915 1.91058L44.6535 1.77107C46.3665 2.92107 46.839 4.28457 47.7295 6.13107L46.8565 8.70258C41.5265 -0.123924 36.405 5.18407 32.008 10.9866Z"
    fill="#C1BCB7"
  />
  <path
    d="M47.7297 6.13088C52.7762 22.0514 44.6917 30.2729 43.2472 43.7324C41.7917 57.2879 46.2502 72.4269 38.9677 86.5774C38.3087 87.8574 37.7292 88.8334 36.3012 89.2654C31.7727 87.0854 34.0537 76.0379 32.0512 72.2864C29.9052 73.8059 28.9752 82.5334 25.4472 84.5884L24.5612 84.1699C22.5022 80.7759 21.9442 70.1554 20.7957 64.9369L19.8797 61.4549L19.3667 61.3049L18.5452 63.4309C15.6417 73.7944 14.9147 80.0779 13.5577 90.6194C6.47771 82.2289 5.5502 65.7649 7.5992 55.4909C11.2232 37.3179 -1.00029 28.7279 0.0662079 11.8424C1.12771 -4.96461 15.8667 1.49189 26.4487 2.13889C31.1742 2.30039 40.6832 -2.49112 44.6537 1.77088L44.0917 1.91039C37.3097 -0.905107 33.1437 3.12189 26.1212 3.19889C19.2352 3.27439 9.5322 -1.73611 4.2682 3.92889C-1.4003 11.1109 1.2067 21.5324 4.3107 29.2209C7.8162 40.6309 10.5217 41.0889 8.6772 54.5529C7.0037 66.7724 7.4932 77.7799 12.8367 89.0904C12.9492 87.3784 13.0757 85.6669 13.2162 83.9569C13.8727 76.5429 18.9832 52.4309 23.9302 48.2749C32.1242 46.7094 34.6027 83.6364 35.7172 89.9349C44.7097 73.4074 41.4607 63.6449 41.9902 45.9709C42.1252 41.4679 44.0132 35.2119 45.3597 30.8109C47.7072 22.8924 49.5542 16.8409 46.8567 8.70238L47.7297 6.13088Z"
    fill="#737071"
  />
  <path
    d="M20.7957 64.937C18.9557 64.4995 19.5452 64.9165 18.5452 63.431L19.3667 61.305L19.8797 61.455L20.7957 64.937Z"
    fill="#C1BCB7"
    fill-opacity="0.0117647"
  />
</svg>
