<svg
  width="50"
  height="92"
  viewBox="0 0 50 92"
  fill="none"
  xmlns="http://www.w3.org/2000/svg"
>
  <path
    d="M39.5202 0.00326538C58.4347 2.14427 45.1622 34.8818 43.4177 45.1723C42.1897 52.4183 45.2822 87.0958 36.3627 89.4493C31.6322 86.6733 32.2397 52.9173 25.1447 49.4233C18.1012 50.7833 18.5197 89.3928 15.9522 91.8018C13.0112 91.1303 11.8377 87.0468 10.9037 84.4173C8.2637 76.2988 6.9302 64.4868 8.3302 55.9978C10.9027 40.4033 1.0282 32.4973 0.108704 17.9018C-1.1523 -2.12024 8.6712 -0.233244 23.9277 2.06876C24.9167 2.21826 33.0262 0.495765 35.6092 0.358765C37.3087 0.0102646 37.7802 -0.0112346 39.5202 0.00326538Z"
    fill="#FEFEFE"
  />
  <path
    d="M39.5202 0.00326538C58.4347 2.14427 45.1622 34.8818 43.4177 45.1723C42.1897 52.4183 45.2822 87.0958 36.3627 89.4493C31.6322 86.6733 32.2397 52.9173 25.1447 49.4233C18.1012 50.7833 18.5197 89.3928 15.9522 91.8018C13.0112 91.1303 11.8377 87.0468 10.9037 84.4173C8.2637 76.2988 6.9302 64.4868 8.3302 55.9978C10.9027 40.4033 1.0282 32.4973 0.108704 17.9018C-1.1523 -2.12024 8.6712 -0.233244 23.9277 2.06876C24.9167 2.21826 33.0262 0.495765 35.6092 0.358765C28.6402 5.18776 17.1097 1.68477 10.2977 2.00327C-3.0078 1.27477 0.966691 21.3773 3.65869 28.9273C5.73219 29.1128 10.9452 34.4988 14.3297 36.2728C20.5232 39.5853 30.1852 39.0988 36.5142 36.3578C39.4792 35.0733 42.6007 30.9588 46.0462 30.1583C48.6427 21.5223 50.8197 11.2588 44.1327 3.75076C42.4402 2.15626 41.3857 1.36227 39.5202 0.00326538Z"
    fill="#E3DDC7"
  />
  <path
    d="M39.5202 0.00326538C58.4347 2.14427 45.1622 34.8818 43.4177 45.1723C42.1897 52.4183 45.2822 87.0958 36.3627 89.4493C31.6322 86.6733 32.2397 52.9173 25.1447 49.4233C18.1012 50.7833 18.5197 89.3928 15.9522 91.8018C13.0112 91.1303 11.8377 87.0468 10.9037 84.4173C8.2637 76.2988 6.9302 64.4868 8.3302 55.9978C10.9027 40.4033 1.0282 32.4973 0.108704 17.9018C-1.1523 -2.12024 8.6712 -0.233244 23.9277 2.06876C24.9167 2.21826 33.0262 0.495765 35.6092 0.358765C28.6402 5.18776 17.1097 1.68477 10.2977 2.00327C-3.0078 1.27477 0.966691 21.3773 3.65869 28.9273C4.95569 33.9233 8.8487 39.4888 9.2442 44.8873C9.8627 53.3328 6.6392 85.9758 15.7802 90.0568C16.8237 86.9938 16.7622 69.5223 18.2367 64.9893C19.8437 60.0483 19.8682 50.6158 24.2077 47.7603C32.9292 47.5113 32.5512 85.1073 36.7617 87.5788C43.2137 82.5568 41.7162 53.7393 42.5202 45.1653C43.0562 39.4473 44.2992 35.5588 46.0462 30.1583C48.6427 21.5223 50.8197 11.2588 44.1327 3.75076C42.4402 2.15626 41.3857 1.36227 39.5202 0.00326538Z"
    fill="#818081"
  />
  <path
    d="M23.8248 9.35791C19.8878 6.82941 14.6973 3.25842 10.2978 2.00342C17.1098 1.68492 28.6403 5.18792 35.6093 0.358917C37.3088 0.0104172 37.7803 -0.011082 39.5203 0.00341797C41.3858 1.36242 42.4403 2.15642 44.1328 3.75092C37.7343 2.36492 34.1978 2.58491 28.4658 6.26941C26.9108 7.28691 25.3638 8.31641 23.8248 9.35791Z"
    fill="#B7B2AB"
  />
</svg>
