<svg
  width="49"
  height="94"
  viewBox="0 0 49 94"
  fill="none"
  xmlns="http://www.w3.org/2000/svg"
>
  <path
    d="M22.7769 83.8978C22.3189 83.5573 21.9194 83.1023 21.5119 82.7018C20.1189 78.4688 17.2064 66.0508 18.2204 61.9513C19.2914 57.6193 21.2844 53.4378 23.7739 49.7388C24.0484 49.4978 24.4029 49.4858 24.7529 49.4073C25.1364 49.7723 25.4899 50.1693 25.7329 50.6438C26.5444 52.2303 27.3574 54.3778 27.4929 56.1518C27.9894 62.6613 24.6809 77.4458 22.7769 83.8978Z"
    fill="#B7B2AB"
  />
  <path
    d="M47.6514 8.95966C50.2837 20.0592 43.7155 32.8612 42.178 43.6497C40.9995 51.9222 44.3315 91.9622 33.153 93.0922C31.1945 91.1687 31.465 68.9602 29.767 65.0987C29.5295 64.5592 28.923 62.1747 28.6515 61.3762C27.3175 65.9692 25.16 83.6102 22.7305 85.3932C19.62 83.7157 18.4265 72.3792 17.885 68.8407C17.6395 68.2017 17.259 67.4722 16.9525 66.8442L16.4035 66.9972L15.557 69.5747C14.6415 73.8002 13.535 84.1027 11.3835 86.8817L10.5145 87.0667C1.5985 79.7062 8.295 52.5577 7.1375 42.7732C5.947 32.7062 0.345 25.4577 0 14.5102C0.268 8.53715 0.104501 5.93267 4.624 1.55067C13.4325 -1.20033 14.864 1.54967 22.8505 1.41467C30.2175 1.29017 47.2336 -4.70284 47.6514 8.95966Z"
    fill="#E3DDC7"
  />
  <path
    d="M44.2785 29.8576C34.989 35.6941 32.582 40.0866 18.956 37.8996C11.945 36.7746 7.46253 31.0211 4.44553 30.0541C2.79153 25.2671 1.04603 20.6211 1.15703 15.4746L3.43323e-05 14.5101C0.268034 8.53713 0.104535 5.93264 4.62403 1.55064C13.4325 -1.20036 14.864 1.54964 22.8505 1.41464C30.2175 1.29014 47.2337 -4.70286 47.6514 8.95964L47.1515 14.5151C46.7385 21.1021 46.193 23.4901 44.2785 29.8576Z"
    fill="#FEFEFE"
  />
  <path
    d="M1.15703 15.475L3.43323e-05 14.5105C0.268034 8.53747 0.104535 5.93298 4.62403 1.55098C13.4325 -1.20002 14.864 1.54998 22.8505 1.41498C30.2175 1.29048 47.2337 -4.70252 47.6514 8.95998L47.1515 14.5155C46.647 10.934 46.244 7.61047 42.996 5.26497C41.7625 4.35947 40.2075 4.00797 38.7045 4.29497C34.817 5.00797 32.4945 8.32097 30.357 11.2755C24.3625 2.05647 22.4075 4.14697 13.352 7.96597C4.29853 5.94647 1.15603 5.10848 1.15703 15.475Z"
    fill="#C1BCB7"
  />
  <path
    d="M47.6514 8.95966C50.2837 20.0592 43.7155 32.8612 42.178 43.6497C40.9995 51.9222 44.3315 91.9622 33.153 93.0922C31.1945 91.1687 31.465 68.9602 29.767 65.0987C29.5295 64.5592 28.923 62.1747 28.6515 61.3762C27.3175 65.9692 25.16 83.6102 22.7305 85.3932C19.62 83.7157 18.4265 72.3792 17.885 68.8407C17.6395 68.2017 17.259 67.4722 16.9525 66.8442L16.4035 66.9972L15.557 69.5747C14.6415 73.8002 13.535 84.1027 11.3835 86.8817L10.5145 87.0667C1.5985 79.7062 8.295 52.5577 7.1375 42.7732C5.947 32.7062 0.345 25.4577 0 14.5102L1.157 15.4747C1.046 20.6212 2.7915 25.2672 4.4455 30.0542C5.3865 33.9932 7.7915 37.9012 8.133 42.5302C8.466 47.0477 8.103 50.8002 7.577 55.2972C6.064 68.2372 5.97 75.6357 11.1345 87.5857C11.8195 79.8687 17.5975 50.5302 24.612 48.6912C31.412 50.8397 32.781 85.5177 33.4775 93.0062C43.512 79.6767 39.855 61.7072 40.764 46.3192C41.029 41.8257 43.125 34.4222 44.2785 29.8577C46.193 23.4902 46.7385 21.1022 47.1514 14.5152L47.6514 8.95966Z"
    fill="#737071"
  />
  <path
    d="M17.8848 68.8408C17.2743 69.1328 16.2378 69.3813 15.5568 69.5748L16.4033 66.9973L16.9523 66.8443C17.2588 67.4723 17.6393 68.2018 17.8848 68.8408Z"
    fill="#E3DDC7"
    fill-opacity="0.0156863"
  />
</svg>
