<svg
  width="41"
  height="95"
  viewBox="0 0 41 95"
  fill="none"
  xmlns="http://www.w3.org/2000/svg"
>
  <path
    d="M6.12731 91.7466C15.2358 94.5681 27.2408 95.8795 36.0498 91.259C37.5638 90.465 39.2158 89.2121 39.7358 87.5071C40.9848 83.4126 39.4098 76.575 38.2543 72.539C36.1713 65.642 34.2533 58.455 33.2333 51.315C31.3868 38.3935 30.9738 25.0846 27.5198 12.4396C26.6098 9.10905 24.7308 2.06053 21.4213 0.40403C20.4608 -0.0764702 19.5383 -0.118953 18.5248 0.227547C16.7813 0.823547 15.4798 3.11355 14.7318 4.65955C8.50434 17.5261 8.01433 44.7896 5.20933 59.9501C3.98933 66.5421 1.19332 72.8901 0.309319 79.5266C-0.0281808 82.0586 -0.281173 85.2175 0.620827 87.642C1.47233 89.9305 4.07531 90.8486 6.12731 91.7466Z"
    fill="#E3DDC7"
  />
  <path
    d="M6.12726 91.7466C15.2358 94.5681 27.2408 95.8795 36.0498 91.259C37.5638 90.465 39.2158 89.2121 39.7358 87.5071C40.9848 83.4126 39.4098 76.575 38.2543 72.539L37.5813 73.4016C36.9198 71.1826 35.7663 68.444 35.5178 66.172C31.8163 65.0865 27.7893 59.158 23.8073 56.7705C18.4628 56.474 15.2688 56.7541 11.1168 60.4511C9.23926 62.1231 7.35677 64.7196 5.11577 65.8286C3.61877 71.9061 -1.08473 81.4956 1.87677 87.5776C2.92527 89.7311 4.69529 90.2606 6.83579 91.0396L6.12726 91.7466Z"
    fill="#FEFEFE"
  />
  <path
    d="M6.12744 91.7466C15.2359 94.5681 27.241 95.8795 36.05 91.259C37.564 90.465 39.216 89.2121 39.736 87.5071C40.985 83.4126 39.41 76.575 38.2545 72.539L37.5815 73.4016C38.745 77.2466 40.056 83.511 38.7475 87.37C38.251 88.8335 37.201 89.6791 35.857 90.3576C27.9035 94.3721 15.125 93.6451 6.83597 91.0396L6.12744 91.7466Z"
    fill="#2B262E"
  />
  <path
    d="M6.12731 91.7463L6.83584 91.0393C4.69534 90.2603 2.92532 89.7308 1.87682 87.5773C-1.08468 81.4953 3.61882 71.9058 5.11582 65.8283C8.36882 48.3208 9.09332 30.3348 13.1048 12.9703C13.9938 9.12184 15.1153 3.54584 18.6773 1.31434C19.7848 1.21684 20.2113 1.08383 21.2053 1.65583C28.6773 5.95533 31.1153 42.6558 32.4893 52.1713C33.1758 56.9268 34.2108 61.5498 35.5178 66.1718C35.7663 68.4438 36.9198 71.1823 37.5813 73.4013L38.2543 72.5388C36.1713 65.6418 34.2533 58.4548 33.2333 51.3148C31.3868 38.3933 30.9738 25.0843 27.5198 12.4393C26.6098 9.10884 24.7308 2.06032 21.4213 0.403816C20.4608 -0.0766838 19.5383 -0.119167 18.5248 0.227333C16.7813 0.823333 15.4798 3.11334 14.7318 4.65934C8.50434 17.5258 8.01433 44.7893 5.20933 59.9498C3.98933 66.5418 1.19332 72.8898 0.309319 79.5263C-0.0281808 82.0583 -0.281173 85.2173 0.620827 87.6418C1.47233 89.9303 4.07531 90.8483 6.12731 91.7463Z"
    fill="#737071"
  />
</svg>
