<svg
  width="39"
  height="96"
  viewBox="0 0 39 96"
  fill="none"
  xmlns="http://www.w3.org/2000/svg"
>
  <path
    d="M0.527787 90.3055C1.10379 90.931 1.72129 91.6005 2.43779 92.066C5.82929 94.2695 18.2578 95.7381 22.3258 94.8701C26.1443 93.8071 36.0023 94.1345 37.9138 90.587C38.0728 90.2925 38.2118 90.0196 38.3053 89.6996C39.1728 87.0866 38.8023 83.8255 38.4128 81.136C37.3133 73.543 34.1738 66.289 32.9143 58.707C30.8968 46.562 30.5753 34.1075 28.6133 21.923C27.7773 16.73 25.9863 3.69904 21.2718 0.580536C20.5613 0.110536 19.5983 -0.120962 18.7743 0.0635376C17.0733 0.444038 16.2308 1.83856 15.3693 3.22556C9.19678 13.1631 7.6683 45.5441 5.6693 58.3506C4.0978 68.4151 -1.77271 80.1965 0.527787 90.3055Z"
    fill="#E3DDC7"
  />
  <path
    d="M0.527832 90.3055C1.10383 90.931 1.72134 91.6005 2.43784 92.066C5.82934 94.2695 18.2578 95.7381 22.3258 94.8701C26.1443 93.8071 36.0023 94.1345 37.9138 90.587C38.0728 90.2925 38.2118 90.0196 38.3053 89.6996L37.7933 87.0876C37.6698 79.3656 34.6078 73.166 33.4578 65.8055C30.3653 64.7985 27.2393 60.1086 24.8718 57.7766C23.5418 56.4661 22.2323 55.4981 20.2828 55.5706C14.1818 55.7976 9.34485 62.001 5.57785 66.1035C3.50785 71.9455 1.93085 77.5555 1.14835 83.717C0.872846 85.9065 0.709332 88.107 0.527832 90.3055Z"
    fill="#FEFEFE"
  />
  <path
    d="M0.527832 90.3055C1.10383 90.931 1.72134 91.6005 2.43784 92.066C5.82934 94.2695 18.2578 95.7381 22.3258 94.8701L20.8693 93.823C15.2528 94.551 6.99485 90.0095 2.05835 87.403C1.14085 86.3615 1.23685 85.0415 1.14835 83.717C0.872846 85.9065 0.709332 88.107 0.527832 90.3055Z"
    fill="#B7B2AB"
  />
  <path
    d="M22.3259 94.8701C26.1444 93.8071 36.0024 94.1346 37.9139 90.5871C38.0729 90.2926 38.2119 90.0196 38.3054 89.6996L37.7934 87.0876C32.4399 87.6786 25.8464 91.6251 20.8694 93.8231L22.3259 94.8701Z"
    fill="#CCC4BF"
  />
  <path
    d="M0.527787 90.3057C0.709287 88.1072 0.872801 85.9067 1.1483 83.7172C1.9308 77.5557 3.50781 71.9457 5.57781 66.1037C7.77731 53.3427 10.0123 8.45366 18.6238 1.02866C19.5713 0.886656 19.8038 0.728178 20.6238 1.31418C25.3153 4.66868 27.1673 19.0987 27.9888 24.7427C29.9788 38.4112 30.3438 52.3237 33.4578 65.8057C34.6078 73.1662 37.6698 79.3657 37.7933 87.0877L38.3053 89.6997C39.1728 87.0867 38.8023 83.8257 38.4128 81.1362C37.3133 73.5432 34.1738 66.2892 32.9143 58.7072C30.8968 46.5622 30.5753 34.1077 28.6133 21.9232C27.7773 16.7302 25.9863 3.69916 21.2718 0.580658C20.5613 0.110658 19.5983 -0.12084 18.7743 0.0636597C17.0733 0.44416 16.2308 1.83868 15.3693 3.22568C9.19678 13.1632 7.6683 45.5442 5.6693 58.3507C4.0978 68.4152 -1.77271 80.1967 0.527787 90.3057Z"
    fill="#737071"
  />
</svg>
