<svg
  width="32"
  height="100"
  viewBox="0 0 32 100"
  fill="none"
  xmlns="http://www.w3.org/2000/svg"
>
  <path
    d="M15.3068 99.0911C19.6493 99.0276 24.2318 95.5206 27.2303 92.5466C30.2418 89.5596 31.8458 86.5676 31.8578 82.2641C31.8773 75.1936 29.5808 68.3376 28.7818 61.3521C27.0818 46.4931 27.3433 10.3271 17.0453 6.10352e-05C16.6153 0.056561 16.1833 0.14055 15.7893 0.33255C13.7283 1.33555 12.4123 4.16207 11.6268 6.18057C5.43481 22.0981 5.61281 44.4551 3.34431 61.4456C2.49631 67.7966 0.375801 74.0451 0.0463011 80.4571C-0.0846989 83.0076 0.00328422 85.9046 1.09778 88.2486C3.21778 92.7901 10.7383 97.4746 15.3068 99.0911Z"
    fill="#818081"
  />
  <path
    d="M3.9082 65.1143C3.3077 67.8058 2.7317 70.5028 2.1802 73.2048C1.0872 78.6813 0.0526958 84.8513 3.4357 89.7598C6.5052 94.2143 12.4017 97.1838 17.6402 98.1208C21.5042 95.6233 26.2907 93.0403 28.9212 89.1473C33.0492 83.0378 29.8102 72.4948 28.4542 65.8733C26.3472 50.5068 26.7352 11.4873 16.2187 0.539825C6.12169 13.6998 6.4812 48.2703 3.9082 65.1143Z"
    fill="#FEFEFE"
  />
  <path
    d="M3.9082 65.1143C7.8792 62.2618 9.35421 57.1683 14.8532 56.2038C21.4742 55.0418 23.8252 62.8413 28.1862 65.7038C28.2742 65.7618 28.3647 65.8168 28.4542 65.8733C26.3472 50.5068 26.7352 11.4873 16.2187 0.539795C6.12169 13.6998 6.4812 48.2703 3.9082 65.1143Z"
    fill="#E3DDC7"
  />
</svg>
