<svg width="28" height="94" viewBox="0 0 28 94" fill="none" xmlns="http://www.w3.org/2000/svg">
<path d="M2.68862 91.4335C8.39212 92.7115 19.5116 94.8665 24.8081 91.521C26.2891 90.5855 27.4846 88.9721 27.7981 87.2341C28.1711 85.1636 27.7836 82.6655 27.6421 80.5645C26.8841 71.4505 25.5461 62.3905 24.6976 53.284C23.2306 37.5285 23.1641 20.711 17.7766 5.65504C17.0676 3.67454 15.9211 0.953546 13.9116 4.57764e-05L12.6486 0.475052C5.17861 8.36205 3.8201 49.31 2.5591 61.1115C1.7411 68.771 -0.195898 76.6751 0.0161015 84.3851C0.0966015 87.3226 0.528617 89.372 2.68862 91.4335Z" fill="#E3DDC7"/>
<path d="M2.68837 91.4335C8.39187 92.7115 19.5113 94.8665 24.8078 91.521C26.2888 90.5855 27.4844 88.9721 27.7979 87.2341C28.1709 85.1636 27.7834 82.6655 27.6419 80.5645L26.9194 80.8705L24.9634 65.1605C24.8699 65.107 24.7749 65.0555 24.6824 65.0005C21.3279 63.0015 17.8989 53.7986 13.4359 54.8761C8.94587 55.9601 6.21035 61.42 3.43035 64.5865C2.07985 71.355 -0.0776359 80.386 1.34236 87.1775C1.73686 89.062 2.41087 89.7685 3.95937 90.783L2.68837 91.4335Z" fill="#FEFEFE"/>
<path d="M2.68848 91.4335C8.39198 92.7115 19.5115 94.8665 24.808 91.521C26.289 90.5855 27.4845 88.9721 27.798 87.2341C28.171 85.1636 27.7835 82.6655 27.642 80.5645L26.9195 80.8705C26.9715 82.993 27.1955 85.358 26.8925 87.455C26.75 88.4375 26.4799 89.3871 25.6414 89.9841C20.8809 93.3726 9.35347 91.6945 3.95947 90.783L2.68848 91.4335Z" fill="#2B262E"/>
<path d="M2.68862 91.4335L3.95961 90.783C2.41111 89.7685 1.73711 89.062 1.34261 87.1775C-0.0773909 80.386 2.08009 71.355 3.43059 64.5865C3.59709 52.2685 7.04559 11.2985 12.4971 1.875C12.9561 1.082 13.0266 0.90549 13.9511 0.66449C14.1536 0.79599 14.2521 0.852484 14.4496 1.02148C21.4041 6.96848 23.7166 55.0425 24.9636 65.1605L26.9196 80.8705L27.6421 80.5645C26.8841 71.4505 25.5461 62.3905 24.6976 53.284C23.2306 37.5285 23.1641 20.711 17.7766 5.655C17.0676 3.6745 15.9211 0.9535 13.9116 0L12.6486 0.475006C5.17861 8.36201 3.8201 49.31 2.5591 61.1115C1.7411 68.771 -0.195898 76.675 0.0161015 84.385C0.0966015 87.3225 0.528617 89.372 2.68862 91.4335Z" fill="#818081"/>
<path d="M13.9326 64.9047C20.8719 64.9045 22.16 84.0053 22.16 84.0053H13.9328H5.70557C5.70557 84.0053 6.99329 64.9048 13.9326 64.9047Z" fill="url(#paint0_linear_187_6536)" fill-opacity="0.7"/>
<path d="M21.8871 83.7021C21.8871 83.7021 20.599 64.6013 13.6597 64.6015C6.72034 64.6016 5.43262 83.7021 5.43262 83.7021" stroke="black" stroke-width="0.3"/>
<path d="M18.8672 62.5165C18.8672 62.5165 20.419 63.4172 20.5638 64.0727C20.7087 64.7281 21.4328 68.0054 21.4328 68.0054" stroke="black" stroke-width="0.4"/>
<defs>
<linearGradient id="paint0_linear_187_6536" x1="13.9328" y1="84.0053" x2="13.9328" y2="64.9047" gradientUnits="userSpaceOnUse">
<stop stop-color="white"/>
<stop offset="1" stop-color="#E3DDC7"/>
</linearGradient>
</defs>
</svg>
