<svg
  width="28"
  height="94"
  viewBox="0 0 28 94"
  fill="none"
  xmlns="http://www.w3.org/2000/svg"
>
  <path
    d="M2.68862 91.4336C8.39212 92.7116 19.5116 94.8666 24.8081 91.5211C26.2891 90.5856 27.4846 88.9721 27.7981 87.2341C28.1711 85.1636 27.7836 82.6656 27.6421 80.5646C26.8841 71.4506 25.5461 62.3906 24.6976 53.2841C23.2306 37.5286 23.1641 20.7111 17.7766 5.65514C17.0676 3.67464 15.9211 0.953637 13.9116 0.000137329L12.6486 0.475143C5.17861 8.36214 3.8201 49.3101 2.5591 61.1116C1.7411 68.7711 -0.195898 76.6751 0.0161015 84.3851C0.0966015 87.3226 0.528617 89.3721 2.68862 91.4336Z"
    fill="#E3DDC7"
  />
  <path
    d="M2.68862 91.4336C8.39212 92.7116 19.5116 94.8666 24.8081 91.5211C26.2891 90.5856 27.4846 88.9721 27.7981 87.2341C28.1711 85.1636 27.7836 82.6656 27.6421 80.5646L26.9196 80.8706L24.9636 65.1606C24.8701 65.1071 24.7751 65.0556 24.6826 65.0006C21.3281 63.0016 17.8991 53.7986 13.4361 54.8761C8.94611 55.9601 6.21059 61.4201 3.43059 64.5866C2.08009 71.3551 -0.0773918 80.3861 1.34261 87.1776C1.73711 89.0621 2.41111 89.7686 3.95961 90.7831L2.68862 91.4336Z"
    fill="#FEFEFE"
  />
  <path
    d="M2.68872 91.4336C8.39222 92.7116 19.5117 94.8666 24.8082 91.5211C26.2892 90.5856 27.4847 88.9721 27.7982 87.2341C28.1712 85.1636 27.7837 82.6656 27.6422 80.5646L26.9197 80.8706C26.9717 82.9931 27.1957 85.3581 26.8927 87.4551C26.7502 88.4376 26.4802 89.3871 25.6417 89.9841C20.8812 93.3726 9.35372 91.6946 3.95972 90.7831L2.68872 91.4336Z"
    fill="#2B262E"
  />
  <path
    d="M2.68862 91.4336L3.95961 90.7831C2.41111 89.7686 1.73711 89.0621 1.34261 87.1776C-0.0773909 80.3861 2.08009 71.3551 3.43059 64.5866C3.59709 52.2686 7.04559 11.2986 12.4971 1.87509C12.9561 1.08209 13.0266 0.905581 13.9511 0.664581C14.1536 0.796081 14.2521 0.852576 14.4496 1.02158C21.4041 6.96858 23.7166 55.0426 24.9636 65.1606L26.9196 80.8706L27.6421 80.5646C26.8841 71.4506 25.5461 62.3906 24.6976 53.2841C23.2306 37.5286 23.1641 20.7111 17.7766 5.65509C17.0676 3.67459 15.9211 0.953592 13.9116 9.15527e-05L12.6486 0.475098C5.17861 8.3621 3.8201 49.3101 2.5591 61.1116C1.7411 68.7711 -0.195898 76.6751 0.0161015 84.3851C0.0966015 87.3226 0.528617 89.3721 2.68862 91.4336Z"
    fill="#818081"
  />
</svg>
