<svg
  width="27"
  height="92"
  viewBox="0 0 27 92"
  fill="none"
  xmlns="http://www.w3.org/2000/svg"
>
  <path
    d="M12.6734 91.6851C16.9534 91.5821 20.9534 91.4656 24.9984 89.9276C25.1584 89.4866 25.3034 89.046 25.4284 88.5945C28.0684 79.044 22.0084 27.5731 19.3284 15.5271C18.1534 10.2506 16.6934 5.49505 14.0534 0.771545C12.7184 0.107545 12.3784 -0.142929 10.8484 0.079071C10.4584 0.375571 10.1084 0.712559 9.84345 1.12906C6.18645 6.91806 3.40794 31.9206 2.81494 39.7166C2.35194 45.8061 2.38095 51.9286 1.94245 58.0186C1.20045 68.3251 -1.42658 79.5001 1.02042 89.6931C4.89792 91.4046 8.50843 91.5081 12.6734 91.6851Z"
    fill="#818081"
  />
  <path
    d="M1.89946 89.3849C9.20346 90.8569 16.7184 90.8944 24.0384 89.4959C26.4284 83.1834 25.1084 76.1269 24.5484 69.5774C23.5234 57.5034 20.7234 7.90992 12.9284 1.31992C12.5684 1.01542 12.0735 0.986905 11.6185 0.881905C8.09345 3.5999 5.48944 25.6119 4.81144 30.8444C3.34994 42.1219 2.82645 53.7754 2.54545 65.1424C0.804453 72.6559 0.312457 81.8104 1.89946 89.3849Z"
    fill="#E3DDC7"
  />
  <path
    d="M1.89946 89.3849C9.20346 90.8569 16.7184 90.8944 24.0384 89.4959C26.4284 83.1834 25.1084 76.1269 24.5484 69.5774C22.4634 64.8194 19.7934 57.0144 14.5784 55.0809C13.2184 54.5759 11.8084 54.6634 10.5084 55.3069C6.26494 57.4104 5.75795 62.3884 2.54545 65.1424C0.804453 72.6559 0.312457 81.8104 1.89946 89.3849Z"
    fill="#FEFEFE"
  />
  <path
    d="M13.9766 65.0952C20.9159 65.0951 22.204 84.1958 22.204 84.1958H13.9768H5.74951C5.74951 84.1958 7.03723 65.0954 13.9766 65.0952Z"
    fill="url(#paint0_linear_187_6546)"
    fill-opacity="0.7"
  />
  <path
    d="M21.931 83.8926C21.931 83.8926 20.6429 64.7918 13.7036 64.792C6.76428 64.7921 5.47656 83.8926 5.47656 83.8926"
    stroke="black"
    stroke-width="0.3"
  />
  <path
    d="M18.9112 62.707C18.9112 62.707 20.463 63.6078 20.6078 64.2632C20.7526 64.9187 21.4767 68.1959 21.4767 68.1959"
    stroke="black"
    stroke-width="0.4"
  />
  <defs>
    <linearGradient
      id="paint0_linear_187_6546"
      x1="13.9768"
      y1="84.1958"
      x2="13.9768"
      y2="65.0952"
      gradientUnits="userSpaceOnUse"
    >
      <stop stop-color="white" />
      <stop offset="1" stop-color="#E3DDC7" />
    </linearGradient>
  </defs>
</svg>
