<svg
  width="27"
  height="92"
  viewBox="0 0 27 92"
  fill="none"
  xmlns="http://www.w3.org/2000/svg"
>
  <g opacity="0.9">
    <path
      d="M13.4066 91.6851C9.12665 91.5821 5.12663 91.4656 1.08163 89.9276C0.921633 89.4866 0.77664 89.046 0.65164 88.5945C-1.98836 79.044 4.07165 27.5731 6.75165 15.5271C7.92665 10.2506 9.38664 5.49505 12.0266 0.771545C13.3616 0.107545 13.7017 -0.142929 15.2317 0.079071C15.6217 0.375571 15.9716 0.712559 16.2366 1.12906C19.8936 6.91806 22.6721 31.9206 23.2651 39.7166C23.7281 45.8061 23.6991 51.9286 24.1376 58.0186C24.8796 68.3251 27.5067 79.5001 25.0597 89.6931C21.1822 91.4046 17.5716 91.5081 13.4066 91.6851Z"
      fill="#818081"
    />
    <path
      d="M24.1806 89.3849C16.8766 90.8569 9.36165 90.8944 2.04165 89.4959C-0.348355 83.1834 0.971635 76.1269 1.53164 69.5774C2.55664 57.5034 5.35663 7.90992 13.1516 1.31992C13.5116 1.01542 14.0066 0.986905 14.4616 0.881905C17.9866 3.5999 20.5906 25.6119 21.2686 30.8444C22.7301 42.1219 23.2536 53.7754 23.5346 65.1424C25.2756 72.6559 25.7676 81.8104 24.1806 89.3849Z"
      fill="#E3DDC7"
    />
    <path
      d="M24.1806 89.3849C16.8766 90.8569 9.36165 90.8944 2.04165 89.4959C-0.348355 83.1834 0.971635 76.1269 1.53164 69.5774C3.61664 64.8194 6.28664 57.0144 11.5016 55.0809C12.8616 54.5759 14.2716 54.6634 15.5716 55.3069C19.8151 57.4104 20.3221 62.3884 23.5346 65.1424C25.2756 72.6559 25.7676 81.8104 24.1806 89.3849Z"
      fill="#FEFEFE"
    />
    <path
      d="M12.1035 65.0952C5.16419 65.0951 3.87608 84.1958 3.87608 84.1958H12.1033H20.3306C20.3306 84.1958 19.0428 65.0954 12.1035 65.0952Z"
      fill="url(#paint0_linear_187_6577)"
      fill-opacity="0.7"
    />
    <path
      d="M4.14903 83.8926C4.14903 83.8926 5.43713 64.7918 12.3765 64.792C19.3158 64.7921 20.6035 83.8926 20.6035 83.8926"
      stroke="black"
      stroke-width="0.3"
    />
    <path
      d="M7.16891 62.707C7.16891 62.707 5.6171 63.6078 5.47228 64.2632C5.32747 64.9187 4.60338 68.1959 4.60338 68.1959"
      stroke="black"
      stroke-width="0.4"
    />
  </g>
  <defs>
    <linearGradient
      id="paint0_linear_187_6577"
      x1="12.1033"
      y1="84.1958"
      x2="12.1033"
      y2="65.0952"
      gradientUnits="userSpaceOnUse"
    >
      <stop stop-color="white" />
      <stop offset="1" stop-color="#E3DDC7" />
    </linearGradient>
  </defs>
</svg>
