<svg
  width="46"
  height="43"
  viewBox="0 0 46 43"
  fill="none"
  xmlns="http://www.w3.org/2000/svg"
>
  <path
    d="M28.1702 42.6179C28.6777 42.7929 29.0822 42.8514 29.6187 42.8504C33.2437 42.8429 36.6402 41.7914 39.2282 39.1789C43.8357 34.5274 45.3587 28.0789 45.3412 21.7224C45.3247 15.6449 44.0232 8.01742 39.4882 3.60442C34.3132 -1.43158 24.3732 0.22043 17.6967 0.40543C13.3537 0.35743 9.9102 0.603426 6.3942 3.42643C2.4982 6.55443 0.689698 11.7174 0.185198 16.5514C-0.488202 23.0009 0.5892 31.0359 4.8342 36.1744C10.1512 42.6104 20.5232 41.9279 28.1702 42.6179Z"
    fill="#545257"
  />
  <path
    d="M35.2412 1.33555C28.7207 0.705548 10.2927 -0.16995 6.02721 4.91555C-0.839038 12.8196 -0.291888 30.223 7.33921 37.3745C11.2557 41.045 28.6042 41.681 34.1932 41.277C38.9872 38.4345 41.0932 36.0795 43.0142 30.924C45.0472 25.6745 44.5457 18.0391 43.0542 12.6856C41.8647 7.18655 39.5227 4.52655 35.2412 1.33555Z"
    fill="#ADA49D"
  />
  <path
    d="M35.2412 1.33555C28.7207 0.705548 10.2927 -0.16995 6.02721 4.91555C-0.839038 12.8196 -0.291888 30.223 7.33921 37.3745C11.2557 41.045 28.6042 41.681 34.1932 41.277C38.9872 38.4345 41.0932 36.0795 43.0142 30.924C39.8397 33.4245 41.9432 34.9135 36.8962 35.964C33.5677 38.5405 27.6552 40.4541 24.6787 36.3191C23.3452 36.1831 21.4022 36.0471 20.1342 35.8346C16.6967 35.7476 9.89321 34.718 7.66471 31.9405L7.92271 31.1285L7.54421 30.1415C5.32071 28.167 4.99171 26.3561 4.42321 23.4591C3.75321 19.8686 3.97021 18.688 4.42171 15.038L4.81621 14.8285C5.00321 16.577 5.26621 18.1805 5.55371 19.915C5.66021 18.3475 5.55521 16.9646 6.58571 15.8211L7.73921 15.2985L7.32621 13.9045L7.71421 13.4396C9.37071 14.5821 11.1387 16.015 13.0712 16.4255C14.9542 15.92 15.4187 15.5735 15.7982 13.456C16.4742 12.3695 17.1322 11.2725 17.7727 10.1645L18.1367 10.6726C19.0277 9.79205 18.5772 10.0226 19.8587 9.83656C21.4222 9.65806 21.8232 9.98455 23.1672 10.7105C23.5692 9.63405 23.8757 7.71255 24.3057 7.21955L26.5792 7.57905C27.5887 6.65405 28.6812 6.74354 30.0432 6.66454C28.6972 6.20304 27.3552 5.72855 26.0187 5.24105C31.2052 0.377051 40.1767 8.52455 43.0542 12.6856C41.8647 7.18655 39.5227 4.52655 35.2412 1.33555Z"
    fill="#D5CFCC"
  />
  <path
    d="M15.7983 13.4559C16.4743 12.3694 17.1323 11.2724 17.7728 10.1644L18.1368 10.6724C19.0278 9.79191 18.5773 10.0224 19.8588 9.83641C21.4223 9.65791 21.8233 9.9844 23.1673 10.7104C23.5693 9.6339 23.8758 7.71241 24.3058 7.21941C18.7178 4.10491 16.8938 9.3929 15.7983 13.4559Z"
    fill="#CCC4BF"
  />
  <path
    d="M24.6788 36.3189C27.6553 40.4539 33.5678 38.5404 36.8963 35.9639C41.9433 34.9134 39.8398 33.4244 43.0143 30.9239C45.0473 25.6744 44.5458 18.0389 43.0543 12.6854C40.1768 8.52441 31.2053 0.376906 26.0188 5.24091C27.3553 5.72841 28.6973 6.2029 30.0433 6.6644C28.6813 6.7434 27.5888 6.6539 26.5793 7.5789C36.1473 9.1919 40.2278 12.3444 41.3978 22.3984L41.3833 23.0709L40.0163 23.7359L37.3803 23.7919C36.5458 25.2279 38.7303 26.1354 38.7963 29.8189L38.8008 30.2764C33.5693 30.6729 30.6263 29.3339 27.1723 34.8419L26.2403 34.7834L24.8163 34.8404C23.2663 35.9519 22.1938 35.7009 20.1343 35.8344C21.4023 36.0469 23.3453 36.1829 24.6788 36.3189Z"
    fill="#CECAC7"
  />
  <path
    d="M27.1724 34.8419C33.5769 34.8219 41.3579 33.4929 41.2079 25.5594C41.2009 25.2334 41.1889 24.9069 41.1709 24.5814C40.6739 24.1184 40.6319 23.9769 40.0164 23.7359L37.3804 23.7919C36.5459 25.2279 38.7304 26.1354 38.7964 29.8189L38.8009 30.2764C33.5694 30.6729 30.6264 29.3339 27.1724 34.8419Z"
    fill="#EDE5DF"
  />
  <path
    d="M24.6787 36.3189C27.6552 40.4539 33.5677 38.5404 36.8962 35.9639C37.0117 35.1834 37.1157 35.2759 37.6692 34.5529L37.5737 34.2234C30.9892 35.7509 32.7877 36.2919 24.6787 36.3189Z"
    fill="#EDE9E2"
  />
  <path
    d="M7.92284 31.1283C12.0783 33.9533 17.4518 34.8623 22.3918 34.3638L22.5053 33.7593C20.4638 28.6838 22.0203 27.3903 21.2553 22.8553C20.4268 22.4968 19.7618 22.2413 18.9973 21.7523L19.2608 21.8238C19.3603 21.6823 19.5843 21.3788 19.6678 21.2398L19.2688 21.1803L19.6603 21.0848C18.8383 20.4238 17.2773 19.9293 16.2403 19.5308L13.3938 20.1748C11.5928 21.4113 10.7583 21.7303 8.71984 22.5703C7.63834 22.3858 6.78834 22.2683 5.69584 22.1678L4.42334 23.4588C4.99184 26.3558 5.32084 28.1668 7.54434 30.1413L7.92284 31.1283Z"
    fill="#E1DAD2"
  />
  <path
    d="M7.92269 31.1283C12.0782 33.9533 17.4517 34.8623 22.3917 34.3638C19.8027 32.2028 12.2077 30.2293 8.81419 29.5903C8.46519 29.7278 7.82569 29.9463 7.54419 30.1413L7.92269 31.1283Z"
    fill="#EDE9E2"
  />
  <path
    d="M9.90918 26.7289C14.4532 22.7559 15.0847 22.4759 21.2552 22.8554C20.4267 22.4969 19.7617 22.2414 18.9972 21.7524L19.2607 21.8239C19.3602 21.6824 19.5842 21.3789 19.6677 21.2399L19.2687 21.1804L19.6602 21.0849C18.8382 20.4239 17.2772 19.9294 16.2402 19.5309L13.3937 20.1749C11.9902 22.7894 10.9987 23.6234 9.90918 26.7289Z"
    fill="#CCC4BF"
  />
  <path
    d="M8.7197 22.5704L7.6887 24.0554C7.4637 25.6529 7.4627 25.8514 8.1207 27.3604L8.9767 27.6654L9.9092 26.7289C10.9987 23.6234 11.9902 22.7894 13.3937 20.1749C11.5927 21.4114 10.7582 21.7304 8.7197 22.5704Z"
    fill="#B7B2AB"
  />
  <path
    d="M40.5403 22.2123L41.3978 22.3983C40.2278 12.3443 36.1473 9.19178 26.5793 7.57878L24.3058 7.21928C23.8758 7.71228 23.5693 9.63378 23.1673 10.7103C22.8983 12.2698 22.5813 14.8058 23.3663 16.2143C23.9698 17.3093 25.0343 18.0743 26.2648 18.2968C29.4943 18.8908 31.9308 17.1593 34.3038 15.4418L35.4698 14.9433C36.2288 17.4328 38.1748 21.0913 40.5403 22.2123Z"
    fill="#EDE9E2"
  />
  <path
    d="M26.2403 34.7834L27.1723 34.8419C30.6263 29.3339 33.5693 30.6729 38.8008 30.2764C38.0578 28.3334 37.5138 28.4464 36.4718 27.1579C32.5853 22.3519 24.8988 24.3139 25.8378 31.0604C26.0493 32.5784 25.2728 32.9674 26.2403 34.7834Z"
    fill="#E1DAD2"
  />
  <path
    d="M25.2863 21.393C31.6658 21.728 32.7378 21.9 34.3038 15.442C31.9308 17.1595 29.4943 18.891 26.2648 18.297C25.0343 18.0745 23.9698 17.3095 23.3663 16.2145C22.5813 14.806 22.8983 12.27 23.1673 10.7105C21.8233 9.98453 21.4223 9.65804 19.8588 9.83654C20.4858 17.121 17.4513 17.0195 25.2863 21.393Z"
    fill="#C1BCB7"
  />
  <path
    d="M11.5807 18.5589L11.8557 18.5309C14.0802 18.3169 15.3842 18.2769 17.7517 17.9494C19.0712 16.0019 18.1947 13.2309 18.1367 10.6724L17.7727 10.1644C17.1322 11.2724 16.4742 12.3694 15.7982 13.4559C15.4187 15.5734 14.9542 15.9199 13.0712 16.4254C11.1387 16.0149 9.37067 14.5819 7.71417 13.4394L7.32617 13.9044L7.73917 15.2984C9.14367 16.6634 10.0142 17.3739 11.5807 18.5589Z"
    fill="#C1BCB7"
  />
  <path
    d="M22.5052 33.7594L23.7987 33.3289C25.0042 26.6954 25.0052 19.6359 16.6192 19.5294L16.2402 19.5309C17.2772 19.9294 18.8382 20.4239 19.6602 21.0849L19.2687 21.1804L19.6677 21.2399C19.5842 21.3789 19.3602 21.6824 19.2607 21.8239L18.9972 21.7524C19.7617 22.2414 20.4267 22.4969 21.2552 22.8554C22.0202 27.3904 20.4637 28.6839 22.5052 33.7594Z"
    fill="#C1BCB7"
  />
  <path
    d="M5.55371 19.915L5.76671 20.6055C8.11771 21.5835 10.8072 21.3445 11.5807 18.559C10.0142 17.374 9.14371 16.6635 7.73921 15.2985L6.58571 15.821C5.55521 16.9645 5.66021 18.3475 5.55371 19.915Z"
    fill="#CCC4BF"
  />
  <path
    d="M33.5432 21.5242L40.5402 22.2122C38.1747 21.0912 36.2287 17.4328 35.4697 14.9433C35.2387 17.5503 34.5497 19.1972 33.5432 21.5242Z"
    fill="#CCC4BF"
  />
</svg>
