<svg
  width="31"
  height="41"
  viewBox="0 0 31 41"
  fill="none"
  xmlns="http://www.w3.org/2000/svg"
>
  <path
    d="M13.8214 0C10.1424 0.115 4.35839 0.123015 1.38189 2.45901C0.532893 3.12551 0.238902 4.13151 0.122402 5.16901C-0.794098 13.346 3.5679 31.351 8.7994 37.6295C10.7774 40.0035 12.7799 40.4755 15.7574 40.741C17.2524 40.389 18.5009 39.9875 19.6879 38.974C26.0849 33.5085 29.6714 17.9375 30.1734 9.93301C30.3004 7.90301 30.2314 5.09002 28.7539 3.49802C25.7154 0.223516 18.0044 0.18 13.8214 0Z"
    fill="#545257"
  />
  <path
    d="M25.2719 26.1205C26.9774 20.8965 30.8374 10.621 28.2659 5.53951C27.3249 3.68051 25.5185 2.65151 23.5815 2.07601C17.0305 0.130012 7.34695 1.37149 0.882454 3.23299C1.10545 11.8625 2.45445 21.5695 5.61845 29.6475C6.18045 31.5045 6.84945 33.3205 7.78645 35.025C8.84545 36.9525 10.5589 38.7775 12.7394 39.377C14.5349 39.871 16.352 39.4605 17.9435 38.555C22.416 36.0105 23.9949 30.7425 25.2719 26.1205Z"
    fill="#E9E6DF"
  />
  <path
    d="M25.272 26.1204L24.891 26.3614C21.195 28.7459 19.2995 38.1234 14.168 37.1774C10.012 36.4114 8.94154 31.5959 5.61854 29.6474C6.18054 31.5044 6.84954 33.3204 7.78654 35.0249C8.84554 36.9524 10.559 38.7774 12.7395 39.3769C14.535 39.8709 16.3521 39.4604 17.9436 38.5549C22.416 36.0104 23.995 30.7424 25.272 26.1204Z"
    fill="#EDE5DF"
  />
</svg>
