<svg
  width="36"
  height="41"
  viewBox="0 0 36 41"
  fill="none"
  xmlns="http://www.w3.org/2000/svg"
>
  <path
    d="M19.4353 40.7197C16.5506 40.8397 12.4813 39.5747 10.2218 37.7653C9.20746 36.953 7.94791 35.7459 7.13276 34.731C6.77698 34.3004 6.48111 33.7814 6.13749 33.3492C4.80358 31.6716 3.74089 29.8784 2.77386 27.9775C2.3654 27.1747 1.75744 26.2488 1.4344 25.4042C0.787445 23.7129 0.341517 21.8601 0.106375 20.0683C4.84447e-05 19.2234 -0.0679495 17.5928 0.108527 16.7786C0.497321 14.9847 1.98728 13.1763 3.28726 11.8939C4.18132 11.0119 4.96216 10.3149 5.69788 9.27279C6.25956 8.52809 6.5125 7.64117 6.93704 6.82768C8.81981 3.22039 11.5305 0.46364 15.8055 0.00145007C18.6077 -0.0556798 21.8073 1.65587 23.851 3.46296C25.2136 4.66737 26.2639 6.21573 27.4982 7.50612L31.2194 11.3389C31.5884 11.725 31.97 12.0978 32.3362 12.4875C34.2027 14.4736 35.2445 16.8002 35.345 19.5068C35.3897 20.9595 35.2308 22.4114 34.8727 23.8219C34.4712 25.3409 33.6028 27.1759 32.9276 28.6097C32.0765 30.417 31.1347 32.3384 30.0163 34.001C29.289 35.0824 28.3733 35.9617 27.5129 36.9179C25.4215 39.242 22.6354 40.6076 19.4353 40.7197Z"
    fill="black"
  />
  <path
    d="M19.4174 40.1599C18.7647 40.2356 17.7746 40.0458 17.1225 39.9315C14.8138 39.5268 12.3914 38.6407 10.5677 37.1669C9.52535 36.21 8.34092 35.1803 7.50869 34.0376C6.61262 32.8071 5.64922 31.4794 4.82943 30.2003C4.36441 29.4747 3.96882 28.5936 3.54179 27.8431C2.85876 26.6427 2.19429 25.4101 1.75119 24.1066C1.18922 22.4394 0.885171 20.5595 0.691133 18.8176C0.615049 18.1348 0.566385 16.6606 0.917377 16.072C1.69918 14.7607 2.84101 13.3431 3.93762 12.2532C4.6297 11.5654 5.45107 10.8851 6.01443 10.1147C6.85245 8.96857 7.35906 7.50946 8.04611 6.26975C8.45869 5.52532 9.1712 4.57748 9.7423 3.92657C11.4531 1.97713 13.2186 0.842965 15.8725 0.619596C17.5797 0.610231 19.3684 1.40209 20.9121 2.11809C21.5117 2.47304 22.1516 2.95022 22.6974 3.36792C24.2151 4.53066 25.3403 6.15076 26.6356 7.49223C28.0726 8.98051 29.5919 10.3648 30.9199 11.969C31.6154 12.8092 32.5021 13.4967 33.0419 14.4732C33.9416 15.9147 34.5296 17.3272 34.683 19.0277C35.0721 22.8481 33.311 26.3253 31.6547 29.653C30.7839 31.4048 29.9012 33.1782 28.6075 34.6754C26.7356 36.8418 24.8794 38.8974 21.946 39.6274C21.024 39.8569 20.4068 40.0556 19.4174 40.1599Z"
    fill="#EDE9E2"
  />
  <path
    d="M28.1356 17.6382C26.37 17.8801 23.4925 17.1739 21.8955 16.4196C19.4188 15.25 17.6869 15.4768 15.0241 15.6768C13.1841 15.815 11.1604 16.0182 9.31238 15.7664C7.96933 15.5834 6.67289 14.936 5.50521 14.2567C5.89841 14.3079 6.71055 14.5781 7.09015 14.7132C8.8642 15.3445 9.38368 15.5308 11.2622 15.5309C12.4652 15.4965 13.6667 15.4242 14.8649 15.3138C17.6992 15.0523 18.9214 14.8114 21.6351 15.9124C23.7881 16.786 26.718 17.7773 28.9842 17.0574C29.6749 16.8379 30.4907 16.2293 30.9488 15.6797C31.208 15.3951 31.5921 14.4419 31.8028 14.3521L31.8402 14.4203C31.7597 16.1427 29.7313 17.4355 28.1356 17.6382Z"
    fill="black"
  />
  <path
    d="M31.2701 21.0441C29.139 22.1212 25.6899 22.0649 23.327 22.0246C20.1365 21.953 16.951 21.7378 13.7807 21.3795L13.7761 21.2636C14.0183 21.0154 14.2358 21.2306 14.4965 21.1539C16.3387 21.1782 18.1985 21.4722 20.0337 21.5628C23.0215 21.7104 26.0855 21.8742 29.0564 21.4622C29.7403 21.3674 30.5972 21.0767 31.2489 21.045L31.2701 21.0441Z"
    fill="black"
  />
  <path
    d="M27.5682 13.5023C26.2392 13.3733 21.0042 6.72826 20.4853 5.4529C20.4935 5.4588 20.5018 5.4647 20.51 5.47065C21.9955 6.91159 23.424 8.7766 24.7812 10.3034C25.248 10.8293 25.7247 11.3466 26.2112 11.855C26.567 12.221 27.4951 13.0303 27.5682 13.5023Z"
    fill="black"
  />
  <path
    d="M12.8059 7.09969C12.5669 7.13439 12.274 7.12737 12.0286 7.12915C14.9501 6.00364 17.1105 6.61166 19.6765 4.1074C19.7482 4.01749 19.7687 4.00532 19.8614 3.93461L19.9283 3.95614C20.1184 4.56256 18.8168 5.41329 18.3704 5.68367C16.6545 6.72292 14.7576 6.9092 12.8059 7.09969Z"
    fill="black"
  />
  <path
    d="M8.07336 13.226L7.99 13.1527C7.97875 12.8152 10.4265 8.13179 10.839 7.43087C11.4762 8.17955 8.68456 12.4622 8.07336 13.226Z"
    fill="black"
  />
  <path
    d="M21.4625 13.5011C20.8219 13.2623 19.7789 10.8364 19.4437 10.1512L19.5158 10.1643C19.6829 10.334 21.3987 13.2731 21.4625 13.5011Z"
    fill="#676464"
  />
  <path
    d="M13.7807 21.3795C12.8596 21.2716 11.726 21.163 10.822 21.0173C11.3219 20.9703 14.1702 21.0134 14.4964 21.1539C14.2358 21.2307 14.0182 21.0154 13.776 21.2637L13.7807 21.3795Z"
    fill="#3A353A"
  />
  <path
    d="M16.1124 12.7107L16.0236 12.6395C15.9076 12.2349 16.0282 10.5453 16.3003 10.2506C16.3191 10.2595 16.3263 10.2612 16.3421 10.2786C16.4665 10.4161 16.1278 12.3615 16.1124 12.7107Z"
    fill="#A4A39E"
  />
</svg>
