<svg
  width="37"
  height="43"
  viewBox="0 0 37 43"
  fill="none"
  xmlns="http://www.w3.org/2000/svg"
>
  <path
    d="M34.2459 8.23866C43.9924 19.7582 22.1084 56.6182 7.96492 36.4927C2.70842 29.0127 -0.605078 20.5726 0.0924225 11.4091C5.27292 2.68864 17.8754 -3.93936 26.8129 2.70664C28.6604 4.08014 31.4794 5.37265 32.9179 7.17165L34.2459 8.23866Z"
    fill="#E3DFDA"
  />
  <path
    d="M34.2459 8.23866C43.9924 19.7582 22.1084 56.6182 7.96492 36.4927C2.70842 29.0127 -0.605078 20.5726 0.0924225 11.4091C5.27292 2.68864 17.8754 -3.93936 26.8129 2.70664C28.6604 4.08014 31.4794 5.37265 32.9179 7.17165C28.3979 4.98765 21.3429 -0.104849 16.6674 0.468651C13.3684 1.58965 9.81992 3.78815 6.90642 5.64715C6.27892 5.84965 6.22843 6.00515 5.71043 6.31065C-4.40957 12.2861 3.81342 28.9912 9.26942 36.2427C10.6509 35.2312 11.3704 34.0017 12.9324 33.0337C15.4394 34.0787 16.8059 34.5156 19.4939 33.8346C24.2194 32.6376 23.5574 33.6976 27.0169 35.8061L27.2949 35.9721C33.7594 27.2781 37.7149 19.0072 34.2459 8.23866Z"
    fill="#818081"
  />
  <path
    d="M27.2952 35.9722C21.9777 41.8817 14.0532 44.1837 9.26965 36.2427C10.6512 35.2312 11.3706 34.0017 12.9326 33.0337C15.4396 34.0787 16.8062 34.5157 19.4942 33.8347C24.2197 32.6377 23.5577 33.6977 27.0172 35.8062L27.2952 35.9722Z"
    fill="#FEFEFE"
  />
</svg>
