<svg
  width="40"
  height="45"
  viewBox="0 0 40 45"
  fill="none"
  xmlns="http://www.w3.org/2000/svg"
>
  <path
    d="M25.8436 43.2831C21.6971 45.0876 19.3741 45.2781 14.9736 43.7991C10.2181 42.2011 3.0756 34.1286 2.6891 29.1221C-5.0654 13.2141 5.0656 4.89557 18.8701 6.48499e-05C25.8786 0.834565 34.9296 5.51556 37.8666 12.0901C42.3821 22.1966 35.5551 38.7091 25.8436 43.2831Z"
    fill="#EDE9E2"
  />
  <path
    d="M25.5031 32.8846C23.8286 36.1786 16.0696 35.9051 13.2531 33.3221C5.77506 31.8851 3.13458 19.9741 6.36958 14.8391L6.56706 14.3616C8.14506 15.9681 9.25307 21.2031 9.75557 23.5426L11.0271 24.0491C12.7996 23.2671 13.4351 23.0811 14.7011 21.6396L14.0011 21.1296L19.6906 18.9706C23.1961 19.6251 24.3581 19.7386 27.3286 21.6926C29.7221 20.1501 29.8131 16.9941 32.3171 15.9076C32.6486 14.8991 32.6671 14.8701 33.4161 14.1001L33.8481 14.3556L33.5881 15.6796C35.0831 20.0056 34.6396 25.9156 32.9271 30.1841C30.0566 32.2426 29.0306 33.3281 25.5031 32.8846Z"
    fill="#E3DDC7"
  />
  <path
    d="M9.85591 27.7336C8.75491 23.5401 7.64643 18.9506 6.36943 14.8391L6.56691 14.3616C8.14491 15.9681 9.25291 21.2031 9.75541 23.5426L11.0269 24.0491C12.7994 23.2671 13.4349 23.0811 14.7009 21.6396L14.0009 21.1296L19.6904 18.9706C23.1959 19.6251 24.3579 19.7386 27.3284 21.6926C29.7219 20.1501 29.8129 16.9941 32.3169 15.9076C32.6484 14.8991 32.6669 14.8701 33.4159 14.1001L33.8479 14.3556L33.5879 15.6796C31.9784 19.8291 31.5394 23.5081 30.2084 27.3406C19.3474 20.1511 20.0584 21.3876 9.85591 27.7336Z"
    fill="#ADA49D"
  />
  <path
    d="M19.6856 20.5061C16.5476 21.6451 12.4221 24.8641 10.7196 24.9476L9.75566 23.5426L11.0272 24.0491C12.7997 23.2671 13.4352 23.0811 14.7012 21.6396L14.0012 21.1296L19.6907 18.9706C23.1962 19.6251 24.3582 19.7386 27.3287 21.6926C29.7222 20.1501 29.8132 16.9941 32.3172 15.9076C31.4597 19.0261 30.4371 22.2336 29.4931 25.3386C25.8801 22.9991 23.7766 21.7406 19.6856 20.5061Z"
    fill="#CCC4BF"
  />
  <path
    d="M25.5029 32.8846C23.8284 36.1786 16.0694 35.9051 13.2529 33.3221C16.2834 30.7596 17.3684 27.3501 19.7124 24.0196C21.3184 26.5881 23.6899 30.6276 25.5029 32.8846Z"
    fill="#FEFEFE"
  />
  <path
    d="M25.8436 43.2832L26.0931 43.0082C27.8996 41.0342 29.7091 40.2627 30.7306 38.1372L30.8636 37.8667C30.9386 37.6887 31.0141 37.5107 31.0891 37.3327C35.4056 35.9467 37.8216 22.3017 37.8131 17.9947L37.8111 17.8207C36.1141 14.9937 34.9831 12.3847 31.9931 11.0462L19.9956 4.88719C17.0891 5.89569 9.20159 10.0367 6.07209 11.6277L4.7631 12.8487C-1.0659 17.0267 2.9566 23.6682 2.6891 29.1222C-5.0654 13.2142 5.0656 4.8957 18.8701 0.000198364C25.8786 0.834698 34.9296 5.51569 37.8666 12.0902C42.3821 22.1967 35.5551 38.7092 25.8436 43.2832Z"
    fill="#C1BCB7"
  />
  <path
    d="M25.8436 43.2831C21.6971 45.0876 19.3741 45.2781 14.9736 43.7991C10.2181 42.2011 3.07563 34.1286 2.68913 29.1221C2.95663 23.6681 -1.06587 17.0266 4.76313 12.8486C3.47013 17.5556 2.65462 19.7406 4.07112 25.0411C5.79662 31.2486 9.49012 38.4906 16.0656 40.5316C18.7411 41.3616 20.8121 40.9106 23.3641 42.5976C23.8736 42.1511 29.8356 38.2421 31.0891 37.3326C31.0141 37.5106 30.9386 37.6886 30.8636 37.8666L30.7306 38.1371C29.7091 40.2626 27.8996 41.0341 26.0931 43.0081L25.8436 43.2831Z"
    fill="#D5CFCC"
  />
  <path
    d="M31.089 37.3325C31.687 34.4315 32.9515 33.1795 32.927 30.184C34.6395 25.9155 35.083 20.0055 33.588 15.6795L33.848 14.3555L33.416 14.1C32.667 14.87 32.6485 14.899 32.317 15.9075C29.813 16.994 29.722 20.15 27.3285 21.6925C24.358 19.7385 23.196 19.625 19.6905 18.9705L14.001 21.1295L12.744 21.0395L12.644 19.962C12.669 19.9675 26.8895 18.106 28.6335 17.9675C30.1705 15.7305 31.123 13.6085 31.993 11.046C34.983 12.3845 36.114 14.9935 37.811 17.8205L37.813 17.9945C37.8215 22.3015 35.4055 35.9465 31.089 37.3325Z"
    fill="#D5CFCC"
  />
  <path
    d="M14.001 21.1298L14.7009 21.6398C13.4349 23.0813 12.7995 23.2673 11.027 24.0493L9.75544 23.5428C9.25294 21.2033 8.14494 15.9683 6.56694 14.3618L7.39094 13.0823C10.0814 14.7588 11.0904 17.2088 12.6439 19.9623L12.7439 21.0398L14.001 21.1298Z"
    fill="#E3DDC7"
  />
</svg>
