<svg
  width="41"
  height="45"
  viewBox="0 0 41 45"
  fill="none"
  xmlns="http://www.w3.org/2000/svg"
>
  <path
    d="M22.2559 44.8291C18.5909 44.8796 15.5869 44.7171 12.3114 42.8231C6.11439 39.2401 2.81339 32.2016 1.11489 25.5126C-0.214109 20.2771 -0.849091 14.2046 2.09591 9.39008C5.50391 3.81858 12.3559 1.44007 18.3759 0.00906754C23.4219 -0.122432 28.9194 1.19157 33.2039 3.92307C36.7974 6.21407 39.3244 9.49507 40.2124 13.7016C41.7464 20.9676 39.1304 30.1071 35.0804 36.1811C31.9354 40.8976 27.8194 43.7336 22.2559 44.8291Z"
    fill="#737071"
  />
  <path
    d="M21.9244 43.8155C19.0054 43.952 15.8969 43.552 13.3244 42.114C7.33044 38.7625 4.00843 32.0725 2.24143 25.688C0.833928 20.603 0.0499303 14.4225 2.85593 9.67598C5.86043 4.59348 12.8444 2.38499 18.2559 1.02999C23.1624 0.856987 28.8809 2.15698 32.9934 4.89748C36.2844 7.08998 38.4624 10.234 39.2209 14.1215C40.5874 21.126 37.7579 30.3055 33.7784 36.084C30.6854 40.5755 27.1664 42.834 21.9244 43.8155Z"
    fill="#D5CFCC"
  />
  <path
    d="M28.5574 32.799C28.6564 32.9245 28.6953 33.4615 28.7258 33.6665C23.0863 38.7365 16.6479 36.5905 10.5429 34.1225L12.3174 32.755C16.8149 29.846 16.2659 21.521 21.1164 21.598L21.5104 20.065C17.1189 19.9495 12.9654 23.0605 10.4394 26.4465L9.82137 26.2195C9.78087 17.123 5.77537 19.4025 5.42287 12.2615L4.39385 12.498C4.46435 11.4865 5.03936 10.6955 5.96486 10.221C9.09686 8.38647 15.4614 6.29597 19.1584 4.66647C22.4624 5.85997 30.6989 8.22947 33.1619 9.27897C35.6019 9.83797 37.0089 12.1365 36.9949 14.518L36.6224 14.603L35.9724 13.1515L35.2204 13.0215L35.0454 14.8325C34.6039 14.127 34.6249 13.378 34.5499 12.5385L34.0564 12.943C34.1899 14.2015 33.7953 15.6505 33.5423 16.9255C34.3788 16.9495 33.9969 16.84 34.7219 17.285C36.4019 22.8215 33.4854 29.809 28.5574 32.799Z"
    fill="#E3DDC7"
  />
  <path
    d="M19.2212 14.3374C19.1132 15.1434 18.9622 15.5594 18.7177 16.3374C16.4732 17.5254 12.1662 19.5489 9.63422 19.0979C8.60422 16.7104 7.35373 14.0599 5.42273 12.2614L4.39371 12.4979C4.46421 11.4864 5.03922 10.6954 5.96472 10.2209C9.09672 8.38644 15.4612 6.29593 19.1582 4.66643C22.4622 5.85993 30.6987 8.22944 33.1617 9.27894C28.6277 9.15044 26.2092 9.50444 21.1652 9.13494L20.3812 9.62594L19.2212 14.3374Z"
    fill="#EDE9E2"
  />
  <path
    d="M20.3812 9.62585C15.1132 9.02385 12.9122 9.34936 7.64322 10.7769L5.96472 10.2209C9.09672 8.38636 15.4612 6.29585 19.1582 4.66635C22.4622 5.85985 30.6987 8.22935 33.1617 9.27885C28.6277 9.15035 26.2092 9.50436 21.1652 9.13486L20.3812 9.62585Z"
    fill="#FEFEFE"
  />
  <path
    d="M28.5574 32.799C28.6564 32.9245 28.6954 33.4615 28.7259 33.6665C23.0864 38.7365 16.6479 36.5905 10.5429 34.1225L12.3174 32.755C16.8149 29.846 16.2659 21.521 21.1164 21.598C23.3669 24.864 25.6439 30.691 28.5574 32.799Z"
    fill="#FEFEFE"
  />
  <path
    d="M31.3124 17.4714C27.9814 18.7859 23.8699 20.0829 23.0044 15.0699L22.1424 16.2669C20.8234 15.8494 20.2484 15.2269 19.2214 14.3374L20.3814 9.62591L21.1654 9.13491C26.2094 9.50441 28.6279 9.15041 33.1619 9.27891C35.6019 9.83791 37.0089 12.1364 36.9949 14.5179L36.6224 14.6029L35.9724 13.1514L35.2204 13.0214L35.0454 14.8324C34.6039 14.1269 34.6249 13.3779 34.5499 12.5384L34.0564 12.9429C32.9814 14.4804 32.2314 15.8334 31.3124 17.4714Z"
    fill="#EDE9E2"
  />
  <path
    d="M23.0042 15.0701L22.1422 16.2671C20.8232 15.8496 20.2483 15.2271 19.2213 14.3376L20.3813 9.62608L21.1653 9.13509C21.8793 10.6701 22.5317 13.3626 23.0042 15.0701Z"
    fill="#CCC4BF"
  />
  <path
    d="M28.5574 32.7988C25.6439 30.6908 23.3669 24.8638 21.1164 21.5978L21.5104 20.0648C25.2294 22.1808 27.7059 23.7513 31.0204 26.5123C30.8139 23.5528 31.7994 19.2713 33.5424 16.9253C34.3789 16.9493 33.9969 16.8398 34.7219 17.2848C36.4019 22.8213 33.4854 29.8088 28.5574 32.7988Z"
    fill="#E3DDC7"
  />
  <path
    d="M21.5102 20.0649C17.1187 19.9494 12.9652 23.0604 10.4392 26.4464L9.82125 26.2195C9.78075 17.123 5.77525 19.4024 5.42275 12.2614C7.35375 14.0599 8.60424 16.7104 9.63424 19.0979C10.5347 21.1694 10.2253 21.4495 11.8068 22.308C14.1693 22.2215 16.8037 19.826 19.5887 18.6575C23.5237 20.039 26.3482 21.2664 29.7167 23.8304L31.3122 17.4715C32.2312 15.8335 32.9812 14.4804 34.0562 12.9429C34.1897 14.2014 33.7952 15.6504 33.5422 16.9254C31.7992 19.2714 30.8138 23.553 31.0203 26.5125C27.7058 23.7515 25.2292 22.1809 21.5102 20.0649Z"
    fill="#ADA49D"
  />
  <path
    d="M10.543 34.1226C7.65497 32.6706 4.68746 24.8076 4.87946 21.8146L5.37796 21.2686C6.44346 26.0481 7.56297 30.3306 12.3175 32.7551L10.543 34.1226Z"
    fill="#EDE9E2"
  />
</svg>
