<svg
  width="52"
  height="50"
  viewBox="0 0 52 50"
  fill="none"
  xmlns="http://www.w3.org/2000/svg"
>
  <path
    d="M33.6356 49.331C25.4171 49.3575 15.1981 51.3835 8.5486 45.666C2.0226 40.055 0.772603 30.7065 0.124603 22.6225C-0.374397 16.398 0.517606 10.233 4.79311 5.36101C7.72411 2.02101 11.5921 0.3085 15.9711 0C24.1151 0.4285 35.7906 -0.619493 42.7441 4.21001C47.1601 7.27751 49.6996 12.3185 50.5861 17.518C51.8776 25.0915 50.7806 35.866 46.1606 42.2235C42.9721 46.611 38.8216 48.4755 33.6356 49.331Z"
    fill="#C1BCB7"
  />
  <path
    d="M43.1916 14.0761C44.9071 14.8351 45.4861 15.0441 46.3371 16.7421C47.8756 17.0861 47.2211 17.1256 48.9066 16.2886L49.3226 16.9081C50.1781 38.7226 47.3956 49.2671 24.5451 48.0741C14.4606 47.5476 7.85309 48.7006 3.78809 36.9796C2.46409 32.2876 -0.341416 17.2516 2.68808 13.3471L4.14609 13.0656C6.65659 6.6921 16.2366 -3.3604 20.9241 5.9946C22.1406 6.4161 25.8541 6.20909 28.0516 6.81009C33.1076 3.17509 41.9136 7.5306 43.6936 12.2896L42.9211 13.5191L43.1916 14.0761Z"
    fill="#ADA49D"
  />
  <path
    d="M43.1916 14.0761C44.9071 14.8351 45.4861 15.0441 46.3371 16.7421C47.8756 17.0861 47.2211 17.1256 48.9066 16.2886L49.3226 16.9081C50.1781 38.7226 47.3956 49.2671 24.5451 48.0741C14.4606 47.5476 7.85309 48.7006 3.78809 36.9796C4.69009 37.5416 8.1136 42.5176 9.4011 44.0136C9.3131 42.0281 9.1116 40.9226 8.7396 38.9601C8.0421 37.5931 7.43659 36.7186 7.54209 35.1931C7.33609 34.3851 7.2241 33.9711 6.9161 33.1976C8.4526 30.5241 4.8861 25.0806 7.4831 23.8176L8.13459 23.9001C15.5171 28.0286 8.42759 28.2506 9.58609 34.2416L9.35959 34.3066L9.47809 34.7916L11.2336 35.2741L11.1191 35.8556C13.8036 37.7221 18.1096 39.0656 21.2776 39.8411C26.3926 40.1136 27.9486 40.9126 29.0446 35.2736C28.9926 36.9656 28.8846 37.7706 29.4176 39.3886C30.7251 39.8116 30.1471 39.8071 31.7616 39.0206C32.4256 38.9101 33.5326 38.9286 34.2381 38.9141C36.8971 37.9641 39.1776 37.2481 41.6321 35.8206L42.8406 34.9686L42.7111 34.2831L42.1826 34.1226L42.2391 33.6961C42.7686 29.5011 40.4941 29.1731 41.1081 27.0876C43.3441 26.9046 44.9036 26.9741 46.6416 25.5596L45.1686 24.9031C47.7141 23.1551 46.4771 20.3486 45.2366 18.0026L44.8866 17.7641L45.3771 21.4306C43.3076 18.8661 43.2551 17.7836 40.6981 15.1616L42.1851 14.3211L43.1916 14.0761Z"
    fill="#D5CFCC"
  />
  <path
    d="M25.2725 42.9183C22.9055 44.3728 21.4475 44.5158 18.77 45.0318C13.174 43.5903 12.971 41.9623 8.73947 38.9603C8.04197 37.5933 7.43646 36.7188 7.54196 35.1933C12.386 38.9293 19.2845 41.8233 25.2725 42.9183Z"
    fill="#EDE9E2"
  />
  <path
    d="M25.2726 42.918L26.4442 43.0185L26.5251 43.3535C22.2071 47.765 14.0172 48.241 9.40115 44.0135C9.31315 42.028 9.11165 40.9225 8.73965 38.96C12.9712 41.962 13.1741 43.59 18.7701 45.0315C21.4476 44.5155 22.9056 44.3725 25.2726 42.918Z"
    fill="#EDE9E2"
  />
  <path
    d="M34.246 44.5211L32.987 44.4111C32.7975 43.1041 33.641 41.8486 34.1805 40.6471C37.3255 39.4656 40.4065 38.2415 43.4485 36.8145L44.136 36.5011C44.086 37.3436 43.7735 37.9311 43.324 38.6266C41.1135 42.0471 38.17 43.7121 34.246 44.5211Z"
    fill="#EDE9E2"
  />
  <path
    d="M9.40111 44.0137C8.11361 42.5177 4.6901 37.5417 3.7881 36.9797C2.4641 32.2877 -0.341405 17.2517 2.6881 13.3472L4.1461 13.0657C6.6566 6.69224 16.2366 -3.36026 20.9241 5.99474C22.1406 6.41624 25.8541 6.20923 28.0516 6.81023C33.1076 3.17523 41.9136 7.53074 43.6936 12.2897L42.9211 13.5192L43.1916 14.0762L42.1851 14.3212C36.6391 11.2817 31.8661 9.09323 25.5541 7.98273L24.7931 10.2122L24.1871 10.4977L23.6921 9.79174L24.4711 8.43123L23.9596 8.17023L23.0766 8.57674L22.1041 8.03324C21.5841 7.94724 20.1571 7.67524 19.7146 7.68024C15.6921 8.71274 11.1331 10.6997 7.3186 12.4332C5.7101 13.5532 5.4586 13.7247 4.3441 15.3232C3.7186 17.1072 4.3611 18.1117 5.0961 19.9052L4.8316 20.3552C5.5301 20.7692 7.3796 22.3337 8.0941 22.9122L8.41161 23.5422L8.1346 23.9002L7.48311 23.8177C4.88611 25.0807 8.45261 30.5242 6.91611 33.1977C7.22411 33.9712 7.3361 34.3852 7.5421 35.1932C7.4366 36.7187 8.04211 37.5932 8.73961 38.9602C9.11161 40.9227 9.31311 42.0282 9.40111 44.0137Z"
    fill="#C7C3BF"
  />
  <path
    d="M20.9241 5.9945C15.4256 6.7395 8.78807 10.106 4.14607 13.0655C6.65657 6.69199 16.2366 -3.3605 20.9241 5.9945Z"
    fill="#EDE9E2"
  />
  <path
    d="M28.0516 6.81011C33.1076 3.17511 41.9136 7.53062 43.6936 12.2896L42.9211 13.5191C37.9166 10.3666 33.7776 8.47911 28.0516 6.81011Z"
    fill="#EDE9E2"
  />
  <path
    d="M8.13461 23.9001L7.48312 23.8176C4.88612 25.0806 8.45262 30.5241 6.91612 33.1976C6.48362 30.8821 4.57062 21.9461 4.83162 20.3551C5.53012 20.7691 7.37962 22.3336 8.09412 22.9121L8.41162 23.5421L8.13461 23.9001Z"
    fill="#CCC4BF"
  />
  <path
    d="M22.1041 8.0331C23.0976 12.9851 21.9561 18.3546 22.5961 23.3591C22.8281 25.1706 23.8106 25.6376 25.3271 26.7231L24.8817 26.9986C23.2267 26.3771 16.5127 26.0486 16.1227 25.6866C14.3317 24.0226 9.61014 16.1341 6.64314 15.2096C5.64764 16.4326 6.39315 17.2626 6.04465 19.4901L5.09615 19.9051C4.36115 18.1116 3.71865 17.1071 4.34415 15.3231C5.45865 13.7246 5.71015 13.5531 7.31865 12.4331C11.1331 10.6996 15.6921 8.7126 19.7146 7.6801C20.1571 7.6751 21.5841 7.9471 22.1041 8.0331Z"
    fill="#CCC4BF"
  />
  <path
    d="M19.9816 13.9854C18.5271 14.2199 17.7146 13.7109 16.3541 13.2539C15.9606 14.4404 15.6321 15.3614 15.1521 16.5264C12.5786 15.1224 9.98208 13.6474 7.31858 12.4329C11.1331 10.6994 15.6921 8.71244 19.7146 7.67994C20.8766 10.0094 20.5451 11.5759 19.9816 13.9854Z"
    fill="#EDE9E2"
  />
  <path
    d="M19.9817 13.9857C19.9062 15.4297 19.6587 16.0052 19.2097 17.3367C17.6402 18.6892 18.3482 18.4687 16.4097 18.4652C15.6157 17.6827 15.5147 17.5767 15.1522 16.5267C15.6322 15.3617 15.9607 14.4407 16.3542 13.2542C17.7147 13.7112 18.5272 14.2202 19.9817 13.9857Z"
    fill="#E1DAD2"
  />
  <path
    d="M45.1685 24.9031L43.752 24.7271C42.18 21.7156 39.8105 24.5176 40.236 19.0386C40.635 17.8326 40.611 18.3326 40.3785 17.1236L39.5335 17.5741C38.5865 18.9301 38.366 19.1711 38.0735 20.8301C35.429 21.8471 33.2 23.5626 30.2515 22.5591C27.9025 20.4151 29.236 17.0016 28.4165 14.5196C27.684 14.1261 26.947 13.7402 26.207 13.3617C26.083 12.4412 25.492 8.57214 25.554 7.98264C31.866 9.09314 36.639 11.2816 42.185 14.3211L40.698 15.1616C43.255 17.7836 43.3075 18.8662 45.377 21.4307L44.8865 17.7641L45.2365 18.0026C46.477 20.3486 47.714 23.1551 45.1685 24.9031Z"
    fill="#E1DAD2"
  />
  <path
    d="M40.6981 15.1615C35.6516 15.4565 35.2076 21.182 31.7781 20.4595C31.5031 17.87 31.4301 13.474 29.6466 11.6935L28.6945 11.561C27.362 13.2155 27.8801 13.11 26.2071 13.3615C26.0831 12.441 25.4921 8.57203 25.5541 7.98253C31.8661 9.09303 36.6391 11.2815 42.1851 14.321L40.6981 15.1615Z"
    fill="#EDE9E2"
  />
  <path
    d="M29.0447 35.2735C27.9487 40.9125 26.3927 40.1135 21.2777 39.841C18.1097 39.0655 13.8037 37.722 11.1192 35.8555L11.2337 35.274L9.47816 34.7915L9.35966 34.3065L9.58617 34.2415C12.5987 33.1785 13.1697 32.3195 14.4767 29.433C20.5077 35.474 22.2647 25.3245 29.2847 32.0825L29.0447 35.2735Z"
    fill="#E1DAD2"
  />
  <path
    d="M21.2776 39.8411C18.1096 39.0656 13.8036 37.7221 11.1191 35.8556L11.2336 35.2741C15.0256 35.5296 20.7721 35.0196 21.2776 39.8411Z"
    fill="#EDE9E2"
  />
  <path
    d="M38.0735 20.8302C35.0175 28.4672 28.4185 28.5502 24.1815 21.8532C24.1055 19.8437 23.745 17.3457 24.7535 15.7012C26.004 14.8627 26.8245 14.4832 28.4165 14.5197C29.236 17.0017 27.9025 20.4152 30.2515 22.5592C33.2 23.5627 35.429 21.8472 38.0735 20.8302Z"
    fill="#C1BCB7"
  />
  <path
    d="M34.2381 38.9141C33.5326 38.9286 32.4256 38.9101 31.7616 39.0206L31.6441 33.2051C36.1556 30.9711 35.1131 30.4476 40.3931 30.5361C40.7666 32.0596 41.3441 32.8076 42.1826 34.1226L42.7111 34.2831L42.8406 34.9686L41.6321 35.8206C39.1776 37.2481 36.8971 37.9641 34.2381 38.9141Z"
    fill="#E1DAD2"
  />
  <path
    d="M34.2381 38.9141C34.1841 37.1401 33.8701 34.8951 34.8361 33.5096C36.8616 33.0796 38.8396 34.9151 41.6321 35.8206C39.1776 37.2481 36.8971 37.9641 34.2381 38.9141Z"
    fill="#EDE9E2"
  />
  <path
    d="M29.2847 32.0826C22.2647 25.3246 20.5077 35.4741 14.4767 29.4331C16.5792 24.5186 23.9917 26.8276 27.6922 28.5826C28.9482 29.1786 29.0647 30.8821 29.2847 32.0826Z"
    fill="#CCC4BF"
  />
  <path
    d="M40.3931 30.5362C35.1131 30.4477 36.1556 30.9711 31.6441 33.2051C31.2326 31.5701 30.8011 29.6422 30.3076 28.0557L36.8881 26.8116L40.3931 30.5362Z"
    fill="#CCC4BF"
  />
  <path
    d="M46.6416 25.5596L38.0001 25.5081C38.7006 23.4616 39.4631 21.0211 40.2361 19.0386C39.8106 24.5176 42.1801 21.7156 43.7521 24.7271L45.1686 24.9031L46.6416 25.5596Z"
    fill="#CCC4BF"
  />
  <path
    d="M8.09421 22.9122C7.37971 22.3337 5.53021 20.7692 4.83171 20.3552L5.09621 19.9052L6.04471 19.4902C6.39321 17.2627 5.6477 16.4327 6.6432 15.2097C7.4522 17.8032 8.00571 18.4017 9.63721 20.4922L8.09421 22.9122Z"
    fill="#E3DDC7"
  />
  <path
    d="M9.63696 20.4923C10.722 21.5063 11.9295 22.3393 12.21 23.7033C10.737 24.4313 10.445 23.9788 8.41147 23.5423L8.09396 22.9123L9.63696 20.4923Z"
    fill="#C1BCB7"
  />
</svg>
