<svg
  width="51"
  height="49"
  viewBox="0 0 51 49"
  fill="none"
  xmlns="http://www.w3.org/2000/svg"
>
  <path
    d="M19.672 48.3102C18.955 48.3412 18.2375 48.3521 17.52 48.3426C13.2285 48.2676 9.39353 46.5761 6.44303 43.4621C0.741031 37.4441 -0.243964 27.0056 0.0450363 19.1231C0.255036 13.4026 2.21554 7.91965 6.53454 3.99065C12.969 -1.86285 20.936 0.332138 28.742 0.741638C33.974 0.887638 38.3685 1.48314 42.6085 4.93764C47.143 8.63164 49.616 14.0151 50.2005 19.7451C50.9185 26.7776 50.3575 35.8686 45.673 41.5246C39.3215 49.1931 28.5395 47.3742 19.672 48.3102Z"
    fill="#737071"
  />
  <path
    d="M18.921 47.1255C14.0835 46.998 10.2225 46.31 6.85548 42.623C1.80248 37.0905 0.797977 25.647 1.04848 18.6365C1.54548 4.70599 11.2135 -0.380015 23.8875 1.38799C31.5075 2.45049 38.757 1.09699 44.679 8.01299C48.181 11.986 49.5005 17.611 49.1795 22.7835L49.646 23.143C49.874 27.19 48.112 36.527 45.5865 40.0095C39.265 48.7245 29.255 45.145 18.921 47.1255Z"
    fill="#D5CFCC"
  />
  <path
    d="M26.2505 38.0867C25.764 37.7017 25.5669 37.5217 25.0059 37.2487L24.6439 37.0767L24.4514 36.3647C24.2799 37.1337 24.0914 37.4372 23.7479 38.1242L21.0754 38.8147C17.8549 37.6087 12.3994 35.6407 9.62945 33.5922L8.86845 33.1617L9.61794 32.0767L9.91644 30.8392L8.82944 30.4267C7.22744 29.6517 7.09744 28.2887 6.82194 26.6027L6.08994 25.7592L5.31994 25.1972C0.426439 22.6862 3.12695 12.4817 8.04945 11.0687C9.31145 10.7062 10.5879 10.3592 11.8629 10.0537L19.7329 8.2097L21.4229 7.6022C22.3224 8.5237 22.9429 9.8022 23.5879 10.9422L24.3824 11.2572L25.3089 11.0482C26.1134 9.8762 26.7014 9.1757 26.9874 7.7572C36.7509 10.4562 44.6409 11.7917 46.3379 23.0967L46.5719 24.7342C46.7399 25.0302 46.6339 25.1372 46.5834 25.6187L44.7049 26.2132C43.2574 26.2987 42.1179 26.1852 40.9969 27.0172C40.6434 28.7232 41.4869 29.9292 42.2049 31.7732L42.8714 33.8992L42.4054 34.8517L41.5534 34.5797L40.0939 33.8392C37.1029 33.9997 30.7429 33.9242 29.5714 36.9647L28.9744 35.0517L26.9834 37.1907L26.2505 38.0867Z"
    fill="#ADA49D"
  />
  <path
    d="M5.31992 25.197C0.426424 22.686 3.12693 12.4815 8.04943 11.0685C9.31143 10.706 10.5879 10.359 11.8629 10.0535L19.7329 8.20952L21.4229 7.60202C22.3224 8.52352 22.9429 9.80202 23.5879 10.942C19.1924 12.9005 22.1834 13.559 19.2484 17.1085C18.2159 18.782 18.7049 18.4955 17.0979 19.2935C14.0024 18.74 14.3029 16.6085 10.5614 16.133L8.92742 14.786L8.43392 14.2325C7.52792 17.7085 7.84993 20.4975 6.31893 24.2215L5.31992 25.197Z"
    fill="#EDE9E2"
  />
  <path
    d="M19.2483 17.1087C18.2158 18.7822 18.7048 18.4957 17.0978 19.2937C14.0023 18.7402 14.3028 16.6087 10.5613 16.1332L8.92733 14.7862L8.43383 14.2327L9.66233 13.8717C10.6658 14.2557 18.5998 16.7067 19.0433 16.6377L19.2483 17.1087Z"
    fill="#EDE5DF"
  />
  <path
    d="M19.2484 17.1086L19.0434 16.6376C19.0834 13.9111 20.2044 9.43864 19.7329 8.20964L21.4229 7.60214C22.3224 8.52364 22.9429 9.80214 23.5879 10.9421C19.1924 12.9006 22.1834 13.5591 19.2484 17.1086Z"
    fill="#D5CFCC"
  />
  <path
    d="M29.5714 36.9647L28.9744 35.0517L26.9834 37.1907C26.2629 34.0862 25.0904 28.2232 24.1614 25.3942C30.2904 24.2202 31.6399 23.9227 37.6824 25.0642C38.7164 27.1132 40.2259 30.7877 42.2049 31.7732L42.8714 33.8992L42.4054 34.8517L41.5534 34.5797L40.0939 33.8392C37.1029 33.9997 30.7429 33.9242 29.5714 36.9647Z"
    fill="#CCC4BF"
  />
  <path
    d="M29.5715 36.9646L28.9745 35.0516L27.907 26.5151C34.5915 26.4706 36.9935 27.3886 40.094 33.8391C37.103 33.9996 30.743 33.9241 29.5715 36.9646Z"
    fill="#E1DAD2"
  />
  <path
    d="M46.3379 23.0964C40.2349 21.3139 45.5779 17.9484 40.3374 15.8944C36.7199 14.0654 37.6344 19.9274 30.6649 20.2399C28.6524 20.0724 28.9639 20.4144 27.7424 19.2739C26.7809 16.4244 28.4144 13.0644 26.6974 11.5319L25.3089 11.0479C26.1134 9.87593 26.7014 9.17543 26.9874 7.75693C36.7509 10.4559 44.6409 11.7914 46.3379 23.0964Z"
    fill="#EDE9E2"
  />
  <path
    d="M30.6648 20.24C28.6523 20.0725 28.9638 20.4145 27.7423 19.274C26.7808 16.4245 28.4143 13.0645 26.6973 11.532C28.3373 11.369 28.0363 11.151 29.2743 11.84C30.4628 14.23 29.8383 16.9415 30.5788 19.9075L30.6648 20.24Z"
    fill="#E1DAD2"
  />
  <path
    d="M23.7478 38.1242L21.0753 38.8147C17.8548 37.6087 12.3993 35.6407 9.62934 33.5922L8.86834 33.1617L9.61784 32.0767C13.0558 31.3392 19.5043 17.8712 23.7478 38.1242Z"
    fill="#E1DAD2"
  />
  <path
    d="M21.0755 38.8147C17.855 37.6087 12.3995 35.6407 9.62948 33.5922C13.3575 30.6507 19.071 35.2912 21.0755 38.8147Z"
    fill="#EDE9E2"
  />
  <path
    d="M37.1194 23.6057C30.8509 22.3242 29.7209 23.0147 23.7579 23.3097C23.6959 19.9217 23.7974 14.5927 24.3824 11.2572L25.3089 11.0482L26.6974 11.5322C28.4144 13.0647 26.7809 16.4247 27.7424 19.2742C28.9639 20.4147 28.6524 20.0727 30.6649 20.2402C37.6344 19.9277 36.7199 14.0657 40.3374 15.8947L40.1234 16.2982C38.6914 17.5332 37.8429 21.5217 37.1194 23.6057Z"
    fill="#CCC4BF"
  />
  <path
    d="M26.2505 38.0865C25.764 37.7015 25.567 37.5215 25.006 37.2485L24.644 37.0765L24.4515 36.3645C24.28 37.1335 24.0915 37.437 23.748 38.124C19.5045 17.871 13.056 31.339 9.61802 32.0765L9.91651 30.839C12.378 21.7715 14.943 22.1105 22.682 24.9255C23.3895 28.427 24.3965 35.3095 26.2505 38.0865Z"
    fill="#CCC4BF"
  />
  <path
    d="M23.5879 10.9421C21.9269 13.7786 22.3654 19.2351 22.3974 22.6951C20.9094 23.4866 20.4634 22.4621 19.0814 22.3201C12.5829 21.6516 13.7274 21.6111 10.5614 16.1331C14.3029 16.6086 14.0024 18.7401 17.0979 19.2936C18.7049 18.4956 18.2159 18.7821 19.2484 17.1086C22.1834 13.5591 19.1924 12.9006 23.5879 10.9421Z"
    fill="#E3DDC7"
  />
  <path
    d="M46.5721 24.734C43.5196 24.7475 41.1651 25.0515 38.2416 25.179C39.0576 22.339 40.1646 19.211 40.1236 16.298L40.3376 15.8945C45.5781 17.9485 40.2351 21.314 46.3381 23.0965L46.5721 24.734Z"
    fill="#E1DAD2"
  />
  <path
    d="M12.5301 22.6374C10.3136 23.2779 8.57657 23.7269 6.31907 24.2214C7.85007 20.4974 7.52806 17.7084 8.43406 14.2324L8.92756 14.7859C8.54806 16.6999 11.3306 20.4349 12.5301 22.6374Z"
    fill="#CCC4BF"
  />
  <path
    d="M8.82935 30.4265C7.22735 29.6515 7.09735 28.2885 6.82185 26.6025L6.08985 25.759C7.48985 25.445 8.90185 24.9285 10.1544 25.5505C10.4299 27.2645 9.54385 28.6155 8.82935 30.4265Z"
    fill="#E3DDC7"
  />
  <path
    d="M49.1795 22.7835L49.646 23.143C49.874 27.19 48.112 36.527 45.5865 40.0095C39.265 48.7245 29.255 45.145 18.921 47.1255C19.531 46.4865 20.4045 45.841 20.4475 45.141C30.14 36.5795 31.5955 47.2005 36.6845 42.0785C33.383 42.6905 31.4165 43.407 28.93 40.542C25.949 40.6495 23.554 40.6875 20.574 40.5715C16.9175 39.2075 9.50298 36.386 6.72548 33.6405C6.18998 31.553 4.40099 30.2855 4.73099 28.3255L5.29448 27.7885L6.21599 30.182L6.64748 30.055C6.23048 28.3525 5.79949 27.985 6.41199 26.698L6.82198 26.6025C7.09748 28.2885 7.22748 29.6515 8.82948 30.4265L9.91647 30.839L9.61798 32.0765L8.86848 33.1615L9.62949 33.592C12.3995 35.6405 17.855 37.6085 21.0755 38.8145L23.748 38.124C24.0915 37.437 24.28 37.1335 24.4515 36.3645L24.644 37.0765L25.006 37.2485C25.567 37.5215 25.764 37.7015 26.2505 38.0865L26.9835 37.1905L28.9745 35.0515L29.5715 36.9645C30.743 33.924 37.103 33.9995 40.094 33.839L41.5535 34.5795L42.4055 34.8515L42.8715 33.899L42.205 31.773C41.487 29.929 40.6435 28.723 40.997 27.017C42.118 26.185 43.2575 26.2985 44.705 26.213L46.5835 25.6185C46.634 25.137 46.74 25.03 46.572 24.734L46.338 23.0965C44.641 11.7915 36.751 10.456 26.9875 7.75699C26.7015 9.17549 26.1135 9.87599 25.309 11.048L24.3825 11.257L23.588 10.942C22.943 9.80199 22.3225 8.52349 21.423 7.60199L19.733 8.20949L11.863 10.0535L11.3665 8.57399C14.038 8.15399 16.183 7.54949 18.781 6.85149C22.086 6.16599 23.578 6.02449 26.959 5.86349C29.9525 7.39499 35.166 8.75099 38.8485 10.4125C43.0175 12.8205 40.1865 10.6825 43.1205 11.521C44.913 15.832 44.5255 13.687 46.683 14.663C48.4915 17.5045 48.419 19.46 49.1795 22.7835Z"
    fill="#C7C2BF"
  />
  <path
    d="M36.6845 42.0785C33.383 42.6905 31.4165 43.407 28.93 40.542C32.3015 39.808 40.7395 36.5675 43.034 37.0405L42.7645 37.9055C40.626 40.1345 39.3745 40.6695 36.6845 42.0785Z"
    fill="#FEFEFE"
  />
  <path
    d="M41.5535 34.5796C39.402 36.2466 33.155 38.1941 30.3065 37.9296L29.5715 36.9646C30.743 33.9241 37.103 33.9996 40.094 33.8391L41.5535 34.5796Z"
    fill="#EDE9E2"
  />
  <path
    d="M44.7049 26.2132C45.2734 26.4742 45.4084 26.6542 45.8874 27.0542C45.9679 29.3982 45.3444 32.9297 42.8714 33.8992L42.2049 31.7732C41.4869 29.9292 40.6434 28.7232 40.9969 27.0172C42.1179 26.1852 43.2574 26.2987 44.7049 26.2132Z"
    fill="#E1DAD2"
  />
  <path
    d="M24.3826 11.2571L23.5881 10.9421C22.9431 9.80208 22.3226 8.52358 21.4231 7.60208C23.8521 7.29858 24.5356 7.41558 26.9876 7.75708C26.7016 9.17558 26.1136 9.87608 25.3091 11.0481L24.3826 11.2571Z"
    fill="#CCC4BF"
  />
  <path
    d="M20.5738 40.5717L22.9499 41.2082L23.2994 41.8742C22.1349 43.1892 18.5684 43.4687 16.8099 43.6077C12.9559 41.7732 6.40485 38.7802 6.72535 33.6407C9.50285 36.3862 16.9173 39.2077 20.5738 40.5717Z"
    fill="#FEFEFE"
  />
  <path
    d="M11.3666 8.57417C10.0166 9.13217 8.30505 10.0357 6.93655 9.74318C6.76905 7.97868 8.88755 6.43918 10.1571 5.27968C12.5231 5.21618 15.7381 4.94918 17.9311 5.59418L18.781 6.85167C16.183 7.54967 14.0381 8.15417 11.3666 8.57417Z"
    fill="#EDE9E2"
  />
  <path
    d="M26.9589 5.86336C29.1564 4.24336 36.5779 6.01385 38.5729 8.02635C38.4449 9.04535 38.4739 9.45435 38.8484 10.4124C35.1659 8.75085 29.9524 7.39486 26.9589 5.86336Z"
    fill="#EDE9E2"
  />
</svg>
