<svg
  width="46"
  height="43"
  viewBox="0 0 46 43"
  fill="none"
  xmlns="http://www.w3.org/2000/svg"
>
  <path
    d="M17.1711 42.6179C16.6636 42.7929 16.2592 42.8514 15.7227 42.8504C12.0977 42.8429 8.70115 41.7914 6.11315 39.1789C1.50565 34.5274 -0.0173512 28.0789 0.000148773 21.7224C0.0166488 15.6449 1.31815 8.01742 5.85315 3.60442C11.0282 -1.43158 20.9682 0.22043 27.6447 0.40543C31.9877 0.35743 35.4312 0.603426 38.9472 3.42643C42.8432 6.55443 44.6517 11.7174 45.1562 16.5514C45.8296 23.0009 44.7522 31.0359 40.5072 36.1744C35.1902 42.6104 24.8181 41.9279 17.1711 42.6179Z"
    fill="#545257"
  />
  <path
    d="M10.1001 1.33555C16.6206 0.705548 35.0486 -0.16995 39.3141 4.91555C46.1804 12.8196 45.6332 30.223 38.0021 37.3745C34.0856 41.045 16.7371 41.681 11.1481 41.277C6.35414 38.4345 4.24814 36.0795 2.32714 30.924C0.294141 25.6745 0.79564 18.0391 2.28714 12.6856C3.47664 7.18655 5.81864 4.52655 10.1001 1.33555Z"
    fill="#ADA49D"
  />
  <path
    d="M10.1001 1.33555C16.6206 0.705548 35.0486 -0.16995 39.3141 4.91555C46.1804 12.8196 45.6332 30.223 38.0021 37.3745C34.0856 41.045 16.7371 41.681 11.1481 41.277C6.35414 38.4345 4.24814 36.0795 2.32714 30.924C5.50164 33.4245 3.39814 34.9135 8.44514 35.964C11.7736 38.5405 17.6861 40.4541 20.6626 36.3191C21.9961 36.1831 23.9391 36.0471 25.2071 35.8346C28.6446 35.7476 35.4481 34.718 37.6766 31.9405L37.4186 31.1285L37.7971 30.1415C40.0206 28.167 40.3496 26.3561 40.9181 23.4591C41.5881 19.8686 41.3711 18.688 40.9196 15.038L40.5251 14.8285C40.3381 16.577 40.0751 18.1805 39.7876 19.915C39.6811 18.3475 39.7861 16.9646 38.7556 15.8211L37.6021 15.2985L38.0151 13.9045L37.6271 13.4396C35.9706 14.5821 34.2026 16.015 32.2701 16.4255C30.3871 15.92 29.9226 15.5735 29.5431 13.456C28.8671 12.3695 28.2091 11.2725 27.5686 10.1645L27.2046 10.6726C26.3136 9.79205 26.7641 10.0226 25.4826 9.83656C23.9191 9.65806 23.5181 9.98455 22.1741 10.7105C21.7721 9.63405 21.4656 7.71255 21.0356 7.21955L18.7621 7.57905C17.7526 6.65405 16.6601 6.74354 15.2981 6.66454C16.6441 6.20304 17.9861 5.72855 19.3226 5.24105C14.1361 0.377051 5.16464 8.52455 2.28714 12.6856C3.47664 7.18655 5.81864 4.52655 10.1001 1.33555Z"
    fill="#D5CFCC"
  />
  <path
    d="M29.543 13.4559C28.867 12.3694 28.209 11.2724 27.5685 10.1644L27.2045 10.6724C26.3135 9.79191 26.764 10.0224 25.4825 9.83641C23.919 9.65791 23.518 9.9844 22.174 10.7104C21.772 9.6339 21.4655 7.71241 21.0355 7.21941C26.6235 4.10491 28.4475 9.3929 29.543 13.4559Z"
    fill="#CCC4BF"
  />
  <path
    d="M20.6626 36.3189C17.6861 40.4539 11.7736 38.5404 8.44507 35.9639C3.39807 34.9134 5.50158 33.4244 2.32708 30.9239C0.294076 25.6744 0.795575 18.0389 2.28708 12.6854C5.16458 8.52441 14.1361 0.376906 19.3226 5.24091C17.9861 5.72841 16.6441 6.2029 15.2981 6.6644C16.6601 6.7434 17.7526 6.6539 18.7621 7.5789C9.19407 9.1919 5.11358 12.3444 3.94358 22.3984L3.95807 23.0709L5.32507 23.7359L7.96107 23.7919C8.79557 25.2279 6.61107 26.1354 6.54507 29.8189L6.54058 30.2764C11.7721 30.6729 14.7151 29.3339 18.1691 34.8419L19.1011 34.7834L20.5251 34.8404C22.0751 35.9519 23.1476 35.7009 25.2071 35.8344C23.9391 36.0469 21.9961 36.1829 20.6626 36.3189Z"
    fill="#CECAC7"
  />
  <path
    d="M18.169 34.8419C11.7645 34.8219 3.98349 33.4929 4.13349 25.5594C4.14049 25.2334 4.15249 24.9069 4.17049 24.5814C4.66749 24.1184 4.70949 23.9769 5.32499 23.7359L7.96099 23.7919C8.79549 25.2279 6.61099 26.1354 6.54499 29.8189L6.54049 30.2764C11.772 30.6729 14.715 29.3339 18.169 34.8419Z"
    fill="#EDE5DF"
  />
  <path
    d="M20.6626 36.3189C17.6861 40.4539 11.7736 38.5404 8.44514 35.9639C8.32964 35.1834 8.22564 35.2759 7.67214 34.5529L7.76764 34.2234C14.3521 35.7509 12.5536 36.2919 20.6626 36.3189Z"
    fill="#EDE9E2"
  />
  <path
    d="M37.4185 31.1283C33.263 33.9533 27.8895 34.8623 22.9495 34.3638L22.836 33.7593C24.8775 28.6838 23.321 27.3903 24.086 22.8553C24.9145 22.4968 25.5795 22.2413 26.344 21.7523L26.0805 21.8238C25.981 21.6823 25.757 21.3788 25.6735 21.2398L26.0725 21.1803L25.681 21.0848C26.503 20.4238 28.064 19.9293 29.101 19.5308L31.9475 20.1748C33.7485 21.4113 34.583 21.7303 36.6215 22.5703C37.703 22.3858 38.553 22.2683 39.6455 22.1678L40.918 23.4588C40.3495 26.3558 40.0205 28.1668 37.797 30.1413L37.4185 31.1283Z"
    fill="#E1DAD2"
  />
  <path
    d="M37.4187 31.1283C33.2632 33.9533 27.8897 34.8623 22.9497 34.3638C25.5387 32.2028 33.1337 30.2293 36.5272 29.5903C36.8762 29.7278 37.5157 29.9463 37.7972 30.1413L37.4187 31.1283Z"
    fill="#EDE9E2"
  />
  <path
    d="M35.4322 26.7289C30.8882 22.7559 30.2567 22.4759 24.0862 22.8554C24.9147 22.4969 25.5797 22.2414 26.3442 21.7524L26.0807 21.8239C25.9812 21.6824 25.7572 21.3789 25.6737 21.2399L26.0727 21.1804L25.6812 21.0849C26.5032 20.4239 28.0642 19.9294 29.1012 19.5309L31.9477 20.1749C33.3512 22.7894 34.3427 23.6234 35.4322 26.7289Z"
    fill="#CCC4BF"
  />
  <path
    d="M36.6217 22.5704L37.6527 24.0554C37.8777 25.6529 37.8787 25.8514 37.2207 27.3604L36.3647 27.6654L35.4322 26.7289C34.3427 23.6234 33.3512 22.7894 31.9477 20.1749C33.7487 21.4114 34.5832 21.7304 36.6217 22.5704Z"
    fill="#B7B2AB"
  />
  <path
    d="M4.80103 22.2123L3.94353 22.3983C5.11353 12.3443 9.19403 9.19178 18.762 7.57878L21.0355 7.21928C21.4655 7.71228 21.772 9.63378 22.174 10.7103C22.443 12.2698 22.76 14.8058 21.975 16.2143C21.3715 17.3093 20.307 18.0743 19.0765 18.2968C15.847 18.8908 13.4105 17.1593 11.0375 15.4418L9.87152 14.9433C9.11252 17.4328 7.16653 21.0913 4.80103 22.2123Z"
    fill="#EDE9E2"
  />
  <path
    d="M19.1011 34.7834L18.1691 34.8419C14.7151 29.3339 11.7721 30.6729 6.54057 30.2764C7.28357 28.3334 7.82756 28.4464 8.86956 27.1579C12.7561 22.3519 20.4426 24.3139 19.5036 31.0604C19.2921 32.5784 20.0686 32.9674 19.1011 34.7834Z"
    fill="#E1DAD2"
  />
  <path
    d="M20.0551 21.393C13.6756 21.728 12.6036 21.9 11.0376 15.442C13.4106 17.1595 15.8471 18.891 19.0766 18.297C20.3071 18.0745 21.3716 17.3095 21.9751 16.2145C22.7601 14.806 22.4431 12.27 22.1741 10.7105C23.5181 9.98453 23.9191 9.65804 25.4826 9.83654C24.8556 17.121 27.8901 17.0195 20.0551 21.393Z"
    fill="#C1BCB7"
  />
  <path
    d="M33.7607 18.5589L33.4857 18.5309C31.2612 18.3169 29.9572 18.2769 27.5897 17.9494C26.2702 16.0019 27.1467 13.2309 27.2047 10.6724L27.5687 10.1644C28.2092 11.2724 28.8672 12.3694 29.5432 13.4559C29.9227 15.5734 30.3872 15.9199 32.2702 16.4254C34.2027 16.0149 35.9707 14.5819 37.6272 13.4394L38.0152 13.9044L37.6022 15.2984C36.1977 16.6634 35.3272 17.3739 33.7607 18.5589Z"
    fill="#C1BCB7"
  />
  <path
    d="M22.8361 33.7594L21.5426 33.3289C20.3371 26.6954 20.3361 19.6359 28.7221 19.5294L29.1011 19.5309C28.0641 19.9294 26.5031 20.4239 25.6811 21.0849L26.0726 21.1804L25.6736 21.2399C25.7571 21.3789 25.9811 21.6824 26.0806 21.8239L26.3441 21.7524C25.5796 22.2414 24.9146 22.4969 24.0861 22.8554C23.3211 27.3904 24.8776 28.6839 22.8361 33.7594Z"
    fill="#C1BCB7"
  />
  <path
    d="M39.7876 19.915L39.5746 20.6055C37.2236 21.5835 34.5341 21.3445 33.7606 18.559C35.3271 17.374 36.1976 16.6635 37.6021 15.2985L38.7556 15.821C39.7861 16.9645 39.6811 18.3475 39.7876 19.915Z"
    fill="#CCC4BF"
  />
  <path
    d="M11.7981 21.5242L4.80114 22.2122C7.16664 21.0912 9.11263 17.4328 9.87163 14.9433C10.1026 17.5503 10.7916 19.1972 11.7981 21.5242Z"
    fill="#CCC4BF"
  />
</svg>
