<svg
  width="46"
  height="43"
  viewBox="0 0 46 43"
  fill="none"
  xmlns="http://www.w3.org/2000/svg"
>
  <path
    d="M28.1702 0.232511C28.6777 0.0575107 29.0822 -0.000987428 29.6187 1.25718e-05C33.2437 0.00751257 36.6402 1.05901 39.2282 3.67151C43.8357 8.32301 45.3587 14.7715 45.3412 21.128C45.3247 27.2055 44.0232 34.833 39.4882 39.246C34.3132 44.282 24.3732 42.63 17.6967 42.445C13.3537 42.493 9.9102 42.247 6.3942 39.424C2.4982 36.296 0.689698 31.133 0.185198 26.299C-0.488202 19.8495 0.5892 11.8145 4.8342 6.67601C10.1512 0.240007 20.5232 0.922511 28.1702 0.232511Z"
    fill="#545257"
  />
  <path
    d="M35.2412 41.5149C28.7207 42.1449 10.2927 43.0204 6.02721 37.9349C-0.839038 30.0309 -0.291888 12.6274 7.33921 5.47588C11.2557 1.80538 28.6042 1.16939 34.1932 1.57339C38.9872 4.41589 41.0932 6.77088 43.0142 11.9264C45.0472 17.1759 44.5457 24.8114 43.0542 30.1649C41.8647 35.6639 39.5227 38.3239 35.2412 41.5149Z"
    fill="#ADA49D"
  />
  <path
    d="M35.2412 41.5149C28.7207 42.1449 10.2927 43.0204 6.02721 37.9349C-0.839038 30.0309 -0.291888 12.6274 7.33921 5.47588C11.2557 1.80538 28.6042 1.16939 34.1932 1.57339C38.9872 4.41589 41.0932 6.77088 43.0142 11.9264C39.8397 9.42588 41.9432 7.93689 36.8962 6.88639C33.5677 4.30989 27.6552 2.39638 24.6787 6.53138C23.3452 6.66738 21.4022 6.80338 20.1342 7.01588C16.6967 7.10288 9.89321 8.13239 7.66471 10.9099L7.92271 11.7219L7.54421 12.7089C5.32071 14.6834 4.99171 16.4944 4.42321 19.3914C3.75321 22.9819 3.97021 24.1624 4.42171 27.8124L4.81621 28.0219C5.00321 26.2734 5.26621 24.6699 5.55371 22.9354C5.66021 24.5029 5.55521 25.8859 6.58571 27.0294L7.73921 27.5519L7.32621 28.9459L7.71421 29.4109C9.37071 28.2684 11.1387 26.8354 13.0712 26.4249C14.9542 26.9304 15.4187 27.2769 15.7982 29.3944C16.4742 30.4809 17.1322 31.5779 17.7727 32.6859L18.1367 32.1779C19.0277 33.0584 18.5772 32.8279 19.8587 33.0139C21.4222 33.1924 21.8232 32.8659 23.1672 32.1399C23.5692 33.2164 23.8757 35.1379 24.3057 35.6309L26.5792 35.2714C27.5887 36.1964 28.6812 36.1069 30.0432 36.1859C28.6972 36.6474 27.3552 37.1219 26.0187 37.6094C31.2052 42.4734 40.1767 34.3259 43.0542 30.1649C41.8647 35.6639 39.5227 38.3239 35.2412 41.5149Z"
    fill="#D5CFCC"
  />
  <path
    d="M15.7983 29.3945C16.4743 30.481 17.1323 31.578 17.7728 32.686L18.1368 32.178C19.0278 33.0585 18.5773 32.828 19.8588 33.014C21.4223 33.1925 21.8233 32.866 23.1673 32.14C23.5693 33.2165 23.8758 35.138 24.3058 35.631C18.7178 38.7455 16.8938 33.4575 15.7983 29.3945Z"
    fill="#CCC4BF"
  />
  <path
    d="M24.6788 6.53153C27.6553 2.39652 33.5678 4.31004 36.8963 6.88654C41.9433 7.93704 39.8398 9.42603 43.0143 11.9265C45.0473 17.176 44.5458 24.8115 43.0543 30.165C40.1768 34.326 31.2053 42.4735 26.0188 37.6095C27.3553 37.122 28.6973 36.6475 30.0433 36.186C28.6813 36.107 27.5888 36.1965 26.5793 35.2715C36.1473 33.6585 40.2278 30.506 41.3978 20.452L41.3833 19.7795L40.0163 19.1145L37.3803 19.0585C36.5458 17.6225 38.7303 16.715 38.7963 13.0315L38.8008 12.574C33.5693 12.1775 30.6263 13.5165 27.1723 8.00853L26.2403 8.06703L24.8163 8.01003C23.2663 6.89853 22.1938 7.14952 20.1343 7.01602C21.4023 6.80352 23.3453 6.66753 24.6788 6.53153Z"
    fill="#CECAC7"
  />
  <path
    d="M27.1724 8.00854C33.5769 8.02854 41.3579 9.35755 41.2079 17.291C41.2009 17.617 41.1889 17.9435 41.1709 18.269C40.6739 18.732 40.6319 18.8735 40.0164 19.1145L37.3804 19.0585C36.5459 17.6225 38.7304 16.715 38.7964 13.0315L38.8009 12.5741C33.5694 12.1776 30.6264 13.5165 27.1724 8.00854Z"
    fill="#EDE5DF"
  />
  <path
    d="M24.6787 6.53153C27.6552 2.39652 33.5677 4.31004 36.8962 6.88654C37.0117 7.66704 37.1157 7.57453 37.6692 8.29753L37.5737 8.62703C30.9892 7.09953 32.7877 6.55853 24.6787 6.53153Z"
    fill="#EDE9E2"
  />
  <path
    d="M7.92284 11.7222C12.0783 8.89716 17.4518 7.98815 22.3918 8.48665L22.5053 9.09116C20.4638 14.1667 22.0203 15.4602 21.2553 19.9952C20.4268 20.3537 19.7618 20.6091 18.9973 21.0981L19.2608 21.0267C19.3603 21.1682 19.5843 21.4717 19.6678 21.6107L19.2688 21.6702L19.6603 21.7657C18.8383 22.4267 17.2773 22.9212 16.2403 23.3197L13.3938 22.6756C11.5928 21.4391 10.7583 21.1202 8.71984 20.2802C7.63834 20.4647 6.78834 20.5822 5.69584 20.6827L4.42334 19.3917C4.99184 16.4947 5.32084 14.6837 7.54434 12.7092L7.92284 11.7222Z"
    fill="#E1DAD2"
  />
  <path
    d="M7.92269 11.7222C12.0782 8.89716 17.4517 7.98815 22.3917 8.48665C19.8027 10.6477 12.2077 12.6212 8.81419 13.2602C8.46519 13.1227 7.82569 12.9042 7.54419 12.7092L7.92269 11.7222Z"
    fill="#EDE9E2"
  />
  <path
    d="M9.90918 16.1216C14.4532 20.0946 15.0847 20.3746 21.2552 19.9951C20.4267 20.3536 19.7617 20.6091 18.9972 21.0981L19.2607 21.0266C19.3602 21.1681 19.5842 21.4716 19.6677 21.6106L19.2687 21.6701L19.6602 21.7656C18.8382 22.4266 17.2772 22.9211 16.2402 23.3196L13.3937 22.6756C11.9902 20.0611 10.9987 19.2271 9.90918 16.1216Z"
    fill="#CCC4BF"
  />
  <path
    d="M8.7197 20.2801L7.6887 18.7951C7.4637 17.1976 7.4627 16.9991 8.1207 15.4901L8.9767 15.1851L9.9092 16.1216C10.9987 19.2271 11.9902 20.0611 13.3937 22.6756C11.5927 21.4391 10.7582 21.1201 8.7197 20.2801Z"
    fill="#B7B2AB"
  />
  <path
    d="M40.5403 20.6382L41.3978 20.4521C40.2278 30.5061 36.1473 33.6587 26.5793 35.2717L24.3058 35.6311C23.8758 35.1381 23.5693 33.2167 23.1673 32.1402C22.8983 30.5807 22.5813 28.0447 23.3663 26.6362C23.9698 25.5412 25.0343 24.7761 26.2648 24.5536C29.4943 23.9596 31.9308 25.6911 34.3038 27.4086L35.4698 27.9072C36.2288 25.4177 38.1748 21.7592 40.5403 20.6382Z"
    fill="#EDE9E2"
  />
  <path
    d="M26.2403 8.06705L27.1723 8.00854C30.6263 13.5165 33.5693 12.1776 38.8008 12.5741C38.0578 14.5171 37.5138 14.4041 36.4718 15.6926C32.5853 20.4986 24.8988 18.5365 25.8378 11.79C26.0493 10.272 25.2728 9.88305 26.2403 8.06705Z"
    fill="#E1DAD2"
  />
  <path
    d="M25.2863 21.4574C31.6658 21.1224 32.7378 20.9504 34.3038 27.4084C31.9308 25.6909 29.4943 23.9594 26.2648 24.5534C25.0343 24.7759 23.9698 25.5409 23.3663 26.6359C22.5813 28.0444 22.8983 30.5804 23.1673 32.1399C21.8233 32.8659 21.4223 33.1924 19.8588 33.0139C20.4858 25.7294 17.4513 25.8309 25.2863 21.4574Z"
    fill="#C1BCB7"
  />
  <path
    d="M11.5807 24.2915L11.8557 24.3195C14.0802 24.5335 15.3842 24.5735 17.7517 24.901C19.0712 26.8485 18.1947 29.6195 18.1367 32.178L17.7727 32.686C17.1322 31.578 16.4742 30.481 15.7982 29.3945C15.4187 27.277 14.9542 26.9305 13.0712 26.425C11.1387 26.8355 9.37067 28.2685 7.71417 29.411L7.32617 28.946L7.73917 27.552C9.14367 26.187 10.0142 25.4765 11.5807 24.2915Z"
    fill="#C1BCB7"
  />
  <path
    d="M22.5052 9.09106L23.7987 9.52156C25.0042 16.1551 25.0052 23.2146 16.6192 23.3211L16.2402 23.3196C17.2772 22.9211 18.8382 22.4266 19.6602 21.7656L19.2687 21.6701L19.6677 21.6106C19.5842 21.4716 19.3602 21.1681 19.2607 21.0266L18.9972 21.0981C19.7617 20.6091 20.4267 20.3536 21.2552 19.9951C22.0202 15.4601 20.4637 14.1666 22.5052 9.09106Z"
    fill="#C1BCB7"
  />
  <path
    d="M5.55371 22.9354L5.76671 22.2449C8.11771 21.2669 10.8072 21.5059 11.5807 24.2914C10.0142 25.4764 9.14371 26.1869 7.73921 27.5519L6.58571 27.0294C5.55521 25.8859 5.66021 24.5029 5.55371 22.9354Z"
    fill="#CCC4BF"
  />
  <path
    d="M33.5432 21.3262L40.5402 20.6382C38.1747 21.7592 36.2287 25.4177 35.4697 27.9072C35.2387 25.3002 34.5497 23.6532 33.5432 21.3262Z"
    fill="#CCC4BF"
  />
</svg>
