<svg
  width="51"
  height="49"
  viewBox="0 0 51 49"
  fill="none"
  xmlns="http://www.w3.org/2000/svg"
>
  <path
    d="M30.7865 0.035796C31.5035 0.00479596 32.221 -0.00619 32.9385 0.00331C37.23 0.07831 41.065 1.7698 44.0155 4.8838C49.7175 10.9018 50.7025 21.3403 50.4135 29.2228C50.2035 34.9433 48.243 40.4263 43.924 44.3553C37.4895 50.2088 29.5225 48.0138 21.7165 47.6043C16.4845 47.4583 12.09 46.8628 7.85 43.4083C3.3155 39.7143 0.842503 34.3308 0.258003 28.6008C-0.459997 21.5683 0.100999 12.4773 4.7855 6.8213C11.137 -0.847197 21.919 0.971796 30.7865 0.035796Z"
    fill="#737071"
  />
  <path
    d="M31.5376 1.22046C36.3751 1.34796 40.2361 2.03596 43.6031 5.72296C48.6561 11.2555 49.6606 22.699 49.4101 29.7095C48.9131 43.64 39.2451 48.726 26.5711 46.958C18.9511 45.8955 11.7016 47.249 5.77956 40.333C2.27756 36.36 0.958053 30.735 1.27905 25.5625L0.812553 25.203C0.584553 21.156 2.34655 11.819 4.87206 8.33646C11.1936 -0.378544 21.2036 3.20096 31.5376 1.22046Z"
    fill="#D5CFCC"
  />
  <path
    d="M24.2081 10.2592C24.6946 10.6442 24.8916 10.8242 25.4526 11.0972L25.8146 11.2692L26.0071 11.9812C26.1786 11.2122 26.3671 10.9087 26.7106 10.2217L29.3831 9.53125C32.6036 10.7372 38.0591 12.7052 40.8291 14.7537L41.5901 15.1842L40.8406 16.2692L40.5421 17.5067L41.6291 17.9193C43.2311 18.6943 43.3611 20.0572 43.6366 21.7432L44.3686 22.5867L45.1386 23.1487C50.0321 25.6597 47.3316 35.8642 42.4091 37.2772C41.1471 37.6397 39.8706 37.9867 38.5956 38.2922L30.7256 40.1362L29.0356 40.7437C28.1361 39.8222 27.5156 38.5437 26.8706 37.4037L26.0761 37.0887L25.1496 37.2977C24.3451 38.4697 23.7571 39.1702 23.4711 40.5887C13.7076 37.8897 5.81759 36.5542 4.12059 25.2492L3.88659 23.6117C3.71859 23.3157 3.82459 23.2087 3.87509 22.7272L5.75359 22.1327C7.20109 22.0472 8.34059 22.1608 9.46159 21.3288C9.81509 19.6228 8.97159 18.4167 8.25359 16.5727L7.58709 14.4467L8.05309 13.4942L8.90509 13.7663L10.3646 14.5067C13.3556 14.3462 19.7156 14.4217 20.8871 11.3812L21.4841 13.2943L23.4751 11.1552L24.2081 10.2592Z"
    fill="#ADA49D"
  />
  <path
    d="M45.1386 23.1489C50.0321 25.6599 47.3316 35.8644 42.4091 37.2774C41.1471 37.6399 39.8706 37.9869 38.5956 38.2924L30.7256 40.1364L29.0356 40.7439C28.1361 39.8224 27.5156 38.5439 26.8706 37.4039C31.2661 35.4454 28.2751 34.7869 31.2101 31.2374C32.2426 29.5639 31.7536 29.8504 33.3606 29.0524C36.4561 29.6059 36.1556 31.7374 39.8971 32.2129L41.5311 33.5599L42.0246 34.1134C42.9306 30.6374 42.6086 27.8484 44.1396 24.1244L45.1386 23.1489Z"
    fill="#EDE9E2"
  />
  <path
    d="M31.2102 31.2372C32.2427 29.5637 31.7537 29.8502 33.3607 29.0522C36.4562 29.6057 36.1557 31.7372 39.8972 32.2127L41.5312 33.5597L42.0247 34.1133L40.7962 34.4742C39.7927 34.0902 31.8587 31.6392 31.4152 31.7082L31.2102 31.2372Z"
    fill="#EDE5DF"
  />
  <path
    d="M31.2101 31.2373L31.4151 31.7083C31.3751 34.4348 30.2541 38.9073 30.7256 40.1363L29.0356 40.7438C28.1361 39.8223 27.5156 38.5438 26.8706 37.4038C31.2661 35.4453 28.2751 34.7868 31.2101 31.2373Z"
    fill="#D5CFCC"
  />
  <path
    d="M20.8872 11.3813L21.4842 13.2943L23.4752 11.1553C24.1957 14.2598 25.3682 20.1228 26.2972 22.9518C20.1682 24.1258 18.8187 24.4233 12.7762 23.2818C11.7422 21.2328 10.2327 17.5583 8.25366 16.5728L7.58716 14.4468L8.05316 13.4943L8.90516 13.7663L10.3647 14.5068C13.3557 14.3463 19.7157 14.4218 20.8872 11.3813Z"
    fill="#CCC4BF"
  />
  <path
    d="M20.887 11.3813L21.484 13.2944L22.5515 21.8309C15.867 21.8754 13.465 20.9574 10.3645 14.5069C13.3555 14.3464 19.7155 14.4218 20.887 11.3813Z"
    fill="#E1DAD2"
  />
  <path
    d="M4.12061 25.2495C10.2236 27.032 4.88061 30.3975 10.1211 32.4515C13.7386 34.2805 12.8241 28.4185 19.7936 28.106C21.8061 28.2735 21.4946 27.9315 22.7161 29.072C23.6776 31.9215 22.0441 35.2815 23.7611 36.814L25.1496 37.298C24.3451 38.47 23.7571 39.1705 23.4711 40.589C13.7076 37.89 5.81761 36.5545 4.12061 25.2495Z"
    fill="#EDE9E2"
  />
  <path
    d="M19.7937 28.106C21.8062 28.2735 21.4947 27.9315 22.7162 29.072C23.6777 31.9215 22.0442 35.2814 23.7612 36.8139C22.1212 36.9769 22.4222 37.195 21.1842 36.506C19.9957 34.116 20.6202 31.4045 19.8797 28.4385L19.7937 28.106Z"
    fill="#E1DAD2"
  />
  <path
    d="M26.7107 10.2217L29.3832 9.53125C32.6037 10.7372 38.0592 12.7052 40.8292 14.7537L41.5902 15.1842L40.8407 16.2692C37.4027 17.0067 30.9542 30.4747 26.7107 10.2217Z"
    fill="#E1DAD2"
  />
  <path
    d="M29.3831 9.53125C32.6036 10.7372 38.0591 12.7052 40.8291 14.7537C37.1011 17.6952 31.3876 13.0547 29.3831 9.53125Z"
    fill="#EDE9E2"
  />
  <path
    d="M13.3391 24.7402C19.6076 26.0217 20.7376 25.3312 26.7006 25.0362C26.7626 28.4242 26.6611 33.7532 26.0761 37.0887L25.1496 37.2977L23.7611 36.8137C22.0441 35.2812 23.6776 31.9212 22.7161 29.0717C21.4946 27.9312 21.8061 28.2732 19.7936 28.1057C12.8241 28.4182 13.7386 34.2802 10.1211 32.4512L10.3351 32.0477C11.7671 30.8127 12.6156 26.8242 13.3391 24.7402Z"
    fill="#CCC4BF"
  />
  <path
    d="M24.208 10.2594C24.6945 10.6444 24.8915 10.8244 25.4525 11.0974L25.8145 11.2694L26.007 11.9814C26.1785 11.2124 26.367 10.9089 26.7105 10.2219C30.954 30.4749 37.4025 17.0069 40.8405 16.2694L40.542 17.5069C38.0805 26.5744 35.5155 26.2354 27.7765 23.4204C27.069 19.9189 26.062 13.0364 24.208 10.2594Z"
    fill="#CCC4BF"
  />
  <path
    d="M26.8706 37.4039C28.5316 34.5674 28.0931 29.1109 28.0611 25.6509C29.5491 24.8594 29.9951 25.8839 31.3771 26.0259C37.8756 26.6944 36.7311 26.7349 39.8971 32.2129C36.1556 31.7374 36.4561 29.6059 33.3606 29.0524C31.7536 29.8504 32.2426 29.5639 31.2101 31.2374C28.2751 34.7869 31.2661 35.4454 26.8706 37.4039Z"
    fill="#E3DDC7"
  />
  <path
    d="M3.88647 23.612C6.93897 23.5985 9.29348 23.2945 12.217 23.167C11.401 26.007 10.294 29.135 10.335 32.048L10.121 32.4515C4.88048 30.3975 10.2235 27.032 4.12048 25.2495L3.88647 23.612Z"
    fill="#E1DAD2"
  />
  <path
    d="M37.9285 25.7085C40.145 25.068 41.882 24.619 44.1395 24.1245C42.6085 27.8485 42.9305 30.6375 42.0245 34.1135L41.531 33.56C41.9105 31.646 39.128 27.911 37.9285 25.7085Z"
    fill="#CCC4BF"
  />
  <path
    d="M41.6292 17.9194C43.2312 18.6944 43.3612 20.0574 43.6367 21.7434L44.3687 22.5869C42.9687 22.9009 41.5567 23.4174 40.3042 22.7954C40.0287 21.0814 40.9147 19.7304 41.6292 17.9194Z"
    fill="#E3DDC7"
  />
  <path
    d="M1.27905 25.5625L0.812553 25.203C0.584553 21.156 2.34655 11.819 4.87206 8.33646C11.1936 -0.378544 21.2036 3.20096 31.5376 1.22046C30.9276 1.85946 30.0541 2.50496 30.0111 3.20496C20.3186 11.7665 18.8631 1.14546 13.7741 6.26746C17.0756 5.65546 19.0421 4.93896 21.5286 7.80396C24.5096 7.69646 26.9046 7.65846 29.8846 7.77446C33.5411 9.13846 40.9556 11.96 43.7331 14.7055C44.2686 16.793 46.0575 18.0605 45.7275 20.0205L45.1641 20.5574L44.2425 18.164L43.8111 18.291C44.2281 19.9935 44.659 20.361 44.0465 21.648L43.6366 21.7435C43.3611 20.0575 43.2311 18.6945 41.6291 17.9195L40.5421 17.507L40.8406 16.2695L41.59 15.1845L40.829 14.754C38.059 12.7055 32.6035 10.7375 29.383 9.53146L26.7105 10.222C26.367 10.909 26.1786 11.2125 26.0071 11.9815L25.8146 11.2695L25.4526 11.0975C24.8916 10.8245 24.6945 10.6445 24.208 10.2595L23.4751 11.1555L21.484 13.2945L20.887 11.3815C19.7155 14.422 13.3556 14.3465 10.3646 14.507L8.90505 13.7665L8.05305 13.4945L7.58705 14.447L8.25356 16.573C8.97156 18.417 9.81506 19.623 9.46156 21.329C8.34056 22.161 7.20106 22.0474 5.75356 22.1329L3.87505 22.7275C3.82455 23.209 3.71855 23.316 3.88655 23.612L4.12055 25.2495C5.81755 36.5545 13.7075 37.89 23.471 40.589C23.757 39.1705 24.3451 38.47 25.1496 37.298L26.0761 37.089L26.8706 37.404C27.5156 38.544 28.1361 39.8225 29.0356 40.744L30.7255 40.1365L38.5956 38.2924L39.092 39.772C36.4205 40.192 34.2756 40.7965 31.6776 41.4945C28.3726 42.18 26.8805 42.3215 23.4995 42.4825C20.506 40.951 15.2926 39.595 11.6101 37.9335C7.44105 35.5255 10.2721 37.6635 7.33805 36.825C5.54555 32.514 5.93305 34.659 3.77555 33.683C1.96705 30.8415 2.03955 28.886 1.27905 25.5625Z"
    fill="#C7C2BF"
  />
  <path
    d="M13.7741 6.26748C17.0756 5.65548 19.0421 4.93898 21.5286 7.80398C18.1571 8.53798 9.71906 11.7785 7.42456 11.3055L7.69406 10.4405C9.83256 8.21149 11.0841 7.67648 13.7741 6.26748Z"
    fill="#FEFEFE"
  />
  <path
    d="M8.90503 13.7664C11.0565 12.0994 17.3035 10.1519 20.152 10.4164L20.887 11.3814C19.7155 14.4219 13.3555 14.3464 10.3645 14.5069L8.90503 13.7664Z"
    fill="#EDE9E2"
  />
  <path
    d="M5.75366 22.1328C5.18516 21.8718 5.05016 21.6918 4.57116 21.2918C4.49066 18.9478 5.11416 15.4163 7.58716 14.4468L8.25366 16.5728C8.97166 18.4168 9.81516 19.6228 9.46166 21.3288C8.34066 22.1608 7.20116 22.0473 5.75366 22.1328Z"
    fill="#E1DAD2"
  />
  <path
    d="M26.076 37.0889L26.8705 37.4039C27.5155 38.5439 28.136 39.8224 29.0355 40.7439C26.6065 41.0474 25.9229 40.9304 23.4709 40.5889C23.7569 39.1704 24.345 38.4699 25.1495 37.2979L26.076 37.0889Z"
    fill="#CCC4BF"
  />
  <path
    d="M29.8847 7.77428L27.5087 7.13777L27.1592 6.47177C28.3237 5.15677 31.8902 4.87728 33.6487 4.73828C37.5027 6.57278 44.0537 9.56578 43.7332 14.7053C40.9557 11.9598 33.5412 9.13828 29.8847 7.77428Z"
    fill="#FEFEFE"
  />
  <path
    d="M39.092 39.7718C40.442 39.2138 42.1535 38.3103 43.522 38.6028C43.6895 40.3673 41.571 41.9068 40.3015 43.0663C37.9355 43.1298 34.7205 43.3968 32.5275 42.7518L31.6775 41.4943C34.2755 40.7963 36.4205 40.1918 39.092 39.7718Z"
    fill="#EDE9E2"
  />
  <path
    d="M23.4996 42.4826C21.3021 44.1026 13.8806 42.3321 11.8856 40.3196C12.0136 39.3006 11.9846 38.8916 11.6101 37.9336C15.2926 39.5951 20.5061 40.9511 23.4996 42.4826Z"
    fill="#EDE9E2"
  />
</svg>
