<svg
  width="52"
  height="50"
  viewBox="0 0 52 50"
  fill="none"
  xmlns="http://www.w3.org/2000/svg"
>
  <path
    d="M17.4537 0.36974C25.6722 0.34324 35.8913 -1.68275 42.5408 4.03475C49.0668 9.64575 50.3168 18.9943 50.9648 27.0783C51.4638 33.3028 50.5717 39.4677 46.2962 44.3397C43.3652 47.6797 39.4973 49.3922 35.1183 49.7007C26.9743 49.2722 15.2988 50.3202 8.34526 45.4907C3.92926 42.4232 1.38975 37.3822 0.503248 32.1827C-0.788252 24.6092 0.308755 13.8347 4.92875 7.47724C8.11725 3.08974 12.2677 1.22524 17.4537 0.36974Z"
    fill="#C1BCB7"
  />
  <path
    d="M7.89776 35.6246C6.18226 34.8656 5.60327 34.6566 4.75227 32.9586C3.21377 32.6146 3.86827 32.5752 2.18277 33.4122L1.76677 32.7926C0.911267 10.9781 3.69376 0.433648 26.5443 1.62665C36.6288 2.15315 43.2363 1.00015 47.3013 12.7211C48.6253 17.4131 51.4308 32.4492 48.4013 36.3537L46.9433 36.6351C44.4328 43.0086 34.8528 53.0611 30.1653 43.7061C28.9488 43.2846 25.2353 43.4917 23.0378 42.8907C17.9818 46.5257 9.17576 42.1701 7.39576 37.4111L8.16827 36.1817L7.89776 35.6246Z"
    fill="#ADA49D"
  />
  <path
    d="M7.89776 35.6246C6.18226 34.8656 5.60327 34.6566 4.75227 32.9586C3.21377 32.6146 3.86827 32.5752 2.18277 33.4122L1.76677 32.7926C0.911267 10.9781 3.69376 0.433648 26.5443 1.62665C36.6288 2.15315 43.2363 1.00015 47.3013 12.7211C46.3993 12.1591 42.9758 7.18315 41.6883 5.68715C41.7763 7.67265 41.9778 8.77815 42.3498 10.7406C43.0473 12.1076 43.6528 12.9821 43.5473 14.5076C43.7533 15.3156 43.8653 15.7296 44.1733 16.5031C42.6368 19.1766 46.2033 24.6201 43.6063 25.8831L42.9548 25.8006C35.5723 21.6721 42.6618 21.4502 41.5033 15.4592L41.7298 15.3941L41.6113 14.9091L39.8558 14.4267L39.9703 13.8452C37.2858 11.9787 32.9798 10.6351 29.8118 9.85965C24.6968 9.58715 23.1408 8.78815 22.0448 14.4272C22.0968 12.7352 22.2048 11.9301 21.6718 10.3121C20.3643 9.88915 20.9423 9.89365 19.3278 10.6801C18.6638 10.7906 17.5568 10.7722 16.8513 10.7867C14.1923 11.7367 11.9118 12.4526 9.45727 13.8801L8.24876 14.7321L8.37826 15.4176L8.90677 15.5782L8.85026 16.0047C8.32076 20.1997 10.5953 20.5276 9.98126 22.6131C7.74526 22.7961 6.18577 22.7266 4.44777 24.1411L5.92077 24.7977C3.37527 26.5457 4.61227 29.3522 5.85277 31.6982L6.20277 31.9366L5.71226 28.2701C7.78176 30.8346 7.83426 31.9172 10.3913 34.5392L8.90426 35.3797L7.89776 35.6246Z"
    fill="#D5CFCC"
  />
  <path
    d="M25.8169 6.78246C28.1839 5.32796 29.6419 5.18495 32.3194 4.66895C37.9154 6.11045 38.1184 7.73845 42.3499 10.7404C43.0474 12.1074 43.6529 12.9819 43.5474 14.5074C38.7034 10.7714 31.8049 7.87746 25.8169 6.78246Z"
    fill="#EDE9E2"
  />
  <path
    d="M25.8167 6.78278L24.6452 6.68227L24.5642 6.34728C28.8822 1.93578 37.0722 1.45977 41.6882 5.68727C41.7762 7.67277 41.9777 8.77827 42.3497 10.7408C38.1182 7.73877 37.9152 6.11077 32.3192 4.66927C29.6417 5.18527 28.1837 5.32828 25.8167 6.78278Z"
    fill="#EDE9E2"
  />
  <path
    d="M16.8434 5.17969L18.1024 5.28969C18.2919 6.59669 17.4484 7.8522 16.9089 9.0537C13.7639 10.2352 10.6829 11.4592 7.64087 12.8862L6.95337 13.1997C7.00337 12.3572 7.31588 11.7697 7.76538 11.0742C9.97588 7.65369 12.9194 5.98869 16.8434 5.17969Z"
    fill="#EDE9E2"
  />
  <path
    d="M41.6882 5.68701C42.9757 7.18301 46.3993 12.159 47.3013 12.721C48.6253 17.413 51.4308 32.449 48.4013 36.3535L46.9433 36.635C44.4328 43.0085 34.8528 53.061 30.1653 43.706C28.9488 43.2845 25.2353 43.4915 23.0378 42.8905C17.9818 46.5255 9.17575 42.17 7.39575 37.411L8.16826 36.1815L7.89775 35.6245L8.90425 35.3795C14.4503 38.419 19.2232 40.6075 25.5352 41.718L26.2962 39.4885L26.9023 39.203L27.3972 39.909L26.6183 41.2695L27.1298 41.5305L28.0128 41.124L28.9853 41.6675C29.5053 41.7535 30.9323 42.0255 31.3748 42.0205C35.3973 40.988 39.9563 39.001 43.7708 37.2675C45.3793 36.1475 45.6308 35.976 46.7453 34.3775C47.3708 32.5935 46.7283 31.589 45.9933 29.7955L46.2578 29.3455C45.5593 28.9315 43.7098 27.367 42.9953 26.7885L42.6777 26.1585L42.9548 25.8005L43.6062 25.883C46.2032 24.62 42.6367 19.1765 44.1732 16.503C43.8652 15.7295 43.7533 15.3155 43.5473 14.5075C43.6528 12.982 43.0472 12.1075 42.3497 10.7405C41.9777 8.77801 41.7762 7.67251 41.6882 5.68701Z"
    fill="#C7C3BF"
  />
  <path
    d="M30.1653 43.7063C35.6638 42.9613 42.3013 39.5948 46.9433 36.6353C44.4328 43.0088 34.8528 53.0613 30.1653 43.7063Z"
    fill="#EDE9E2"
  />
  <path
    d="M23.0378 42.8906C17.9818 46.5256 9.17575 42.1701 7.39575 37.4111L8.16826 36.1816C13.1728 39.3341 17.3118 41.2216 23.0378 42.8906Z"
    fill="#EDE9E2"
  />
  <path
    d="M42.9547 25.8007L43.6062 25.8832C46.2032 24.6202 42.6367 19.1767 44.1732 16.5032C44.6057 18.8187 46.5187 27.7547 46.2577 29.3457C45.5592 28.9317 43.7097 27.3672 42.9952 26.7887L42.6777 26.1587L42.9547 25.8007Z"
    fill="#CCC4BF"
  />
  <path
    d="M28.9852 41.6676C27.9917 36.7156 29.1332 31.3461 28.4932 26.3416C28.2612 24.5301 27.2787 24.0631 25.7622 22.9776L26.2077 22.7021C27.8627 23.3236 34.5767 23.6521 34.9667 24.0141C36.7577 25.6781 41.4792 33.5666 44.4462 34.4911C45.4417 33.2681 44.6962 32.4381 45.0447 30.2106L45.9932 29.7957C46.7282 31.5892 47.3707 32.5937 46.7452 34.3777C45.6307 35.9762 45.3792 36.1477 43.7707 37.2677C39.9562 39.0012 35.3972 40.9881 31.3747 42.0206C30.9322 42.0256 29.5052 41.7536 28.9852 41.6676Z"
    fill="#CCC4BF"
  />
  <path
    d="M31.1078 35.7153C32.5623 35.4808 33.3748 35.9898 34.7353 36.4468C35.1288 35.2603 35.4573 34.3393 35.9373 33.1743C38.5108 34.5783 41.1073 36.0533 43.7708 37.2678C39.9563 39.0013 35.3973 40.9883 31.3748 42.0208C30.2128 39.6913 30.5443 38.1248 31.1078 35.7153Z"
    fill="#EDE9E2"
  />
  <path
    d="M31.1077 35.7151C31.1832 34.2711 31.4307 33.6956 31.8797 32.3641C33.4492 31.0116 32.7412 31.2321 34.6797 31.2356C35.4737 32.0181 35.5747 32.1241 35.9372 33.1741C35.4572 34.3391 35.1287 35.2601 34.7352 36.4466C33.3747 35.9896 32.5622 35.4806 31.1077 35.7151Z"
    fill="#E1DAD2"
  />
  <path
    d="M5.92084 24.7976L7.33733 24.9736C8.90933 27.9851 11.2788 25.1831 10.8533 30.6621C10.4543 31.8681 10.4783 31.3681 10.7108 32.5771L11.5558 32.1266C12.5028 30.7706 12.7233 30.5296 13.0158 28.8706C15.6603 27.8536 17.8893 26.1381 20.8378 27.1416C23.1868 29.2856 21.8533 32.6991 22.6728 35.1811C23.4053 35.5746 24.1423 35.9606 24.8823 36.3391C25.0063 37.2596 25.5973 41.1286 25.5353 41.7181C19.2233 40.6076 14.4503 38.4191 8.90433 35.3796L10.3913 34.5391C7.83433 31.9171 7.78183 30.8346 5.71233 28.2701L6.20284 31.9366L5.85283 31.6981C4.61233 29.3521 3.37534 26.5456 5.92084 24.7976Z"
    fill="#E1DAD2"
  />
  <path
    d="M10.3913 34.5392C15.4378 34.2442 15.8818 28.5187 19.3113 29.2412C19.5863 31.8307 19.6593 36.2267 21.4428 38.0072L22.3948 38.1397C23.7273 36.4852 23.2093 36.5907 24.8823 36.3392C25.0063 37.2597 25.5973 41.1287 25.5353 41.7182C19.2233 40.6077 14.4503 38.4192 8.9043 35.3797L10.3913 34.5392Z"
    fill="#EDE9E2"
  />
  <path
    d="M22.0447 14.4273C23.1407 8.78826 24.6967 9.58725 29.8117 9.85975C32.9797 10.6353 37.2857 11.9788 39.9702 13.8453L39.8557 14.4268L41.6112 14.9093L41.7297 15.3943L41.5032 15.4593C38.4907 16.5223 37.9197 17.3813 36.6127 20.2678C30.5817 14.2268 28.8247 24.3763 21.8047 17.6183L22.0447 14.4273Z"
    fill="#E1DAD2"
  />
  <path
    d="M29.8118 9.85962C32.9798 10.6351 37.2858 11.9786 39.9703 13.8451L39.8558 14.4266C36.0638 14.1711 30.3173 14.6811 29.8118 9.85962Z"
    fill="#EDE9E2"
  />
  <path
    d="M13.0159 28.8706C16.0719 21.2336 22.6709 21.1506 26.9079 27.8476C26.9839 29.8571 27.3444 32.3551 26.3359 33.9996C25.0854 34.8381 24.2649 35.2176 22.6729 35.1811C21.8534 32.6991 23.1869 29.2856 20.8379 27.1416C17.8894 26.1381 15.6604 27.8536 13.0159 28.8706Z"
    fill="#C1BCB7"
  />
  <path
    d="M16.8513 10.7867C17.5568 10.7722 18.6638 10.7907 19.3278 10.6802L19.4453 16.4957C14.9338 18.7297 15.9763 19.2532 10.6963 19.1647C10.3228 17.6412 9.74528 16.8932 8.90678 15.5782L8.37828 15.4177L8.24878 14.7322L9.45729 13.8802C11.9118 12.4527 14.1923 11.7367 16.8513 10.7867Z"
    fill="#E1DAD2"
  />
  <path
    d="M16.8513 10.7866C16.9053 12.5606 17.2193 14.8056 16.2533 16.1911C14.2278 16.6211 12.2498 14.7856 9.45728 13.8801C11.9118 12.4526 14.1923 11.7366 16.8513 10.7866Z"
    fill="#EDE9E2"
  />
  <path
    d="M21.8047 17.6182C28.8247 24.3762 30.5817 14.2267 36.6127 20.2677C34.5102 25.1822 27.0977 22.8732 23.3972 21.1182C22.1412 20.5222 22.0247 18.8187 21.8047 17.6182Z"
    fill="#CCC4BF"
  />
  <path
    d="M10.6963 19.1646C15.9763 19.2531 14.9338 18.7296 19.4453 16.4956C19.8568 18.1306 20.2883 20.0586 20.7818 21.6451L14.2013 22.8891L10.6963 19.1646Z"
    fill="#CCC4BF"
  />
  <path
    d="M4.44775 24.1411L13.0892 24.1926C12.3887 26.2391 11.6263 28.6796 10.8533 30.6621C11.2788 25.1831 8.90925 27.9851 7.33725 24.9736L5.92076 24.7976L4.44775 24.1411Z"
    fill="#CCC4BF"
  />
  <path
    d="M42.9951 26.7886C43.7096 27.3671 45.5591 28.9316 46.2576 29.3456L45.9931 29.7956L45.0446 30.2106C44.6961 32.4381 45.4417 33.2681 44.4462 34.4911C43.6372 31.8976 43.0836 31.2991 41.4521 29.2086L42.9951 26.7886Z"
    fill="#E3DDC7"
  />
  <path
    d="M41.4524 29.2085C40.3674 28.1945 39.1599 27.3615 38.8794 25.9975C40.3524 25.2695 40.6444 25.722 42.6779 26.1585L42.9954 26.7885L41.4524 29.2085Z"
    fill="#C1BCB7"
  />
</svg>
