<svg
  width="51"
  height="49"
  viewBox="0 0 51 49"
  fill="none"
  xmlns="http://www.w3.org/2000/svg"
>
  <path
    d="M30.7865 48.3102C31.5035 48.3412 32.221 48.3521 32.9385 48.3426C37.23 48.2676 41.065 46.5761 44.0155 43.4621C49.7175 37.4441 50.7025 27.0056 50.4135 19.1231C50.2035 13.4026 48.243 7.91965 43.924 3.99065C37.4895 -1.86285 29.5225 0.332138 21.7165 0.741638C16.4845 0.887638 12.09 1.48314 7.85 4.93764C3.3155 8.63164 0.842503 14.0151 0.258003 19.7451C-0.459997 26.7776 0.100999 35.8686 4.7855 41.5246C11.137 49.1931 21.919 47.3742 30.7865 48.3102Z"
    fill="#737071"
  />
  <path
    d="M31.5376 47.1255C36.3751 46.998 40.2361 46.31 43.6031 42.623C48.6561 37.0905 49.6606 25.647 49.4101 18.6365C48.9131 4.70599 39.2451 -0.380015 26.5711 1.38799C18.9511 2.45049 11.7016 1.09699 5.77956 8.01299C2.27756 11.986 0.958053 17.611 1.27905 22.7835L0.812553 23.143C0.584553 27.19 2.34655 36.527 4.87206 40.0095C11.1936 48.7245 21.2036 45.145 31.5376 47.1255Z"
    fill="#D5CFCC"
  />
  <path
    d="M24.2081 38.0867C24.6946 37.7017 24.8916 37.5217 25.4526 37.2487L25.8146 37.0767L26.0071 36.3647C26.1786 37.1337 26.3671 37.4372 26.7106 38.1242L29.3831 38.8147C32.6036 37.6087 38.0591 35.6407 40.8291 33.5922L41.5901 33.1617L40.8406 32.0767L40.5421 30.8392L41.6291 30.4267C43.2311 29.6517 43.3611 28.2887 43.6366 26.6027L44.3686 25.7592L45.1386 25.1972C50.0321 22.6862 47.3316 12.4817 42.4091 11.0687C41.1471 10.7062 39.8706 10.3592 38.5956 10.0537L30.7256 8.2097L29.0356 7.6022C28.1361 8.5237 27.5156 9.8022 26.8706 10.9422L26.0761 11.2572L25.1496 11.0482C24.3451 9.8762 23.7571 9.1757 23.4711 7.7572C13.7076 10.4562 5.81759 11.7917 4.12059 23.0967L3.88659 24.7342C3.71859 25.0302 3.82459 25.1372 3.87509 25.6187L5.75359 26.2132C7.20109 26.2987 8.34059 26.1852 9.46159 27.0172C9.81509 28.7232 8.97159 29.9292 8.25359 31.7732L7.58709 33.8992L8.05309 34.8517L8.90509 34.5797L10.3646 33.8392C13.3556 33.9997 19.7156 33.9242 20.8871 36.9647L21.4841 35.0517L23.4751 37.1907L24.2081 38.0867Z"
    fill="#ADA49D"
  />
  <path
    d="M45.1386 25.197C50.0321 22.686 47.3316 12.4815 42.4091 11.0685C41.1471 10.706 39.8706 10.359 38.5956 10.0535L30.7256 8.20952L29.0356 7.60202C28.1361 8.52352 27.5156 9.80202 26.8706 10.942C31.2661 12.9005 28.2751 13.559 31.2101 17.1085C32.2426 18.782 31.7536 18.4955 33.3606 19.2935C36.4561 18.74 36.1556 16.6085 39.8971 16.133L41.5311 14.786L42.0246 14.2325C42.9306 17.7085 42.6086 20.4975 44.1396 24.2215L45.1386 25.197Z"
    fill="#EDE9E2"
  />
  <path
    d="M31.2102 17.1087C32.2427 18.7822 31.7537 18.4957 33.3607 19.2937C36.4562 18.7402 36.1557 16.6087 39.8972 16.1332L41.5312 14.7862L42.0247 14.2327L40.7962 13.8717C39.7927 14.2557 31.8587 16.7067 31.4152 16.6377L31.2102 17.1087Z"
    fill="#EDE5DF"
  />
  <path
    d="M31.2101 17.1086L31.4151 16.6376C31.3751 13.9111 30.2541 9.43864 30.7256 8.20964L29.0356 7.60214C28.1361 8.52364 27.5156 9.80214 26.8706 10.9421C31.2661 12.9006 28.2751 13.5591 31.2101 17.1086Z"
    fill="#D5CFCC"
  />
  <path
    d="M20.8872 36.9647L21.4842 35.0517L23.4752 37.1907C24.1957 34.0862 25.3682 28.2232 26.2972 25.3942C20.1682 24.2202 18.8187 23.9227 12.7762 25.0642C11.7422 27.1132 10.2327 30.7877 8.25366 31.7732L7.58716 33.8992L8.05316 34.8517L8.90516 34.5797L10.3647 33.8392C13.3557 33.9997 19.7157 33.9242 20.8872 36.9647Z"
    fill="#CCC4BF"
  />
  <path
    d="M20.887 36.9646L21.484 35.0516L22.5515 26.5151C15.867 26.4706 13.465 27.3886 10.3645 33.8391C13.3555 33.9996 19.7155 33.9241 20.887 36.9646Z"
    fill="#E1DAD2"
  />
  <path
    d="M4.12061 23.0964C10.2236 21.3139 4.88061 17.9484 10.1211 15.8944C13.7386 14.0654 12.8241 19.9274 19.7936 20.2399C21.8061 20.0724 21.4946 20.4144 22.7161 19.2739C23.6776 16.4244 22.0441 13.0644 23.7611 11.5319L25.1496 11.0479C24.3451 9.87593 23.7571 9.17543 23.4711 7.75693C13.7076 10.4559 5.81761 11.7914 4.12061 23.0964Z"
    fill="#EDE9E2"
  />
  <path
    d="M19.7937 20.24C21.8062 20.0725 21.4947 20.4145 22.7162 19.274C23.6777 16.4245 22.0442 13.0645 23.7612 11.532C22.1212 11.369 22.4222 11.151 21.1842 11.84C19.9957 14.23 20.6202 16.9415 19.8797 19.9075L19.7937 20.24Z"
    fill="#E1DAD2"
  />
  <path
    d="M26.7107 38.1242L29.3832 38.8147C32.6037 37.6087 38.0592 35.6407 40.8292 33.5922L41.5902 33.1617L40.8407 32.0767C37.4027 31.3392 30.9542 17.8712 26.7107 38.1242Z"
    fill="#E1DAD2"
  />
  <path
    d="M29.3831 38.8147C32.6036 37.6087 38.0591 35.6407 40.8291 33.5922C37.1011 30.6507 31.3876 35.2912 29.3831 38.8147Z"
    fill="#EDE9E2"
  />
  <path
    d="M13.3391 23.6057C19.6076 22.3242 20.7376 23.0147 26.7006 23.3097C26.7626 19.9217 26.6611 14.5927 26.0761 11.2572L25.1496 11.0482L23.7611 11.5322C22.0441 13.0647 23.6776 16.4247 22.7161 19.2742C21.4946 20.4147 21.8061 20.0727 19.7936 20.2402C12.8241 19.9277 13.7386 14.0657 10.1211 15.8947L10.3351 16.2982C11.7671 17.5332 12.6156 21.5217 13.3391 23.6057Z"
    fill="#CCC4BF"
  />
  <path
    d="M24.208 38.0865C24.6945 37.7015 24.8915 37.5215 25.4525 37.2485L25.8145 37.0765L26.007 36.3645C26.1785 37.1335 26.367 37.437 26.7105 38.124C30.954 17.871 37.4025 31.339 40.8405 32.0765L40.542 30.839C38.0805 21.7715 35.5155 22.1105 27.7765 24.9255C27.069 28.427 26.062 35.3095 24.208 38.0865Z"
    fill="#CCC4BF"
  />
  <path
    d="M26.8706 10.9421C28.5316 13.7786 28.0931 19.2351 28.0611 22.6951C29.5491 23.4866 29.9951 22.4621 31.3771 22.3201C37.8756 21.6516 36.7311 21.6111 39.8971 16.1331C36.1556 16.6086 36.4561 18.7401 33.3606 19.2936C31.7536 18.4956 32.2426 18.7821 31.2101 17.1086C28.2751 13.5591 31.2661 12.9006 26.8706 10.9421Z"
    fill="#E3DDC7"
  />
  <path
    d="M3.88647 24.734C6.93897 24.7475 9.29348 25.0515 12.217 25.179C11.401 22.339 10.294 19.211 10.335 16.298L10.121 15.8945C4.88048 17.9485 10.2235 21.314 4.12048 23.0965L3.88647 24.734Z"
    fill="#E1DAD2"
  />
  <path
    d="M37.9285 22.6374C40.145 23.2779 41.882 23.7269 44.1395 24.2214C42.6085 20.4974 42.9305 17.7084 42.0245 14.2324L41.531 14.7859C41.9105 16.6999 39.128 20.4349 37.9285 22.6374Z"
    fill="#CCC4BF"
  />
  <path
    d="M41.6292 30.4265C43.2312 29.6515 43.3612 28.2885 43.6367 26.6025L44.3687 25.759C42.9687 25.445 41.5567 24.9285 40.3042 25.5505C40.0287 27.2645 40.9147 28.6155 41.6292 30.4265Z"
    fill="#E3DDC7"
  />
  <path
    d="M1.27905 22.7835L0.812553 23.143C0.584553 27.19 2.34655 36.527 4.87206 40.0095C11.1936 48.7245 21.2036 45.145 31.5376 47.1255C30.9276 46.4865 30.0541 45.841 30.0111 45.141C20.3186 36.5795 18.8631 47.2005 13.7741 42.0785C17.0756 42.6905 19.0421 43.407 21.5286 40.542C24.5096 40.6495 26.9046 40.6875 29.8846 40.5715C33.5411 39.2075 40.9556 36.386 43.7331 33.6405C44.2686 31.553 46.0575 30.2855 45.7275 28.3255L45.1641 27.7885L44.2425 30.182L43.8111 30.055C44.2281 28.3525 44.659 27.985 44.0465 26.698L43.6366 26.6025C43.3611 28.2885 43.2311 29.6515 41.6291 30.4265L40.5421 30.839L40.8406 32.0765L41.59 33.1615L40.829 33.592C38.059 35.6405 32.6035 37.6085 29.383 38.8145L26.7105 38.124C26.367 37.437 26.1786 37.1335 26.0071 36.3645L25.8146 37.0765L25.4526 37.2485C24.8916 37.5215 24.6945 37.7015 24.208 38.0865L23.4751 37.1905L21.484 35.0515L20.887 36.9645C19.7155 33.924 13.3556 33.9995 10.3646 33.839L8.90505 34.5795L8.05305 34.8515L7.58705 33.899L8.25356 31.773C8.97156 29.929 9.81506 28.723 9.46156 27.017C8.34056 26.185 7.20106 26.2985 5.75356 26.213L3.87505 25.6185C3.82455 25.137 3.71855 25.03 3.88655 24.734L4.12055 23.0965C5.81755 11.7915 13.7075 10.456 23.471 7.75699C23.757 9.17549 24.3451 9.87599 25.1496 11.048L26.0761 11.257L26.8706 10.942C27.5156 9.80199 28.1361 8.52349 29.0356 7.60199L30.7255 8.20949L38.5956 10.0535L39.092 8.57399C36.4205 8.15399 34.2756 7.54949 31.6776 6.85149C28.3726 6.16599 26.8805 6.02449 23.4995 5.86349C20.506 7.39499 15.2926 8.75099 11.6101 10.4125C7.44105 12.8205 10.2721 10.6825 7.33805 11.521C5.54555 15.832 5.93305 13.687 3.77555 14.663C1.96705 17.5045 2.03955 19.46 1.27905 22.7835Z"
    fill="#C7C2BF"
  />
  <path
    d="M13.7741 42.0785C17.0756 42.6905 19.0421 43.407 21.5286 40.542C18.1571 39.808 9.71906 36.5675 7.42456 37.0405L7.69406 37.9055C9.83256 40.1345 11.0841 40.6695 13.7741 42.0785Z"
    fill="#FEFEFE"
  />
  <path
    d="M8.90503 34.5796C11.0565 36.2466 17.3035 38.1941 20.152 37.9296L20.887 36.9646C19.7155 33.9241 13.3555 33.9996 10.3645 33.8391L8.90503 34.5796Z"
    fill="#EDE9E2"
  />
  <path
    d="M5.75366 26.2132C5.18516 26.4742 5.05016 26.6542 4.57116 27.0542C4.49066 29.3982 5.11416 32.9297 7.58716 33.8992L8.25366 31.7732C8.97166 29.9292 9.81516 28.7232 9.46166 27.0172C8.34066 26.1852 7.20116 26.2987 5.75366 26.2132Z"
    fill="#E1DAD2"
  />
  <path
    d="M26.076 11.2571L26.8705 10.9421C27.5155 9.80208 28.136 8.52358 29.0355 7.60208C26.6065 7.29858 25.9229 7.41558 23.4709 7.75708C23.7569 9.17558 24.345 9.87608 25.1495 11.0481L26.076 11.2571Z"
    fill="#CCC4BF"
  />
  <path
    d="M29.8847 40.5717L27.5087 41.2082L27.1592 41.8742C28.3237 43.1892 31.8902 43.4687 33.6487 43.6077C37.5027 41.7732 44.0537 38.7802 43.7332 33.6407C40.9557 36.3862 33.5412 39.2077 29.8847 40.5717Z"
    fill="#FEFEFE"
  />
  <path
    d="M39.092 8.57417C40.442 9.13217 42.1535 10.0357 43.522 9.74318C43.6895 7.97868 41.571 6.43918 40.3015 5.27968C37.9355 5.21618 34.7205 4.94918 32.5275 5.59418L31.6775 6.85167C34.2755 7.54967 36.4205 8.15417 39.092 8.57417Z"
    fill="#EDE9E2"
  />
  <path
    d="M23.4996 5.86336C21.3021 4.24336 13.8806 6.01385 11.8856 8.02635C12.0136 9.04535 11.9846 9.45435 11.6101 10.4124C15.2926 8.75085 20.5061 7.39486 23.4996 5.86336Z"
    fill="#EDE9E2"
  />
</svg>
