<svg
  width="41"
  height="45"
  viewBox="0 0 41 45"
  fill="none"
  xmlns="http://www.w3.org/2000/svg"
>
  <path
    d="M18.4007 0.00735223C22.0657 -0.0431478 25.0697 0.119349 28.3452 2.01335C34.5422 5.59635 37.8432 12.6349 39.5417 19.3239C40.8707 24.5594 41.5057 30.6318 38.5607 35.4463C35.1527 41.0178 28.3007 43.3964 22.2807 44.8274C17.2347 44.9589 11.7372 43.6449 7.4527 40.9134C3.85921 38.6224 1.33219 35.3414 0.44419 31.1349C-1.08981 23.8689 1.52619 14.7293 5.57619 8.65535C8.72119 3.93885 12.8372 1.10285 18.4007 0.00735223Z"
    fill="#737071"
  />
  <path
    d="M18.7321 1.02095C21.6511 0.884447 24.7596 1.28444 27.3321 2.72244C33.3261 6.07394 36.6482 12.7639 38.4152 19.1484C39.8227 24.2334 40.6067 30.4139 37.8007 35.1604C34.7962 40.2429 27.8122 42.4514 22.4007 43.8064C17.4942 43.9794 11.7756 42.6794 7.66314 39.9389C4.37214 37.7464 2.19415 34.6024 1.43565 30.7149C0.0691487 23.7104 2.89864 14.5309 6.87814 8.75244C9.97114 4.26094 13.4901 2.00245 18.7321 1.02095Z"
    fill="#D5CFCC"
  />
  <path
    d="M12.0992 12.0374C12.0002 11.9119 11.9612 11.375 11.9307 11.17C17.5702 6.09996 24.0087 8.24595 30.1137 10.7139L28.3392 12.0815C23.8417 14.9905 24.3907 23.3155 19.5402 23.2385L19.1462 24.7715C23.5377 24.887 27.6912 21.776 30.2172 18.39L30.8352 18.6169C30.8757 27.7134 34.8812 25.434 35.2337 32.575L36.2627 32.3384C36.1922 33.3499 35.6172 34.141 34.6917 34.6155C31.5597 36.45 25.1952 38.5405 21.4982 40.17C18.1942 38.9765 9.95773 36.607 7.49473 35.5575C5.05473 34.9985 3.64772 32.7 3.66172 30.3185L4.03422 30.2334L4.68423 31.685L5.43623 31.8149L5.61122 30.004C6.05272 30.7095 6.03173 31.4584 6.10673 32.2979L6.60023 31.8935C6.46673 30.635 6.86124 29.186 7.11424 27.911C6.27774 27.887 6.65972 27.9965 5.93472 27.5515C4.25472 22.015 7.17123 15.0274 12.0992 12.0374Z"
    fill="#E3DDC7"
  />
  <path
    d="M21.4354 30.499C21.5434 29.693 21.6944 29.277 21.9389 28.499C24.1834 27.311 28.4904 25.2875 31.0224 25.7385C32.0524 28.126 33.3029 30.7765 35.2339 32.575L36.2629 32.3385C36.1924 33.35 35.6174 34.141 34.6919 34.6155C31.5599 36.45 25.1954 38.5405 21.4984 40.17C18.1944 38.9765 9.95787 36.607 7.49487 35.5575C12.0289 35.686 14.4474 35.332 19.4914 35.7015L20.2754 35.2105L21.4354 30.499Z"
    fill="#EDE9E2"
  />
  <path
    d="M20.2754 35.2106C25.5434 35.8126 27.7444 35.4871 33.0134 34.0596L34.6919 34.6156C31.5599 36.4501 25.1954 38.5406 21.4984 40.1701C18.1944 38.9766 9.95787 36.6071 7.49487 35.5576C12.0289 35.6861 14.4474 35.3321 19.4914 35.7016L20.2754 35.2106Z"
    fill="#FEFEFE"
  />
  <path
    d="M12.0992 12.0374C12.0002 11.9119 11.9612 11.375 11.9307 11.17C17.5702 6.09996 24.0086 8.24595 30.1136 10.7139L28.3391 12.0815C23.8416 14.9905 24.3907 23.3155 19.5402 23.2385C17.2897 19.9725 15.0127 14.1454 12.0992 12.0374Z"
    fill="#FEFEFE"
  />
  <path
    d="M9.34422 27.365C12.6752 26.0505 16.7867 24.7535 17.6522 29.7665L18.5142 28.5695C19.8332 28.987 20.4082 29.6095 21.4352 30.499L20.2752 35.2105L19.4912 35.7015C14.4472 35.332 12.0287 35.686 7.49473 35.5575C5.05473 34.9985 3.64772 32.7 3.66172 30.3185L4.03422 30.2335L4.68423 31.685L5.43623 31.815L5.61122 30.004C6.05272 30.7095 6.03173 31.4585 6.10673 32.298L6.60023 31.8935C7.67523 30.356 8.42522 29.003 9.34422 27.365Z"
    fill="#EDE9E2"
  />
  <path
    d="M17.6523 29.7663L18.5143 28.5693C19.8333 28.9868 20.4083 29.6093 21.4353 30.4988L20.2753 35.2103L19.4913 35.7013C18.7773 34.1663 18.1248 31.4738 17.6523 29.7663Z"
    fill="#CCC4BF"
  />
  <path
    d="M12.0992 12.0376C15.0127 14.1456 17.2897 19.9726 19.5402 23.2386L19.1462 24.7716C15.4272 22.6556 12.9507 21.0851 9.63618 18.3241C9.84268 21.2836 8.85721 25.5651 7.11421 27.9111C6.27771 27.8871 6.65969 27.9966 5.93469 27.5516C4.25469 22.0151 7.1712 15.0276 12.0992 12.0376Z"
    fill="#E3DDC7"
  />
  <path
    d="M19.1463 24.7715C23.5378 24.887 27.6914 21.776 30.2174 18.39L30.8353 18.617C30.8758 27.7135 34.8813 25.434 35.2338 32.575C33.3028 30.7765 32.0523 28.126 31.0223 25.7385C30.1218 23.667 30.4313 23.387 28.8498 22.5285C26.4873 22.615 23.8528 25.0105 21.0678 26.179C17.1328 24.7975 14.3084 23.57 10.9399 21.006L9.34434 27.365C8.42534 29.003 7.67535 30.356 6.60035 31.8935C6.46685 30.635 6.86136 29.186 7.11436 27.911C8.85736 25.565 9.84283 21.2835 9.63633 18.324C12.9508 21.085 15.4273 22.6555 19.1463 24.7715Z"
    fill="#ADA49D"
  />
  <path
    d="M30.1136 10.7139C33.0016 12.1659 35.9691 20.0289 35.7771 23.0219L35.2786 23.5679C34.2131 18.7884 33.0936 14.5059 28.3391 12.0814L30.1136 10.7139Z"
    fill="#EDE9E2"
  />
</svg>
