<svg
  width="40"
  height="45"
  viewBox="0 0 40 45"
  fill="none"
  xmlns="http://www.w3.org/2000/svg"
>
  <path
    d="M13.4467 1.50355C17.5932 -0.30095 19.9162 -0.491441 24.3167 0.987559C29.0722 2.58556 36.2147 10.6581 36.6012 15.6646C44.3557 31.5726 34.2247 39.8911 20.4202 44.7866C13.4117 43.9521 4.3607 39.2711 1.4237 32.6966C-3.0918 22.5901 3.73518 6.07755 13.4467 1.50355Z"
    fill="#EDE9E2"
  />
  <path
    d="M13.7872 11.9021C15.4617 8.60806 23.2207 8.88156 26.0372 11.4646C33.5152 12.9016 36.1557 24.8126 32.9207 29.9476L32.7232 30.4251C31.1452 28.8186 30.0372 23.5836 29.5347 21.2441L28.2632 20.7376C26.4907 21.5196 25.8552 21.7056 24.5892 23.1471L25.2892 23.6571L19.5997 25.8161C16.0942 25.1616 14.9322 25.0481 11.9617 23.0941C9.56823 24.6366 9.47723 27.7926 6.97323 28.8791C6.64173 29.8876 6.62323 29.9166 5.87423 30.6866L5.44223 30.4311L5.70224 29.1071C4.20724 24.7811 4.65072 18.8711 6.36322 14.6026C9.23372 12.5441 10.2597 11.4586 13.7872 11.9021Z"
    fill="#E3DDC7"
  />
  <path
    d="M29.4344 17.053C30.5354 21.2465 31.6439 25.836 32.9209 29.9475L32.7234 30.425C31.1454 28.8185 30.0374 23.5835 29.5349 21.244L28.2634 20.7375C26.4909 21.5195 25.8554 21.7055 24.5894 23.147L25.2894 23.657L19.5999 25.816C16.0944 25.1615 14.9324 25.048 11.9619 23.094C9.56838 24.6365 9.47739 27.7925 6.97339 28.879C6.64189 29.8875 6.62339 29.9165 5.87439 30.6865L5.44238 30.431L5.70239 29.107C7.31189 24.9575 7.75088 21.2785 9.08188 17.446C19.9429 24.6355 19.2319 23.399 29.4344 17.053Z"
    fill="#ADA49D"
  />
  <path
    d="M19.6046 24.2805C22.7426 23.1415 26.8681 19.9225 28.5706 19.839L29.5346 21.244L28.2631 20.7375C26.4906 21.5195 25.8551 21.7055 24.5891 23.147L25.2891 23.657L19.5996 25.816C16.0941 25.1615 14.9321 25.048 11.9616 23.094C9.56814 24.6365 9.47714 27.7925 6.97314 28.879C7.83064 25.7605 8.85315 22.553 9.79715 19.448C13.4101 21.7875 15.5136 23.046 19.6046 24.2805Z"
    fill="#CCC4BF"
  />
  <path
    d="M13.7874 11.9021C15.4619 8.60806 23.2209 8.88156 26.0374 11.4646C23.0069 14.0271 21.9219 17.4366 19.5779 20.7671C17.9719 18.1986 15.6004 14.1591 13.7874 11.9021Z"
    fill="#FEFEFE"
  />
  <path
    d="M13.4467 1.50342L13.1972 1.77843C11.3907 3.75243 9.58119 4.52393 8.55969 6.64943L8.4267 6.91992C8.3517 7.09792 8.2762 7.27592 8.2012 7.45392C3.8847 8.83992 1.4687 22.4849 1.4772 26.7919L1.47919 26.9659C3.17619 29.7929 4.30721 32.4019 7.29721 33.7404L19.2947 39.8994C22.2012 38.8909 30.0887 34.7499 33.2182 33.1589L34.5272 31.9379C40.3562 27.7599 36.3337 21.1184 36.6012 15.6644C44.3557 31.5724 34.2247 39.8909 20.4202 44.7864C13.4117 43.9519 4.3607 39.2709 1.4237 32.6964C-3.0918 22.5899 3.73518 6.07742 13.4467 1.50342Z"
    fill="#C1BCB7"
  />
  <path
    d="M13.4467 1.50355C17.5932 -0.30095 19.9162 -0.491441 24.3167 0.987559C29.0722 2.58556 36.2147 10.6581 36.6012 15.6646C36.3337 21.1186 40.3562 27.7601 34.5272 31.9381C35.8202 27.2311 36.6357 25.0461 35.2192 19.7456C33.4937 13.5381 29.8002 6.29606 23.2247 4.25506C20.5492 3.42506 18.4782 3.87605 15.9262 2.18905C15.4167 2.63555 9.45467 6.54455 8.20117 7.45405C8.27617 7.27605 8.35167 7.09805 8.42667 6.92005L8.55966 6.64956C9.58116 4.52406 11.3907 3.75256 13.1972 1.77856L13.4467 1.50355Z"
    fill="#D5CFCC"
  />
  <path
    d="M8.20132 7.4541C7.60332 10.3551 6.3388 11.6071 6.3633 14.6026C4.6508 18.8711 4.20732 24.7811 5.70232 29.1071L5.44231 30.4311L5.87432 30.6866C6.62332 29.9166 6.64182 29.8876 6.97332 28.8791C9.47732 27.7926 9.56831 24.6366 11.9618 23.0941C14.9323 25.0481 16.0943 25.1616 19.5998 25.8161L25.2893 23.6571L26.5463 23.7471L26.6463 24.8246C26.6213 24.8191 12.4008 26.6806 10.6568 26.8191C9.11982 29.0561 8.16732 31.1781 7.29732 33.7406C4.30732 32.4021 3.1763 29.7931 1.4793 26.9661L1.47732 26.7921C1.46882 22.4851 3.88482 8.8401 8.20132 7.4541Z"
    fill="#D5CFCC"
  />
  <path
    d="M25.2893 23.6568L24.5894 23.1468C25.8554 21.7053 26.4908 21.5193 28.2633 20.7373L29.5349 21.2438C30.0374 23.5833 31.1454 28.8183 32.7234 30.4248L31.8994 31.7043C29.2089 30.0278 28.1999 27.5778 26.6464 24.8243L26.5464 23.7468L25.2893 23.6568Z"
    fill="#E3DDC7"
  />
</svg>
