<svg
  width="37"
  height="43"
  viewBox="0 0 37 43"
  fill="none"
  xmlns="http://www.w3.org/2000/svg"
>
  <path
    d="M2.42229 34.1569C-7.32421 22.6374 14.5598 -14.2226 28.7033 5.9029C33.9598 13.3829 37.2733 21.8229 36.5758 30.9864C31.3953 39.7069 18.7928 46.3349 9.85527 39.6889C8.00777 38.3154 5.18879 37.0229 3.75029 35.2239L2.42229 34.1569Z"
    fill="#E3DFDA"
  />
  <path
    d="M2.42229 34.1569C-7.32421 22.6374 14.5598 -14.2226 28.7033 5.9029C33.9598 13.3829 37.2733 21.8229 36.5758 30.9864C31.3953 39.7069 18.7928 46.3349 9.85527 39.6889C8.00777 38.3154 5.18879 37.0229 3.75029 35.2239C8.27029 37.4079 15.3253 42.5004 20.0008 41.9269C23.2998 40.8059 26.8483 38.6074 29.7618 36.7484C30.3893 36.5459 30.4398 36.3904 30.9578 36.0849C41.0778 30.1094 32.8548 13.4044 27.3988 6.1529C26.0173 7.1644 25.2978 8.3939 23.7358 9.3619C21.2288 8.3169 19.8623 7.87991 17.1743 8.56091C12.4488 9.75791 13.1108 8.69791 9.65129 6.58941L9.37328 6.42341C2.90878 15.1174 -1.04671 23.3884 2.42229 34.1569Z"
    fill="#818081"
  />
  <path
    d="M9.37305 6.42339C14.6905 0.513891 22.6151 -1.78812 27.3986 6.15288C26.0171 7.16438 25.2976 8.39388 23.7356 9.36188C21.2286 8.31688 19.862 7.87989 17.174 8.56089C12.4485 9.75789 13.1106 8.69789 9.65106 6.58939L9.37305 6.42339Z"
    fill="#FEFEFE"
  />
</svg>
