<svg
  width="36"
  height="41"
  viewBox="0 0 36 41"
  fill="none"
  xmlns="http://www.w3.org/2000/svg"
>
  <path
    d="M15.9171 0.0078759C18.8018 -0.112191 22.8711 1.15282 25.1306 2.96229C26.1449 3.77456 27.4045 4.9816 28.2196 5.99654C28.5754 6.42712 28.8713 6.94616 29.2149 7.37834C30.5488 9.05589 31.6115 10.8492 32.5785 12.75C32.987 13.5529 33.5949 14.4787 33.918 15.3233C34.5649 17.0146 35.0109 18.8674 35.246 20.6592C35.3523 21.5042 35.4203 23.1348 35.2439 23.949C34.8551 25.7429 33.3651 27.5513 32.0651 28.8337C31.1711 29.7156 30.3902 30.4126 29.6545 31.4547C29.0928 32.1995 28.8399 33.0864 28.4153 33.8999C26.5326 37.5071 23.8219 40.2639 19.5469 40.7261C16.7447 40.7832 13.5451 39.0717 11.5014 37.2646C10.1388 36.0602 9.08852 34.5118 7.85414 33.2214L4.13297 29.3886C3.76403 29.0025 3.38237 28.6297 3.01616 28.24C1.14966 26.254 0.107886 23.9274 0.00734973 21.2207C-0.0372958 19.768 0.121619 18.3162 0.479644 16.9057C0.881215 15.3866 1.74958 13.5516 2.42476 12.1178C3.27585 10.3106 4.21767 8.38916 5.33605 6.72649C6.06335 5.64515 6.97904 4.76581 7.83946 3.80968C9.93086 1.48557 12.717 0.119935 15.9171 0.0078759Z"
    fill="black"
  />
  <path
    d="M15.935 0.567626C16.5877 0.491952 17.5778 0.681746 18.2298 0.796052C20.5386 1.20079 22.961 2.08686 24.7847 3.56062C25.827 4.5175 27.0115 5.54725 27.8437 6.68999C28.7398 7.92043 29.7032 9.24814 30.523 10.5272C30.988 11.2529 31.3836 12.134 31.8106 12.8845C32.4936 14.0848 33.1581 15.3174 33.6012 16.621C34.1632 18.2882 34.4672 20.1681 34.6612 21.91C34.7373 22.5928 34.786 24.0669 34.435 24.6556C33.6532 25.9669 32.5114 27.3844 31.4148 28.4743C30.7227 29.1622 29.9013 29.8424 29.338 30.6129C28.4999 31.759 27.9933 33.2181 27.3063 34.4578C26.8937 35.2022 26.1812 36.1501 25.6101 36.801C23.8992 38.7504 22.1338 39.8846 19.4799 40.1079C17.7727 40.1173 15.984 39.3255 14.4403 38.6095C13.8407 38.2545 13.2008 37.7773 12.655 37.3596C11.1373 36.1969 10.0121 34.5768 8.7168 33.2353C7.27977 31.747 5.76043 30.3627 4.43246 28.7586C3.73694 27.9184 2.85025 27.2309 2.31043 26.2543C1.41082 24.8129 0.822776 23.4003 0.669363 21.6998C0.280234 17.8794 2.04136 14.4022 3.69765 11.0746C4.5685 9.32274 5.45122 7.54937 6.74488 6.05214C8.61679 3.8857 10.473 1.83015 13.4063 1.1001C14.3284 0.870601 14.9455 0.671912 15.935 0.567626Z"
    fill="#EDE9E2"
  />
  <path
    d="M7.21683 23.0894C8.9824 22.8474 11.8599 23.5536 13.4569 24.3079C15.9336 25.4776 17.6655 25.2508 20.3283 25.0507C22.1682 24.9125 24.192 24.7093 26.04 24.9611C27.3831 25.1441 28.6795 25.7915 29.8472 26.4708C29.454 26.4196 28.6418 26.1494 28.2622 26.0143C26.4882 25.383 25.9687 25.1967 24.0901 25.1967C22.8872 25.231 21.6857 25.3034 20.4875 25.4137C17.6532 25.6752 16.431 25.9161 13.7173 24.8151C11.5642 23.9416 8.63438 22.9502 6.36823 23.6701C5.67744 23.8896 4.86167 24.4982 4.40359 25.0479C4.14437 25.3324 3.76027 26.2856 3.54958 26.3755L3.51221 26.3073C3.59269 24.5848 5.62112 23.2921 7.21683 23.0894Z"
    fill="black"
  />
  <path
    d="M4.08228 19.6834C6.21339 18.6063 9.66248 18.6626 12.0253 18.703C15.2159 18.7745 18.4014 18.9898 21.5717 19.3481L21.5763 19.4639C21.3341 19.7122 21.1166 19.4969 20.8559 19.5736C19.0136 19.5494 17.1538 19.2554 15.3187 19.1648C12.3309 19.0172 9.2669 18.8534 6.29598 19.2654C5.61209 19.3602 4.75516 19.6508 4.10347 19.6825L4.08228 19.6834Z"
    fill="black"
  />
  <path
    d="M7.78418 27.2252C9.11321 27.3542 14.3482 33.9993 14.8671 35.2746C14.8588 35.2687 14.8506 35.2628 14.8423 35.2569C13.3569 33.816 11.9284 31.9509 10.5712 30.4241C10.1044 29.8982 9.62771 29.381 9.14115 28.8726C8.78538 28.5066 7.85725 27.6972 7.78418 27.2252Z"
    fill="black"
  />
  <path
    d="M22.5465 33.628C22.7855 33.5933 23.0784 33.6003 23.3238 33.5985C20.4023 34.724 18.2419 34.116 15.6758 36.6203C15.6042 36.7102 15.5837 36.7223 15.491 36.7931L15.4241 36.7715C15.234 36.1651 16.5356 35.3144 16.982 35.044C18.6979 34.0047 20.5948 33.8185 22.5465 33.628Z"
    fill="black"
  />
  <path
    d="M27.279 27.5016L27.3624 27.5749C27.3736 27.9124 24.9259 32.5958 24.5133 33.2967C23.8762 32.548 26.6678 28.2653 27.279 27.5016Z"
    fill="black"
  />
  <path
    d="M13.8899 27.2264C14.5304 27.4652 15.5735 29.8911 15.9087 30.5763L15.8366 30.5632C15.6694 30.3935 13.9537 27.4544 13.8899 27.2264Z"
    fill="#676464"
  />
  <path
    d="M21.5717 19.348C22.4928 19.4559 23.6264 19.5645 24.5304 19.7102C24.0305 19.7573 21.1822 19.7141 20.856 19.5736C21.1166 19.4969 21.3341 19.7122 21.5764 19.4639L21.5717 19.348Z"
    fill="#3A353A"
  />
  <path
    d="M19.24 28.0167L19.3288 28.0879C19.4448 28.4925 19.3242 30.1821 19.0521 30.4768C19.0333 30.4679 19.0261 30.4662 19.0103 30.4488C18.8859 30.3113 19.2245 28.3659 19.24 28.0167Z"
    fill="#A4A39E"
  />
</svg>
