<svg
  width="31"
  height="36"
  viewBox="0 0 31 36"
  fill="none"
  xmlns="http://www.w3.org/2000/svg"
>
  <path
    d="M13.1337 0.116457L13.6342 0.0744494C16.3632 -0.141551 18.2482 0.0129499 20.3872 1.89995C26.6482 7.42445 30.2377 20.304 30.7387 28.372C30.8487 30.143 30.9622 32.4339 29.6602 33.8159C28.1062 35.4649 21.0807 35.4249 18.8327 35.5294C14.5022 35.5379 9.76369 35.6775 5.51619 34.7585C3.84769 34.398 2.02419 33.8124 1.07869 32.2809C-1.00181 28.9109 0.404698 23.493 1.3347 19.8915C3.1867 12.719 6.45418 4.06246 13.1337 0.116457Z"
    fill="#737071"
  />
  <path
    d="M13.3383 1.05631C13.5223 1.03481 13.7063 1.01331 13.8908 0.999807C16.3213 0.821807 18.0828 1.2618 19.9378 2.8828C27.1563 9.1908 29.5693 24.1618 30.0678 33.1888C25.6853 34.4848 21.6338 34.6138 17.0828 34.5478C13.0068 34.6138 5.85376 35.1413 2.52726 32.5698C1.10226 30.5723 0.933777 28.6023 1.22178 26.1988C2.25378 17.5948 6.31926 6.45931 13.3383 1.05631Z"
    fill="#EDE9E2"
  />
</svg>
