<svg
  width="35"
  height="39"
  viewBox="0 0 35 39"
  fill="none"
  xmlns="http://www.w3.org/2000/svg"
>
  <path
    d="M17.6729 0.546875C19.334 0.352317 21.0185 0.754732 22.6797 1.92578C25.9315 4.21845 29.1018 9.46556 31.6367 18.9102L31.8799 19.8369C32.3663 21.7309 33.3139 25.0947 33.8662 28.4092C34.1422 30.0656 34.3156 31.6901 34.2861 33.0957C34.2587 34.4041 34.0555 35.4592 33.6514 36.1768C28.0224 37.1478 20.6277 37.9799 15.0293 37.3418L14.9941 37.3379L14.958 37.3389C13.3784 37.3848 9.6691 37.3266 6.37109 36.7148C4.71769 36.4081 3.20875 35.9688 2.12695 35.3604C1.04127 34.7496 0.496675 34.0378 0.5 33.2031C0.524576 27.3423 1.89953 21.0817 4.11133 15.6143C6.32652 10.1386 9.36006 5.5099 12.6621 2.86719C14.3096 1.54876 16.0007 0.742782 17.6729 0.546875Z"
    fill="#EDE9E2"
    stroke="black"
  />
  <path
    d="M14.9725 37.8386C11.7745 37.9316 -0.0184783 37.6046 2.17418e-05 33.2006C0.0995217 9.47211 22.044 -20.5044 32.364 19.7126C33.329 23.4701 36.189 33.2876 33.959 36.6326C33.889 27.2516 30.174 10.4546 23.649 3.47211C11.7515 -9.25539 -2.05398 28.5126 1.65002 34.4466C5.00752 37.3151 12.5225 35.9626 14.9725 37.8386Z"
    fill="#737071"
  />
</svg>
