<svg
  width="33"
  height="29"
  viewBox="0 0 33 29"
  fill="none"
  xmlns="http://www.w3.org/2000/svg"
>
  <path
    d="M17.8126 0.011703C18.1643 -0.024922 18.4245 0.0351781 18.7527 0.0455531C21.0237 0.117278 23.1028 1.13525 25.029 2.2662C25.8861 2.7693 26.8851 3.29163 27.6896 3.92943C29.0672 5.02195 30.1239 6.5711 30.8474 8.16323C31.2886 9.13113 31.6899 9.9917 31.845 11.0513C31.9036 11.4508 32.0491 11.8897 32.0845 12.2948C32.1884 13.4901 32.1939 14.7493 31.761 15.887C30.9208 17.9176 29.3042 19.554 28.0278 21.314C26.4289 23.5185 25.1069 26.4265 22.4817 27.57C21.3792 28.0442 19.9307 28.2957 18.7251 28.2135C17.4488 28.1262 16.1396 28.0792 14.9322 27.627C14.382 27.4325 13.116 26.8914 12.6297 26.6127C11.3173 25.8599 10.0244 24.958 8.69189 24.2172C7.93313 23.7955 7.14018 23.41 6.37935 22.988C6.03363 22.7837 5.56848 22.6272 5.23591 22.4115C4.4518 21.9025 3.47752 21.4137 2.75149 20.8392C1.22636 19.652 0.249776 17.8977 0.0456753 15.9782C-0.0881535 14.7352 0.0852828 13.3397 0.394252 12.1297C0.48692 11.7378 0.672581 11.3514 0.793584 10.9746C1.4852 8.82138 2.76171 7.04488 4.43259 5.53525C5.0619 4.96668 5.78368 4.49505 6.50558 4.03315C8.66578 2.64108 10.9966 1.53243 13.4407 0.734553C14.0371 0.536303 14.7143 0.292253 15.3198 0.143978C15.7769 0.0320526 16.3979 0.0989781 16.8699 0.0925281C17.162 0.0885531 17.5156 0.042853 17.8126 0.011703Z"
    fill="black"
  />
  <path
    d="M16.2695 0.40889C16.595 0.363965 16.978 0.45789 17.3105 0.45889C17.5542 0.45959 17.8027 0.457591 18.0469 0.457416C20.6709 0.455591 23.0378 1.55594 25.2104 2.93074C26.0186 3.44207 26.8435 3.86039 27.568 4.50264C29.9768 6.63802 31.2652 9.76994 31.6024 12.9201C31.9647 16.1875 29.6566 18.2782 27.8692 20.6725C26.3625 22.6905 25.1783 25.1795 23.1148 26.7087C21.4473 27.9022 18.0264 27.946 16.0999 27.5557C15.2007 27.3255 14.5354 27.0565 13.6913 26.691C12.8091 26.309 12.2465 25.921 11.4431 25.406C10.56 24.84 9.62481 24.2582 8.7078 23.747C7.64491 23.1545 6.53562 22.6055 5.46176 22.031C5.0877 21.842 4.70957 21.5342 4.34676 21.341C3.52996 20.9062 3.0199 20.482 2.36989 19.8415C1.30748 18.7945 0.82154 17.6701 0.568688 16.2186C0.472738 15.6678 0.46883 15.1143 0.491352 14.5578C0.508563 13.082 0.860597 12.0103 1.39581 10.6683C1.81897 9.60734 2.00961 9.12179 2.71053 8.15287C3.37604 7.23294 4.08081 6.45829 4.94533 5.70592C5.45544 5.26189 6.04222 4.91109 6.60043 4.53819C7.61863 3.85802 8.6481 3.28622 9.76445 2.78494C10.5263 2.46559 11.3708 1.97777 12.1556 1.72584C13.4305 1.31654 14.9639 0.62879 16.2695 0.40889Z"
    fill="#EDE9E2"
  />
  <path
    d="M17.4066 10.1888L20.9304 10.1786C23.4393 10.1738 25.9776 10.1988 28.3877 11.0161C28.78 11.1491 29.1923 11.2573 29.5503 11.4688C29.285 11.4645 29.0368 11.3837 28.7765 11.3457C27.2503 11.1232 25.7376 10.7299 24.1932 10.6338C23.1377 10.5681 22.0271 10.5995 20.9667 10.6005L17.9389 10.6112C17.4249 10.6151 16.8577 10.6088 16.3488 10.6328C15.9448 10.6519 15.4502 10.7144 15.0412 10.7543L12.0429 11.0661C8.74931 11.2912 5.26398 12.1508 2.98756 14.6895L2.74365 14.497C3.07958 13.841 3.50749 13.5122 4.08372 13.0865C6.62308 11.2102 9.9314 10.7743 12.9946 10.5214C14.4579 10.4006 15.933 10.2127 17.4066 10.1888Z"
    fill="black"
  />
  <path
    d="M25.5131 14.8373C26.0254 14.8094 28.0549 14.7839 28.4372 14.8873C28.493 14.9023 28.5426 14.909 28.5717 14.9601C28.4156 15.0695 27.8244 15.0505 27.6064 15.0895C26.3601 15.3119 25.0884 15.3039 23.8271 15.3452C23.669 15.3504 23.4816 15.3663 23.3225 15.3842C22.1193 15.5198 20.9017 15.4171 19.6962 15.4766C17.9489 15.5557 16.2042 15.6834 14.4641 15.8595C11.7808 16.1513 9.13037 16.6911 6.54702 17.4718C5.92815 17.7055 5.26775 17.889 4.6794 18.1947C4.57714 18.2478 4.45423 18.3356 4.3418 18.3445C4.27308 18.3019 4.30006 18.3301 4.26318 18.2525C4.36259 17.7675 6.02884 17.242 6.48947 17.0814C7.06447 16.8808 7.68193 16.7423 8.26778 16.5788C9.80503 16.1499 11.3789 15.8324 12.9633 15.6382C13.4506 15.5638 13.9619 15.5682 14.4478 15.4982C15.3957 15.3476 16.3517 15.3161 17.303 15.2226C18.1118 15.1432 18.8845 15.0494 19.7012 15.0335C20.4205 15.0195 21.1412 15.0275 21.8595 15.0107C23.0785 14.9818 24.2968 14.924 25.5131 14.8373Z"
    fill="black"
  />
  <path
    d="M17.4807 21.0619C18.7991 20.9597 20.1815 21.1434 21.3461 21.7822C21.519 21.8769 21.7841 21.9519 21.9128 22.1027L21.9076 22.1462C21.6901 22.2002 20.0442 21.6264 19.6549 21.5614C18.6302 21.3909 18.1712 21.3592 17.1263 21.5077C16.2135 21.5199 15.0716 22.0377 14.3121 22.5379C14.1664 22.6339 13.6809 22.9837 13.5656 23.0319L13.5002 23.0044L13.4849 22.9427C13.509 22.8539 13.5717 22.7574 13.6372 22.6924C14.632 21.7074 16.1139 21.1552 17.4807 21.0619Z"
    fill="black"
  />
  <path
    d="M27.4158 16.5425C27.4754 16.5478 27.4556 16.5408 27.5039 16.5744C27.5125 16.6033 27.5152 16.6057 27.515 16.6401C27.5132 16.9752 24.0698 20.8404 23.555 21.3864C23.2664 21.6926 22.9522 21.9749 22.6416 22.2586C22.62 22.2756 22.6153 22.2711 22.5832 22.2771L22.5762 22.2284C22.7776 21.5864 26.7897 17.0096 27.4158 16.5425Z"
    fill="black"
  />
  <path
    d="M6.83692 18.7417C7.02927 18.7629 7.44714 19.0782 7.60868 19.2025C9.18965 20.4175 10.9655 21.3247 12.5775 22.4969C12.7217 22.6019 12.867 22.688 13.0039 22.805L13.0057 22.8582C12.2595 22.668 10.7265 21.7159 10.0189 21.2882C9.59401 21.0314 9.01278 20.7147 8.60092 20.4197C8.05045 20.0254 7.28791 19.5115 6.87312 18.9645C6.80423 18.8737 6.81976 18.8324 6.83692 18.7417Z"
    fill="black"
  />
</svg>
