<svg
  width="35"
  height="39"
  viewBox="0 0 35 39"
  fill="none"
  xmlns="http://www.w3.org/2000/svg"
>
  <path
    d="M17.1168 0.546875C15.4556 0.352317 13.7711 0.754732 12.1099 1.92578C8.85809 4.21845 5.6878 9.46556 3.15292 18.9102L2.90975 19.8369C2.42334 21.7309 1.47571 25.0947 0.923424 28.4092C0.647428 30.0656 0.474028 31.6901 0.503502 33.0957C0.530948 34.4041 0.734131 35.4592 1.13827 36.1768C6.76726 37.1478 14.162 37.9799 19.7603 37.3418L19.7955 37.3379L19.8316 37.3389C21.4112 37.3848 25.1205 37.3266 28.4185 36.7148C30.0719 36.4081 31.5809 35.9688 32.6627 35.3604C33.7484 34.7496 34.293 34.0378 34.2896 33.2031C34.2651 27.3423 32.8901 21.0817 30.6783 15.6143C28.4631 10.1386 25.4296 5.5099 22.1275 2.86719C20.4801 1.54876 18.789 0.742782 17.1168 0.546875Z"
    fill="#EDE9E2"
    stroke="black"
  />
  <path
    d="M19.8171 37.8386C23.0151 37.9316 34.8081 37.6046 34.7896 33.2006C34.6901 9.47211 12.7456 -20.5044 2.4256 19.7126C1.4606 23.4701 -1.39937 33.2876 0.830627 36.6326C0.900627 27.2516 4.61563 10.4546 11.1406 3.47211C23.0381 -9.25539 36.8436 28.5126 33.1396 34.4466C29.7821 37.3151 22.2671 35.9626 19.8171 37.8386Z"
    fill="#737071"
  />
</svg>
