<svg
  width="31"
  height="36"
  viewBox="0 0 31 36"
  fill="none"
  xmlns="http://www.w3.org/2000/svg"
>
  <path
    d="M17.6671 0.116457L17.1666 0.0744494C14.4376 -0.141551 12.5526 0.0129499 10.4136 1.89995C4.15259 7.42445 0.563092 20.304 0.0620918 28.372C-0.0479082 30.143 -0.161417 32.4339 1.14058 33.8159C2.69458 35.4649 9.7201 35.4249 11.9681 35.5294C16.2986 35.5379 21.0371 35.6775 25.2846 34.7585C26.9531 34.398 28.7766 33.8124 29.7221 32.2809C31.8026 28.9109 30.3961 23.493 29.4661 19.8915C27.6141 12.719 24.3466 4.06246 17.6671 0.116457Z"
    fill="#737071"
  />
  <path
    d="M17.4625 1.05631C17.2785 1.03481 17.0945 1.01331 16.91 0.999807C14.4795 0.821807 12.718 1.2618 10.863 2.8828C3.6445 9.1908 1.23153 24.1618 0.733027 33.1888C5.11553 34.4848 9.16701 34.6138 13.718 34.5478C17.794 34.6138 24.947 35.1413 28.2735 32.5698C29.6985 30.5723 29.867 28.6023 29.579 26.1988C28.547 17.5948 24.4815 6.45931 17.4625 1.05631Z"
    fill="#EDE9E2"
  />
</svg>
