<svg
  width="33"
  height="29"
  viewBox="0 0 33 29"
  fill="none"
  xmlns="http://www.w3.org/2000/svg"
>
  <path
    d="M14.3305 0.011703C13.9788 -0.024922 13.7186 0.0351781 13.3904 0.0455531C11.1194 0.117278 9.04031 1.13525 7.11404 2.2662C6.25701 2.7693 5.25792 3.29163 4.4535 3.92943C3.07588 5.02195 2.01918 6.5711 1.29567 8.16323C0.854502 9.13113 0.453165 9.9917 0.298092 11.0513C0.239469 11.4508 0.0939178 11.8897 0.0585942 12.2948C-0.0453724 13.4901 -0.050883 14.7493 0.382019 15.887C1.22227 17.9176 2.83888 19.554 4.11529 21.314C5.71412 23.5185 7.03613 26.4265 9.66135 27.57C10.7639 28.0442 12.2124 28.2957 13.4179 28.2135C14.6943 28.1262 16.0035 28.0792 17.2109 27.627C17.761 27.4325 19.0271 26.8914 19.5134 26.6127C20.8258 25.8599 22.1187 24.958 23.4512 24.2172C24.2099 23.7955 25.0029 23.41 25.7637 22.988C26.1094 22.7837 26.5746 22.6272 26.9072 22.4115C27.6913 21.9025 28.6655 21.4137 29.3916 20.8392C30.9167 19.652 31.8933 17.8977 32.0974 15.9782C32.2312 14.7352 32.0578 13.3397 31.7488 12.1297C31.6561 11.7378 31.4705 11.3514 31.3495 10.9746C30.6579 8.82138 29.3814 7.04488 27.7105 5.53525C27.0812 4.96668 26.3594 4.49505 25.6375 4.03315C23.4773 2.64108 21.1464 1.53243 18.7024 0.734553C18.106 0.536303 17.4287 0.292253 16.8232 0.143978C16.3662 0.0320526 15.7452 0.0989781 15.2732 0.0925281C14.981 0.0885531 14.6275 0.042853 14.3305 0.011703Z"
    fill="black"
  />
  <path
    d="M15.8735 0.40889C15.548 0.363965 15.1651 0.45789 14.8326 0.45889C14.5889 0.45959 14.3403 0.457591 14.0962 0.457416C11.4721 0.455591 9.10522 1.55594 6.93269 2.93074C6.12451 3.44207 5.29954 3.86039 4.57503 4.50264C2.16626 6.63802 0.877827 9.76994 0.540625 12.9201C0.17837 16.1875 2.48643 18.2782 4.2739 20.6725C5.78054 22.6905 6.96476 25.1795 9.02831 26.7087C10.6958 27.9022 14.1166 27.946 16.0432 27.5557C16.9423 27.3255 17.6077 27.0565 18.4518 26.691C19.334 26.309 19.8965 25.921 20.6999 25.406C21.5831 24.84 22.5183 24.2582 23.4353 23.747C24.4982 23.1545 25.6074 22.6055 26.6813 22.031C27.0554 21.842 27.4335 21.5342 27.7963 21.341C28.6131 20.9062 29.1232 20.482 29.7732 19.8415C30.8356 18.7945 31.3215 17.6701 31.5744 16.2186C31.6703 15.6678 31.6742 15.1143 31.6517 14.5578C31.6345 13.082 31.2825 12.0103 30.7473 10.6683C30.3241 9.60734 30.1335 9.12179 29.4325 8.15287C28.767 7.23294 28.0623 6.45829 27.1977 5.70592C26.6876 5.26189 26.1009 4.91109 25.5426 4.53819C24.5244 3.85802 23.495 3.28622 22.3786 2.78494C21.6168 2.46559 20.7722 1.97777 19.9875 1.72584C18.7125 1.31654 17.1792 0.62879 15.8735 0.40889Z"
    fill="#EDE9E2"
  />
  <path
    d="M14.7364 10.1888L11.2127 10.1786C8.70372 10.1738 6.16543 10.1988 3.75541 11.0161C3.3631 11.1491 2.95074 11.2573 2.59274 11.4688C2.85805 11.4645 3.10631 11.3837 3.36661 11.3457C4.89279 11.1232 6.40544 10.7299 7.9499 10.6338C9.00535 10.5681 10.1159 10.5995 11.1764 10.6005L14.2042 10.6112C14.7181 10.6151 15.2853 10.6088 15.7943 10.6328C16.1983 10.6519 16.6929 10.7144 17.1019 10.7543L20.1002 11.0661C23.3938 11.2912 26.8791 12.1508 29.1555 14.6895L29.3994 14.497C29.0635 13.841 28.6356 13.5122 28.0593 13.0865C25.52 11.2102 22.2117 10.7743 19.1485 10.5214C17.6851 10.4006 16.21 10.2127 14.7364 10.1888Z"
    fill="black"
  />
  <path
    d="M6.62999 14.8373C6.11767 14.8094 4.08819 14.7839 3.70589 14.8873C3.65003 14.9023 3.60042 14.909 3.57136 14.9601C3.72744 15.0695 4.31867 15.0505 4.53663 15.0895C5.78297 15.3119 7.05462 15.3039 8.316 15.3452C8.47408 15.3504 8.66147 15.3663 8.82055 15.3842C10.0238 15.5198 11.2413 15.4171 12.4469 15.4766C14.1941 15.5557 15.9389 15.6834 17.679 15.8595C20.3623 16.1513 23.0127 16.6911 25.5961 17.4718C26.2149 17.7055 26.8753 17.889 27.4637 18.1947C27.5659 18.2478 27.6888 18.3356 27.8013 18.3445C27.87 18.3019 27.843 18.3301 27.8799 18.2525C27.7805 17.7675 26.1142 17.242 25.6536 17.0814C25.0786 16.8808 24.4611 16.7423 23.8753 16.5788C22.338 16.1499 20.7642 15.8324 19.1798 15.6382C18.6924 15.5638 18.1812 15.5682 17.6952 15.4982C16.7474 15.3476 15.7914 15.3161 14.84 15.2226C14.0313 15.1432 13.2585 15.0494 12.4418 15.0335C11.7226 15.0195 11.0018 15.0275 10.2836 15.0107C9.06456 14.9818 7.84627 14.924 6.62999 14.8373Z"
    fill="black"
  />
  <path
    d="M14.6624 21.0619C13.344 20.9597 11.9616 21.1434 10.7969 21.7822C10.6241 21.8769 10.359 21.9519 10.2302 22.1027L10.2355 22.1462C10.453 22.2002 12.0989 21.6264 12.4882 21.5614C13.5128 21.3909 13.9719 21.3592 15.0168 21.5077C15.9295 21.5199 17.0715 22.0377 17.831 22.5379C17.9767 22.6339 18.4621 22.9837 18.5775 23.0319L18.6428 23.0044L18.6582 22.9427C18.6341 22.8539 18.5714 22.7574 18.5059 22.6924C17.5111 21.7074 16.0292 21.1552 14.6624 21.0619Z"
    fill="black"
  />
  <path
    d="M4.72731 16.5425C4.66769 16.5478 4.68748 16.5408 4.63913 16.5744C4.63061 16.6033 4.62785 16.6057 4.6281 16.6401C4.62986 16.9752 8.07328 20.8404 8.5881 21.3864C8.8767 21.6926 9.19086 21.9749 9.50151 22.2586C9.52305 22.2756 9.52781 22.2711 9.55988 22.2771L9.56689 22.2284C9.36547 21.5864 5.35336 17.0096 4.72731 16.5425Z"
    fill="black"
  />
  <path
    d="M25.3061 18.7417C25.1138 18.7629 24.6959 19.0782 24.5344 19.2025C22.9534 20.4175 21.1775 21.3247 19.5656 22.4969C19.4213 22.6019 19.2761 22.688 19.1391 22.805L19.1373 22.8582C19.8835 22.668 21.4165 21.7159 22.1242 21.2882C22.5491 21.0314 23.1303 20.7147 23.5421 20.4197C24.0926 20.0254 24.8552 19.5115 25.2699 18.9645C25.3388 18.8737 25.3233 18.8324 25.3061 18.7417Z"
    fill="black"
  />
</svg>
