<svg
  width="37"
  height="43"
  viewBox="0 0 37 43"
  fill="none"
  xmlns="http://www.w3.org/2000/svg"
>
  <path
    d="M34.2459 34.1569C43.9924 22.6374 22.1084 -14.2226 7.96492 5.9029C2.70842 13.3829 -0.605078 21.8229 0.0924225 30.9864C5.27292 39.7069 17.8754 46.3349 26.8129 39.6889C28.6604 38.3154 31.4794 37.0229 32.9179 35.2239L34.2459 34.1569Z"
    fill="#E3DFDA"
  />
  <path
    d="M34.2459 34.1569C43.9924 22.6374 22.1084 -14.2226 7.96492 5.9029C2.70842 13.3829 -0.605078 21.8229 0.0924225 30.9864C5.27292 39.7069 17.8754 46.3349 26.8129 39.6889C28.6604 38.3154 31.4794 37.0229 32.9179 35.2239C28.3979 37.4079 21.3429 42.5004 16.6674 41.9269C13.3684 40.8059 9.81992 38.6074 6.90642 36.7484C6.27892 36.5459 6.22843 36.3904 5.71043 36.0849C-4.40957 30.1094 3.81342 13.4044 9.26942 6.1529C10.6509 7.1644 11.3704 8.3939 12.9324 9.3619C15.4394 8.3169 16.8059 7.87991 19.4939 8.56091C24.2194 9.75791 23.5574 8.69791 27.0169 6.58941L27.2949 6.42341C33.7594 15.1174 37.7149 23.3884 34.2459 34.1569Z"
    fill="#818081"
  />
  <path
    d="M27.2952 6.42339C21.9777 0.513891 14.0532 -1.78812 9.26965 6.15288C10.6512 7.16438 11.3706 8.39388 12.9326 9.36188C15.4396 8.31688 16.8062 7.87989 19.4942 8.56089C24.2197 9.75789 23.5577 8.69789 27.0172 6.58939L27.2952 6.42339Z"
    fill="#FEFEFE"
  />
</svg>
