<svg
  width="36"
  height="41"
  viewBox="0 0 36 41"
  fill="none"
  xmlns="http://www.w3.org/2000/svg"
>
  <path
    d="M19.4353 0.0078759C16.5506 -0.112191 12.4813 1.15282 10.2218 2.96229C9.20746 3.77456 7.94791 4.9816 7.13276 5.99654C6.77698 6.42712 6.48111 6.94616 6.13749 7.37834C4.80358 9.05589 3.74089 10.8492 2.77386 12.75C2.3654 13.5529 1.75744 14.4787 1.4344 15.3233C0.787445 17.0146 0.341517 18.8674 0.106375 20.6592C4.84447e-05 21.5042 -0.0679495 23.1348 0.108527 23.949C0.497321 25.7429 1.98728 27.5513 3.28726 28.8337C4.18132 29.7156 4.96216 30.4126 5.69788 31.4547C6.25956 32.1995 6.5125 33.0864 6.93704 33.8999C8.81981 37.5071 11.5305 40.2639 15.8055 40.7261C18.6077 40.7832 21.8073 39.0717 23.851 37.2646C25.2136 36.0602 26.2639 34.5118 27.4982 33.2214L31.2194 29.3886C31.5884 29.0025 31.97 28.6297 32.3362 28.24C34.2027 26.254 35.2445 23.9274 35.345 21.2207C35.3897 19.768 35.2308 18.3162 34.8727 16.9057C34.4712 15.3866 33.6028 13.5516 32.9276 12.1178C32.0765 10.3106 31.1347 8.38916 30.0163 6.72649C29.289 5.64515 28.3733 4.76581 27.5129 3.80968C25.4215 1.48557 22.6354 0.119935 19.4353 0.0078759Z"
    fill="black"
  />
  <path
    d="M19.4174 0.567626C18.7647 0.491952 17.7746 0.681746 17.1225 0.796052C14.8138 1.20079 12.3914 2.08686 10.5677 3.56062C9.52535 4.5175 8.34092 5.54725 7.50869 6.68999C6.61262 7.92043 5.64922 9.24814 4.82943 10.5272C4.36441 11.2529 3.96882 12.134 3.54179 12.8845C2.85876 14.0848 2.19429 15.3174 1.75119 16.621C1.18922 18.2882 0.885171 20.1681 0.691133 21.91C0.615049 22.5928 0.566385 24.0669 0.917377 24.6556C1.69918 25.9669 2.84101 27.3844 3.93762 28.4743C4.6297 29.1622 5.45107 29.8424 6.01443 30.6129C6.85245 31.759 7.35906 33.2181 8.04611 34.4578C8.45869 35.2022 9.1712 36.1501 9.7423 36.801C11.4531 38.7504 13.2186 39.8846 15.8725 40.1079C17.5797 40.1173 19.3684 39.3255 20.9121 38.6095C21.5117 38.2545 22.1516 37.7773 22.6974 37.3596C24.2151 36.1969 25.3403 34.5768 26.6356 33.2353C28.0726 31.747 29.5919 30.3627 30.9199 28.7586C31.6154 27.9184 32.5021 27.2309 33.0419 26.2543C33.9416 24.8129 34.5296 23.4003 34.683 21.6998C35.0721 17.8794 33.311 14.4022 31.6547 11.0746C30.7839 9.32274 29.9012 7.54937 28.6075 6.05214C26.7356 3.8857 24.8794 1.83015 21.946 1.1001C21.024 0.870601 20.4068 0.671912 19.4174 0.567626Z"
    fill="#EDE9E2"
  />
  <path
    d="M28.1356 23.0894C26.37 22.8474 23.4925 23.5536 21.8955 24.3079C19.4188 25.4776 17.6869 25.2508 15.0241 25.0507C13.1841 24.9125 11.1604 24.7093 9.31238 24.9611C7.96933 25.1441 6.67289 25.7915 5.50521 26.4708C5.89841 26.4196 6.71055 26.1494 7.09015 26.0143C8.8642 25.383 9.38368 25.1967 11.2622 25.1967C12.4652 25.231 13.6667 25.3034 14.8649 25.4137C17.6992 25.6752 18.9214 25.9161 21.6351 24.8151C23.7881 23.9416 26.718 22.9502 28.9842 23.6701C29.6749 23.8896 30.4907 24.4982 30.9488 25.0479C31.208 25.3324 31.5921 26.2856 31.8028 26.3755L31.8402 26.3073C31.7597 24.5848 29.7313 23.2921 28.1356 23.0894Z"
    fill="black"
  />
  <path
    d="M31.2701 19.6834C29.139 18.6063 25.6899 18.6626 23.327 18.703C20.1365 18.7745 16.951 18.9898 13.7807 19.3481L13.7761 19.4639C14.0183 19.7122 14.2358 19.4969 14.4965 19.5736C16.3387 19.5494 18.1985 19.2554 20.0337 19.1648C23.0215 19.0172 26.0855 18.8534 29.0564 19.2654C29.7403 19.3602 30.5972 19.6508 31.2489 19.6825L31.2701 19.6834Z"
    fill="black"
  />
  <path
    d="M27.5682 27.2252C26.2392 27.3542 21.0042 33.9993 20.4853 35.2746C20.4935 35.2687 20.5018 35.2628 20.51 35.2569C21.9955 33.816 23.424 31.9509 24.7812 30.4241C25.248 29.8982 25.7247 29.381 26.2112 28.8726C26.567 28.5066 27.4951 27.6972 27.5682 27.2252Z"
    fill="black"
  />
  <path
    d="M12.8059 33.6278C12.5669 33.5931 12.274 33.6002 12.0286 33.5984C14.9501 34.7239 17.1105 34.1159 19.6765 36.6201C19.7482 36.71 19.7687 36.7222 19.8614 36.7929L19.9283 36.7714C20.1184 36.165 18.8168 35.3143 18.3704 35.0439C16.6545 34.0046 14.7576 33.8183 12.8059 33.6278Z"
    fill="black"
  />
  <path
    d="M8.07336 27.5016L7.99 27.5749C7.97875 27.9124 10.4265 32.5958 10.839 33.2967C11.4762 32.548 8.68456 28.2653 8.07336 27.5016Z"
    fill="black"
  />
  <path
    d="M21.4625 27.2264C20.8219 27.4652 19.7789 29.8911 19.4437 30.5763L19.5158 30.5632C19.6829 30.3935 21.3987 27.4544 21.4625 27.2264Z"
    fill="#676464"
  />
  <path
    d="M13.7807 19.348C12.8596 19.4559 11.726 19.5645 10.822 19.7102C11.3219 19.7573 14.1702 19.7141 14.4964 19.5736C14.2358 19.4969 14.0182 19.7122 13.776 19.4639L13.7807 19.348Z"
    fill="#3A353A"
  />
  <path
    d="M16.1124 28.0168L16.0236 28.0881C15.9076 28.4927 16.0282 30.1822 16.3003 30.4769C16.3191 30.468 16.3263 30.4663 16.3421 30.4489C16.4665 30.3115 16.1278 28.366 16.1124 28.0168Z"
    fill="#A4A39E"
  />
</svg>
