<svg
  width="40"
  height="45"
  viewBox="0 0 40 45"
  fill="none"
  xmlns="http://www.w3.org/2000/svg"
>
  <path
    d="M25.8438 1.50355C21.6973 -0.30095 19.3743 -0.491441 14.9738 0.987559C10.2183 2.58556 3.07583 10.6581 2.68933 15.6646C-5.06517 31.5726 5.06583 39.8911 18.8703 44.7866C25.8788 43.9521 34.9298 39.2711 37.8668 32.6966C42.3823 22.5901 35.5553 6.07755 25.8438 1.50355Z"
    fill="#EDE9E2"
  />
  <path
    d="M25.5033 11.9021C23.8288 8.60806 16.0698 8.88156 13.2533 11.4646C5.7753 12.9016 3.13481 24.8126 6.36981 29.9476L6.56729 30.4251C8.14529 28.8186 9.2533 23.5836 9.7558 21.2441L11.0273 20.7376C12.7998 21.5196 13.4353 21.7056 14.7013 23.1471L14.0013 23.6571L19.6908 25.8161C23.1963 25.1616 24.3583 25.0481 27.3288 23.0941C29.7223 24.6366 29.8133 27.7926 32.3173 28.8791C32.6488 29.8876 32.6673 29.9166 33.4163 30.6866L33.8483 30.4311L33.5883 29.1071C35.0833 24.7811 34.6398 18.8711 32.9273 14.6026C30.0568 12.5441 29.0308 11.4586 25.5033 11.9021Z"
    fill="#E3DDC7"
  />
  <path
    d="M9.85614 17.053C8.75514 21.2465 7.64666 25.836 6.36966 29.9475L6.56714 30.425C8.14514 28.8185 9.25315 23.5835 9.75565 21.244L11.0272 20.7375C12.7997 21.5195 13.4351 21.7055 14.7011 23.147L14.0012 23.657L19.6906 25.816C23.1961 25.1615 24.3581 25.048 27.3286 23.094C29.7221 24.6365 29.8131 27.7925 32.3171 28.879C32.6486 29.8875 32.6671 29.9165 33.4161 30.6865L33.8481 30.431L33.5881 29.107C31.9786 24.9575 31.5396 21.2785 30.2086 17.446C19.3476 24.6355 20.0586 23.399 9.85614 17.053Z"
    fill="#ADA49D"
  />
  <path
    d="M19.6859 24.2805C16.5479 23.1415 12.4224 19.9225 10.7199 19.839L9.75589 21.244L11.0274 20.7375C12.7999 21.5195 13.4354 21.7055 14.7014 23.147L14.0014 23.657L19.6909 25.816C23.1964 25.1615 24.3584 25.048 27.3289 23.094C29.7224 24.6365 29.8134 27.7925 32.3174 28.879C31.4599 25.7605 30.4374 22.553 29.4934 19.448C25.8804 21.7875 23.7769 23.046 19.6859 24.2805Z"
    fill="#CCC4BF"
  />
  <path
    d="M25.5032 11.9021C23.8287 8.60806 16.0697 8.88156 13.2532 11.4646C16.2837 14.0271 17.3687 17.4366 19.7127 20.7671C21.3187 18.1986 23.6902 14.1591 25.5032 11.9021Z"
    fill="#FEFEFE"
  />
  <path
    d="M25.8438 1.50342L26.0933 1.77843C27.8998 3.75243 29.7093 4.52393 30.7308 6.64943L30.8638 6.91992C30.9388 7.09792 31.0143 7.27592 31.0893 7.45392C35.4058 8.83992 37.8218 22.4849 37.8133 26.7919L37.8113 26.9659C36.1143 29.7929 34.9833 32.4019 31.9933 33.7404L19.9958 39.8994C17.0893 38.8909 9.20183 34.7499 6.07233 33.1589L4.76334 31.9379C-1.06566 27.7599 2.95683 21.1184 2.68933 15.6644C-5.06517 31.5724 5.06583 39.8909 18.8703 44.7864C25.8788 43.9519 34.9298 39.2709 37.8668 32.6964C42.3823 22.5899 35.5553 6.07742 25.8438 1.50342Z"
    fill="#C1BCB7"
  />
  <path
    d="M25.8439 1.50355C21.6974 -0.30095 19.3743 -0.491441 14.9738 0.987559C10.2183 2.58556 3.07586 10.6581 2.68936 15.6646C2.95686 21.1186 -1.06563 27.7601 4.76337 31.9381C3.47037 27.2311 2.65485 25.0461 4.07135 19.7456C5.79685 13.5381 9.49036 6.29606 16.0659 4.25506C18.7414 3.42506 20.8123 3.87605 23.3643 2.18905C23.8738 2.63555 29.8359 6.54455 31.0894 7.45405C31.0144 7.27605 30.9389 7.09805 30.8639 6.92005L30.7309 6.64956C29.7094 4.52406 27.8999 3.75256 26.0934 1.77856L25.8439 1.50355Z"
    fill="#D5CFCC"
  />
  <path
    d="M31.0892 7.4541C31.6872 10.3551 32.9517 11.6071 32.9272 14.6026C34.6397 18.8711 35.0832 24.7811 33.5882 29.1071L33.8482 30.4311L33.4162 30.6866C32.6672 29.9166 32.6487 29.8876 32.3172 28.8791C29.8132 27.7926 29.7222 24.6366 27.3287 23.0941C24.3582 25.0481 23.1962 25.1616 19.6907 25.8161L14.0012 23.6571L12.7442 23.7471L12.6442 24.8246C12.6692 24.8191 26.8897 26.6806 28.6337 26.8191C30.1707 29.0561 31.1232 31.1781 31.9932 33.7406C34.9832 32.4021 36.1142 29.7931 37.8112 26.9661L37.8132 26.7921C37.8217 22.4851 35.4057 8.8401 31.0892 7.4541Z"
    fill="#D5CFCC"
  />
  <path
    d="M14.0012 23.6568L14.7012 23.1468C13.4352 21.7053 12.7997 21.5193 11.0272 20.7373L9.75568 21.2438C9.25318 23.5833 8.14517 28.8183 6.56717 30.4248L7.39117 31.7043C10.0817 30.0278 11.0907 27.5778 12.6442 24.8243L12.7442 23.7468L14.0012 23.6568Z"
    fill="#E3DDC7"
  />
</svg>
