<svg
  width="41"
  height="45"
  viewBox="0 0 41 45"
  fill="none"
  xmlns="http://www.w3.org/2000/svg"
>
  <path
    d="M22.256 0.00735223C18.591 -0.0431478 15.587 0.119349 12.3115 2.01335C6.11455 5.59635 2.81354 12.6349 1.11504 19.3239C-0.213956 24.5594 -0.848938 30.6318 2.09606 35.4463C5.50406 41.0178 12.3561 43.3964 18.3761 44.8274C23.4221 44.9589 28.9195 43.6449 33.204 40.9134C36.7975 38.6224 39.3245 35.3414 40.2125 31.1349C41.7465 23.8689 39.1305 14.7293 35.0805 8.65535C31.9355 3.93885 27.8195 1.10285 22.256 0.00735223Z"
    fill="#737071"
  />
  <path
    d="M21.9246 1.02095C19.0056 0.884447 15.8971 1.28444 13.3246 2.72244C7.33059 6.07394 4.00858 12.7639 2.24158 19.1484C0.834081 24.2334 0.0500829 30.4139 2.85608 35.1604C5.86058 40.2429 12.8446 42.4514 18.2561 43.8064C23.1626 43.9794 28.8811 42.6794 32.9936 39.9389C36.2846 37.7464 38.4626 34.6024 39.2211 30.7149C40.5876 23.7104 37.7581 14.5309 33.7786 8.75244C30.6856 4.26094 27.1666 2.00245 21.9246 1.02095Z"
    fill="#D5CFCC"
  />
  <path
    d="M28.5575 12.0374C28.6565 11.9119 28.6955 11.375 28.726 11.17C23.0865 6.09996 16.648 8.24595 10.543 10.7139L12.3175 12.0815C16.815 14.9905 16.266 23.3155 21.1165 23.2385L21.5105 24.7715C17.119 24.887 12.9655 21.776 10.4395 18.39L9.82152 18.6169C9.78102 27.7134 5.77552 25.434 5.42302 32.575L4.394 32.3384C4.4645 33.3499 5.03952 34.141 5.96502 34.6155C9.09702 36.45 15.4615 38.5405 19.1585 40.17C22.4625 38.9765 30.699 36.607 33.162 35.5575C35.602 34.9985 37.009 32.7 36.995 30.3185L36.6225 30.2334L35.9725 31.685L35.2205 31.8149L35.0455 30.004C34.604 30.7095 34.625 31.4584 34.55 32.2979L34.0565 31.8935C34.19 30.635 33.7955 29.186 33.5425 27.911C34.379 27.887 33.997 27.9965 34.722 27.5515C36.402 22.015 33.4855 15.0274 28.5575 12.0374Z"
    fill="#E3DDC7"
  />
  <path
    d="M19.2214 30.499C19.1134 29.693 18.9624 29.277 18.7179 28.499C16.4734 27.311 12.1664 25.2875 9.63437 25.7385C8.60437 28.126 7.35388 30.7765 5.42288 32.575L4.39386 32.3385C4.46436 33.35 5.03937 34.141 5.96487 34.6155C9.09687 36.45 15.4614 38.5405 19.1584 40.17C22.4624 38.9765 30.6989 36.607 33.1619 35.5575C28.6279 35.686 26.2094 35.332 21.1654 35.7015L20.3814 35.2105L19.2214 30.499Z"
    fill="#EDE9E2"
  />
  <path
    d="M20.3814 35.2106C15.1134 35.8126 12.9124 35.4871 7.64337 34.0596L5.96487 34.6156C9.09687 36.4501 15.4614 38.5406 19.1584 40.1701C22.4624 38.9766 30.6989 36.6071 33.1619 35.5576C28.6279 35.6861 26.2094 35.3321 21.1654 35.7016L20.3814 35.2106Z"
    fill="#FEFEFE"
  />
  <path
    d="M28.5576 12.0374C28.6566 11.9119 28.6956 11.375 28.7261 11.17C23.0866 6.09996 16.6481 8.24595 10.5431 10.7139L12.3176 12.0815C16.8151 14.9905 16.2661 23.3155 21.1166 23.2385C23.3671 19.9725 25.6441 14.1454 28.5576 12.0374Z"
    fill="#FEFEFE"
  />
  <path
    d="M31.3125 27.365C27.9815 26.0505 23.87 24.7535 23.0045 29.7665L22.1425 28.5695C20.8235 28.987 20.2485 29.6095 19.2215 30.499L20.3815 35.2105L21.1655 35.7015C26.2095 35.332 28.628 35.686 33.162 35.5575C35.602 34.9985 37.009 32.7 36.995 30.3185L36.6225 30.2335L35.9725 31.685L35.2205 31.815L35.0455 30.004C34.604 30.7095 34.625 31.4585 34.55 32.298L34.0565 31.8935C32.9815 30.356 32.2315 29.003 31.3125 27.365Z"
    fill="#EDE9E2"
  />
  <path
    d="M23.0044 29.7663L22.1424 28.5693C20.8234 28.9868 20.2484 29.6093 19.2214 30.4988L20.3814 35.2103L21.1654 35.7013C21.8794 34.1663 22.5319 31.4738 23.0044 29.7663Z"
    fill="#CCC4BF"
  />
  <path
    d="M28.5575 12.0376C25.644 14.1456 23.367 19.9726 21.1165 23.2386L21.5105 24.7716C25.2295 22.6556 27.7061 21.0851 31.0206 18.3241C30.8141 21.2836 31.7995 25.5651 33.5425 27.9111C34.379 27.8871 33.997 27.9966 34.722 27.5516C36.402 22.0151 33.4855 15.0276 28.5575 12.0376Z"
    fill="#E3DDC7"
  />
  <path
    d="M21.5104 24.7715C17.1189 24.887 12.9654 21.776 10.4394 18.39L9.8214 18.617C9.7809 27.7135 5.7754 25.434 5.4229 32.575C7.3539 30.7765 8.60439 28.126 9.63439 25.7385C10.5349 23.667 10.2254 23.387 11.8069 22.5285C14.1694 22.615 16.8039 25.0105 19.5889 26.179C23.5239 24.7975 26.3484 23.57 29.7169 21.006L31.3124 27.365C32.2314 29.003 32.9814 30.356 34.0564 31.8935C34.1899 30.635 33.7954 29.186 33.5424 27.911C31.7994 25.565 30.8139 21.2835 31.0204 18.324C27.7059 21.085 25.2294 22.6555 21.5104 24.7715Z"
    fill="#ADA49D"
  />
  <path
    d="M10.5431 10.7139C7.65512 12.1659 4.68761 20.0289 4.87961 23.0219L5.37811 23.5679C6.44361 18.7884 7.56313 14.5059 12.3176 12.0814L10.5431 10.7139Z"
    fill="#EDE9E2"
  />
</svg>
