<svg
  width="52"
  height="50"
  viewBox="0 0 52 50"
  fill="none"
  xmlns="http://www.w3.org/2000/svg"
>
  <path
    d="M17.4537 49.331C25.6722 49.3575 35.8913 51.3835 42.5408 45.666C49.0668 40.055 50.3168 30.7065 50.9648 22.6225C51.4638 16.398 50.5717 10.233 46.2962 5.36101C43.3652 2.02101 39.4973 0.3085 35.1183 0C26.9743 0.4285 15.2988 -0.619493 8.34526 4.21001C3.92926 7.27751 1.38975 12.3185 0.503248 17.518C-0.788252 25.0915 0.308755 35.866 4.92875 42.2235C8.11725 46.611 12.2677 48.4755 17.4537 49.331Z"
    fill="#C1BCB7"
  />
  <path
    d="M7.89776 14.0761C6.18226 14.8351 5.60327 15.0441 4.75227 16.7421C3.21377 17.0861 3.86827 17.1256 2.18277 16.2886L1.76677 16.9081C0.911267 38.7226 3.69376 49.2671 26.5443 48.0741C36.6288 47.5476 43.2363 48.7006 47.3013 36.9796C48.6253 32.2876 51.4308 17.2516 48.4013 13.3471L46.9433 13.0656C44.4328 6.6921 34.8528 -3.3604 30.1653 5.9946C28.9488 6.4161 25.2353 6.20909 23.0378 6.81009C17.9818 3.17509 9.17576 7.5306 7.39576 12.2896L8.16827 13.5191L7.89776 14.0761Z"
    fill="#ADA49D"
  />
  <path
    d="M7.89776 14.0761C6.18226 14.8351 5.60327 15.0441 4.75227 16.7421C3.21377 17.0861 3.86827 17.1256 2.18277 16.2886L1.76677 16.9081C0.911267 38.7226 3.69376 49.2671 26.5443 48.0741C36.6288 47.5476 43.2363 48.7006 47.3013 36.9796C46.3993 37.5416 42.9758 42.5176 41.6883 44.0136C41.7763 42.0281 41.9778 40.9226 42.3498 38.9601C43.0473 37.5931 43.6528 36.7186 43.5473 35.1931C43.7533 34.3851 43.8653 33.9711 44.1733 33.1976C42.6368 30.5241 46.2033 25.0806 43.6063 23.8176L42.9548 23.9001C35.5723 28.0286 42.6618 28.2506 41.5033 34.2416L41.7298 34.3066L41.6113 34.7916L39.8558 35.2741L39.9703 35.8556C37.2858 37.7221 32.9798 39.0656 29.8118 39.8411C24.6968 40.1136 23.1408 40.9126 22.0448 35.2736C22.0968 36.9656 22.2048 37.7706 21.6718 39.3886C20.3643 39.8116 20.9423 39.8071 19.3278 39.0206C18.6638 38.9101 17.5568 38.9286 16.8513 38.9141C14.1923 37.9641 11.9118 37.2481 9.45727 35.8206L8.24876 34.9686L8.37826 34.2831L8.90677 34.1226L8.85026 33.6961C8.32076 29.5011 10.5953 29.1731 9.98126 27.0876C7.74526 26.9046 6.18577 26.9741 4.44777 25.5596L5.92077 24.9031C3.37527 23.1551 4.61227 20.3486 5.85277 18.0026L6.20277 17.7641L5.71226 21.4306C7.78176 18.8661 7.83426 17.7836 10.3913 15.1616L8.90426 14.3211L7.89776 14.0761Z"
    fill="#D5CFCC"
  />
  <path
    d="M25.8169 42.9183C28.1839 44.3728 29.6419 44.5158 32.3194 45.0318C37.9154 43.5903 38.1184 41.9623 42.3499 38.9603C43.0474 37.5933 43.6529 36.7188 43.5474 35.1933C38.7034 38.9293 31.8049 41.8233 25.8169 42.9183Z"
    fill="#EDE9E2"
  />
  <path
    d="M25.8167 42.918L24.6452 43.0185L24.5642 43.3535C28.8822 47.765 37.0722 48.241 41.6882 44.0135C41.7762 42.028 41.9777 40.9225 42.3497 38.96C38.1182 41.962 37.9152 43.59 32.3192 45.0315C29.6417 44.5155 28.1837 44.3725 25.8167 42.918Z"
    fill="#EDE9E2"
  />
  <path
    d="M16.8434 44.5211L18.1024 44.4111C18.2919 43.1041 17.4484 41.8486 16.9089 40.6471C13.7639 39.4656 10.6829 38.2415 7.64087 36.8145L6.95337 36.5011C7.00337 37.3436 7.31588 37.9311 7.76538 38.6266C9.97588 42.0471 12.9194 43.7121 16.8434 44.5211Z"
    fill="#EDE9E2"
  />
  <path
    d="M41.6882 44.0137C42.9757 42.5177 46.3993 37.5417 47.3013 36.9797C48.6253 32.2877 51.4308 17.2517 48.4013 13.3472L46.9433 13.0657C44.4328 6.69224 34.8528 -3.36026 30.1653 5.99474C28.9488 6.41624 25.2353 6.20923 23.0378 6.81023C17.9818 3.17523 9.17575 7.53074 7.39575 12.2897L8.16826 13.5192L7.89775 14.0762L8.90425 14.3212C14.4503 11.2817 19.2232 9.09323 25.5352 7.98273L26.2962 10.2122L26.9023 10.4977L27.3972 9.79174L26.6183 8.43123L27.1298 8.17023L28.0128 8.57674L28.9853 8.03324C29.5053 7.94724 30.9323 7.67524 31.3748 7.68024C35.3973 8.71274 39.9563 10.6997 43.7708 12.4332C45.3793 13.5532 45.6308 13.7247 46.7453 15.3232C47.3708 17.1072 46.7283 18.1117 45.9933 19.9052L46.2578 20.3552C45.5593 20.7692 43.7098 22.3337 42.9953 22.9122L42.6777 23.5422L42.9548 23.9002L43.6062 23.8177C46.2032 25.0807 42.6367 30.5242 44.1732 33.1977C43.8652 33.9712 43.7533 34.3852 43.5473 35.1932C43.6528 36.7187 43.0472 37.5932 42.3497 38.9602C41.9777 40.9227 41.7762 42.0282 41.6882 44.0137Z"
    fill="#C7C3BF"
  />
  <path
    d="M30.1653 5.9945C35.6638 6.7395 42.3013 10.106 46.9433 13.0655C44.4328 6.69199 34.8528 -3.3605 30.1653 5.9945Z"
    fill="#EDE9E2"
  />
  <path
    d="M23.0378 6.81011C17.9818 3.17511 9.17575 7.53062 7.39575 12.2896L8.16826 13.5191C13.1728 10.3666 17.3118 8.47911 23.0378 6.81011Z"
    fill="#EDE9E2"
  />
  <path
    d="M42.9547 23.9001L43.6062 23.8176C46.2032 25.0806 42.6367 30.5241 44.1732 33.1976C44.6057 30.8821 46.5187 21.9461 46.2577 20.3551C45.5592 20.7691 43.7097 22.3336 42.9952 22.9121L42.6777 23.5421L42.9547 23.9001Z"
    fill="#CCC4BF"
  />
  <path
    d="M28.9852 8.0331C27.9917 12.9851 29.1332 18.3546 28.4932 23.3591C28.2612 25.1706 27.2787 25.6376 25.7622 26.7231L26.2077 26.9986C27.8627 26.3771 34.5767 26.0486 34.9667 25.6866C36.7577 24.0226 41.4792 16.1341 44.4462 15.2096C45.4417 16.4326 44.6962 17.2626 45.0447 19.4901L45.9932 19.9051C46.7282 18.1116 47.3707 17.1071 46.7452 15.3231C45.6307 13.7246 45.3792 13.5531 43.7707 12.4331C39.9562 10.6996 35.3972 8.7126 31.3747 7.6801C30.9322 7.6751 29.5052 7.9471 28.9852 8.0331Z"
    fill="#CCC4BF"
  />
  <path
    d="M31.1078 13.9854C32.5623 14.2199 33.3748 13.7109 34.7353 13.2539C35.1288 14.4404 35.4573 15.3614 35.9373 16.5264C38.5108 15.1224 41.1073 13.6474 43.7708 12.4329C39.9563 10.6994 35.3973 8.71244 31.3748 7.67994C30.2128 10.0094 30.5443 11.5759 31.1078 13.9854Z"
    fill="#EDE9E2"
  />
  <path
    d="M31.1077 13.9857C31.1832 15.4297 31.4307 16.0052 31.8797 17.3367C33.4492 18.6892 32.7412 18.4687 34.6797 18.4652C35.4737 17.6827 35.5747 17.5767 35.9372 16.5267C35.4572 15.3617 35.1287 14.4407 34.7352 13.2542C33.3747 13.7112 32.5622 14.2202 31.1077 13.9857Z"
    fill="#E1DAD2"
  />
  <path
    d="M5.92084 24.9031L7.33733 24.7271C8.90933 21.7156 11.2788 24.5176 10.8533 19.0386C10.4543 17.8326 10.4783 18.3326 10.7108 17.1236L11.5558 17.5741C12.5028 18.9301 12.7233 19.1711 13.0158 20.8301C15.6603 21.8471 17.8893 23.5626 20.8378 22.5591C23.1868 20.4151 21.8533 17.0016 22.6728 14.5196C23.4053 14.1261 24.1423 13.7402 24.8823 13.3617C25.0063 12.4412 25.5973 8.57214 25.5353 7.98264C19.2233 9.09314 14.4503 11.2816 8.90433 14.3211L10.3913 15.1616C7.83433 17.7836 7.78183 18.8662 5.71233 21.4307L6.20284 17.7641L5.85283 18.0026C4.61233 20.3486 3.37534 23.1551 5.92084 24.9031Z"
    fill="#E1DAD2"
  />
  <path
    d="M10.3913 15.1615C15.4378 15.4565 15.8818 21.182 19.3113 20.4595C19.5863 17.87 19.6593 13.474 21.4428 11.6935L22.3948 11.561C23.7273 13.2155 23.2093 13.11 24.8823 13.3615C25.0063 12.441 25.5973 8.57203 25.5353 7.98253C19.2233 9.09303 14.4503 11.2815 8.9043 14.321L10.3913 15.1615Z"
    fill="#EDE9E2"
  />
  <path
    d="M22.0447 35.2735C23.1407 40.9125 24.6967 40.1135 29.8117 39.841C32.9797 39.0655 37.2857 37.722 39.9702 35.8555L39.8557 35.274L41.6112 34.7915L41.7297 34.3065L41.5032 34.2415C38.4907 33.1785 37.9197 32.3195 36.6127 29.433C30.5817 35.474 28.8247 25.3245 21.8047 32.0825L22.0447 35.2735Z"
    fill="#E1DAD2"
  />
  <path
    d="M29.8118 39.8411C32.9798 39.0656 37.2858 37.7221 39.9703 35.8556L39.8558 35.2741C36.0638 35.5296 30.3173 35.0196 29.8118 39.8411Z"
    fill="#EDE9E2"
  />
  <path
    d="M13.0159 20.8302C16.0719 28.4672 22.6709 28.5502 26.9079 21.8532C26.9839 19.8437 27.3444 17.3457 26.3359 15.7012C25.0854 14.8627 24.2649 14.4832 22.6729 14.5197C21.8534 17.0017 23.1869 20.4152 20.8379 22.5592C17.8894 23.5627 15.6604 21.8472 13.0159 20.8302Z"
    fill="#C1BCB7"
  />
  <path
    d="M16.8513 38.9141C17.5568 38.9286 18.6638 38.9101 19.3278 39.0206L19.4453 33.2051C14.9338 30.9711 15.9763 30.4476 10.6963 30.5361C10.3228 32.0596 9.74528 32.8076 8.90678 34.1226L8.37828 34.2831L8.24878 34.9686L9.45729 35.8206C11.9118 37.2481 14.1923 37.9641 16.8513 38.9141Z"
    fill="#E1DAD2"
  />
  <path
    d="M16.8513 38.9141C16.9053 37.1401 17.2193 34.8951 16.2533 33.5096C14.2278 33.0796 12.2498 34.9151 9.45728 35.8206C11.9118 37.2481 14.1923 37.9641 16.8513 38.9141Z"
    fill="#EDE9E2"
  />
  <path
    d="M21.8047 32.0826C28.8247 25.3246 30.5817 35.4741 36.6127 29.4331C34.5102 24.5186 27.0977 26.8276 23.3972 28.5826C22.1412 29.1786 22.0247 30.8821 21.8047 32.0826Z"
    fill="#CCC4BF"
  />
  <path
    d="M10.6963 30.5362C15.9763 30.4477 14.9338 30.9711 19.4453 33.2051C19.8568 31.5701 20.2883 29.6422 20.7818 28.0557L14.2013 26.8116L10.6963 30.5362Z"
    fill="#CCC4BF"
  />
  <path
    d="M4.44775 25.5596L13.0892 25.5081C12.3887 23.4616 11.6263 21.0211 10.8533 19.0386C11.2788 24.5176 8.90925 21.7156 7.33725 24.7271L5.92076 24.9031L4.44775 25.5596Z"
    fill="#CCC4BF"
  />
  <path
    d="M42.9951 22.9122C43.7096 22.3337 45.5591 20.7692 46.2576 20.3552L45.9931 19.9052L45.0446 19.4902C44.6961 17.2627 45.4417 16.4327 44.4462 15.2097C43.6372 17.8032 43.0836 18.4017 41.4521 20.4922L42.9951 22.9122Z"
    fill="#E3DDC7"
  />
  <path
    d="M41.4524 20.4923C40.3674 21.5063 39.1599 22.3393 38.8794 23.7033C40.3524 24.4313 40.6444 23.9788 42.6779 23.5423L42.9954 22.9123L41.4524 20.4923Z"
    fill="#C1BCB7"
  />
</svg>
