<svg
  width="52"
  height="50"
  viewBox="0 0 52 50"
  fill="none"
  xmlns="http://www.w3.org/2000/svg"
>
  <path
    d="M33.6356 0.36974C25.4171 0.34324 15.1981 -1.68275 8.5486 4.03475C2.0226 9.64575 0.772603 18.9943 0.124603 27.0783C-0.374397 33.3028 0.517606 39.4677 4.79311 44.3397C7.72411 47.6797 11.5921 49.3922 15.9711 49.7007C24.1151 49.2722 35.7906 50.3202 42.7441 45.4907C47.1601 42.4232 49.6996 37.3822 50.5861 32.1827C51.8776 24.6092 50.7806 13.8347 46.1606 7.47724C42.9721 3.08974 38.8216 1.22524 33.6356 0.36974Z"
    fill="#C1BCB7"
  />
  <path
    d="M43.1916 35.6246C44.9071 34.8656 45.4861 34.6566 46.3371 32.9586C47.8756 32.6146 47.2211 32.5752 48.9066 33.4122L49.3226 32.7926C50.1781 10.9781 47.3956 0.433648 24.5451 1.62665C14.4606 2.15315 7.85309 1.00015 3.78809 12.7211C2.46409 17.4131 -0.341416 32.4492 2.68808 36.3537L4.14609 36.6351C6.65659 43.0086 16.2366 53.0611 20.9241 43.7061C22.1406 43.2846 25.8541 43.4917 28.0516 42.8907C33.1076 46.5257 41.9136 42.1701 43.6936 37.4111L42.9211 36.1817L43.1916 35.6246Z"
    fill="#ADA49D"
  />
  <path
    d="M43.1916 35.6246C44.9071 34.8656 45.4861 34.6566 46.3371 32.9586C47.8756 32.6146 47.2211 32.5752 48.9066 33.4122L49.3226 32.7926C50.1781 10.9781 47.3956 0.433648 24.5451 1.62665C14.4606 2.15315 7.85309 1.00015 3.78809 12.7211C4.69009 12.1591 8.1136 7.18315 9.4011 5.68715C9.3131 7.67265 9.1116 8.77815 8.7396 10.7406C8.0421 12.1076 7.43659 12.9821 7.54209 14.5076C7.33609 15.3156 7.2241 15.7296 6.9161 16.5031C8.4526 19.1766 4.8861 24.6201 7.4831 25.8831L8.13459 25.8006C15.5171 21.6721 8.42759 21.4502 9.58609 15.4592L9.35959 15.3941L9.47809 14.9091L11.2336 14.4267L11.1191 13.8452C13.8036 11.9787 18.1096 10.6351 21.2776 9.85965C26.3926 9.58715 27.9486 8.78815 29.0446 14.4272C28.9926 12.7352 28.8846 11.9301 29.4176 10.3121C30.7251 9.88915 30.1471 9.89365 31.7616 10.6801C32.4256 10.7906 33.5326 10.7722 34.2381 10.7867C36.8971 11.7367 39.1776 12.4526 41.6321 13.8801L42.8406 14.7321L42.7111 15.4176L42.1826 15.5782L42.2391 16.0047C42.7686 20.1997 40.4941 20.5276 41.1081 22.6131C43.3441 22.7961 44.9036 22.7266 46.6416 24.1411L45.1686 24.7977C47.7141 26.5457 46.4771 29.3522 45.2366 31.6982L44.8866 31.9366L45.3771 28.2701C43.3076 30.8346 43.2551 31.9172 40.6981 34.5392L42.1851 35.3797L43.1916 35.6246Z"
    fill="#D5CFCC"
  />
  <path
    d="M25.2725 6.78246C22.9055 5.32796 21.4475 5.18495 18.77 4.66895C13.174 6.11045 12.971 7.73845 8.73947 10.7404C8.04197 12.1074 7.43646 12.9819 7.54196 14.5074C12.386 10.7714 19.2845 7.87746 25.2725 6.78246Z"
    fill="#EDE9E2"
  />
  <path
    d="M25.2726 6.78278L26.4442 6.68227L26.5251 6.34728C22.2071 1.93578 14.0172 1.45977 9.40115 5.68727C9.31315 7.67277 9.11165 8.77827 8.73965 10.7408C12.9712 7.73877 13.1741 6.11077 18.7701 4.66927C21.4476 5.18527 22.9056 5.32828 25.2726 6.78278Z"
    fill="#EDE9E2"
  />
  <path
    d="M34.246 5.17969L32.987 5.28969C32.7975 6.59669 33.641 7.8522 34.1805 9.0537C37.3255 10.2352 40.4065 11.4592 43.4485 12.8862L44.136 13.1997C44.086 12.3572 43.7735 11.7697 43.324 11.0742C41.1135 7.65369 38.17 5.98869 34.246 5.17969Z"
    fill="#EDE9E2"
  />
  <path
    d="M9.40111 5.68701C8.11361 7.18301 4.6901 12.159 3.7881 12.721C2.4641 17.413 -0.341405 32.449 2.6881 36.3535L4.1461 36.635C6.6566 43.0085 16.2366 53.061 20.9241 43.706C22.1406 43.2845 25.8541 43.4915 28.0516 42.8905C33.1076 46.5255 41.9136 42.17 43.6936 37.411L42.9211 36.1815L43.1916 35.6245L42.1851 35.3795C36.6391 38.419 31.8661 40.6075 25.5541 41.718L24.7931 39.4885L24.1871 39.203L23.6921 39.909L24.4711 41.2695L23.9596 41.5305L23.0766 41.124L22.1041 41.6675C21.5841 41.7535 20.1571 42.0255 19.7146 42.0205C15.6921 40.988 11.1331 39.001 7.3186 37.2675C5.7101 36.1475 5.4586 35.976 4.3441 34.3775C3.7186 32.5935 4.3611 31.589 5.0961 29.7955L4.8316 29.3455C5.5301 28.9315 7.3796 27.367 8.0941 26.7885L8.41161 26.1585L8.1346 25.8005L7.48311 25.883C4.88611 24.62 8.45261 19.1765 6.91611 16.503C7.22411 15.7295 7.3361 15.3155 7.5421 14.5075C7.4366 12.982 8.04211 12.1075 8.73961 10.7405C9.11161 8.77801 9.31311 7.67251 9.40111 5.68701Z"
    fill="#C7C3BF"
  />
  <path
    d="M20.9241 43.7063C15.4256 42.9613 8.78807 39.5948 4.14607 36.6353C6.65657 43.0088 16.2366 53.0613 20.9241 43.7063Z"
    fill="#EDE9E2"
  />
  <path
    d="M28.0516 42.8906C33.1076 46.5256 41.9136 42.1701 43.6936 37.4111L42.9211 36.1816C37.9166 39.3341 33.7776 41.2216 28.0516 42.8906Z"
    fill="#EDE9E2"
  />
  <path
    d="M8.13461 25.8007L7.48312 25.8832C4.88612 24.6202 8.45262 19.1767 6.91612 16.5032C6.48362 18.8187 4.57062 27.7547 4.83162 29.3457C5.53012 28.9317 7.37962 27.3672 8.09412 26.7887L8.41162 26.1587L8.13461 25.8007Z"
    fill="#CCC4BF"
  />
  <path
    d="M22.1041 41.6676C23.0976 36.7156 21.9561 31.3461 22.5961 26.3416C22.8281 24.5301 23.8106 24.0631 25.3271 22.9776L24.8817 22.7021C23.2267 23.3236 16.5127 23.6521 16.1227 24.0141C14.3317 25.6781 9.61014 33.5666 6.64314 34.4911C5.64764 33.2681 6.39315 32.4381 6.04465 30.2106L5.09615 29.7957C4.36115 31.5892 3.71865 32.5937 4.34415 34.3777C5.45865 35.9762 5.71015 36.1477 7.31865 37.2677C11.1331 39.0012 15.6921 40.9881 19.7146 42.0206C20.1571 42.0256 21.5841 41.7536 22.1041 41.6676Z"
    fill="#CCC4BF"
  />
  <path
    d="M19.9816 35.7153C18.5271 35.4808 17.7146 35.9898 16.3541 36.4468C15.9606 35.2603 15.6321 34.3393 15.1521 33.1743C12.5786 34.5783 9.98208 36.0533 7.31858 37.2678C11.1331 39.0013 15.6921 40.9883 19.7146 42.0208C20.8766 39.6913 20.5451 38.1248 19.9816 35.7153Z"
    fill="#EDE9E2"
  />
  <path
    d="M19.9817 35.7151C19.9062 34.2711 19.6587 33.6956 19.2097 32.3641C17.6402 31.0116 18.3482 31.2321 16.4097 31.2356C15.6157 32.0181 15.5147 32.1241 15.1522 33.1741C15.6322 34.3391 15.9607 35.2601 16.3542 36.4466C17.7147 35.9896 18.5272 35.4806 19.9817 35.7151Z"
    fill="#E1DAD2"
  />
  <path
    d="M45.1685 24.7976L43.752 24.9736C42.18 27.9851 39.8105 25.1831 40.236 30.6621C40.635 31.8681 40.611 31.3681 40.3785 32.5771L39.5335 32.1266C38.5865 30.7706 38.366 30.5296 38.0735 28.8706C35.429 27.8536 33.2 26.1381 30.2515 27.1416C27.9025 29.2856 29.236 32.6991 28.4165 35.1811C27.684 35.5746 26.947 35.9606 26.207 36.3391C26.083 37.2596 25.492 41.1286 25.554 41.7181C31.866 40.6076 36.639 38.4191 42.185 35.3796L40.698 34.5391C43.255 31.9171 43.3075 30.8346 45.377 28.2701L44.8865 31.9366L45.2365 31.6981C46.477 29.3521 47.714 26.5456 45.1685 24.7976Z"
    fill="#E1DAD2"
  />
  <path
    d="M40.6981 34.5392C35.6516 34.2442 35.2076 28.5187 31.7781 29.2412C31.5031 31.8307 31.4301 36.2267 29.6466 38.0072L28.6945 38.1397C27.362 36.4852 27.8801 36.5907 26.2071 36.3392C26.0831 37.2597 25.4921 41.1287 25.5541 41.7182C31.8661 40.6077 36.6391 38.4192 42.1851 35.3797L40.6981 34.5392Z"
    fill="#EDE9E2"
  />
  <path
    d="M29.0447 14.4273C27.9487 8.78826 26.3927 9.58725 21.2777 9.85975C18.1097 10.6353 13.8037 11.9788 11.1192 13.8453L11.2337 14.4268L9.47816 14.9093L9.35966 15.3943L9.58617 15.4593C12.5987 16.5223 13.1697 17.3813 14.4767 20.2678C20.5077 14.2268 22.2647 24.3763 29.2847 17.6183L29.0447 14.4273Z"
    fill="#E1DAD2"
  />
  <path
    d="M21.2776 9.85962C18.1096 10.6351 13.8036 11.9786 11.1191 13.8451L11.2336 14.4266C15.0256 14.1711 20.7721 14.6811 21.2776 9.85962Z"
    fill="#EDE9E2"
  />
  <path
    d="M38.0735 28.8706C35.0175 21.2336 28.4185 21.1506 24.1815 27.8476C24.1055 29.8571 23.745 32.3551 24.7535 33.9996C26.004 34.8381 26.8245 35.2176 28.4165 35.1811C29.236 32.6991 27.9025 29.2856 30.2515 27.1416C33.2 26.1381 35.429 27.8536 38.0735 28.8706Z"
    fill="#C1BCB7"
  />
  <path
    d="M34.2381 10.7867C33.5326 10.7722 32.4256 10.7907 31.7616 10.6802L31.6441 16.4957C36.1556 18.7297 35.1131 19.2532 40.3931 19.1647C40.7666 17.6412 41.3441 16.8932 42.1826 15.5782L42.7111 15.4177L42.8406 14.7322L41.6321 13.8802C39.1776 12.4527 36.8971 11.7367 34.2381 10.7867Z"
    fill="#E1DAD2"
  />
  <path
    d="M34.2381 10.7866C34.1841 12.5606 33.8701 14.8056 34.8361 16.1911C36.8616 16.6211 38.8396 14.7856 41.6321 13.8801C39.1776 12.4526 36.8971 11.7366 34.2381 10.7866Z"
    fill="#EDE9E2"
  />
  <path
    d="M29.2847 17.6182C22.2647 24.3762 20.5077 14.2267 14.4767 20.2677C16.5792 25.1822 23.9917 22.8732 27.6922 21.1182C28.9482 20.5222 29.0647 18.8187 29.2847 17.6182Z"
    fill="#CCC4BF"
  />
  <path
    d="M40.3931 19.1646C35.1131 19.2531 36.1556 18.7296 31.6441 16.4956C31.2326 18.1306 30.8011 20.0586 30.3076 21.6451L36.8881 22.8891L40.3931 19.1646Z"
    fill="#CCC4BF"
  />
  <path
    d="M46.6416 24.1411L38.0001 24.1926C38.7006 26.2391 39.4631 28.6796 40.2361 30.6621C39.8106 25.1831 42.1801 27.9851 43.7521 24.9736L45.1686 24.7976L46.6416 24.1411Z"
    fill="#CCC4BF"
  />
  <path
    d="M8.09421 26.7886C7.37971 27.3671 5.53021 28.9316 4.83171 29.3456L5.09621 29.7956L6.04471 30.2106C6.39321 32.4381 5.6477 33.2681 6.6432 34.4911C7.4522 31.8976 8.00571 31.2991 9.63721 29.2086L8.09421 26.7886Z"
    fill="#E3DDC7"
  />
  <path
    d="M9.63696 29.2085C10.722 28.1945 11.9295 27.3615 12.21 25.9975C10.737 25.2695 10.445 25.722 8.41147 26.1585L8.09396 26.7885L9.63696 29.2085Z"
    fill="#C1BCB7"
  />
</svg>
