<svg
  width="51"
  height="49"
  viewBox="0 0 51 49"
  fill="none"
  xmlns="http://www.w3.org/2000/svg"
>
  <path
    d="M19.672 0.035796C18.955 0.00479596 18.2375 -0.00619 17.52 0.00331C13.2285 0.07831 9.39353 1.7698 6.44303 4.8838C0.741031 10.9018 -0.243964 21.3403 0.0450363 29.2228C0.255036 34.9433 2.21554 40.4263 6.53454 44.3553C12.969 50.2088 20.936 48.0138 28.742 47.6043C33.974 47.4583 38.3685 46.8628 42.6085 43.4083C47.143 39.7143 49.616 34.3308 50.2005 28.6008C50.9185 21.5683 50.3575 12.4773 45.673 6.8213C39.3215 -0.847197 28.5395 0.971796 19.672 0.035796Z"
    fill="#737071"
  />
  <path
    d="M18.921 1.22046C14.0835 1.34796 10.2225 2.03596 6.85548 5.72296C1.80248 11.2555 0.797977 22.699 1.04848 29.7095C1.54548 43.64 11.2135 48.726 23.8875 46.958C31.5075 45.8955 38.757 47.249 44.679 40.333C48.181 36.36 49.5005 30.735 49.1795 25.5625L49.646 25.203C49.874 21.156 48.112 11.819 45.5865 8.33646C39.265 -0.378544 29.255 3.20096 18.921 1.22046Z"
    fill="#D5CFCC"
  />
  <path
    d="M26.2505 10.2592C25.764 10.6442 25.5669 10.8242 25.0059 11.0972L24.6439 11.2692L24.4514 11.9812C24.2799 11.2122 24.0914 10.9087 23.7479 10.2217L21.0754 9.53125C17.8549 10.7372 12.3994 12.7052 9.62945 14.7537L8.86845 15.1842L9.61794 16.2692L9.91644 17.5067L8.82944 17.9193C7.22744 18.6943 7.09744 20.0572 6.82194 21.7432L6.08994 22.5867L5.31994 23.1487C0.426439 25.6597 3.12695 35.8642 8.04945 37.2772C9.31145 37.6397 10.5879 37.9867 11.8629 38.2922L19.7329 40.1362L21.4229 40.7437C22.3224 39.8222 22.9429 38.5437 23.5879 37.4037L24.3824 37.0887L25.3089 37.2977C26.1134 38.4697 26.7014 39.1702 26.9874 40.5887C36.7509 37.8897 44.6409 36.5542 46.3379 25.2492L46.5719 23.6117C46.7399 23.3157 46.6339 23.2087 46.5834 22.7272L44.7049 22.1327C43.2574 22.0472 42.1179 22.1608 40.9969 21.3288C40.6434 19.6228 41.4869 18.4167 42.2049 16.5727L42.8714 14.4467L42.4054 13.4942L41.5534 13.7663L40.0939 14.5067C37.1029 14.3462 30.7429 14.4217 29.5714 11.3812L28.9744 13.2943L26.9834 11.1552L26.2505 10.2592Z"
    fill="#ADA49D"
  />
  <path
    d="M5.31992 23.1489C0.426424 25.6599 3.12693 35.8644 8.04943 37.2774C9.31143 37.6399 10.5879 37.9869 11.8629 38.2924L19.7329 40.1364L21.4229 40.7439C22.3224 39.8224 22.9429 38.5439 23.5879 37.4039C19.1924 35.4454 22.1834 34.7869 19.2484 31.2374C18.2159 29.5639 18.7049 29.8504 17.0979 29.0524C14.0024 29.6059 14.3029 31.7374 10.5614 32.2129L8.92742 33.5599L8.43392 34.1134C7.52792 30.6374 7.84993 27.8484 6.31893 24.1244L5.31992 23.1489Z"
    fill="#EDE9E2"
  />
  <path
    d="M19.2483 31.2372C18.2158 29.5637 18.7048 29.8502 17.0978 29.0522C14.0023 29.6057 14.3028 31.7372 10.5613 32.2127L8.92733 33.5597L8.43383 34.1133L9.66233 34.4742C10.6658 34.0902 18.5998 31.6392 19.0433 31.7082L19.2483 31.2372Z"
    fill="#EDE5DF"
  />
  <path
    d="M19.2484 31.2373L19.0434 31.7083C19.0834 34.4348 20.2044 38.9073 19.7329 40.1363L21.4229 40.7438C22.3224 39.8223 22.9429 38.5438 23.5879 37.4038C19.1924 35.4453 22.1834 34.7868 19.2484 31.2373Z"
    fill="#D5CFCC"
  />
  <path
    d="M29.5714 11.3813L28.9744 13.2943L26.9834 11.1553C26.2629 14.2598 25.0904 20.1228 24.1614 22.9518C30.2904 24.1258 31.6399 24.4233 37.6824 23.2818C38.7164 21.2328 40.2259 17.5583 42.2049 16.5728L42.8714 14.4468L42.4054 13.4943L41.5534 13.7663L40.0939 14.5068C37.1029 14.3463 30.7429 14.4218 29.5714 11.3813Z"
    fill="#CCC4BF"
  />
  <path
    d="M29.5715 11.3813L28.9745 13.2944L27.907 21.8309C34.5915 21.8754 36.9935 20.9574 40.094 14.5069C37.103 14.3464 30.743 14.4218 29.5715 11.3813Z"
    fill="#E1DAD2"
  />
  <path
    d="M46.3379 25.2495C40.2349 27.032 45.5779 30.3975 40.3374 32.4515C36.7199 34.2805 37.6344 28.4185 30.6649 28.106C28.6524 28.2735 28.9639 27.9315 27.7424 29.072C26.7809 31.9215 28.4144 35.2815 26.6974 36.814L25.3089 37.298C26.1134 38.47 26.7014 39.1705 26.9874 40.589C36.7509 37.89 44.6409 36.5545 46.3379 25.2495Z"
    fill="#EDE9E2"
  />
  <path
    d="M30.6648 28.106C28.6523 28.2735 28.9638 27.9315 27.7423 29.072C26.7808 31.9215 28.4143 35.2814 26.6973 36.8139C28.3373 36.9769 28.0363 37.195 29.2743 36.506C30.4628 34.116 29.8383 31.4045 30.5788 28.4385L30.6648 28.106Z"
    fill="#E1DAD2"
  />
  <path
    d="M23.7478 10.2217L21.0753 9.53125C17.8548 10.7372 12.3993 12.7052 9.62934 14.7537L8.86834 15.1842L9.61784 16.2692C13.0558 17.0067 19.5043 30.4747 23.7478 10.2217Z"
    fill="#E1DAD2"
  />
  <path
    d="M21.0755 9.53125C17.855 10.7372 12.3995 12.7052 9.62948 14.7537C13.3575 17.6952 19.071 13.0547 21.0755 9.53125Z"
    fill="#EDE9E2"
  />
  <path
    d="M37.1194 24.7402C30.8509 26.0217 29.7209 25.3312 23.7579 25.0362C23.6959 28.4242 23.7974 33.7532 24.3824 37.0887L25.3089 37.2977L26.6974 36.8137C28.4144 35.2812 26.7809 31.9212 27.7424 29.0717C28.9639 27.9312 28.6524 28.2732 30.6649 28.1057C37.6344 28.4182 36.7199 34.2802 40.3374 32.4512L40.1234 32.0477C38.6914 30.8127 37.8429 26.8242 37.1194 24.7402Z"
    fill="#CCC4BF"
  />
  <path
    d="M26.2505 10.2594C25.764 10.6444 25.567 10.8244 25.006 11.0974L24.644 11.2694L24.4515 11.9814C24.28 11.2124 24.0915 10.9089 23.748 10.2219C19.5045 30.4749 13.056 17.0069 9.61802 16.2694L9.91651 17.5069C12.378 26.5744 14.943 26.2354 22.682 23.4204C23.3895 19.9189 24.3965 13.0364 26.2505 10.2594Z"
    fill="#CCC4BF"
  />
  <path
    d="M23.5879 37.4039C21.9269 34.5674 22.3654 29.1109 22.3974 25.6509C20.9094 24.8594 20.4634 25.8839 19.0814 26.0259C12.5829 26.6944 13.7274 26.7349 10.5614 32.2129C14.3029 31.7374 14.0024 29.6059 17.0979 29.0524C18.7049 29.8504 18.2159 29.5639 19.2484 31.2374C22.1834 34.7869 19.1924 35.4454 23.5879 37.4039Z"
    fill="#E3DDC7"
  />
  <path
    d="M46.5721 23.612C43.5196 23.5985 41.1651 23.2945 38.2416 23.167C39.0576 26.007 40.1646 29.135 40.1236 32.048L40.3376 32.4515C45.5781 30.3975 40.2351 27.032 46.3381 25.2495L46.5721 23.612Z"
    fill="#E1DAD2"
  />
  <path
    d="M12.5301 25.7085C10.3136 25.068 8.57657 24.619 6.31907 24.1245C7.85007 27.8485 7.52806 30.6375 8.43406 34.1135L8.92756 33.56C8.54806 31.646 11.3306 27.911 12.5301 25.7085Z"
    fill="#CCC4BF"
  />
  <path
    d="M8.82935 17.9194C7.22735 18.6944 7.09735 20.0574 6.82185 21.7434L6.08985 22.5869C7.48985 22.9009 8.90185 23.4174 10.1544 22.7954C10.4299 21.0814 9.54385 19.7304 8.82935 17.9194Z"
    fill="#E3DDC7"
  />
  <path
    d="M49.1795 25.5625L49.646 25.203C49.874 21.156 48.112 11.819 45.5865 8.33646C39.265 -0.378544 29.255 3.20096 18.921 1.22046C19.531 1.85946 20.4045 2.50496 20.4475 3.20496C30.14 11.7665 31.5955 1.14546 36.6845 6.26746C33.383 5.65546 31.4165 4.93896 28.93 7.80396C25.949 7.69646 23.554 7.65846 20.574 7.77446C16.9175 9.13846 9.50298 11.96 6.72548 14.7055C6.18998 16.793 4.40099 18.0605 4.73099 20.0205L5.29448 20.5574L6.21599 18.164L6.64748 18.291C6.23048 19.9935 5.79949 20.361 6.41199 21.648L6.82198 21.7435C7.09748 20.0575 7.22748 18.6945 8.82948 17.9195L9.91647 17.507L9.61798 16.2695L8.86848 15.1845L9.62949 14.754C12.3995 12.7055 17.855 10.7375 21.0755 9.53146L23.748 10.222C24.0915 10.909 24.28 11.2125 24.4515 11.9815L24.644 11.2695L25.006 11.0975C25.567 10.8245 25.764 10.6445 26.2505 10.2595L26.9835 11.1555L28.9745 13.2945L29.5715 11.3815C30.743 14.422 37.103 14.3465 40.094 14.507L41.5535 13.7665L42.4055 13.4945L42.8715 14.447L42.205 16.573C41.487 18.417 40.6435 19.623 40.997 21.329C42.118 22.161 43.2575 22.0474 44.705 22.1329L46.5835 22.7275C46.634 23.209 46.74 23.316 46.572 23.612L46.338 25.2495C44.641 36.5545 36.751 37.89 26.9875 40.589C26.7015 39.1705 26.1135 38.47 25.309 37.298L24.3825 37.089L23.588 37.404C22.943 38.544 22.3225 39.8225 21.423 40.744L19.733 40.1365L11.863 38.2924L11.3665 39.772C14.038 40.192 16.183 40.7965 18.781 41.4945C22.086 42.18 23.578 42.3215 26.959 42.4825C29.9525 40.951 35.166 39.595 38.8485 37.9335C43.0175 35.5255 40.1865 37.6635 43.1205 36.825C44.913 32.514 44.5255 34.659 46.683 33.683C48.4915 30.8415 48.419 28.886 49.1795 25.5625Z"
    fill="#C7C2BF"
  />
  <path
    d="M36.6845 6.26748C33.383 5.65548 31.4165 4.93898 28.93 7.80398C32.3015 8.53798 40.7395 11.7785 43.034 11.3055L42.7645 10.4405C40.626 8.21149 39.3745 7.67648 36.6845 6.26748Z"
    fill="#FEFEFE"
  />
  <path
    d="M41.5535 13.7664C39.402 12.0994 33.155 10.1519 30.3065 10.4164L29.5715 11.3814C30.743 14.4219 37.103 14.3464 40.094 14.5069L41.5535 13.7664Z"
    fill="#EDE9E2"
  />
  <path
    d="M44.7049 22.1328C45.2734 21.8718 45.4084 21.6918 45.8874 21.2918C45.9679 18.9478 45.3444 15.4163 42.8714 14.4468L42.2049 16.5728C41.4869 18.4168 40.6434 19.6228 40.9969 21.3288C42.1179 22.1608 43.2574 22.0473 44.7049 22.1328Z"
    fill="#E1DAD2"
  />
  <path
    d="M24.3826 37.0889L23.5881 37.4039C22.9431 38.5439 22.3226 39.8224 21.4231 40.7439C23.8521 41.0474 24.5356 40.9304 26.9876 40.5889C26.7016 39.1704 26.1136 38.4699 25.3091 37.2979L24.3826 37.0889Z"
    fill="#CCC4BF"
  />
  <path
    d="M20.5738 7.77428L22.9499 7.13777L23.2994 6.47177C22.1349 5.15677 18.5684 4.87728 16.8099 4.73828C12.9559 6.57278 6.40485 9.56578 6.72535 14.7053C9.50285 11.9598 16.9173 9.13828 20.5738 7.77428Z"
    fill="#FEFEFE"
  />
  <path
    d="M11.3666 39.7718C10.0166 39.2138 8.30505 38.3103 6.93655 38.6028C6.76905 40.3673 8.88755 41.9068 10.1571 43.0663C12.5231 43.1298 15.7381 43.3968 17.9311 42.7518L18.781 41.4943C16.183 40.7963 14.0381 40.1918 11.3666 39.7718Z"
    fill="#EDE9E2"
  />
  <path
    d="M26.9589 42.4826C29.1564 44.1026 36.5779 42.3321 38.5729 40.3196C38.4449 39.3006 38.4739 38.8916 38.8484 37.9336C35.1659 39.5951 29.9524 40.9511 26.9589 42.4826Z"
    fill="#EDE9E2"
  />
</svg>
