<svg
  width="46"
  height="43"
  viewBox="0 0 46 43"
  fill="none"
  xmlns="http://www.w3.org/2000/svg"
>
  <path
    d="M17.1711 0.232511C16.6636 0.0575107 16.2592 -0.000987428 15.7227 1.25718e-05C12.0977 0.00751257 8.70115 1.05901 6.11315 3.67151C1.50565 8.32301 -0.0173512 14.7715 0.000148773 21.128C0.0166488 27.2055 1.31815 34.833 5.85315 39.246C11.0282 44.282 20.9682 42.63 27.6447 42.445C31.9877 42.493 35.4312 42.247 38.9472 39.424C42.8432 36.296 44.6517 31.133 45.1562 26.299C45.8296 19.8495 44.7522 11.8145 40.5072 6.67601C35.1902 0.240007 24.8181 0.922511 17.1711 0.232511Z"
    fill="#545257"
  />
  <path
    d="M10.1001 41.5149C16.6206 42.1449 35.0486 43.0204 39.3141 37.9349C46.1804 30.0309 45.6332 12.6274 38.0021 5.47588C34.0856 1.80538 16.7371 1.16939 11.1481 1.57339C6.35414 4.41589 4.24814 6.77088 2.32714 11.9264C0.294141 17.1759 0.79564 24.8114 2.28714 30.1649C3.47664 35.6639 5.81864 38.3239 10.1001 41.5149Z"
    fill="#ADA49D"
  />
  <path
    d="M10.1001 41.5149C16.6206 42.1449 35.0486 43.0204 39.3141 37.9349C46.1804 30.0309 45.6332 12.6274 38.0021 5.47588C34.0856 1.80538 16.7371 1.16939 11.1481 1.57339C6.35414 4.41589 4.24814 6.77088 2.32714 11.9264C5.50164 9.42588 3.39814 7.93689 8.44514 6.88639C11.7736 4.30989 17.6861 2.39638 20.6626 6.53138C21.9961 6.66738 23.9391 6.80338 25.2071 7.01588C28.6446 7.10288 35.4481 8.13239 37.6766 10.9099L37.4186 11.7219L37.7971 12.7089C40.0206 14.6834 40.3496 16.4944 40.9181 19.3914C41.5881 22.9819 41.3711 24.1624 40.9196 27.8124L40.5251 28.0219C40.3381 26.2734 40.0751 24.6699 39.7876 22.9354C39.6811 24.5029 39.7861 25.8859 38.7556 27.0294L37.6021 27.5519L38.0151 28.9459L37.6271 29.4109C35.9706 28.2684 34.2026 26.8354 32.2701 26.4249C30.3871 26.9304 29.9226 27.2769 29.5431 29.3944C28.8671 30.4809 28.2091 31.5779 27.5686 32.6859L27.2046 32.1779C26.3136 33.0584 26.7641 32.8279 25.4826 33.0139C23.9191 33.1924 23.5181 32.8659 22.1741 32.1399C21.7721 33.2164 21.4656 35.1379 21.0356 35.6309L18.7621 35.2714C17.7526 36.1964 16.6601 36.1069 15.2981 36.1859C16.6441 36.6474 17.9861 37.1219 19.3226 37.6094C14.1361 42.4734 5.16464 34.3259 2.28714 30.1649C3.47664 35.6639 5.81864 38.3239 10.1001 41.5149Z"
    fill="#D5CFCC"
  />
  <path
    d="M29.543 29.3945C28.867 30.481 28.209 31.578 27.5685 32.686L27.2045 32.178C26.3135 33.0585 26.764 32.828 25.4825 33.014C23.919 33.1925 23.518 32.866 22.174 32.14C21.772 33.2165 21.4655 35.138 21.0355 35.631C26.6235 38.7455 28.4475 33.4575 29.543 29.3945Z"
    fill="#CCC4BF"
  />
  <path
    d="M20.6626 6.53153C17.6861 2.39652 11.7736 4.31004 8.44507 6.88654C3.39807 7.93704 5.50158 9.42603 2.32708 11.9265C0.294076 17.176 0.795575 24.8115 2.28708 30.165C5.16458 34.326 14.1361 42.4735 19.3226 37.6095C17.9861 37.122 16.6441 36.6475 15.2981 36.186C16.6601 36.107 17.7526 36.1965 18.7621 35.2715C9.19407 33.6585 5.11358 30.506 3.94358 20.452L3.95807 19.7795L5.32507 19.1145L7.96107 19.0585C8.79557 17.6225 6.61107 16.715 6.54507 13.0315L6.54058 12.574C11.7721 12.1775 14.7151 13.5165 18.1691 8.00853L19.1011 8.06703L20.5251 8.01003C22.0751 6.89853 23.1476 7.14952 25.2071 7.01602C23.9391 6.80352 21.9961 6.66753 20.6626 6.53153Z"
    fill="#CECAC7"
  />
  <path
    d="M18.169 8.00854C11.7645 8.02854 3.98349 9.35755 4.13349 17.291C4.14049 17.617 4.15249 17.9435 4.17049 18.269C4.66749 18.732 4.70949 18.8735 5.32499 19.1145L7.96099 19.0585C8.79549 17.6225 6.61099 16.715 6.54499 13.0315L6.54049 12.5741C11.772 12.1776 14.715 13.5165 18.169 8.00854Z"
    fill="#EDE5DF"
  />
  <path
    d="M20.6626 6.53153C17.6861 2.39652 11.7736 4.31004 8.44514 6.88654C8.32964 7.66704 8.22564 7.57453 7.67214 8.29753L7.76764 8.62703C14.3521 7.09953 12.5536 6.55853 20.6626 6.53153Z"
    fill="#EDE9E2"
  />
  <path
    d="M37.4185 11.7222C33.263 8.89716 27.8895 7.98815 22.9495 8.48665L22.836 9.09116C24.8775 14.1667 23.321 15.4602 24.086 19.9952C24.9145 20.3537 25.5795 20.6091 26.344 21.0981L26.0805 21.0267C25.981 21.1682 25.757 21.4717 25.6735 21.6107L26.0725 21.6702L25.681 21.7657C26.503 22.4267 28.064 22.9212 29.101 23.3197L31.9475 22.6756C33.7485 21.4391 34.583 21.1202 36.6215 20.2802C37.703 20.4647 38.553 20.5822 39.6455 20.6827L40.918 19.3917C40.3495 16.4947 40.0205 14.6837 37.797 12.7092L37.4185 11.7222Z"
    fill="#E1DAD2"
  />
  <path
    d="M37.4187 11.7222C33.2632 8.89716 27.8897 7.98815 22.9497 8.48665C25.5387 10.6477 33.1337 12.6212 36.5272 13.2602C36.8762 13.1227 37.5157 12.9042 37.7972 12.7092L37.4187 11.7222Z"
    fill="#EDE9E2"
  />
  <path
    d="M35.4322 16.1216C30.8882 20.0946 30.2567 20.3746 24.0862 19.9951C24.9147 20.3536 25.5797 20.6091 26.3442 21.0981L26.0807 21.0266C25.9812 21.1681 25.7572 21.4716 25.6737 21.6106L26.0727 21.6701L25.6812 21.7656C26.5032 22.4266 28.0642 22.9211 29.1012 23.3196L31.9477 22.6756C33.3512 20.0611 34.3427 19.2271 35.4322 16.1216Z"
    fill="#CCC4BF"
  />
  <path
    d="M36.6217 20.2801L37.6527 18.7951C37.8777 17.1976 37.8787 16.9991 37.2207 15.4901L36.3647 15.1851L35.4322 16.1216C34.3427 19.2271 33.3512 20.0611 31.9477 22.6756C33.7487 21.4391 34.5832 21.1201 36.6217 20.2801Z"
    fill="#B7B2AB"
  />
  <path
    d="M4.80103 20.6382L3.94353 20.4521C5.11353 30.5061 9.19403 33.6587 18.762 35.2717L21.0355 35.6311C21.4655 35.1381 21.772 33.2167 22.174 32.1402C22.443 30.5807 22.76 28.0447 21.975 26.6362C21.3715 25.5412 20.307 24.7761 19.0765 24.5536C15.847 23.9596 13.4105 25.6911 11.0375 27.4086L9.87152 27.9072C9.11252 25.4177 7.16653 21.7592 4.80103 20.6382Z"
    fill="#EDE9E2"
  />
  <path
    d="M19.1011 8.06705L18.1691 8.00854C14.7151 13.5165 11.7721 12.1776 6.54057 12.5741C7.28357 14.5171 7.82756 14.4041 8.86956 15.6926C12.7561 20.4986 20.4426 18.5365 19.5036 11.79C19.2921 10.272 20.0686 9.88305 19.1011 8.06705Z"
    fill="#E1DAD2"
  />
  <path
    d="M20.0551 21.4574C13.6756 21.1224 12.6036 20.9504 11.0376 27.4084C13.4106 25.6909 15.8471 23.9594 19.0766 24.5534C20.3071 24.7759 21.3716 25.5409 21.9751 26.6359C22.7601 28.0444 22.4431 30.5804 22.1741 32.1399C23.5181 32.8659 23.9191 33.1924 25.4826 33.0139C24.8556 25.7294 27.8901 25.8309 20.0551 21.4574Z"
    fill="#C1BCB7"
  />
  <path
    d="M33.7607 24.2915L33.4857 24.3195C31.2612 24.5335 29.9572 24.5735 27.5897 24.901C26.2702 26.8485 27.1467 29.6195 27.2047 32.178L27.5687 32.686C28.2092 31.578 28.8672 30.481 29.5432 29.3945C29.9227 27.277 30.3872 26.9305 32.2702 26.425C34.2027 26.8355 35.9707 28.2685 37.6272 29.411L38.0152 28.946L37.6022 27.552C36.1977 26.187 35.3272 25.4765 33.7607 24.2915Z"
    fill="#C1BCB7"
  />
  <path
    d="M22.8361 9.09106L21.5426 9.52156C20.3371 16.1551 20.3361 23.2146 28.7221 23.3211L29.1011 23.3196C28.0641 22.9211 26.5031 22.4266 25.6811 21.7656L26.0726 21.6701L25.6736 21.6106C25.7571 21.4716 25.9811 21.1681 26.0806 21.0266L26.3441 21.0981C25.5796 20.6091 24.9146 20.3536 24.0861 19.9951C23.3211 15.4601 24.8776 14.1666 22.8361 9.09106Z"
    fill="#C1BCB7"
  />
  <path
    d="M39.7876 22.9354L39.5746 22.2449C37.2236 21.2669 34.5341 21.5059 33.7606 24.2914C35.3271 25.4764 36.1976 26.1869 37.6021 27.5519L38.7556 27.0294C39.7861 25.8859 39.6811 24.5029 39.7876 22.9354Z"
    fill="#CCC4BF"
  />
  <path
    d="M11.7981 21.3262L4.80114 20.6382C7.16664 21.7592 9.11263 25.4177 9.87163 27.9072C10.1026 25.3002 10.7916 23.6532 11.7981 21.3262Z"
    fill="#CCC4BF"
  />
</svg>
