<svg
  width="41"
  height="45"
  viewBox="0 0 41 45"
  fill="none"
  xmlns="http://www.w3.org/2000/svg"
>
  <path
    d="M18.4007 44.8291C22.0657 44.8796 25.0697 44.7171 28.3452 42.8231C34.5422 39.2401 37.8432 32.2016 39.5417 25.5126C40.8707 20.2771 41.5057 14.2046 38.5607 9.39008C35.1527 3.81858 28.3007 1.44007 22.2807 0.00906754C17.2347 -0.122432 11.7372 1.19157 7.4527 3.92307C3.85921 6.21407 1.33219 9.49507 0.44419 13.7016C-1.08981 20.9676 1.52619 30.1071 5.57619 36.1811C8.72119 40.8976 12.8372 43.7336 18.4007 44.8291Z"
    fill="#737071"
  />
  <path
    d="M18.7321 43.8155C21.6511 43.952 24.7596 43.552 27.3321 42.114C33.3261 38.7625 36.6482 32.0725 38.4152 25.688C39.8227 20.603 40.6067 14.4225 37.8007 9.67598C34.7962 4.59348 27.8122 2.38499 22.4007 1.02999C17.4942 0.856987 11.7756 2.15698 7.66314 4.89748C4.37214 7.08998 2.19415 10.234 1.43565 14.1215C0.0691487 21.126 2.89864 30.3055 6.87814 36.084C9.97114 40.5755 13.4901 42.834 18.7321 43.8155Z"
    fill="#D5CFCC"
  />
  <path
    d="M12.0992 32.799C12.0002 32.9245 11.9612 33.4615 11.9307 33.6665C17.5702 38.7365 24.0087 36.5905 30.1137 34.1225L28.3392 32.755C23.8417 29.846 24.3907 21.521 19.5402 21.598L19.1462 20.065C23.5377 19.9495 27.6912 23.0605 30.2172 26.4465L30.8352 26.2195C30.8757 17.123 34.8812 19.4025 35.2337 12.2615L36.2627 12.498C36.1922 11.4865 35.6172 10.6955 34.6917 10.221C31.5597 8.38647 25.1952 6.29597 21.4982 4.66647C18.1942 5.85997 9.95773 8.22947 7.49473 9.27897C5.05473 9.83797 3.64772 12.1365 3.66172 14.518L4.03422 14.603L4.68423 13.1515L5.43623 13.0215L5.61122 14.8325C6.05272 14.127 6.03173 13.378 6.10673 12.5385L6.60023 12.943C6.46673 14.2015 6.86124 15.6505 7.11424 16.9255C6.27774 16.9495 6.65972 16.84 5.93472 17.285C4.25472 22.8215 7.17123 29.809 12.0992 32.799Z"
    fill="#E3DDC7"
  />
  <path
    d="M21.4354 14.3374C21.5434 15.1434 21.6944 15.5594 21.9389 16.3374C24.1834 17.5254 28.4904 19.5489 31.0224 19.0979C32.0524 16.7104 33.3029 14.0599 35.2339 12.2614L36.2629 12.4979C36.1924 11.4864 35.6174 10.6954 34.6919 10.2209C31.5599 8.38644 25.1954 6.29593 21.4984 4.66643C18.1944 5.85993 9.95787 8.22944 7.49487 9.27894C12.0289 9.15044 14.4474 9.50444 19.4914 9.13494L20.2754 9.62594L21.4354 14.3374Z"
    fill="#EDE9E2"
  />
  <path
    d="M20.2754 9.62585C25.5434 9.02385 27.7444 9.34936 33.0134 10.7769L34.6919 10.2209C31.5599 8.38636 25.1954 6.29585 21.4984 4.66635C18.1944 5.85985 9.95787 8.22935 7.49487 9.27885C12.0289 9.15035 14.4474 9.50436 19.4914 9.13486L20.2754 9.62585Z"
    fill="#FEFEFE"
  />
  <path
    d="M12.0992 32.799C12.0002 32.9245 11.9612 33.4615 11.9307 33.6665C17.5702 38.7365 24.0086 36.5905 30.1136 34.1225L28.3391 32.755C23.8416 29.846 24.3907 21.521 19.5402 21.598C17.2897 24.864 15.0127 30.691 12.0992 32.799Z"
    fill="#FEFEFE"
  />
  <path
    d="M9.34422 17.4714C12.6752 18.7859 16.7867 20.0829 17.6522 15.0699L18.5142 16.2669C19.8332 15.8494 20.4082 15.2269 21.4352 14.3374L20.2752 9.62591L19.4912 9.13491C14.4472 9.50441 12.0287 9.15041 7.49473 9.27891C5.05473 9.83791 3.64772 12.1364 3.66172 14.5179L4.03422 14.6029L4.68423 13.1514L5.43623 13.0214L5.61122 14.8324C6.05272 14.1269 6.03173 13.3779 6.10673 12.5384L6.60023 12.9429C7.67523 14.4804 8.42522 15.8334 9.34422 17.4714Z"
    fill="#EDE9E2"
  />
  <path
    d="M17.6523 15.0701L18.5143 16.2671C19.8333 15.8496 20.4083 15.2271 21.4353 14.3376L20.2753 9.62608L19.4913 9.13509C18.7773 10.6701 18.1248 13.3626 17.6523 15.0701Z"
    fill="#CCC4BF"
  />
  <path
    d="M12.0992 32.7988C15.0127 30.6908 17.2897 24.8638 19.5402 21.5978L19.1462 20.0648C15.4272 22.1808 12.9507 23.7513 9.63618 26.5123C9.84268 23.5528 8.85721 19.2713 7.11421 16.9253C6.27771 16.9493 6.65969 16.8398 5.93469 17.2848C4.25469 22.8213 7.1712 29.8088 12.0992 32.7988Z"
    fill="#E3DDC7"
  />
  <path
    d="M19.1463 20.0649C23.5378 19.9494 27.6914 23.0604 30.2174 26.4464L30.8353 26.2195C30.8758 17.123 34.8813 19.4024 35.2338 12.2614C33.3028 14.0599 32.0523 16.7104 31.0223 19.0979C30.1218 21.1694 30.4313 21.4495 28.8498 22.308C26.4873 22.2215 23.8528 19.826 21.0678 18.6575C17.1328 20.039 14.3084 21.2664 10.9399 23.8304L9.34434 17.4715C8.42534 15.8335 7.67535 14.4804 6.60035 12.9429C6.46685 14.2014 6.86136 15.6504 7.11436 16.9254C8.85736 19.2714 9.84283 23.553 9.63633 26.5125C12.9508 23.7515 15.4273 22.1809 19.1463 20.0649Z"
    fill="#ADA49D"
  />
  <path
    d="M30.1136 34.1226C33.0016 32.6706 35.9691 24.8076 35.7771 21.8146L35.2786 21.2686C34.2131 26.0481 33.0936 30.3306 28.3391 32.7551L30.1136 34.1226Z"
    fill="#EDE9E2"
  />
</svg>
