<svg
  width="40"
  height="45"
  viewBox="0 0 40 45"
  fill="none"
  xmlns="http://www.w3.org/2000/svg"
>
  <path
    d="M13.4467 43.2831C17.5932 45.0876 19.9162 45.2781 24.3167 43.7991C29.0722 42.2011 36.2147 34.1286 36.6012 29.1221C44.3557 13.2141 34.2247 4.89557 20.4202 6.48499e-05C13.4117 0.834565 4.3607 5.51556 1.4237 12.0901C-3.0918 22.1966 3.73518 38.7091 13.4467 43.2831Z"
    fill="#EDE9E2"
  />
  <path
    d="M13.7872 32.8846C15.4617 36.1786 23.2207 35.9051 26.0372 33.3221C33.5152 31.8851 36.1557 19.9741 32.9207 14.8391L32.7232 14.3616C31.1452 15.9681 30.0372 21.2031 29.5347 23.5426L28.2632 24.0491C26.4907 23.2671 25.8552 23.0811 24.5892 21.6396L25.2892 21.1296L19.5997 18.9706C16.0942 19.6251 14.9322 19.7386 11.9617 21.6926C9.56823 20.1501 9.47723 16.9941 6.97323 15.9076C6.64173 14.8991 6.62323 14.8701 5.87423 14.1001L5.44223 14.3556L5.70224 15.6796C4.20724 20.0056 4.65072 25.9156 6.36322 30.1841C9.23372 32.2426 10.2597 33.3281 13.7872 32.8846Z"
    fill="#E3DDC7"
  />
  <path
    d="M29.4344 27.7336C30.5354 23.5401 31.6439 18.9506 32.9209 14.8391L32.7234 14.3616C31.1454 15.9681 30.0374 21.2031 29.5349 23.5426L28.2634 24.0491C26.4909 23.2671 25.8554 23.0811 24.5894 21.6396L25.2894 21.1296L19.5999 18.9706C16.0944 19.6251 14.9324 19.7386 11.9619 21.6926C9.56838 20.1501 9.47739 16.9941 6.97339 15.9076C6.64189 14.8991 6.62339 14.8701 5.87439 14.1001L5.44238 14.3556L5.70239 15.6796C7.31189 19.8291 7.75088 23.5081 9.08188 27.3406C19.9429 20.1511 19.2319 21.3876 29.4344 27.7336Z"
    fill="#ADA49D"
  />
  <path
    d="M19.6046 20.5061C22.7426 21.6451 26.8681 24.8641 28.5706 24.9476L29.5346 23.5426L28.2631 24.0491C26.4906 23.2671 25.8551 23.0811 24.5891 21.6396L25.2891 21.1296L19.5996 18.9706C16.0941 19.6251 14.9321 19.7386 11.9616 21.6926C9.56814 20.1501 9.47714 16.9941 6.97314 15.9076C7.83064 19.0261 8.85315 22.2336 9.79715 25.3386C13.4101 22.9991 15.5136 21.7406 19.6046 20.5061Z"
    fill="#CCC4BF"
  />
  <path
    d="M13.7874 32.8846C15.4619 36.1786 23.2209 35.9051 26.0374 33.3221C23.0069 30.7596 21.9219 27.3501 19.5779 24.0196C17.9719 26.5881 15.6004 30.6276 13.7874 32.8846Z"
    fill="#FEFEFE"
  />
  <path
    d="M13.4467 43.2832L13.1972 43.0082C11.3907 41.0342 9.58119 40.2627 8.55969 38.1372L8.4267 37.8667C8.3517 37.6887 8.2762 37.5107 8.2012 37.3327C3.8847 35.9467 1.4687 22.3017 1.4772 17.9947L1.47919 17.8207C3.17619 14.9937 4.30721 12.3847 7.29721 11.0462L19.2947 4.88719C22.2012 5.89569 30.0887 10.0367 33.2182 11.6277L34.5272 12.8487C40.3562 17.0267 36.3337 23.6682 36.6012 29.1222C44.3557 13.2142 34.2247 4.8957 20.4202 0.000198364C13.4117 0.834698 4.3607 5.51569 1.4237 12.0902C-3.0918 22.1967 3.73518 38.7092 13.4467 43.2832Z"
    fill="#C1BCB7"
  />
  <path
    d="M13.4467 43.2831C17.5932 45.0876 19.9162 45.2781 24.3167 43.7991C29.0722 42.2011 36.2147 34.1286 36.6012 29.1221C36.3337 23.6681 40.3562 17.0266 34.5272 12.8486C35.8202 17.5556 36.6357 19.7406 35.2192 25.0411C33.4937 31.2486 29.8002 38.4906 23.2247 40.5316C20.5492 41.3616 18.4782 40.9106 15.9262 42.5976C15.4167 42.1511 9.45467 38.2421 8.20117 37.3326C8.27617 37.5106 8.35167 37.6886 8.42667 37.8666L8.55966 38.1371C9.58116 40.2626 11.3907 41.0341 13.1972 43.0081L13.4467 43.2831Z"
    fill="#D5CFCC"
  />
  <path
    d="M8.20132 37.3325C7.60332 34.4315 6.3388 33.1795 6.3633 30.184C4.6508 25.9155 4.20732 20.0055 5.70232 15.6795L5.44231 14.3555L5.87432 14.1C6.62332 14.87 6.64182 14.899 6.97332 15.9075C9.47732 16.994 9.56831 20.15 11.9618 21.6925C14.9323 19.7385 16.0943 19.625 19.5998 18.9705L25.2893 21.1295L26.5463 21.0395L26.6463 19.962C26.6213 19.9675 12.4008 18.106 10.6568 17.9675C9.11982 15.7305 8.16732 13.6085 7.29732 11.046C4.30732 12.3845 3.1763 14.9935 1.4793 17.8205L1.47732 17.9945C1.46882 22.3015 3.88482 35.9465 8.20132 37.3325Z"
    fill="#D5CFCC"
  />
  <path
    d="M25.2893 21.1298L24.5894 21.6398C25.8554 23.0813 26.4908 23.2673 28.2633 24.0493L29.5349 23.5428C30.0374 21.2033 31.1454 15.9683 32.7234 14.3618L31.8994 13.0823C29.2089 14.7588 28.1999 17.2088 26.6464 19.9623L26.5464 21.0398L25.2893 21.1298Z"
    fill="#E3DDC7"
  />
</svg>
