<svg
  width="36"
  height="41"
  viewBox="0 0 36 41"
  fill="none"
  xmlns="http://www.w3.org/2000/svg"
>
  <path
    d="M15.9171 40.7197C18.8018 40.8397 22.8711 39.5747 25.1306 37.7653C26.1449 36.953 27.4045 35.7459 28.2196 34.731C28.5754 34.3004 28.8713 33.7814 29.2149 33.3492C30.5488 31.6716 31.6115 29.8784 32.5785 27.9775C32.987 27.1747 33.5949 26.2488 33.918 25.4042C34.5649 23.7129 35.0109 21.8601 35.246 20.0683C35.3523 19.2234 35.4203 17.5928 35.2439 16.7786C34.8551 14.9847 33.3651 13.1763 32.0651 11.8939C31.1711 11.0119 30.3902 10.3149 29.6545 9.27279C29.0928 8.52809 28.8399 7.64117 28.4153 6.82768C26.5326 3.22039 23.8219 0.46364 19.5469 0.00145007C16.7447 -0.0556798 13.5451 1.65587 11.5014 3.46296C10.1388 4.66737 9.08852 6.21573 7.85414 7.50612L4.13297 11.3389C3.76403 11.725 3.38237 12.0978 3.01616 12.4875C1.14966 14.4736 0.107886 16.8002 0.00734973 19.5068C-0.0372958 20.9595 0.121619 22.4114 0.479644 23.8219C0.881215 25.3409 1.74958 27.1759 2.42476 28.6097C3.27585 30.417 4.21767 32.3384 5.33605 34.001C6.06335 35.0824 6.97904 35.9617 7.83946 36.9179C9.93086 39.242 12.717 40.6076 15.9171 40.7197Z"
    fill="black"
  />
  <path
    d="M15.935 40.1599C16.5877 40.2356 17.5778 40.0458 18.2298 39.9315C20.5386 39.5268 22.961 38.6407 24.7847 37.1669C25.827 36.21 27.0115 35.1803 27.8437 34.0376C28.7398 32.8071 29.7032 31.4794 30.523 30.2003C30.988 29.4747 31.3836 28.5936 31.8106 27.8431C32.4936 26.6427 33.1581 25.4101 33.6012 24.1066C34.1632 22.4394 34.4672 20.5595 34.6612 18.8176C34.7373 18.1348 34.786 16.6606 34.435 16.072C33.6532 14.7607 32.5114 13.3431 31.4148 12.2532C30.7227 11.5654 29.9013 10.8851 29.338 10.1147C28.4999 8.96857 27.9933 7.50946 27.3063 6.26975C26.8937 5.52532 26.1812 4.57748 25.6101 3.92657C23.8992 1.97713 22.1338 0.842965 19.4799 0.619596C17.7727 0.610231 15.984 1.40209 14.4403 2.11809C13.8407 2.47304 13.2008 2.95022 12.655 3.36792C11.1373 4.53066 10.0121 6.15076 8.7168 7.49223C7.27977 8.98051 5.76043 10.3648 4.43246 11.969C3.73694 12.8092 2.85025 13.4967 2.31043 14.4732C1.41082 15.9147 0.822776 17.3272 0.669363 19.0277C0.280234 22.8481 2.04136 26.3253 3.69765 29.653C4.5685 31.4048 5.45122 33.1782 6.74488 34.6754C8.61679 36.8418 10.473 38.8974 13.4063 39.6274C14.3284 39.8569 14.9455 40.0556 15.935 40.1599Z"
    fill="#EDE9E2"
  />
  <path
    d="M7.21683 17.6382C8.9824 17.8801 11.8599 17.1739 13.4569 16.4196C15.9336 15.25 17.6655 15.4768 20.3283 15.6768C22.1682 15.815 24.192 16.0182 26.04 15.7664C27.3831 15.5834 28.6795 14.936 29.8472 14.2567C29.454 14.3079 28.6418 14.5781 28.2622 14.7132C26.4882 15.3445 25.9687 15.5308 24.0901 15.5309C22.8872 15.4965 21.6857 15.4242 20.4875 15.3138C17.6532 15.0523 16.431 14.8114 13.7173 15.9124C11.5642 16.786 8.63438 17.7773 6.36823 17.0574C5.67744 16.8379 4.86167 16.2293 4.40359 15.6797C4.14437 15.3951 3.76027 14.4419 3.54958 14.3521L3.51221 14.4203C3.59269 16.1427 5.62112 17.4355 7.21683 17.6382Z"
    fill="black"
  />
  <path
    d="M4.08228 21.0441C6.21339 22.1212 9.66248 22.0649 12.0253 22.0246C15.2159 21.953 18.4014 21.7378 21.5717 21.3795L21.5763 21.2636C21.3341 21.0154 21.1166 21.2306 20.8559 21.1539C19.0136 21.1782 17.1538 21.4722 15.3187 21.5628C12.3309 21.7104 9.2669 21.8742 6.29598 21.4622C5.61209 21.3674 4.75516 21.0767 4.10347 21.045L4.08228 21.0441Z"
    fill="black"
  />
  <path
    d="M7.78418 13.5023C9.11321 13.3733 14.3482 6.72826 14.8671 5.4529C14.8588 5.4588 14.8506 5.4647 14.8423 5.47065C13.3569 6.91159 11.9284 8.7766 10.5712 10.3034C10.1044 10.8293 9.62771 11.3466 9.14115 11.855C8.78538 12.221 7.85725 13.0303 7.78418 13.5023Z"
    fill="black"
  />
  <path
    d="M22.5465 7.09969C22.7855 7.13439 23.0784 7.12737 23.3238 7.12915C20.4023 6.00364 18.2419 6.61166 15.6758 4.1074C15.6042 4.01749 15.5837 4.00532 15.491 3.93461L15.4241 3.95614C15.234 4.56256 16.5356 5.41329 16.982 5.68367C18.6979 6.72292 20.5948 6.9092 22.5465 7.09969Z"
    fill="black"
  />
  <path
    d="M27.279 13.226L27.3624 13.1527C27.3736 12.8152 24.9259 8.13179 24.5133 7.43087C23.8762 8.17955 26.6678 12.4622 27.279 13.226Z"
    fill="black"
  />
  <path
    d="M13.8899 13.5011C14.5304 13.2623 15.5735 10.8364 15.9087 10.1512L15.8366 10.1643C15.6694 10.334 13.9537 13.2731 13.8899 13.5011Z"
    fill="#676464"
  />
  <path
    d="M21.5717 21.3795C22.4928 21.2716 23.6264 21.163 24.5304 21.0173C24.0305 20.9703 21.1822 21.0134 20.856 21.1539C21.1166 21.2307 21.3341 21.0154 21.5764 21.2637L21.5717 21.3795Z"
    fill="#3A353A"
  />
  <path
    d="M19.24 12.7107L19.3288 12.6395C19.4448 12.2349 19.3242 10.5453 19.0521 10.2506C19.0333 10.2595 19.0261 10.2612 19.0103 10.2786C18.8859 10.4161 19.2245 12.3615 19.24 12.7107Z"
    fill="#A4A39E"
  />
</svg>
