<svg
  width="37"
  height="43"
  viewBox="0 0 37 43"
  fill="none"
  xmlns="http://www.w3.org/2000/svg"
>
  <path
    d="M2.42229 8.23866C-7.32421 19.7582 14.5598 56.6182 28.7033 36.4927C33.9598 29.0127 37.2733 20.5726 36.5758 11.4091C31.3953 2.68864 18.7928 -3.93936 9.85527 2.70664C8.00777 4.08014 5.18879 5.37265 3.75029 7.17165L2.42229 8.23866Z"
    fill="#E3DFDA"
  />
  <path
    d="M2.42229 8.23866C-7.32421 19.7582 14.5598 56.6182 28.7033 36.4927C33.9598 29.0127 37.2733 20.5726 36.5758 11.4091C31.3953 2.68864 18.7928 -3.93936 9.85527 2.70664C8.00777 4.08014 5.18879 5.37265 3.75029 7.17165C8.27029 4.98765 15.3253 -0.104849 20.0008 0.468651C23.2998 1.58965 26.8483 3.78815 29.7618 5.64715C30.3893 5.84965 30.4398 6.00515 30.9578 6.31065C41.0778 12.2861 32.8548 28.9912 27.3988 36.2427C26.0173 35.2312 25.2978 34.0017 23.7358 33.0337C21.2288 34.0787 19.8623 34.5156 17.1743 33.8346C12.4488 32.6376 13.1108 33.6976 9.65129 35.8061L9.37328 35.9721C2.90878 27.2781 -1.04671 19.0072 2.42229 8.23866Z"
    fill="#818081"
  />
  <path
    d="M9.37305 35.9722C14.6905 41.8817 22.6151 44.1837 27.3986 36.2427C26.0171 35.2312 25.2976 34.0017 23.7356 33.0337C21.2286 34.0787 19.862 34.5157 17.174 33.8347C12.4485 32.6377 13.1106 33.6977 9.65106 35.8062L9.37305 35.9722Z"
    fill="#FEFEFE"
  />
</svg>
