<svg
  width="31"
  height="41"
  viewBox="0 0 31 41"
  fill="none"
  xmlns="http://www.w3.org/2000/svg"
>
  <path
    d="M16.395 0C20.074 0.115 25.858 0.123015 28.8345 2.45901C29.6835 3.12551 29.9775 4.13151 30.094 5.16901C31.0105 13.346 26.6485 31.351 21.417 37.6295C19.439 40.0035 17.4365 40.4755 14.459 40.741C12.964 40.389 11.7155 39.9875 10.5285 38.974C4.13148 33.5085 0.544981 17.9375 0.0429806 9.93301C-0.0840194 7.90301 -0.0150248 5.09002 1.46248 3.49802C4.50098 0.223516 12.212 0.18 16.395 0Z"
    fill="#545257"
  />
  <path
    d="M4.94443 26.1205C3.23893 20.8965 -0.62106 10.621 1.95044 5.53951C2.89144 3.68051 4.69792 2.65151 6.63492 2.07601C13.1859 0.130012 22.8694 1.37149 29.3339 3.23299C29.1109 11.8625 27.7619 21.5695 24.5979 29.6475C24.0359 31.5045 23.3669 33.3205 22.4299 35.025C21.3709 36.9525 19.6574 38.7775 17.4769 39.377C15.6814 39.871 13.8644 39.4605 12.2729 38.555C7.80042 36.0105 6.22143 30.7425 4.94443 26.1205Z"
    fill="#E9E6DF"
  />
  <path
    d="M4.94434 26.1204L5.32535 26.3614C9.02135 28.7459 10.9168 38.1234 16.0483 37.1774C20.2043 36.4114 21.2748 31.5959 24.5978 29.6474C24.0358 31.5044 23.3668 33.3204 22.4298 35.0249C21.3708 36.9524 19.6573 38.7774 17.4768 39.3769C15.6813 39.8709 13.8643 39.4604 12.2728 38.5549C7.80033 36.0104 6.22134 30.7424 4.94434 26.1204Z"
    fill="#EDE5DF"
  />
</svg>
