<svg
  width="33"
  height="29"
  viewBox="0 0 33 29"
  fill="none"
  xmlns="http://www.w3.org/2000/svg"
>
  <path
    d="M17.8126 28.2172C18.1643 28.2538 18.4245 28.1937 18.7527 28.1833C21.0237 28.1116 23.1028 27.0936 25.029 25.9627C25.8861 25.4596 26.8851 24.9373 27.6896 24.2995C29.0672 23.2069 30.1239 21.6578 30.8474 20.0657C31.2886 19.0978 31.6899 18.2372 31.845 17.1776C31.9036 16.7781 32.0491 16.3392 32.0845 15.9341C32.1884 14.7388 32.1939 13.4796 31.761 12.3419C30.9208 10.3113 29.3042 8.67493 28.0278 6.91493C26.4289 4.71043 25.1069 1.80243 22.4817 0.658931C21.3792 0.184681 19.9307 -0.0668186 18.7251 0.0154314C17.4488 0.102681 16.1396 0.14968 14.9322 0.60193C14.382 0.79643 13.116 1.33743 12.6297 1.61618C11.3173 2.36893 10.0244 3.27093 8.69189 4.01168C7.93313 4.43343 7.14018 4.81893 6.37935 5.24093C6.03363 5.44518 5.56848 5.60168 5.23591 5.81743C4.4518 6.32643 3.47752 6.81518 2.75149 7.38968C1.22636 8.57693 0.249776 10.3312 0.0456753 12.2507C-0.0881535 13.4937 0.0852828 14.8892 0.394252 16.0992C0.48692 16.4911 0.672581 16.8775 0.793584 17.2543C1.4852 19.4075 2.76171 21.184 4.43259 22.6936C5.0619 23.2622 5.78368 23.7338 6.50558 24.1957C8.66578 25.5878 10.9966 26.6965 13.4407 27.4943C14.0371 27.6926 14.7143 27.9366 15.3198 28.0849C15.7769 28.1968 16.3979 28.1299 16.8699 28.1364C17.162 28.1403 17.5156 28.186 17.8126 28.2172Z"
    fill="black"
  />
  <path
    d="M16.2695 27.82C16.595 27.8649 16.978 27.771 17.3105 27.77C17.5542 27.7693 17.8027 27.7713 18.0469 27.7715C20.6709 27.7733 23.0378 26.6729 25.2104 25.2981C26.0186 24.7868 26.8435 24.3685 27.568 23.7262C29.9768 21.5909 31.2652 18.4589 31.6024 15.3088C31.9647 12.0414 29.6566 9.95067 27.8692 7.55642C26.3625 5.53842 25.1783 3.04942 23.1148 1.52017C21.4473 0.326666 18.0264 0.282915 16.0999 0.673165C15.2007 0.903415 14.5354 1.17242 13.6913 1.53792C12.8091 1.91992 12.2465 2.30792 11.4431 2.82292C10.56 3.38892 9.62481 3.97067 8.7078 4.48192C7.64491 5.07442 6.53562 5.62342 5.46176 6.19792C5.0877 6.38692 4.70957 6.69467 4.34676 6.88792C3.52996 7.32267 3.0199 7.74692 2.36989 8.38742C1.30748 9.43442 0.82154 10.5588 0.568688 12.0103C0.472738 12.5611 0.46883 13.1146 0.491352 13.6711C0.508563 15.1469 0.860597 16.2186 1.39581 17.5606C1.81897 18.6215 2.00961 19.1071 2.71053 20.076C3.37604 20.9959 4.08081 21.7706 4.94533 22.523C5.45544 22.967 6.04222 23.3178 6.60043 23.6907C7.61863 24.3709 8.6481 24.9427 9.76445 25.4439C10.5263 25.7633 11.3708 26.2511 12.1556 26.503C13.4305 26.9123 14.9639 27.6001 16.2695 27.82Z"
    fill="#EDE9E2"
  />
  <path
    d="M17.4066 18.0401L20.9304 18.0502C23.4393 18.0551 25.9776 18.0301 28.3877 17.2128C28.78 17.0798 29.1923 16.9716 29.5503 16.76C29.285 16.7643 29.0368 16.8452 28.7765 16.8831C27.2503 17.1057 25.7376 17.499 24.1932 17.5951C23.1377 17.6608 22.0271 17.6294 20.9667 17.6284L17.9389 17.6177C17.4249 17.6138 16.8577 17.6201 16.3488 17.596C15.9448 17.577 15.4502 17.5145 15.0412 17.4746L12.0429 17.1627C8.74931 16.9377 5.26398 16.078 2.98756 13.5394L2.74365 13.7319C3.07958 14.3879 3.50749 14.7167 4.08372 15.1424C6.62308 17.0187 9.9314 17.4546 12.9946 17.7075C14.4579 17.8283 15.933 18.0162 17.4066 18.0401Z"
    fill="black"
  />
  <path
    d="M25.5131 13.3916C26.0254 13.4195 28.0549 13.445 28.4372 13.3416C28.493 13.3266 28.5426 13.3199 28.5717 13.2688C28.4156 13.1594 27.8244 13.1784 27.6064 13.1394C26.3601 12.917 25.0884 12.925 23.8271 12.8837C23.669 12.8785 23.4816 12.8626 23.3225 12.8447C22.1193 12.7091 20.9017 12.8118 19.6962 12.7523C17.9489 12.6732 16.2042 12.5455 14.4641 12.3694C11.7808 12.0776 9.13037 11.5378 6.54702 10.7571C5.92815 10.5234 5.26775 10.3399 4.6794 10.0342C4.57714 9.9811 4.45423 9.8933 4.3418 9.88443C4.27308 9.92698 4.30006 9.89883 4.26318 9.97643C4.36259 10.4614 6.02884 10.9869 6.48947 11.1475C7.06447 11.3481 7.68193 11.4866 8.26778 11.6501C9.80503 12.079 11.3789 12.3965 12.9633 12.5907C13.4506 12.6651 13.9619 12.6607 14.4478 12.7307C15.3957 12.8813 16.3517 12.9128 17.303 13.0063C18.1118 13.0857 18.8845 13.1795 19.7012 13.1954C20.4205 13.2094 21.1412 13.2014 21.8595 13.2182C23.0785 13.2471 24.2968 13.3049 25.5131 13.3916Z"
    fill="black"
  />
  <path
    d="M17.4807 7.16696C18.7991 7.26921 20.1815 7.08546 21.3461 6.44671C21.519 6.35196 21.7841 6.27696 21.9128 6.12621L21.9076 6.08271C21.6901 6.02871 20.0442 6.60246 19.6549 6.66746C18.6302 6.83796 18.1712 6.86971 17.1263 6.72121C16.2135 6.70896 15.0716 6.19121 14.3121 5.69096C14.1664 5.59496 13.6809 5.24521 13.5656 5.19696L13.5002 5.22446L13.4849 5.28621C13.509 5.37496 13.5717 5.47146 13.6372 5.53646C14.632 6.52146 16.1139 7.07371 17.4807 7.16696Z"
    fill="black"
  />
  <path
    d="M27.4158 11.6864C27.4754 11.6811 27.4556 11.6881 27.5039 11.6545C27.5125 11.6256 27.5152 11.6232 27.515 11.5888C27.5132 11.2537 24.0698 7.3885 23.555 6.8425C23.2664 6.53625 22.9522 6.254 22.6416 5.97025C22.62 5.95325 22.6153 5.95775 22.5832 5.95175L22.5762 6.0005C22.7776 6.6425 26.7897 11.2193 27.4158 11.6864Z"
    fill="black"
  />
  <path
    d="M6.83692 9.48718C7.02927 9.46593 7.44714 9.15068 7.60868 9.02643C9.18965 7.81143 10.9655 6.90418 12.5775 5.73193C12.7217 5.62693 12.867 5.54093 13.0039 5.42393L13.0057 5.37068C12.2595 5.56093 10.7265 6.51293 10.0189 6.94068C9.59401 7.19743 9.01278 7.51418 8.60092 7.80918C8.05045 8.20343 7.28791 8.71743 6.87312 9.26443C6.80423 9.35518 6.81976 9.39643 6.83692 9.48718Z"
    fill="black"
  />
</svg>
