<svg
  width="27"
  height="41"
  viewBox="0 0 27 41"
  fill="none"
  xmlns="http://www.w3.org/2000/svg"
>
  <path
    d="M11.8919 0.0934931C14.2569 -0.0590069 16.712 -0.0179971 19.072 0.166003C21.772 0.376503 24.142 0.950508 25.947 3.05901C27.897 8.42151 24.3469 23.5835 22.7119 29.3845C21.3419 34.237 19.7319 38.223 15.1519 40.806C13.5869 40.792 11.7419 40.485 10.4344 39.573C4.13194 35.175 1.72295 20.7375 0.673945 13.771C0.282445 11.171 -0.805059 5.2415 1.05044 3.122C3.18394 0.684997 8.84543 0.452993 11.8919 0.0934931Z"
    fill="#737071"
  />
  <path
    d="M10.428 1.60557C15.482 0.81107 20.7371 1.68358 25.5921 3.04658C25.5721 3.82408 25.547 4.60107 25.512 5.37757C25.087 15.2891 23.737 32.3881 16.242 39.2746C14.942 39.5696 13.572 39.7251 12.292 39.2421C9.58304 38.2216 7.81602 35.0156 6.68852 32.5016C4.12352 26.7811 -0.380964 9.78809 1.79604 4.09709C3.93204 1.83409 7.51853 1.93207 10.428 1.60557Z"
    fill="#EDE9E2"
  />
</svg>
