<svg
  width="27"
  height="41"
  viewBox="0 0 27 41"
  fill="none"
  xmlns="http://www.w3.org/2000/svg"
>
  <path
    d="M14.6247 0.0934931C12.2597 -0.0590069 9.80472 -0.0179971 7.44473 0.166003C4.74472 0.376503 2.37472 0.950508 0.569725 3.05901C-1.38028 8.42151 2.16974 23.5835 3.80474 29.3845C5.17474 34.237 6.78474 38.223 11.3647 40.806C12.9297 40.792 14.7747 40.485 16.0822 39.573C22.3847 35.175 24.7937 20.7375 25.8427 13.771C26.2342 11.171 27.3217 5.2415 25.4662 3.122C23.3327 0.684997 17.6712 0.452993 14.6247 0.0934931Z"
    fill="#737071"
  />
  <path
    d="M16.0887 1.60557C11.0347 0.81107 5.77963 1.68358 0.924625 3.04658C0.944625 3.82408 0.969642 4.60107 1.00464 5.37757C1.42964 15.2891 2.77966 32.3881 10.2747 39.2746C11.5747 39.5696 12.9446 39.7251 14.2246 39.2421C16.9336 38.2216 18.7007 35.0156 19.8282 32.5016C22.3932 26.7811 26.8976 9.78809 24.7206 4.09709C22.5846 1.83409 18.9982 1.93207 16.0887 1.60557Z"
    fill="#EDE9E2"
  />
</svg>
