<svg
  width="33"
  height="29"
  viewBox="0 0 33 29"
  fill="none"
  xmlns="http://www.w3.org/2000/svg"
>
  <path
    d="M14.3305 28.2172C13.9788 28.2538 13.7186 28.1937 13.3904 28.1833C11.1194 28.1116 9.04031 27.0936 7.11404 25.9627C6.25701 25.4596 5.25792 24.9373 4.4535 24.2995C3.07588 23.2069 2.01918 21.6578 1.29567 20.0657C0.854502 19.0978 0.453165 18.2372 0.298092 17.1776C0.239469 16.7781 0.0939178 16.3392 0.0585942 15.9341C-0.0453724 14.7388 -0.050883 13.4796 0.382019 12.3419C1.22227 10.3113 2.83888 8.67493 4.11529 6.91493C5.71412 4.71043 7.03613 1.80243 9.66135 0.658931C10.7639 0.184681 12.2124 -0.0668186 13.4179 0.0154314C14.6943 0.102681 16.0035 0.14968 17.2109 0.60193C17.761 0.79643 19.0271 1.33743 19.5134 1.61618C20.8258 2.36893 22.1187 3.27093 23.4512 4.01168C24.2099 4.43343 25.0029 4.81893 25.7637 5.24093C26.1094 5.44518 26.5746 5.60168 26.9072 5.81743C27.6913 6.32643 28.6655 6.81518 29.3916 7.38968C30.9167 8.57693 31.8933 10.3312 32.0974 12.2507C32.2312 13.4937 32.0578 14.8892 31.7488 16.0992C31.6561 16.4911 31.4705 16.8775 31.3495 17.2543C30.6579 19.4075 29.3814 21.184 27.7105 22.6936C27.0812 23.2622 26.3594 23.7338 25.6375 24.1957C23.4773 25.5878 21.1464 26.6965 18.7024 27.4943C18.106 27.6926 17.4287 27.9366 16.8232 28.0849C16.3662 28.1968 15.7452 28.1299 15.2732 28.1364C14.981 28.1403 14.6275 28.186 14.3305 28.2172Z"
    fill="black"
  />
  <path
    d="M15.8735 27.82C15.548 27.8649 15.1651 27.771 14.8326 27.77C14.5889 27.7693 14.3403 27.7713 14.0962 27.7715C11.4721 27.7733 9.10522 26.6729 6.93269 25.2981C6.12451 24.7868 5.29954 24.3685 4.57503 23.7262C2.16626 21.5909 0.877827 18.4589 0.540625 15.3088C0.17837 12.0414 2.48643 9.95067 4.2739 7.55642C5.78054 5.53842 6.96476 3.04942 9.02831 1.52017C10.6958 0.326666 14.1166 0.282915 16.0432 0.673165C16.9423 0.903415 17.6077 1.17242 18.4518 1.53792C19.334 1.91992 19.8965 2.30792 20.6999 2.82292C21.5831 3.38892 22.5183 3.97067 23.4353 4.48192C24.4982 5.07442 25.6074 5.62342 26.6813 6.19792C27.0554 6.38692 27.4335 6.69467 27.7963 6.88792C28.6131 7.32267 29.1232 7.74692 29.7732 8.38742C30.8356 9.43442 31.3215 10.5588 31.5744 12.0103C31.6703 12.5611 31.6742 13.1146 31.6517 13.6711C31.6345 15.1469 31.2825 16.2186 30.7473 17.5606C30.3241 18.6215 30.1335 19.1071 29.4325 20.076C28.767 20.9959 28.0623 21.7706 27.1977 22.523C26.6876 22.967 26.1009 23.3178 25.5426 23.6907C24.5244 24.3709 23.495 24.9427 22.3786 25.4439C21.6168 25.7633 20.7722 26.2511 19.9875 26.503C18.7125 26.9123 17.1792 27.6001 15.8735 27.82Z"
    fill="#EDE9E2"
  />
  <path
    d="M14.7364 18.0401L11.2127 18.0502C8.70372 18.0551 6.16543 18.0301 3.75541 17.2128C3.3631 17.0798 2.95074 16.9716 2.59274 16.76C2.85805 16.7643 3.10631 16.8452 3.36661 16.8831C4.89279 17.1057 6.40544 17.499 7.9499 17.5951C9.00535 17.6608 10.1159 17.6294 11.1764 17.6284L14.2042 17.6177C14.7181 17.6138 15.2853 17.6201 15.7943 17.596C16.1983 17.577 16.6929 17.5145 17.1019 17.4746L20.1002 17.1627C23.3938 16.9377 26.8791 16.078 29.1555 13.5394L29.3994 13.7319C29.0635 14.3879 28.6356 14.7167 28.0593 15.1424C25.52 17.0187 22.2117 17.4546 19.1485 17.7075C17.6851 17.8283 16.21 18.0162 14.7364 18.0401Z"
    fill="black"
  />
  <path
    d="M6.62999 13.3916C6.11767 13.4195 4.08819 13.445 3.70589 13.3416C3.65003 13.3266 3.60042 13.3199 3.57136 13.2688C3.72744 13.1594 4.31867 13.1784 4.53663 13.1394C5.78297 12.917 7.05462 12.925 8.316 12.8837C8.47408 12.8785 8.66147 12.8626 8.82055 12.8447C10.0238 12.7091 11.2413 12.8118 12.4469 12.7523C14.1941 12.6732 15.9389 12.5455 17.679 12.3694C20.3623 12.0776 23.0127 11.5378 25.5961 10.7571C26.2149 10.5234 26.8753 10.3399 27.4637 10.0342C27.5659 9.9811 27.6888 9.8933 27.8013 9.88443C27.87 9.92698 27.843 9.89883 27.8799 9.97643C27.7805 10.4614 26.1142 10.9869 25.6536 11.1475C25.0786 11.3481 24.4611 11.4866 23.8753 11.6501C22.338 12.079 20.7642 12.3965 19.1798 12.5907C18.6924 12.6651 18.1812 12.6607 17.6952 12.7307C16.7474 12.8813 15.7914 12.9128 14.84 13.0063C14.0313 13.0857 13.2585 13.1795 12.4418 13.1954C11.7226 13.2094 11.0018 13.2014 10.2836 13.2182C9.06456 13.2471 7.84627 13.3049 6.62999 13.3916Z"
    fill="black"
  />
  <path
    d="M14.6624 7.16696C13.344 7.26921 11.9616 7.08546 10.7969 6.44671C10.6241 6.35196 10.359 6.27696 10.2302 6.12621L10.2355 6.08271C10.453 6.02871 12.0989 6.60246 12.4882 6.66746C13.5128 6.83796 13.9719 6.86971 15.0168 6.72121C15.9295 6.70896 17.0715 6.19121 17.831 5.69096C17.9767 5.59496 18.4621 5.24521 18.5775 5.19696L18.6428 5.22446L18.6582 5.28621C18.6341 5.37496 18.5714 5.47146 18.5059 5.53646C17.5111 6.52146 16.0292 7.07371 14.6624 7.16696Z"
    fill="black"
  />
  <path
    d="M4.72731 11.6864C4.66769 11.6811 4.68748 11.6881 4.63913 11.6545C4.63061 11.6256 4.62785 11.6232 4.6281 11.5888C4.62986 11.2537 8.07328 7.3885 8.5881 6.8425C8.8767 6.53625 9.19086 6.254 9.50151 5.97025C9.52305 5.95325 9.52781 5.95775 9.55988 5.95175L9.56689 6.0005C9.36547 6.6425 5.35336 11.2193 4.72731 11.6864Z"
    fill="black"
  />
  <path
    d="M25.3061 9.48718C25.1138 9.46593 24.6959 9.15068 24.5344 9.02643C22.9534 7.81143 21.1775 6.90418 19.5656 5.73193C19.4213 5.62693 19.2761 5.54093 19.1391 5.42393L19.1373 5.37068C19.8835 5.56093 21.4165 6.51293 22.1242 6.94068C22.5491 7.19743 23.1303 7.51418 23.5421 7.80918C24.0926 8.20343 24.8552 8.71743 25.2699 9.26443C25.3388 9.35518 25.3233 9.39643 25.3061 9.48718Z"
    fill="black"
  />
</svg>
