<svg
  width="47"
  height="47"
  viewBox="0 0 47 47"
  fill="none"
  xmlns="http://www.w3.org/2000/svg"
>
  <path
    d="M21.7572 0.0464963C34.6332 -0.762504 45.6987 9.08299 46.3922 21.966C47.0857 34.8485 37.1412 45.825 24.2522 46.403C11.5267 46.9735 0.718674 37.1815 0.0341744 24.461C-0.650826 11.741 9.04367 0.845496 21.7572 0.0464963Z"
    fill="#0E1217"
  />
  <path
    d="M20.2456 15.3442C23.0761 14.3132 26.2426 14.8862 28.5326 16.8432C30.8231 18.8002 31.8821 21.8387 31.3051 24.7957C30.7281 27.7522 28.6036 30.1697 25.7456 31.1217C21.4106 32.5662 16.7191 30.2602 15.2151 25.9452C13.7106 21.6307 15.9516 16.9077 20.2456 15.3442Z"
    fill="white"
  />
  <path
    d="M39.3419 14.0096C41.2154 12.9551 40.7339 12.8797 42.6219 12.8687C47.4174 17.0112 44.9384 29.3691 42.7589 34.5901L38.7204 31.8406L32.5099 28.2071C32.6094 24.7026 32.6884 21.7931 31.9634 18.3516L39.3419 14.0096Z"
    fill="white"
  />
  <path
    d="M3.98494 34.011C1.55244 29.1685 -0.511061 17.453 3.93294 13.3225C5.71294 13.0335 5.21144 13.174 7.20744 14.297C9.53644 15.639 12.0614 17.0305 14.3224 18.4535C13.6069 22.269 13.3664 24.058 14.3594 27.961L8.03444 31.5435L3.98494 34.011Z"
    fill="white"
  />
  <path
    d="M23.8325 33.3658C27.428 31.9388 28.5015 31.3908 31.275 28.6978L38.3505 33.1277C39.601 33.8857 40.878 34.6303 42.0925 35.4408C39.1055 39.3343 29.128 48.7993 24.082 44.5963C23.999 43.5118 23.943 42.8787 23.954 41.7892C24.0005 39.1372 23.875 36.0538 23.8325 33.3658Z"
    fill="white"
  />
  <path
    d="M15.0203 28.7822C18.0103 31.3047 18.8598 31.7372 22.4623 33.1627L22.6123 41.9237C22.6518 44.0992 23.0268 43.9437 21.9718 45.1872C16.4793 46.6252 7.09429 40.7907 5.40479 35.5667C5.93129 33.9322 5.74629 34.4587 7.63929 33.3027L15.0203 28.7822Z"
    fill="white"
  />
  <path
    d="M23.9315 4.56223C23.9235 2.31623 23.56 2.69624 24.6825 1.38974C29.994 0.163244 40.313 6.34623 41.456 11.2887C40.5765 12.4362 39.804 12.6282 38.4845 13.2202C36.1335 14.4782 33.6015 16.0602 31.288 17.4347C28.478 15.1092 27.392 14.6162 23.941 13.3942L23.9315 4.56223Z"
    fill="white"
  />
  <path
    d="M7.48389 12.8691C5.76489 11.9666 6.30788 12.5986 5.44238 11.2061C6.58188 5.80609 16.0804 0.433574 21.5734 1.32507C22.8139 2.47357 22.4009 2.25009 22.5294 4.57309L22.5794 13.2911C18.6824 14.4411 17.7064 14.8836 14.6399 17.5081L7.48389 12.8691Z"
    fill="white"
  />
</svg>
