<svg
  width="44"
  height="43"
  viewBox="0 0 44 43"
  fill="none"
  xmlns="http://www.w3.org/2000/svg"
>
  <path
    d="M42.4949 23.9261C41.0909 35.3586 30.8629 43.6101 19.3924 42.5651C7.92186 41.5201 -0.646641 31.5561 0.0383592 20.0586C0.723359 8.56064 10.4139 -0.31588 21.9274 0.00861973C33.4409 0.33262 42.6169 9.74062 42.6539 21.2586C42.6564 22.1501 42.6034 23.0411 42.4949 23.9261Z"
    fill="#0E1217"
  />
  <path
    d="M28.6426 15.0305C31.3661 12.02 33.3761 10.0825 36.3851 7.33447C40.5926 12.287 41.6456 14.792 42.6536 21.2585C42.6561 22.15 42.6031 23.041 42.4946 23.926C40.7776 29.7055 40.3466 30.8805 36.4021 35.495C33.3401 32.916 31.2236 30.767 28.4131 27.888C31.9251 22.7635 31.6456 20.2305 28.6426 15.0305Z"
    fill="#FEFEFE"
    stroke="black"
  />
  <path
    d="M18.8292 0.911999C25.8502 0.595499 30.1212 2.35202 35.5177 6.68052C32.7927 9.02802 30.2647 11.4465 27.7847 14.051L24.0832 12.289C20.2157 11.7985 18.1962 12.454 14.7477 14.255C12.2012 11.794 9.80673 9.302 7.51123 6.6045C11.1907 3.703 14.2807 2.0885 18.8292 0.911999Z"
    fill="#FEFEFE"
  />
  <path
    d="M9.22095 9.13708C8.22095 8.13708 8.22095 8.13708 7.72095 7.13709C13.7209 0.137079 26.2209 -1.8629 35.7209 7.13707C35.2209 8.63707 35.2209 7.63704 33.2209 9.13708C22.7209 2.13706 20.2209 2.63708 9.22095 9.13708Z"
    fill="white"
  />
  <path
    d="M15.0052 28.6787C16.8792 29.6972 18.7082 30.3267 20.7412 30.9612C23.1882 30.4767 25.2152 29.9882 27.4452 28.7872C30.1162 31.3207 32.8087 33.8307 35.5237 36.3172C33.3807 38.1232 31.3767 39.4352 28.8987 40.7132C27.2937 41.0952 25.6742 41.4847 24.0292 41.6487C17.3367 42.3162 12.5427 40.1977 7.40869 36.1762L15.0052 28.6787Z"
    fill="#FEFEFE"
  />
  <path
    d="M9.22095 34.1139C8.22095 35.1139 8.22095 35.1139 7.72095 36.1138C13.7209 43.1139 25.7209 45.1139 35.2209 36.1139C35.2209 34.6139 33.7209 34.1139 33.2209 34.1138C22.7209 41.1139 20.2209 40.6138 9.22095 34.1139Z"
    fill="white"
  />
  <path
    d="M6.25292 7.56982C8.98192 9.33382 11.7169 12.6533 14.0824 14.9648C13.3624 16.3948 12.6739 17.9363 12.2719 19.4873C11.4379 22.7033 12.6729 24.9913 14.2769 27.7038L8.48644 33.5123C7.91794 34.1543 7.51145 34.4758 6.73495 34.8413C6.10295 34.5908 5.97795 34.5808 5.36895 34.1338C3.14295 32.4988 2.03244 27.4783 1.61394 24.8028C0.564444 18.0943 2.35592 12.9173 6.25292 7.56982Z"
    fill="#FEFEFE"
  />
  <path
    d="M19.9147 13.5512C22.7282 13.0072 25.6168 14.0172 27.4778 16.1962C29.3388 18.3752 29.8842 21.3862 28.9067 24.0797C27.9292 26.7732 25.5793 28.7327 22.7538 29.2107C18.4563 29.9377 14.3738 27.0727 13.5963 22.7842C12.8188 18.4952 15.6357 14.3792 19.9147 13.5512Z"
    fill="#FEFEFE"
  />
</svg>
