<svg
  width="127"
  height="311"
  viewBox="0 0 127 311"
  fill="none"
  xmlns="http://www.w3.org/2000/svg"
>
  <g clip-path="url(#clip0_206_31)">
    <path
      d="M42.2052 310.555L42.1511 310.541C40.6797 310.185 36.2429 310.142 34.3964 309.909C24.4358 308.643 14.9409 305.862 9.48966 296.659C7.15905 292.724 6.41312 289.315 6.02222 284.81C5.6429 280.436 6.55705 276.544 6.77942 272.333C7.24236 263.567 7.57552 254.766 8.28231 246.015C8.45498 243.876 8.78623 241.605 9.12005 239.49C9.40942 237.656 9.98991 235.577 10.1564 233.759C11.0241 224.283 12.0379 214.803 13.2676 205.366C15.1414 191.302 17.145 177.254 19.2781 163.228C19.6442 160.802 20.1794 158.406 20.5363 155.973C25.5273 121.969 30.9553 88.0198 39.0481 54.5924C42.1478 41.7892 48.6502 17.574 56.3215 7.26369C57.5627 5.59546 59.2364 3.97694 61.0173 2.89558C62.7676 1.83279 64.788 1.40026 66.7932 1.90911C70.4129 2.82761 73.1049 6.5321 74.8991 9.57957C81.4982 20.7884 86.3589 41.3032 89.1267 54.2155C94.3133 79.5533 98.5249 105.081 101.752 130.743C102.746 138.791 103.686 146.845 104.572 154.906C104.855 157.491 105.198 160.168 105.403 162.756C105.718 166.715 106.468 170.359 107.164 174.261L109.489 187.587C111.505 199.133 113.29 210.718 114.844 222.335C116.521 234.748 117.407 247.117 118.245 259.609C118.391 261.788 118.9 264.062 119.089 266.223C119.724 273.707 121.412 282.94 119.414 290.266C113.976 310.206 88.6678 310.629 72.0481 309.452C67.0931 309.1 63.782 307.948 58.7264 309.295C57.0366 309.745 54.1973 309.621 52.4096 309.968C50.6054 310.207 45.655 310.163 44.3533 310.555H42.2052Z"
      fill="black"
    />
    <path
      d="M64.1389 4.72125C65.5791 4.52233 66.7588 4.90569 67.9162 5.74118C82.5788 16.3248 93.5632 94.9156 96.3561 114.503C96.9396 118.595 97.7283 122.64 98.2648 126.745C99.3917 135.624 100.451 144.511 101.442 153.406C102.137 159.734 102.585 166.066 103.81 172.311C104.282 174.717 104.638 177.21 105.028 179.638C103.242 177.545 101.151 174.764 99.2061 172.895C87.7659 161.896 74.8525 152.701 58.3104 154.724L58.2214 154.735C46.8092 156.055 35.137 164.5 27.5826 172.698C25.0159 175.482 21.7576 179.756 19.3799 182.762C20.1011 180.46 20.393 177.805 20.7508 175.398C21.1946 172.57 21.6159 169.738 22.0148 166.903C23.1508 158.384 24.3653 149.878 25.6584 141.382C29.3233 116.264 33.8818 91.2854 39.3252 66.4927C42.4827 52.5913 45.9276 38.5149 50.906 25.1343C53.2348 18.8752 57.5829 7.36421 64.1389 4.72125Z"
      fill="#FEFEFE"
    />
    <path
      d="M50.8017 177.714L50.9372 177.729C51.0742 178.019 50.3766 179.386 50.2443 179.853C48.4481 186.19 49.9242 193.339 50.0808 199.692C50.2977 208.502 50.3772 215.381 53.165 223.759C56.9505 235.135 65.369 242.551 72.093 228.108C76.4734 218.501 76.3518 209.136 76.699 198.773C76.9336 191.769 78.5014 185.282 75.9592 178.398C88.7903 185.112 98.7586 196.03 107.203 207.627C111.032 212.885 110.551 212.592 111.418 219.02C112.01 223.178 112.522 227.346 112.955 231.524C109.291 231.516 98.2317 231.733 95.4124 234.211C92.5711 236.707 92.0854 247.822 91.8879 251.698C91.5666 260.293 91.5614 270.618 93.8788 278.988C94.265 280.383 95.0736 281.927 95.7659 283.214C92.8496 283.916 89.5146 284.861 86.6219 285.597C71.7296 289.388 60.4625 290.122 45.3971 286.594C40.1483 285.365 34.2741 284.264 29.0602 282.491C30.0918 280.937 30.6498 278.922 31.0381 277.117C31.7717 273.705 32.0086 270.117 32.1165 266.637C32.3252 259.911 31.7798 240.375 28.3435 235.141C26.3785 232.149 17.0161 230.846 13.4822 230.134C13.8992 225.739 14.3565 221.349 14.8543 216.964C15.8126 208.257 15.4542 209.752 20.919 202.954C29.5777 192.185 38.0273 183.478 50.8017 177.714Z"
      fill="#FEFEFE"
    />
    <path
      d="M25.8189 284.67C33.7796 286.96 40.7392 288.825 48.9654 290.311C55.801 291.545 60.9457 292.622 68.0598 292.023C72.61 291.639 77.0682 290.717 81.5377 289.794C85.1631 289.039 88.7652 288.175 92.3391 287.204C94.7201 286.549 98.1347 285.468 100.476 285.125C101.491 284.978 105.261 285.489 106.595 285.524C110.233 285.618 113.653 285.486 117.277 285.395C116.364 294.772 111.326 300.274 102.828 303.716C94.006 307.108 81.2846 307.205 71.9938 306.392C69.2942 306.157 66.6693 305.683 64.0284 305.51C63.2776 305.46 60.8422 305.916 59.9716 306.047C57.96 306.347 55.9411 306.599 53.9169 306.8C36.7172 308.55 11.2181 307.883 9.06641 285.363C15.7885 285.685 19.0181 285.932 25.8189 284.67Z"
      fill="#FEFEFE"
    />
    <path
      d="M61.6931 156.415C78.6655 155.981 92.4526 167.953 102.843 180.154C107.252 185.33 106.649 186.105 107.782 192.79C108.684 198.111 109.686 203.451 110.456 208.812C109.627 207.577 108.767 206.364 107.877 205.174C99.6369 193.962 88.2308 181.797 75.41 175.971C72.7059 174.743 71.2126 173.829 68.2004 173.369C64.719 172.94 60.1656 172.654 56.6721 173.557C42.6945 177.178 31.2033 187.522 22.1359 198.343C19.9806 200.914 18.1932 202.778 16.3906 205.521C16.9282 201.572 19.6096 186.912 21.1011 184.113C22.6165 181.268 26.5432 176.918 28.7762 174.405C37.1806 164.949 48.7861 157.159 61.6931 156.415Z"
      fill="#FEFEFE"
    />
    <path
      d="M59.7376 176.42C59.7808 176.416 59.9307 176.399 59.9736 176.402C63.5693 176.708 69.4916 175.673 72.2095 178.372C74.0483 180.276 74.4467 183.823 74.3651 186.366C74.1217 193.95 73.572 201.689 73.3377 209.256C73.124 216.162 70.8474 226.978 65.9431 232.055C62.9349 234.564 60.914 231.871 59.2581 229.389C53.5519 220.838 53.2064 209.991 53.0536 199.962C52.9586 193.728 50.8184 184.113 54.2172 178.525C55.2203 176.875 58.0169 176.558 59.7376 176.42Z"
      fill="#FEFEFE"
    />
    <path
      d="M107.49 234.67C109.387 234.551 111.288 234.514 113.188 234.563C114.301 242.443 114.524 251.743 115.29 259.688C115.543 262.316 115.974 264.983 116.285 267.612C116.883 272.507 117.229 277.431 117.323 282.361C112.779 282.527 109.03 282.731 104.457 282.394C102.465 282.292 100.49 281.969 98.5694 281.433C95.9518 278 95.5738 273.281 95.167 269.124C94.6277 263.614 94.1435 240.459 97.3356 236.725C98.8135 234.997 105.301 234.821 107.49 234.67Z"
      fill="#FEFEFE"
    />
    <path
      d="M13.5593 233.209C16.4339 233.656 23.4473 235.224 25.8062 236.568C29.6784 244.478 30.8046 273.84 26.2707 281.372L24.4154 281.903C19.4404 282.837 14.4403 282.799 9.41328 282.373C9.36251 277.839 9.74429 271.164 10.0226 266.598C10.684 255.745 10.6565 243.619 13.5593 233.209Z"
      fill="#FEFEFE"
    />
  </g>
  <defs>
    <clipPath id="clip0_206_31">
      <rect width="127" height="310.555" fill="white" />
    </clipPath>
  </defs>
</svg>
