<svg
  width="31"
  height="31"
  viewBox="0 0 31 31"
  fill="none"
  xmlns="http://www.w3.org/2000/svg"
>
  <path
    d="M14.09 0.0501673C22.435 -0.621833 29.775 5.53466 30.57 13.8722C31.36 22.2092 25.31 29.6362 16.985 30.5462C11.49 31.1467 6.10002 28.7432 2.88002 24.2562C-0.344975 19.7692 -0.904997 13.8942 1.42 8.88116C3.74 3.86816 8.57999 0.493667 14.09 0.0501673Z"
    fill="#0E1217"
  />
  <path
    d="M4.5197 5.22681C6.4947 6.78831 8.19475 8.69528 9.94475 10.5038C7.68475 14.6148 9.48473 15.6538 9.17473 19.6313C9.02973 21.4803 7.64474 22.3888 6.43974 23.6543L5.31975 24.8633L4.3947 24.6903C2.5897 22.8958 1.89973 20.8983 1.48973 18.4033C0.634731 13.2373 1.4697 9.40581 4.5197 5.22681Z"
    fill="#FEFEFE"
  />
  <path
    d="M10.7351 21.2902C14.3351 22.4772 16.3351 22.2052 19.9201 21.1667C21.7901 22.5862 23.5351 24.1502 25.3051 25.6897C24.0851 26.9177 22.5951 27.8942 21.1951 28.9122C19.8301 29.3492 18.3801 29.6897 16.9601 29.8832C12.5701 30.4822 9.1451 28.7347 5.8501 26.0482C7.4351 24.4227 9.10011 22.8692 10.7351 21.2902Z"
    fill="#FEFEFE"
  />
  <path
    d="M25.8549 5.85425C26.4499 6.33125 26.9199 6.85972 27.3749 7.47372C29.6749 10.5902 29.9949 15.0687 29.3499 18.7832C28.9649 20.9872 28.2449 22.9477 26.3949 24.3007L25.3649 24.1152L20.8999 20.1027C20.9599 19.9647 21.0199 19.8272 21.0699 19.6877C21.1599 19.4552 21.2449 19.2202 21.3349 18.9872C22.5599 15.7322 22.0599 13.7967 20.9549 10.5402C22.4999 8.87622 24.1699 7.37725 25.8549 5.85425Z"
    fill="#FEFEFE"
  />
  <path
    d="M13.3701 1.0323C18.4451 0.6713 21.4851 2.05879 25.6651 4.68879C23.7601 6.27879 21.8551 7.85481 19.8801 9.35881L19.1501 9.00129C16.0951 8.14829 13.8451 8.56129 10.8201 9.19529C8.87013 7.66129 7.26512 6.0283 5.62012 4.1963C8.12012 2.6763 10.5101 1.6533 13.3701 1.0323Z"
    fill="#FEFEFE"
  />
  <path
    d="M14.7148 9.66513C17.7498 9.37213 20.4648 11.5686 20.8098 14.6016C21.1548 17.6341 19.0048 20.3846 15.9798 20.7821C13.9748 21.0456 11.9848 20.2071 10.7698 18.5886C9.55978 16.9701 9.31483 14.8236 10.1298 12.9736C10.9498 11.1241 12.6998 9.85913 14.7148 9.66513Z"
    fill="#FEFEFE"
  />
</svg>
